<?xml version="1.0" encoding="UTF-8" standalone="no"?>
<svg
   xmlns:dc="http://purl.org/dc/elements/1.1/"
   xmlns:cc="http://creativecommons.org/ns#"
   xmlns:rdf="http://www.w3.org/1999/02/22-rdf-syntax-ns#"
   xmlns:svg="http://www.w3.org/2000/svg"
   xmlns="http://www.w3.org/2000/svg"
   xmlns:sodipodi="http://sodipodi.sourceforge.net/DTD/sodipodi-0.dtd"
   xmlns:inkscape="http://www.inkscape.org/namespaces/inkscape"
   width="286"
   height="286"
   version="1.1"
   viewBox="0 0 214.5 214.5"
   id="svg852"
   sodipodi:docname="Beautiful world.svg"
   inkscape:export-filename="/home/marek/Downloads/Beautiful world.png"
   inkscape:export-xdpi="16.783216"
   inkscape:export-ydpi="16.783216"
   inkscape:version="1.0.2 (e86c870879, 2021-01-15)">
  <metadata
     id="metadata856">
    <rdf:RDF>
      <cc:Work
         rdf:about="">
        <dc:format>image/svg+xml</dc:format>
        <dc:type
           rdf:resource="http://purl.org/dc/dcmitype/StillImage" />
        <dc:title></dc:title>
      </cc:Work>
    </rdf:RDF>
  </metadata>
  <sodipodi:namedview
     pagecolor="#ffffff"
     bordercolor="#666666"
     borderopacity="1"
     objecttolerance="10"
     gridtolerance="10"
     guidetolerance="10"
     inkscape:pageopacity="0"
     inkscape:pageshadow="2"
     inkscape:window-width="1920"
     inkscape:window-height="990"
     id="namedview854"
     showgrid="false"
     units="px"
     inkscape:pagecheckerboard="true"
     inkscape:zoom="0.44410714"
     inkscape:cx="309.43662"
     inkscape:cy="504.65166"
     inkscape:window-x="0"
     inkscape:window-y="30"
     inkscape:window-maximized="1"
     inkscape:current-layer="svg852" />
  <defs
     id="defs772">
    <symbol
       id="u"
       overflow="visible">
      <path
         d="m 18.766,-1.125 c -0.96875,0.5 -1.9805,0.875 -3.0312,1.125 -1.043,0.25781 -2.1367,0.39062 -3.2812,0.39062 -3.3984,0 -6.0898,-0.94531 -8.0781,-2.8438 -1.9922,-1.9062 -2.9844,-4.4844 -2.9844,-7.7344 0,-3.2578 0.99219,-5.8359 2.9844,-7.7344 1.9883,-1.9062 4.6797,-2.8594 8.0781,-2.8594 1.1445,0 2.2383,0.13281 3.2812,0.39062 1.0508,0.25 2.0625,0.625 3.0312,1.125 v 4.2188 c -0.98047,-0.65625 -1.9453,-1.1406 -2.8906,-1.4531 -0.94922,-0.3125 -1.9492,-0.46875 -3,-0.46875 -1.875,0 -3.3516,0.60547 -4.4219,1.8125 -1.0742,1.1992 -1.6094,2.8555 -1.6094,4.9688 0,2.1055 0.53516,3.7617 1.6094,4.9688 1.0703,1.1992 2.5469,1.7969 4.4219,1.7969 1.0508,0 2.0508,-0.14844 3,-0.45312 0.94531,-0.3125 1.9102,-0.80078 2.8906,-1.4688 z"
         id="path709" />
    </symbol>
    <symbol
       id="c"
       overflow="visible">
      <path
         d="m 13.734,-11.141 c -0.4375,-0.19531 -0.87109,-0.34375 -1.2969,-0.4375 -0.41797,-0.10156 -0.83984,-0.15625 -1.2656,-0.15625 -1.2617,0 -2.2305,0.40625 -2.9062,1.2188 -0.67969,0.80469 -1.0156,1.9531 -1.0156,3.4531 v 7.0625 H 2.3591 v -15.312 h 4.8906 v 2.5156 c 0.625,-1 1.3438,-1.7266 2.1562,-2.1875 0.82031,-0.46875 1.8008,-0.70312 2.9375,-0.70312 0.16406,0 0.34375,0.01172 0.53125,0.03125 0.19531,0.01172 0.47656,0.03906 0.84375,0.07813 z"
         id="path712" />
    </symbol>
    <symbol
       id="a"
       overflow="visible">
      <path
         d="m 17.641,-7.7031 v 1.4062 H 6.188 c 0.125,1.1484 0.53906,2.0078 1.25,2.5781 0.70703,0.57422 1.7031,0.85938 2.9844,0.85938 1.0312,0 2.082,-0.14844 3.1562,-0.45312 1.082,-0.3125 2.1914,-0.77344 3.3281,-1.3906 v 3.7656 c -1.1562,0.4375 -2.3125,0.76562 -3.4688,0.98438 -1.1562,0.22656 -2.3125,0.34375 -3.4688,0.34375 -2.7734,0 -4.9297,-0.70312 -6.4688,-2.1094 -1.5312,-1.4062 -2.2969,-3.3789 -2.2969,-5.9219 0,-2.5 0.75391,-4.4609 2.2656,-5.8906 1.5078,-1.4375 3.582,-2.1562 6.2188,-2.1562 2.4062,0 4.332,0.73047 5.7812,2.1875 1.4453,1.4492 2.1719,3.3828 2.1719,5.7969 z m -5.0312,-1.625 c 0,-0.92578 -0.27344,-1.6719 -0.8125,-2.2344 -0.54297,-0.57031 -1.25,-0.85938 -2.125,-0.85938 -0.94922,0 -1.7188,0.26562 -2.3125,0.79688 -0.5937,0.53126 -0.96484,1.2969 -1.1094,2.2969 z"
         id="path715" />
    </symbol>
    <symbol
       id="e"
       overflow="visible">
      <path
         d="m 9.2188,-6.8906 c -1.0234,0 -1.793,0.17188 -2.3125,0.51562 -0.51172,0.34375 -0.76562,0.85547 -0.76562,1.5312 0,0.625 0.20703,1.1172 0.625,1.4688 0.41406,0.34375 0.98828,0.51562 1.7188,0.51562 0.92578,0 1.7031,-0.32812 2.3281,-0.98438 0.63281,-0.66406 0.95312,-1.4922 0.95312,-2.4844 v -0.5625 z m 7.4688,-1.8438 V 0 h -4.9219 v -2.2656 c -0.65625,0.92969 -1.3984,1.6055 -2.2188,2.0312 -0.82422,0.41406 -1.8242,0.625 -3,0.625 -1.5859,0 -2.8711,-0.45703 -3.8594,-1.375 -0.99219,-0.92578 -1.4844,-2.1289 -1.4844,-3.6094 0,-1.7891 0.61328,-3.1016 1.8438,-3.9375 1.2383,-0.84375 3.1797,-1.2656 5.8281,-1.2656 h 2.8906 v -0.39062 c 0,-0.76953 -0.30859,-1.332 -0.92188,-1.6875 -0.61719,-0.36328 -1.5703,-0.54688 -2.8594,-0.54688 -1.0547,0 -2.0312,0.10547 -2.9375,0.3125 -0.89844,0.21094 -1.7305,0.52344 -2.5,0.9375 v -3.7344 c 1.0391,-0.25 2.0859,-0.44141 3.1406,-0.57812 1.0625,-0.13281 2.125,-0.20312 3.1875,-0.20312 2.7578,0 4.75,0.54688 5.9688,1.6406 1.2266,1.0859 1.8438,2.8555 1.8438,5.3125 z"
         id="path718" />
    </symbol>
    <symbol
       id="b"
       overflow="visible">
      <path
         d="m 7.7031,-19.656 v 4.3438 H 12.75 v 3.5 H 7.7031 v 6.5 c 0,0.71094 0.14062,1.1875 0.42188,1.4375 0.28126,0.25 0.83594,0.375 1.6719,0.375 h 2.5156 v 3.5 h -4.1875 c -1.9375,0 -3.3125,-0.39844 -4.125,-1.2031 -0.80469,-0.8125 -1.2031,-2.1797 -1.2031,-4.1094 v -6.5 h -2.4219 v -3.5 h 2.4219 v -4.3438 z"
         id="path721" />
    </symbol>
    <symbol
       id="k"
       overflow="visible">
      <path
         d="m 12.766,-13.078 v -8.2031 h 4.9219 V -1e-4 H 12.766 v -2.2188 c -0.66797,0.90625 -1.4062,1.5703 -2.2188,1.9844 -0.8126,0.4141 -1.7578,0.625 -2.8281,0.625 -1.8867,0 -3.4336,-0.75 -4.6406,-2.25 -1.2109,-1.5 -1.8125,-3.4258 -1.8125,-5.7812 0,-2.3633 0.60156,-4.2969 1.8125,-5.7969 1.207,-1.5 2.7539,-2.25 4.6406,-2.25 1.0625,0 2,0.21484 2.8125,0.64062 0.82031,0.42969 1.5664,1.0859 2.2344,1.9688 z m -3.2188,9.9219 c 1.0391,0 1.8359,-0.37891 2.3906,-1.1406 0.55078,-0.76953 0.82812,-1.8828 0.82812,-3.3438 0,-1.457 -0.27734,-2.5664 -0.82812,-3.3281 -0.55469,-0.76953 -1.3516,-1.1562 -2.3906,-1.1562 -1.043,0 -1.8398,0.38672 -2.3906,1.1562 -0.55469,0.76172 -0.82812,1.8711 -0.82812,3.3281 0,1.4609 0.27344,2.5742 0.82812,3.3438 0.55078,0.76172 1.3477,1.1406 2.3906,1.1406 z"
         id="path724" />
    </symbol>
    <symbol
       id="j"
       overflow="visible">
      <path
         d="m 10.5,-3.1562 c 1.0508,0 1.8516,-0.37891 2.4062,-1.1406 0.55078,-0.76953 0.82812,-1.8828 0.82812,-3.3438 0,-1.457 -0.27734,-2.5664 -0.82812,-3.3281 -0.55469,-0.76953 -1.3555,-1.1562 -2.4062,-1.1562 -1.0547,0 -1.8594,0.38672 -2.4219,1.1562 -0.55469,0.77344 -0.82812,1.8828 -0.82812,3.3281 0,1.4492 0.27344,2.5586 0.82812,3.3281 0.5625,0.77344 1.3672,1.1562 2.4219,1.1562 z m -3.25,-9.9219 c 0.67578,-0.88281 1.4219,-1.5391 2.2344,-1.9688 0.82031,-0.42578 1.7656,-0.64062 2.8281,-0.64062 1.8945,0 3.4453,0.75 4.6562,2.25 1.207,1.5 1.8125,3.4336 1.8125,5.7969 0,2.3555 -0.60547,4.2812 -1.8125,5.7812 -1.2109,1.5 -2.7617,2.25 -4.6562,2.25 -1.0625,0 -2.0078,-0.21094 -2.8281,-0.625 C 8.6719,-0.6602 7.9258,-1.32032 7.25,-2.21882 V -2e-5 H 2.3594 v -21.281 H 7.25 Z"
         id="path727" />
    </symbol>
    <symbol
       id="i"
       overflow="visible">
      <path
         d="m 0.34375,-15.312 h 4.8906 l 4.125,10.391 3.5,-10.391 h 4.8906 l -6.4375,16.766 c -0.64844,1.6953 -1.4023,2.8828 -2.2656,3.5625 -0.86719,0.6875 -2,1.0312 -3.4062,1.0312 H 2.79685 V 2.8289 h 1.5312 c 0.83203,0 1.4375,-0.13672 1.8125,-0.40625 C 6.52336,2.16093 6.82024,1.69218 7.03117,1.01645 L 7.17179,0.59457 Z"
         id="path730" />
    </symbol>
    <symbol
       id="h"
       overflow="visible">
      <path
         d="m 11.891,-16.969 c -1.6055,0 -2.8516,0.59375 -3.7344,1.7812 -0.875,1.1875 -1.3125,2.8555 -1.3125,5 0,2.1484 0.4375,3.8125 1.3125,5 0.88281,1.1797 2.1289,1.7656 3.7344,1.7656 1.6133,0 2.8633,-0.58594 3.75,-1.7656 0.88281,-1.1875 1.3281,-2.8516 1.3281,-5 0,-2.1445 -0.44531,-3.8125 -1.3281,-5 -0.88672,-1.1875 -2.1367,-1.7812 -3.75,-1.7812 z m 0,-3.8125 c 3.2812,0 5.8477,0.9375 7.7031,2.8125 1.8633,1.875 2.7969,4.4688 2.7969,7.7812 0,3.3047 -0.93359,5.8906 -2.7969,7.7656 -1.8555,1.875 -4.4219,2.8125 -7.7031,2.8125 -3.2734,0 -5.8398,-0.9375 -7.7031,-2.8125 -1.8672,-1.875 -2.7969,-4.4609 -2.7969,-7.7656 0,-3.3125 0.92969,-5.9062 2.7969,-7.7812 1.8633,-1.875 4.4297,-2.8125 7.7031,-2.8125 z"
         id="path733" />
    </symbol>
    <symbol
       id="g"
       overflow="visible">
      <path
         d="M 17.75,-9.3281 V 0 h -4.9219 v -7.1094 c 0,-1.3438 -0.03125,-2.2656 -0.09375,-2.7656 -0.0625,-0.5 -0.16797,-0.86719 -0.3125,-1.1094 -0.1875,-0.3125 -0.44922,-0.55469 -0.78125,-0.73438 -0.32422,-0.17578 -0.69531,-0.26562 -1.1094,-0.26562 -1.0234,0 -1.8242,0.39844 -2.4062,1.1875 -0.58594,0.78125 -0.875,1.8711 -0.875,3.2656 V -1e-4 H 2.3594 v -21.281 H 7.25 v 8.2031 c 0.73828,-0.88281 1.5195,-1.5391 2.3438,-1.9688 0.83203,-0.42578 1.75,-0.64062 2.75,-0.64062 1.7695,0 3.1133,0.54688 4.0312,1.6406 0.91406,1.0859 1.375,2.6562 1.375,4.7188 z"
         id="path736" />
    </symbol>
    <symbol
       id="t"
       overflow="visible">
      <path
         d="m 10.047,-11.359 c 1.1016,0 1.8945,-0.20312 2.375,-0.60938 0.47656,-0.41406 0.71875,-1.0938 0.71875,-2.0312 0,-0.92578 -0.24219,-1.5859 -0.71875,-1.9844 -0.48047,-0.40625 -1.2734,-0.60938 -2.375,-0.60938 H 7.8282 v 5.2344 z M 7.8282,-7.7184 V 4e-4 h -5.25 v -20.406 h 8.0312 c 2.6875,0 4.6562,0.45312 5.9062,1.3594 1.2578,0.89844 1.8906,2.3203 1.8906,4.2656 0,1.3555 -0.32812,2.4648 -0.98438,3.3281 -0.64844,0.86719 -1.625,1.5 -2.9375,1.9062 0.71875,0.16797 1.3594,0.54297 1.9219,1.125 0.57031,0.57422 1.1484,1.4492 1.7344,2.625 l 2.8594,5.7969 h -5.6094 l -2.4844,-5.0781 c -0.5,-1.0195 -1.0117,-1.7109 -1.5312,-2.0781 -0.51172,-0.375 -1.1953,-0.5625 -2.0469,-0.5625 z"
         id="path739" />
    </symbol>
    <symbol
       id="s"
       overflow="visible">
      <path
         d="M 2.3594,-15.312 H 7.25 V 0 H 2.3594 Z m 0,-5.9688 H 7.25 v 4 H 2.3594 Z"
         id="path742" />
    </symbol>
    <symbol
       id="f"
       overflow="visible">
      <path
         d="M 17.75,-9.3281 V 0 h -4.9219 v -7.1406 c 0,-1.3203 -0.03125,-2.2344 -0.09375,-2.7344 -0.0625,-0.5 -0.16797,-0.86719 -0.3125,-1.1094 -0.1875,-0.3125 -0.44922,-0.55469 -0.78125,-0.73438 -0.32422,-0.17578 -0.69531,-0.26562 -1.1094,-0.26562 -1.0234,0 -1.8242,0.39844 -2.4062,1.1875 -0.58594,0.78125 -0.875,1.8711 -0.875,3.2656 V -1e-4 H 2.3594 v -15.312 H 7.25 v 2.2344 c 0.73828,-0.88281 1.5195,-1.5391 2.3438,-1.9688 0.83203,-0.42578 1.75,-0.64062 2.75,-0.64062 1.7695,0 3.1133,0.54688 4.0312,1.6406 0.91406,1.0859 1.375,2.6562 1.375,4.7188 z"
         id="path745" />
    </symbol>
    <symbol
       id="r"
       overflow="visible">
      <path
         d="m 12.422,-21.281 v 3.2188 H 9.7189 c -0.6875,0 -1.1719,0.125 -1.4531,0.375 -0.27344,0.25 -0.40625,0.6875 -0.40625,1.3125 v 1.0625 h 4.1875 v 3.5 H 7.85955 V -2e-4 h -4.8906 v -11.812 h -2.4375 v -3.5 h 2.4375 v -1.0625 c 0,-1.6641 0.46094,-2.8984 1.3906,-3.7031 0.92578,-0.80078 2.3672,-1.2031 4.3281,-1.2031 z"
         id="path748" />
    </symbol>
    <symbol
       id="d"
       overflow="visible">
      <path
         d="m 9.6406,-12.188 c -1.0859,0 -1.9141,0.39062 -2.4844,1.1719 -0.57422,0.78125 -0.85938,1.9062 -0.85938,3.375 0,1.4688 0.28516,2.5938 0.85938,3.375 0.57031,0.77344 1.3984,1.1562 2.4844,1.1562 1.0625,0 1.875,-0.38281 2.4375,-1.1562 0.57031,-0.78125 0.85938,-1.9062 0.85938,-3.375 0,-1.4688 -0.28906,-2.5938 -0.85938,-3.375 -0.5625,-0.78125 -1.375,-1.1719 -2.4375,-1.1719 z m 0,-3.5 c 2.6328,0 4.6914,0.71484 6.1719,2.1406 1.4766,1.418 2.2188,3.3867 2.2188,5.9062 0,2.5117 -0.74219,4.4805 -2.2188,5.9062 C 14.332,-0.317 12.2734,0.39 9.6406,0.39 6.9922,0.39 4.9258,-0.31703 3.4375,-1.735 1.9453,-3.1608 1.2031,-5.1295 1.2031,-7.6412 c 0,-2.5195 0.74219,-4.4883 2.2344,-5.9062 1.4883,-1.4258 3.5547,-2.1406 6.2031,-2.1406 z"
         id="path751" />
    </symbol>
    <symbol
       id="q"
       overflow="visible">
      <path
         d="m 16.547,-12.766 c 0.61328,-0.94531 1.3477,-1.6719 2.2031,-2.1719 0.85156,-0.5 1.7891,-0.75 2.8125,-0.75 1.7578,0 3.0977,0.54688 4.0156,1.6406 0.92578,1.0859 1.3906,2.6562 1.3906,4.7188 V -4e-4 h -4.9219 v -7.9844 -0.35938 c 0.0078,-0.13281 0.01563,-0.32031 0.01563,-0.5625 0,-1.082 -0.16406,-1.8633 -0.48438,-2.3438 -0.3125,-0.48828 -0.82422,-0.73438 -1.5312,-0.73438 -0.92969,0 -1.6484,0.38672 -2.1562,1.1562 -0.51172,0.76172 -0.77344,1.8672 -0.78125,3.3125 v 7.5156 h -4.9219 v -7.9844 c 0,-1.6953 -0.14844,-2.7852 -0.4375,-3.2656 -0.29297,-0.48828 -0.8125,-0.73438 -1.5625,-0.73438 -0.9375,0 -1.6641,0.38672 -2.1719,1.1562 -0.51172,0.76172 -0.76562,1.8594 -0.76562,3.2969 v 7.5312 h -4.9219 v -15.312 h 4.9219 v 2.2344 c 0.60156,-0.86328 1.2891,-1.5156 2.0625,-1.9531 0.78125,-0.4375 1.6406,-0.65625 2.5781,-0.65625 1.0625,0 2,0.25781 2.8125,0.76562 0.8125,0.51172 1.4258,1.2305 1.8438,2.1562 z"
         id="path754" />
    </symbol>
    <symbol
       id="p"
       overflow="visible">
      <path
         d="m 2.5781,-20.406 h 5.875 l 7.4219,14 v -14 h 4.9844 V 0 h -5.875 L 7.5625,-14 V 0 H 2.5781 Z"
         id="path757" />
    </symbol>
    <symbol
       id="o"
       overflow="visible">
      <path
         d="m 2.1875,-5.9688 v -9.3438 h 4.9219 v 1.5312 c 0,0.83594 -0.00781,1.875 -0.015625,3.125 -0.011719,1.25 -0.015625,2.0859 -0.015625,2.5 0,1.2422 0.03125,2.1328 0.09375,2.6719 0.070313,0.54297 0.17969,0.93359 0.32812,1.1719 0.20703,0.32422 0.47266,0.57422 0.79688,0.75 0.32031,0.16797 0.69141,0.25 1.1094,0.25 1.0195,0 1.8203,-0.39062 2.4062,-1.1719 0.58203,-0.78125 0.875,-1.8672 0.875,-3.2656 v -7.5625 h 4.8906 V -6e-4 H 12.6875 V -2.2194 C 11.94531,-1.32096 11.1641,-0.6608 10.3437,-0.235 9.51948,0.17906 8.6093,0.39 7.6093,0.39 5.8476,0.39 4.5038,-0.14906 3.5781,-1.235 2.64841,-2.317 2.1875,-3.8952 2.1875,-5.9694 Z"
         id="path760" />
    </symbol>
    <symbol
       id="n"
       overflow="visible">
      <path
         d="m 2.5781,-20.406 h 8.7344 c 2.5938,0 4.582,0.57812 5.9688,1.7344 1.3945,1.1484 2.0938,2.7891 2.0938,4.9219 0,2.1367 -0.69922,3.7812 -2.0938,4.9375 -1.3867,1.1562 -3.375,1.7344 -5.9688,1.7344 H 7.8281 V 3e-4 h -5.25 z m 5.25,3.8125 v 5.7031 H 10.75 c 1.0195,0 1.8047,-0.25 2.3594,-0.75 0.5625,-0.5 0.84375,-1.2031 0.84375,-2.1094 0,-0.91406 -0.28125,-1.6172 -0.84375,-2.1094 -0.55469,-0.48828 -1.3398,-0.73438 -2.3594,-0.73438 z"
         id="path763" />
    </symbol>
    <symbol
       id="m"
       overflow="visible">
      <path
         d="M 2.3594,-15.312 H 7.25 v 15.031 c 0,2.0508 -0.49609,3.6172 -1.4844,4.7031 -0.98047,1.082 -2.4062,1.625 -4.2812,1.625 H -0.9375 V 2.8283 h 0.85938 c 0.92578,0 1.5625,-0.21094 1.9062,-0.625 0.35156,-0.41797 0.53125,-1.2461 0.53125,-2.4844 z m 0,-5.9688 H 7.25 v 4 H 2.3594 Z"
         id="path766" />
    </symbol>
    <symbol
       id="l"
       overflow="visible">
      <path
         d="m 14.719,-14.828 v 3.9844 c -0.65625,-0.45703 -1.3242,-0.79688 -2,-1.0156 -0.66797,-0.21875 -1.3594,-0.32812 -2.0781,-0.32812 -1.3672,0 -2.4336,0.40234 -3.2031,1.2031 -0.76172,0.79297 -1.1406,1.9062 -1.1406,3.3438 0,1.4297 0.37891,2.543 1.1406,3.3438 0.76953,0.79297 1.8359,1.1875 3.2031,1.1875 0.75781,0 1.4844,-0.10938 2.1719,-0.32812 0.6875,-0.22656 1.3203,-0.56641 1.9062,-1.0156 v 4 c -0.76172,0.28125 -1.5391,0.48828 -2.3281,0.625 -0.78125,0.14453 -1.5742,0.21875 -2.375,0.21875 -2.7617,0 -4.9219,-0.70703 -6.4844,-2.125 -1.5547,-1.4141 -2.3281,-3.3828 -2.3281,-5.9062 0,-2.5312 0.77344,-4.5039 2.3281,-5.9219 1.5625,-1.4141 3.7227,-2.125 6.4844,-2.125 0.80078,0 1.5938,0.07422 2.375,0.21875 0.78125,0.13672 1.5547,0.35156 2.3281,0.64062 z"
         id="path769" />
    </symbol>
  </defs>
  <g
     id="g4188"
     transform="translate(-242.89634,-172.75388)"
     style="fill:#ffffff;fill-opacity:1">
    <path
       d="m 327.6,293.05 c -6.6406,-3.0664 -14.098,-3.8828 -21.242,-2.3281 -7.1484,1.5586 -13.59,5.4023 -18.352,10.953 -0.41016,0.38281 -1.0469,0.38281 -1.457,0 -0.51562,-0.30859 -0.75,-0.9375 -0.55859,-1.5117 2.0195,-7.582 1.8945,-15.574 -0.35938,-23.086 -2.2578,-7.5156 -6.5508,-14.258 -12.41,-19.473 -0.80078,-0.64844 -1.9414,-0.64844 -2.7422,0 l -0.89453,0.78516 v -0.004 c -0.64063,0.54297 -0.99609,1.3477 -0.95313,2.1836 v 9.0195 c 0.0547,6.0508 -1.3086,12.035 -3.9766,17.469 -1.3359,2.457 -0.77734,5.5156 1.3438,7.3359 l 3.8633,3.3047 c 0.27344,0.25781 0.38281,0.64844 0.28125,1.0078 -0.082,0.36719 -0.41016,0.625 -0.78516,0.61719 l -10.414,-0.33594 c -3.1641,0.0195 -5.7891,2.4492 -6.0508,5.6016 -0.46875,4.3477 -1.4844,8.6172 -3.0234,12.711 -1.0742,2.8047 -0.23828,5.9805 2.0742,7.8945 3.1797,2.4805 7.418,3.1367 11.199,1.7383 5.2266,-2.0469 9.8789,-5.332 13.551,-9.5781 0.41797,-0.35937 1.0391,-0.35937 1.457,0 0.51953,0.3125 0.75,0.94141 0.55859,1.5117 -1.5117,5.8125 -1.7969,11.879 -0.83984,17.809 0.51172,4.4453 3.1406,8.3672 7.0586,10.527 2.5273,1.3125 5.6328,0.51562 7.2227,-1.8477 2.3398,-3.5352 5.2109,-6.6875 8.5117,-9.3516 2.5195,-2.1758 3.1719,-5.8203 1.5664,-8.7344 l -5.6016,-9.9102 0.004,-0.004 c -0.21875,-0.32031 -0.21875,-0.74219 0,-1.0625 0.19141,-0.30078 0.56641,-0.41797 0.89453,-0.28125 l 4.5352,2.1289 c 2.3242,1.0859 5.0859,0.11328 6.2188,-2.1836 2.7617,-5.0898 6.8203,-9.3555 11.758,-12.379 l 7.5625,-4.3086 c 0.71875,-0.43359 1.1953,-1.1797 1.2852,-2.0195 v -1.2305 c 0.22656,-1.1602 -0.28516,-2.3398 -1.2852,-2.9688 z"
       id="path774"
       style="fill:#ffffff;fill-opacity:1" />
    <path
       d="m 397.49,222.99 h 4.9297 -0.004 c 2.6055,-0.0469 4.7578,-2.0508 4.9844,-4.6484 0.90625,-5.9102 3.2109,-11.516 6.7227,-16.352 l 5.1523,-7 c 0.5,-0.69531 0.68359,-1.5703 0.50391,-2.4062 l -0.28125,-1.2305 v -0.004 c -0.20312,-1.1641 -1.1719,-2.043 -2.3516,-2.1289 -7.4453,0.12891 -14.672,2.5508 -20.688,6.9414 -6.0117,4.3906 -10.523,10.535 -12.914,17.59 -0.18359,0.53516 -0.72266,0.86719 -1.2852,0.78125 -0.5625,-0.12109 -0.97266,-0.60156 -1.0117,-1.1758 -0.56641,-7.6445 -3.3594,-14.953 -8.0391,-21.023 -4.6758,-6.0703 -11.031,-10.637 -18.277,-13.137 h -0.33594 c -1.0312,-0.14453 -2.0312,0.40234 -2.4648,1.3438 l -0.55859,1.0625 -0.004,0.004 c -0.33594,0.78516 -0.33594,1.6758 0,2.4609 l 3.1367,8.3438 c 2.1445,5.6797 2.9102,11.781 2.2422,17.809 -0.37891,2.6094 1.1133,5.1289 3.582,6.0508 l 4.7617,1.457 v -0.004 c 0.33984,0.14063 0.5625,0.47266 0.55859,0.83984 0.0547,0.37891 -0.15234,0.75 -0.50391,0.89844 l -9.7422,4.0312 c -3,1.3672 -4.5469,4.7266 -3.6406,7.8945 1.0625,4.2656 1.5703,8.6523 1.5117,13.051 -0.125,2.9414 1.7656,5.5938 4.5898,6.4375 4.0273,0.99219 8.2773,-0.19922 11.203,-3.1367 4.1641,-4.082 7.375,-9.0352 9.4062,-14.504 0.16016,-0.52734 0.68359,-0.86328 1.2305,-0.78125 0.57422,0.0742 1.0195,0.54297 1.0664,1.1172 0.53125,5.9062 2.3047,11.633 5.207,16.801 1.9922,3.7461 5.7422,6.2344 9.9688,6.6094 2.9023,0.0899 5.4531,-1.918 6.0469,-4.7617 1.0547,-4.2109 2.6719,-8.2617 4.8164,-12.039 1.6523,-2.8867 1.043,-6.5391 -1.457,-8.7344 l -8.3438,-6.9453 c -0.1875,-0.32812 -0.1875,-0.73438 0,-1.0625 0.0469,-0.17578 0.14453,-0.33203 0.28125,-0.44922 z"
       id="path776"
       style="fill:#ffffff;fill-opacity:1" />
    <path
       d="m 376.27,355.15 c -3.5508,-0.25781 -7.0898,0.61719 -10.109,2.5 -3.0195,1.8789 -5.3633,4.6719 -6.6914,7.9727 -0.10156,0.24219 -0.35938,0.38281 -0.61719,0.33594 -0.27344,-0.0781 -0.45703,-0.33203 -0.44922,-0.61719 -0.0156,-3.7188 -1.1094,-7.3516 -3.1484,-10.461 -2.0352,-3.1094 -4.9297,-5.5664 -8.3281,-7.0664 -0.48828,-0.0937 -0.98438,0.13281 -1.2344,0.55859 v 0.50391 c -0.16406,0.375 -0.16406,0.80078 0,1.1758 l 1.2305,4.1445 h 0.004 c 0.83594,2.8164 1.0117,5.7891 0.50391,8.6797 -0.24219,1.25 0.40625,2.5039 1.5664,3.0234 l 2.1836,0.89453 v 0.004 c 0.17188,0.082 0.27734,0.25781 0.28125,0.44531 -0.0117,0.17578 -0.12109,0.32812 -0.28125,0.39453 l -4.8164,1.5664 c -1.4961,0.53125 -2.3594,2.0938 -2.0156,3.6406 0.375,2.0898 0.46875,4.2148 0.28125,6.3281 -0.12891,1.4258 0.6875,2.7656 2.0156,3.3047 1.9219,0.69141 4.0664,0.28516 5.5977,-1.0664 2.1328,-1.8008 3.8359,-4.0586 4.9844,-6.6055 0.0391,-0.14062 0.13281,-0.25391 0.26172,-0.32031 0.12891,-0.0625 0.27734,-0.0703 0.41016,-0.0156 0.24609,0.0859 0.42188,0.30078 0.44922,0.55859 0.043,2.8906 0.71484,5.7383 1.9609,8.3438 0.83984,1.8828 2.5625,3.2266 4.5898,3.5859 1.3789,0.13281 2.6523,-0.74219 3.0273,-2.0742 0.64844,-1.9844 1.5703,-3.8672 2.7422,-5.5977 0.89063,-1.3438 0.70313,-3.1289 -0.44922,-4.2578 l -3.7539,-3.6953 h 0.004 c -0.10547,-0.15234 -0.10547,-0.35156 0,-0.50391 0.12109,-0.0586 0.26562,-0.0586 0.39062,0 h 2.3516 c 1.2539,0.10547 2.375,-0.77344 2.5781,-2.0156 0.58984,-2.8125 1.8789,-5.4336 3.75,-7.6172 l 2.6875,-3.1367 c 0.25391,-0.33594 0.37109,-0.75391 0.33594,-1.1758 v -0.55859 c 0.32422,-0.63281 0.0742,-1.4102 -0.55859,-1.7344 -0.63281,-0.32812 -1.4102,-0.0742 -1.7344,0.55859 z"
       id="path778"
       style="fill:#ffffff;fill-opacity:1" />
    <path
       d="m 450.8,314.44 c -1.0508,-3.4688 -3.1484,-6.5273 -6.0078,-8.7539 -2.8555,-2.2266 -6.3359,-3.5117 -9.9531,-3.6797 -0.28906,0 -0.53125,-0.21484 -0.55859,-0.50391 -0.13281,-0.20312 -0.13281,-0.46875 0,-0.67188 3.168,-2.0078 5.707,-4.8711 7.3203,-8.2617 1.6172,-3.3867 2.2422,-7.1641 1.8047,-10.891 -0.0625,-0.50781 -0.44922,-0.91406 -0.94922,-1.0078 h -0.5625 c -0.39453,-0.0391 -0.78906,0.10547 -1.0625,0.39062 l -2.7422,3.0781 v 0.004 c -1.8516,2.0234 -4.2109,3.5117 -6.832,4.3125 -1.2031,0.39453 -1.9375,1.6055 -1.7383,2.8555 v 2.6328 c 0.0937,0.13281 0.0937,0.3125 0,0.44531 -0.13672,0.082 -0.30859,0.082 -0.44922,0 l -3.3594,-4.1445 c -0.44141,-0.58984 -1.1094,-0.96875 -1.8438,-1.0469 -0.73438,-0.0742 -1.4688,0.16406 -2.0195,0.65625 -1.5,1.2852 -3.1797,2.3398 -4.9844,3.1367 -1.2891,0.61328 -2,2.0156 -1.7344,3.4141 0.23828,2.0938 1.4414,3.957 3.2461,5.043 2.3125,1.2891 4.9141,1.9844 7.5625,2.0156 0.27734,0.0195 0.50781,0.22656 0.55859,0.50391 0.12891,0.22266 0.12891,0.50391 0,0.72656 -2.3789,1.3711 -4.3945,3.293 -5.8789,5.6016 -1.1602,1.8125 -1.4883,4.0352 -0.89844,6.1016 0.34766,1.3633 1.6211,2.2852 3.0234,2.1875 1.8555,-0.29688 3.7461,-0.29688 5.6016,0 1.5273,0.23828 2.9648,-0.78125 3.25,-2.2969 l 1.2891,-5.6016 h -0.004 c 0.0664,-0.16016 0.21875,-0.26953 0.39453,-0.28125 l 0.39062,0.28125 0.83984,2.4062 v 0.004 c 0.30469,1.2109 1.5234,1.9609 2.7422,1.6797 2.5977,-0.62891 5.3203,-0.49609 7.8438,0.39062 l 3.6953,1.2891 c 0.33203,0.16797 0.72656,0.16797 1.0625,0 l 0.44922,-0.39062 v -0.004 c 0.51562,-0.36328 0.72266,-1.0312 0.50391,-1.6211 z"
       id="path780"
       style="fill:#ffffff;fill-opacity:1" />
    <path
       d="m 264.66,196.62 c 0.0937,0.37891 0.36719,0.69141 0.72656,0.83984 l 3.6953,1.5117 c 2.5391,1.0547 4.7461,2.7773 6.3867,4.9844 0.32812,0.5 0.84766,0.84766 1.4375,0.96484 0.58984,0.11719 1.2031,-0.0117 1.6992,-0.35156 l 2.0156,-1.3984 c 0.125,-0.11328 0.32031,-0.11328 0.44531,0 0.082,0.16016 0.082,0.34375 0,0.50391 l -1.9609,5.1523 h 0.004 c -0.57812,1.4805 -0.043,3.1602 1.2852,4.0312 1.7227,1.0234 3.2852,2.2891 4.6484,3.7539 0.92578,0.98047 2.4336,1.125 3.5273,0.33594 1.7344,-1.3398 2.75,-3.4102 2.7461,-5.6016 0.0703,-2.8984 -0.46484,-5.7773 -1.5703,-8.457 -0.12891,-0.22266 -0.12891,-0.5 0,-0.72656 0.0976,-0.0977 0.22656,-0.15625 0.36719,-0.15625 0.13672,0 0.26562,0.0586 0.36328,0.15625 2.043,1.6992 4.4609,2.8906 7.0547,3.4727 2.0469,0.52344 4.2109,-0.14844 5.6016,-1.7383 1,-1.0586 1.2031,-2.6406 0.50391,-3.918 -0.97656,-1.7695 -1.7266,-3.6484 -2.2422,-5.6016 -0.28125,-1.5156 -1.7227,-2.5352 -3.2461,-2.2969 l -4.9844,0.95312 c -0.11719,0.0859 -0.27344,0.0859 -0.39062,0 -0.10547,-0.15234 -0.10547,-0.35156 0,-0.50391 l 1.7891,-2.1289 c 0.78516,-1.0234 0.78516,-2.4453 0,-3.4688 -1.6055,-2.3984 -2.625,-5.1445 -2.9648,-8.0078 l -0.50391,-4.3125 c -0.0195,-0.38281 -0.17969,-0.74219 -0.44922,-1.0078 l -0.50391,-0.28125 c -0.41016,-0.38281 -1.0469,-0.38281 -1.457,0 -2.4453,2.9141 -4.0508,6.4453 -4.6328,10.207 -0.58203,3.7617 -0.12109,7.6094 1.3281,11.129 0.13281,0.22656 0.13281,0.50391 0,0.72656 -0.0937,0.10156 -0.22656,0.15625 -0.36328,0.15625 -0.13672,0 -0.26953,-0.0547 -0.36328,-0.15625 -2.6719,-2.293 -6.0273,-3.6406 -9.543,-3.8203 -3.5195,-0.18359 -6.9961,0.80469 -9.8906,2.8125 -0.37891,0.35938 -0.53125,0.89844 -0.39062,1.4023 z"
       id="path782"
       style="fill:#ffffff;fill-opacity:1" />
  </g>
</svg>
