<?xml version="1.0" encoding="UTF-8" standalone="no"?>
<svg
   xmlns:dc="http://purl.org/dc/elements/1.1/"
   xmlns:cc="http://creativecommons.org/ns#"
   xmlns:rdf="http://www.w3.org/1999/02/22-rdf-syntax-ns#"
   xmlns:svg="http://www.w3.org/2000/svg"
   xmlns="http://www.w3.org/2000/svg"
   xmlns:sodipodi="http://sodipodi.sourceforge.net/DTD/sodipodi-0.dtd"
   xmlns:inkscape="http://www.inkscape.org/namespaces/inkscape"
   width="724"
   height="724"
   version="1.1"
   viewBox="0 0 543.00001 543.00001"
   id="svg56"
   sodipodi:docname="Border Patrol.svg"
   inkscape:export-filename="/home/marek/Downloads/Border Patrol.png"
   inkscape:export-xdpi="26.519337"
   inkscape:export-ydpi="26.519337"
   inkscape:version="1.0.2 (e86c870879, 2021-01-15)">
  <metadata
     id="metadata60">
    <rdf:RDF>
      <cc:Work
         rdf:about="">
        <dc:format>image/svg+xml</dc:format>
        <dc:type
           rdf:resource="http://purl.org/dc/dcmitype/StillImage" />
        <dc:title></dc:title>
      </cc:Work>
    </rdf:RDF>
  </metadata>
  <sodipodi:namedview
     pagecolor="#ffffff"
     bordercolor="#666666"
     borderopacity="1"
     objecttolerance="10"
     gridtolerance="10"
     guidetolerance="10"
     inkscape:pageopacity="0"
     inkscape:pageshadow="2"
     inkscape:window-width="1920"
     inkscape:window-height="990"
     id="namedview58"
     showgrid="false"
     units="px"
     inkscape:pagecheckerboard="true"
     inkscape:zoom="0.44410714"
     inkscape:cx="151.81367"
     inkscape:cy="490.80195"
     inkscape:window-x="0"
     inkscape:window-y="30"
     inkscape:window-maximized="1"
     inkscape:current-layer="svg56" />
  <defs
     id="defs20">
    <symbol
       id="f"
       overflow="visible">
      <path
         d="m 39.078,-2.3281 c -2.0117,1.043 -4.1094,1.8281 -6.2969,2.3594 -2.1875,0.5313 -4.4648,0.79688 -6.8281,0.79688 -7.0859,0 -12.699,-1.9766 -16.844,-5.9375 -4.1367,-3.957 -6.2031,-9.3281 -6.2031,-16.109 0,-6.7891 2.0664,-12.164 6.2031,-16.125 4.1445,-3.9688 9.7578,-5.9531 16.844,-5.9531 2.3633,0 4.6406,0.26562 6.8281,0.79688 2.1875,0.53126 4.2852,1.3242 6.2969,2.375 v 8.7969 c -2.0312,-1.3828 -4.0391,-2.3984 -6.0156,-3.0469 -1.9688,-0.64453 -4.0469,-0.96875 -6.2344,-0.96875 -3.9062,0 -6.9844,1.2578 -9.2344,3.7656 -2.2422,2.5 -3.3594,5.9531 -3.3594,10.359 0,4.3867 1.1172,7.8359 3.3594,10.344 2.25,2.5 5.3281,3.75 9.2344,3.75 2.1875,0 4.2656,-0.32031 6.2344,-0.96875 1.9766,-0.64453 3.9844,-1.6602 6.0156,-3.0469 z"
         id="path2" />
    </symbol>
    <symbol
       id="e"
       overflow="visible">
      <path
         d="m 16.031,-40.953 v 9.0625 h 10.516 v 7.2812 H 16.031 v 13.531 c 0,1.4805 0.28906,2.4805 0.875,3 0.59375,0.52344 1.7656,0.78125 3.5156,0.78125 h 5.2344 v 7.2969 h -8.7344 c -4.0312,0 -6.8867,-0.83594 -8.5625,-2.5156 -1.6797,-1.6875 -2.5156,-4.5391 -2.5156,-8.5625 v -13.531 H 0.7654 v -7.2812 h 5.0781 v -9.0625 z"
         id="path5" />
    </symbol>
    <symbol
       id="d"
       overflow="visible">
      <path
         d="M 26.594,-27.234 V -44.312 H 36.86 V 0 H 26.594 v -4.6094 c -1.3984,1.875 -2.9453,3.25 -4.6406,4.125 -1.6875,0.875 -3.6406,1.3125 -5.8594,1.3125 -3.9297,0 -7.1562,-1.5625 -9.6875,-4.6875 -2.5234,-3.125 -3.7812,-7.1445 -3.7812,-12.062 0,-4.9141 1.2578,-8.9375 3.7812,-12.062 2.5312,-3.125 5.7578,-4.6875 9.6875,-4.6875 2.1953,0 4.1445,0.44531 5.8438,1.3281 1.707,0.88672 3.2578,2.2578 4.6562,4.1094 z m -6.7188,20.656 c 2.1875,0 3.8516,-0.79688 5,-2.3906 1.1445,-1.5938 1.7188,-3.9102 1.7188,-6.9531 0,-3.0391 -0.57422,-5.3594 -1.7188,-6.9531 -1.1484,-1.5938 -2.8125,-2.3906 -5,-2.3906 -2.168,0 -3.8242,0.79688 -4.9688,2.3906 -1.1484,1.5938 -1.7188,3.9141 -1.7188,6.9531 0,3.043 0.57031,5.3594 1.7188,6.9531 1.1445,1.5938 2.8008,2.3906 4.9688,2.3906 z"
         id="path8" />
    </symbol>
    <symbol
       id="c"
       overflow="visible">
      <path
         d="m 21.875,-6.5781 c 2.1758,0 3.8359,-0.79688 4.9844,-2.3906 1.1562,-1.5938 1.7344,-3.9102 1.7344,-6.9531 0,-3.0391 -0.57812,-5.3594 -1.7344,-6.9531 -1.1484,-1.5938 -2.8086,-2.3906 -4.9844,-2.3906 -2.1875,0 -3.8672,0.80469 -5.0312,2.4062 -1.168,1.6055 -1.75,3.918 -1.75,6.9375 0,3.0234 0.58203,5.3359 1.75,6.9375 1.1641,1.6055 2.8438,2.4062 5.0312,2.4062 z m -6.7812,-20.656 c 1.4062,-1.8516 2.9609,-3.2227 4.6719,-4.1094 1.707,-0.88281 3.6719,-1.3281 5.8906,-1.3281 3.9375,0 7.1641,1.5625 9.6875,4.6875 2.5195,3.125 3.7812,7.1484 3.7812,12.062 0,4.918 -1.2617,8.9375 -3.7812,12.062 -2.5234,3.125 -5.75,4.6875 -9.6875,4.6875 -2.2188,0 -4.1836,-0.44531 -5.8906,-1.3281 -1.7109,-0.88281 -3.2656,-2.2539 -4.6719,-4.1094 V -7e-4 H 4.9058 v -44.312 h 10.188 z"
         id="path11" />
    </symbol>
    <symbol
       id="b"
       overflow="visible">
      <path
         d="m 5.3594,-42.516 h 10.953 V -27 l 15.812,-15.516 h 12.734 L 24.3744,-22.391 46.9684,0 H 33.2344 L 16.3124,-16.75 V 0 H 5.3594 Z"
         id="path14" />
    </symbol>
    <symbol
       id="a"
       overflow="visible">
      <path
         d="m 20.938,-23.672 c 2.2891,0 3.9375,-0.42578 4.9375,-1.2812 1,-0.85156 1.5,-2.2578 1.5,-4.2188 0,-1.9258 -0.5,-3.3047 -1.5,-4.1406 -1,-0.84375 -2.6484,-1.2656 -4.9375,-1.2656 h -4.625 v 10.906 z m -4.625,7.5781 V 1e-4 H 5.36 v -42.516 h 16.734 c 5.6016,0 9.707,0.94531 12.312,2.8281 2.6133,1.875 3.9219,4.8438 3.9219,8.9062 0,2.8047 -0.67969,5.1094 -2.0312,6.9219 -1.3555,1.8047 -3.4023,3.1328 -6.1406,3.9844 1.5,0.34375 2.8438,1.1211 4.0312,2.3281 1.1875,1.1992 2.3906,3.0234 3.6094,5.4688 l 5.9531,12.078 h -11.688 l -5.1719,-10.562 c -1.0547,-2.125 -2.1172,-3.5781 -3.1875,-4.3594 -1.0742,-0.78125 -2.5,-1.1719 -4.2812,-1.1719 z"
         id="path17" />
    </symbol>
  </defs>
  <g
     id="g911"
     transform="translate(-78.502425,-8.4733393)"
     style="fill:#ffffff;fill-opacity:1">
    <path
       d="m 350,161.82 c -32.883,0.51953 -64.621,-12.074 -88.199,-35 4.5469,31.559 17.297,61.367 36.984,86.449 11.969,16.672 30.742,27.148 51.215,28.586 20.02,-1.3594 38.438,-11.422 50.398,-27.535 20.129,-25.305 33.172,-55.5 37.801,-87.5 -23.492,23.059 -55.289,35.68 -88.199,35 z"
       id="path22"
       style="fill:#ffffff;fill-opacity:1" />
    <path
       d="m 350.23,107.8 c -30.145,0.36328 -60.27,-1.7422 -90.066,-6.3008 20.555,29.074 54.234,46.004 89.832,45.148 35.637,0.91016 69.359,-16.082 89.832,-45.266 -29.629,4.6758 -59.605,6.8242 -89.598,6.418 z"
       id="path24"
       style="fill:#ffffff;fill-opacity:1" />
    <path
       d="m 262.73,86.566 c 28.949,4.4336 58.215,6.4648 87.5,6.0664 29.094,0.375 58.168,-1.6914 86.914,-6.1836 l 14.816,-2.6836 c 4.3828,-7.9531 7.0469,-16.734 7.8203,-25.781 0,-27.184 -49.117,-49.234 -109.79,-49.234 -28.234,-0.68359 -56.262,4.9766 -82.016,16.566 -17.266,8.6328 -27.766,20.066 -27.766,32.668 h -0.004 c 0.58203,9.125 3.1719,18.008 7.5859,26.016 z M 323.558,42 l 19.004,2.0781 7.7109,-17.5 7.7109,17.5 19.016,-2.0781 -11.293,15.434 11.293,15.422 -19.016,-2.0664 -7.7109,17.5 -7.7109,-17.5 -19.004,2.0664 11.27,-15.41 z"
       id="path26"
       style="fill:#ffffff;fill-opacity:1" />
    <path
       d="m 140.58,551.25 h 63.934 v -25.199 l -60.316,-6.7656 z"
       id="path28"
       style="fill:#ffffff;fill-opacity:1" />
    <path
       d="m 554.05,355.83 c -1.2422,-13.125 -9.0625,-24.727 -20.766,-30.797 l -97.648,-50.984 -0.23438,-0.11719 9.918,86.332 -37.332,-12.602 2.5664,12.949 -55.656,30.219 -4.8984,2.6836 -4.8984,-2.6836 -55.648,-30.332 2.5664,-12.832 -37.332,12.602 9.918,-86.332 -0.23438,0.11719 -97.656,50.98 c -11.703,6.0703 -19.523,17.672 -20.766,30.797 l -13.414,144.55 h 0.11719 l 71.867,8.0508 -0.004,-79.449 c 0,-4.832 3.918,-8.75 8.75,-8.75 4.832,0 8.75,3.918 8.75,8.75 v 122.27 h 255.97 v -122.27 c 0,-4.832 3.918,-8.75 8.75,-8.75 4.832,0 8.75,3.918 8.75,8.75 v 79.449 l 71.867,-8.0508 h 0.11719 z M 308.23,467.48 281.98,479.265 256.664,467.48 v -23.102 h 51.566 z m 135.8,0 -26.25,11.785 -25.434,-11.785 v -23.102 h 51.684 z"
       id="path30"
       style="fill:#ffffff;fill-opacity:1" />
    <path
       d="m 495.48,526.05 v 25.199 h 63.934 l -3.5,-31.965 z"
       id="path32"
       style="fill:#ffffff;fill-opacity:1" />
    <path
       d="m 317.1,267.05 c 2.6562,6.7734 7.1367,12.68 12.945,17.062 5.8047,4.3867 12.711,7.082 19.953,7.7852 7.168,-0.68359 14.012,-3.3203 19.793,-7.6172 5.7773,-4.2969 10.27,-10.098 12.992,-16.766 0.11719,-0.11719 0.11719,-0.35156 0.23438,-0.46484 l 8.75,-24.266 h -0.004 c -12.066,9.0391 -26.688,14.023 -41.766,14.23 -15.047,-0.17188 -29.645,-5.1602 -41.648,-14.23 l 8.6328,24.035 c 0,0.11328 0.11719,0.11328 0.11719,0.23047 z"
       id="path34"
       style="fill:#ffffff;fill-opacity:1" />
    <path
       d="m 416.5,261.68 -9.8008,-8.8672 -8.168,22.285 -3.5,9.8008 c -0.23438,0.81641 -0.58203,1.75 -0.93359,2.6836 -2.1016,6.5352 -5.0156,15.051 -8.75,26.133 0,0.11719 0,0.23438 -0.11719,0.23438 l -18.898,50.746 24.617,-13.418 -5.832,-29.984 39.668,13.535 z"
       id="path36"
       style="fill:#ffffff;fill-opacity:1" />
    <path
       d="m 333.67,364.7 -18.902,-50.75 -14,-40.598 -7.3477,-20.301 -9.918,8.9844 -8.2852,72.797 39.902,-13.531 -6.0664,30.098 z"
       id="path38"
       style="fill:#ffffff;fill-opacity:1" />
    <path
       d="m 369.13,305.32 c -12.168,5.2305 -25.949,5.2734 -38.148,0.11719 l 19.016,52.5 z"
       id="path40"
       style="fill:#ffffff;fill-opacity:1" />
  </g>
</svg>
