<?xml version="1.0" encoding="UTF-8" standalone="no"?>
<svg
   xmlns:dc="http://purl.org/dc/elements/1.1/"
   xmlns:cc="http://creativecommons.org/ns#"
   xmlns:rdf="http://www.w3.org/1999/02/22-rdf-syntax-ns#"
   xmlns:svg="http://www.w3.org/2000/svg"
   xmlns="http://www.w3.org/2000/svg"
   xmlns:sodipodi="http://sodipodi.sourceforge.net/DTD/sodipodi-0.dtd"
   xmlns:inkscape="http://www.inkscape.org/namespaces/inkscape"
   width="719"
   height="719"
   version="1.1"
   viewBox="0 0 539.25001 539.25001"
   id="svg262"
   sodipodi:docname="Companionship.svg"
   inkscape:version="1.0.2 (e86c870879, 2021-01-15)"
   inkscape:export-filename="/home/marek/Downloads/Companionship.png"
   inkscape:export-xdpi="6.6759386"
   inkscape:export-ydpi="6.6759386">
  <metadata
     id="metadata266">
    <rdf:RDF>
      <cc:Work
         rdf:about="">
        <dc:format>image/svg+xml</dc:format>
        <dc:type
           rdf:resource="http://purl.org/dc/dcmitype/StillImage" />
        <dc:title></dc:title>
      </cc:Work>
    </rdf:RDF>
  </metadata>
  <sodipodi:namedview
     pagecolor="#ffffff"
     bordercolor="#666666"
     borderopacity="1"
     objecttolerance="10"
     gridtolerance="10"
     guidetolerance="10"
     inkscape:pageopacity="0"
     inkscape:pageshadow="2"
     inkscape:window-width="1920"
     inkscape:window-height="990"
     id="namedview264"
     showgrid="false"
     inkscape:pagecheckerboard="true"
     units="px"
     inkscape:zoom="0.31403117"
     inkscape:cx="-133.1958"
     inkscape:cy="745.39663"
     inkscape:window-x="0"
     inkscape:window-y="30"
     inkscape:window-maximized="1"
     inkscape:current-layer="svg262" />
  <defs
     id="defs202">
    <symbol
       id="g"
       overflow="visible">
      <path
         d="m 28.422,-1.7031 c -1.4688,0.76172 -3,1.3359 -4.5938,1.7188 -1.5859,0.38281 -3.2344,0.57812 -4.9531,0.57812 -5.1562,0 -9.2422,-1.4375 -12.25,-4.3125 -3.0117,-2.875 -4.5156,-6.7812 -4.5156,-11.719 0,-4.9378 1.5039,-8.8438 4.5156,-11.719 3.0078,-2.8828 7.0938,-4.3281 12.25,-4.3281 1.7188,0 3.3672,0.19531 4.9531,0.57812 1.5938,0.38672 3.125,0.96094 4.5938,1.7188 v 6.4062 c -1.4805,-1.0078 -2.9375,-1.75 -4.375,-2.2188 -1.4375,-0.4688 -2.9492,-0.70312 -4.5312,-0.70312 -2.8438,0 -5.0859,0.91406 -6.7188,2.7344 -1.625,1.8242 -2.4375,4.3359 -2.4375,7.5312 0,3.1992 0.8125,5.7109 2.4375,7.5312 1.6328,1.8242 3.875,2.7344 6.7188,2.7344 1.582,0 3.0938,-0.23438 4.5312,-0.70312 1.4375,-0.47656 2.8945,-1.2188 4.375,-2.2188 z"
         id="path148" />
    </symbol>
    <symbol
       id="i"
       overflow="visible">
      <path
         d="m 20.797,-16.875 c -0.64844,-0.3125 -1.293,-0.53516 -1.9375,-0.67188 -0.64844,-0.14453 -1.293,-0.21875 -1.9375,-0.21875 -1.9062,0 -3.375,0.60938 -4.4062,1.8281 -1.0234,1.2188 -1.5312,2.9688 -1.5312,5.25 V 4.7e-4 H 3.5627 v -23.203 h 7.4219 v 3.8125 c 0.94531,-1.5195 2.0352,-2.6289 3.2656,-3.3281 1.2383,-0.69531 2.7227,-1.0469 4.4531,-1.0469 0.25,0 0.51953,0.01172 0.8125,0.03125 0.28906,0.02344 0.71094,0.07031 1.2656,0.14062 z"
         id="path151" />
    </symbol>
    <symbol
       id="b"
       overflow="visible">
      <path
         d="m 26.719,-11.656 v 2.1094 H 9.391 c 0.17578,1.7422 0.80078,3.0469 1.875,3.9219 1.082,0.86719 2.5859,1.2969 4.5156,1.2969 1.5625,0 3.1602,-0.22656 4.7969,-0.6875 1.6328,-0.46875 3.3164,-1.1719 5.0469,-2.1094 v 5.7188 c -1.75,0.65625 -3.5078,1.1523 -5.2656,1.4844 -1.75,0.34375 -3.5078,0.51562 -5.2656,0.51562 -4.1992,0 -7.4609,-1.0625 -9.7812,-3.1875 -2.3242,-2.1328 -3.4844,-5.1289 -3.4844,-8.9844 0,-3.7812 1.1406,-6.7539 3.4219,-8.9219 2.2812,-2.1758 5.4258,-3.2656 9.4375,-3.2656 3.6445,0 6.5625,1.1016 8.75,3.2969 2.1875,2.1992 3.2812,5.1367 3.2812,8.8125 z m -7.625,-2.4688 c 0,-1.4062 -0.41406,-2.5391 -1.2344,-3.4062 -0.8125,-0.86328 -1.8867,-1.2969 -3.2188,-1.2969 -1.4375,0 -2.6055,0.40625 -3.5,1.2188 -0.89844,0.80469 -1.4531,1.9648 -1.6719,3.4844 z"
         id="path154" />
    </symbol>
    <symbol
       id="f"
       overflow="visible">
      <path
         d="m 13.969,-10.438 c -1.5547,0 -2.7188,0.26562 -3.5,0.79688 -0.78125,0.52344 -1.1719,1.293 -1.1719,2.3125 0,0.9375 0.3125,1.6719 0.9375,2.2031 0.63281,0.53125 1.5078,0.79688 2.625,0.79688 1.3945,0 2.5664,-0.5 3.5156,-1.5 0.95703,-1 1.4375,-2.2539 1.4375,-3.7656 v -0.84375 z m 11.328,-2.7969 V -9e-4 h -7.4844 v -3.4375 c -0.99219,1.4062 -2.1094,2.4336 -3.3594,3.0781 -1.2422,0.63281 -2.75,0.95312 -4.5312,0.95312 -2.4062,0 -4.3594,-0.69531 -5.8594,-2.0938 -1.4922,-1.4062 -2.2344,-3.2227 -2.2344,-5.4531 0,-2.7266 0.92969,-4.7266 2.7969,-6 1.875,-1.2695 4.8125,-1.9062 8.8125,-1.9062 h 4.375 v -0.57812 c 0,-1.1641 -0.46484,-2.0195 -1.3906,-2.5625 -0.92969,-0.55078 -2.3711,-0.82812 -4.3281,-0.82812 -1.5859,0 -3.0625,0.16406 -4.4375,0.48438 -1.3672,0.3125 -2.6328,0.78906 -3.7969,1.4219 v -5.6562 c 1.582,-0.38281 3.1758,-0.67578 4.7812,-0.875 1.6016,-0.20703 3.2031,-0.3125 4.7969,-0.3125 4.1875,0 7.207,0.82812 9.0625,2.4844 1.8633,1.6484 2.7969,4.3281 2.7969,8.0469 z"
         id="path157" />
    </symbol>
    <symbol
       id="a"
       overflow="visible">
      <path
         d="m 11.656,-29.781 v 6.5781 h 7.6562 v 5.3125 H 11.656 v 9.8281 c 0,1.0859 0.21094,1.8203 0.64062,2.2031 0.4375,0.375 1.2891,0.5625 2.5625,0.5625 h 3.7969 V 2e-4 h -6.3594 c -2.9297,0 -5,-0.60938 -6.2188,-1.8281 -1.2188,-1.2266 -1.8281,-3.3047 -1.8281,-6.2344 v -9.8281 h -3.6875 v -5.3125 h 3.6875 v -6.5781 z"
         id="path160" />
    </symbol>
    <symbol
       id="e"
       overflow="visible">
      <path
         d="m 19.344,-19.797 v -12.438 h 7.4531 V -0.001 H 19.344 v -3.3594 c -1.0234,1.3672 -2.1484,2.3672 -3.375,3 -1.2305,0.63281 -2.6523,0.95312 -4.2656,0.95312 -2.8555,0 -5.2031,-1.1328 -7.0469,-3.4062 -1.8359,-2.2695 -2.75,-5.1914 -2.75,-8.7656 0,-3.5703 0.91406,-6.4922 2.75,-8.7656 1.8438,-2.2812 4.1914,-3.4219 7.0469,-3.4219 1.6016,0 3.0195,0.32422 4.25,0.96875 1.2383,0.64844 2.3672,1.6484 3.3906,3 z m -4.8906,15.016 c 1.5938,0 2.8047,-0.57812 3.6406,-1.7344 0.83203,-1.1641 1.25,-2.8516 1.25,-5.0625 0,-2.207 -0.41797,-3.8906 -1.25,-5.0469 -0.83594,-1.1641 -2.0469,-1.75 -3.6406,-1.75 -1.5742,0 -2.7773,0.58594 -3.6094,1.75 -0.83594,1.1562 -1.25,2.8398 -1.25,5.0469 0,2.2109 0.41406,3.8984 1.25,5.0625 0.83203,1.1562 2.0352,1.7344 3.6094,1.7344 z"
         id="path163" />
    </symbol>
    <symbol
       id="h"
       overflow="visible">
      <path
         d="m 15.906,-4.7812 c 1.5938,0 2.8047,-0.57812 3.6406,-1.7344 0.83203,-1.1641 1.25,-2.8516 1.25,-5.0625 0,-2.207 -0.41797,-3.8906 -1.25,-5.0469 -0.83594,-1.1641 -2.0469,-1.75 -3.6406,-1.75 -1.5859,0 -2.8047,0.58594 -3.6562,1.75 -0.84375,1.168 -1.2656,2.8516 -1.2656,5.0469 0,2.1992 0.42188,3.8828 1.2656,5.0469 0.85156,1.168 2.0703,1.75 3.6562,1.75 z m -4.9219,-15.016 c 1.0195,-1.3516 2.1484,-2.3516 3.3906,-3 1.2383,-0.64453 2.6641,-0.96875 4.2812,-0.96875 2.8633,0 5.2109,1.1406 7.0469,3.4219 1.832,2.2734 2.75,5.1953 2.75,8.7656 0,3.5742 -0.91797,6.4961 -2.75,8.7656 -1.8359,2.2734 -4.1836,3.4062 -7.0469,3.4062 -1.6172,0 -3.043,-0.32031 -4.2812,-0.95312 -1.2422,-0.64453 -2.3711,-1.6445 -3.3906,-3 v 3.3594 H 3.5622 v -32.234 h 7.4219 z"
         id="path166" />
    </symbol>
    <symbol
       id="d"
       overflow="visible">
      <path
         d="m 0.51562,-23.203 h 7.4219 l 6.2344,15.75 5.2969,-15.75 h 7.4219 l -9.7656,25.406 c -0.98047,2.5703 -2.1211,4.375 -3.4219,5.4062 -1.3047,1.0312 -3.0273,1.5469 -5.1719,1.5469 h -4.2812 v -4.875 h 2.3125 c 1.2578,0 2.1758,-0.19922 2.75,-0.59375 0.57031,-0.39844 1.0156,-1.1172 1.3281,-2.1562 l 0.21875,-0.64062 z"
         id="path169" />
    </symbol>
    <symbol
       id="c"
       overflow="visible">
      <path
         d="M 26.891,-14.125 V 0 h -7.4688 v -10.812 c 0,-2 -0.04687,-3.3789 -0.14062,-4.1406 -0.08594,-0.75781 -0.23438,-1.3203 -0.45312,-1.6875 -0.29297,-0.47656 -0.6875,-0.85156 -1.1875,-1.125 -0.49219,-0.26953 -1.0547,-0.40625 -1.6875,-0.40625 -1.5547,0 -2.7734,0.60156 -3.6562,1.7969 -0.875,1.1992 -1.3125,2.8555 -1.3125,4.9688 v 11.406 h -7.4219 v -23.203 h 7.4219 v 3.4062 c 1.1133,-1.3516 2.2969,-2.3516 3.5469,-3 1.2578,-0.64453 2.6484,-0.96875 4.1719,-0.96875 2.6758,0 4.707,0.82422 6.0938,2.4688 1.3945,1.6484 2.0938,4.0391 2.0938,7.1719 z"
         id="path172" />
    </symbol>
    <symbol
       id="r"
       overflow="visible">
      <path
         d="m 11.875,-24.891 v 18.859 h 2.8594 c 3.25,0 5.7344,-0.80469 7.4531,-2.4219 1.7266,-1.6133 2.5938,-3.9609 2.5938,-7.0469 0,-3.0625 -0.85938,-5.3906 -2.5781,-6.9844 -1.7109,-1.6016 -4.1992,-2.4062 -7.4688,-2.4062 z m -7.9844,-6.0312 h 8.4062 c 4.6953,0 8.1953,0.33594 10.5,1 2.3008,0.66797 4.2695,1.8047 5.9062,3.4062 1.457,1.3984 2.5352,3.0078 3.2344,4.8281 0.70703,1.8242 1.0625,3.8867 1.0625,6.1875 0,2.3359 -0.35547,4.418 -1.0625,6.25 -0.69922,1.8359 -1.7773,3.4492 -3.2344,4.8438 -1.6562,1.5938 -3.6484,2.7305 -5.9688,3.4062 -2.3125,0.66797 -5.793,1 -10.438,1 H 3.89 Z"
         id="path175" />
    </symbol>
    <symbol
       id="q"
       overflow="visible">
      <path
         d="m 21.688,-22.469 v 5.625 c -1.5859,-0.65625 -3.1172,-1.1484 -4.5938,-1.4844 -1.4805,-0.33203 -2.875,-0.5 -4.1875,-0.5 -1.4062,0 -2.4531,0.17969 -3.1406,0.53125 -0.6875,0.35547 -1.0312,0.89844 -1.0312,1.625 0,0.59375 0.25781,1.0547 0.78125,1.375 0.51953,0.3125 1.4453,0.54297 2.7812,0.6875 l 1.3125,0.1875 c 3.8008,0.49219 6.3516,1.2891 7.6562,2.3906 1.3125,1.1055 1.9688,2.8398 1.9688,5.2031 0,2.4688 -0.91406,4.3242 -2.7344,5.5625 -1.8242,1.2422 -4.543,1.8594 -8.1562,1.8594 -1.5312,0 -3.1172,-0.12109 -4.75,-0.35938 -1.6367,-0.23828 -3.3203,-0.59766 -5.0469,-1.0781 v -5.6406 c 1.4766,0.71875 2.9922,1.2617 4.5469,1.625 1.5508,0.35547 3.1289,0.53125 4.7344,0.53125 1.4453,0 2.5352,-0.19531 3.2656,-0.59375 0.73828,-0.40625 1.1094,-1.0039 1.1094,-1.7969 0,-0.65625 -0.25781,-1.1445 -0.76562,-1.4688 -0.5,-0.32031 -1.5078,-0.57812 -3.0156,-0.76562 l -1.2969,-0.15625 c -3.3047,-0.41406 -5.6172,-1.1797 -6.9375,-2.2969 -1.3242,-1.125 -1.9844,-2.8281 -1.9844,-5.1094 0,-2.457 0.83594,-4.2812 2.5156,-5.4688 1.6875,-1.1875 4.2695,-1.7812 7.75,-1.7812 1.3633,0 2.7969,0.10547 4.2969,0.3125 1.5078,0.21094 3.1484,0.53906 4.9219,0.98438 z"
         id="path178" />
    </symbol>
    <symbol
       id="p"
       overflow="visible">
      <path
         d="m 3.5625,-23.203 h 7.4219 V 0 H 3.5625 Z m 0,-9.0312 h 7.4219 v 6.0469 H 3.5625 Z"
         id="path181" />
    </symbol>
    <symbol
       id="o"
       overflow="visible">
      <path
         d="M 19.344,-3.9375 C 18.3206,-2.582 17.1956,-1.5859 15.969,-0.9531 14.7385,-0.31638 13.3167,2e-5 11.7034,2e-5 c -2.8359,0 -5.1797,-1.1133 -7.0312,-3.3438 -1.8438,-2.2266 -2.7656,-5.0703 -2.7656,-8.5312 0,-3.457 0.92188,-6.2969 2.7656,-8.5156 1.8516,-2.2188 4.1953,-3.3281 7.0312,-3.3281 1.6133,0 3.0352,0.32031 4.2656,0.95312 1.2266,0.63672 2.3516,1.6367 3.375,3 v -3.4375 h 7.4531 v 20.859 c 0,3.7266 -1.1797,6.5781 -3.5312,8.5469 -2.3555,1.9688 -5.7656,2.9531 -10.234,2.9531 -1.4492,0 -2.8516,-0.10938 -4.2031,-0.32812 C 7.4733,8.60907 6.114,8.26923 4.7507,7.81222 v -5.7812 c 1.2891,0.75 2.5547,1.3047 3.7969,1.6719 1.25,0.36328 2.5,0.54688 3.75,0.54688 2.4375,0 4.2188,-0.53125 5.3438,-1.5938 1.1328,-1.0625 1.7031,-2.7266 1.7031,-5 z m -4.8906,-14.438 c -1.5312,0 -2.7266,0.57031 -3.5781,1.7031 -0.85547,1.1367 -1.2812,2.7344 -1.2812,4.7969 0,2.1367 0.41016,3.75 1.2344,4.8438 0.83203,1.0938 2.0391,1.6406 3.625,1.6406 1.5508,0 2.7539,-0.5625 3.6094,-1.6875 0.85156,-1.1328 1.2812,-2.7344 1.2812,-4.7969 0,-2.0625 -0.42969,-3.6602 -1.2812,-4.7969 -0.85547,-1.1328 -2.0586,-1.7031 -3.6094,-1.7031 z"
         id="path184" />
    </symbol>
    <symbol
       id="n"
       overflow="visible">
      <path
         d="m 18.828,-32.234 v 4.875 h -4.0938 c -1.0547,0 -1.7891,0.19531 -2.2031,0.57812 -0.41797,0.375 -0.625,1.0312 -0.625,1.9688 v 1.6094 h 6.3438 v 5.3125 H 11.9061 V 8.2e-4 H 4.4999 v -17.891 H 0.8124 v -5.3125 h 3.6875 v -1.6094 c 0,-2.5312 0.70312,-4.3984 2.1094,-5.6094 1.4062,-1.207 3.5859,-1.8125 6.5469,-1.8125 z"
         id="path187" />
    </symbol>
    <symbol
       id="m"
       overflow="visible">
      <path
         d="M 26.891,-14.125 V 0 h -7.4688 v -10.766 c 0,-2.0312 -0.04687,-3.4258 -0.14062,-4.1875 -0.08594,-0.75781 -0.23438,-1.3203 -0.45312,-1.6875 -0.29297,-0.47656 -0.6875,-0.85156 -1.1875,-1.125 -0.49219,-0.26953 -1.0547,-0.40625 -1.6875,-0.40625 -1.5547,0 -2.7734,0.60156 -3.6562,1.7969 -0.875,1.1992 -1.3125,2.8555 -1.3125,4.9688 v 11.406 h -7.4219 v -32.234 h 7.4219 v 12.438 c 1.1133,-1.3516 2.2969,-2.3516 3.5469,-3 1.2578,-0.64453 2.6484,-0.96875 4.1719,-0.96875 2.6758,0 4.707,0.82422 6.0938,2.4688 1.3945,1.6484 2.0938,4.0391 2.0938,7.1719 z"
         id="path190" />
    </symbol>
    <symbol
       id="l"
       overflow="visible">
      <path
         d="m 3.8906,-30.922 h 8.9062 l 11.25,21.203 v -21.203 h 7.5625 V 0 h -8.9062 l -11.25,-21.219 V 0 H 3.8906 Z"
         id="path193" />
    </symbol>
    <symbol
       id="k"
       overflow="visible">
      <path
         d="m 3.8906,-30.922 h 13.234 c 3.9375,0 6.957,0.875 9.0625,2.625 2.1016,1.7422 3.1562,4.2266 3.1562,7.4531 0,3.25 -1.0547,5.75 -3.1562,7.5 -2.1055,1.7422 -5.125,2.6094 -9.0625,2.6094 h -5.25 V -5e-4 H 3.8902 Z m 7.9844,5.7812 v 8.625 h 4.4062 c 1.5391,0 2.7344,-0.375 3.5781,-1.125 0.8437,-0.75 1.2656,-1.8164 1.2656,-3.2031 0,-1.375 -0.42188,-2.4297 -1.2656,-3.1719 -0.84375,-0.75 -2.0391,-1.125 -3.5781,-1.125 z"
         id="path196" />
    </symbol>
    <symbol
       id="j"
       overflow="visible">
      <path
         d="m 3.5625,-23.203 h 7.4219 v 22.781 c 0,3.1133 -0.75,5.4883 -2.25,7.125 C 7.2422,8.3358 5.0821,9.1561 2.25,9.1561 h -3.6562 v -4.875 h 1.2812 c 1.4062,0 2.3672,-0.32031 2.8906,-0.95312 0.53125,-0.63672 0.79688,-1.8867 0.79688,-3.75 z m 0,-9.0312 h 7.4219 v 6.0469 H 3.5625 Z"
         id="path199" />
    </symbol>
  </defs>
  <path
     d="m 537.15049,142.59259 c -2.4609,-2.4609 -6.5352,-2.4609 -8.9922,0 l -32.074,32.074 -111.32,-111.319997 50.484,-50.484 c 2.46091,-2.4609 2.46091,-6.5352005 0,-8.9922005 -2.4609,-2.4609 -6.5352,-2.4609 -8.9922,0 l -54.98,54.9800005 c -2.4609,2.4609 -2.4609,6.5352 0,8.9922 l 8.1445,8.1445 -8.3164,8.4844 c -9.1641,9.332 -21.891,14 -34.871,12.812 -16.547,-1.6133 -32.922,4.328097 -44.715,16.120997 l -16.035,16.035 c -2.7148,-2.207 -5.8555,-3.9023 -9.1641,-4.9219 l -17.816,-17.816 c -11.711,-11.710997 -28.934,-16.206997 -44.887,-11.792997 -11.793,3.3086 -24.352,-0.0859 -32.836,-8.8242 l -10.438,-10.691 7.5508,-7.5508 c 2.4609,-2.4609 2.4609,-6.5352 0,-8.9922 l -56.762,-56.7620005 c -2.4609,-2.4609 -6.5352,-2.4609 -8.99219,0 -2.460905,2.4609 -2.460905,6.5352 0,8.9922005 l 52.26599,52.266 -111.239995,111.319997 -32.074,-32.074 c -2.4609,-2.4609 -6.5352,-2.4609 -8.9922,0 -2.4609,2.4609 -2.4609,6.5352 0,8.9922 l 36.57,36.57 c 1.2734,1.2734 2.8867,1.8672 4.4961,1.8672 1.6133,0 3.2227,-0.59375 4.4961,-1.8672 l 8.1445,-8.1445 8.4844,8.3164 c 9.332,9.1641 14,21.805 12.812,34.871 -1.5273,16.629 4.3281,32.922 16.121,44.715 l 53.284995,53.285 v 52.266 c 0,16.547 8.9922,31.902 23.418,40.047 10.605,5.9375 17.141,17.223 16.969,29.441 l -0.25391,14.934 h -10.691 c -3.4805,0 -6.3633,2.8867 -6.3633,6.3633 l 0.004,68.395 c 0,3.4805 2.8867,6.3633 6.3633,6.3633 3.4805,0 6.3633,-2.8867 6.3633,-6.3633 v -62.109 h 157.48 l -0.004,62.109 c 0,3.4805 2.8867,6.3633 6.3633,6.3633 3.4805,0 6.3633,-2.8867 6.3633,-6.3633 v -68.473 c 0,-3.4805 -2.8867,-6.3633 -6.3633,-6.3633 h -11.539 l -0.16797,-11.879 c -0.16797,-13.066 5.5156,-25.371 15.613,-33.684 12.812,-10.605 20.195,-26.305 20.195,-42.934 v -25.113 c 5.5156,-0.93359 10.605,-3.4805 14.508,-7.4648 l 67.965,-67.965 c 11.711,-11.711 16.207,-28.934 11.793,-44.887 -3.3086,-11.711 0.0859,-24.352 8.8242,-32.836 l 10.691,-10.438 7.5508,7.5508 c 1.2734,1.2734 2.8867,1.8672 4.4961,1.8672 1.6133,0 3.2227,-0.59375 4.4961,-1.8672 l 36.57,-36.57 c 2.4609,-2.4609 2.4609,-6.4492 0,-8.9961 z m -434.92999,116.24 c -9.078105,-9.0781 -13.660005,-21.637 -12.387005,-34.449 1.6133,-16.887 -4.4141,-33.344 -16.547,-45.141 l -8.3984,-8.2305 86.628995,-86.628997 10.266,10.605 c 11.71101,12.046997 29.102,16.800997 45.395,12.218997 11.539,-3.2227 24.012,0 32.496,8.4844 l 9.25,9.25 c -10.438,3.9023 -17.988,13.914 -17.988,25.711 v 19.008 c -4.3281,-2.8008 -9.418,-4.3281 -14.762,-4.3281 -15.188,0 -27.492,12.305 -27.492,27.492 v 61.262 c -4.3281,-2.8008 -9.418,-4.3281 -14.762,-4.3281 -15.188,0 -27.492,12.305 -27.492,27.492 v 25.793 z m 255.30999,110.47 c 0,12.898 -5.6836,24.945 -15.613,33.176 -13.066,10.777 -20.449,26.727 -20.195,43.613 l 0.16797,11.711 H 199.29047 l 0.25391,-14.762 c 0.25391,-16.887 -8.7383,-32.496 -23.418,-40.727 -10.438,-5.8555 -16.969,-16.969 -16.969,-28.934 v -96.051 c 0,-8.1445 6.6172,-14.762 14.762,-14.762 3.9023,0 7.6367,1.5273 10.352,4.3281 2.8008,2.8867 4.3281,6.5352 4.3281,10.438 v 38.777 c 0,3.4805 2.8867,6.3633 6.3633,6.3633 3.4805,0 6.36329,-2.8867 6.36329,-6.3633 v -123.29 c 0,-8.1445 6.61721,-14.762 14.762,-14.762 3.90231,0 7.63671,1.5273 10.352,4.3281 2.8008,2.8867 4.4141,6.6172 4.4141,10.438 v 93.25 c 0,3.4805 2.88671,6.3633 6.3633,6.3633 3.4805,0 6.3633,-2.8867 6.3633,-6.3633 l 0.004,-135.42 c 0,-8.1445 6.6172,-14.762 14.762,-14.762 3.9023,0 7.6367,1.5273 10.352,4.2422 2.8008,2.8867 4.3281,6.6172 4.3281,10.438 v 135.5 c 0,3.4805 2.8867,6.3633 6.3633,6.3633 3.4805,0 6.3633,-2.8867 6.3633,-6.3633 v -93.254 c 0,-8.1445 6.6172,-14.762 14.762,-14.762 3.9023,0 7.6367,1.5273 10.352,4.3281 2.8008,2.8867 4.4141,6.6172 4.4141,10.438 v 93.25 c 0,3.4805 2.8867,6.3633 6.3633,6.3633 3.4805,0 6.3633,-2.8867 6.3633,-6.3633 v -50.992 c 0,-8.1445 6.6172,-14.762 14.762,-14.762 3.9023,0 7.6367,1.5273 10.352,4.3281 2.8008,2.8867 4.4141,6.6172 4.4141,10.438 z m 107,-187.43 c -12.133,11.711 -16.801,29.102 -12.219,45.395 3.2227,11.539 0,24.012 -8.4844,32.496 l -67.965,67.965 c -1.6133,1.6133 -3.4805,2.7148 -5.5156,3.3945 v -96.051 c 0,-7.2109 -2.8867,-14.086 -8.0625,-19.43 -8.9922,-8.9922 -24.098,-10.184 -34.195,-3.7344 v -19.09 c 0,-7.2109 -2.8867,-14.086 -8.0625,-19.43 -8.9922,-9.0781 -24.098,-10.184 -34.195,-3.7344 v -19.008 c 0,-3.9023 -0.84766,-7.6367 -2.4609,-11.113 l 17.223,-17.223 c 9.0781,-9.0781 21.723,-13.574 34.449,-12.387 16.887,1.6133 33.262,-4.4141 45.141,-16.546997 l 8.2383,-8.3984 86.629,86.628997 z"
     id="path204"
     style="fill:#ffffff;fill-opacity:1" />
</svg>
