<?xml version="1.0" encoding="UTF-8" standalone="no"?>
<svg
   xmlns:dc="http://purl.org/dc/elements/1.1/"
   xmlns:cc="http://creativecommons.org/ns#"
   xmlns:rdf="http://www.w3.org/1999/02/22-rdf-syntax-ns#"
   xmlns:svg="http://www.w3.org/2000/svg"
   xmlns="http://www.w3.org/2000/svg"
   xmlns:sodipodi="http://sodipodi.sourceforge.net/DTD/sodipodi-0.dtd"
   xmlns:inkscape="http://www.inkscape.org/namespaces/inkscape"
   width="654"
   height="654"
   version="1.1"
   viewBox="0 0 490.50001 490.50001"
   id="svg26"
   sodipodi:docname="Crisis helpline.svg"
   inkscape:export-filename="/home/marek/Downloads/Crisis helpline.png"
   inkscape:export-xdpi="29.357798"
   inkscape:export-ydpi="29.357798"
   inkscape:version="1.0.2 (e86c870879, 2021-01-15)">
  <metadata
     id="metadata32">
    <rdf:RDF>
      <cc:Work
         rdf:about="">
        <dc:format>image/svg+xml</dc:format>
        <dc:type
           rdf:resource="http://purl.org/dc/dcmitype/StillImage" />
        <dc:title></dc:title>
      </cc:Work>
    </rdf:RDF>
  </metadata>
  <defs
     id="defs30" />
  <sodipodi:namedview
     pagecolor="#ffffff"
     bordercolor="#666666"
     borderopacity="1"
     objecttolerance="10"
     gridtolerance="10"
     guidetolerance="10"
     inkscape:pageopacity="0"
     inkscape:pageshadow="2"
     inkscape:window-width="1920"
     inkscape:window-height="990"
     id="namedview28"
     showgrid="false"
     inkscape:pagecheckerboard="true"
     units="px"
     inkscape:zoom="0.44410714"
     inkscape:cx="287.01328"
     inkscape:cy="598.96163"
     inkscape:window-x="0"
     inkscape:window-y="30"
     inkscape:window-maximized="1"
     inkscape:current-layer="svg26" />
  <g
     id="g24"
     transform="translate(-104.73903,-34.750555)"
     style="fill:#ffffff;fill-opacity:1">
    <path
       d="m 253.7,376.3 c 16.148,16.488 33.777,31.465 52.66,44.738 3.8984,2.6523 8.6016,3.8594 13.297,3.4062 4.6914,-0.44922 9.082,-2.5273 12.402,-5.8711 l 21.23,-21.23 c 3.8008,-3.8008 8.9609,-5.9375 14.34,-5.9375 5.3791,0 10.535,2.1367 14.34,5.9375 l 51.742,51.742 c 3.8008,3.8047 5.9375,8.9609 5.9375,14.34 0,5.3789 -2.1367,10.539 -5.9375,14.344 l -41.266,41.266 c -3.4219,3.4922 -8.0195,5.5898 -12.902,5.8906 -20.203,1.0039 -77.793,-6.7422 -172.76,-101.71 -94.969,-94.969 -102.71,-152.56 -101.71,-172.76 0.30078,-4.8828 2.3984,-9.4805 5.8945,-12.902 l 41.266,-41.266 -0.004,0.004 c 3.8047,-3.8047 8.9648,-5.9414 14.344,-5.9414 5.3789,0 10.535,2.1367 14.34,5.9414 l 51.738,51.738 c 3.8047,3.8047 5.9414,8.9609 5.9414,14.34 0,5.3791 -2.1367,10.539 -5.9414,14.344 l -21.227,21.227 c -3.3438,3.3242 -5.4219,7.7109 -5.8711,12.406 -0.45313,4.6914 0.75391,9.3945 3.4062,13.293 13.273,18.883 28.25,36.512 44.738,52.66 z"
       id="path2"
       style="fill:#ffffff;fill-opacity:1" />
    <path
       d="m 384.09,211.31 c -0.0156,-11.129 -4.4414,-21.793 -12.309,-29.66 -7.8711,-7.8672 -18.535,-12.293 -29.664,-12.305 -13.812,0.0156 -27.055,5.5117 -36.82,15.281 -9.765,9.7693 -15.258,23.012 -15.27,36.824 v 2.582 c 0,4.832 3.918,8.75 8.75,8.75 4.832,0 8.75,-3.918 8.75,-8.75 v -2.582 c 0.008,-9.1719 3.6562,-17.965 10.141,-24.453 6.4844,-6.4883 15.277,-10.141 24.449,-10.152 6.4648,0.082 12.637,2.6875 17.211,7.2578 4.5703,4.5703 7.1758,10.742 7.2617,17.207 0,21.473 -19.055,35.281 -39.223,49.902 -14.695,8.875 -27.156,21.008 -36.414,35.469 -1.3594,2.7109 -1.2188,5.9336 0.37891,8.5156 1.5938,2.582 4.4141,4.1523 7.4453,4.1484 h 76.562 c 4.832,0 8.75,-3.918 8.75,-8.75 0,-4.832 -3.918,-8.75 -8.75,-8.75 h -58.652 c 6.6445,-5.9062 13.641,-11.402 20.953,-16.457 21.773,-15.785 46.449,-33.676 46.449,-64.078 z"
       id="path4"
       style="fill:#ffffff;fill-opacity:1" />
    <path
       d="m 482.53,261.22 h -6.5625 v -83.125 c 0,-3.8555 -2.5234,-7.2578 -6.2148,-8.375 -3.6875,-1.1172 -7.6758,0.3125 -9.8164,3.5195 l -61.25,91.875 c -1.7852,2.6875 -1.9492,6.1367 -0.42578,8.9805 1.5195,2.8438 4.4844,4.6211 7.707,4.625 h 52.5 v 21.875 c 0,4.832 3.918,8.75 8.75,8.75 4.832,0 8.75,-3.918 8.75,-8.75 V 278.72 h 6.5625 c 4.832,0 8.75,-3.918 8.75,-8.75 0,-4.832 -3.918,-8.75 -8.75,-8.75 z m -24.062,0 h -36.145 l 36.145,-54.227 z"
       id="path6"
       style="fill:#ffffff;fill-opacity:1" />
    <path
       d="m 373.16,90.457 c -4.832,0 -8.75,-3.918 -8.75,-8.75 V 43.75 c 0,-4.832 3.918,-8.75 8.75,-8.75 2.3203,0 4.5469,0.92188 6.1875,2.5625 1.6406,1.64062 2.5625,3.8672 2.5625,6.1875 v 37.957 c 0,2.3203 -0.92188,4.5469 -2.5625,6.1875 -1.64062,1.6406 -3.8672,2.5625 -6.1875,2.5625 z"
       id="path8"
       style="fill:#ffffff;fill-opacity:1" />
    <path
       d="M 278.02,109.55 259.036,76.675 c -1.1719,-2.0078 -1.4961,-4.4023 -0.89844,-6.6484 0.59375,-2.25 2.0625,-4.1641 4.0742,-5.3281 2.0156,-1.1641 4.4102,-1.4766 6.6562,-0.87109 2.2422,0.60547 4.1562,2.0781 5.3086,4.0977 l 18.984,32.875 h 0.004 c 1.1719,2.0078 1.4922,4.4023 0.89844,6.6484 -0.59766,2.25 -2.0625,4.168 -4.0781,5.332 -2.0117,1.1602 -4.4062,1.4766 -6.6523,0.87109 -2.2461,-0.60547 -4.1562,-2.082 -5.3125,-4.1016 z"
       id="path10"
       style="fill:#ffffff;fill-opacity:1" />
    <path
       d="m 472.12,445.75 -18.973,-32.875 v 0.004 c -1.1719,-2.0117 -1.4961,-4.4023 -0.89844,-6.6523 0.59766,-2.2461 2.0625,-4.1641 4.0781,-5.3281 2.0117,-1.1641 4.4062,-1.4766 6.6523,-0.87109 2.2422,0.60547 4.1562,2.082 5.3086,4.1016 l 18.973,32.875 v -0.004 c 1.1719,2.0117 1.4961,4.4023 0.90234,6.6484 -0.59766,2.25 -2.0664,4.168 -4.0781,5.332 -2.0156,1.1602 -4.4062,1.4766 -6.6523,0.87109 -2.2461,-0.60551 -4.1562,-2.082 -5.3125,-4.1016 z"
       id="path12"
       style="fill:#ffffff;fill-opacity:1" />
    <path
       d="m 181.03,145.92 v -0.004 l 0.004,0.004 c 1.1602,-2.0117 3.0703,-3.4766 5.3125,-4.0781 2.2383,-0.60156 4.6289,-0.28906 6.6367,0.87109 l 32.883,18.98 c 2.0117,1.1602 3.4766,3.0703 4.0781,5.3125 0.60156,2.2422 0.28906,4.6328 -0.87109,6.6406 l -0.004,0.004 c -2.4141,4.1836 -7.7656,5.6172 -11.953,3.2031 l -32.883,-18.98 c -4.1836,-2.4141 -5.6172,-7.7656 -3.2031,-11.953 z"
       id="path14"
       style="fill:#ffffff;fill-opacity:1" />
    <path
       d="m 517.24,340.03 v -0.004 h 0.004 c 1.1602,-2.0078 3.0703,-3.4766 5.3125,-4.0781 2.2422,-0.59766 4.6289,-0.28516 6.6406,0.875 l 32.867,18.977 c 2.0078,1.1602 3.4766,3.0742 4.0742,5.3125 0.60156,2.2422 0.28906,4.6328 -0.87109,6.6406 l -0.004,0.004 c -2.4141,4.1836 -7.7695,5.6172 -11.953,3.1992 l -32.867,-18.977 c -2.0078,-1.1602 -3.4766,-3.0703 -4.0781,-5.3125 -0.59766,-2.2383 -0.28516,-4.6289 0.875,-6.6367 z"
       id="path16"
       style="fill:#ffffff;fill-opacity:1" />
    <path
       d="m 586.23,265.59 h -37.957 c -4.832,0 -8.75,-3.918 -8.75,-8.75 0,-4.832 3.918,-8.75 8.75,-8.75 h 37.957 c 2.3203,0 4.543,0.92187 6.1836,2.5625 1.6445,1.6406 2.5664,3.8672 2.5664,6.1875 0,2.3203 -0.92188,4.5469 -2.5664,6.1875 -1.6406,1.6406 -3.8633,2.5625 -6.1836,2.5625 z"
       id="path18"
       style="fill:#ffffff;fill-opacity:1" />
    <path
       d="m 520.44,161.7 32.871,-18.977 c 2.0078,-1.1602 4.3984,-1.4727 6.6406,-0.87109 2.2422,0.60156 4.1523,2.0664 5.3125,4.0781 v 0.004 -0.004 c 1.1602,2.0117 1.4766,4.3984 0.875,6.6406 -0.60156,2.2422 -2.0664,4.1523 -4.0781,5.3125 l -32.867,18.973 c -4.1875,2.4141 -9.5391,0.98047 -11.957,-3.2031 v -0.004 c -2.4141,-4.1836 -0.98047,-9.5352 3.2031,-11.949 z"
       id="path20"
       style="fill:#ffffff;fill-opacity:1" />
    <path
       d="m 456.35,112.75 c -4.1836,-2.418 -5.6133,-7.7695 -3.1992,-11.953 l 18.973,-32.875 c 1.1562,-2.0156 3.0664,-3.4922 5.3125,-4.0977 2.2461,-0.6055 4.6367,-0.29297 6.6523,0.87109 2.0117,1.1641 3.4805,3.082 4.0781,5.3281 0.59375,2.25 0.26953,4.6406 -0.90234,6.6484 l -18.973,32.875 c -1.1562,2.0078 -3.0664,3.4766 -5.3086,4.0781 -2.2383,0.59766 -4.625,0.28516 -6.6328,-0.875 z"
       id="path22"
       style="fill:#ffffff;fill-opacity:1" />
  </g>
</svg>
