<?xml version="1.0" encoding="UTF-8" standalone="no"?>
<svg
   xmlns:dc="http://purl.org/dc/elements/1.1/"
   xmlns:cc="http://creativecommons.org/ns#"
   xmlns:rdf="http://www.w3.org/1999/02/22-rdf-syntax-ns#"
   xmlns:svg="http://www.w3.org/2000/svg"
   xmlns="http://www.w3.org/2000/svg"
   xmlns:sodipodi="http://sodipodi.sourceforge.net/DTD/sodipodi-0.dtd"
   xmlns:inkscape="http://www.inkscape.org/namespaces/inkscape"
   width="698"
   height="698"
   version="1.1"
   viewBox="0 0 523.49999 523.49999"
   id="svg500"
   sodipodi:docname="Cuddly toy factory.svg"
   inkscape:version="1.0.2 (e86c870879, 2021-01-15)"
   inkscape:export-filename="/home/marek/Downloads/Cuddly toy factory.png"
   inkscape:export-xdpi="27.507164"
   inkscape:export-ydpi="27.507164">
  <metadata
     id="metadata504">
    <rdf:RDF>
      <cc:Work
         rdf:about="">
        <dc:format>image/svg+xml</dc:format>
        <dc:type
           rdf:resource="http://purl.org/dc/dcmitype/StillImage" />
        <dc:title></dc:title>
      </cc:Work>
    </rdf:RDF>
  </metadata>
  <sodipodi:namedview
     pagecolor="#ffffff"
     bordercolor="#666666"
     borderopacity="1"
     objecttolerance="10"
     gridtolerance="10"
     guidetolerance="10"
     inkscape:pageopacity="0"
     inkscape:pageshadow="2"
     inkscape:window-width="1920"
     inkscape:window-height="990"
     id="namedview502"
     showgrid="false"
     inkscape:pagecheckerboard="true"
     units="px"
     inkscape:zoom="0.62806234"
     inkscape:cx="189.44655"
     inkscape:cy="297.7943"
     inkscape:window-x="0"
     inkscape:window-y="30"
     inkscape:window-maximized="1"
     inkscape:current-layer="svg500" />
  <defs
     id="defs410">
    <symbol
       id="w"
       overflow="visible">
      <path
         d="M 0.03125,0 H 0.015625 0 V -0.015625 -0.03125 H 0.015625 0.03125 0.015625 V -0.015625 0 H 0.03125 v -0.015625 z"
         id="path341" />
    </symbol>
    <symbol
       id="e"
       overflow="visible">
      <path
         d="M 0.015625,-0.015625 V 0 H 0 v -0.03125 h 0.015625 v 0.015625 -0.015625 z"
         id="path344" />
    </symbol>
    <symbol
       id="b"
       overflow="visible">
      <path
         d="M 0.03125,-0.015625 H 0.015625 V 0 C 0.0234375,0 0.03125,-0.0039062 0.03125,-0.015625 V 0 H 0.015625 0 V -0.015625 L 0.015625,-0.03125 v 0.015625 z"
         id="path347" />
    </symbol>
    <symbol
       id="a"
       overflow="visible">
      <path
         d="M 0.015625,-0.015625 V 0 Z m 0.015625,0 V 0 H 0.015625 0 V -0.015625 H 0.015625 0 V -0.03125 h 0.015625 v 0.015625 z"
         id="path350" />
    </symbol>
    <symbol
       id="d"
       overflow="visible">
      <path
         d="M 0.015625,-0.03125 V -0.015625 0 H 0 V -0.015625 -0.03125 Z"
         id="path353" />
    </symbol>
    <symbol
       id="l"
       overflow="visible">
      <path
         d="M 0.015625,-0.015625 V -0.03125 H 0.03125 V 0 H 0.015625 0 V -0.015625 L 0.015625,-0.03125 Z m 0,0.015625 v -0.015625 z"
         id="path356" />
    </symbol>
    <symbol
       id="k"
       overflow="visible">
      <path
         d="m 0.015625,0 v -0.015625 z m 0,-0.015625 V -0.03125 c 0.0078125,0 0.015625,0.0078125 0.015625,0.015625 V 0 H 0.015625 0 v -0.03125 h 0.015625 z"
         id="path359" />
    </symbol>
    <symbol
       id="j"
       overflow="visible">
      <path
         d="M 0,-0.03125 H 0.015625 V -0.015625 -0.03125 H 0.03125 L 0.015625,0 V 0.015625 H 0 V 0 h 0.015625 z"
         id="path362" />
    </symbol>
    <symbol
       id="i"
       overflow="visible">
      <path
         d="M 0.015625,-0.03125 V -0.015625 0 H 0.03125 v -0.015625 c 0,-0.0078125 -0.0078125,-0.015625 -0.015625,-0.015625 z m 0,0 H 0.03125 V -0.015625 0 H 0.015625 0 V -0.015625 -0.03125 Z"
         id="path365" />
    </symbol>
    <symbol
       id="v"
       overflow="visible">
      <path
         d="M 0,-0.03125 H 0.015625 V 0 H 0 Z"
         id="path368" />
    </symbol>
    <symbol
       id="f"
       overflow="visible">
      <path
         d="M 0.03125,-0.015625 V 0 H 0.015625 V -0.015625 0 H 0 v -0.03125 h 0.015625 v 0.015625 -0.015625 c 0.0078125,0 0.015625,0.0078125 0.015625,0.015625 z"
         id="path371" />
    </symbol>
    <symbol
       id="h"
       overflow="visible">
      <path
         d="M 0,-0.03125 H 0.015625 0.03125 v 0.015625 H 0.015625 V 0 H 0 Z m 0.015625,0 v 0.015625 z"
         id="path374" />
    </symbol>
    <symbol
       id="g"
       overflow="visible">
      <path
         d="m 0.03125,-0.03125 v 0.015625 H 0.015625 C 0.0234375,-0.015625 0.03125,-0.0078125 0.03125,0 H 0.015625 0 0.015625 V -0.015625 H 0 L 0.015625,-0.03125 Z"
         id="path377" />
    </symbol>
    <symbol
       id="c"
       overflow="visible">
      <path
         d="M 0.015625,-0.015625 V 0 Z m 0,-0.015625 v 0.015625 H 0.03125 C 0.03125,-0.003906 0.0234375,0 0.015625,0 H 0 v -0.015625 z"
         id="path380" />
    </symbol>
    <symbol
       id="u"
       overflow="visible">
      <path
         d="M 0,-0.03125 H 0.015625 V -0.015625 -0.03125 H 0.03125 L 0.015625,0 Z"
         id="path383" />
    </symbol>
    <symbol
       id="t"
       overflow="visible">
      <path
         d="M 0,-0.03125 H 0.015625 V -0.015625 -0.03125 H 0.03125 L 0.015625,-0.015625 0.03125,0 H 0.015625 V -0.015625 0 H 0 Z"
         id="path386" />
    </symbol>
    <symbol
       id="s"
       overflow="visible">
      <path
         d="M 0.015625,-0.03125 V 0 H 0 v -0.03125 z"
         id="path389" />
    </symbol>
    <symbol
       id="r"
       overflow="visible">
      <path
         d="M 0.03125,-0.015625 V -0.03125 c 0.0078125,0 0.015625,0.0078125 0.015625,0.015625 V 0 H 0.03125 V -0.015625 0 H 0.015625 V -0.015625 0 H 0 v -0.03125 h 0.015625 v 0.015625 -0.015625 0.015625 z"
         id="path392" />
    </symbol>
    <symbol
       id="q"
       overflow="visible">
      <path
         d="M 0.03125,-0.015625 V 0 H 0.015625 V -0.015625 0 H 0 v -0.03125 h 0.015625 v 0.015625 -0.015625 c 0.0078125,0 0.015625,0.0078125 0.015625,0.015625 z"
         id="path395" />
    </symbol>
    <symbol
       id="p"
       overflow="visible">
      <path
         d="M 0,-0.03125 H 0.015625 L 0.03125,-0.015625 V -0.03125 0 L 0.015625,-0.015625 V 0 H 0 Z"
         id="path398" />
    </symbol>
    <symbol
       id="o"
       overflow="visible">
      <path
         d="M 0,-0.015625 V -0.03125 H 0.015625 V -0.015625 0 -0.015625 -0.03125 H 0.03125 V 0 H 0.015625 0 Z"
         id="path401" />
    </symbol>
    <symbol
       id="n"
       overflow="visible">
      <path
         d="M 0,-0.03125 H 0.015625 V 0 H 0 v 0.015625 z m 0,0 h 0.015625 z"
         id="path404" />
    </symbol>
    <symbol
       id="m"
       overflow="visible">
      <path
         d="m 0.03125,-0.03125 v 0.015625 H 0.015625 V 0 H 0.03125 0.015625 0 V -0.015625 L 0.015625,-0.03125 Z"
         id="path407" />
    </symbol>
  </defs>
  <path
     d="m 264.50477,152.56564 c 1.1758,0 2.332,0.0273 3.4922,0.0937 -0.2227,-8.9609 1.0938,-19.637 3.3789,-31.602 2.4062,-12.609 5.8906,-26.691003 9.7344,-41.719003 1.2969,-5.0508 2.8008,-9.8203 4.4688,-14.336 8.9961,-24.203 23.008,-40.992 36.215,-51.371 13.402,-10.5269967 26.16,-14.49599674 32.18,-12.95299674 0.289,0.0742 0.5703,0.16016 0.832,0.25391 l 0.1484,0.0547 c 5.9922,2.40620004 7.9883,15.04699674 6.0586,33.19899674 -1.8672,17.574 -7.2891,40.57 -16.156,64.418 -1,2.679703 -2.0156,5.328103 -3.0703,7.941403 -5.0859,12.664 -16.203,26.02 -25.91,37.68 -6.0195,7.2344 -11.488,13.805 -14.543,19.051 l -2.5195,-1.457 c 3.1562,-5.4336 8.707,-12.105 14.82,-19.441 9.5664,-11.488 20.523,-24.648 25.441,-36.902 1.0742,-2.668 2.0898,-5.3008 3.043,-7.878903 8.7734,-23.594 14.141,-46.34 15.988,-63.711 1.7812,-16.801 0.4219,-28.3159967 -4.2461,-30.1839967 l -0.074,-0.0273 c -0.1679,-0.0664 -0.3437,-0.12109 -0.5312,-0.16797 -5.3125,-1.3633 -17.004,2.4727 -29.66,12.4219967 -12.852,10.109 -26.508,26.48 -35.289,50.094 -1.6445,4.4258 -3.1172,9.1016 -4.3867,14.039 -3.8281,14.93401 -7.2891,28.953013 -9.6992,41.542993 -2.2773,11.91 -3.5859,22.492 -3.3242,31.277 2.8672,0.26953 5.6836,0.72656 8.418,1.3516 0.039,-0.16797 0.1133,-0.33594 0.2148,-0.48438 4.8984,-7.0742 5.4492,-13.469 6,-19.871 0.2891,-3.3516 0.5781,-6.6914 1.4648,-10.211 0.1953,-0.78516 0.9883,-1.2617 1.7656,-1.0625 0.7852,0.19531 1.2617,0.98828 1.0625,1.7656 -0.8203,3.2773 -1.1016,6.5156 -1.3828,9.7617 -0.5781,6.6562 -1.1484,13.309 -6.2266,20.84 1.4922,0.41016 2.9688,0.87891 4.4141,1.3906 0.055,-0.14844 0.1406,-0.28906 0.2422,-0.42188 9.7891,-11.898 12.301,-23.176 14.82,-34.449 1.2891,-5.7852 2.5859,-11.562 4.8164,-17.461 0.2813,-0.75781 1.1211,-1.1289 1.875,-0.84766 0.7578,0.28125 1.1289,1.1211 0.8477,1.875 -2.1758,5.7305 -3.4453,11.395 -4.7031,17.062 -2.5664,11.508 -5.1328,23.008 -15.121,35.297 7.4844,3.043 14.223,7.4219 19.898,12.816 11.5,10.93 18.609,26.02 18.609,42.699 0,8.0352 -1.6523,15.707 -4.6562,22.727 8.9961,3.2852 19.293,6.2344 29.586,9.1914 21.484,6.1602 42.98,12.328 53.723,21.887 3.1562,0.008 6.5898,0.375 10.164,1.0938 3.4062,0.69141 6.9453,1.7188 10.508,3.0781 l 0.2695,0.10156 c 8.7734,3.4062 16.062,8.24221 20.758,13.32 4.9297,5.3281 7.0469,11.012 5.207,15.766 -1.8477,4.76171 -7.2422,7.5234 -14.484,8.13671 -6.8789,0.58983 -15.52,-0.74608 -24.293,-4.15231 -3.0977,-1.2031 -5.9922,-2.5664 -8.6445,-4.0586 -1.9414,-1.0938 -3.7617,-2.25 -5.4414,-3.4531 l -0.3359,1.3359 -0.2891,0.28906 c -8.0078,8.0469 -13.523,17.574 -17.23,27.914 -3.7227,10.398 -5.6094,21.617 -6.3555,32.992 -0.047,0.65234 -0.1484,1.3164 -0.2539,1.9805 -0.1875,1.1836 -0.375,2.3711 -0.094,3.332 6.8516,23.371 9.8672,42.926 10.406,58.371 0.5117,14.793 -1.2617,25.898 -4.1445,33.012 3.8164,1.0352 8.1758,2.4727 12.078,4.7305 4.3125,2.5 8.0352,5.9844 9.8828,10.996 0.8125,2.1914 1.3164,3.5391 1.8125,4.8516 6.9258,18.453 12.414,33.086 -0.066,43.102 -6.9258,5.55471 -14.848,4.3125 -23.062,-0.48438 -7.8398,-4.59379 -15.934,-12.469 -23.594,-20.64499 -4.5547,-4.86329 -4.4688,-11.88299 -4.3867,-18.051 0.019,-1.45699 0.039,-2.8555 -0.02,-4.17189 -3.293,-1.1289 -6.9062,-2.2852 -10.695,-3.5078 -27.047,-8.6992 -62.73,-20.18 -85.137,-52.71501 -12.031,15.75401 -31.117,21.07401 -49.812,26.28101 -13.852,3.8555 -27.469,7.6523 -37.50001,15.605 -0.92578,0.72656 -0.95312,0.34375 -0.98828,1.5781 -0.0391,1.1953 -0.008,1.8672 0.008,3.1719 0.0742,6.168 0.16797,13.188 -4.3867,18.051 -7.6641,8.17579 -15.754,16.05498 -23.594,20.64499 -8.2031,4.80859 -16.137,6.04691 -23.062,0.48438 -12.48,-10.01599 -6.9922,-24.64801 -0.0664,-43.10199 0.49609,-1.3164 1,-2.6602 1.8125,-4.85161 1.6797,-4.5469 4.8984,-7.832 8.707,-10.26601 2.9297,-1.8867 6.207,-3.2461 9.3633,-4.293 -4.7891,-5.0781 -2.3633,-18.211 1,-36.418 6.7305,-36.457 17.332,-94.004 -17.539,-143.89999 -2.4453,0.91406 -5.2188,1.7461 -8.1289,2.4062 -3.0977,0.71094 -6.3555,1.24221 -9.5664,1.4844 -9.378898,0.71094 -18.030998,-0.51173 -24.460998,-3.07029 -6.7461,-2.6875 -11.117,-6.8984 -11.508,-11.984 -0.38281,-5.0859 3.293,-9.9023 9.5586,-13.578 5.9648,-3.5 14.336,-6.0312 23.714998,-6.7383 3.8906,-0.29688 7.6797,-0.25391 11.238,0.0742 3.2578,0.30859 6.3086,0.85938 9.082,1.6133 3.6875,-1.8008 16.363,-3.6289 31.566,-4.8906 15.613,-1.2891 34.05899,-2.0703 48.08599,-1.6602 -1.0625,-4.3789 -1.625,-8.9336 -1.625,-13.609 0,-16.68 7.1133,-31.781 18.609,-42.699 1.6875,-1.6055 3.4805,-3.125 5.3555,-4.5469 -3.9375,-4.2852 -9.3633,-8.5508 -15.184,-13.105 -9.8477,-7.7266 -20.777,-16.305 -27.945,-27.719 -1.5508,-2.4648 -3.02339,-4.8906 -4.44139,-7.2695 -12.965,-21.867003 -22.391,-43.539003 -27.355,-60.516003 -5.125,-17.508 -5.4219,-30.305 0.0469,-33.738 l 0.14062,-0.0859 c 6.3359,-3.7539 21.832,0.78516 40.44897,14.766 14.215,10.668 30.418,26.863 45.891,49.039 7.9258,11.348 14.066,22.734003 18.594,33.523003 4.8711,11.609 7.9062,22.551 9.2773,32.004 h 0.01 z m -106.85004,298.37 c 0.0273,-0.0469 0.0547,-0.0937 0.0937,-0.12891 3.0781,-4.0234 6.6172,-7.7109 10.156,-11.395 6.8984,-7.1953 13.79304,-14.391 16.94104,-23.809 0.2539,-0.76562 1.0742,-1.1758 1.8398,-0.92578 0.7656,0.25391 1.1758,1.0742 0.9257,1.8398 -3.3516,10.051 -10.47296,17.48 -17.59396,24.91 -3.4336,3.5859 -6.8711,7.168 -9.8359,11.012 l 10.688,6.4414 c 10.39796,-7.8867 23.94896,-11.668 37.72696,-15.504 18.844,-5.2539 38.117,-10.621 49.438,-26.844 l 1.2227,-1.7539 1.1758,1.793 c 21.758,33.004 57.66,44.547 84.766,53.273 3.8281,1.2305 7.4844,2.4062 10.996,3.6133 l 5.5547,-3.707 c -3.8555,-2.9414 -6.8789,-5.9922 -9.9023,-9.0547 -6.6719,-6.7461 -13.336,-13.496 -28.785,-18.414 -0.7656,-0.24219 -1.1836,-1.0625 -0.9414,-1.8281 0.2422,-0.76562 1.0625,-1.1836 1.8281,-0.94141 16.156,5.1523 23.07,12.145 29.98,19.133 3.1719,3.2109 6.3477,6.4219 10.406,9.3984 l 4.2383,-2.8281 c -8.4922,-10.07 -12.723,-21.344 -17.016,-32.809 -4.3008,-11.488 -8.6797,-23.176 -17.547,-33.852 -0.5117,-0.61719 -0.4297,-1.5312 0.1875,-2.043 0.6172,-0.51172 1.5312,-0.42969 2.043,0.1875 9.1836,11.051 13.656,22.98 18.043,34.691 4.2383,11.32 8.3984,22.438 16.715,32.199 l 1.4766,-0.98047 c -0.1757,-3.8164 -0.3086,-7.5898 -0.4492,-11.293 -0.4844,-13.59 -0.9336,-26.328 -3.6211,-40.906 -0.1484,-0.79297 0.3828,-1.5508 1.168,-1.6992 0.793,-0.14844 1.5508,0.38281 1.6992,1.168 2.7266,14.785 3.1836,27.637 3.668,41.328 0.1133,3.0977 0.2227,6.2422 0.3633,9.5117 l 1.7539,-1.168 c 4.1797,-5.5547 7.207,-17.938 6.5508,-36.672 -0.5313,-15.215 -3.5078,-34.523 -10.293,-57.645 -0.4648,-1.5859 -0.2227,-3.0977 0.01,-4.6016 0.094,-0.57031 0.1758,-1.1484 0.2148,-1.7188 0.7657,-11.637 2.6992,-23.129 6.5156,-33.785 3.7891,-10.594 9.4375,-20.375 17.621,-28.699 l 4.6758,-18.695 c -1.8867,0.20703 -3.7695,0.26953 -5.6562,0.33594 -4.9297,0.17578 -9.8477,0.35547 -14.477,3.1562 -0.6914,0.42188 -1.5781,0.19531 -1.9961,-0.49609 -0.4218,-0.69141 -0.1953,-1.5781 0.4961,-1.9961 5.2812,-3.2031 10.586,-3.3867 15.887,-3.5859 2.1758,-0.0742 4.3594,-0.16016 6.5156,-0.45703 -1.5859,-0.55859 -2.9688,-1.2031 -4.3594,-1.8477 -3.293,-1.5391 -6.5898,-3.0703 -12.312,-3.0703 -0.8008,0 -1.457,-0.65234 -1.457,-1.457 0,-0.80078 0.6524,-1.457 1.457,-1.457 6.3555,0 9.9492,1.6719 13.543,3.3516 1.25,0.57812 2.4922,1.168 3.8359,1.6523 l 0.7657,-3.0508 c -10.258,-9.043 -31.371,-15.102 -52.48,-21.16 -10.387,-2.9766 -20.777,-5.9648 -30.008,-9.3438 -3.1641,6.4766 -7.4961,12.34 -12.75,17.324 -11.48,10.91 -27.336,17.66 -44.836,17.66 -17.5,0 -33.355,-6.7461 -44.836,-17.66 -7.543,-7.168 -13.199,-16.129 -16.203,-26.16 -13.973,-0.46484 -32.75005,0.31641 -48.63705,1.6328 -15.391,1.2695 -27.879,2.9297 -30.23,4.3008 -0.14844,1.2617 -0.35547,2.5586 -0.57812,3.875 0.69141,-0.29688 1.3633,-0.61719 2.0352,-0.92578 3.5938,-1.6719 7.1758,-1.3086 13.543,-1.3086 0.80078,0 1.457,0.65234 1.457,1.457 0,0.80078 -0.65234,1.457 -1.457,1.457 -5.7109,0 -9.0156,-0.50391 -12.312,1.0273 -1.2305,0.57812 -2.4727,1.1484 -3.8438,1.6719 l -0.0391,0.24219 c 2.0078,0.25391 4.0234,0.32812 6.0469,0.40234 5.3008,0.1875 10.602,4.0781 15.887,7.2812 0.69141,0.42188 0.90625,1.3086 0.49609,1.9961 -0.42188,0.69141 -1.3086,0.90625 -1.9961,0.49609 -4.6289,-2.8086 -9.5586,-6.6836 -14.477,-6.8594 -2.1367,-0.0742 -4.2656,-0.14844 -6.3945,-0.42188 -0.74609,5.3281 -0.86719,10.602 1.875,14.465 36.371,51.109 25.527,109.89 18.676,147.04 -3.4336,18.609 -5.8242,31.594 -0.95313,34.523 l 7.4375,4.4805 c 5.207,-7.7266 9.957,-15.082 12.797,-23.727 2.957,-9.0547 3.8633,-19.637 1.0742,-33.785 -0.16016,-0.79297 0.36328,-1.5586 1.1484,-1.707 0.79297,-0.16016 1.5586,0.36328 1.707,1.1484 2.9023,14.699 1.9414,25.75 -1.168,35.242 -2.9414,8.9883 -7.7656,16.473 -13.059,24.332 l 5.1719,3.1094 z m 77.86704,-325.35 c -0.1953,-0.78516 0.2812,-1.5781 1.0625,-1.7656 0.7851,-0.19531 1.5781,0.28125 1.7656,1.0625 0.8867,3.5195 1.1758,6.8711 1.4648,10.211 0.5507,6.4023 1.1016,12.805 6,19.871 0.047,0.0742 0.094,0.14844 0.1289,0.22266 4.9766,-1.4453 10.203,-2.3242 15.605,-2.5586 -1.3633,-9.1289 -4.3125,-19.691 -9.0352,-30.941 -4.4688,-10.629 -10.508,-21.840003 -18.285,-32.984003 -15.289,-21.906 -31.258,-37.867 -45.258,-48.375 -17.61303,-13.227 -31.79703,-17.789 -37.22303,-14.578 l -0.0664,0.0391 c -4.2578,2.668 -3.5547,14.254 1.1953,30.465 4.8984,16.754 14.234,38.172 27.07403,59.844003 1.4453,2.4375 2.9102,4.8438 4.3945,7.207 6.8867,10.977 17.621,19.395 27.281,26.973 6,4.7148 11.602,9.1094 15.746,13.691 2.7617,-1.9023 5.6914,-3.5938 8.7734,-5.0586 -2.3984,-2.9219 -4.3789,-5.8047 -6.0312,-8.6523 -1.6797,-2.8945 -3.0234,-5.7383 -4.1445,-8.5586 -0.2969,-0.74609 0.074,-1.5977 0.8203,-1.8945 0.7461,-0.29688 1.5977,0.0742 1.8945,0.82031 1.0742,2.707 2.3633,5.4336 3.9492,8.168 1.5977,2.7539 3.5078,5.5352 5.832,8.3516 0.1484,0.17578 0.2422,0.38281 0.289,0.58984 1.4102,-0.59766 2.8477,-1.1367 4.3008,-1.6445 -5.0195,-7.5039 -5.5898,-14.129 -6.1602,-20.758 -0.2812,-3.2383 -0.5585,-6.4883 -1.3828,-9.7617 z m 25.789,114.64 c 0.1015,0.83984 0.1289,1.6523 0.086,2.418 0.457,3.0156 2.2305,5.2656 4.5352,6.5781 1.3516,0.77344 2.8828,1.2305 4.4414,1.3438 1.5508,0.11328 3.1172,-0.12109 4.5469,-0.73828 3.1914,-1.3828 5.7031,-4.7031 5.7773,-10.371 0.01,-0.53125 0.4492,-0.96094 0.9804,-0.96094 0.5313,0.008 0.961,0.44922 0.961,0.98047 -0.086,6.5703 -3.1094,10.473 -6.9531,12.133 -1.7188,0.74609 -3.6016,1.0273 -5.4492,0.89453 -1.8398,-0.12891 -3.6602,-0.67969 -5.2734,-1.6055 -1.8398,-1.0547 -3.3984,-2.5938 -4.4062,-4.5547 -0.9688,2.3438 -2.6992,4.1523 -4.7695,5.3398 -1.6133,0.92578 -3.4336,1.4766 -5.2734,1.6055 -1.8477,0.12891 -3.7344,-0.14844 -5.4492,-0.89453 -3.8438,-1.6602 -6.8711,-5.5625 -6.9531,-12.133 -0.01,-0.53125 0.4219,-0.96875 0.9609,-0.98047 0.5313,-0.008 0.9688,0.42188 0.9805,0.96094 0.074,5.6641 2.5859,8.9883 5.7773,10.371 1.4297,0.61719 2.9961,0.84766 4.5469,0.73828 1.5586,-0.11328 3.0898,-0.57031 4.4414,-1.3438 2.4727,-1.418 4.3398,-3.9219 4.6094,-7.2891 -0.1289,-1 -0.1406,-2.0547 -0.01,-3.1719 -2.332,-0.11328 -4.4336,-0.625 -6.0117,-1.3906 -1.8125,-0.88672 -2.9297,-2.1172 -2.9297,-3.4922 0,-1.457 1.2891,-3.2656 3.332,-4.6211 1.7539,-1.168 4.0586,-1.9961 6.5977,-1.9961 2.5312,0 4.8438,0.83984 6.5977,1.9961 2.043,1.3516 3.332,3.1641 3.332,4.6211 0,1.3711 -1.1211,2.6055 -2.9297,3.4922 -1.5781,0.77344 -3.6875,1.2891 -6.0312,1.3984 0,0.0195 0,0.0273 -0.01,0.0469 -0.027,0.21484 -0.047,0.42188 -0.066,0.625 z m -1.8555,-0.86719 c 0.066,-0.53125 0.5507,-0.90625 1.082,-0.83984 0.4492,0.0547 0.7851,0.41016 0.8398,0.83984 2.3164,-0.11328 4.3945,-0.61719 5.9453,-1.3711 1.7461,-0.84766 2.8281,-2.0234 2.8281,-3.3125 0,-1.3906 -1.25,-3.1445 -3.2461,-4.4609 -1.7266,-1.1484 -3.9961,-1.9688 -6.4883,-1.9688 -2.4922,0 -4.7695,0.82031 -6.4883,1.9688 -1.9883,1.3242 -3.2461,3.0703 -3.2461,4.4609 0,1.2891 1.082,2.4531 2.8281,3.3125 1.5508,0.75781 3.6289,1.2695 5.9453,1.3711 z m -8.9492,-23.285 c 1.0938,0 2.082,0.46484 2.8008,1.2227 0.7188,0.75786 1.1562,1.8008 1.1562,2.9492 0,1.1484 -0.4375,2.1914 -1.1562,2.9492 -0.7188,0.75781 -1.707,1.2227 -2.8008,1.2227 -1.0938,0 -2.082,-0.46484 -2.8008,-1.2227 -0.7188,-0.75781 -1.1562,-1.8008 -1.1562,-2.9492 0,-1.1562 0.4375,-2.1914 1.1562,-2.9492 0.7187,-0.7578 1.707,-1.2227 2.8008,-1.2227 z m 2.6602,1.3633 c -0.6797,-0.71875 -1.625,-1.168 -2.6602,-1.168 -1.0352,0 -1.9805,0.44922 -2.6602,1.168 -0.6797,0.71875 -1.1016,1.7188 -1.1016,2.8203 0,1.1016 0.4218,2.1016 1.1016,2.8203 0.6797,0.71875 1.625,1.168 2.6602,1.168 1.0352,0 1.9805,-0.44922 2.6602,-1.168 0.6797,-0.71875 1.1016,-1.7188 1.1016,-2.8203 0,-1.1016 -0.4219,-2.1016 -1.1016,-2.8203 z m 18.629,-0.63281 c 1.0938,0 2.082,0.46484 2.8008,1.2227 0.7187,0.75781 1.1562,1.8008 1.1562,2.9492 0,1.1484 -0.4375,2.1914 -1.1562,2.9492 -0.7188,0.75781 -1.707,1.2227 -2.8008,1.2227 -1.0938,0 -2.082,-0.46484 -2.8008,-1.2227 -0.7188,-0.75781 -1.1562,-1.8008 -1.1562,-2.9492 0,-1.1562 0.4375,-2.1914 1.1562,-2.9492 0.7187,-0.75781 1.707,-1.2227 2.8008,-1.2227 z m 2.6602,1.3633 c -0.6797,-0.71875 -1.625,-1.168 -2.6602,-1.168 -1.0352,0 -1.9805,0.44922 -2.6602,1.168 -0.6797,0.71875 -1.1016,1.7188 -1.1016,2.8203 0,1.1016 0.4218,2.1016 1.1016,2.8203 0.6797,0.71875 1.625,1.168 2.6602,1.168 1.0352,0 1.9805,-0.44922 2.6602,-1.168 0.6797,-0.71875 1.1016,-1.7188 1.1016,-2.8203 0,-1.1016 -0.4219,-2.1016 -1.1016,-2.8203 z m -34.934,-23.223 c 1.7344,-1.3359 3.4805,-2.3242 4.8906,-2.8477 1.4375,-0.54297 2.5469,-0.58984 2.9766,-0.0273 0.4297,0.57031 0.094,1.625 -0.8008,2.875 -0.8789,1.2227 -2.2852,2.6406 -4.0312,3.9766 -1.7344,1.3359 -3.4805,2.3242 -4.8906,2.8477 -1.4375,0.54297 -2.5469,0.58984 -2.9766,0.0273 -0.4297,-0.57031 -0.094,-1.625 0.8008,-2.875 0.8789,-1.2227 2.2852,-2.6406 4.0312,-3.9766 z m 43.84,1.2031 c 1.6797,1.4102 3.0234,2.8945 3.8359,4.1523 0.8398,1.2891 1.1289,2.3633 0.6718,2.9023 -0.457,0.54297 -1.5586,0.4375 -2.9766,-0.16016 -1.3828,-0.58984 -3.0703,-1.6602 -4.75,-3.0703 -1.6797,-1.4102 -3.0234,-2.8945 -3.8359,-4.1523 -0.8398,-1.2891 -1.1289,-2.3633 -0.6718,-2.9023 0.457,-0.54297 1.5586,-0.4375 2.9766,0.16016 1.3828,0.58984 3.0703,1.6602 4.75,3.0703 z m 3.6758,4.2656 c -0.8125,-1.25 -2.1367,-2.7148 -3.7969,-4.1172 -1.6602,-1.3984 -3.332,-2.4648 -4.7031,-3.043 -1.3359,-0.57031 -2.3516,-0.69141 -2.7539,-0.21484 -0.4024,0.46484 -0.1016,1.457 0.6797,2.6797 0.8125,1.25 2.1367,2.7148 3.7969,4.1172 1.6602,1.3984 3.332,2.4648 4.7031,3.043 1.3359,0.57031 2.3516,0.69141 2.7539,0.21484 0.3906,-0.46484 0.1015,-1.457 -0.6797,-2.6797 z m 118.67,75.918 c -0.01,0.0273 -0.02,0.0664 -0.027,0.0937 -1.4297,5.7109 -2.8555,11.414 -4.2852,17.125 1.8398,1.3906 3.8828,2.7266 6.1055,3.9648 2.5586,1.4375 5.3281,2.7422 8.2695,3.8828 8.3516,3.2383 16.531,4.5156 23.008,3.957 6.1133,-0.52344 10.602,-2.6602 12.012,-6.2812 1.4102,-3.6289 -0.4649,-8.2305 -4.6367,-12.75 -4.4062,-4.7695 -11.301,-9.332 -19.648,-12.57 h -0.01 c -3.5,-1.3633 -6.9805,-2.3711 -10.312,-3.0508 -3.0977,-0.63281 -6.0664,-0.96875 -8.8203,-1.0273 l -1.6602,6.6562 z m -237.58004,184.34 -18.453,-11.117 -0.008,-0.008 -7,-4.2188 c -3.5664,1.0469 -7.457,2.4844 -10.809,4.6367 -3.3125,2.1289 -6.1133,4.957 -7.543,8.8203 -0.40234,1.1016 -1.1211,2.9961 -1.8203,4.8633 -6.5156,17.352 -11.676,31.117 -0.83984,39.816 5.7695,4.6289 12.59,3.4727 19.758,-0.72656 7.5312,-4.4062 15.438,-12.113 22.949,-20.133 3.7539,-4.0039 3.6758,-10.398 3.6016,-16.016 -0.0274,-1.9141 -0.0469,-3.7344 0.0664,-5.3555 l 0.0937,-0.57031 z m 213.00004,-2.1641 c -0.6172,1.168 -1.2617,2.1914 -1.9414,3.0508 l -0.1602,0.19531 c -7.0391,4.6953 -14.086,9.3906 -21.129,14.086 0.055,1.3984 0.039,2.9219 0.019,4.5078 -0.074,5.6172 -0.1484,12.012 3.6016,16.016 7.5117,8.0156 15.418,15.727 22.949,20.133 7.168,4.1914 13.992,5.3555 19.758,0.72656 10.836,-8.6992 5.6758,-22.457 -0.8398,-39.816 -0.6993,-1.8672 -1.4102,-3.7695 -1.8203,-4.8633 -1.5781,-4.2734 -4.8359,-7.2812 -8.6055,-9.4727 -3.7891,-2.1914 -8.1094,-3.5859 -11.852,-4.5742 z m -259.64004,-198.1 c -3.0703,-5.7969 -1.8008,-13.105 -0.625,-19.852 0.28906,-1.6523 0.57031,-3.2773 0.77344,-4.7969 -2.4453,-0.63281 -5.1055,-1.0938 -7.9414,-1.3516 -3.3789,-0.31641 -6.9922,-0.35547 -10.754,-0.0664 -8.941398,0.67969 -16.866998,3.0508 -22.464998,6.3359 -5.293,3.1094 -8.418,6.9727 -8.1211,10.855 0.29688,3.8828 3.9648,7.2227 9.668,9.5 6.0312,2.3984 14.223,3.5469 23.175998,2.8672 3.0703,-0.23438 6.1875,-0.73828 9.1367,-1.418 2.5664,-0.58984 4.9922,-1.2969 7.168,-2.082 z m 185.86004,-88.043 c -10.957,-10.406 -26.098,-16.848 -42.832,-16.848 -16.734,0 -31.875,6.4414 -42.832,16.848 -10.938,10.387 -17.707,24.742 -17.707,40.59 0,15.848 6.7656,30.203 17.707,40.59 10.957,10.406 26.098,16.848 42.832,16.848 16.734,0 31.875,-6.4414 42.832,-16.848 10.938,-10.387 17.707,-24.742 17.707,-40.59 0,-15.848 -6.7656,-30.203 -17.707,-40.59 z m -67.75,22.566 c 3.4609,-2.6523 6.9258,-3.9492 7.7383,-2.8945 0.8007,1.0547 -1.3438,4.0586 -4.8164,6.7109 -3.4609,2.6523 -6.9258,3.9492 -7.7383,2.8945 -0.8008,-1.0547 1.3438,-4.0586 4.8164,-6.7109 z m 43.719,1.2031 c 3.3398,2.8086 5.3477,5.9062 4.4883,6.9258 -0.8594,1.0156 -4.2578,-0.4375 -7.5898,-3.2461 -3.3398,-2.8086 -5.3477,-5.9062 -4.4883,-6.9258 0.8593,-1.0156 4.2578,0.4375 7.5898,3.2461 z m -11.508,20.684 c 2.1367,0 3.8633,1.8281 3.8633,4.0781 0,2.2578 -1.7266,4.0781 -3.8633,4.0781 -2.1367,0 -3.8633,-1.8281 -3.8633,-4.0781 0,-2.2578 1.7266,-4.0781 3.8633,-4.0781 z m -21.289,-0.72656 c 2.1367,0 3.8633,1.8281 3.8633,4.0781 0,2.2578 -1.7266,4.0781 -3.8633,4.0781 -2.1367,0 -3.8633,-1.8281 -3.8633,-4.0781 0,-2.2578 1.7266,-4.0781 3.8633,-4.0781 z m 9.9102,11.984 c 5.4336,0 9.8281,3.875 9.8281,6.5234 0,2.6602 -4.4062,4.8086 -9.8281,4.8086 -5.4336,0 -9.8281,-2.1562 -9.8281,-4.8086 0,-2.6602 4.4062,-6.5234 9.8281,-6.5234 z"
     id="path412"
     style="fill:#ffffff;fill-opacity:1;stroke-width:2.99999994;stroke-miterlimit:4;stroke-dasharray:none;paint-order:stroke markers fill;stroke:#ffffff;stroke-opacity:1" />
</svg>
