<?xml version="1.0" encoding="UTF-8" standalone="no"?>
<svg
   xmlns:dc="http://purl.org/dc/elements/1.1/"
   xmlns:cc="http://creativecommons.org/ns#"
   xmlns:rdf="http://www.w3.org/1999/02/22-rdf-syntax-ns#"
   xmlns:svg="http://www.w3.org/2000/svg"
   xmlns="http://www.w3.org/2000/svg"
   xmlns:sodipodi="http://sodipodi.sourceforge.net/DTD/sodipodi-0.dtd"
   xmlns:inkscape="http://www.inkscape.org/namespaces/inkscape"
   width="728"
   height="728"
   version="1.1"
   viewBox="0 0 546.00001 546.00001"
   id="svg307"
   sodipodi:docname="Cuddly toy repair center.svg"
   inkscape:export-filename="/home/marek/Downloads/Cuddly toy repair center.png"
   inkscape:export-xdpi="26.373627"
   inkscape:export-ydpi="26.373627"
   inkscape:version="1.0.2 (e86c870879, 2021-01-15)">
  <metadata
     id="metadata311">
    <rdf:RDF>
      <cc:Work
         rdf:about="">
        <dc:format>image/svg+xml</dc:format>
        <dc:type
           rdf:resource="http://purl.org/dc/dcmitype/StillImage" />
        <dc:title></dc:title>
      </cc:Work>
    </rdf:RDF>
  </metadata>
  <sodipodi:namedview
     pagecolor="#ffffff"
     bordercolor="#666666"
     borderopacity="1"
     objecttolerance="10"
     gridtolerance="10"
     guidetolerance="10"
     inkscape:pageopacity="0"
     inkscape:pageshadow="2"
     inkscape:window-width="1920"
     inkscape:window-height="990"
     id="namedview309"
     showgrid="false"
     units="px"
     inkscape:pagecheckerboard="true"
     inkscape:zoom="0.44410714"
     inkscape:cx="259.31384"
     inkscape:cy="488.16391"
     inkscape:window-x="0"
     inkscape:window-y="30"
     inkscape:window-maximized="1"
     inkscape:current-layer="svg307" />
  <defs
     id="defs217">
    <symbol
       id="v"
       overflow="visible">
      <path
         d="m 25.359,-1.5156 c -1.3125,0.67969 -2.6797,1.1875 -4.0938,1.5312 -1.418,0.34375 -2.8984,0.51562 -4.4375,0.51562 -4.5938,0 -8.2344,-1.2812 -10.922,-3.8438 -2.6797,-2.5703 -4.0156,-6.0547 -4.0156,-10.453 0,-4.4062 1.3359,-7.8945 4.0156,-10.469 2.6875,-2.5703 6.3281,-3.8594 10.922,-3.8594 1.5391,0 3.0195,0.17969 4.4375,0.53125 1.4141,0.34375 2.7812,0.85547 4.0938,1.5312 v 5.7031 c -1.3242,-0.89453 -2.625,-1.5508 -3.9062,-1.9688 -1.2812,-0.42578 -2.6328,-0.64062 -4.0469,-0.64062 -2.543,0 -4.543,0.82031 -6,2.4531 -1.4492,1.625 -2.1719,3.8672 -2.1719,6.7188 0,2.8438 0.72266,5.0781 2.1719,6.7031 1.457,1.625 3.457,2.4375 6,2.4375 1.4141,0 2.7656,-0.20703 4.0469,-0.625 1.2812,-0.41406 2.582,-1.0703 3.9062,-1.9688 z"
         id="path151" />
    </symbol>
    <symbol
       id="c"
       overflow="visible">
      <path
         d="m 18.547,-15.062 c -0.57422,-0.26953 -1.1484,-0.46875 -1.7188,-0.59375 -0.57422,-0.13281 -1.1523,-0.20312 -1.7344,-0.20312 -1.6992,0 -3.0078,0.54688 -3.9219,1.6406 -0.91797,1.0938 -1.375,2.6562 -1.375,4.6875 v 9.5312 h -6.625 v -20.703 h 6.625 v 3.4062 c 0.84375,-1.3516 1.8164,-2.3359 2.9219,-2.9531 1.1016,-0.625 2.4258,-0.9375 3.9688,-0.9375 0.21875,0 0.45703,0.01172 0.71875,0.03125 0.25781,0.01172 0.63281,0.04687 1.125,0.10938 z"
         id="path154" />
    </symbol>
    <symbol
       id="a"
       overflow="visible">
      <path
         d="m 23.844,-10.406 v 1.8906 H 8.375 c 0.15625,1.5547 0.71094,2.7188 1.6719,3.5 0.96875,0.77344 2.3125,1.1562 4.0312,1.1562 1.3945,0 2.8203,-0.20312 4.2812,-0.60938 1.457,-0.41406 2.957,-1.0469 4.5,-1.8906 v 5.1094 c -1.5625,0.58594 -3.1328,1.0273 -4.7031,1.3281 -1.5625,0.30078 -3.125,0.45312 -4.6875,0.45312 -3.7422,0 -6.6523,-0.94531 -8.7344,-2.8438 -2.0742,-1.9062 -3.1094,-4.5781 -3.1094,-8.0156 0,-3.375 1.0195,-6.0234 3.0625,-7.9531 2.0391,-1.9375 4.8438,-2.9062 8.4062,-2.9062 3.2578,0 5.8633,0.98047 7.8125,2.9375 1.957,1.9609 2.9375,4.5742 2.9375,7.8438 z m -6.8125,-2.2031 c 0,-1.25 -0.36719,-2.2578 -1.0938,-3.0312 -0.73047,-0.76953 -1.6875,-1.1562 -2.875,-1.1562 -1.2812,0 -2.3242,0.35938 -3.125,1.0781 -0.80469,0.71875 -1.3047,1.7578 -1.5,3.1094 z"
         id="path157" />
    </symbol>
    <symbol
       id="e"
       overflow="visible">
      <path
         d="m 12.453,-9.3125 c -1.375,0 -2.4141,0.23438 -3.1094,0.70312 -0.69922,0.46875 -1.0469,1.1562 -1.0469,2.0625 0,0.84375 0.28125,1.5078 0.84375,1.9844 0.5625,0.46875 1.3359,0.70312 2.3281,0.70312 1.25,0 2.2969,-0.44531 3.1406,-1.3438 0.85156,-0.89453 1.2812,-2.0156 1.2812,-3.3594 v -0.75 z m 10.109,-2.5 V -5e-4 H 15.8901 V -3.063 c -0.88672,1.25 -1.8867,2.1641 -3,2.7344 -1.1055,0.57031 -2.4531,0.85938 -4.0469,0.85938 -2.1367,0 -3.875,-0.625 -5.2188,-1.875 -1.3359,-1.25 -2,-2.8672 -2,-4.8594 0,-2.4258 0.83203,-4.207 2.5,-5.3438 1.6758,-1.1328 4.3008,-1.7031 7.875,-1.7031 H 15.89 v -0.51562 c 0,-1.0508 -0.41406,-1.8164 -1.2344,-2.2969 -0.82422,-0.48828 -2.1094,-0.73438 -3.8594,-0.73438 -1.418,0 -2.7422,0.14062 -3.9688,0.42188 -1.2188,0.28125 -2.3516,0.71094 -3.3906,1.2812 v -5.0469 c 1.4141,-0.34375 2.8359,-0.60156 4.2656,-0.78125 1.4258,-0.17578 2.8594,-0.26562 4.2969,-0.26562 3.7266,0 6.4219,0.73438 8.0781,2.2031 1.6562,1.46872 2.4844,3.8594 2.4844,7.1719 z"
         id="path160" />
    </symbol>
    <symbol
       id="b"
       overflow="visible">
      <path
         d="m 10.406,-26.578 v 5.875 h 6.8125 v 4.7344 H 10.406 v 8.7812 c 0,0.96094 0.1875,1.6094 0.5625,1.9531 0.38281,0.33594 1.1445,0.5 2.2812,0.5 h 3.4062 V 1e-4 H 10.9684 C 8.3629,1e-4 6.5153,-0.53896 5.4215,-1.6249 4.3277,-2.7187 3.7809,-4.5702 3.7809,-7.1874 v -8.7812 H 0.4997 v -4.7344 h 3.2812 v -5.875 z"
         id="path163" />
    </symbol>
    <symbol
       id="j"
       overflow="visible">
      <path
         d="M 17.266,-17.672 V -28.75 h 6.6406 V 0 H 17.266 v -3 c -0.91797,1.2188 -1.9219,2.1172 -3.0156,2.6875 -1.0938,0.5625 -2.3672,0.84375 -3.8125,0.84375 -2.5547,0 -4.6484,-1.0078 -6.2812,-3.0312 -1.6367,-2.0312 -2.4531,-4.6406 -2.4531,-7.8281 0,-3.1875 0.81641,-5.7891 2.4531,-7.8125 1.6328,-2.0312 3.7266,-3.0469 6.2812,-3.0469 1.4258,0 2.6914,0.28906 3.7969,0.85938 1.1016,0.57422 2.1133,1.4609 3.0312,2.6562 z m -4.375,13.406 c 1.4141,0 2.5,-0.51562 3.25,-1.5469 0.75,-1.0391 1.125,-2.5469 1.125,-4.5156 0,-1.9687 -0.375,-3.4688 -1.125,-4.5 -0.75,-1.0391 -1.8359,-1.5625 -3.25,-1.5625 -1.3984,0 -2.4688,0.52344 -3.2188,1.5625 -0.74219,1.0312 -1.1094,2.5312 -1.1094,4.5 0,1.9688 0.36719,3.4766 1.1094,4.5156 0.75,1.0312 1.8203,1.5469 3.2188,1.5469 z"
         id="path166" />
    </symbol>
    <symbol
       id="i"
       overflow="visible">
      <path
         d="m 14.188,-4.2656 c 1.4141,0 2.4922,-0.51562 3.2344,-1.5469 0.75,-1.0391 1.125,-2.5469 1.125,-4.5156 0,-1.9687 -0.375,-3.4688 -1.125,-4.5 -0.74219,-1.0391 -1.8203,-1.5625 -3.2344,-1.5625 -1.418,0 -2.5078,0.52344 -3.2656,1.5625 -0.75,1.043 -1.125,2.543 -1.125,4.5 0,1.9609 0.375,3.4609 1.125,4.5 0.75781,1.043 1.8477,1.5625 3.2656,1.5625 z m -4.3906,-13.406 c 0.90625,-1.1953 1.9102,-2.082 3.0156,-2.6562 1.1133,-0.57031 2.3945,-0.85938 3.8438,-0.85938 2.5391,0 4.6289,1.0156 6.2656,3.0469 1.6445,2.0234 2.4688,4.625 2.4688,7.8125 0,3.1875 -0.82422,5.7969 -2.4688,7.8281 -1.6367,2.0234 -3.7266,3.0312 -6.2656,3.0312 -1.4492,0 -2.7305,-0.28906 -3.8438,-0.85938 -1.1055,-0.57031 -2.1094,-1.4609 -3.0156,-2.6719 v 3 h -6.625 v -28.75 h 6.625 z"
         id="path169" />
    </symbol>
    <symbol
       id="h"
       overflow="visible">
      <path
         d="m 0.46875,-20.703 h 6.6094 l 5.5625,14.047 4.7344,-14.047 h 6.6094 l -8.7031,22.656 c -0.875,2.3125 -1.8984,3.9258 -3.0625,4.8438 -1.1562,0.91406 -2.6953,1.375 -4.6094,1.375 H 3.78135 V 3.828 h 2.0781 c 1.125,0 1.9414,-0.18359 2.4531,-0.54688 C 8.82036,2.92565 9.2188,2.28893 9.50005,1.37492 L 9.68755,0.7968 Z"
         id="path172" />
    </symbol>
    <symbol
       id="g"
       overflow="visible">
      <path
         d="m 0.1875,-27.594 h 7.1406 l 7.3281,20.375 7.2969,-20.375 h 7.1562 L 18.8903,0 h -8.4844 z"
         id="path175" />
    </symbol>
    <symbol
       id="f"
       overflow="visible">
      <path
         d="m 19.906,-20.047 v 5.3906 c -0.90625,-0.61328 -1.8125,-1.0664 -2.7188,-1.3594 -0.89844,-0.30078 -1.8359,-0.45312 -2.8125,-0.45312 -1.8438,0 -3.2812,0.54297 -4.3125,1.625 -1.0312,1.0742 -1.5469,2.5781 -1.5469,4.5156 0,1.9375 0.51562,3.4492 1.5469,4.5312 1.0312,1.0742 2.4688,1.6094 4.3125,1.6094 1.0312,0 2.0078,-0.15625 2.9375,-0.46875 0.9375,-0.3125 1.8008,-0.76953 2.5938,-1.375 v 5.4219 c -1.043,0.38672 -2.0938,0.67188 -3.1562,0.85938 -1.0624,0.1875 -2.1328,0.28125 -3.2031,0.28125 -3.7305,0 -6.6523,-0.95312 -8.7656,-2.8594 -2.1055,-1.9141 -3.1562,-4.582 -3.1562,-8 0,-3.4141 1.0508,-6.0781 3.1562,-7.9844 2.1133,-1.9141 5.0352,-2.875 8.7656,-2.875 1.082,0 2.1484,0.09375 3.2031,0.28125 1.0508,0.1875 2.1016,0.47656 3.1562,0.85938 z"
         id="path178" />
    </symbol>
    <symbol
       id="d"
       overflow="visible">
      <path
         d="m 13.031,-16.469 c -1.4688,0 -2.5898,0.53125 -3.3594,1.5938 -0.77344,1.0547 -1.1562,2.5703 -1.1562,4.5469 0,1.9805 0.38281,3.5 1.1562,4.5625 0.76953,1.0547 1.8906,1.5781 3.3594,1.5781 1.4375,0 2.5352,-0.52344 3.2969,-1.5781 0.76953,-1.0625 1.1562,-2.582 1.1562,-4.5625 0,-1.9766 -0.38672,-3.4922 -1.1562,-4.5469 -0.76172,-1.0625 -1.8594,-1.5938 -3.2969,-1.5938 z m 0,-4.7188 c 3.5625,0 6.3438,0.96484 8.3438,2.8906 2,1.918 3,4.5742 3,7.9688 0,3.3984 -1,6.0586 -3,7.9844 -2,1.918 -4.7812,2.875 -8.3438,2.875 -3.5742,0 -6.3711,-0.95703 -8.3906,-2.875 -2.0117,-1.9258 -3.0156,-4.5859 -3.0156,-7.9844 0,-3.3945 1.0039,-6.0508 3.0156,-7.9688 2.0195,-1.9258 4.8164,-2.8906 8.3906,-2.8906 z"
         id="path181" />
    </symbol>
    <symbol
       id="u"
       overflow="visible">
      <path
         d="m 19.344,-20.047 v 5.0312 c -1.418,-0.59375 -2.7891,-1.0352 -4.1094,-1.3281 -1.3125,-0.30078 -2.5547,-0.45312 -3.7188,-0.45312 -1.2617,0 -2.1992,0.15625 -2.8125,0.46875 -0.60547,0.3125 -0.90625,0.79688 -0.90625,1.4531 0,0.53125 0.22656,0.9375 0.6875,1.2188 0.46875,0.28125 1.2969,0.49219 2.4844,0.625 l 1.1719,0.17188 c 3.3828,0.42969 5.6602,1.1367 6.8281,2.125 1.1758,0.99219 1.7656,2.5391 1.7656,4.6406 0,2.1992 -0.8125,3.8555 -2.4375,4.9688 -1.625,1.1055 -4.0547,1.6562 -7.2812,1.6562 -1.3672,0 -2.7812,-0.10938 -4.25,-0.32812 -1.4609,-0.20703 -2.9609,-0.52344 -4.5,-0.95312 v -5.0312 c 1.3203,0.63672 2.6758,1.1172 4.0625,1.4375 1.3828,0.32422 2.7891,0.48438 4.2188,0.48438 1.2891,0 2.2656,-0.17578 2.9219,-0.53125 0.65625,-0.36328 0.98438,-0.89453 0.98438,-1.5938 0,-0.59375 -0.23047,-1.0352 -0.6875,-1.3281 -0.44922,-0.28906 -1.3398,-0.51562 -2.6719,-0.67188 L 9.92213,-8.1251 c -2.9492,-0.375 -5.0156,-1.0547 -6.2031,-2.0469 -1.1797,-1 -1.7656,-2.5195 -1.7656,-4.5625 0,-2.1875 0.75,-3.8047 2.25,-4.8594 1.5078,-1.0625 3.8164,-1.5938 6.9219,-1.5938 1.2188,0 2.5,0.09375 3.8438,0.28125 1.3438,0.17969 2.8008,0.46484 4.375,0.85938 z"
         id="path184" />
    </symbol>
    <symbol
       id="t"
       overflow="visible">
      <path
         d="m 3.4688,-27.594 h 9.0625 l 6.2812,14.766 6.3125,-14.766 h 9.0469 V 0 h -6.7344 v -20.172 l -6.3594,14.875 h -4.5 L 10.2187,-20.172 V 0 h -6.75 z"
         id="path187" />
    </symbol>
    <symbol
       id="s"
       overflow="visible">
      <path
         d="m 3.1719,-28.75 h 6.625 v 15.656 l 7.6094,-7.6094 h 7.6875 l -10.109,9.5 10.906,11.203 h -8.0156 l -8.0781,-8.625 v 8.625 h -6.625 z"
         id="path190" />
    </symbol>
    <symbol
       id="r"
       overflow="visible">
      <path
         d="m 16.797,-28.75 v 4.3438 h -3.6562 c -0.9375,0 -1.5938,0.17188 -1.9688,0.51562 -0.36719,0.33594 -0.54688,0.91797 -0.54688,1.75 v 1.4375 h 5.6562 v 4.7344 h -5.6562 v 15.969 h -6.6094 v -15.969 h -3.2969 v -4.7344 h 3.2969 v -1.4375 c 0,-2.25 0.625,-3.9102 1.875,-4.9844 1.2578,-1.082 3.207,-1.625 5.8438,-1.625 z"
         id="path193" />
    </symbol>
    <symbol
       id="q"
       overflow="visible">
      <path
         d="m 22.359,-17.266 c 0.83203,-1.2812 1.8281,-2.2539 2.9844,-2.9219 1.1562,-0.66406 2.4219,-1 3.7969,-1 2.375,0 4.1797,0.73438 5.4219,2.2031 1.25,1.4609 1.875,3.5859 1.875,6.375 V -8e-4 H 29.781 v -10.797 c 0.01953,-0.15625 0.03125,-0.31641 0.03125,-0.48438 0.0078,-0.17578 0.01563,-0.42578 0.01563,-0.75 0,-1.4688 -0.21875,-2.5312 -0.65625,-3.1875 -0.42969,-0.65625 -1.1211,-0.98438 -2.0781,-0.98438 -1.2617,0 -2.2344,0.52344 -2.9219,1.5625 -0.67969,1.0312 -1.0312,2.5273 -1.0625,4.4844 v 10.156 h -6.6406 v -10.797 c 0,-2.2891 -0.19922,-3.7656 -0.59375,-4.4219 -0.39844,-0.65625 -1.1016,-0.98438 -2.1094,-0.98438 -1.2734,0 -2.25,0.52344 -2.9375,1.5625 -0.6875,1.043 -1.0312,2.5273 -1.0312,4.4531 v 10.188 h -6.6562 v -20.703 h 6.6562 v 3.0312 c 0.8125,-1.1641 1.7422,-2.0391 2.7969,-2.625 1.0508,-0.59375 2.2109,-0.89062 3.4844,-0.89062 1.4258,0 2.6875,0.34375 3.7812,1.0312 1.1016,0.6875 1.9375,1.6523 2.5,2.8906 z"
         id="path196" />
    </symbol>
    <symbol
       id="p"
       overflow="visible">
      <path
         d="M 23.984,-12.609 V 0 h -6.6562 v -9.6094 c 0,-1.8125 -0.04297,-3.0547 -0.125,-3.7344 -0.07422,-0.67578 -0.21094,-1.1758 -0.40625,-1.5 -0.26172,-0.42578 -0.61719,-0.75781 -1.0625,-1 -0.4375,-0.23828 -0.9375,-0.35938 -1.5,-0.35938 -1.3867,0 -2.4766,0.53125 -3.2656,1.5938 -0.78125,1.0625 -1.1719,2.5391 -1.1719,4.4219 v 10.188 h -6.625 v -28.75 h 6.625 v 11.078 c 1,-1.1953 2.0547,-2.082 3.1719,-2.6562 1.125,-0.57031 2.3633,-0.85938 3.7188,-0.85938 2.3828,0 4.1953,0.73438 5.4375,2.2031 1.2383,1.4609 1.8594,3.5859 1.8594,6.375 z"
         id="path199" />
    </symbol>
    <symbol
       id="o"
       overflow="visible">
      <path
         d="m 3.4688,-27.594 h 7.9531 l 10.031,18.922 v -18.922 h 6.75 V 0 H 20.2498 L 10.2188,-18.922 V 0 h -6.75 z"
         id="path202" />
    </symbol>
    <symbol
       id="n"
       overflow="visible">
      <path
         d="m 2.9531,-8.0625 v -12.641 h 6.6562 v 2.0781 c 0,1.125 -0.00781,2.5391 -0.015625,4.2344 -0.011719,1.6875 -0.015625,2.8125 -0.015625,3.375 0,1.668 0.039063,2.8711 0.125,3.6094 0.082031,0.73047 0.22656,1.2578 0.4375,1.5781 0.26953,0.4375 0.625,0.77734 1.0625,1.0156 0.4375,0.23047 0.94141,0.34375 1.5156,0.34375 1.375,0 2.4531,-0.53125 3.2344,-1.5938 0.78906,-1.0625 1.1875,-2.5352 1.1875,-4.4219 v -10.219 h 6.625 v 20.703 h -6.625 v -3 c -0.99219,1.2109 -2.043,2.1016 -3.1562,2.6719 -1.1172,0.57031 -2.3438,0.85938 -3.6875,0.85938 -2.3984,0 -4.2188,-0.72656 -5.4688,-2.1875 -1.25,-1.4688 -1.875,-3.6016 -1.875,-6.4062 z"
         id="path205" />
    </symbol>
    <symbol
       id="m"
       overflow="visible">
      <path
         d="M 23.984,-12.609 V 0 h -6.6562 v -9.6406 c 0,-1.7891 -0.04297,-3.0234 -0.125,-3.7031 -0.07422,-0.67578 -0.21094,-1.1758 -0.40625,-1.5 -0.26172,-0.42578 -0.61719,-0.75781 -1.0625,-1 -0.4375,-0.23828 -0.9375,-0.35938 -1.5,-0.35938 -1.3867,0 -2.4766,0.53125 -3.2656,1.5938 -0.78125,1.0625 -1.1719,2.5391 -1.1719,4.4219 v 10.188 h -6.625 v -20.703 h 6.625 v 3.0312 c 1,-1.1953 2.0547,-2.082 3.1719,-2.6562 1.125,-0.57031 2.3633,-0.85938 3.7188,-0.85938 2.3828,0 4.1953,0.73438 5.4375,2.2031 1.2383,1.4609 1.8594,3.5859 1.8594,6.375 z"
         id="path208" />
    </symbol>
    <symbol
       id="l"
       overflow="visible">
      <path
         d="m 3.4688,-27.594 h 11.812 c 3.5078,0 6.2031,0.78125 8.0781,2.3438 1.8828,1.5625 2.8281,3.7812 2.8281,6.6562 0,2.8984 -0.94531,5.125 -2.8281,6.6875 -1.875,1.5547 -4.5703,2.3281 -8.0781,2.3281 H 10.5933 V -3e-4 h -7.125 z m 7.125,5.1562 v 7.7031 h 3.9375 c 1.375,0 2.4375,-0.33203 3.1875,-1 0.75,-0.66406 1.125,-1.6172 1.125,-2.8594 0,-1.2266 -0.375,-2.1758 -1.125,-2.8438 -0.75,-0.66406 -1.8125,-1 -3.1875,-1 z"
         id="path211" />
    </symbol>
    <symbol
       id="k"
       overflow="visible">
      <path
         d="m 3.1719,-20.703 h 6.625 v 20.328 c 0,2.7695 -0.66797,4.8828 -2,6.3438 C 6.461,7.4376 4.5352,8.1719 2.0157,8.1719 H -1.2499 V 3.8281 h 1.1406 c 1.2578,0 2.1172,-0.28906 2.5781,-0.85938 0.46875,-0.5625 0.70312,-1.6797 0.70312,-3.3438 z m 0,-8.0469 h 6.625 v 5.3906 h -6.625 z"
         id="path214" />
    </symbol>
  </defs>
  <g
     id="g3954"
     transform="translate(-76.624458,-6.4709444)"
     style="fill:#ffffff;fill-opacity:1">
    <path
       d="m 620.92,188.43 c -5.2969,-4.5391 -21.188,11.352 -26.488,15.891 1.5117,-8.3242 4.5391,-16.648 4.5391,-24.973 0,-6.0547 -5.2969,-6.8125 -7.5664,-1.5117 -3.7852,9.8359 -8.3242,23.461 -8.3242,31.027 -8.3242,-3.7852 -10.594,-8.3242 -15.137,-16.648 -7.5664,-13.621 -20.434,6.0547 12.863,27.242 -15.137,24.215 -34.055,45.406 -55.242,60.539 -3.0273,-9.082 -7.5664,-18.164 -15.137,-25.73 6.8125,-28 -2.2695,-59.785 -25.73,-80.215 12.863,-65.082 -60.539,-114.27 -116.54,-77.188 -33.297,-22.703 -79.461,-12.863 -99.891,21.945 -40.109,6.0547 -68.863,43.137 -65.082,83.242 -14.379,15.891 -21.188,36.324 -19.676,56 -4.5391,6.8125 -7.5664,14.379 -9.8359,21.945 -21.188,-15.891 -39.352,-36.324 -54.488,-60.539 32.539,-21.188 19.676,-41.621 12.863,-27.242 -3.7852,7.5664 -6.8125,12.863 -15.137,16.648 0,-7.5664 -4.5391,-21.188 -8.3242,-31.027 -3.0195,-5.3008 -8.3164,-3.7852 -8.3164,1.5117 0,9.082 3.7852,16.648 4.5391,24.973 -4.5391,-4.5391 -21.188,-20.434 -26.488,-15.891 -4.5391,3.7852 0.75781,17.406 27.242,31.027 15.137,37.836 40.109,62.812 65.836,78.703 0.75781,28.758 20.434,56.758 51.461,65.082 5.2969,31.785 31.027,54.488 61.297,56.758 2.2695,3.7852 3.7852,7.5664 3.0273,11.352 -23.461,0 -33.297,9.8359 -37.082,19.676 -3.7852,10.594 3.0273,21.945 14.379,22.703 16.648,1.5117 42.379,2.2695 46.918,-3.0273 8.3242,-12.109 7.5664,-35.566 5.2969,-49.945 20.434,9.8359 44.648,9.082 64.324,-2.2695 -2.2695,15.137 -3.7852,40.109 5.2969,52.215 4.5391,5.2969 29.512,3.7852 46.918,3.0273 11.352,-0.75781 18.164,-12.109 14.379,-22.703 -3.7852,-9.8359 -13.621,-19.676 -37.082,-19.676 -0.75781,-6.8125 4.5391,-13.621 11.352,-22.703 34.812,0 67.352,-22.703 77.188,-57.512 18.918,-12.109 28.758,-32.539 28,-52.973 27.254,-15.898 52.227,-40.871 67.363,-78.707 25.73,-12.867 31.027,-27.246 26.484,-31.027 z M 282.65,161.942 c 23.461,0 41.621,18.918 41.621,41.621 0,22.703 -18.918,41.621 -41.621,41.621 -22.703,0 -41.621,-18.918 -41.621,-41.621 0,-22.703 18.918,-41.621 41.621,-41.621 z m 116.54,172.54 c -3.0273,18.918 -12.109,28 -24.215,32.539 -1.5117,0.75781 -3.0273,0 -3.7852,-0.75781 -0.75781,-0.75781 -1.5117,-2.2695 -1.5117,-3.7852 l 3.0273,-18.164 c -6.0547,1.5117 -12.109,2.2695 -18.918,3.0273 l 2.2695,18.164 c 0,1.5117 0,2.2695 -0.75781,3.0273 -0.75781,0.75781 -2.2695,1.5117 -3.0273,1.5117 -6.8125,0 -14.379,-1.5117 -22.703,-2.2695 -1.5117,0 -2.2695,-0.75781 -3.0273,-2.2695 -0.75781,-1.5117 -0.75781,-3.0273 0,-3.7852 l 5.2969,-14.379 c -9.082,-0.75781 -15.891,-2.2695 -26.488,-6.0547 l -0.75781,16.648 c 0,1.5117 -0.75781,2.2695 -1.5117,3.0273 -0.75781,0.75781 -2.2695,0.75781 -3.7852,0.75781 -8.3242,-2.2695 -15.891,-4.5391 -22.703,-7.5664 -2.2695,-0.75781 -3.0273,-3.0273 -3.0273,-5.2969 l 3.0273,-21.945 c -1.5117,-1.5117 -3.7852,-2.2695 -5.2969,-3.7852 -3.7852,14.379 -3.7852,18.164 -7.5664,18.918 -1.5117,0 -3.7852,0 -4.5391,-1.5117 -6.0547,-8.3242 -9.082,-18.918 -5.2969,-34.055 -6.8125,-8.3242 -12.863,-16.648 -17.406,-25.73 52.215,53.73 118.81,68.109 189.19,36.324 -7.5625,6.8125 -16.645,12.867 -26.484,17.41 z m 18.164,-88.543 c -23.461,0 -41.621,-18.918 -41.621,-41.621 0,-23.461 18.918,-41.621 41.621,-41.621 23.461,0 41.621,18.918 41.621,41.621 0,22.703 -18.918,41.621 -41.621,41.621 z"
       id="path219"
       style="fill:#ffffff;fill-opacity:1" />
    <path
       d="m 426.43,201.3 c -3.7852,0 -6.0547,-3.0273 -6.0547,-6.0547 0,-3.0273 2.2695,-5.2969 4.5391,-6.0547 -3.0273,-1.5117 -6.0547,-2.2695 -9.8359,-2.2695 -11.352,0 -19.676,9.082 -19.676,19.676 0,11.352 9.082,19.676 19.676,19.676 10.594,0 19.676,-9.082 19.676,-19.676 0,-3.7852 -0.75781,-6.8125 -2.2695,-9.8359 0,3.0273 -3.0273,4.5391 -6.0547,4.5391 z m -22.703,10.594 c -3.0273,0 -4.5391,-2.2695 -4.5391,-4.5391 0,-3.0273 2.2695,-4.5391 4.5391,-4.5391 3.0273,0 4.5391,2.2695 4.5391,4.5391 0,2.2695 -2.2695,4.5391 -4.5391,4.5391 z"
       id="path221"
       style="fill:#ffffff;fill-opacity:1" />
    <path
       d="m 281.14,226.27 c 11.352,0 19.676,-9.082 19.676,-19.676 0,-3.7852 -0.75781,-6.8125 -3.0273,-9.8359 -0.75781,3.0273 -3.0273,4.5391 -6.0547,4.5391 -3.7852,0 -6.0547,-3.0273 -6.0547,-6.0547 0,-3.0273 2.2695,-5.2969 4.5391,-6.0547 -3.0273,-1.5117 -6.0547,-2.2695 -9.8359,-2.2695 -11.352,0 -19.676,9.082 -19.676,19.676 0.75781,10.594 9.082,19.676 20.434,19.676 z m -16.648,-19.676 c 0,-3.0273 2.2695,-4.5391 4.5391,-4.5391 3.0273,0 4.5391,2.2695 4.5391,4.5391 0,2.2696 -2.2695,4.5391 -4.5391,4.5391 -2.2695,0.004 -4.5391,-2.2695 -4.5391,-4.5391 z"
       id="path223"
       style="fill:#ffffff;fill-opacity:1" />
  </g>
</svg>
