<?xml version="1.0" encoding="UTF-8" standalone="no"?>
<svg
   xmlns:dc="http://purl.org/dc/elements/1.1/"
   xmlns:cc="http://creativecommons.org/ns#"
   xmlns:rdf="http://www.w3.org/1999/02/22-rdf-syntax-ns#"
   xmlns:svg="http://www.w3.org/2000/svg"
   xmlns="http://www.w3.org/2000/svg"
   xmlns:sodipodi="http://sodipodi.sourceforge.net/DTD/sodipodi-0.dtd"
   xmlns:inkscape="http://www.inkscape.org/namespaces/inkscape"
   width="685"
   height="685"
   version="1.1"
   viewBox="0 0 513.75001 513.75001"
   id="svg333"
   sodipodi:docname="Cuddly toy store.svg"
   inkscape:export-filename="/home/marek/Downloads/Cuddly toy store.png"
   inkscape:export-xdpi="28"
   inkscape:export-ydpi="28"
   inkscape:version="1.0.2 (e86c870879, 2021-01-15)">
  <metadata
     id="metadata339">
    <rdf:RDF>
      <cc:Work
         rdf:about="">
        <dc:format>image/svg+xml</dc:format>
        <dc:type
           rdf:resource="http://purl.org/dc/dcmitype/StillImage" />
        <dc:title></dc:title>
      </cc:Work>
    </rdf:RDF>
  </metadata>
  <defs
     id="defs337" />
  <sodipodi:namedview
     pagecolor="#ffffff"
     bordercolor="#666666"
     borderopacity="1"
     objecttolerance="10"
     gridtolerance="10"
     guidetolerance="10"
     inkscape:pageopacity="0"
     inkscape:pageshadow="2"
     inkscape:window-width="1920"
     inkscape:window-height="990"
     id="namedview335"
     showgrid="false"
     units="px"
     inkscape:pagecheckerboard="true"
     inkscape:zoom="0.31403117"
     inkscape:cx="-421.39651"
     inkscape:cy="199.77394"
     inkscape:window-x="0"
     inkscape:window-y="30"
     inkscape:window-maximized="1"
     inkscape:current-layer="svg333" />
  <g
     id="g331"
     transform="translate(-93.126073,-23.124583)"
     style="fill:#ffffff;fill-opacity:1">
    <path
       d="m 352.82,157.57 c -13,-0.33203 -25.957,1.625 -38.281,5.7852 -11.25,3.793 -20.41,12.098 -25.293,22.922 -4.8789,10.824 -5.0391,23.188 -0.4375,34.133 5.1055,12.137 13.582,22.555 24.43,30.02 10.848,7.4609 23.609,11.656 36.766,12.086 13.168,-0.42188 25.934,-4.6133 36.789,-12.078 10.852,-7.4648 19.336,-17.887 24.441,-30.027 4.6016,-10.949 4.4375,-23.316 -0.44922,-34.141 -4.8867,-10.824 -14.059,-19.125 -25.312,-22.914 -10.535,-3.5547 -21.539,-5.5039 -32.652,-5.7852 z m -5.5,9.6406 c 8.25,-0.17188 16.5,0.48438 24.625,1.957 2.6875,0.48828 5.0508,2.0859 6.5117,4.3984 1.4609,2.3125 1.8828,5.1328 1.168,7.7734 -1.6953,6.2109 -5,11.863 -9.5859,16.383 -4.5859,4.5195 -10.289,7.7422 -16.523,9.3477 v 24.434 c 12.117,-0.75391 23.672,-5.375 32.969,-13.184 1.5,-1.2539 3.7344,-1.0586 4.9961,0.4375 1.2617,1.4961 1.0781,3.7305 -0.41406,5 -11.5,9.6641 -26.039,14.965 -41.062,14.965 -15.02,0 -29.559,-5.3008 -41.059,-14.965 -1.4922,-1.2695 -1.6758,-3.5039 -0.41406,-5 1.2617,-1.4961 3.4961,-1.6914 4.9961,-0.4375 9.2891,7.8047 20.832,12.422 32.938,13.184 v -24.434 c -6.2383,-1.6055 -11.938,-4.8281 -16.523,-9.3477 -4.5859,-4.5195 -7.8945,-10.172 -9.5859,-16.383 -0.71875,-2.6445 -0.28906,-5.4688 1.1758,-7.7852 1.4688,-2.3125 3.8398,-3.9062 6.5352,-4.3867 6.3672,-1.1562 12.816,-1.8086 19.285,-1.957 z"
       id="path313"
       style="fill:#ffffff;fill-opacity:1" />
    <path
       d="m 349.62,40.207 c -22.742,0.0625 -45.031,6.3867 -64.422,18.273 -19.391,11.8863 -35.137,28.879 -45.516,49.117 -14.109,27.504 -14.109,60.117 0,87.621 14.27,27.797 38.508,49.18 67.867,59.871 -11.18,-8.1406 -19.926,-19.18 -25.289,-31.926 -5.3672,-12.762 -5.1875,-27.184 0.50391,-39.805 5.6914,-12.621 16.375,-22.309 29.496,-26.734 24.48,-8.2617 51,-8.2617 75.484,0 13.125,4.4219 23.816,14.102 29.512,26.727 5.6953,12.621 5.8828,27.047 0.51562,39.812 -5.3633,12.746 -14.109,23.785 -25.289,31.926 29.336,-10.703 53.551,-32.086 67.805,-59.871 14.109,-27.504 14.109,-60.117 0,-87.621 -10.434,-20.348 -26.297,-37.414 -45.828,-49.309 -19.531,-11.891 -41.969,-18.152 -64.84,-18.082 z m 51.207,73.59 0.004,-0.004 c 3.457,-0.0117 6.7734,1.375 9.1914,3.8438 2.418,2.4727 3.7305,5.8203 3.6406,9.2734 0,3.3945 -1.3438,6.6445 -3.7422,9.043 -2.3984,2.4023 -5.6523,3.75 -9.043,3.75 -3.3945,0 -6.6445,-1.3477 -9.043,-3.75 -2.3984,-2.3984 -3.7461,-5.6484 -3.7461,-9.043 -0.0899,-3.4375 1.2148,-6.7695 3.6094,-9.2383 2.3984,-2.4688 5.6914,-3.8672 9.1328,-3.8789 z m -101.91,0.17578 0.004,-0.004 c 3.457,-0.0547 6.7891,1.293 9.2344,3.7344 2.4492,2.4414 3.8047,5.7695 3.7539,9.2266 0.17188,3.4961 -1.0977,6.9062 -3.5117,9.4414 -2.4102,2.5312 -5.7578,3.9648 -9.2578,3.9648 -3.4961,0 -6.8438,-1.4336 -9.2578,-3.9648 -2.4141,-2.5352 -3.6797,-5.9453 -3.5117,-9.4414 -0.0977,-7.0391 5.5117,-12.832 12.551,-12.961 z"
       id="path315"
       style="fill:#ffffff;fill-opacity:1" />
    <path
       d="m 504.79,371.05 c -5.4375,-4.2188 -10.336,-9.0938 -14.582,-14.512 -2.1875,-45.09 -24.637,-86.777 -61.082,-113.42 8.6328,-6.543 16.422,-14.129 23.188,-22.59 53.551,16.875 94.266,60.688 107.18,115.33 2.207,9.3125 0.4375,19.129 -4.875,27.09 -5.3164,7.9609 -13.703,13.355 -23.152,14.895 -9.4492,1.5352 -19.113,-0.92578 -26.676,-6.793 z"
       id="path317"
       style="fill:#ffffff;fill-opacity:1" />
    <path
       d="m 195.2,371.05 c 5.4414,-4.2188 10.34,-9.0938 14.59,-14.512 2.1914,-45.098 24.656,-86.785 61.113,-113.42 -8.6445,-6.5391 -16.445,-14.129 -23.219,-22.59 -53.551,16.875 -94.27,60.688 -107.18,115.33 -2.1992,9.3125 -0.43359,19.125 4.8789,27.086 5.3164,7.9609 13.699,13.355 23.148,14.891 9.4453,1.5391 19.105,-0.92188 26.672,-6.7852 z"
       id="path319"
       style="fill:#ffffff;fill-opacity:1" />
    <path
       d="m 226.65,28.32 c -12.617,6.5469 -21.18,18.906 -22.879,33.02 -1.1758,9.4688 1.3828,19.023 7.1289,26.641 5.75,7.6211 14.234,12.699 23.664,14.168 12.836,-23.895 32.77,-43.215 57.055,-55.301 -6.707,-10.477 -17.016,-18.145 -28.98,-21.559 -11.965,-3.4141 -24.762,-2.3359 -35.988,3.0312 z"
       id="path321"
       style="fill:#ffffff;fill-opacity:1" />
    <path
       d="m 465.46,102.15 c 9.4258,-1.4688 17.914,-6.5469 23.66,-14.164 5.75,-7.6172 8.3047,-17.172 7.1328,-26.645 -1.6953,-14.109 -10.258,-26.473 -22.871,-33.02 -11.227,-5.3672 -24.027,-6.4453 -35.992,-3.0312 -11.965,3.4141 -22.27,11.082 -28.977,21.559 24.277,12.086 44.211,31.41 57.047,55.301 z"
       id="path323"
       style="fill:#ffffff;fill-opacity:1" />
    <path
       d="m 423.02,247.48 c 22.836,16.117 40.426,38.598 50.57,64.641 10.145,26.047 12.398,54.5 6.4805,81.816 -1.2852,-0.0273 -2.5703,-0.0117 -3.8516,0.0469 -23.98,1.082 -46.469,11.953 -62.211,30.07401 -15.746,18.117 -23.371,41.90199 -21.098,65.79699 0.17578,1.0859 0.37891,2.168 0.61328,3.24221 -28.602,5.59379 -58.02,5.59379 -86.621,0 0.23438,-1.07421 0.4375,-2.15621 0.60938,-3.24221 2.2734,-23.895 -5.3516,-47.68 -21.094,-65.797 -15.746,-18.121 -38.23,-28.992 -62.211,-30.074 -1.2617,-0.0547 -2.5273,-0.0703 -3.793,-0.0469 -5.918,-27.316 -3.6641,-55.77 6.4805,-81.816 10.148,-26.043 27.734,-48.523 50.574,-64.641 21.59,14.488 47.004,22.223 73.008,22.223 26,0 51.414,-7.7344 73.008,-22.223 z"
       id="path325"
       style="fill:#ffffff;fill-opacity:1" />
    <path
       d="m 531.11,448.5 c -1.2734,-13.398 -7.6523,-25.797 -17.809,-34.625 -10.16,-8.8242 -23.324,-13.41 -36.77,-12.801 -22.035,1.0039 -42.695,10.996 -57.16,27.648 -14.469,16.652 -21.473,38.508 -19.383,60.465 1.2734,13.398 7.6523,25.793 17.809,34.617 10.16,8.8281 23.324,13.414 36.766,12.809 22.035,-1.0039 42.699,-10.996 57.164,-27.648 14.469,-16.652 21.473,-38.508 19.383,-60.465 z"
       id="path327"
       style="fill:#ffffff;fill-opacity:1" />
    <path
       d="m 168.88,448.5 c -2.0898,21.957 4.918,43.812 19.383,60.465 14.469,16.652 35.129,26.645 57.164,27.648 13.449,0.61328 26.621,-3.9688 36.785,-12.797 10.164,-8.8281 16.547,-21.227 17.82,-34.629 2.0898,-21.965 -4.918,-43.824 -19.391,-60.477 -14.477,-16.656 -35.145,-26.645 -57.188,-27.637 -13.441,-0.60547 -26.605,3.9766 -36.766,12.805 -10.156,8.8281 -16.531,21.223 -17.809,34.621 z"
       id="path329"
       style="fill:#ffffff;fill-opacity:1" />
  </g>
</svg>
