<?xml version="1.0" encoding="UTF-8" standalone="no"?>
<svg
   width="717"
   height="717"
   version="1.1"
   viewBox="0 0 537.75 537.75"
   id="svg139"
   sodipodi:docname="Defense expansion.svg"
   inkscape:export-filename="Defense expansion.png"
   inkscape:export-xdpi="6.6900001"
   inkscape:export-ydpi="6.6900001"
   inkscape:version="1.2.2 (b0a8486541, 2022-12-01)"
   xmlns:inkscape="http://www.inkscape.org/namespaces/inkscape"
   xmlns:sodipodi="http://sodipodi.sourceforge.net/DTD/sodipodi-0.dtd"
   xmlns="http://www.w3.org/2000/svg"
   xmlns:svg="http://www.w3.org/2000/svg">
  <sodipodi:namedview
     id="namedview141"
     pagecolor="#ffffff"
     bordercolor="#666666"
     borderopacity="1.0"
     inkscape:showpageshadow="2"
     inkscape:pageopacity="0.0"
     inkscape:pagecheckerboard="true"
     inkscape:deskcolor="#d1d1d1"
     inkscape:document-units="pt"
     showgrid="false"
     inkscape:zoom="0.87857143"
     inkscape:cx="467.23577"
     inkscape:cy="466.66667"
     inkscape:window-width="1920"
     inkscape:window-height="1003"
     inkscape:window-x="0"
     inkscape:window-y="27"
     inkscape:window-maximized="1"
     inkscape:current-layer="svg139" />
  <defs
     id="defs65">
    <symbol
       id="u"
       overflow="visible">
      <path
         d="M 2.0781,-0.125 C 1.97263,-0.070312 1.86326,-0.03125 1.74998,0 1.63279,0.03125 1.5156,0.046875 1.3906,0.046875 c -0.38672,0 -0.6875,-0.10156 -0.90625,-0.3125 -0.21875,-0.21875 -0.32812,-0.50391 -0.32812,-0.85938 0,-0.36328 0.10938,-0.64844 0.32812,-0.85938 0.21875,-0.21875 0.51953,-0.32812 0.90625,-0.32812 0.125,0 0.24219,0.015625 0.35938,0.046875 0.11328,0.03125 0.22266,0.074219 0.32812,0.125 v 0.46875 c -0.10547,-0.070313 -0.21094,-0.125 -0.3125,-0.15625 -0.10547,-0.039063 -0.21484,-0.0625 -0.32812,-0.0625 -0.21094,0 -0.375,0.070313 -0.5,0.20312 -0.11719,0.13672 -0.17188,0.32422 -0.17188,0.5625 0,0.23047 0.054687,0.41406 0.17188,0.54688 0.125,0.13672 0.28906,0.20312 0.5,0.20312 0.11328,0 0.22266,-0.015625 0.32812,-0.046875 0.10156,-0.039063 0.20703,-0.097656 0.3125,-0.17188 z"
         id="path2" />
    </symbol>
    <symbol
       id="b"
       overflow="visible">
      <path
         d="M 1.5312,-1.2344 C 1.476512,-1.253931 1.42573,-1.269556 1.37495,-1.281275 1.331981,-1.289087 1.285106,-1.2969 1.23433,-1.2969 c -0.13672,0 -0.24609,0.046875 -0.32812,0.14062 -0.074219,0.085938 -0.10938,0.21094 -0.10938,0.375 V -3e-5 H 0.26558 v -1.7031 h 0.53125 v 0.28125 c 0.070313,-0.11328 0.15625,-0.19141 0.25,-0.23438 0.09375,-0.050781 0.20312,-0.078125 0.32812,-0.078125 h 0.046875 0.09375 z"
         id="path5" />
    </symbol>
    <symbol
       id="a"
       overflow="visible">
      <path
         d="m 1.9531,-0.85938 v 0.15625 H 0.6875 c 0.007812,0.125 0.050781,0.22656 0.125,0.29688 0.082031,0.0625 0.19531,0.09375 0.34375,0.09375 0.11328,0 0.22656,-0.015625 0.34375,-0.046875 0.125,-0.039063 0.25,-0.09375 0.375,-0.15625 v 0.40625 C 1.75,-0.054687 1.61719,-0.019531 1.48438,5e-6 c -0.125,0.03125 -0.25,0.046875 -0.375,0.046875 -0.3125,0 -0.55469,-0.078125 -0.71875,-0.23438 -0.16797,-0.15625 -0.25,-0.375 -0.25,-0.65625 0,-0.28125 0.082031,-0.5 0.25,-0.65625 0.16406,-0.15625 0.39453,-0.23438 0.6875,-0.23438 0.26953,0 0.48438,0.078125 0.64062,0.23438 0.15624,0.156255 0.23438,0.37109 0.23438,0.64062 z M 1.40622,-1.03126 c 0,-0.10156 -0.03125,-0.1875 -0.09375,-0.25 -0.0625,-0.0625 -0.14062,-0.09375 -0.23438,-0.09375 -0.10547,0 -0.19531,0.03125 -0.26562,0.09375 -0.0625,0.054688 -0.10547,0.13672 -0.125,0.25 z"
         id="path8" />
    </symbol>
    <symbol
       id="f"
       overflow="visible">
      <path
         d="m 1.0156,-0.76562 c -0.10547,0 -0.1875,0.023437 -0.25,0.0625 -0.054687,0.03125 -0.078125,0.089844 -0.078125,0.17188 0,0.0625 0.019531,0.11719 0.0625,0.15625 0.039062,0.042969 0.10156,0.0625 0.1875,0.0625 0.10156,0 0.19141,-0.035156 0.26562,-0.10938 0.070313,-0.070313 0.10938,-0.16406 0.10938,-0.28125 v -0.0625 z M 1.85935,-0.96874 V 1e-5 H 1.31247 v -0.25 c -0.074219,0.10547 -0.15625,0.18359 -0.25,0.23438 -0.09375,0.039062 -0.20312,0.0625 -0.32812,0.0625 -0.17969,0 -0.32422,-0.050781 -0.4375,-0.15625 C 0.19138,-0.21092 0.1406,-0.34764 0.1406,-0.51561 c 0,-0.19531 0.066406,-0.34375 0.20312,-0.4375 0.13281,-0.09375 0.34766,-0.14062 0.64062,-0.14062 h 0.32812 v -0.03125 c 0,-0.09375 -0.039062,-0.15625 -0.10938,-0.1875 -0.0625,-0.039062 -0.16797,-0.0625 -0.3125,-0.0625 -0.11719,0 -0.22656,0.011719 -0.32812,0.03125 -0.10547,0.023438 -0.19922,0.058594 -0.28125,0.10938 v -0.42188 c 0.11328,-0.03125 0.22656,-0.050781 0.34375,-0.0625 0.125,-0.00781 0.24219,-0.015625 0.35938,-0.015625 0.3125,0 0.53516,0.0625 0.67188,0.1875 0.13281,0.11719 0.20312,0.30859 0.20312,0.57812 z"
         id="path11" />
    </symbol>
    <symbol
       id="c"
       overflow="visible">
      <path
         d="m 0.85938,-2.1875 v 0.48438 h 0.5625 v 0.39062 h -0.5625 v 0.71875 c 0,0.085938 0.015625,0.14062 0.046875,0.17188 0.03125,0.023437 0.09375,0.03125 0.1875,0.03125 h 0.28125 V 0 h -0.46875 c -0.21875,0 -0.375,-0.039062 -0.46875,-0.125 -0.085938,-0.09375 -0.125,-0.25 -0.125,-0.46875 V -1.3125 h -0.26562 v -0.39062 h 0.26562 V -2.1875 Z"
         id="path14" />
    </symbol>
    <symbol
       id="i"
       overflow="visible">
      <path
         d="M 1.4219,-1.4531 V -2.35935 H 1.96878 V 5e-5 H 1.4219 v -0.25 c -0.074219,0.10547 -0.15625,0.18359 -0.25,0.23438 -0.09375,0.039062 -0.19922,0.0625 -0.3125,0.0625 -0.21094,0 -0.38281,-0.082031 -0.51562,-0.25 -0.13672,-0.16406 -0.20312,-0.37891 -0.20312,-0.64062 0,-0.25781 0.066406,-0.47266 0.20312,-0.64062 0.13281,-0.16406 0.30469,-0.25 0.51562,-0.25 0.11328,0 0.21875,0.027344 0.3125,0.078125 0.09375,0.042969 0.17578,0.10938 0.25,0.20312 z m -0.35938,1.1094 c 0.11328,0 0.20312,-0.039062 0.26562,-0.125 0.0625,-0.09375 0.09375,-0.21875 0.09375,-0.375 0,-0.16406 -0.03125,-0.28906 -0.09375,-0.375 -0.0625,-0.082031 -0.15234,-0.125 -0.26562,-0.125 -0.11719,0 -0.20312,0.042969 -0.26562,0.125 -0.0625,0.085938 -0.09375,0.21094 -0.09375,0.375 0,0.15625 0.03125,0.28125 0.09375,0.375 0.0625,0.085938 0.14844,0.125 0.26562,0.125 z"
         id="path17" />
    </symbol>
    <symbol
       id="h"
       overflow="visible">
      <path
         d="m 1.1719,-0.34375 c 0.11328,0 0.20312,-0.039062 0.26562,-0.125 0.0625,-0.09375 0.09375,-0.21875 0.09375,-0.375 0,-0.16406 -0.03125,-0.28906 -0.09375,-0.375 -0.0625,-0.082031 -0.15234,-0.125 -0.26562,-0.125 -0.125,0 -0.21875,0.042969 -0.28125,0.125 -0.0625,0.085938 -0.09375,0.21094 -0.09375,0.375 0,0.15625 0.03125,0.28125 0.09375,0.375 0.0625,0.085938 0.15625,0.125 0.28125,0.125 z m -0.375,-1.1094 c 0.082031,-0.09375 0.16406,-0.16016 0.25,-0.20312 0.09375,-0.050781 0.20312,-0.078125 0.32812,-0.078125 0.20703,0 0.37891,0.085937 0.51562,0.25 0.13281,0.16797 0.20312,0.38281 0.20312,0.64062 0,0.26172 -0.070312,0.47656 -0.20312,0.64062 -0.13672,0.16797 -0.30859,0.25 -0.51562,0.25 -0.125,0 -0.23438,-0.023438 -0.32812,-0.0625 -0.085937,-0.050781 -0.16797,-0.12891 -0.25,-0.23438 v 0.25 H 0.26565 v -2.3594 H 0.7969 Z"
         id="path20" />
    </symbol>
    <symbol
       id="g"
       overflow="visible">
      <path
         d="m 0.03125,-1.7031 h 0.54688 l 0.45312,1.1562 0.39062,-1.1562 H 1.96875 L 1.25,0.1563 C 1.175781,0.3438 1.09375,0.47271 1,0.54692 0.90625,0.628951 0.78125,0.67192 0.625,0.67192 H 0.3125 V 0.31254 h 0.17188 c 0.09375,0 0.16016,-0.015625 0.20312,-0.046875 0.039062,-0.03125 0.070312,-0.085937 0.09375,-0.15625 L 0.796875,0.06254 Z"
         id="path23" />
    </symbol>
    <symbol
       id="e"
       overflow="visible">
      <path
         d="M 0.26562,-2.3594 H 0.79687 V 0 H 0.26562 Z"
         id="path26" />
    </symbol>
    <symbol
       id="t"
       overflow="visible">
      <path
         d="M 0.26562,-1.7031 H 0.79687 V 0 H 0.26562 Z m 0,-0.65625 h 0.53125 v 0.4375 H 0.26562 Z"
         id="path29" />
    </symbol>
    <symbol
       id="s"
       overflow="visible">
      <path
         d="M 1.4219,-0.28125 C 1.347681,-0.1875 1.26565,-0.11328 1.1719,-0.0625 1.07815,-0.019531 0.97268,0 0.8594,0 0.64846,0 0.47659,-0.078125 0.34378,-0.23438 0.20706,-0.39844 0.14066,-0.61329 0.14066,-0.875 c 0,-0.25 0.066406,-0.45312 0.20312,-0.60938 0.13281,-0.16406 0.30469,-0.25 0.51562,-0.25 0.11328,0 0.21875,0.027344 0.3125,0.078125 0.09375,0.042969 0.17578,0.10938 0.25,0.20312 v -0.25 h 0.54688 v 1.5312 c 0,0.26953 -0.089844,0.47656 -0.26562,0.625 -0.16797,0.14453 -0.41797,0.21875 -0.75,0.21875 -0.10547,0 -0.21094,-0.011719 -0.3125,-0.03125 C 0.54691,0.628846 0.44535,0.609315 0.34378,0.578065 v -0.42188 c 0.09375,0.050781 0.1875,0.085938 0.28125,0.10938 0.09375,0.03125 0.1875,0.046875 0.28125,0.046875 0.17578,0 0.30469,-0.042969 0.39062,-0.125 0.082031,-0.074219 0.125,-0.19141 0.125,-0.35938 z m -0.35938,-1.0625 c -0.11719,0 -0.20312,0.042969 -0.26562,0.125 -0.0625,0.085938 -0.09375,0.19922 -0.09375,0.34375 0,0.15625 0.03125,0.27734 0.09375,0.35938 0.0625,0.085937 0.14844,0.125 0.26562,0.125 0.11328,0 0.20312,-0.039063 0.26562,-0.125 0.0625,-0.082031 0.09375,-0.20312 0.09375,-0.35938 0,-0.14453 -0.03125,-0.25781 -0.09375,-0.34375 -0.0625,-0.082031 -0.15234,-0.125 -0.26562,-0.125 z"
         id="path32" />
    </symbol>
    <symbol
       id="r"
       overflow="visible">
      <path
         d="m 1.375,-2.3594 v 0.35938 H 1.07812 c -0.074219,0 -0.125,0.015625 -0.15625,0.046875 -0.03125,0.023437 -0.046875,0.070313 -0.046875,0.14062 v 0.10938 h 0.46875 v 0.39062 h -0.46875 v 1.3125 h -0.54688 v -1.3125 h -0.26562 v -0.39062 h 0.26562 v -0.10938 c 0,-0.1875 0.050781,-0.32031 0.15625,-0.40625 0.10156,-0.09375 0.26562,-0.14062 0.48438,-0.14062 z"
         id="path35" />
    </symbol>
    <symbol
       id="d"
       overflow="visible">
      <path
         d="m 1.0781,-1.3594 c -0.125,0 -0.21875,0.046875 -0.28125,0.14062 -0.0625,0.085938 -0.09375,0.21094 -0.09375,0.375 0,0.15625 0.03125,0.28125 0.09375,0.375 0.0625,0.085938 0.15625,0.125 0.28125,0.125 0.11328,0 0.20312,-0.039062 0.26562,-0.125 0.0625,-0.09375 0.09375,-0.21875 0.09375,-0.375 0,-0.16406 -0.03125,-0.28906 -0.09375,-0.375 C 1.28122,-1.31253 1.19138,-1.3594 1.0781,-1.3594 Z m 0,-0.375 c 0.28906,0 0.51562,0.078125 0.67188,0.23438 0.16406,0.15625 0.25,0.375 0.25,0.65625 0,0.28125 -0.085938,0.5 -0.25,0.65625 -0.15625,0.15625 -0.38281,0.23438 -0.67188,0.23438 -0.30469,0 -0.53906,-0.078125 -0.70312,-0.23438 -0.15625,-0.15625 -0.23438,-0.375 -0.23438,-0.65625 0,-0.28125 0.078125,-0.5 0.23438,-0.65625 C 0.53904,-1.65627 0.77342,-1.7344 1.0781,-1.7344 Z"
         id="path38" />
    </symbol>
    <symbol
       id="q"
       overflow="visible">
      <path
         d="m 1.8438,-1.4219 c 0.0625,-0.10156 0.14062,-0.17969 0.23438,-0.23438 0.09375,-0.050781 0.19531,-0.078125 0.3125,-0.078125 0.19531,0 0.34766,0.0625 0.45312,0.1875 0.10156,0.11719 0.15625,0.28906 0.15625,0.51562 v 1.0312 H 2.45317 v -0.89062 -0.03125 -0.0625 c 0,-0.125 -0.023437,-0.21094 -0.0625,-0.26562 C 2.35942,-1.300856 2.300826,-1.3282 2.21879,-1.3282 c -0.09375,0 -0.17188,0.042969 -0.23438,0.125 -0.054687,0.085937 -0.078125,0.21094 -0.078125,0.375 V -8e-5 H 1.359405 V -0.8907 c 0,-0.1875 -0.023437,-0.30469 -0.0625,-0.35938 -0.03125,-0.050781 -0.089844,-0.078125 -0.17188,-0.078125 -0.10547,0 -0.1875,0.042969 -0.25,0.125 C 0.820337,-1.117268 0.7969,-1.000085 0.7969,-0.843825 V -7.5e-5 H 0.26565 v -1.7031 H 0.7969 v 0.25 c 0.070313,-0.09375 0.14844,-0.16016 0.23438,-0.20312 0.09375,-0.050781 0.19141,-0.078125 0.29688,-0.078125 0.11328,0 0.21094,0.027344 0.29688,0.078125 0.09375,0.054688 0.16406,0.13281 0.21875,0.23438 z"
         id="path41" />
    </symbol>
    <symbol
       id="p"
       overflow="visible">
      <path
         d="M 1.9688,-1.0312 V 0 H 1.42192 v -0.79688 c 0,-0.14453 -0.00781,-0.24219 -0.015625,-0.29688 0,-0.050781 -0.011719,-0.09375 -0.03125,-0.125 -0.023438,-0.03125 -0.054688,-0.054688 -0.09375,-0.078125 -0.03125,-0.019531 -0.070312,-0.03125 -0.10938,-0.03125 -0.11719,0 -0.21094,0.046875 -0.28125,0.14062 -0.0625,0.085938 -0.09375,0.19922 -0.09375,0.34375 v 0.84375 h -0.53125 v -2.3594 h 0.53125 v 0.90625 c 0.082031,-0.09375 0.17188,-0.16016 0.26562,-0.20312 0.09375,-0.050781 0.19531,-0.078125 0.3125,-0.078125 0.19531,0 0.34375,0.0625 0.4375,0.1875 0.10156,0.11719 0.15625,0.28906 0.15625,0.51562 z"
         id="path44" />
    </symbol>
    <symbol
       id="o"
       overflow="visible">
      <path
         d="M 0.28125,-2.2656 H 0.9375 l 0.82812,1.5469 V -2.2656 H 2.3125 V 0 H 1.65625 L 0.84375,-1.5625 V 0 h -0.5625 z"
         id="path47" />
    </symbol>
    <symbol
       id="n"
       overflow="visible">
      <path
         d="m 0.25,-0.65625 v -1.0469 h 0.54688 v 0.17188 c 0,0.09375 -0.007813,0.21484 -0.015625,0.35938 v 0.26562 c 0,0.13672 0.003906,0.23438 0.015625,0.29688 0.007813,0.0625 0.019531,0.10547 0.03125,0.125 0.019531,0.042969 0.046875,0.074219 0.078125,0.09375 0.039062,0.011719 0.085938,0.015625 0.14062,0.015625 0.11328,0 0.20312,-0.039062 0.26562,-0.125 0.0625,-0.082031 0.09375,-0.20312 0.09375,-0.35938 v -0.84375 h 0.54688 v 1.7031 h -0.54688 v -0.25 c -0.085938,0.10547 -0.17188,0.18359 -0.26562,0.23438 -0.085937,0.039062 -0.18359,0.0625 -0.29688,0.0625 -0.19922,0 -0.35156,-0.054688 -0.45312,-0.17188 -0.09375,-0.125 -0.14062,-0.30078 -0.14062,-0.53125 z"
         id="path50" />
    </symbol>
    <symbol
       id="m"
       overflow="visible">
      <path
         d="M 1.9688,-1.0312 V 0 H 1.42192 v -0.79688 c 0,-0.14453 -0.00781,-0.24219 -0.015625,-0.29688 0,-0.050781 -0.011719,-0.09375 -0.03125,-0.125 -0.023438,-0.03125 -0.054688,-0.054688 -0.09375,-0.078125 -0.03125,-0.019531 -0.070312,-0.03125 -0.10938,-0.03125 -0.11719,0 -0.21094,0.046875 -0.28125,0.14062 -0.0625,0.085938 -0.09375,0.19922 -0.09375,0.34375 v 0.84375 h -0.53125 v -1.7031 h 0.53125 v 0.25 c 0.082031,-0.09375 0.17188,-0.16016 0.26562,-0.20312 0.09375,-0.050781 0.19531,-0.078125 0.3125,-0.078125 0.19531,0 0.34375,0.0625 0.4375,0.1875 0.10156,0.11719 0.15625,0.28906 0.15625,0.51562 z"
         id="path53" />
    </symbol>
    <symbol
       id="l"
       overflow="visible">
      <path
         d="M 0.28125,-2.2656 H 1.25 c 0.28906,0 0.51562,0.070313 0.67188,0.20312 0.15625,0.125 0.23438,0.30469 0.23438,0.53125 0,0.24219 -0.078125,0.42969 -0.23438,0.5625 -0.15625,0.125 -0.38281,0.1875 -0.67188,0.1875 H 0.875 V 2e-5 H 0.28125 Z M 0.875,-1.84372 v 0.64062 h 0.3125 c 0.11328,0 0.20312,-0.023437 0.26562,-0.078125 0.0625,-0.0625 0.09375,-0.14453 0.09375,-0.25 0,-0.09375 -0.03125,-0.16406 -0.09375,-0.21875 -0.0625,-0.0625 -0.15234,-0.09375 -0.26562,-0.09375 z"
         id="path56" />
    </symbol>
    <symbol
       id="k"
       overflow="visible">
      <path
         d="m 0.26562,-1.7031 h 0.53125 v 1.6719 c 0,0.22656 -0.054687,0.39844 -0.15625,0.51562 -0.10547,0.125 -0.26172,0.1875 -0.46875,0.1875 H -0.10938 V 0.31254 h 0.09375 c 0.10156,0 0.17578,-0.027344 0.21875,-0.078125 0.039063,-0.042969 0.0625,-0.13281 0.0625,-0.26562 z m 0,-0.65625 h 0.53125 v 0.4375 H 0.26562 Z"
         id="path59" />
    </symbol>
    <symbol
       id="j"
       overflow="visible">
      <path
         d="m 1.6406,-1.6406 v 0.4375 C 1.566381,-1.253881 1.48826,-1.289037 1.40622,-1.31248 1.332001,-1.34373 1.25778,-1.359355 1.18747,-1.359355 c -0.15625,0 -0.27734,0.046875 -0.35938,0.14062 -0.085937,0.085938 -0.125,0.21094 -0.125,0.375 0,0.15625 0.039063,0.28125 0.125,0.375 0.082031,0.085938 0.20312,0.125 0.35938,0.125 0.082031,0 0.16016,-0.007812 0.23438,-0.03125 0.070313,-0.03125 0.14453,-0.070312 0.21875,-0.125 v 0.45312 c -0.09375,0.03125 -0.18359,0.050781 -0.26562,0.0625 -0.085938,0.019531 -0.17188,0.03125 -0.26562,0.03125 -0.30469,0 -0.54297,-0.078125 -0.71875,-0.23438 -0.16797,-0.15625 -0.25,-0.375 -0.25,-0.65625 0,-0.28125 0.082031,-0.5 0.25,-0.65625 0.17578,-0.15625 0.41406,-0.23438 0.71875,-0.23438 0.09375,0 0.17969,0.011719 0.26562,0.03125 0.082031,0.011719 0.17188,0.03125 0.26562,0.0625 z"
         id="path62" />
    </symbol>
  </defs>
  <g
     id="g7134"
     transform="translate(-82.514023,-11.911916)"
     style="fill:#ffffff;fill-opacity:1">
    <path
       d="m 579.27,75.215 c -0.28125,-3.5664 -2.7266,-6.5234 -6.0703,-7.3555 l -219.9,-55.469 c -1.2422,-0.32031 -2.5859,-0.31641 -3.7969,-0.0039 l -219.92,55.473 c -3.3516,0.84375 -5.793,3.8008 -6.0742,7.3633 -0.0742,0.96094 -7.125,97.148 17.672,204.43 14.309,61.91 36.344,115 65.492,157.8 36.523,53.629 84.348,91.156 142.17,111.54 0.82422,0.28125 1.6797,0.42969 2.5469,0.42969 0.86719,0 1.7227,-0.14453 2.5742,-0.4375 57.793,-20.375 105.61,-57.898 142.14,-111.53 29.148,-42.801 51.18,-95.891 65.488,-157.8 24.809,-107.32 17.75,-203.48 17.676,-204.44 z M 351.4,532.395 C 130.44,452.004 136.64,133.395 139.1,82.485 L 351.4,28.93 563.69,82.485 c 2.4609,50.902 8.7148,369.5 -212.29,449.91 z m -0.84375,-480.64 c 0.55078,-0.14062 1.1328,-0.14062 1.6836,0 l 188.1,47.449 c 1.5781,0.39844 2.7031,1.8555 2.7188,3.5312 0.94531,76.68 -9.9727,332.5 -190.28,405.7 -0.008,0 -0.0117,0.008 -0.0156,0.008 -0.0273,0.0117 -0.0508,0.0234 -0.0781,0.0352 -0.41797,0.17188 -0.85547,0.25391 -1.2969,0.25391 -0.44141,0 -0.88281,-0.0898 -1.2969,-0.25391 -0.0273,-0.0117 -0.0508,-0.0234 -0.082,-0.0352 -0.004,0 -0.0117,-0.008 -0.0156,-0.008 -180.8,-73.332 -191.38,-329.06 -190.3,-405.7 0.0234,-1.6914 1.1367,-3.1328 2.7188,-3.5312 z"
       id="path67"
       style="fill:#ffffff;fill-opacity:1" />
  </g>
</svg>
