<?xml version="1.0" encoding="UTF-8" standalone="no"?>
<svg
   xmlns:dc="http://purl.org/dc/elements/1.1/"
   xmlns:cc="http://creativecommons.org/ns#"
   xmlns:rdf="http://www.w3.org/1999/02/22-rdf-syntax-ns#"
   xmlns:svg="http://www.w3.org/2000/svg"
   xmlns="http://www.w3.org/2000/svg"
   xmlns:sodipodi="http://sodipodi.sourceforge.net/DTD/sodipodi-0.dtd"
   xmlns:inkscape="http://www.inkscape.org/namespaces/inkscape"
   width="711"
   height="711"
   version="1.1"
   viewBox="0 0 533.25001 533.25001"
   id="svg164"
   sodipodi:docname="Emergency service.svg"
   inkscape:version="1.0.2 (e86c870879, 2021-01-15)"
   inkscape:export-filename="/home/marek/Downloads/Emergency service.png"
   inkscape:export-xdpi="27.004219"
   inkscape:export-ydpi="27.004219">
  <metadata
     id="metadata168">
    <rdf:RDF>
      <cc:Work
         rdf:about="">
        <dc:format>image/svg+xml</dc:format>
        <dc:type
           rdf:resource="http://purl.org/dc/dcmitype/StillImage" />
        <dc:title></dc:title>
      </cc:Work>
    </rdf:RDF>
  </metadata>
  <sodipodi:namedview
     pagecolor="#ffffff"
     bordercolor="#666666"
     borderopacity="1"
     objecttolerance="10"
     gridtolerance="10"
     guidetolerance="10"
     inkscape:pageopacity="0"
     inkscape:pageshadow="2"
     inkscape:window-width="1920"
     inkscape:window-height="990"
     id="namedview166"
     showgrid="false"
     inkscape:pagecheckerboard="true"
     units="px"
     inkscape:zoom="0.95428973"
     inkscape:cx="328.7538"
     inkscape:cy="383.9098"
     inkscape:window-x="0"
     inkscape:window-y="30"
     inkscape:window-maximized="1"
     inkscape:current-layer="svg164" />
  <defs
     id="defs62">
    <symbol
       id="t"
       overflow="visible">
      <path
         d="M 3.6562,-0.21875 C 3.4687,-0.125 3.26948,-0.05078 3.06245,0 2.86323,0.050781 2.6562,0.078125 2.43745,0.078125 c -0.66797,0 -1.1992,-0.17969 -1.5938,-0.54688 -0.38672,-0.375 -0.57812,-0.87891 -0.57812,-1.5156 0,-0.64453 0.19141,-1.1484 0.57812,-1.5156 0.39453,-0.375 0.92578,-0.5625 1.5938,-0.5625 0.21875,0 0.42578,0.027344 0.625,0.078125 0.20703,0.054687 0.40625,0.125 0.59375,0.21875 v 0.82812 c -0.1875,-0.125 -0.375,-0.21875 -0.5625,-0.28125 -0.17969,-0.0625 -0.37109,-0.09375 -0.57812,-0.09375 -0.36719,0 -0.65625,0.12109 -0.875,0.35938 -0.21094,0.23047 -0.3125,0.55469 -0.3125,0.96875 0,0.40625 0.10156,0.73047 0.3125,0.96875 0.21875,0.23047 0.50781,0.34375 0.875,0.34375 0.20703,0 0.39844,-0.023437 0.57812,-0.078125 0.1875,-0.0625 0.375,-0.16016 0.5625,-0.29688 z"
         id="path2" />
    </symbol>
    <symbol
       id="d"
       overflow="visible">
      <path
         d="M 2.6875,-2.1719 C 2.601562,-2.210963 2.51953,-2.242213 2.4375,-2.26565 2.351562,-2.285181 2.26953,-2.2969 2.1875,-2.2969 c -0.25,0 -0.44531,0.085937 -0.57812,0.25 -0.125,0.15625 -0.1875,0.38281 -0.1875,0.67188 V -2e-5 H 0.45313 v -2.9844 h 0.96875 v 0.48438 c 0.11328,-0.19531 0.25,-0.33594 0.40625,-0.42188 0.16406,-0.09375 0.35938,-0.14062 0.57812,-0.14062 h 0.10938 c 0.039063,0 0.09375,0.00781 0.15625,0.015625 z"
         id="path5" />
    </symbol>
    <symbol
       id="a"
       overflow="visible">
      <path
         d="m 3.4375,-1.5 v 0.26562 H 1.2031 c 0.03125,0.23047 0.11328,0.40234 0.25,0.51562 0.13281,0.10547 0.32812,0.15625 0.57812,0.15625 0.20703,0 0.41406,-0.023438 0.625,-0.078125 0.20703,-0.0625 0.42188,-0.15625 0.64062,-0.28125 v 0.73438 c -0.21875,0.09375 -0.44531,0.16406 -0.67188,0.20312 -0.23047,0.039062 -0.45312,0.0625 -0.67188,0.0625 -0.54297,0 -0.96484,-0.13281 -1.2656,-0.40625 -0.30469,-0.28125 -0.45312,-0.67188 -0.45312,-1.1719 0,-0.47656 0.14453,-0.85938 0.4375,-1.1406 0.30078,-0.28125 0.70703,-0.42188 1.2188,-0.42188 0.46875,0 0.84375,0.14062 1.125,0.42188 0.28125,0.28126 0.42188,0.66406 0.42188,1.1406 z M 2.46875,-1.82812 C 2.46875,-2.0039 2.410156,-2.14453 2.29687,-2.25 2.1914,-2.36328 2.05468,-2.42188 1.89062,-2.42188 c -0.1875,0 -0.33984,0.054687 -0.45312,0.15625 -0.11719,0.10547 -0.1875,0.25 -0.21875,0.4375 z"
         id="path8" />
    </symbol>
    <symbol
       id="l"
       overflow="visible">
      <path
         d="m 1.7969,-1.3438 c -0.19922,0 -0.35156,0.039062 -0.45312,0.10938 -0.09375,0.0625 -0.14062,0.16406 -0.14062,0.29688 0,0.11719 0.035156,0.21094 0.10938,0.28125 0.082031,0.0625 0.19531,0.09375 0.34375,0.09375 0.17578,0 0.32812,-0.0625 0.45312,-0.1875 0.125,-0.125 0.1875,-0.28516 0.1875,-0.48438 V -1.3438 Z M 3.2657,-1.70318 V -8e-5 H 2.29695 v -0.4375 c -0.125,0.17969 -0.27344,0.30859 -0.4375,0.39062 -0.15625,0.082031 -0.35156,0.125 -0.57812,0.125 -0.3125,0 -0.57031,-0.085938 -0.76562,-0.26562 -0.1875,-0.1875 -0.28125,-0.42188 -0.28125,-0.70312 0,-0.35156 0.11719,-0.61328 0.35938,-0.78125 0.23828,-0.16406 0.61719,-0.25 1.1406,-0.25 h 0.5625 v -0.0625 c 0,-0.15625 -0.0625,-0.26562 -0.1875,-0.32812 -0.11719,-0.070312 -0.29688,-0.10938 -0.54688,-0.10938 -0.21094,0 -0.40234,0.023437 -0.57812,0.0625 -0.17969,0.042969 -0.33984,0.10156 -0.48438,0.17188 v -0.71875 c 0.19531,-0.050781 0.39844,-0.085938 0.60938,-0.10938 0.20703,-0.03125 0.41406,-0.046875 0.625,-0.046875 0.53906,0 0.92969,0.10938 1.1719,0.32812 0.23828,0.21094 0.35938,0.55469 0.35938,1.0312 z"
         id="path11" />
    </symbol>
    <symbol
       id="c"
       overflow="visible">
      <path
         d="m 1.5,-3.8438 v 0.85938 h 0.98438 v 0.67188 H 1.5 v 1.2812 c 0,0.13672 0.023438,0.23047 0.078125,0.28125 0.0625,0.042969 0.17578,0.0625 0.34375,0.0625 h 0.48438 V -9e-5 h -0.8125 c -0.38672,0 -0.65625,-0.078125 -0.8125,-0.23438 -0.15625,-0.156255 -0.23438,-0.42188 -0.23438,-0.79688 v -1.2812 h -0.46875 v -0.67188 h 0.46875 v -0.85938 z"
         id="path14" />
    </symbol>
    <symbol
       id="f"
       overflow="visible">
      <path
         d="M 2.5,-2.5469 V -4.1563 H 3.45312 V -1e-4 H 2.5 v -0.4375 c -0.13672,0.17969 -0.28125,0.30859 -0.4375,0.39062 -0.15625,0.082031 -0.33984,0.125 -0.54688,0.125 -0.375,0 -0.68359,-0.14453 -0.92188,-0.4375 -0.23047,-0.28906 -0.34375,-0.67188 -0.34375,-1.1406 0,-0.45703 0.11328,-0.83203 0.34375,-1.125 0.23828,-0.28906 0.54688,-0.4375 0.92188,-0.4375 0.19531,0 0.375,0.042969 0.53125,0.125 0.16406,0.085938 0.31641,0.21484 0.45312,0.39062 z m -0.64062,1.9375 c 0.20703,0 0.36328,-0.070313 0.46875,-0.21875 0.11328,-0.15625 0.17188,-0.37891 0.17188,-0.67188 0,-0.28125 -0.058594,-0.49219 -0.17188,-0.64062 -0.10547,-0.15625 -0.26172,-0.23438 -0.46875,-0.23438 -0.19922,0 -0.35547,0.078125 -0.46875,0.23438 -0.10547,0.14844 -0.15625,0.35938 -0.15625,0.64062 0,0.29297 0.050781,0.51562 0.15625,0.67188 0.11328,0.14844 0.26953,0.21875 0.46875,0.21875 z"
         id="path17" />
    </symbol>
    <symbol
       id="k"
       overflow="visible">
      <path
         d="m 2.0469,-0.60938 c 0.20703,0 0.36328,-0.070313 0.46875,-0.21875 0.11328,-0.15625 0.17188,-0.37891 0.17188,-0.67188 0,-0.28125 -0.058594,-0.49219 -0.17188,-0.64062 -0.10547,-0.15625 -0.26172,-0.23438 -0.46875,-0.23438 -0.19922,0 -0.35547,0.078125 -0.46875,0.23438 -0.10547,0.14844 -0.15625,0.35938 -0.15625,0.64062 0,0.29297 0.050781,0.51562 0.15625,0.67188 0.11328,0.14844 0.26953,0.21875 0.46875,0.21875 z m -0.625,-1.9375 c 0.125,-0.17578 0.26562,-0.30469 0.42188,-0.39062 0.16406,-0.082031 0.35156,-0.125 0.5625,-0.125 0.36328,0 0.66406,0.14844 0.90625,0.4375 0.23828,0.29297 0.35938,0.66797 0.35938,1.125 0,0.46875 -0.12109,0.85156 -0.35938,1.1406 -0.24219,0.29297 -0.54297,0.4375 -0.90625,0.4375 -0.21094,0 -0.39844,-0.042969 -0.5625,-0.125 C 1.68753,-0.128931 1.5469,-0.25784 1.4219,-0.43752 V -2e-5 H 0.45315 v -4.1562 H 1.4219 Z"
         id="path20" />
    </symbol>
    <symbol
       id="j"
       overflow="visible">
      <path
         d="m 0.0625,-2.9844 h 0.95312 l 0.8125,2.0156 0.6875,-2.0156 H 3.46874 L 2.20314,0.2812 C 2.07814,0.61323 1.9297,0.84761 1.76564,0.98432 1.59767,1.11713 1.37502,1.18744 1.09376,1.18744 H 0.54688 V 0.54682 h 0.29688 c 0.16406,0 0.28516,-0.027344 0.35938,-0.078125 0.070313,-0.054688 0.12891,-0.14062 0.17188,-0.26562 l 0.03125,-0.09375 z"
         id="path23" />
    </symbol>
    <symbol
       id="e"
       overflow="visible">
      <path
         d="M 0.45312,-2.9844 H 1.42187 V 0 H 0.45312 Z m 0,-1.1719 h 0.96875 v 0.78125 H 0.45312 Z"
         id="path26" />
    </symbol>
    <symbol
       id="i"
       overflow="visible">
      <path
         d="m 2.875,-2.8906 v 0.76562 C 2.75,-2.207011 2.61719,-2.26951 2.48438,-2.31248 2.34766,-2.351542 2.21094,-2.37498 2.07813,-2.37498 c -0.27344,0 -0.48047,0.078125 -0.625,0.23438 -0.14844,0.15625 -0.21875,0.37109 -0.21875,0.64062 0,0.28125 0.070313,0.5 0.21875,0.65625 0.14453,0.15625 0.35156,0.23438 0.625,0.23438 0.14453,0 0.28516,-0.019531 0.42188,-0.0625 0.13281,-0.039063 0.25781,-0.10938 0.375,-0.20312 v 0.78125 c -0.14844,0.0625 -0.29688,0.10156 -0.45312,0.125 -0.15625,0.03125 -0.3125,0.046875 -0.46875,0.046875 -0.54297,0 -0.96484,-0.13281 -1.2656,-0.40625 -0.30469,-0.28125 -0.45312,-0.67188 -0.45312,-1.1719 0,-0.48828 0.14844,-0.86719 0.45312,-1.1406 0.30078,-0.28125 0.72266,-0.42188 1.2656,-0.42188 0.15625,0 0.3125,0.015625 0.46875,0.046875 0.15625,0.023437 0.30469,0.0625 0.45312,0.125 z"
         id="path29" />
    </symbol>
    <symbol
       id="b"
       overflow="visible">
      <path
         d="m 1.875,-2.375 c -0.21094,0 -0.37109,0.078125 -0.48438,0.23438 -0.10547,0.14844 -0.15625,0.35938 -0.15625,0.64062 0,0.29297 0.050781,0.51562 0.15625,0.67188 0.11328,0.14844 0.27344,0.21875 0.48438,0.21875 0.20703,0 0.36719,-0.070313 0.48438,-0.21875 C 2.47266,-0.98437 2.53126,-1.20703 2.53126,-1.5 2.53126,-1.78125 2.472666,-1.99219 2.35938,-2.14062 2.24219,-2.29687 2.08204,-2.375 1.875,-2.375 Z m 0,-0.6875 c 0.51953,0 0.92188,0.14062 1.2031,0.42188 0.28906,0.27344 0.4375,0.65234 0.4375,1.1406 0,0.5 -0.14844,0.89062 -0.4375,1.1719 C 2.79685,-0.05468 2.39451,0.07813 1.875,0.07813 1.36328,0.07813 0.96094,-0.05468 0.6719,-0.32812 0.37893,-0.60937 0.2344,-1 0.2344,-1.50002 c 0,-0.48828 0.14453,-0.86719 0.4375,-1.1406 C 0.96096,-2.92187 1.36331,-3.0625 1.875,-3.0625 Z"
         id="path32" />
    </symbol>
    <symbol
       id="h"
       overflow="visible">
      <path
         d="M 3.4688,-1.8281 V 0 H 2.50005 v -1.3906 c 0,-0.25781 -0.00781,-0.4375 -0.015625,-0.53125 -0.011719,-0.10156 -0.03125,-0.17578 -0.0625,-0.21875 -0.03125,-0.0625 -0.085937,-0.10938 -0.15625,-0.14062 -0.0625,-0.039062 -0.13281,-0.0625 -0.20312,-0.0625 -0.21094,0 -0.37109,0.078125 -0.48438,0.23438 -0.10547,0.15625 -0.15625,0.37109 -0.15625,0.64062 V 8e-5 h -0.96875 v -2.9844 h 0.96875 v 0.4375 c 0.13281,-0.17578 0.28516,-0.30469 0.45312,-0.39062 0.16406,-0.082031 0.34375,-0.125 0.53125,-0.125 0.34375,0 0.60156,0.10938 0.78125,0.32812 0.1875,0.21094 0.28125,0.51172 0.28125,0.90625 z"
         id="path35" />
    </symbol>
    <symbol
       id="g"
       overflow="visible">
      <path
         d="m 2.4219,-4.1562 v 0.625 H 1.90628 c -0.13672,0 -0.23438,0.027344 -0.29688,0.078125 -0.054687,0.054687 -0.078125,0.13672 -0.078125,0.25 v 0.21875 h 0.82812 v 0.67188 h -0.82812 v 2.3125 h -0.95312 v -2.3125 h -0.46875 v -0.67188 h 0.46875 v -0.21875 c 0,-0.32031 0.085937,-0.5625 0.26562,-0.71875 0.1875,-0.15625 0.47266,-0.23438 0.85938,-0.23438 z"
         id="path38" />
    </symbol>
    <symbol
       id="s"
       overflow="visible">
      <path
         d="M 0.45312,-4.1562 H 1.42187 V 0 H 0.45312 Z"
         id="path41" />
    </symbol>
    <symbol
       id="r"
       overflow="visible">
      <path
         d="m 3.2344,-2.5 c 0.11328,-0.17578 0.25391,-0.3125 0.42188,-0.40625 0.16406,-0.10156 0.35156,-0.15625 0.5625,-0.15625 0.33203,0 0.58594,0.10938 0.76562,0.32812 0.1875,0.21094 0.28125,0.51172 0.28125,0.90625 V -3e-5 H 4.2969 v -1.5625 c 0.00781,-0.019531 0.015625,-0.039062 0.015625,-0.0625 v -0.10938 c 0,-0.21875 -0.03125,-0.375 -0.09375,-0.46875 -0.0625,-0.09375 -0.16406,-0.14062 -0.29688,-0.14062 -0.1875,0 -0.33594,0.078125 -0.4375,0.23438 -0.09375,0.14844 -0.14062,0.35938 -0.14062,0.64062 V 2e-5 h -0.96875 v -1.5625 c 0,-0.33203 -0.03125,-0.54688 -0.09375,-0.64062 -0.054688,-0.09375 -0.15234,-0.14062 -0.29688,-0.14062 -0.17969,0 -0.32031,0.078125 -0.42188,0.23438 -0.09375,0.14844 -0.14062,0.35938 -0.14062,0.64062 V 8e-5 h -0.96875 v -2.9844 h 0.96875 v 0.4375 c 0.11328,-0.17578 0.24219,-0.30469 0.39062,-0.39062 0.15625,-0.082031 0.32812,-0.125 0.51562,-0.125 0.20703,0 0.39062,0.054688 0.54688,0.15625 0.15625,0.09375 0.27344,0.23047 0.35938,0.40625 z"
         id="path44" />
    </symbol>
    <symbol
       id="q"
       overflow="visible">
      <path
         d="M 3.4688,-1.8281 V 0 H 2.50005 v -1.3906 c 0,-0.25781 -0.00781,-0.4375 -0.015625,-0.53125 -0.011719,-0.10156 -0.03125,-0.17578 -0.0625,-0.21875 -0.03125,-0.0625 -0.085937,-0.10938 -0.15625,-0.14062 -0.0625,-0.039062 -0.13281,-0.0625 -0.20312,-0.0625 -0.21094,0 -0.37109,0.078125 -0.48438,0.23438 -0.10547,0.15625 -0.15625,0.37109 -0.15625,0.64062 V 8e-5 h -0.96875 v -4.1562 h 0.96875 v 1.6094 c 0.13281,-0.17578 0.28516,-0.30469 0.45312,-0.39062 0.16406,-0.082031 0.34375,-0.125 0.53125,-0.125 0.34375,0 0.60156,0.10938 0.78125,0.32812 0.1875,0.21094 0.28125,0.51172 0.28125,0.90625 z"
         id="path47" />
    </symbol>
    <symbol
       id="p"
       overflow="visible">
      <path
         d="M 0.5,-3.9844 H 1.6562 L 3.0937,-1.25 V -3.9844 H 4.07808 V 0 H 2.92188 L 1.48438,-2.7344 V 0 H 0.5 Z"
         id="path50" />
    </symbol>
    <symbol
       id="o"
       overflow="visible">
      <path
         d="m 0.42188,-1.1719 v -1.8125 h 0.96875 v 0.29688 0.60938 0.48438 c 0,0.24219 0.00391,0.41797 0.015625,0.53125 0.00781,0.10547 0.03125,0.17969 0.0625,0.21875 0.039062,0.0625 0.09375,0.11719 0.15625,0.15625 0.0625,0.03125 0.13281,0.046875 0.21875,0.046875 0.19531,0 0.35156,-0.078125 0.46875,-0.23438 0.11328,-0.15625 0.17188,-0.36719 0.17188,-0.64062 v -1.4688 h 0.95312 v 2.9844 h -0.95312 v -0.4375 c -0.14844,0.17969 -0.30469,0.30859 -0.46875,0.39062 -0.15625,0.082031 -0.33594,0.125 -0.53125,0.125 -0.34375,0 -0.60938,-0.10156 -0.79688,-0.3125 -0.17969,-0.21875 -0.26562,-0.53125 -0.26562,-0.9375 z"
         id="path53" />
    </symbol>
    <symbol
       id="n"
       overflow="visible">
      <path
         d="m 0.5,-3.9844 h 1.7031 c 0.50781,0 0.89844,0.11719 1.1719,0.34375 0.26953,0.21875 0.40625,0.53906 0.40625,0.95312 0,0.41797 -0.13672,0.74219 -0.40625,0.96875 -0.27344,0.21875 -0.66406,0.32812 -1.1719,0.32812 H 1.53122 V -6e-5 h -1.0312 z m 1.0312,0.75 v 1.1094 h 0.5625 c 0.19531,0 0.34766,-0.046875 0.45312,-0.14062 C 2.6601,-2.36718 2.7187,-2.50781 2.7187,-2.6875 2.7187,-2.86328 2.660106,-3 2.54682,-3.09375 2.44135,-3.1875 2.28901,-3.23437 2.0937,-3.23437 Z"
         id="path56" />
    </symbol>
    <symbol
       id="m"
       overflow="visible">
      <path
         d="m 0.45312,-2.9844 h 0.96875 v 2.9375 c 0,0.39453 -0.10156,0.69531 -0.29688,0.90625 C 0.93749,1.0781 0.66015,1.18747 0.29687,1.18747 H -0.18751 V 0.54685 h 0.17188 c 0.17578,0 0.29688,-0.042969 0.35938,-0.125 C 0.414062,0.347631 0.45313,0.19138 0.45313,-0.0469 Z m 0,-1.1719 h 0.96875 v 0.78125 H 0.45312 Z"
         id="path59" />
    </symbol>
  </defs>
  <g
     id="g1055"
     transform="translate(-83.371895,-13.37839)">
    <path
       d="m 430.13,127.32 h 43.043 c 3.2422,0 5.8672,3.2422 5.8672,5.8672 v 40.355 c 0,3.2422 -2.6289,5.8672 -5.8672,5.8672 H 430.13 c -3.2422,0 -5.8672,-3.2422 -5.8672,-5.8672 v -40.355 c 0,-3.2422 2.6289,-5.8672 5.8672,-5.8672 z"
       id="path64"
       style="fill:#ffffff;fill-opacity:1" />
    <path
       d="m 430.13,198.38 h 43.043 c 3.2422,0 5.8672,3.2422 5.8672,5.8672 v 40.355 c 0,3.2422 -2.6289,5.8672 -5.8672,5.8672 H 430.13 c -3.2422,0 -5.8672,-3.2422 -5.8672,-5.8672 v -40.355 c 0,-3.2422 2.6289,-5.8672 5.8672,-5.8672 z"
       id="path66"
       style="fill:#ffffff;fill-opacity:1" />
    <path
       d="m 430.13,270.13 h 43.043 c 3.2422,0 5.8672,3.2422 5.8672,5.8672 v 40.355 c 0,3.2422 -2.6289,5.8672 -5.8672,5.8672 H 430.13 c -3.2422,0 -5.8672,-3.2422 -5.8672,-5.8672 v -40.355 c 0,-3.2422 2.6289,-5.8672 5.8672,-5.8672 z"
       id="path68"
       style="fill:#ffffff;fill-opacity:1" />
    <path
       d="m 430.13,341.88 h 43.043 c 3.2422,0 5.8672,3.2422 5.8672,5.8672 v 40.355 c 0,3.2422 -2.6289,5.8672 -5.8672,5.8672 H 430.13 c -3.2422,0 -5.8672,-3.2422 -5.8672,-5.8672 v -40.355 c 0,-3.2422 2.6289,-5.8672 5.8672,-5.8672 z"
       id="path70"
       style="fill:#ffffff;fill-opacity:1" />
    <path
       d="m 430.13,413.63 h 43.043 c 3.2422,0 5.8672,3.2422 5.8672,5.8672 v 40.355 c 0,3.2422 -2.6289,5.8672 -5.8672,5.8672 H 430.13 c -3.2422,0 -5.8672,-3.2422 -5.8672,-5.8672 v -40.355 c 0,-3.2422 2.6289,-5.8672 5.8672,-5.8672 z"
       id="path72"
       style="fill:#ffffff;fill-opacity:1" />
    <path
       d="m 500.14,127.32 h 43.043 c 3.2422,0 5.8672,3.2422 5.8672,5.8672 v 40.355 c 0,3.2422 -2.6289,5.8672 -5.8672,5.8672 H 500.14 c -3.2422,0 -5.8672,-3.2422 -5.8672,-5.8672 v -40.355 c 0,-3.2422 2.6289,-5.8672 5.8672,-5.8672 z"
       id="path74"
       style="fill:#ffffff;fill-opacity:1" />
    <path
       d="m 500.14,198.38 h 43.043 c 3.2422,0 5.8672,3.2422 5.8672,5.8672 v 40.355 c 0,3.2422 -2.6289,5.8672 -5.8672,5.8672 H 500.14 c -3.2422,0 -5.8672,-3.2422 -5.8672,-5.8672 v -40.355 c 0,-3.2422 2.6289,-5.8672 5.8672,-5.8672 z"
       id="path76"
       style="fill:#ffffff;fill-opacity:1" />
    <path
       d="m 500.14,270.13 h 43.043 c 3.2422,0 5.8672,3.2422 5.8672,5.8672 v 40.355 c 0,3.2422 -2.6289,5.8672 -5.8672,5.8672 H 500.14 c -3.2422,0 -5.8672,-3.2422 -5.8672,-5.8672 v -40.355 c 0,-3.2422 2.6289,-5.8672 5.8672,-5.8672 z"
       id="path78"
       style="fill:#ffffff;fill-opacity:1" />
    <path
       d="m 500.14,341.88 h 43.043 c 3.2422,0 5.8672,3.2422 5.8672,5.8672 v 40.355 c 0,3.2422 -2.6289,5.8672 -5.8672,5.8672 H 500.14 c -3.2422,0 -5.8672,-3.2422 -5.8672,-5.8672 v -40.355 c 0,-3.2422 2.6289,-5.8672 5.8672,-5.8672 z"
       id="path80"
       style="fill:#ffffff;fill-opacity:1" />
    <path
       d="m 500.14,413.63 h 43.043 c 3.2422,0 5.8672,3.2422 5.8672,5.8672 v 40.355 c 0,3.2422 -2.6289,5.8672 -5.8672,5.8672 H 500.14 c -3.2422,0 -5.8672,-3.2422 -5.8672,-5.8672 v -40.355 c 0,-3.2422 2.6289,-5.8672 5.8672,-5.8672 z"
       id="path82"
       style="fill:#ffffff;fill-opacity:1" />
    <path
       d="m 325.36,153.8 h -25.602 c -1.1562,0 -2.0898,-0.9375 -2.0898,-2.0898 v -25.602 c 0,-4.6758 -3.793,-8.4688 -8.4688,-8.4688 h -36.312 c -4.6758,0 -8.4688,3.793 -8.4688,8.4688 v 25.602 c 0,1.1562 -0.9375,2.0898 -2.0898,2.0898 h -25.602 c -4.6758,0 -8.4688,3.793 -8.4688,8.4688 v 36.312 c 0,4.6758 3.793,8.4688 8.4688,8.4688 h 25.602 c 1.1562,0 2.0898,0.9375 2.0898,2.0898 v 25.602 c 0,4.6758 3.793,8.4688 8.4688,8.4688 h 36.312 c 4.6758,0 8.4688,-3.793 8.4688,-8.4688 v -25.602 c 0,-1.1562 0.9375,-2.0898 2.0898,-2.0898 h 25.602 c 4.6758,0 8.4688,-3.793 8.4688,-8.4688 v -36.312 c 0,-4.6758 -3.793,-8.4688 -8.4688,-8.4688 z"
       id="path84"
       style="fill:#ffffff;fill-opacity:1" />
    <path
       d="m 309.86,458.69 h -77.637 c -3.8945,0 -7.0547,3.1562 -7.0547,7.0547 v 76.762 h 91.742 v -76.762 c 0,-3.8945 -3.1562,-7.0547 -7.0547,-7.0547 z m -34.988,66.812 c 0,2.1133 -1.7148,3.8281 -3.8281,3.8281 -2.1133,0 -3.8281,-1.7148 -3.8281,-3.8281 V 475.69 c 0,-2.1133 1.7148,-3.8281 3.8281,-3.8281 2.1133,0 3.8281,1.7148 3.8281,3.8281 z"
       id="path86"
       style="fill:#ffffff;fill-opacity:1" />
    <path
       d="M 595.07,538.67 H 405.02 V 106.46 h 158.49 c 2.6328,0 4.7734,2.1406 4.7734,4.7734 v 412.96 c 0,2.1133 1.7148,3.8281 3.8281,3.8281 2.1133,0 3.8281,-1.7148 3.8281,-3.8281 v -412.96 c 0,-6.8555 -5.5742,-12.43 -12.43,-12.43 h -158.49 v -39.934 h 4.1875 c 4.8555,0 8.8086,-3.9492 8.8086,-8.8047 l -0.004,-27.582 c 0,-4.8555 -3.9492,-8.8086 -8.8086,-8.8086 h -276.34 c -4.8555,0 -8.8047,3.9492 -8.8047,8.8086 v 27.582 c 0,4.8555 3.9492,8.8047 8.8047,8.8047 h 264.5 v 33.828 h -25.957 c -2.1133,0 -3.8281,1.7148 -3.8281,3.8281 0,2.1133 1.7148,3.8281 3.8281,3.8281 h 25.957 v 56.582 h -25.957 c -2.1133,0 -3.8281,1.7148 -3.8281,3.8281 0,2.1133 1.7148,3.8281 3.8281,3.8281 h 25.957 v 56.578 h -25.957 c -2.1133,0 -3.8281,1.7148 -3.8281,3.8281 0,2.1133 1.7148,3.8281 3.8281,3.8281 h 25.957 v 56.582 h -25.957 c -2.1133,0 -3.8281,1.7148 -3.8281,3.8281 0,2.1133 1.7148,3.8281 3.8281,3.8281 h 25.957 v 56.582 h -25.957 c -2.1133,0 -3.8281,1.7148 -3.8281,3.8281 0,2.1133 1.7148,3.8281 3.8281,3.8281 h 25.957 v 181.38 h -34.074 v -101.98 h 7.6094 c 3.8984,0 7.0742,-3.1719 7.0742,-7.0742 v -17.871 c 0,-3.8984 -3.1719,-7.0742 -7.0742,-7.0742 h -199.73 c -3.8984,0 -7.0703,3.1719 -7.0703,7.0742 v 17.871 c 0,3.8984 3.1719,7.0742 7.0703,7.0742 h 7.6094 v 86.039 c 0,2.1133 1.7148,3.8281 3.8281,3.8281 2.1133,0 3.8281,-1.7148 3.8281,-3.8281 v -86.039 h 169.2 v 101.98 l -210.93,-0.004 v -181.38 h 25.957 c 2.1133,0 3.8281,-1.7148 3.8281,-3.8281 0,-2.1133 -1.7148,-3.8281 -3.8281,-3.8281 h -25.957 v -56.582 h 25.957 c 2.1133,0 3.8281,-1.7148 3.8281,-3.8281 0,-2.1133 -1.7148,-3.8281 -3.8281,-3.8281 h -25.957 v -56.582 h 25.957 c 2.1133,0 3.8281,-1.7148 3.8281,-3.8281 0,-2.1133 -1.7148,-3.8281 -3.8281,-3.8281 h -25.957 v -56.578 h 25.957 c 2.1133,0 3.8281,-1.7148 3.8281,-3.8281 0,-2.1133 -1.7148,-3.8281 -3.8281,-3.8281 h -25.957 v -56.582 h 25.957 c 2.1133,0 3.8281,-1.714796 3.8281,-3.828096 0,-2.1133 -1.7148,-3.8281 -3.8281,-3.8281 h -25.957 v -17.867 c 0,-2.1133 -1.7148,-3.8281 -3.8281,-3.8281 -2.1133,0 -3.8281,1.7148 -3.8281,3.8281 V 538.67649 h -32.121 c -2.1133,0 -3.8281,1.7148 -3.8281,3.8281 0,2.1133 1.7148,3.8281 3.8281,3.8281 h 490.14 c 2.1133,0 3.8281,-1.7148 3.8281,-3.8281 0,-2.1133 -1.7148,-3.8281 -3.8281,-3.8281 z M 410.36,22.48 v 27.582 c 0,0.63281 -0.51562,1.1484 -1.1523,1.1484 h -42.555 c 11.359,-5.5781 19.492,-16.723 20.824,-29.883 h 21.73 c 0.63281,0 1.1523,0.51562 1.1523,1.1523 z m -40.043,406.55 h -22.113 c 5.7461,-3.6758 9.8516,-9.6875 10.957,-16.703 h 11.156 z"
       id="path88"
       style="fill:#ffffff;fill-opacity:1" />
  </g>
</svg>
