<?xml version="1.0" encoding="UTF-8" standalone="no"?>
<svg
   xmlns:dc="http://purl.org/dc/elements/1.1/"
   xmlns:cc="http://creativecommons.org/ns#"
   xmlns:rdf="http://www.w3.org/1999/02/22-rdf-syntax-ns#"
   xmlns:svg="http://www.w3.org/2000/svg"
   xmlns="http://www.w3.org/2000/svg"
   xmlns:sodipodi="http://sodipodi.sourceforge.net/DTD/sodipodi-0.dtd"
   xmlns:inkscape="http://www.inkscape.org/namespaces/inkscape"
   width="606"
   height="606"
   version="1.1"
   viewBox="0 0 454.50001 454.50001"
   id="svg276"
   sodipodi:docname="Endurance.svg"
   inkscape:export-filename="/home/marek/Downloads/Endurance.png"
   inkscape:export-xdpi="7.9207921"
   inkscape:export-ydpi="7.9207921"
   inkscape:version="1.0.2 (e86c870879, 2021-01-15)">
  <metadata
     id="metadata282">
    <rdf:RDF>
      <cc:Work
         rdf:about="">
        <dc:format>image/svg+xml</dc:format>
        <dc:type
           rdf:resource="http://purl.org/dc/dcmitype/StillImage" />
        <dc:title></dc:title>
      </cc:Work>
    </rdf:RDF>
  </metadata>
  <defs
     id="defs280" />
  <sodipodi:namedview
     pagecolor="#ffffff"
     bordercolor="#666666"
     borderopacity="1"
     objecttolerance="10"
     gridtolerance="10"
     guidetolerance="10"
     inkscape:pageopacity="0"
     inkscape:pageshadow="2"
     inkscape:window-width="1920"
     inkscape:window-height="990"
     id="namedview278"
     showgrid="false"
     inkscape:pagecheckerboard="true"
     units="px"
     inkscape:zoom="0.31403117"
     inkscape:cx="334.08106"
     inkscape:cy="687.56995"
     inkscape:window-x="0"
     inkscape:window-y="30"
     inkscape:window-maximized="1"
     inkscape:current-layer="svg276" />
  <g
     id="g274"
     transform="translate(-122.7472,-52.748895)"
     style="fill:#ffffff;fill-opacity:1">
    <path
       d="m 559.04,190.48 c -3.8281,-8.8867 -14.152,-12.93 -22.992,-9.1602 -8.8867,3.8164 -12.988,14.102 -9.1836,22.988 53.371,124.66 -41.285,268.19 -176.87,268.19 -51.406,0 -99.715,-20.051 -136.01,-56.465 -10.176,-10.176 -28.434,-3.6484 -29.895,10.676 -0.0195,0.1875 -4.582,44.922 -4.582,44.922 -0.98047,9.6172 6.0156,18.207 15.633,19.188 9.957,0.89063 18.207,-6.0156 19.188,-15.633 l 1.2031,-11.734 c 39.77,29.359 87.184,43.59 134.46,43.414 160.52,-0.58594 272.64,-168.43 209.05,-316.38 z"
       id="path268"
       style="fill:#ffffff;fill-opacity:1" />
    <path
       d="m 350,87.5 c 51.406,0 99.715,20.051 136.01,56.465 10.176,10.176 28.434,3.6484 29.895,-10.676 0.0195,-0.1875 4.582,-44.922 4.582,-44.922 0.98047,-9.6172 -6.0156,-18.207 -15.633,-19.188 -9.957,-0.89063 -18.207,6.0156 -19.188,15.633 l -1.2031,11.734 c -39.77,-29.359 -87.184,-43.59 -134.46,-43.414 -160.52,0.58594 -272.64,168.43 -209.05,316.38 3.8281,8.8867 14.152,12.93 22.992,9.1602 8.8867,-3.8164 12.988,-14.105 9.1836,-22.992 -53.371,-124.66 41.285,-268.18 176.87,-268.18 z"
       id="path270"
       style="fill:#ffffff;fill-opacity:1" />
    <path
       d="m 199.5,334.6 c 0,0 27.922,48.16 28,48.301 8.5859,14.809 28.281,20.309 43.176,11.66 8.7773,-5.0547 19.824,1.4414 19.824,11.438 0,17.27 14.234,31.5 31.5,31.5 h 56 c 17.266,0 31.5,-14.234 31.5,-31.508 0.004,-9.8359 11.312,-16.539 19.832,-11.43 14.863,8.9141 34.641,3.0312 43.168,-11.664 0,0 27.98,-48.266 28,-48.301 8.75,-15.09 2.9844,-34.375 -11.668,-43.168 -8.6172,-5.1758 -8.5391,-17.738 0,-22.863 14.633,-8.7852 20.074,-28.23 11.672,-43.172 0,0 -27.969,-48.25 -28,-48.301 -8.4258,-14.535 -28.066,-20.434 -43.172,-11.664 -8.8008,5.0742 -19.828,-1.4023 -19.828,-11.438 0,-17.266 -14.234,-31.5 -31.5,-31.5 h -56 c -17.266,0 -31.5,14.234 -31.5,31.504 -0.008,10.129 -11.113,16.473 -19.836,11.441 -14.816,-8.5469 -34.789,-3.2305 -43.168,11.668 0,0 -27.973,48.25 -28,48.301 -8.6406,14.902 -3.0508,34.617 11.668,43.168 8.375,4.8633 8.6758,17.656 0,22.863 -14.793,8.8789 -20.219,27.965 -11.668,43.164 z M 350,204.17 c 41.766,0 75.832,34.066 75.832,75.832 0,41.766 -34.066,75.832 -75.832,75.832 -41.766,0 -75.832,-34.066 -75.832,-75.832 0,-41.77 34.066,-75.832 75.832,-75.832 z"
       id="path272"
       style="fill:#ffffff;fill-opacity:1" />
  </g>
</svg>
