<?xml version="1.0" encoding="UTF-8" standalone="no"?>
<svg
   xmlns:dc="http://purl.org/dc/elements/1.1/"
   xmlns:cc="http://creativecommons.org/ns#"
   xmlns:rdf="http://www.w3.org/1999/02/22-rdf-syntax-ns#"
   xmlns:svg="http://www.w3.org/2000/svg"
   xmlns="http://www.w3.org/2000/svg"
   xmlns:sodipodi="http://sodipodi.sourceforge.net/DTD/sodipodi-0.dtd"
   xmlns:inkscape="http://www.inkscape.org/namespaces/inkscape"
   width="636"
   height="636"
   version="1.1"
   viewBox="0 0 477.00001 477.00001"
   id="svg8"
   sodipodi:docname="Frontier Hunter.svg"
   inkscape:version="1.0.2 (e86c870879, 2021-01-15)"
   inkscape:export-filename="/home/marek/Downloads/Frontier Hunter.png"
   inkscape:export-xdpi="30.188679"
   inkscape:export-ydpi="30.188679">
  <metadata
     id="metadata14">
    <rdf:RDF>
      <cc:Work
         rdf:about="">
        <dc:format>image/svg+xml</dc:format>
        <dc:type
           rdf:resource="http://purl.org/dc/dcmitype/StillImage" />
        <dc:title></dc:title>
      </cc:Work>
    </rdf:RDF>
  </metadata>
  <defs
     id="defs12" />
  <sodipodi:namedview
     pagecolor="#ffffff"
     bordercolor="#666666"
     borderopacity="1"
     objecttolerance="10"
     gridtolerance="10"
     guidetolerance="10"
     inkscape:pageopacity="0"
     inkscape:pageshadow="2"
     inkscape:window-width="1920"
     inkscape:window-height="990"
     id="namedview10"
     showgrid="false"
     inkscape:pagecheckerboard="true"
     units="px"
     inkscape:zoom="0.62806234"
     inkscape:cx="385.94124"
     inkscape:cy="533.17717"
     inkscape:window-x="0"
     inkscape:window-y="30"
     inkscape:window-maximized="1"
     inkscape:current-layer="svg8" />
  <g
     id="g843"
     transform="translate(-111.52263,-41.498412)">
    <path
       d="m 561.16,444.88 c -1.3906,-9.7031 -5.4023,-18.848 -11.594,-26.445 -6.1953,-7.6016 -14.34,-13.371 -23.566,-16.695 l -52.941,-21.578 v -9.8398 c 0,-3.9961 -1.625,-7.8242 -4.5,-10.602 l -40.441,-39.078 h 0.004 c 10.984,-15.363 19.016,-32.637 23.68,-50.941 0.23047,-1.0312 0.34375,-2.082 0.33984,-3.1406 v -14.199 c 9.8711,-11.672 16.254,-25.887 18.418,-41.02 -0.0508,-5.332 -1.4219,-10.57 -4,-15.238 l 2.5391,0.46094 0.004,-0.004 c 0.86719,0.16406 1.7539,0.24219 2.6367,0.24219 3.6328,0 7.1367,-1.3398 9.8398,-3.7617 8.543,-8.1719 13.438,-19.438 13.582,-31.258 -0.88281,-16.457 -8.8945,-31.711 -21.941,-41.781 -34,-30.460996 -123.8,-71.058996 -129.28,-73.397996 -2.5,-0.80078 -61.262,-18.559 -89.801,20.281 l -25.816,33.335996 c -0.41016,0.52734 -0.78516,1.082 -1.1211,1.6602 -9.207,15.461 -11.656,34.023 -6.7773,51.34 4.6602,10.398 11.82,19.48 20.84,26.441 -7.6445,6.8203 -12.223,16.43 -12.703,26.66 2.3242,15.578 8.9922,30.184 19.242,42.141 v 18 c 0,1.0547 0.11328,2.1094 0.33984,3.1406 4.6562,18.305 12.688,35.578 23.68,50.938 l -40.422,39.16 c -2.8711,2.7773 -4.4961,6.6055 -4.5,10.602 v 8.7812 l -51.637,22.18 c -9.4961,3.2188 -17.918,8.9922 -24.344,16.688 -6.4258,7.6953 -10.605,17.016 -12.078,26.93 -0.11719,0.76172 -0.17969,1.5312 -0.17969,2.3008 v 56.18 c 0,5.2734 2.8125,10.148 7.3789,12.781 4.5664,2.6367 10.195,2.6367 14.762,0 4.5664,-2.6328 7.3789,-7.5078 7.3789,-12.781 v -54.898 c 0.86328,-4.4883 2.9062,-8.6641 5.9219,-12.098 3.0195,-3.4297 6.8984,-5.9922 11.238,-7.4219 l 41.559,-17.801 v 42 c 0.008,3.7773 1.4648,7.4062 4.0625,10.145 2.6016,2.7383 6.1523,4.3789 9.9219,4.582 3.7695,0.20312 7.4766,-1.043 10.355,-3.4883 l 60.281,-51.441 v 0.004 c 6.6094,6.3047 14.594,10.996 23.32,13.699 v 74.398 c 0,5.2734 2.8125,10.148 7.3789,12.785 4.5664,2.637 10.195,2.6367 14.762,0 4.5664,-2.6367 7.3789,-7.5117 7.3789,-12.785 v -74 c 9.0781,-2.6602 17.383,-7.4609 24.219,-14 l 60.238,51.398 0.004,0.004 c 2.875,2.457 6.582,3.7148 10.359,3.5156 3.7734,-0.19922 7.3281,-1.8438 9.9258,-4.5898 2.6016,-2.7461 4.043,-6.3867 4.0352,-10.168 v -41.199 l 43.102,17.539 h -0.004 c 8.1367,3.1914 14.047,10.352 15.641,18.941 v 54.898 c 0,5.2695 2.8125,10.141 7.375,12.773 4.5664,2.6367 10.188,2.6367 14.75,0 4.5664,-2.6328 7.375,-7.5039 7.375,-12.773 v -56.199 c -0.0156,-0.76953 -0.0859,-1.5391 -0.21875,-2.3008 z M 350,338.3 c -53.762,-9.6016 -70.18,-63.84 -72.68,-73.5 v -69.301 c 12.539,1.7578 25.32,0.27344 37.121,-4.3203 l 47.66,-14 60.578,11.02 v 76.66 c -2.4609,9.2617 -19.199,63.859 -72.68,73.441 z m -97.66,-220.92 25.238,-32.559 0.26172,-0.33984 c 8.1992,-9.3867 20.383,-14.297 32.801,-13.219 7.7266,-0.01953 15.422,0.96094 22.898,2.918 2,0.87891 89.621,40.539 120,67.801 6.4414,4.6602 10.793,11.66 12.121,19.5 0.0352,1.4727 -0.1875,2.9414 -0.66016,4.3398 l -101,-18.359 c -2.2695,-0.43359 -4.6094,-0.3125 -6.8203,0.35937 l -52,15.398 c -10.457,4.2734 -22.133,4.4922 -32.742,0.61719 -10.609,-3.8789 -19.395,-11.57 -24.637,-21.574 -1.4727,-8.5703 0.13672,-17.383 4.5391,-24.883 z m 4,259.18 34,-32.922 v 30.004 c 0,0.95312 0.0937,1.9023 0.28125,2.8398 0.90234,4.1172 2.2031,8.1328 3.8789,12 l -38.102,32.66 z M 350,399.681 c -7.2227,-1.0117 -13.969,-4.2031 -19.328,-9.1484 -5.3633,-4.9453 -9.0859,-11.41 -10.672,-18.531 v -12 c 7.3047,3.043 14.906,5.3125 22.68,6.7812 1.8711,0.91016 3.918,1.4102 6,1.457 h 1.2812 1.2812 -0.004 c 2.082,-0.0469 4.1289,-0.54688 6,-1.457 7.8047,-1.4609 15.434,-3.7344 22.762,-6.7812 v 12 c -1.6523,7.0859 -5.3984,13.516 -10.746,18.449 -5.3477,4.9375 -12.055,8.1523 -19.254,9.2305 z m 93.621,21.461 -38.199,-32.578 v -0.004 c 1.6641,-3.8633 2.9414,-7.8828 3.8164,-12 0.19141,-0.93359 0.28516,-1.8867 0.28125,-2.8398 v -30 l 34.102,32.941 z"
       id="path2"
       style="fill:#ffffff;fill-opacity:1" />
    <path
       d="m 321.98,124.32 c 0,9.2461 -7.4961,16.738 -16.742,16.738 -9.2422,0 -16.738,-7.4922 -16.738,-16.738 0,-9.2461 7.4961,-16.742 16.738,-16.742 9.2461,0 16.742,7.4961 16.742,16.742"
       id="path4"
       style="fill:#ffffff;fill-opacity:1" />
  </g>
</svg>
