<?xml version="1.0" encoding="UTF-8" standalone="no"?>
<svg
   xmlns:dc="http://purl.org/dc/elements/1.1/"
   xmlns:cc="http://creativecommons.org/ns#"
   xmlns:rdf="http://www.w3.org/1999/02/22-rdf-syntax-ns#"
   xmlns:svg="http://www.w3.org/2000/svg"
   xmlns="http://www.w3.org/2000/svg"
   xmlns:sodipodi="http://sodipodi.sourceforge.net/DTD/sodipodi-0.dtd"
   xmlns:inkscape="http://www.inkscape.org/namespaces/inkscape"
   width="710"
   height="710"
   version="1.1"
   viewBox="0 0 532.49999 532.50001"
   id="svg564"
   sodipodi:docname="Grandparents knowledge.svg"
   inkscape:export-filename="/home/marek/Downloads/Grandparents knowledge.png"
   inkscape:export-xdpi="6.7605634"
   inkscape:export-ydpi="6.7605634"
   inkscape:version="1.0.2 (e86c870879, 2021-01-15)">
  <metadata
     id="metadata568">
    <rdf:RDF>
      <cc:Work
         rdf:about="">
        <dc:format>image/svg+xml</dc:format>
        <dc:type
           rdf:resource="http://purl.org/dc/dcmitype/StillImage" />
        <dc:title></dc:title>
      </cc:Work>
    </rdf:RDF>
  </metadata>
  <sodipodi:namedview
     pagecolor="#ffffff"
     bordercolor="#666666"
     borderopacity="1"
     objecttolerance="10"
     gridtolerance="10"
     guidetolerance="10"
     inkscape:pageopacity="0"
     inkscape:pageshadow="2"
     inkscape:window-width="1920"
     inkscape:window-height="990"
     id="namedview566"
     showgrid="false"
     inkscape:pagecheckerboard="true"
     units="px"
     inkscape:zoom="0.44410714"
     inkscape:cx="256.01629"
     inkscape:cy="449.2528"
     inkscape:window-x="0"
     inkscape:window-y="30"
     inkscape:window-maximized="1"
     inkscape:current-layer="svg564" />
  <defs
     id="defs490">
    <symbol
       id="v"
       overflow="visible">
      <path
         d="m 18.766,-1.125 c -0.96875,0.5 -1.9805,0.875 -3.0312,1.125 -1.043,0.25781 -2.1367,0.39062 -3.2812,0.39062 -3.3984,0 -6.0898,-0.94531 -8.0781,-2.8438 -1.9922,-1.9062 -2.9844,-4.4844 -2.9844,-7.7344 0,-3.2578 0.99219,-5.8359 2.9844,-7.7344 1.9883,-1.9062 4.6797,-2.8594 8.0781,-2.8594 1.1445,0 2.2383,0.13281 3.2812,0.39062 1.0508,0.25 2.0625,0.625 3.0312,1.125 v 4.2188 c -0.98047,-0.65625 -1.9453,-1.1406 -2.8906,-1.4531 -0.94922,-0.3125 -1.9492,-0.46875 -3,-0.46875 -1.875,0 -3.3516,0.60547 -4.4219,1.8125 -1.0742,1.1992 -1.6094,2.8555 -1.6094,4.9688 0,2.1055 0.53516,3.7617 1.6094,4.9688 1.0703,1.1992 2.5469,1.7969 4.4219,1.7969 1.0508,0 2.0508,-0.14844 3,-0.45312 0.94531,-0.3125 1.9102,-0.80078 2.8906,-1.4688 z"
         id="path424" />
    </symbol>
    <symbol
       id="d"
       overflow="visible">
      <path
         d="m 13.734,-11.141 c -0.4375,-0.19531 -0.87109,-0.34375 -1.2969,-0.4375 -0.41797,-0.10156 -0.83984,-0.15625 -1.2656,-0.15625 -1.2617,0 -2.2305,0.40625 -2.9062,1.2188 -0.67969,0.80469 -1.0156,1.9531 -1.0156,3.4531 v 7.0625 H 2.3591 v -15.312 h 4.8906 v 2.5156 c 0.625,-1 1.3438,-1.7266 2.1562,-2.1875 0.82031,-0.46875 1.8008,-0.70312 2.9375,-0.70312 0.16406,0 0.34375,0.01172 0.53125,0.03125 0.19531,0.01172 0.47656,0.03906 0.84375,0.07813 z"
         id="path427" />
    </symbol>
    <symbol
       id="a"
       overflow="visible">
      <path
         d="m 17.641,-7.7031 v 1.4062 H 6.188 c 0.125,1.1484 0.53906,2.0078 1.25,2.5781 0.70703,0.57422 1.7031,0.85938 2.9844,0.85938 1.0312,0 2.082,-0.14844 3.1562,-0.45312 1.082,-0.3125 2.1914,-0.77344 3.3281,-1.3906 v 3.7656 c -1.1562,0.4375 -2.3125,0.76562 -3.4688,0.98438 -1.1562,0.22656 -2.3125,0.34375 -3.4688,0.34375 -2.7734,0 -4.9297,-0.70312 -6.4688,-2.1094 -1.5312,-1.4062 -2.2969,-3.3789 -2.2969,-5.9219 0,-2.5 0.75391,-4.4609 2.2656,-5.8906 1.5078,-1.4375 3.582,-2.1562 6.2188,-2.1562 2.4062,0 4.332,0.73047 5.7812,2.1875 1.4453,1.4492 2.1719,3.3828 2.1719,5.7969 z m -5.0312,-1.625 c 0,-0.92578 -0.27344,-1.6719 -0.8125,-2.2344 -0.54297,-0.57031 -1.25,-0.85938 -2.125,-0.85938 -0.94922,0 -1.7188,0.26562 -2.3125,0.79688 -0.5937,0.53126 -0.96484,1.2969 -1.1094,2.2969 z"
         id="path430" />
    </symbol>
    <symbol
       id="j"
       overflow="visible">
      <path
         d="m 9.2188,-6.8906 c -1.0234,0 -1.793,0.17188 -2.3125,0.51562 -0.51172,0.34375 -0.76562,0.85547 -0.76562,1.5312 0,0.625 0.20703,1.1172 0.625,1.4688 0.41406,0.34375 0.98828,0.51562 1.7188,0.51562 0.92578,0 1.7031,-0.32812 2.3281,-0.98438 0.63281,-0.66406 0.95312,-1.4922 0.95312,-2.4844 v -0.5625 z m 7.4688,-1.8438 V 0 h -4.9219 v -2.2656 c -0.65625,0.92969 -1.3984,1.6055 -2.2188,2.0312 -0.82422,0.41406 -1.8242,0.625 -3,0.625 -1.5859,0 -2.8711,-0.45703 -3.8594,-1.375 -0.99219,-0.92578 -1.4844,-2.1289 -1.4844,-3.6094 0,-1.7891 0.61328,-3.1016 1.8438,-3.9375 1.2383,-0.84375 3.1797,-1.2656 5.8281,-1.2656 h 2.8906 v -0.39062 c 0,-0.76953 -0.30859,-1.332 -0.92188,-1.6875 -0.61719,-0.36328 -1.5703,-0.54688 -2.8594,-0.54688 -1.0547,0 -2.0312,0.10547 -2.9375,0.3125 -0.89844,0.21094 -1.7305,0.52344 -2.5,0.9375 v -3.7344 c 1.0391,-0.25 2.0859,-0.44141 3.1406,-0.57812 1.0625,-0.13281 2.125,-0.20312 3.1875,-0.20312 2.7578,0 4.75,0.54688 5.9688,1.6406 1.2266,1.0859 1.8438,2.8555 1.8438,5.3125 z"
         id="path433" />
    </symbol>
    <symbol
       id="c"
       overflow="visible">
      <path
         d="m 7.7031,-19.656 v 4.3438 H 12.75 v 3.5 H 7.7031 v 6.5 c 0,0.71094 0.14062,1.1875 0.42188,1.4375 0.28126,0.25 0.83594,0.375 1.6719,0.375 h 2.5156 v 3.5 h -4.1875 c -1.9375,0 -3.3125,-0.39844 -4.125,-1.2031 -0.80469,-0.8125 -1.2031,-2.1797 -1.2031,-4.1094 v -6.5 h -2.4219 v -3.5 h 2.4219 v -4.3438 z"
         id="path436" />
    </symbol>
    <symbol
       id="i"
       overflow="visible">
      <path
         d="m 12.766,-13.078 v -8.2031 h 4.9219 V -1e-4 H 12.766 v -2.2188 c -0.66797,0.90625 -1.4062,1.5703 -2.2188,1.9844 -0.8126,0.4141 -1.7578,0.625 -2.8281,0.625 -1.8867,0 -3.4336,-0.75 -4.6406,-2.25 -1.2109,-1.5 -1.8125,-3.4258 -1.8125,-5.7812 0,-2.3633 0.60156,-4.2969 1.8125,-5.7969 1.207,-1.5 2.7539,-2.25 4.6406,-2.25 1.0625,0 2,0.21484 2.8125,0.64062 0.82031,0.42969 1.5664,1.0859 2.2344,1.9688 z m -3.2188,9.9219 c 1.0391,0 1.8359,-0.37891 2.3906,-1.1406 0.55078,-0.76953 0.82812,-1.8828 0.82812,-3.3438 0,-1.457 -0.27734,-2.5664 -0.82812,-3.3281 -0.55469,-0.76953 -1.3516,-1.1562 -2.3906,-1.1562 -1.043,0 -1.8398,0.38672 -2.3906,1.1562 -0.55469,0.76172 -0.82812,1.8711 -0.82812,3.3281 0,1.4609 0.27344,2.5742 0.82812,3.3438 0.55078,0.76172 1.3477,1.1406 2.3906,1.1406 z"
         id="path439" />
    </symbol>
    <symbol
       id="h"
       overflow="visible">
      <path
         d="m 10.5,-3.1562 c 1.0508,0 1.8516,-0.37891 2.4062,-1.1406 0.55078,-0.76953 0.82812,-1.8828 0.82812,-3.3438 0,-1.457 -0.27734,-2.5664 -0.82812,-3.3281 -0.55469,-0.76953 -1.3555,-1.1562 -2.4062,-1.1562 -1.0547,0 -1.8594,0.38672 -2.4219,1.1562 -0.55469,0.77344 -0.82812,1.8828 -0.82812,3.3281 0,1.4492 0.27344,2.5586 0.82812,3.3281 0.5625,0.77344 1.3672,1.1562 2.4219,1.1562 z m -3.25,-9.9219 c 0.67578,-0.88281 1.4219,-1.5391 2.2344,-1.9688 0.82031,-0.42578 1.7656,-0.64062 2.8281,-0.64062 1.8945,0 3.4453,0.75 4.6562,2.25 1.207,1.5 1.8125,3.4336 1.8125,5.7969 0,2.3555 -0.60547,4.2812 -1.8125,5.7812 -1.2109,1.5 -2.7617,2.25 -4.6562,2.25 -1.0625,0 -2.0078,-0.21094 -2.8281,-0.625 C 8.6719,-0.6602 7.9258,-1.32032 7.25,-2.21882 V -2e-5 H 2.3594 v -21.281 H 7.25 Z"
         id="path442" />
    </symbol>
    <symbol
       id="g"
       overflow="visible">
      <path
         d="m 0.34375,-15.312 h 4.8906 l 4.125,10.391 3.5,-10.391 h 4.8906 l -6.4375,16.766 c -0.64844,1.6953 -1.4023,2.8828 -2.2656,3.5625 -0.86719,0.6875 -2,1.0312 -3.4062,1.0312 H 2.79685 V 2.8289 h 1.5312 c 0.83203,0 1.4375,-0.13672 1.8125,-0.40625 C 6.52336,2.16093 6.82024,1.69218 7.03117,1.01645 L 7.17179,0.59457 Z"
         id="path445" />
    </symbol>
    <symbol
       id="f"
       overflow="visible">
      <path
         d="m 2.5781,-20.406 h 5.25 v 16.422 h 9.25 V 4e-4 h -14.5 z"
         id="path448" />
    </symbol>
    <symbol
       id="e"
       overflow="visible">
      <path
         d="M 2.3594,-21.281 H 7.25 V 0 H 2.3594 Z"
         id="path451" />
    </symbol>
    <symbol
       id="u"
       overflow="visible">
      <path
         d="M 2.3594,-15.312 H 7.25 V 0 H 2.3594 Z m 0,-5.9688 H 7.25 v 4 H 2.3594 Z"
         id="path454" />
    </symbol>
    <symbol
       id="t"
       overflow="visible">
      <path
         d="m 14.312,-14.828 v 3.7188 c -1.043,-0.4375 -2.0547,-0.76562 -3.0312,-0.98438 -0.98047,-0.21875 -1.9023,-0.32812 -2.7656,-0.32812 -0.92969,0 -1.6211,0.11719 -2.0781,0.34375 -0.44922,0.23047 -0.67188,0.58984 -0.67188,1.0781 0,0.38672 0.17188,0.68359 0.51562,0.89062 0.34375,0.21094 0.95703,0.36719 1.8438,0.46875 l 0.85938,0.125 c 2.5078,0.32422 4.1953,0.85156 5.0625,1.5781 0.86328,0.73047 1.2969,1.8711 1.2969,3.4219 0,1.6367 -0.60547,2.8672 -1.8125,3.6875 -1.1992,0.8125 -2.9922,1.2188 -5.375,1.2188 -1.0234,0 -2.0742,-0.078125 -3.1562,-0.23438 -1.0742,-0.15625 -2.1797,-0.39453 -3.3125,-0.71875 v -3.7188 c 0.96875,0.48047 1.9609,0.83984 2.9844,1.0781 1.0312,0.23047 2.0781,0.34375 3.1406,0.34375 0.95703,0 1.6758,-0.12891 2.1562,-0.39062 0.47656,-0.26953 0.71875,-0.66406 0.71875,-1.1875 0,-0.4375 -0.16797,-0.75781 -0.5,-0.96875 -0.33594,-0.21875 -0.99609,-0.38281 -1.9844,-0.5 L 7.34339,-6.01551 c -2.1797,-0.26953 -3.7031,-0.77344 -4.5781,-1.5156 -0.875,-0.73828 -1.3125,-1.8594 -1.3125,-3.3594 0,-1.625 0.55078,-2.8281 1.6562,-3.6094 1.1133,-0.78906 2.8203,-1.1875 5.125,-1.1875 0.89453,0 1.8359,0.07422 2.8281,0.21875 1,0.13672 2.082,0.35156 3.25,0.64062 z"
         id="path457" />
    </symbol>
    <symbol
       id="b"
       overflow="visible">
      <path
         d="m 9.6406,-12.188 c -1.0859,0 -1.9141,0.39062 -2.4844,1.1719 -0.57422,0.78125 -0.85938,1.9062 -0.85938,3.375 0,1.4688 0.28516,2.5938 0.85938,3.375 0.57031,0.77344 1.3984,1.1562 2.4844,1.1562 1.0625,0 1.875,-0.38281 2.4375,-1.1562 0.57031,-0.78125 0.85938,-1.9062 0.85938,-3.375 0,-1.4688 -0.28906,-2.5938 -0.85938,-3.375 -0.5625,-0.78125 -1.375,-1.1719 -2.4375,-1.1719 z m 0,-3.5 c 2.6328,0 4.6914,0.71484 6.1719,2.1406 1.4766,1.418 2.2188,3.3867 2.2188,5.9062 0,2.5117 -0.74219,4.4805 -2.2188,5.9062 C 14.332,-0.317 12.2734,0.39 9.6406,0.39 6.9922,0.39 4.9258,-0.31703 3.4375,-1.735 1.9453,-3.1608 1.2031,-5.1295 1.2031,-7.6412 c 0,-2.5195 0.74219,-4.4883 2.2344,-5.9062 1.4883,-1.4258 3.5547,-2.1406 6.2031,-2.1406 z"
         id="path460" />
    </symbol>
    <symbol
       id="s"
       overflow="visible">
      <path
         d="m 12.422,-21.281 v 3.2188 H 9.7189 c -0.6875,0 -1.1719,0.125 -1.4531,0.375 -0.27344,0.25 -0.40625,0.6875 -0.40625,1.3125 v 1.0625 h 4.1875 v 3.5 H 7.85955 V -2e-4 h -4.8906 v -11.812 h -2.4375 v -3.5 h 2.4375 v -1.0625 c 0,-1.6641 0.46094,-2.8984 1.3906,-3.7031 0.92578,-0.80078 2.3672,-1.2031 4.3281,-1.2031 z"
         id="path463" />
    </symbol>
    <symbol
       id="r"
       overflow="visible">
      <path
         d="m 16.547,-12.766 c 0.61328,-0.94531 1.3477,-1.6719 2.2031,-2.1719 0.85156,-0.5 1.7891,-0.75 2.8125,-0.75 1.7578,0 3.0977,0.54688 4.0156,1.6406 0.92578,1.0859 1.3906,2.6562 1.3906,4.7188 V -4e-4 h -4.9219 v -7.9844 -0.35938 c 0.0078,-0.13281 0.01563,-0.32031 0.01563,-0.5625 0,-1.082 -0.16406,-1.8633 -0.48438,-2.3438 -0.3125,-0.48828 -0.82422,-0.73438 -1.5312,-0.73438 -0.92969,0 -1.6484,0.38672 -2.1562,1.1562 -0.51172,0.76172 -0.77344,1.8672 -0.78125,3.3125 v 7.5156 h -4.9219 v -7.9844 c 0,-1.6953 -0.14844,-2.7852 -0.4375,-3.2656 -0.29297,-0.48828 -0.8125,-0.73438 -1.5625,-0.73438 -0.9375,0 -1.6641,0.38672 -2.1719,1.1562 -0.51172,0.76172 -0.76562,1.8594 -0.76562,3.2969 v 7.5312 h -4.9219 v -15.312 h 4.9219 v 2.2344 c 0.60156,-0.86328 1.2891,-1.5156 2.0625,-1.9531 0.78125,-0.4375 1.6406,-0.65625 2.5781,-0.65625 1.0625,0 2,0.25781 2.8125,0.76562 0.8125,0.51172 1.4258,1.2305 1.8438,2.1562 z"
         id="path466" />
    </symbol>
    <symbol
       id="q"
       overflow="visible">
      <path
         d="M 17.75,-9.3281 V 0 h -4.9219 v -7.1094 c 0,-1.3438 -0.03125,-2.2656 -0.09375,-2.7656 -0.0625,-0.5 -0.16797,-0.86719 -0.3125,-1.1094 -0.1875,-0.3125 -0.44922,-0.55469 -0.78125,-0.73438 -0.32422,-0.17578 -0.69531,-0.26562 -1.1094,-0.26562 -1.0234,0 -1.8242,0.39844 -2.4062,1.1875 -0.58594,0.78125 -0.875,1.8711 -0.875,3.2656 V -1e-4 H 2.3594 v -21.281 H 7.25 v 8.2031 c 0.73828,-0.88281 1.5195,-1.5391 2.3438,-1.9688 0.83203,-0.42578 1.75,-0.64062 2.75,-0.64062 1.7695,0 3.1133,0.54688 4.0312,1.6406 0.91406,1.0859 1.375,2.6562 1.375,4.7188 z"
         id="path469" />
    </symbol>
    <symbol
       id="p"
       overflow="visible">
      <path
         d="m 2.5781,-20.406 h 5.875 l 7.4219,14 v -14 h 4.9844 V 0 h -5.875 L 7.5625,-14 V 0 H 2.5781 Z"
         id="path472" />
    </symbol>
    <symbol
       id="o"
       overflow="visible">
      <path
         d="m 2.1875,-5.9688 v -9.3438 h 4.9219 v 1.5312 c 0,0.83594 -0.00781,1.875 -0.015625,3.125 -0.011719,1.25 -0.015625,2.0859 -0.015625,2.5 0,1.2422 0.03125,2.1328 0.09375,2.6719 0.070313,0.54297 0.17969,0.93359 0.32812,1.1719 0.20703,0.32422 0.47266,0.57422 0.79688,0.75 0.32031,0.16797 0.69141,0.25 1.1094,0.25 1.0195,0 1.8203,-0.39062 2.4062,-1.1719 0.58203,-0.78125 0.875,-1.8672 0.875,-3.2656 v -7.5625 h 4.8906 V -6e-4 H 12.6875 V -2.2194 C 11.94531,-1.32096 11.1641,-0.6608 10.3437,-0.235 9.51948,0.17906 8.6093,0.39 7.6093,0.39 5.8476,0.39 4.5038,-0.14906 3.5781,-1.235 2.64841,-2.317 2.1875,-3.8952 2.1875,-5.9694 Z"
         id="path475" />
    </symbol>
    <symbol
       id="n"
       overflow="visible">
      <path
         d="M 17.75,-9.3281 V 0 h -4.9219 v -7.1406 c 0,-1.3203 -0.03125,-2.2344 -0.09375,-2.7344 -0.0625,-0.5 -0.16797,-0.86719 -0.3125,-1.1094 -0.1875,-0.3125 -0.44922,-0.55469 -0.78125,-0.73438 -0.32422,-0.17578 -0.69531,-0.26562 -1.1094,-0.26562 -1.0234,0 -1.8242,0.39844 -2.4062,1.1875 -0.58594,0.78125 -0.875,1.8711 -0.875,3.2656 V -1e-4 H 2.3594 v -15.312 H 7.25 v 2.2344 c 0.73828,-0.88281 1.5195,-1.5391 2.3438,-1.9688 0.83203,-0.42578 1.75,-0.64062 2.75,-0.64062 1.7695,0 3.1133,0.54688 4.0312,1.6406 0.91406,1.0859 1.375,2.6562 1.375,4.7188 z"
         id="path478" />
    </symbol>
    <symbol
       id="m"
       overflow="visible">
      <path
         d="m 2.5781,-20.406 h 8.7344 c 2.5938,0 4.582,0.57812 5.9688,1.7344 1.3945,1.1484 2.0938,2.7891 2.0938,4.9219 0,2.1367 -0.69922,3.7812 -2.0938,4.9375 -1.3867,1.1562 -3.375,1.7344 -5.9688,1.7344 H 7.8281 V 3e-4 h -5.25 z m 5.25,3.8125 v 5.7031 H 10.75 c 1.0195,0 1.8047,-0.25 2.3594,-0.75 0.5625,-0.5 0.84375,-1.2031 0.84375,-2.1094 0,-0.91406 -0.28125,-1.6172 -0.84375,-2.1094 -0.55469,-0.48828 -1.3398,-0.73438 -2.3594,-0.73438 z"
         id="path481" />
    </symbol>
    <symbol
       id="l"
       overflow="visible">
      <path
         d="M 2.3594,-15.312 H 7.25 v 15.031 c 0,2.0508 -0.49609,3.6172 -1.4844,4.7031 -0.98047,1.082 -2.4062,1.625 -4.2812,1.625 H -0.9375 V 2.8283 h 0.85938 c 0.92578,0 1.5625,-0.21094 1.9062,-0.625 0.35156,-0.41797 0.53125,-1.2461 0.53125,-2.4844 z m 0,-5.9688 H 7.25 v 4 H 2.3594 Z"
         id="path484" />
    </symbol>
    <symbol
       id="k"
       overflow="visible">
      <path
         d="m 14.719,-14.828 v 3.9844 c -0.65625,-0.45703 -1.3242,-0.79688 -2,-1.0156 -0.66797,-0.21875 -1.3594,-0.32812 -2.0781,-0.32812 -1.3672,0 -2.4336,0.40234 -3.2031,1.2031 -0.76172,0.79297 -1.1406,1.9062 -1.1406,3.3438 0,1.4297 0.37891,2.543 1.1406,3.3438 0.76953,0.79297 1.8359,1.1875 3.2031,1.1875 0.75781,0 1.4844,-0.10938 2.1719,-0.32812 0.6875,-0.22656 1.3203,-0.56641 1.9062,-1.0156 v 4 c -0.76172,0.28125 -1.5391,0.48828 -2.3281,0.625 -0.78125,0.14453 -1.5742,0.21875 -2.375,0.21875 -2.7617,0 -4.9219,-0.70703 -6.4844,-2.125 -1.5547,-1.4141 -2.3281,-3.3828 -2.3281,-5.9062 0,-2.5312 0.77344,-4.5039 2.3281,-5.9219 1.5625,-1.4141 3.7227,-2.125 6.4844,-2.125 0.80078,0 1.5938,0.07422 2.375,0.21875 0.78125,0.13672 1.5547,0.35156 2.3281,0.64062 z"
         id="path487" />
    </symbol>
  </defs>
  <path
     d="m 506.21186,155.81758 c -5.0195,-28.047 -20.199,-52.258 -41.301,-68.215004 1.0508,-2.1641 1.8516,-4.6367 1.8516,-7.4727 0,-5.418 -2.875,-9.5742 -4.9805,-12.613 -0.74219,-1.082 -1.5898,-2.3086 -1.8555,-2.9688 -0.27734,-0.72266 -0.46094,-2.0938 -0.63281,-3.4141 -0.45312,-3.4688 -1.0703,-8.2148 -4.6094,-12.273 -3.293,-3.7852 -7.8867,-5.5039 -11.578,-6.8867 -1.6172,-0.60547 -3.2969,-1.2344 -4.293,-1.8359 -0.91797,-0.5625 -2.0391,-1.6016 -3.2266,-2.7031 -2.7383,-2.543 -6.1484,-5.707 -11.262,-7.0977 -4.7734,-1.2969 -9.2812,-0.50391 -13.258,0.1875 -3.8281,0.66016 -6.4844,0.66016 -10.312,0 -3.9805,-0.69531 -8.5,-1.4766 -13.262,-0.18359 -5.1094,1.3867 -8.5156,4.5508 -11.254,7.0938 -1.1875,1.1016 -2.3086,2.1406 -3.2227,2.6992 -1.0078,0.60938 -2.6797,1.2344 -4.2969,1.8438 -3.6914,1.3789 -8.2812,3.0977 -11.566,6.875 -3.5508,4.0625 -4.168,8.8125 -4.6211,12.281 -0.17578,1.3242 -0.35547,2.6914 -0.64062,3.418 -0.25781,0.66016 -1.1055,1.8906 -1.8555,2.9688 -2.1016,3.0391 -4.9766,7.1953 -4.9766,12.613 0,2.8359 0.80078,5.3047 1.8516,7.4727 -21.102,15.957004 -36.281,40.168004 -41.301,68.215004 -14.605,1.6719 -26.039,15.637 -26.039,32.566 0,18.051 13,32.734 28.98,32.734 1.457,0 2.875,-0.16016 4.2734,-0.39844 16.031,37.754 51.684,64.141 93.086,64.141 41.406,0 77.059,-26.387 93.086,-64.141 1.3984,0.23438 2.8164,0.39844 4.2734,0.39844 15.98,0 28.98,-14.684 28.98,-32.734 -0.004,-16.934 -11.438,-30.898 -26.039,-32.57 z m -209.84,32.566 c 0,-6.4805 3.1406,-12.203 7.4922,-14.66 -0.0156,0.82422 -0.11719,1.625 -0.11719,2.4492 0,9.6836 1.3125,19.027 3.5547,27.973 -6.0312,-0.85547 -10.93,-7.6797 -10.93,-15.762 z m 67.484,-111.310004 c 1.2734,-1.8438 2.7188,-3.9336 3.6914,-6.4375 1.0234,-2.6211 1.3633,-5.2305 1.6406,-7.3281 0.15234,-1.1953 0.38672,-3 0.61328,-3.4102 0.61719,-0.625 3.2383,-1.6055 4.8086,-2.1914 2.2383,-0.83594 4.7734,-1.7891 7.1328,-3.2227 2.3789,-1.4453 4.2656,-3.1953 5.9297,-4.7422 1.6016,-1.4883 3.1172,-2.8945 4.2266,-3.1953 0.27344,-0.07422 0.62891,-0.10547 1.043,-0.10547 1.3242,0 3.2227,0.33203 4.9375,0.62891 4.8242,0.83594 11.242,0.83594 16.066,0 2.2578,-0.39844 4.8242,-0.83984 5.9766,-0.52344 1.1172,0.30469 2.6289,1.7109 4.2344,3.1953 1.6641,1.543 3.5508,3.2969 5.9336,4.7461 2.3516,1.4297 4.8906,2.3789 7.1328,3.2148 1.5625,0.58594 4.1836,1.5664 4.7344,2.1133 0.28906,0.48828 0.52344,2.293 0.67969,3.4883 0.27734,2.0977 0.61719,4.707 1.6406,7.3281 0.97266,2.5039 2.418,4.5938 3.6914,6.4375 0.0508,0.07031 0.11328,0.16797 0.16406,0.24219 -12.887,-6.2539 -27.152,-9.832 -42.219,-9.832 -15.066,0 -29.336,3.5781 -42.223,9.8359 0.0469,-0.07422 0.10938,-0.16406 0.16406,-0.24219 z m 42.055,7.2109 c 31.543,0 59.078,18.559004 73.855,46.020004 -10.199,-0.30469 -22.047,-1.8398 -34.832,-5.1758 -11.324,-2.957 -21.953,-6.9805 -30.73,-11.625 -5.1914,-2.7578 -11.398,-2.7617 -16.586,-0.004 -8.7812,4.6484 -19.41,8.6719 -30.734,11.629 -12.785,3.3398 -24.633,4.875 -34.832,5.1758 14.777,-27.457 42.312,-46.02 73.859,-46.02 z m 0,183.770004 c -47.07,0 -85.363,-41.219 -85.363,-91.887 0,-10.137 1.5938,-19.867 4.4258,-28.996 14.473,0.34766 30.754,-1.7695 46.156,-5.793 12.562,-3.2812 24.441,-7.7891 34.359,-13.039 0.26953,-0.14062 0.58984,-0.13281 0.84766,0.004 9.9141,5.2461 21.793,9.7539 34.355,13.035 14.328,3.7422 29.445,5.875 43.133,5.875 1.0312,0 2.0039,-0.0742 3.0195,-0.0977 2.832,9.1328 4.4297,18.867 4.4297,29.012 -0.004,50.664 -38.297,91.887 -85.363,91.887 z m 98.605,-63.914 c 2.2461,-8.9414 3.5547,-18.289 3.5547,-27.973 0,-0.82812 -0.0977,-1.6289 -0.11719,-2.4492 4.3555,2.457 7.4922,8.1797 7.4922,14.66 0.004,8.082 -4.8945,14.906 -10.93,15.762 z m -42.98,-19.809 c 2.6406,3.8125 1.6914,9.0469 -2.1211,11.688 -1.4609,1.0117 -3.1289,1.4961 -4.7812,1.4961 -2.6133,0 -5.1914,-1.2188 -6.8242,-3.4961 -0.82422,-1.0703 -5.1953,-5.9531 -14.531,-3.0312 -4.4336,1.4102 -9.1445,-1.0703 -10.531,-5.4883 -1.3945,-4.4258 1.0625,-9.1406 5.4922,-10.535 17.367,-5.4648 29.098,3.3086 33.297,9.3672 z m -82.996,6.6523 c -9.3906,-2.9492 -13.766,2.0273 -14.547,3.0547 -1.668,2.1836 -4.2266,3.3594 -6.8047,3.3594 -1.6992,0 -3.4141,-0.51172 -4.8789,-1.5781 -3.6914,-2.6836 -4.625,-7.7422 -2.0273,-11.492 4.1992,-6.0586 15.953,-14.82 33.301,-9.3672 4.4297,1.3945 6.8867,6.1133 5.4922,10.535 -1.3945,4.4217 -6.1133,6.8984 -10.535,5.4883 z m -13.043,-33.059 c 0,-3.7109 3.0078,-6.7227 6.7227,-6.7227 3.3242,0 4.8086,-0.39844 6.6836,-0.89844 2.2578,-0.60547 5.0742,-1.3633 10.176,-1.3633 5.1016,0 7.918,0.75781 10.176,1.3633 1.875,0.50391 3.3594,0.89844 6.6836,0.89844 3.3242,0 4.8008,-0.39844 6.6758,-0.89844 2.2578,-0.60547 5.0625,-1.3633 10.16,-1.3633 5.0975,0 7.9062,0.75781 10.16,1.3633 1.8711,0.50391 3.3516,0.89844 6.668,0.89844 3.7148,0 6.7227,3.0117 6.7227,6.7227 0,3.7109 -3.0078,6.7227 -6.7227,6.7227 -5.0898,0 -7.9023,-0.75781 -10.156,-1.3633 -1.8711,-0.50391 -3.3516,-0.89844 -6.6719,-0.89844 -3.3203,0 -4.7969,0.39844 -6.6719,0.89844 -2.2578,0.60547 -5.0703,1.3633 -10.168,1.3633 -5.1016,0 -7.9141,-0.75781 -10.172,-1.3633 -1.875,-0.50391 -3.3594,-0.90234 -6.6875,-0.90234 -3.332,0 -4.8125,0.39844 -6.6875,0.90234 -2.2578,0.60547 -5.0703,1.3633 -10.172,1.3633 -3.7109,0 -6.7188,-3.0117 -6.7188,-6.7227 z m 64.969,65.082 c 0,13.344 -11.016,24.199 -24.555,24.199 -13.539,0 -24.555,-10.855 -24.555,-24.199 0,-4.6406 3.7617,-8.3984 8.3984,-8.3984 h 32.309 c 4.6367,0 8.4023,3.7578 8.4023,8.3984 z m 28.117,5.1797 c 3.0117,2.168 3.7031,6.3672 1.5352,9.3789 -1.3125,1.8281 -3.375,2.8008 -5.4648,2.8008 -1.3555,0 -2.7305,-0.41016 -3.9141,-1.2617 -12.238,-8.8008 -16.066,-17.871 -16.461,-18.875 -1.3633,-3.4531 0.33203,-7.3555 3.7891,-8.7188 3.4219,-1.3438 7.3047,0.3125 8.6836,3.7227 0.12109,0.25391 2.9688,6.5781 11.832,12.953 z m -81.047,-7.9609 c -0.39453,1.0039 -4.2227,10.074 -16.461,18.875 -1.1875,0.85156 -2.5586,1.2617 -3.9141,1.2617 -2.0898,0 -4.1523,-0.97266 -5.4648,-2.8008 -2.1641,-3.0117 -1.4766,-7.2109 1.5352,-9.3789 9.0078,-6.4766 11.801,-12.902 11.828,-12.965 1.4336,-3.3867 5.3438,-5.0273 8.75,-3.6406 3.4062,1.3984 5.0781,5.2266 3.7266,8.6484 z m -156.59,0.38672 c 1.5938,0.30469 3.2227,0.5 4.8945,0.5 16.078,0 29.16,-14.684 29.16,-32.73 0,-16.062 -10.367,-29.43 -23.98,-32.188 -6.1016,-57.090004 -50.105,-101.540004 -103.39,-101.540004 -53.292995,-0.0039 -97.296995,44.453 -103.399995,101.540004 -13.613,2.7539 -23.98,16.125 -23.98,32.188 0,18.047 13.082,32.73 29.16,32.73 1.6719,0 3.3008,-0.19531 4.8945,-0.5 17.035,37.996 52.41,64.242 93.319995,64.242 40.914,0 76.289,-26.25 93.324,-64.242 z m 10.648,-46.184 c 3.875,2.7227 6.6055,7.9844 6.6055,13.949 0,8.1016 -5,14.945 -11.148,15.77 2.6797,-9.4336 4.168,-19.422 4.543,-29.719 z m -214.549995,13.949 c 0,-5.9648 2.7266,-11.227 6.6055,-13.949 0.37891,10.297 1.8633,20.285 4.543,29.719 -6.1484,-0.82422 -11.148,-7.6641 -11.148,-15.77 z M 127.62386,71.447296 c 41.996,0 77.148,33.508004 85.488,78.000004 -7.3047,-6.5234 -15.77,-16.203 -21.09,-29.254 -2.875,-7.0664 -9.7773,-11.633 -17.496,-11.375 -7.1406,0.25 -14.516,0.82422 -21.926,1.7109 -8.3164,1 -15.93,2.293 -22.625,3.8555 -1.5625,0.36719 -3.1484,0.36719 -4.707,0 -6.6953,-1.5625 -14.305,-2.8555 -22.629,-3.8555 -7.402295,-0.88672 -14.776995,-1.4609 -21.917995,-1.7109 -7.6367,-0.29297 -14.617,4.3086 -17.496,11.375 -5.2773,12.949 -13.754,22.633 -21.07,29.184 8.3633,-44.453 43.492,-77.930004 85.468995,-77.930004 z m 0,196.610004 c -47.542995,0 -86.261995,-42.949 -87.288995,-96.16 8.8789,-5.6875 28.25,-20.34 38.449,-45.363 0.23828,-0.58203 0.73438,-0.96094 1.3477,-0.92578 6.6758,0.23438 13.578,0.77344 20.511995,1.6016 7.6016,0.91406 14.797,2.1367 20.812,3.5391 4.0977,0.95312 8.2461,0.95312 12.336,0 6.0156,-1.4023 13.211,-2.625 20.809,-3.5391 6.9414,-0.82813 13.844,-1.3672 20.52,-1.6016 0.54297,-0.0234 1.1133,0.34375 1.3477,0.92578 10.195,25.023 29.566,39.676 38.449,45.363 -1.0312,53.211 -39.75,96.16 -87.293,96.16 z m 55.625,-83.723 c 2.6406,3.8125 1.6914,9.0469 -2.1211,11.688 -1.457,1.0117 -3.125,1.4961 -4.7734,1.4961 -2.6172,0 -5.1914,-1.2188 -6.8281,-3.4961 -0.82422,-1.0703 -5.2109,-5.957 -14.527,-3.0312 -4.4219,1.3945 -9.1406,-1.0625 -10.535,-5.4883 -1.3945,-4.4258 1.0625,-9.1406 5.4883,-10.535 17.375,-5.4609 29.105,3.3125 33.297,9.3672 z m -104.349995,13.07 c -1.6992,0 -3.4062,-0.51172 -4.875,-1.5781 -3.6914,-2.6836 -4.625,-7.7422 -2.0273,-11.492 4.1914,-6.0547 15.93,-14.836 33.300995,-9.3672 4.4258,1.3945 6.8828,6.1133 5.4883,10.535 -1.3945,4.4258 -6.1172,6.8828 -10.535,5.4883 -9.371095,-2.9492 -13.757995,2.0273 -14.542995,3.0547 -1.668,2.1836 -4.2266,3.3594 -6.8086,3.3594 z m 8.3086,-42.742 c 0,-3.7109 3.0117,-6.7227 6.7227,-6.7227 3.3281,0 4.8086,-0.39844 6.687495,-0.90234 2.2578,-0.60547 5.0703,-1.3633 10.176,-1.3633 5.1016,0 7.9141,0.75781 10.176,1.3633 1.875,0.50391 3.3594,0.90234 6.6875,0.90234 3.3203,0 4.7969,-0.39844 6.668,-0.90234 2.2578,-0.60547 5.0664,-1.3633 10.168,-1.3633 5.0977,0 7.9062,0.75781 10.16,1.3633 1.875,0.50391 3.3477,0.90234 6.668,0.90234 3.7109,0 6.7227,3.0117 6.7227,6.7227 0,3.7109 -3.0117,6.7227 -6.7227,6.7227 -5.0977,0 -7.9062,-0.75781 -10.164,-1.3672 -1.8711,-0.50391 -3.3477,-0.89844 -6.668,-0.89844 -3.3203,0 -4.8008,0.39844 -6.6719,0.90234 -2.2578,0.60547 -5.0664,1.3633 -10.164,1.3633 -5.1055,0 -7.918,-0.75781 -10.176,-1.3633 -1.875,-0.50391 -3.3594,-0.90234 -6.6875,-0.90234 -3.332,0 -4.8125,0.39844 -6.6875,0.90234 -2.2578,0.60547 -5.070295,1.3633 -10.175995,1.3633 -3.707,0 -6.7188,-3.0117 -6.7188,-6.7227 z m 91.558995,83.223 c -1.6562,2.1055 -4.1211,3.2031 -6.6055,3.2031 -1.8164,0 -3.6523,-0.58984 -5.1914,-1.8008 -4.1719,-3.2852 -7.2812,-6.6016 -9.6133,-9.5664 -3.5977,0.44922 -7.0117,0.69922 -10.184,0.69922 -7.8359,0 -14.371,-1.3789 -19.547,-4.1211 -7.2695,3.8516 -17.242,4.9688 -29.714995,3.4062 -2.332,2.9688 -5.4492,6.2891 -9.6289,9.5781 -1.5391,1.2109 -3.3711,1.8008 -5.1914,1.8008 -2.4844,0 -4.9492,-1.0977 -6.6055,-3.2031 -2.8672,-3.6445 -2.2383,-8.9258 1.4062,-11.797 4.2344,-3.332 6.8477,-6.6133 8.3867,-8.9492 0,-0.54688 -0.0234,-1.0898 0.0508,-1.6445 0.91797,-6.8945 7.2891,-11.715 14.155995,-10.824 12.082,1.6094 15.496,-0.73047 15.531,-0.75 2.8711,-3.1211 7.1406,-4.9805 11.598,-4.9805 h 0.008 c 4.4531,0 8.7227,1.8555 11.723,5.0898 -0.0391,-0.0469 1.4688,1.2109 7.7188,1.2109 2.0508,0 4.5859,-0.15234 7.6953,-0.57031 6.8906,-0.88281 13.238,3.9297 14.156,10.824 0.0742,0.55469 0.0508,1.0977 0.0508,1.6445 1.5391,2.3359 4.1523,5.6172 8.3867,8.9492 3.6523,2.875 4.2812,8.1562 1.4141,11.801 z m 190.18,136.19 c -8.0938,-52.609 -50.996,-92.922 -102.7,-92.922 -51.704,0 -94.602,40.316 -102.7,92.922 -13.953,2.4297 -24.68,15.969 -24.68,32.305 0,18.051 13.082,32.734 29.16,32.734 1.3242,0 2.6172,-0.13281 3.8984,-0.32812 16.621,37.777 52.598,64.07 94.32,64.07 41.727,0 77.699,-26.293 94.32,-64.07 1.2773,0.19141 2.5703,0.32812 3.8945,0.32812 16.078,0 29.16,-14.684 29.16,-32.734 0,-16.336 -10.727,-29.871 -24.68,-32.305 z m -213.27,32.301 c 0,-5.8672 2.6406,-11.051 6.418,-13.812 0.0469,10.227 1.4727,20.094 3.9688,29.492 -5.875,-1.2266 -10.387,-7.7617 -10.387,-15.68 z m 110.58,-108.43 c 34.68,0 64.617,21.91 78.723,53.5 h -5.043 c -12.207,0 -23.707,-5.3594 -31.555,-14.707 l -7.5625,-9 c -1.8047,-2.1484 -4.5625,-3.2383 -7.3516,-2.9453 -2.7891,0.30469 -5.2383,1.9844 -6.5312,4.4688 -7.125,13.684 -21.133,22.18 -36.555,22.18 l -7.2344,0.004 c 3.1523,-3.1367 6.0234,-6.6133 8.4453,-10.5 2.457,-3.9375 1.2539,-9.1172 -2.6797,-11.57 -3.9336,-2.457 -9.1172,-1.2578 -11.57,2.6797 -7.5781,12.141 -20.648,19.391 -34.965,19.391 h -14.844 c 14.105,-31.586 44.043,-53.5 78.723,-53.5 z m 0,188.11 c -48.184,0 -87.387,-42.191 -87.387,-94.051 0,-8.2188 1.0859,-16.152 2.9336,-23.758 h 68.582 c 17.613,0 33.902,-7.8711 44.785,-21.113 l 0.35156,0.41406 c 11.047,13.152 27.234,20.699 44.418,20.699 h 10.77 c 1.8477,7.6055 2.9336,15.535 2.9336,23.758 0,51.859 -39.199,94.051 -87.387,94.051 z m 100.2,-64.008 c 2.4922,-9.3945 3.918,-19.262 3.9648,-29.48 3.7734,2.7617 6.4141,7.9453 6.4141,13.812 0,7.7695 -4.5859,14.398 -10.379,15.668 z m -54.691,-22.414 c 0,6.1602 -5.0117,11.176 -11.172,11.176 -6.1602,0 -11.172,-5.0117 -11.172,-11.176 0,-6.1602 5.0117,-11.168 11.172,-11.168 6.1602,-0.004 11.172,5.0078 11.172,11.168 z m -79.836,11.172 c -6.1602,0 -11.172,-5.0117 -11.172,-11.176 0,-6.1602 5.0117,-11.168 11.172,-11.168 6.1602,0 11.172,5.0117 11.172,11.168 0,6.1641 -5.0156,11.176 -11.172,11.176 z m 60.988,25.301 c 0,10.156 -11.211,17.527 -26.656,17.527 -15.445,0 -26.656,-7.3711 -26.656,-17.527 0,-4.6367 3.7578,-8.3984 8.3984,-8.3984 4.1172,0 7.5391,2.957 8.2617,6.8633 1.2344,0.83594 4.6719,2.2656 9.9961,2.2656 5.3203,0 8.7617,-1.4258 9.9961,-2.2656 0.72266,-3.9062 4.1445,-6.8633 8.2578,-6.8633 4.6406,-0.004 8.4023,3.7617 8.4023,8.3984 z"
     id="path492"
     style="fill:#ffffff;fill-opacity:1" />
</svg>
