<?xml version="1.0" encoding="UTF-8" standalone="no"?>
<svg
   xmlns:dc="http://purl.org/dc/elements/1.1/"
   xmlns:cc="http://creativecommons.org/ns#"
   xmlns:rdf="http://www.w3.org/1999/02/22-rdf-syntax-ns#"
   xmlns:svg="http://www.w3.org/2000/svg"
   xmlns="http://www.w3.org/2000/svg"
   xmlns:sodipodi="http://sodipodi.sourceforge.net/DTD/sodipodi-0.dtd"
   xmlns:inkscape="http://www.inkscape.org/namespaces/inkscape"
   width="685"
   height="685"
   version="1.1"
   viewBox="0 0 513.75001 513.75001"
   id="svg188"
   sodipodi:docname="Healer.svg"
   inkscape:export-filename="/home/marek/Downloads/Healer.png"
   inkscape:export-xdpi="28.029198"
   inkscape:export-ydpi="28.029198"
   inkscape:version="1.0.2 (e86c870879, 2021-01-15)">
  <metadata
     id="metadata194">
    <rdf:RDF>
      <cc:Work
         rdf:about="">
        <dc:format>image/svg+xml</dc:format>
        <dc:type
           rdf:resource="http://purl.org/dc/dcmitype/StillImage" />
        <dc:title></dc:title>
      </cc:Work>
    </rdf:RDF>
  </metadata>
  <defs
     id="defs192" />
  <sodipodi:namedview
     pagecolor="#ffffff"
     bordercolor="#666666"
     borderopacity="1"
     objecttolerance="10"
     gridtolerance="10"
     guidetolerance="10"
     inkscape:pageopacity="0"
     inkscape:pageshadow="2"
     inkscape:window-width="1920"
     inkscape:window-height="990"
     id="namedview190"
     showgrid="false"
     units="px"
     inkscape:pagecheckerboard="true"
     inkscape:zoom="0.70039701"
     inkscape:cx="438.17238"
     inkscape:cy="468.99662"
     inkscape:window-x="0"
     inkscape:window-y="30"
     inkscape:window-maximized="1"
     inkscape:current-layer="svg188" />
  <g
     fill-rule="evenodd"
     id="g186"
     transform="translate(-93.125095,-22.91419)"
     style="fill:#ffffff;fill-opacity:1">
    <path
       d="m 220.61,229.78 c 0,-21.57 16.621,-39.059 37.121,-39.059 h 46.668 c 20.5,0 37.121,17.488 37.121,39.059 v 64.727 c 0,3.0781 2.375,5.5781 5.3008,5.5781 h 61.516 c 20.504,0 37.121,17.484 37.121,39.059 v 49.098 c 0,21.574 -16.617,39.062 -37.121,39.062 h -61.516 c -2.9258,0 -5.3008,2.4961 -5.3008,5.5781 v 64.723 c 0,21.574 -16.621,39.059 -37.121,39.059 h -46.668 c -20.5,0 -37.121,-17.484 -37.121,-39.059 v -64.723 c 0,-3.082 -2.375,-5.5781 -5.3008,-5.5781 h -61.516 c -20.504,0 -37.121,-17.488 -37.121,-39.062 v -49.098 c 0,-21.574 16.617,-39.059 37.121,-39.059 h 61.516 c 2.9258,0 5.3008,-2.5 5.3008,-5.5781 z m 37.121,-5.582 c -2.9297,0 -5.3008,2.5 -5.3008,5.582 v 64.727 c 0,21.566 -16.621,39.055 -37.121,39.055 h -61.516 c -2.9297,0 -5.3047,2.5 -5.3047,5.582 v 49.098 c 0,3.082 2.375,5.582 5.3047,5.582 h 61.516 c 20.5,0 37.121,17.488 37.121,39.059 v 64.723 c 0,3.082 2.3711,5.582 5.3008,5.582 h 46.668 c 2.9297,0 5.3008,-2.5 5.3008,-5.582 v -64.723 c 0,-21.57 16.621,-39.059 37.121,-39.059 h 61.516 c 2.9297,0 5.3047,-2.5 5.3047,-5.582 v -49.098 c 0,-3.082 -2.375,-5.582 -5.3047,-5.582 h -61.516 c -20.5,0 -37.121,-17.488 -37.121,-39.055 V 229.78 c 0,-3.082 -2.3711,-5.582 -5.3008,-5.582 z"
       id="path180"
       style="fill:#ffffff;fill-opacity:1" />
    <path
       d="m 495.3,123.77 c -14.645,0 -26.516,12.492 -26.516,27.898 v 18.973 h -18.031 c -14.645,0 -26.516,12.488 -26.516,27.898 v 17.855 c 0,15.406 11.871,27.898 26.516,27.898 h 18.031 v 18.969 c 0,15.41 11.871,27.902 26.516,27.902 h 16.973 c 14.641,0 26.512,-12.492 26.512,-27.902 v -18.969 h 18.031 c 14.645,0 26.512,-12.492 26.512,-27.898 v -17.855 c 0,-15.41 -11.867,-27.898 -26.512,-27.898 h -18.031 v -18.973 c 0,-15.406 -11.871,-27.898 -26.512,-27.898 z"
       id="path182"
       style="fill:#ffffff;fill-opacity:1" />
    <path
       d="m 357.43,23.332 c -14.645,0 -26.516,12.492 -26.516,27.898 v 18.973 h -18.035 c -14.645,0 -26.516,12.492 -26.516,27.898 v 17.855 c 0,15.406 11.871,27.898 26.516,27.898 h 18.035 v 18.969 c 0,15.41 11.871,27.898 26.516,27.898 h 16.969 c 14.645,0 26.516,-12.488 26.516,-27.898 v -18.969 h 18.027 c 14.645,0 26.516,-12.492 26.516,-27.898 V 98.101 c 0,-15.406 -11.871,-27.898 -26.516,-27.898 H 400.915 V 51.23 c 0,-15.406 -11.871,-27.898 -26.516,-27.898 z"
       id="path184"
       style="fill:#ffffff;fill-opacity:1" />
  </g>
</svg>
