<?xml version="1.0" encoding="UTF-8" standalone="no"?>
<svg
   width="673"
   height="673"
   version="1.1"
   viewBox="0 0 504.75 504.75"
   id="svg171"
   sodipodi:docname="Holy capturing.svg"
   inkscape:export-filename="Holy capturing.png"
   inkscape:export-xdpi="7.1300001"
   inkscape:export-ydpi="7.1300001"
   inkscape:version="1.2.2 (b0a8486541, 2022-12-01)"
   xmlns:inkscape="http://www.inkscape.org/namespaces/inkscape"
   xmlns:sodipodi="http://sodipodi.sourceforge.net/DTD/sodipodi-0.dtd"
   xmlns="http://www.w3.org/2000/svg"
   xmlns:svg="http://www.w3.org/2000/svg">
  <sodipodi:namedview
     id="namedview173"
     pagecolor="#ffffff"
     bordercolor="#666666"
     borderopacity="1.0"
     inkscape:showpageshadow="2"
     inkscape:pageopacity="0.0"
     inkscape:pagecheckerboard="true"
     inkscape:deskcolor="#d1d1d1"
     inkscape:document-units="pt"
     showgrid="false"
     inkscape:zoom="0.43928571"
     inkscape:cx="-344.87805"
     inkscape:cy="418.86179"
     inkscape:window-width="1920"
     inkscape:window-height="1003"
     inkscape:window-x="0"
     inkscape:window-y="27"
     inkscape:window-maximized="1"
     inkscape:current-layer="svg171" />
  <defs
     id="defs65">
    <symbol
       id="u"
       overflow="visible">
      <path
         d="M 16.5,-0.98438 C 15.64453,-0.54688 14.7539,-0.21876 13.8281,0 c -0.91797,0.22656 -1.875,0.34375 -2.875,0.34375 -2.9922,0 -5.3594,-0.83203 -7.1094,-2.5 -1.75,-1.6758 -2.625,-3.9414 -2.625,-6.7969 0,-2.875 0.875,-5.1445 2.625,-6.8125 1.75,-1.6758 4.1172,-2.5156 7.1094,-2.5156 1,0 1.957,0.11719 2.875,0.34375 0.92578,0.21875 1.8164,0.55469 2.6719,1 v 3.7188 c -0.86719,-0.59375 -1.7148,-1.0234 -2.5469,-1.2969 -0.83594,-0.26953 -1.7109,-0.40625 -2.625,-0.40625 -1.6562,0 -2.9609,0.53125 -3.9062,1.5938 -0.9375,1.0547 -1.4062,2.5117 -1.4062,4.375 0,1.8438 0.46875,3.2969 1.4062,4.3594 0.94531,1.0625 2.25,1.5938 3.9062,1.5938 0.91406,0 1.7891,-0.13281 2.625,-0.40625 0.83203,-0.28125 1.6797,-0.71094 2.5469,-1.2969 z"
         id="path2" />
    </symbol>
    <symbol
       id="d"
       overflow="visible">
      <path
         d="m 12.078,-9.7969 c -0.38672,-0.17578 -0.76562,-0.30469 -1.1406,-0.39062 -0.36719,-0.08203 -0.73438,-0.125 -1.1094,-0.125 -1.1055,0 -1.9609,0.35547 -2.5625,1.0625 -0.59375,0.71094 -0.89062,1.7266 -0.89062,3.0469 V -2e-5 h -4.3125 v -13.469 h 4.3125 v 2.2188 c 0.55078,-0.88281 1.1875,-1.5312 1.9062,-1.9375 0.7187,-0.4063 1.5781,-0.60938 2.5781,-0.60938 0.14453,0 0.30078,0.01172 0.46875,0.03125 0.16406,0.01172 0.41016,0.03906 0.73438,0.07813 z"
         id="path5" />
    </symbol>
    <symbol
       id="a"
       overflow="visible">
      <path
         d="m 15.516,-6.7656 v 1.2188 H 5.454 c 0.10156,1.0117 0.46875,1.7734 1.0938,2.2812 0.625,0.5 1.4922,0.75 2.6094,0.75 0.90625,0 1.832,-0.12891 2.7812,-0.39062 0.95703,-0.26953 1.9375,-0.67969 2.9375,-1.2344 v 3.3281 c -1.0234,0.38672 -2.043,0.67188 -3.0625,0.85938 -1.0117,0.19531 -2.0273,0.29688 -3.0469,0.29688 -2.4375,0 -4.3359,-0.61328 -5.6875,-1.8438 -1.3438,-1.2383 -2.0156,-2.9766 -2.0156,-5.2188 0,-2.1953 0.66016,-3.9258 1.9844,-5.1875 1.3203,-1.2578 3.1484,-1.8906 5.4844,-1.8906 2.1133,0 3.8047,0.64062 5.0781,1.9219 1.2695,1.2734 1.9062,2.9766 1.9062,5.1094 z m -4.4219,-1.4375 c 0,-0.8125 -0.24219,-1.4688 -0.71875,-1.9688 -0.48047,-0.50781 -1.1055,-0.76562 -1.875,-0.76562 -0.83594,0 -1.5117,0.24219 -2.0312,0.71875 -0.52344,0.46875 -0.84375,1.1406 -0.96875,2.0156 z"
         id="path8" />
    </symbol>
    <symbol
       id="k"
       overflow="visible">
      <path
         d="m 8.1094,-6.0625 c -0.90625,0 -1.5859,0.15625 -2.0312,0.46875 -0.44922,0.30469 -0.67188,0.75 -0.67188,1.3438 0,0.54297 0.17969,0.96875 0.54688,1.2812 0.36328,0.30469 0.86719,0.45312 1.5156,0.45312 0.8125,0 1.4922,-0.28516 2.0469,-0.85938 0.55078,-0.58203 0.82812,-1.3125 0.82812,-2.1875 v -0.5 z m 6.5781,-1.625 V 0 h -4.3438 v -2 c -0.58594,0.82422 -1.2344,1.4219 -1.9531,1.7969 -0.71875,0.36328 -1.5938,0.54688 -2.625,0.54688 -1.3984,0 -2.5312,-0.40625 -3.4062,-1.2188 -0.86719,-0.8125 -1.2969,-1.8672 -1.2969,-3.1719 0,-1.5703 0.53906,-2.7266 1.625,-3.4688 1.082,-0.73828 2.7852,-1.1094 5.1094,-1.1094 h 2.5469 v -0.32812 c 0,-0.6875 -0.27344,-1.1875 -0.8125,-1.5 -0.53125,-0.32031 -1.3711,-0.48438 -2.5156,-0.48438 -0.91797,0 -1.7734,0.09375 -2.5625,0.28125 -0.79297,0.1875 -1.5312,0.46484 -2.2188,0.82812 v -3.2812 c 0.92578,-0.21875 1.8516,-0.38281 2.7812,-0.5 0.92578,-0.125 1.8516,-0.1875 2.7812,-0.1875 2.4375,0 4.1914,0.48047 5.2656,1.4375 1.082,0.96094 1.625,2.5156 1.625,4.6719 z"
         id="path11" />
    </symbol>
    <symbol
       id="c"
       overflow="visible">
      <path
         d="m 6.7656,-17.297 v 3.8281 h 4.4375 v 3.0781 H 6.7656 v 5.7188 c 0,0.625 0.125,1.0469 0.375,1.2656 0.25,0.2187 0.74219,0.32812 1.4844,0.32812 h 2.2031 v 3.0781 H 7.1406 c -1.6992,0 -2.9023,-0.35156 -3.6094,-1.0625 -0.71094,-0.70703 -1.0625,-1.9102 -1.0625,-3.6094 v -5.7188 H 0.3281 v -3.0781 h 2.1406 v -3.8281 z"
         id="path14" />
    </symbol>
    <symbol
       id="j"
       overflow="visible">
      <path
         d="m 11.234,-11.5 v -7.2031 h 4.3281 V -1e-4 H 11.234 v -1.9531 c -0.59375,0.80469 -1.25,1.3867 -1.9688,1.75 -0.71094,0.36328 -1.5312,0.54688 -2.4688,0.54688 -1.668,0 -3.0312,-0.65625 -4.0938,-1.9688 -1.0625,-1.3203 -1.5938,-3.0195 -1.5938,-5.0938 0,-2.0703 0.53125,-3.7695 1.5938,-5.0938 1.0625,-1.3203 2.4258,-1.9844 4.0938,-1.9844 0.92578,0 1.75,0.1875 2.4688,0.5625 0.7188,0.375 1.375,0.95312 1.9688,1.7344 z m -2.8438,8.7188 c 0.92578,0 1.6289,-0.33203 2.1094,-1 0.48828,-0.67578 0.73438,-1.6562 0.73438,-2.9375 0,-1.2813 -0.24609,-2.2578 -0.73438,-2.9375 -0.48047,-0.67578 -1.1836,-1.0156 -2.1094,-1.0156 -0.91797,0 -1.6211,0.33984 -2.1094,1.0156 C 5.80033,-8.97651 5.56205,-8 5.56205,-6.7187 c 0,1.2813 0.23828,2.2617 0.71875,2.9375 0.48828,0.66797 1.1914,1 2.1094,1 z"
         id="path17" />
    </symbol>
    <symbol
       id="i"
       overflow="visible">
      <path
         d="m 9.2344,-2.7812 c 0.91406,0 1.6172,-0.33203 2.1094,-1 0.48828,-0.67578 0.73438,-1.6562 0.73438,-2.9375 0,-1.2813 -0.24609,-2.2578 -0.73438,-2.9375 -0.49219,-0.67578 -1.1953,-1.0156 -2.1094,-1.0156 -0.91797,0 -1.625,0.33984 -2.125,1.0156 C 6.61721,-8.97651 6.37502,-8 6.37502,-6.7187 c 0,1.2734 0.24219,2.2461 0.73438,2.9219 0.5,0.67969 1.207,1.0156 2.125,1.0156 z M 6.375,-11.5 c 0.59375,-0.78125 1.25,-1.3594 1.9688,-1.7344 0.7188,-0.375 1.5469,-0.5625 2.4844,-0.5625 1.6641,0 3.0312,0.66406 4.0938,1.9844 1.0625,1.3242 1.5938,3.0234 1.5938,5.0938 0,2.0742 -0.53125,3.7734 -1.5938,5.0938 -1.0625,1.3125 -2.4297,1.9688 -4.0938,1.9688 -0.9375,0 -1.7656,-0.18359 -2.4844,-0.54688 -0.71875,-0.375 -1.375,-0.95703 -1.9688,-1.75 V 1.2e-4 H 2.0625 v -18.703 H 6.375 Z"
         id="path20" />
    </symbol>
    <symbol
       id="h"
       overflow="visible">
      <path
         d="m 0.29688,-13.469 h 4.3125 l 3.6094,9.1406 3.0781,-9.1406 h 4.3125 l -5.6719,14.75 c -0.5625,1.4883 -1.2266,2.5312 -1.9844,3.125 -0.76172,0.60156 -1.7617,0.90625 -3,0.90625 h -2.4844 v -2.8281 h 1.3438 c 0.72656,0 1.2578,-0.11719 1.5938,-0.34375 0.33203,-0.23047 0.59375,-0.64844 0.78125,-1.25 l 0.10938,-0.375 z"
         id="path23" />
    </symbol>
    <symbol
       id="g"
       overflow="visible">
      <path
         d="m 9.4531,-11 c 0.72656,0 1.2812,-0.16016 1.6562,-0.48438 0.375,-0.32031 0.5625,-0.79688 0.5625,-1.4219 0,-0.61328 -0.1875,-1.082 -0.5625,-1.4062 -0.375,-0.32031 -0.92969,-0.48438 -1.6562,-0.48438 H 6.8906 v 3.7969 z m 0.15625,7.8438 c 0.92578,0 1.625,-0.19141 2.0938,-0.57812 0.46875,-0.39453 0.70312,-0.98828 0.70312,-1.7812 0,-0.78125 -0.23438,-1.3633 -0.70312,-1.75 -0.46094,-0.39453 -1.1562,-0.59375 -2.0938,-0.59375 h -2.7188 v 4.7031 z m 4.2969,-6.4531 c 1,0.29297 1.7695,0.82812 2.3125,1.6094 0.53906,0.77344 0.8125,1.7266 0.8125,2.8594 0,1.7305 -0.58594,3.0234 -1.75,3.875 -1.168,0.84375 -2.9492,1.2656 -5.3438,1.2656 h -7.6719 v -17.953 h 6.9375 c 2.5,0 4.3047,0.38281 5.4219,1.1406 1.1133,0.75 1.6719,1.9531 1.6719,3.6094 0,0.875 -0.20312,1.6211 -0.60938,2.2344 -0.40625,0.61719 -1,1.0703 -1.7812,1.3594 z"
         id="path26" />
    </symbol>
    <symbol
       id="b"
       overflow="visible">
      <path
         d="m 8.4844,-10.719 c -0.96094,0 -1.6875,0.34375 -2.1875,1.0312 -0.5,0.68745 -0.75,1.6797 -0.75,2.9688 0,1.293 0.25,2.2812 0.75,2.9688 0.5,0.67969 1.2266,1.0156 2.1875,1.0156 0.9375,0 1.6484,-0.33594 2.1406,-1.0156 0.5,-0.6875 0.75,-1.6758 0.75,-2.9688 0,-1.2891 -0.25,-2.2812 -0.75,-2.9688 -0.49219,-0.6875 -1.2031,-1.0312 -2.1406,-1.0312 z m 0,-3.0781 c 2.3125,0 4.1172,0.625 5.4219,1.875 1.3008,1.25 1.9531,2.9844 1.9531,5.2031 0,2.2109 -0.65234,3.9375 -1.9531,5.1875 -1.3047,1.25 -3.1094,1.875 -5.4219,1.875 -2.3359,0 -4.1562,-0.625 -5.4688,-1.875 -1.3047,-1.25 -1.9531,-2.9766 -1.9531,-5.1875 0,-2.2188 0.64844,-3.9531 1.9531,-5.2031 1.3125,-1.25 3.1328,-1.875 5.4688,-1.875 z"
         id="path29" />
    </symbol>
    <symbol
       id="f"
       overflow="visible">
      <path
         d="M 15.609,-8.2031 V 0 h -4.3281 v -6.2812 c 0,-1.1562 -0.02734,-1.9531 -0.07813,-2.3906 -0.05469,-0.44531 -0.14062,-0.77344 -0.26562,-0.98438 -0.17969,-0.28125 -0.41406,-0.5 -0.70312,-0.65625 -0.28125,-0.15625 -0.60547,-0.23438 -0.96875,-0.23438 -0.90625,0 -1.6172,0.35156 -2.125,1.0469 -0.51172,0.6875 -0.76562,1.6484 -0.76562,2.875 V 9e-5 h -4.3125 v -13.469 h 4.3125 v 1.9688 c 0.64453,-0.78125 1.332,-1.3594 2.0625,-1.7344 0.72656,-0.375 1.5352,-0.5625 2.4219,-0.5625 1.5508,0 2.7266,0.48047 3.5312,1.4375 0.8125,0.94922 1.2188,2.3359 1.2188,4.1562 z"
         id="path32" />
    </symbol>
    <symbol
       id="t"
       overflow="visible">
      <path
         d="M 11.234,-2.2812 C 10.64025,-1.49995 9.984,-0.9218 9.2652,-0.5468 8.55426,-0.17961 7.734,8e-5 6.7964,8e-5 c -1.6484,0 -3.0078,-0.64453 -4.0781,-1.9375 -1.0742,-1.3008 -1.6094,-2.9531 -1.6094,-4.9531 0,-2.0078 0.53516,-3.6562 1.6094,-4.9375 1.0703,-1.2891 2.4297,-1.9375 4.0781,-1.9375 0.9375,0 1.7578,0.1875 2.4688,0.5625 0.71875,0.36719 1.375,0.94531 1.9688,1.7344 v -2 h 4.3281 v 12.109 c 0,2.1641 -0.6875,3.8164 -2.0625,4.9531 -1.3672,1.1445 -3.3438,1.7188 -5.9375,1.7188 -0.84375,0 -1.6641,-0.0625 -2.4531,-0.1875 C 4.32775,4.99978 3.5387,4.80056 2.7496,4.53103 v -3.3594 c 0.75781,0.4375 1.5,0.75781 2.2188,0.96875 0.71875,0.21875 1.4414,0.32812 2.1719,0.32812 1.4141,0 2.4531,-0.3125 3.1094,-0.9375 0.65625,-0.61719 0.98438,-1.5781 0.98438,-2.8906 z m -2.8438,-8.3906 c -0.88672,0 -1.5781,0.33594 -2.0781,1 -0.5,0.65625 -0.75,1.5859 -0.75,2.7812 0,1.2422 0.23828,2.1797 0.71875,2.8125 0.48828,0.63672 1.1914,0.95312 2.1094,0.95312 0.89453,0 1.5938,-0.32812 2.0938,-0.98438 0.5,-0.65626 0.75,-1.582 0.75,-2.7812 0,-1.1953 -0.25,-2.125 -0.75,-2.7812 -0.5,-0.66406 -1.1992,-1 -2.0938,-1 z"
         id="path35" />
    </symbol>
    <symbol
       id="s"
       overflow="visible">
      <path
         d="M 2.0625,-18.703 H 6.375 V 0 H 2.0625 Z"
         id="path38" />
    </symbol>
    <symbol
       id="e"
       overflow="visible">
      <path
         d="m 14.547,-11.234 c 0.53906,-0.83203 1.1875,-1.4688 1.9375,-1.9062 0.75,-0.4374 1.5781,-0.65625 2.4844,-0.65625 1.5391,0 2.7188,0.48047 3.5312,1.4375 0.8125,0.94922 1.2188,2.3359 1.2188,4.1562 v 8.2031 h -4.3438 v -7.0156 c 0.0078,-0.10156 0.01563,-0.21094 0.01563,-0.32812 0.0078,-0.11328 0.01563,-0.27344 0.01563,-0.48438 0,-0.95703 -0.14062,-1.6484 -0.42188,-2.0781 -0.28125,-0.42578 -0.73438,-0.64062 -1.3594,-0.64062 -0.8125,0 -1.4453,0.33984 -1.8906,1.0156 -0.44922,0.66797 -0.67969,1.6406 -0.6875,2.9219 v 6.6094 h -4.3281 v -7.0156 c 0,-1.5 -0.13281,-2.4609 -0.39062,-2.8906 -0.26172,-0.42578 -0.71875,-0.64062 -1.375,-0.64062 -0.82422,0 -1.4609,0.33984 -1.9062,1.0156 -0.44922,0.67969 -0.67188,1.6484 -0.67188,2.9062 v 6.625 h -4.3281 v -13.469 h 4.3281 v 1.9688 c 0.53125,-0.75781 1.1328,-1.332 1.8125,-1.7188 0.6875,-0.38281 1.4414,-0.57812 2.2656,-0.57812 0.9375,0 1.7578,0.23047 2.4688,0.6875 0.71875,0.44922 1.2578,1.0742 1.625,1.875 z"
         id="path41" />
    </symbol>
    <symbol
       id="r"
       overflow="visible">
      <path
         d="m 10.938,-18.703 v 2.8125 H 8.5474 c -0.60547,0 -1.0312,0.11719 -1.2812,0.34375 -0.24219,0.21875 -0.35938,0.60156 -0.35938,1.1406 v 0.9375 h 3.6875 v 3.0781 h -3.6875 v 10.391 h -4.2969 v -10.391 h -2.1406 v -3.0781 h 2.1406 v -0.9375 c 0,-1.4688 0.40625,-2.5508 1.2188,-3.25 0.82031,-0.69531 2.0938,-1.0469 3.8125,-1.0469 z"
         id="path44" />
    </symbol>
    <symbol
       id="q"
       overflow="visible">
      <path
         d="M 15.609,-8.2031 V 0 h -4.3281 v -6.25 c 0,-1.1758 -0.02734,-1.9844 -0.07813,-2.4219 -0.05469,-0.44531 -0.14062,-0.77344 -0.26562,-0.98438 -0.17969,-0.28125 -0.41406,-0.5 -0.70312,-0.65625 -0.28125,-0.15625 -0.60547,-0.23438 -0.96875,-0.23438 -0.90625,0 -1.6172,0.35156 -2.125,1.0469 -0.51172,0.6875 -0.76562,1.6484 -0.76562,2.875 v 6.625 h -4.3125 v -18.703 h 4.3125 v 7.2031 c 0.64453,-0.78125 1.332,-1.3594 2.0625,-1.7344 0.72656,-0.375 1.5352,-0.5625 2.4219,-0.5625 1.5508,0 2.7266,0.48047 3.5312,1.4375 0.8125,0.94922 1.2188,2.3359 1.2188,4.1562 z"
         id="path47" />
    </symbol>
    <symbol
       id="p"
       overflow="visible">
      <path
         d="m 2.2656,-17.953 h 5.1719 l 6.5156,12.312 v -12.312 h 4.3906 V 0 H 13.1718 L 6.6562,-12.312 V 0 H 2.2656 Z"
         id="path50" />
    </symbol>
    <symbol
       id="o"
       overflow="visible">
      <path
         d="m 1.9219,-5.25 v -8.2188 H 6.25 v 1.3438 c 0,0.73047 -0.00781,1.6484 -0.015625,2.75 v 2.2031 c 0,1.0859 0.023437,1.8672 0.078125,2.3438 0.050781,0.48047 0.14453,0.82812 0.28125,1.0469 0.17578,0.28125 0.40625,0.5 0.6875,0.65625 0.28906,0.14844 0.61719,0.21875 0.98438,0.21875 0.90625,0 1.6133,-0.34375 2.125,-1.0312 0.50781,-0.69531 0.76562,-1.6562 0.76562,-2.875 v -6.6562 h 4.3125 V 4e-4 h -4.3125 v -1.9531 c -0.64844,0.79297 -1.3359,1.375 -2.0625,1.75 -0.71875,0.36328 -1.5156,0.54688 -2.3906,0.54688 -1.5625,0 -2.75,-0.47266 -3.5625,-1.4219 -0.8125,-0.95703 -1.2188,-2.3477 -1.2188,-4.1719 z"
         id="path53" />
    </symbol>
    <symbol
       id="n"
       overflow="visible">
      <path
         d="m 2.2656,-17.953 h 7.6719 c 2.2891,0 4.0469,0.51172 5.2656,1.5312 1.2188,1.0117 1.8281,2.4531 1.8281,4.3281 0,1.8867 -0.60938,3.3359 -1.8281,4.3438 -1.2188,1.0117 -2.9766,1.5156 -5.2656,1.5156 H 6.8906 V 1e-4 h -4.625 z m 4.625,3.3594 v 5.0156 h 2.5625 c 0.89453,0 1.5859,-0.21875 2.0781,-0.65625 0.48828,-0.4375 0.73438,-1.0547 0.73438,-1.8594 0,-0.80078 -0.24609,-1.4141 -0.73438,-1.8438 -0.49219,-0.4375 -1.1836,-0.65625 -2.0781,-0.65625 z"
         id="path56" />
    </symbol>
    <symbol
       id="m"
       overflow="visible">
      <path
         d="M 2.0625,-13.469 H 6.375 V -0.235 C 6.375,1.5658 5.94141,2.9408 5.0781,3.89 4.21091,4.83531 2.957,5.3119 1.3125,5.3119 h -2.125 V 2.4838 h 0.73438 c 0.82031,0 1.3828,-0.1875 1.6875,-0.5625 C 1.91016,1.55411 2.0625,0.8354 2.0625,-0.2349 Z m 0,-5.2344 H 6.375 v 3.5 H 2.0625 Z"
         id="path59" />
    </symbol>
    <symbol
       id="l"
       overflow="visible">
      <path
         d="m 12.953,-13.047 v 3.5156 c -0.58594,-0.40625 -1.1719,-0.70312 -1.7656,-0.89062 -0.59375,-0.19531 -1.2031,-0.29688 -1.8281,-0.29688 -1.2109,0 -2.1484,0.35547 -2.8125,1.0625 -0.66797,0.69922 -1,1.6797 -1,2.9375 0,1.2617 0.33203,2.2422 1,2.9375 0.66406,0.69922 1.6016,1.0469 2.8125,1.0469 0.66406,0 1.3008,-0.097656 1.9062,-0.29688 0.61328,-0.19531 1.1758,-0.49219 1.6875,-0.89062 v 3.5312 c -0.67969,0.24219 -1.3672,0.42188 -2.0625,0.54688 -0.6875,0.125 -1.3828,0.1875 -2.0781,0.1875 -2.4297,0 -4.3281,-0.61719 -5.7031,-1.8594 -1.3672,-1.25 -2.0469,-2.9844 -2.0469,-5.2031 0,-2.2187 0.67969,-3.9531 2.0469,-5.2031 1.375,-1.25 3.2734,-1.875 5.7031,-1.875 0.70703,0 1.3984,0.0625 2.0781,0.1875 0.6875,0.125 1.375,0.3125 2.0625,0.5625 z"
         id="path62" />
    </symbol>
  </defs>
  <g
     id="g5571"
     transform="translate(-97.62655,-27.626)"
     style="fill:#ffffff;fill-opacity:1">
    <path
       d="m 207.65,453.9 13.398,-13.398 4.4531,-26.277 -10.285,-10.285 -26.277,4.4531 -13.398,13.398 26.277,5.2773 0.55469,0.55469 z"
       id="path67"
       style="fill:#ffffff;fill-opacity:1" />
    <path
       d="m 225.17,436.38 13.398,-13.398 4.4531,-26.277 -10.285,-10.285 -26.277,4.4531 -13.398,13.398 26.277,5.2773 0.55469,0.55469 z"
       id="path69"
       style="fill:#ffffff;fill-opacity:1" />
    <path
       d="m 245.34,375.02 222.51,-222.51 8.8945,8.8945 -222.51,222.51 z"
       id="path71"
       style="fill:#ffffff;fill-opacity:1" />
    <path
       d="m 451.7,134.86 72.762,-28.766 -28.766,72.762 -30.203,-13.793 z"
       id="path73"
       style="fill:#ffffff;fill-opacity:1" />
    <path
       d="m 242.7,418.85 13.398,-13.398 -0.41016,-31.145 -0.55469,-0.55469 -31.145,-0.41016 -13.398,13.398 26.277,5.2773 0.55469,0.55469 z"
       id="path75"
       style="fill:#ffffff;fill-opacity:1" />
    <path
       d="m 130.11,376.36 13.398,-13.402 4.4531,-26.277 -10.281,-10.285 -26.281,4.4531 -13.398,13.402 26.277,5.2773 0.55469,0.55469 z"
       id="path77"
       style="fill:#ffffff;fill-opacity:1" />
    <path
       d="m 147.63,358.84 13.398,-13.398 4.4531,-26.277 -10.285,-10.285 -26.277,4.4531 -13.398,13.398 26.277,5.2773 0.55469,0.55469 z"
       id="path79"
       style="fill:#ffffff;fill-opacity:1" />
    <path
       d="m 167.8,297.48 222.51,-222.51 8.8945,8.8945 -222.51,222.51 z"
       id="path81"
       style="fill:#ffffff;fill-opacity:1" />
    <path
       d="M 374.16,57.328 446.922,28.562 418.156,101.324 387.953,87.531 Z"
       id="path83"
       style="fill:#ffffff;fill-opacity:1" />
    <path
       d="m 165.16,341.31 13.398,-13.402 -0.41016,-31.145 -0.55469,-0.55469 -31.145,-0.41016 -13.398,13.402 26.273,5.2773 0.55859,0.55469 z"
       id="path85"
       style="fill:#ffffff;fill-opacity:1" />
    <path
       d="m 285.19,531.44 13.398,-13.398 4.4531,-26.277 -10.285,-10.285 -26.277,4.4531 -13.398,13.398 26.277,5.2773 0.55469,0.55469 z"
       id="path87"
       style="fill:#ffffff;fill-opacity:1" />
    <path
       d="m 302.71,513.91 13.398,-13.398 4.4531,-26.277 -10.285,-10.285 -26.277,4.4531 -13.398,13.398 26.277,5.2773 0.55469,0.55469 z"
       id="path89"
       style="fill:#ffffff;fill-opacity:1" />
    <path
       d="m 322.88,452.55 222.51,-222.51 8.8945,8.8945 -222.51,222.51 z"
       id="path91"
       style="fill:#ffffff;fill-opacity:1" />
    <path
       d="m 529.24,212.4 72.762,-28.766 -28.766,72.762 -30.203,-13.793 z"
       id="path93"
       style="fill:#ffffff;fill-opacity:1" />
    <path
       d="m 320.24,496.39 13.398,-13.398 -0.41016,-31.145 -0.55469,-0.55469 -31.145,-0.41016 -13.398,13.398 26.277,5.2773 0.55469,0.55469 z"
       id="path95"
       style="fill:#ffffff;fill-opacity:1" />
  </g>
</svg>
