<?xml version="1.0" encoding="UTF-8" standalone="no"?>
<svg
   width="569"
   height="569"
   version="1.1"
   viewBox="0 0 426.75 426.75"
   id="svg316"
   sodipodi:docname="Holy world.svg"
   inkscape:export-filename="Holy world.png"
   inkscape:export-xdpi="8.4399996"
   inkscape:export-ydpi="8.4399996"
   inkscape:version="1.2.2 (b0a8486541, 2022-12-01)"
   xmlns:inkscape="http://www.inkscape.org/namespaces/inkscape"
   xmlns:sodipodi="http://sodipodi.sourceforge.net/DTD/sodipodi-0.dtd"
   xmlns="http://www.w3.org/2000/svg"
   xmlns:svg="http://www.w3.org/2000/svg">
  <sodipodi:namedview
     id="namedview318"
     pagecolor="#ffffff"
     bordercolor="#666666"
     borderopacity="1.0"
     inkscape:showpageshadow="2"
     inkscape:pageopacity="0.0"
     inkscape:pagecheckerboard="true"
     inkscape:deskcolor="#d1d1d1"
     inkscape:document-units="pt"
     showgrid="false"
     inkscape:zoom="0.31062191"
     inkscape:cx="-593.9697"
     inkscape:cy="598.79872"
     inkscape:window-width="1920"
     inkscape:window-height="1003"
     inkscape:window-x="0"
     inkscape:window-y="27"
     inkscape:window-maximized="1"
     inkscape:current-layer="svg316" />
  <defs
     id="defs232">
    <symbol
       id="s"
       overflow="visible">
      <path
         d="m 18.766,-1.125 c -0.96875,0.5 -1.9805,0.875 -3.0312,1.125 -1.043,0.25781 -2.1367,0.39062 -3.2812,0.39062 -3.3984,0 -6.0898,-0.94531 -8.0781,-2.8438 -1.9922,-1.9062 -2.9844,-4.4844 -2.9844,-7.7344 0,-3.2578 0.99219,-5.8359 2.9844,-7.7344 1.9883,-1.9062 4.6797,-2.8594 8.0781,-2.8594 1.1445,0 2.2383,0.13281 3.2812,0.39062 1.0508,0.25 2.0625,0.625 3.0312,1.125 v 4.2188 c -0.98047,-0.65625 -1.9453,-1.1406 -2.8906,-1.4531 -0.94922,-0.3125 -1.9492,-0.46875 -3,-0.46875 -1.875,0 -3.3516,0.60547 -4.4219,1.8125 -1.0742,1.1992 -1.6094,2.8555 -1.6094,4.9688 0,2.1055 0.53516,3.7617 1.6094,4.9688 1.0703,1.1992 2.5469,1.7969 4.4219,1.7969 1.0508,0 2.0508,-0.14844 3,-0.45312 0.94531,-0.3125 1.9102,-0.80078 2.8906,-1.4688 z"
         id="path175" />
    </symbol>
    <symbol
       id="b"
       overflow="visible">
      <path
         d="m 13.734,-11.141 c -0.4375,-0.19531 -0.87109,-0.34375 -1.2969,-0.4375 -0.41797,-0.10156 -0.83984,-0.15625 -1.2656,-0.15625 -1.2617,0 -2.2305,0.40625 -2.9062,1.2188 -0.67969,0.80469 -1.0156,1.9531 -1.0156,3.4531 v 7.0625 H 2.3591 v -15.312 h 4.8906 v 2.5156 c 0.625,-1 1.3438,-1.7266 2.1562,-2.1875 0.82031,-0.46875 1.8008,-0.70312 2.9375,-0.70312 0.16406,0 0.34375,0.01172 0.53125,0.03125 0.19531,0.01172 0.47656,0.03906 0.84375,0.07813 z"
         id="path178" />
    </symbol>
    <symbol
       id="a"
       overflow="visible">
      <path
         d="m 17.641,-7.7031 v 1.4062 H 6.188 c 0.125,1.1484 0.53906,2.0078 1.25,2.5781 0.70703,0.57422 1.7031,0.85938 2.9844,0.85938 1.0312,0 2.082,-0.14844 3.1562,-0.45312 1.082,-0.3125 2.1914,-0.77344 3.3281,-1.3906 v 3.7656 c -1.1562,0.4375 -2.3125,0.76562 -3.4688,0.98438 -1.1562,0.22656 -2.3125,0.34375 -3.4688,0.34375 -2.7734,0 -4.9297,-0.70312 -6.4688,-2.1094 -1.5312,-1.4062 -2.2969,-3.3789 -2.2969,-5.9219 0,-2.5 0.75391,-4.4609 2.2656,-5.8906 1.5078,-1.4375 3.582,-2.1562 6.2188,-2.1562 2.4062,0 4.332,0.73047 5.7812,2.1875 1.4453,1.4492 2.1719,3.3828 2.1719,5.7969 z m -5.0312,-1.625 c 0,-0.92578 -0.27344,-1.6719 -0.8125,-2.2344 -0.54297,-0.57031 -1.25,-0.85938 -2.125,-0.85938 -0.94922,0 -1.7188,0.26562 -2.3125,0.79688 -0.5937,0.53126 -0.96484,1.2969 -1.1094,2.2969 z"
         id="path181" />
    </symbol>
    <symbol
       id="f"
       overflow="visible">
      <path
         d="m 9.2188,-6.8906 c -1.0234,0 -1.793,0.17188 -2.3125,0.51562 -0.51172,0.34375 -0.76562,0.85547 -0.76562,1.5312 0,0.625 0.20703,1.1172 0.625,1.4688 0.41406,0.34375 0.98828,0.51562 1.7188,0.51562 0.92578,0 1.7031,-0.32812 2.3281,-0.98438 0.63281,-0.66406 0.95312,-1.4922 0.95312,-2.4844 v -0.5625 z m 7.4688,-1.8438 V 0 h -4.9219 v -2.2656 c -0.65625,0.92969 -1.3984,1.6055 -2.2188,2.0312 -0.82422,0.41406 -1.8242,0.625 -3,0.625 -1.5859,0 -2.8711,-0.45703 -3.8594,-1.375 -0.99219,-0.92578 -1.4844,-2.1289 -1.4844,-3.6094 0,-1.7891 0.61328,-3.1016 1.8438,-3.9375 1.2383,-0.84375 3.1797,-1.2656 5.8281,-1.2656 h 2.8906 v -0.39062 c 0,-0.76953 -0.30859,-1.332 -0.92188,-1.6875 -0.61719,-0.36328 -1.5703,-0.54688 -2.8594,-0.54688 -1.0547,0 -2.0312,0.10547 -2.9375,0.3125 -0.89844,0.21094 -1.7305,0.52344 -2.5,0.9375 v -3.7344 c 1.0391,-0.25 2.0859,-0.44141 3.1406,-0.57812 1.0625,-0.13281 2.125,-0.20312 3.1875,-0.20312 2.7578,0 4.75,0.54688 5.9688,1.6406 1.2266,1.0859 1.8438,2.8555 1.8438,5.3125 z"
         id="path184" />
    </symbol>
    <symbol
       id="d"
       overflow="visible">
      <path
         d="m 7.7031,-19.656 v 4.3438 H 12.75 v 3.5 H 7.7031 v 6.5 c 0,0.71094 0.14062,1.1875 0.42188,1.4375 0.28126,0.25 0.83594,0.375 1.6719,0.375 h 2.5156 v 3.5 h -4.1875 c -1.9375,0 -3.3125,-0.39844 -4.125,-1.2031 -0.80469,-0.8125 -1.2031,-2.1797 -1.2031,-4.1094 v -6.5 h -2.4219 v -3.5 h 2.4219 v -4.3438 z"
         id="path187" />
    </symbol>
    <symbol
       id="j"
       overflow="visible">
      <path
         d="m 12.766,-13.078 v -8.2031 h 4.9219 V -1e-4 H 12.766 v -2.2188 c -0.66797,0.90625 -1.4062,1.5703 -2.2188,1.9844 -0.8126,0.4141 -1.7578,0.625 -2.8281,0.625 -1.8867,0 -3.4336,-0.75 -4.6406,-2.25 -1.2109,-1.5 -1.8125,-3.4258 -1.8125,-5.7812 0,-2.3633 0.60156,-4.2969 1.8125,-5.7969 1.207,-1.5 2.7539,-2.25 4.6406,-2.25 1.0625,0 2,0.21484 2.8125,0.64062 0.82031,0.42969 1.5664,1.0859 2.2344,1.9688 z m -3.2188,9.9219 c 1.0391,0 1.8359,-0.37891 2.3906,-1.1406 0.55078,-0.76953 0.82812,-1.8828 0.82812,-3.3438 0,-1.457 -0.27734,-2.5664 -0.82812,-3.3281 -0.55469,-0.76953 -1.3516,-1.1562 -2.3906,-1.1562 -1.043,0 -1.8398,0.38672 -2.3906,1.1562 -0.55469,0.76172 -0.82812,1.8711 -0.82812,3.3281 0,1.4609 0.27344,2.5742 0.82812,3.3438 0.55078,0.76172 1.3477,1.1406 2.3906,1.1406 z"
         id="path190" />
    </symbol>
    <symbol
       id="e"
       overflow="visible">
      <path
         d="m 10.5,-3.1562 c 1.0508,0 1.8516,-0.37891 2.4062,-1.1406 0.55078,-0.76953 0.82812,-1.8828 0.82812,-3.3438 0,-1.457 -0.27734,-2.5664 -0.82812,-3.3281 -0.55469,-0.76953 -1.3555,-1.1562 -2.4062,-1.1562 -1.0547,0 -1.8594,0.38672 -2.4219,1.1562 -0.55469,0.77344 -0.82812,1.8828 -0.82812,3.3281 0,1.4492 0.27344,2.5586 0.82812,3.3281 0.5625,0.77344 1.3672,1.1562 2.4219,1.1562 z m -3.25,-9.9219 c 0.67578,-0.88281 1.4219,-1.5391 2.2344,-1.9688 0.82031,-0.42578 1.7656,-0.64062 2.8281,-0.64062 1.8945,0 3.4453,0.75 4.6562,2.25 1.207,1.5 1.8125,3.4336 1.8125,5.7969 0,2.3555 -0.60547,4.2812 -1.8125,5.7812 -1.2109,1.5 -2.7617,2.25 -4.6562,2.25 -1.0625,0 -2.0078,-0.21094 -2.8281,-0.625 C 8.6719,-0.6602 7.9258,-1.32032 7.25,-2.21882 V -2e-5 H 2.3594 v -21.281 H 7.25 Z"
         id="path193" />
    </symbol>
    <symbol
       id="i"
       overflow="visible">
      <path
         d="m 0.34375,-15.312 h 4.8906 l 4.125,10.391 3.5,-10.391 h 4.8906 l -6.4375,16.766 c -0.64844,1.6953 -1.4023,2.8828 -2.2656,3.5625 -0.86719,0.6875 -2,1.0312 -3.4062,1.0312 H 2.79685 V 2.8289 h 1.5312 c 0.83203,0 1.4375,-0.13672 1.8125,-0.40625 C 6.52336,2.16093 6.82024,1.69218 7.03117,1.01645 L 7.17179,0.59457 Z"
         id="path196" />
    </symbol>
    <symbol
       id="h"
       overflow="visible">
      <path
         d="m 16.781,-19.766 v 4.3125 c -1.125,-0.5 -2.2266,-0.875 -3.2969,-1.125 -1.0625,-0.25781 -2.0703,-0.39062 -3.0156,-0.39062 -1.25,0 -2.1797,0.17969 -2.7812,0.53125 -0.60547,0.34375 -0.90625,0.88281 -0.90625,1.6094 0,0.54297 0.20312,0.96875 0.60938,1.2812 0.40625,0.30469 1.1406,0.5625 2.2031,0.78125 l 2.25,0.45312 c 2.2695,0.44922 3.8789,1.1406 4.8281,2.0781 0.95703,0.92969 1.4375,2.2461 1.4375,3.9531 0,2.25 -0.66797,3.9297 -2,5.0312 -1.3359,1.0938 -3.3711,1.6406 -6.1094,1.6406 -1.3047,0 -2.6055,-0.125 -3.9062,-0.375 -1.3047,-0.23828 -2.6055,-0.59766 -3.9062,-1.0781 v -4.4531 c 1.3008,0.69922 2.5625,1.2266 3.7812,1.5781 1.2188,0.34375 2.3906,0.51562 3.5156,0.51562 1.1562,0 2.0352,-0.1875 2.6406,-0.5625 0.61328,-0.38281 0.92188,-0.9375 0.92188,-1.6562 0,-0.63281 -0.21094,-1.125 -0.625,-1.4688 -0.41797,-0.34375 -1.2461,-0.65625 -2.4844,-0.9375 l -2.0312,-0.4375 c -2.043,-0.4375 -3.5391,-1.1328 -4.4844,-2.0938 -0.9375,-0.95703 -1.4062,-2.25 -1.4062,-3.875 0,-2.0312 0.65625,-3.5938 1.9688,-4.6875 1.31255,-1.0937 3.1953,-1.6406 5.6562,-1.6406 1.125,0 2.2734,0.08594 3.4531,0.25 1.1875,0.16797 2.4141,0.42188 3.6875,0.76562 z"
         id="path199" />
    </symbol>
    <symbol
       id="c"
       overflow="visible">
      <path
         d="m 9.6406,-12.188 c -1.0859,0 -1.9141,0.39062 -2.4844,1.1719 -0.57422,0.78125 -0.85938,1.9062 -0.85938,3.375 0,1.4688 0.28516,2.5938 0.85938,3.375 0.57031,0.77344 1.3984,1.1562 2.4844,1.1562 1.0625,0 1.875,-0.38281 2.4375,-1.1562 0.57031,-0.78125 0.85938,-1.9062 0.85938,-3.375 0,-1.4688 -0.28906,-2.5938 -0.85938,-3.375 -0.5625,-0.78125 -1.375,-1.1719 -2.4375,-1.1719 z m 0,-3.5 c 2.6328,0 4.6914,0.71484 6.1719,2.1406 1.4766,1.418 2.2188,3.3867 2.2188,5.9062 0,2.5117 -0.74219,4.4805 -2.2188,5.9062 C 14.332,-0.317 12.2734,0.39 9.6406,0.39 6.9922,0.39 4.9258,-0.31703 3.4375,-1.735 1.9453,-3.1608 1.2031,-5.1295 1.2031,-7.6412 c 0,-2.5195 0.74219,-4.4883 2.2344,-5.9062 1.4883,-1.4258 3.5547,-2.1406 6.2031,-2.1406 z"
         id="path202" />
    </symbol>
    <symbol
       id="g"
       overflow="visible">
      <path
         d="m 16.547,-12.766 c 0.61328,-0.94531 1.3477,-1.6719 2.2031,-2.1719 0.85156,-0.5 1.7891,-0.75 2.8125,-0.75 1.7578,0 3.0977,0.54688 4.0156,1.6406 0.92578,1.0859 1.3906,2.6562 1.3906,4.7188 V -4e-4 h -4.9219 v -7.9844 -0.35938 c 0.0078,-0.13281 0.01563,-0.32031 0.01563,-0.5625 0,-1.082 -0.16406,-1.8633 -0.48438,-2.3438 -0.3125,-0.48828 -0.82422,-0.73438 -1.5312,-0.73438 -0.92969,0 -1.6484,0.38672 -2.1562,1.1562 -0.51172,0.76172 -0.77344,1.8672 -0.78125,3.3125 v 7.5156 h -4.9219 v -7.9844 c 0,-1.6953 -0.14844,-2.7852 -0.4375,-3.2656 -0.29297,-0.48828 -0.8125,-0.73438 -1.5625,-0.73438 -0.9375,0 -1.6641,0.38672 -2.1719,1.1562 -0.51172,0.76172 -0.76562,1.8594 -0.76562,3.2969 v 7.5312 h -4.9219 v -15.312 h 4.9219 v 2.2344 c 0.60156,-0.86328 1.2891,-1.5156 2.0625,-1.9531 0.78125,-0.4375 1.6406,-0.65625 2.5781,-0.65625 1.0625,0 2,0.25781 2.8125,0.76562 0.8125,0.51172 1.4258,1.2305 1.8438,2.1562 z"
         id="path205" />
    </symbol>
    <symbol
       id="r"
       overflow="visible">
      <path
         d="m 12.422,-21.281 v 3.2188 H 9.7189 c -0.6875,0 -1.1719,0.125 -1.4531,0.375 -0.27344,0.25 -0.40625,0.6875 -0.40625,1.3125 v 1.0625 h 4.1875 v 3.5 H 7.85955 V -2e-4 h -4.8906 v -11.812 h -2.4375 v -3.5 h 2.4375 v -1.0625 c 0,-1.6641 0.46094,-2.8984 1.3906,-3.7031 0.92578,-0.80078 2.3672,-1.2031 4.3281,-1.2031 z"
         id="path208" />
    </symbol>
    <symbol
       id="q"
       overflow="visible">
      <path
         d="M 17.75,-9.3281 V 0 h -4.9219 v -7.1094 c 0,-1.3438 -0.03125,-2.2656 -0.09375,-2.7656 -0.0625,-0.5 -0.16797,-0.86719 -0.3125,-1.1094 -0.1875,-0.3125 -0.44922,-0.55469 -0.78125,-0.73438 -0.32422,-0.17578 -0.69531,-0.26562 -1.1094,-0.26562 -1.0234,0 -1.8242,0.39844 -2.4062,1.1875 -0.58594,0.78125 -0.875,1.8711 -0.875,3.2656 V -1e-4 H 2.3594 v -21.281 H 7.25 v 8.2031 c 0.73828,-0.88281 1.5195,-1.5391 2.3438,-1.9688 0.83203,-0.42578 1.75,-0.64062 2.75,-0.64062 1.7695,0 3.1133,0.54688 4.0312,1.6406 0.91406,1.0859 1.375,2.6562 1.375,4.7188 z"
         id="path211" />
    </symbol>
    <symbol
       id="p"
       overflow="visible">
      <path
         d="m 2.5781,-20.406 h 5.875 l 7.4219,14 v -14 h 4.9844 V 0 h -5.875 L 7.5625,-14 V 0 H 2.5781 Z"
         id="path214" />
    </symbol>
    <symbol
       id="o"
       overflow="visible">
      <path
         d="m 2.1875,-5.9688 v -9.3438 h 4.9219 v 1.5312 c 0,0.83594 -0.00781,1.875 -0.015625,3.125 -0.011719,1.25 -0.015625,2.0859 -0.015625,2.5 0,1.2422 0.03125,2.1328 0.09375,2.6719 0.070313,0.54297 0.17969,0.93359 0.32812,1.1719 0.20703,0.32422 0.47266,0.57422 0.79688,0.75 0.32031,0.16797 0.69141,0.25 1.1094,0.25 1.0195,0 1.8203,-0.39062 2.4062,-1.1719 0.58203,-0.78125 0.875,-1.8672 0.875,-3.2656 v -7.5625 h 4.8906 V -6e-4 H 12.6875 V -2.2194 C 11.94531,-1.32096 11.1641,-0.6608 10.3437,-0.235 9.51948,0.17906 8.6093,0.39 7.6093,0.39 5.8476,0.39 4.5038,-0.14906 3.5781,-1.235 2.64841,-2.317 2.1875,-3.8952 2.1875,-5.9694 Z"
         id="path217" />
    </symbol>
    <symbol
       id="n"
       overflow="visible">
      <path
         d="M 17.75,-9.3281 V 0 h -4.9219 v -7.1406 c 0,-1.3203 -0.03125,-2.2344 -0.09375,-2.7344 -0.0625,-0.5 -0.16797,-0.86719 -0.3125,-1.1094 -0.1875,-0.3125 -0.44922,-0.55469 -0.78125,-0.73438 -0.32422,-0.17578 -0.69531,-0.26562 -1.1094,-0.26562 -1.0234,0 -1.8242,0.39844 -2.4062,1.1875 -0.58594,0.78125 -0.875,1.8711 -0.875,3.2656 V -1e-4 H 2.3594 v -15.312 H 7.25 v 2.2344 c 0.73828,-0.88281 1.5195,-1.5391 2.3438,-1.9688 0.83203,-0.42578 1.75,-0.64062 2.75,-0.64062 1.7695,0 3.1133,0.54688 4.0312,1.6406 0.91406,1.0859 1.375,2.6562 1.375,4.7188 z"
         id="path220" />
    </symbol>
    <symbol
       id="m"
       overflow="visible">
      <path
         d="m 2.5781,-20.406 h 8.7344 c 2.5938,0 4.582,0.57812 5.9688,1.7344 1.3945,1.1484 2.0938,2.7891 2.0938,4.9219 0,2.1367 -0.69922,3.7812 -2.0938,4.9375 -1.3867,1.1562 -3.375,1.7344 -5.9688,1.7344 H 7.8281 V 3e-4 h -5.25 z m 5.25,3.8125 v 5.7031 H 10.75 c 1.0195,0 1.8047,-0.25 2.3594,-0.75 0.5625,-0.5 0.84375,-1.2031 0.84375,-2.1094 0,-0.91406 -0.28125,-1.6172 -0.84375,-2.1094 -0.55469,-0.48828 -1.3398,-0.73438 -2.3594,-0.73438 z"
         id="path223" />
    </symbol>
    <symbol
       id="l"
       overflow="visible">
      <path
         d="M 2.3594,-15.312 H 7.25 v 15.031 c 0,2.0508 -0.49609,3.6172 -1.4844,4.7031 -0.98047,1.082 -2.4062,1.625 -4.2812,1.625 H -0.9375 V 2.8283 h 0.85938 c 0.92578,0 1.5625,-0.21094 1.9062,-0.625 0.35156,-0.41797 0.53125,-1.2461 0.53125,-2.4844 z m 0,-5.9688 H 7.25 v 4 H 2.3594 Z"
         id="path226" />
    </symbol>
    <symbol
       id="k"
       overflow="visible">
      <path
         d="m 14.719,-14.828 v 3.9844 c -0.65625,-0.45703 -1.3242,-0.79688 -2,-1.0156 -0.66797,-0.21875 -1.3594,-0.32812 -2.0781,-0.32812 -1.3672,0 -2.4336,0.40234 -3.2031,1.2031 -0.76172,0.79297 -1.1406,1.9062 -1.1406,3.3438 0,1.4297 0.37891,2.543 1.1406,3.3438 0.76953,0.79297 1.8359,1.1875 3.2031,1.1875 0.75781,0 1.4844,-0.10938 2.1719,-0.32812 0.6875,-0.22656 1.3203,-0.56641 1.9062,-1.0156 v 4 c -0.76172,0.28125 -1.5391,0.48828 -2.3281,0.625 -0.78125,0.14453 -1.5742,0.21875 -2.375,0.21875 -2.7617,0 -4.9219,-0.70703 -6.4844,-2.125 -1.5547,-1.4141 -2.3281,-3.3828 -2.3281,-5.9062 0,-2.5312 0.77344,-4.5039 2.3281,-5.9219 1.5625,-1.4141 3.7227,-2.125 6.4844,-2.125 0.80078,0 1.5938,0.07422 2.375,0.21875 0.78125,0.13672 1.5547,0.35156 2.3281,0.64062 z"
         id="path229" />
    </symbol>
  </defs>
  <g
     id="g4975"
     transform="translate(-140.16231,-64.803992)"
     style="fill:#ffffff;fill-opacity:1">
    <path
       d="m 351.06,67.199 c 3.6758,1.2734 7.1055,3.168 10.137,5.6016 5.6914,4.6836 9.1328,11.562 9.4648,18.926 0.61719,13.047 1.2891,26.098 1.9023,39.199 1.0078,20.328 2.0703,40.602 3.0781,60.871 0.39062,8.2305 0.72656,16.465 1.1211,24.695 0,1.625 0,3.1914 0.28125,5.6016 l 9.5195,-8.2305 c 5.8164,-4.9023 13.668,-6.6328 21.004,-4.6328 7.3359,2.0039 13.219,7.4844 15.734,14.66 2.5156,7.1758 1.3438,15.133 -3.1367,21.277 -1.2812,1.582 -2.6875,3.0625 -4.1992,4.4258 -1.1758,1.1211 -2.4648,2.1289 -4.3125,3.7539 l 16.801,1.0078 75.094,3.2461 c 11.199,0.55859 22.398,1.2891 33.602,1.6797 8.2422,0.28906 15.918,4.2812 20.887,10.863 2.9883,3.2188 4.6484,7.4492 4.6484,11.844 0,4.3906 -1.6602,8.625 -4.6484,11.844 -4.4766,6.0547 -11.41,9.8125 -18.926,10.246 l -19.77,1.0078 -75.711,3.6406 -30.633,1.625 c 0.39062,1.9023 2.0703,2.5195 3.1914,3.4727 4.1055,3.5078 6.8945,8.3047 7.9102,13.605 1.0195,5.3047 0.20313,10.793 -2.3086,15.57 -3.2891,5.9023 -8.9844,10.074 -15.602,11.43 -6.6172,1.3555 -13.496,-0.24219 -18.84,-4.375 -3.1914,-2.5195 -6.2148,-5.207 -9.8008,-8.1758 0,3.3047 -0.61719,5.9922 -0.78516,8.6797 -0.95312,16.801 -1.793,33.992 -2.7422,50.961 -0.95313,16.969 -2.0156,34.551 -3.0234,51.801 0,4.8164 0,9.6875 -0.89453,14.391 -0.91406,7.5078 -5.2031,14.188 -11.648,18.145 -2.9062,2.0117 -6.3516,3.0898 -9.8867,3.0898 -3.5312,0 -6.9805,-1.0781 -9.8828,-3.0898 -7.3672,-4.0977 -12.168,-11.637 -12.766,-20.047 -0.50391,-6.2734 -0.78516,-12.602 -1.1211,-18.871 -0.95312,-18.648 -1.793,-37.297 -2.8008,-56 -0.72656,-14.953 -1.625,-29.902 -2.4062,-44.801 -2.6914,2.0273 -5.4961,3.8945 -8.4023,5.5977 -6.2227,3.293 -13.609,3.5469 -20.043,0.69531 -6.4336,-2.8516 -11.203,-8.5 -12.941,-15.32 -1.738,-6.82 -0.25,-14.062 4.0312,-19.645 1.7344,-2.2969 3.5859,-4.4805 5.6016,-7.0547 v -0.004 c -0.96875,-0.29297 -1.9609,-0.5 -2.9688,-0.61328 l -53.703,-1.793 -64.566,-3.4141 c -8.0039,0.59766 -15.719,-3.1172 -20.242,-9.7461 -4.5195,-6.6328 -5.1602,-15.172 -1.6797,-22.402 3.4844,-7.2305 10.559,-12.055 18.559,-12.652 5.9922,-0.67188 12.098,-0.78516 18.09,-1.1211 l 38.695,-1.9023 56,-3.0234 9.0156,-0.33594 3.8086,-0.39062 -4.9297,-6.1602 0.004,-0.004 c -5.2109,-6.1719 -6.8125,-14.621 -4.2227,-22.273 2.5859,-7.6523 8.9883,-13.391 16.875,-15.133 6.6406,-1.6641 13.672,-0.15625 19.043,4.0859 1.2305,0.89453 2.3516,1.9023 3.8633,3.1914 0,-1.1211 0.28125,-1.9609 0.33594,-2.8008 l 3.0234,-59.641 c 0.67188,-13.441 1.3086,-26.879 1.9023,-40.32 0.33594,-7 0.61719,-14.000002 1.0078,-20.945002 l 0.004,0.0039 c 0.0352,-5.6523 1.8594,-11.152 5.207,-15.707 3.3516,-4.5547 8.0547,-7.9375 13.438,-9.6602 l 0.67187,-0.44922 z m -2.9688,14.727 0.004,0.0039 c -4.6367,2.2305 -7.6094,6.8945 -7.6719,12.039 -0.55859,14.672 -1.2891,29.344 -2.0156,44.016 l -3.0234,58.855 -1.8477,38.695 h -0.004 c -0.043,1.2305 -0.23047,2.4531 -0.55859,3.6406 -0.57422,2.4492 -2.3789,4.4258 -4.7695,5.2109 -2.3906,0.78906 -5.0156,0.28125 -6.9336,-1.3477 -0.98828,-0.96094 -1.9062,-1.9883 -2.7461,-3.0781 -3.4727,-4.4258 -6.832,-8.9023 -10.414,-13.273 -2.7539,-3.6641 -7.957,-4.4023 -11.621,-1.6523 -3.6641,2.7539 -4.4062,7.957 -1.6523,11.621 0.67188,1.0078 1.457,1.9609 2.2383,2.9688 4.1445,5.0977 8.3984,10.137 12.32,15.457 v -0.004 c 1.7578,2.043 2.2227,4.8906 1.207,7.3828 -1.0156,2.4922 -3.3398,4.2031 -6.0195,4.4336 -0.94531,0.16797 -1.8984,0.28125 -2.8594,0.33594 l -65.406,3.4727 -54.711,2.7422 c -5.207,0.28125 -10.414,0.61719 -15.625,0.78516 -2.8164,-0.0273 -5.3203,1.793 -6.1602,4.4805 -0.99219,2.2383 -0.80078,4.8203 0.50391,6.8906 1.5156,2.5156 4.2891,3.9961 7.2227,3.8633 13.887,0.55859 27.719,1.2891 41.551,2.0156 l 57.625,3.0234 35.336,1.8477 c 1.3828,0.0781 2.7539,0.30469 4.0898,0.67188 3.1562,0.94922 5.1992,4 4.8711,7.2812 -0.32031,1.8633 -1.1133,3.6172 -2.2969,5.0938 -3.8633,4.8164 -7.9531,9.4648 -11.93,14.223 l 0.004,0.004 c -1.2109,1.3047 -2.2812,2.7305 -3.1914,4.2539 -1.4844,2.5586 -1.4453,5.7266 0.0937,8.25 1.543,2.5234 4.3438,4 7.2969,3.8477 2.7891,-0.0547 5.3828,-1.4258 7,-3.6953 3.3594,-4.1445 6.7773,-8.2891 10.191,-12.375 v -0.004 c 1.043,-1.2812 2.2031,-2.4648 3.4727,-3.5273 1.9531,-1.6953 4.6797,-2.1758 7.0938,-1.25 2.418,0.92578 4.125,3.1094 4.4414,5.6758 0.46875,2.418 0.71484,4.8711 0.73047,7.3359 0.67187,12.77 1.2891,25.535 1.9609,38.246 l 2.9102,56.168 c 0.61719,12.434 1.2891,24.922 1.8477,37.406 v 0.004 c 0.0937,4.6328 3.0312,8.7266 7.3906,10.305 2.3359,-0.42188 4.3789,-1.832 5.6016,-3.8672 1.5273,-2.4688 2.3242,-5.3242 2.2969,-8.2305 0.61719,-12.77 1.2891,-25.48 1.9609,-38.246 l 3.3008,-52.25 c 0.67188,-11.945 1.3086,-23.875 1.9023,-35.785 0,-3.1367 0.39063,-6.2734 0.61719,-9.4062 -0.0469,-2.9766 1.6992,-5.6914 4.4258,-6.8867 2.7344,-1.1797 5.9102,-0.65625 8.1211,1.3438 l 1.8477,1.625 15.68,13.438 c 1.1055,1.0078 2.3086,1.9062 3.582,2.6875 2.7031,1.6602 6.1172,1.6094 8.7695,-0.12891 2.6484,-1.7383 4.0547,-4.8516 3.6094,-7.9922 -0.35938,-2.4922 -1.7109,-4.7383 -3.7539,-6.2148 l -15.289,-12.488 c -1.207,-0.90234 -2.332,-1.9141 -3.3594,-3.0234 -1.6523,-1.8945 -2.2031,-4.5156 -1.4492,-6.918 0.75391,-2.3984 2.7031,-4.2344 5.1445,-4.8438 1.3398,-0.34375 2.707,-0.55078 4.0898,-0.61328 l 67.199,-3.3594 58.465,-2.7422 17.695,-0.89453 v -0.004 c 4.6211,-0.23047 8.6289,-3.2773 10.078,-7.6719 -1.2734,-2.3086 -3.1641,-4.2188 -5.4531,-5.5234 -2.293,-1.3047 -4.9023,-1.9531 -7.5352,-1.8711 -14.504,-0.50391 -29.062,-1.2891 -43.625,-2.0156 l -59.641,-3.2461 -37.855,-1.9023 v -0.004 c -1.0977,-0.0391 -2.1836,-0.1875 -3.25,-0.44531 -2.625,-0.46094 -4.7773,-2.3398 -5.5898,-4.8789 -0.8125,-2.5391 -0.14453,-5.3203 1.7266,-7.2188 1.2266,-1.2969 2.5352,-2.5156 3.9219,-3.6406 5.6016,-4.5352 10.695,-9.0156 15.961,-13.664 h -0.004 c 3.3398,-2.8477 3.7383,-7.8555 0.89844,-11.199 -2.6953,-3.4453 -7.6133,-4.1836 -11.199,-1.6797 -1.1367,0.77344 -2.2188,1.6133 -3.25,2.5195 l -15.176,13.328 c -1.2891,1.2266 -2.6758,2.3516 -4.1445,3.3594 -2.0117,1.4219 -4.6094,1.7109 -6.8828,0.76562 -2.2734,-0.94141 -3.9023,-2.9883 -4.3164,-5.4141 -0.375,-2.4453 -0.58203,-4.9141 -0.61719,-7.3906 -0.67188,-13.441 -1.3242,-26.879 -1.9609,-40.32 -1.0078,-20.273 -2.0703,-40.602 -3.0781,-60.871 -0.61719,-12.602 -1.2305,-25.258 -1.793,-37.855001 0.0391,-4.8359 -3.0352,-9.1484 -7.6133,-10.695 z"
       id="path234"
       style="fill:#ffffff;fill-opacity:1" />
    <path
       d="m 348.43,491.23 c -3.8398,-0.043 -7.5859,-1.168 -10.809,-3.2461 -7.9258,-4.4688 -13.098,-12.602 -13.777,-21.672 -0.39062,-5.6016 -0.67188,-11.199 -0.95312,-16.801 l -1.2891,-25.93 c -0.55859,-10.754 -1.0625,-21.504 -1.625,-32.258 l -1.6797,-30.91 -0.55859,-9.9688 v 0.004 c -1.7656,1.375 -3.6406,2.6094 -5.5977,3.6953 -6.7891,3.5391 -14.824,3.7812 -21.816,0.66406 -6.9922,-3.1211 -12.176,-9.2617 -14.078,-16.676 -1.9023,-7.418 -0.31641,-15.297 4.3086,-21.398 l 3.4727,-4.3672 -57.23,-2.7422 c -20.215,-1.0625 -40.375,-2.0703 -60.535,-3.1914 -5.5391,-0.0899 -10.879,-2.0664 -15.145,-5.5977 -4.266,-3.5313 -7.2031,-8.4141 -8.3203,-13.836 -1.5195,-6.7227 -0.0937,-13.773 3.918,-19.375 3.7539,-5.5156 9.6836,-9.1641 16.297,-10.023 4.4805,-0.44922 9.0156,-0.67187 13.441,-0.83984 l 21.785,-1.0625 21.672,-1.0625 31.977,-1.7344 23.969,-1.2891 h 8.9062 l -2.5195,-3.1914 -0.008,-0.008 c -5.6133,-6.8359 -7.3047,-16.086 -4.4766,-24.469 2.75,-8.3828 9.668,-14.727 18.254,-16.746 7.2539,-1.832 14.949,-0.19922 20.832,4.4258 l 0.83984,0.67188 0.50391,-9.0703 2.5195,-49.281 c 0.44922,-8.9609 0.83984,-17.922 1.2891,-26.879 l 0.89453,-19.77 c 0,-4.9297 0.44922,-9.800796 0.72656,-14.616996 h 0.004 c 0.0703,-6.0898 2.0703,-12 5.7148,-16.879 3.6406,-4.8828 8.7383,-8.4805 14.555,-10.281 l 0.50391,-0.39062 h 7.4453 l 1.0625,0.44922 0.004,-0.0039 c 3.4727,1.2188 6.7109,3.0195 9.5781,5.3203 6.1484,5.0547 9.8555,12.488 10.191,20.441 0.55859,12.992006 1.2305,26.039006 1.9023,39.199006 l 3.0234,60.93 c 0,5.6016 0.55859,11.199 0.78516,16.801 l 0.39062,9.0703 6.3281,-5.6016 h 0.004 c 6.19139,-6.5703 15.418,-9.3398 24.207,-7.2656 8.7891,2.0781 15.80099,8.6836 18.39499,17.332 2.5977,8.6523 0.38281,18.027 -5.8125,24.598 -1.1094,1.3828 -2.3281,2.6719 -3.6367,3.8672 l -1.0664,0.61328 -0.50391,0.44922 h 0.67188 l 11.031,0.67188 75.32,3.6406 11.199,0.61719 c 7.4492,0.39063 14.895,0.78516 22.398,1.0078 h 0.004 c 8.8438,0.28906 17.082,4.5742 22.398,11.645 3.3164,3.582 5.1562,8.2812 5.1562,13.16 0,4.8828 -1.8398,9.582 -5.1562,13.16 -4.8164,6.6055 -12.332,10.715 -20.496,11.203 l -8.1211,0.44922 -11.594,0.61719 -31.137,1.457 -44.801,2.1289 c -7.2812,0.33594 -14.504,0.78516 -21.84,1.1758 h -4.3672 l 0.004,-0.004 c 4.4727,3.8125 7.5,9.0469 8.5781,14.824 1.082,5.7773 0.14844,11.754 -2.6406,16.926 -3.5742,6.4375 -9.7773,10.992 -16.988,12.477 -7.207,1.4844 -14.707,-0.25 -20.531,-4.75 -2.1836,-1.7344 -4.2578,-3.5273 -6.4961,-5.6016 h -0.33594 c 0,1.5664 0,3.0781 -0.33594,4.5938 l -1.2891,23.465 -1.5117,27.496 c -0.67188,12.77 -1.457,25.48 -2.1836,38.191 l -0.44922,13.723 v 4.3125 -0.004 c -0.0664,3.4297 -0.32812,6.8516 -0.78516,10.25 -1.0352,8.0664 -5.6406,15.242 -12.543,19.543 -3.3828,2.2656 -7.3516,3.4922 -11.422,3.5273 z m -26.938,-148.57 1.0078,17.586 1.6797,30.969 c 0.55859,10.754 1.0625,21.504 1.625,32.258 l 1.2891,25.93 c 0.28125,5.6016 0.50391,11.199 0.95312,16.801 l -0.004,-0.008 c 0.48438,7.7578 4.957,14.711 11.816,18.367 2.5742,1.793 5.6328,2.75 8.7656,2.75 3.1328,0 6.1914,-0.95703 8.7617,-2.75 5.9609,-3.6562 9.9062,-9.8516 10.699,-16.797 0.39062,-3.2539 0.61328,-6.5273 0.67188,-9.8008 v -4.4258 l 0.78516,-13.664 c 0.72656,-12.711 1.5117,-25.426 2.1836,-38.137 0.55859,-9.1289 1.0078,-18.312 1.5117,-27.496 l 1.2891,-23.465 c 0,-1.8477 0,-3.6406 0.44922,-5.6016 l 0.67188,-7.1133 6.4961,5.6016 c 2.1836,1.9023 4.2578,3.6406 6.3828,5.6016 l -0.004,0.004 c 4.8633,3.7188 11.098,5.1484 17.094,3.9102 5.9961,-1.2344 11.16,-5.0117 14.156,-10.352 2.3008,-4.3438 3.0547,-9.3438 2.125,-14.168 -0.92578,-4.8281 -3.4727,-9.1953 -7.2227,-12.375 l -0.78516,-0.61719 c -1.5039,-0.88672 -2.5938,-2.3398 -3.0234,-4.0312 l -0.50391,-2.4062 11.199,-0.61719 21.84,-1.1758 44.801,-2.1289 31.137,-1.457 11.594,-1.457 8.1758,-0.44922 v 0.004 c 6.9336,-0.375 13.328,-3.8516 17.414,-9.4648 2.6953,-2.832 4.1992,-6.5898 4.1992,-10.5 0,-3.9102 -1.5039,-7.668 -4.1992,-10.5 -4.582,-6.1172 -11.68,-9.8398 -19.32,-10.137 -7.4492,0 -14.953,-0.61719 -22.398,-1.0625 l -11.199,-0.55859 -75.211,-3.5312 -11.199,-0.61328 -10.863,-0.67188 5.6016,-4.8164 c 0.95312,-0.83984 1.7344,-1.5117 2.4648,-2.2383 l 0.89453,-0.83984 v -0.004 c 1.1445,-1.0195 2.1953,-2.1445 3.1367,-3.3594 3.082,-4.0508 4.5859,-9.0859 4.2305,-14.164 -0.35937,-5.0781 -2.5547,-9.8555 -6.1797,-13.43 -3.6211,-3.5781 -8.4258,-5.7148 -13.508,-6.0078 -5.5391,-0.51172 -11.043,1.3164 -15.176,5.043 l -12.824,11.199 -0.83984,-17.754 c 0,-5.6016 -0.50391,-11.199 -0.78516,-16.801 l -3.0234,-60.871 c -0.67188,-12.992 -1.3086,-26.059 -1.9023,-39.199005 -0.31641,-6.8086 -3.5117,-13.164 -8.793,-17.473 -2.5117,-2.0078 -5.3555,-3.5586 -8.4023,-4.5898 h -5.3203 c -0.21875,0.03906 -0.44922,0.03906 -0.67188,0 -5.043,1.5391 -9.4688,4.6406 -12.641,8.8594 -3.168,4.2148 -4.918,9.3281 -4.9961,14.602 0,4.8164 -0.50391,9.687505 -0.72656,14.559005 l -0.95312,19.824 c -0.39062,8.9609 -0.83984,17.922 -1.2891,26.879 -0.78516,16.406 -1.625,32.871 -2.4648,49.281 l -0.16797,10.363 v 1.8477 l -0.55859,4.9844 -4.4805,-3.7539 -2.2969,-1.9023 c -4.8633,-3.8906 -11.277,-5.2578 -17.305,-3.6953 -7.1289,1.5039 -12.938,6.6523 -15.289,13.551 -2.3516,7.0039 -0.93359,14.727 3.7539,20.441 l 7.3359,9.1289 -5.6016,0.61719 v -0.004 c -0.78125,0.0469 -1.5664,0.0469 -2.3516,0 h -9.0156 l -23.969,1.2891 -31.977,1.6797 -21.672,1.1211 -22.176,1.6797 c -4.3125,0 -8.793,0.33594 -13.105,0.83984 h 0.004 c -5.4453,0.71484 -10.328,3.707 -13.441,8.2305 -2.8633,4.1172 -4.1172,9.1406 -3.5273,14.117 0.58984,4.9805 2.9844,9.5703 6.7305,12.902 3.7461,3.3317 8.582,5.1758 13.598,5.1797 20.16,1.1211 40.32,2.1289 60.535,3.1914 l 57.902,2.9102 0.004,0.004 c 0.73438,0.0898 1.4609,0.22266 2.1836,0.39062 l 4.4805,1.0078 -4.1445,5.0391 c -1.3438,1.625 -2.5742,3.0781 -3.6953,4.5938 -3.9023,5.0781 -5.2539,11.664 -3.6758,17.867 1.5742,6.207 5.9102,11.344 11.762,13.941 5.8516,2.6016 12.57,2.3711 18.23,-0.61719 1.957,-1.1094 3.832,-2.3633 5.6016,-3.75 l 2.6875,-1.9609 z m 26.152,133.79 h -0.55859 c -5.082,-1.918 -8.4961,-6.7227 -8.625,-12.152 -0.59766,-12.469 -1.2305,-24.938 -1.9023,-37.406 l -3.9219,-74.312 -1.0078,-20.328 v -1.0117 c -0.0352,-2.1641 -0.27734,-4.3203 -0.73047,-6.4375 -0.32031,-1.6875 -1.5156,-3.0742 -3.1328,-3.6406 -1.6602,-0.58984 -3.5078,-0.27344 -4.875,0.83984 -1.1367,0.94922 -2.168,2.0195 -3.0781,3.1914 -3.1914,3.8086 -6.2734,7.6172 -9.4062,11.199 l -0.78516,0.95312 c -2.0117,2.7695 -5.207,4.4258 -8.625,4.4805 -3.7148,0.15625 -7.2188,-1.7344 -9.1289,-4.9297 -1.8516,-3.1836 -1.8516,-7.1172 0,-10.301 0.92188,-1.5586 1.9922,-3.0195 3.1914,-4.3711 l 4.4805,-5.2656 c 2.5742,-3.0234 5.1523,-6.0469 7.6172,-9.1289 v 0.004 c 0.95703,-1.2109 1.6094,-2.6289 1.9023,-4.1445 0.19141,-2.25 -1.2422,-4.3164 -3.4141,-4.9258 -1.1602,-0.35938 -2.3672,-0.54688 -3.5859,-0.5625 l -21.223,-1.1211 -37.238,-1.5117 -34.609,-1.8477 c -13.812,-0.74609 -27.645,-1.418 -41.496,-2.0156 -3.6328,0.11719 -7.0547,-1.7188 -8.9609,-4.8164 -1.7188,-2.6836 -1.9688,-6.0508 -0.67188,-8.957 1.2344,-3.3867 4.4609,-5.6289 8.0664,-5.6016 3.4727,0 7,-0.28125 10.473,-0.50391 l 25.145,-1.2891 34.66,-1.7344 c 19.266,-0.95312 38.527,-2.0156 57.734,-3.0234 l 7.6719,-0.39062 0.004,-0.004 c 0.86328,-0.0508 1.7266,-0.16406 2.5742,-0.33594 1.9961,-0.20703 3.7266,-1.4688 4.5352,-3.3047 0.62891,-1.7891 0.24219,-3.7773 -1.0078,-5.207 -2.6328,-3.5859 -5.6016,-7.0547 -8.2891,-10.473 l -3.9727,-5.2617 c -0.85547,-0.99219 -1.6406,-2.0391 -2.3516,-3.1367 -3.4336,-4.6406 -2.457,-11.184 2.1836,-14.617 4.6367,-3.4336 11.184,-2.4531 14.613,2.1836 2.3516,2.8008 4.5938,5.6016 6.7773,8.5664 1.2305,1.5664 2.4648,3.1914 3.7539,4.7617 0.72266,0.98438 1.5273,1.9023 2.4062,2.7461 1.3555,1.1914 3.2422,1.5781 4.957,1.0117 1.7148,-0.5625 3.0039,-1.9922 3.3867,-3.7578 0.26953,-1.0625 0.42188,-2.1523 0.44922,-3.2461 l 3.2461,-65.406 c 0.55859,-10.715 1.1016,-21.41 1.625,-32.09 v -3.1914 c 0.67188,-13.609 1.3438,-27.215 1.9023,-40.824001 0.043,-2.8867 0.88281,-5.707 2.4219,-8.1445 1.543,-2.4414 3.7266,-4.4102 6.3164,-5.6875 l 0.89453,-0.50391 0.95313,0.39062 c 5.2422,1.8672 8.7969,6.7578 8.9609,12.32 0.55859,12.133001 1.1367,24.246001 1.7344,36.344001 l 5.1523,103.71 c 0.0391,2.0469 0.22656,4.0859 0.55859,6.1055 0.34766,1.6719 1.4414,3.0977 2.9688,3.8633 1.6836,0.61328 3.5547,0.38281 5.0391,-0.61328 1.1016,-0.72656 2.1328,-1.5508 3.082,-2.4648 l 16.016,-14 c 1.082,-0.98828 2.2461,-1.8867 3.4727,-2.6875 4.4688,-3.0039 10.488,-2.1055 13.887,2.0703 1.7539,2.0547 2.6172,4.7227 2.3945,7.4141 -0.21875,2.6914 -1.5039,5.1836 -3.5703,6.9219 l -10.641,9.1289 -6.2148,5.6016 v -0.004 c -1.0352,0.82422 -2.0117,1.7227 -2.9102,2.6914 -1.2695,1.3906 -1.7539,3.3242 -1.2891,5.1484 0.67969,1.8164 2.2461,3.1484 4.1445,3.5312 0.94141,0.1875 1.8945,0.32031 2.8555,0.39062 l 61.766,2.9102 35.449,1.793 8.0078,0.39062 c 11.871,0.61719 23.742,1.1758 35.617,1.5664 v 0.004 c 2.9375,0.043 5.8086,0.87891 8.3086,2.418 2.5039,1.5352 4.5469,3.7188 5.9141,6.3164 l 0.55859,0.89453 -0.44922,1.0078 0.004,0.004 c -1.7344,5.1367 -6.4531,8.6797 -11.871,8.9023 l -17.754,0.89453 -18.984,0.89844 -39.199,1.9023 c -22.398,1.0469 -44.801,2.1641 -67.199,3.3594 v 0.004 c -1.2305,0.0234 -2.4492,0.19531 -3.6406,0.50391 -1.7656,0.40625 -3.1797,1.7305 -3.6953,3.4688 -0.55469,1.6992 -0.14844,3.5625 1.0625,4.875 0.77734,0.88672 1.6406,1.6914 2.5781,2.4062 l 0.50391,0.39062 15.289,12.488 h -0.004 c 2.543,1.8164 4.2422,4.5859 4.707,7.6719 0.47656,3.8945 -1.2969,7.7227 -4.5781,9.875 -3.2812,2.1523 -7.5,2.2539 -10.879,0.26172 -1.4062,-0.85156 -2.7188,-1.8477 -3.9219,-2.9688 l -12.266,-10.414 -4.4258,-3.8633 -1.1211,-0.95312 h 0.004 c -1.6016,-1.4805 -3.918,-1.8945 -5.9336,-1.0625 -1.9648,0.93359 -3.207,2.9219 -3.1914,5.0938 v 3.3594 l -0.33594,6.2734 -0.78516,14.336 -1.1758,21.504 -1.3984,24.586 c -0.55859,9.2383 -1.0625,18.426 -1.5664,27.609 -0.72656,12.77 -1.3984,25.48 -2.0156,38.246 h -0.004 c 0.11719,3.2656 -0.71875,6.4961 -2.4062,9.293 -1.5859,2.5391 -4.168,4.2891 -7.1133,4.8164 z M 326.14,316.9 c 1.0469,0 2.0859,0.17188 3.0781,0.50391 2.8516,1.168 4.9453,3.6562 5.6016,6.6641 0.4375,2.2344 0.67969,4.5039 0.72656,6.7773 v 0.95312 l 1.0078,20.328 3.9219,74.312 c 0.67188,12.488 1.2891,24.922 1.9023,37.406 0.0156,3.6289 2.2305,6.8867 5.6016,8.2305 1.5703,-0.44141 2.8984,-1.4883 3.6953,-2.9102 1.3281,-2.1289 1.9922,-4.6055 1.9062,-7.1133 0.61719,-12.77 1.2891,-25.48 2.0156,-38.246 0.50391,-9.1836 1.0625,-18.426 1.5664,-27.609 l 1.3984,-24.641 c 0.44922,-7.1133 0.78516,-14.281 1.1758,-21.449 l 1.0117,-14.109 0.44531,-6.2734 v -3.4141 c -0.0312,-3.8164 2.2109,-7.2891 5.7031,-8.832 3.4883,-1.5469 7.5664,-0.87109 10.371,1.7188 l 1.2891,1.0625 4.3672,3.8086 12.207,10.414 v 0.004 c 1.0273,0.92969 2.1328,1.7734 3.3047,2.5195 2.0195,1.2461 4.5859,1.207 6.5664,-0.10156 1.9844,-1.3125 3.0273,-3.6523 2.6719,-6.0039 -0.32813,-2.0586 -1.5078,-3.8867 -3.2461,-5.0391 l -15.234,-12.262 -0.44922,-0.39062 0.004,-0.004 c -1.1406,-0.86328 -2.1914,-1.8398 -3.1367,-2.9102 -2.1523,-2.4414 -2.8711,-5.8281 -1.8984,-8.9297 0.97266,-3.1055 3.5,-5.4727 6.6562,-6.2461 1.4648,-0.375 2.9688,-0.58203 4.4805,-0.61719 22.398,-1.1953 44.801,-2.3164 67.199,-3.3594 l 39.199,-1.8477 19.543,-0.95312 17.695,-0.89453 h 0.004 c 3.5,-0.0898 6.5859,-2.3125 7.7852,-5.6016 -2.1875,-3.5156 -6.0508,-5.6367 -10.191,-5.6016 -11.871,-0.39062 -23.742,-1.0078 -35.617,-1.5664 l -8.5703,-0.28125 -35.504,-1.957 -62.047,-3.082 c -1.207,-0.0586 -2.4062,-0.22656 -3.582,-0.50391 -3.3516,-0.71094 -6.0781,-3.1367 -7.168,-6.3828 -0.98437,-3.2305 -0.15234,-6.7422 2.1836,-9.1836 1.0156,-1.1328 2.1211,-2.1797 3.3047,-3.1367 l 6.2148,-5.2656 c 3.5273,-2.9688 7.0547,-5.9922 10.527,-9.0703 1.2578,-1.0234 2.043,-2.5234 2.1719,-4.1406 0.125,-1.6172 -0.41406,-3.2188 -1.5,-4.4297 -2.0352,-2.5273 -5.6875,-3.043 -8.3438,-1.1758 -1.0508,0.70703 -2.043,1.4922 -2.9688,2.3555 l -15.961,13.945 v -0.004 c -1.1406,1.0586 -2.3555,2.0312 -3.6367,2.9141 -2.582,1.7617 -5.8516,2.1758 -8.793,1.1172 -2.9141,-1.2266 -5.0195,-3.832 -5.6016,-6.9414 -0.38672,-2.2031 -0.60938,-4.4297 -0.67188,-6.6641 l -4.9258,-103.99 c -0.55859,-12.098 -1.1758,-24.246 -1.7344,-36.343997 h -0.004 c -0.0586,-3.6172 -2.2578,-6.8516 -5.5977,-8.2344 -3.5,2.0195 -5.6367,5.7656 -5.6016,9.8008 -0.55859,13.608997 -1.2305,27.272997 -1.9023,40.878997 v 3.1367 c -0.48438,10.754 -1.0273,21.465 -1.625,32.145 l -3.2461,65.352 h -0.004 c -0.0547,1.3789 -0.24219,2.7461 -0.55859,4.0898 -0.80469,3.2539 -3.2773,5.8359 -6.4961,6.7734 -3.0781,0.99219 -6.4492,0.31641 -8.9023,-1.7891 -1.0508,-0.91797 -1.9883,-1.9492 -2.8008,-3.082 -1.5117,-1.8477 -2.7422,-3.4727 -3.9766,-5.0391 -2.1836,-2.8555 -4.3672,-5.6016 -6.6641,-8.457 -2.0586,-2.7227 -5.9297,-3.2617 -8.6523,-1.2031 -2.7227,2.0547 -3.2617,5.9297 -1.2031,8.6523 0.56641,0.875 1.1836,1.7148 1.8477,2.5195 l 4.1992,5.1523 c 2.8555,3.5273 5.6016,7 8.457,10.641 2.1484,2.6406 2.7266,6.2266 1.5117,9.4062 -1.3867,2.9961 -4.1836,5.1016 -7.4492,5.6016 -1.0352,0.1875 -2.082,0.32031 -3.1367,0.39062 l -8.0625,0.5625 -57.734,3.0234 -34.496,1.6211 -25.371,1.4023 c -3.5273,0 -7.0547,0.44922 -10.586,0.50391 h 0.004 c -2.0078,-0.0234 -3.7773,1.3125 -4.3125,3.2461 -0.78516,1.6758 -0.61328,3.6406 0.44922,5.1523 1.1211,1.9883 3.3359,3.0938 5.5977,2.8008 13.832,0.61719 27.719,1.2891 41.551,2.0156 l 34.5,1.6797 37.129,1.9609 21.223,1.1211 c 1.5508,0.0625 3.0938,0.30859 4.5898,0.72656 4.1602,1.2266 6.832,5.2695 6.3281,9.5781 -0.38281,2.2305 -1.3281,4.332 -2.7422,6.1016 -2.5195,3.1367 -5.0977,6.2148 -7.7266,9.2969 l -4.1992,4.9844 h -0.004 c -1.1289,1.1914 -2.125,2.5078 -2.9688,3.918 -1.125,1.8789 -1.125,4.2266 0,6.1055 1.1992,1.918 3.3438,3.0312 5.6016,2.9102 2.2266,-0.0156 4.3086,-1.0977 5.6016,-2.9102 l 0.78516,-0.95313 c 3.1367,-3.8633 6.2734,-7.6719 9.4648,-11.199 h -0.004 c 1.1055,-1.4219 2.3633,-2.7188 3.7539,-3.8633 1.6328,-1.2852 3.6328,-2.0117 5.7109,-2.0742 z"
       id="path236"
       style="fill:#ffffff;fill-opacity:1" />
    <path
       d="m 456.79,134.06 39.199,-39.199 39.199,38.863 -39.199,39.199 c -2.0156,-1.0625 -35.617,-34.324 -39.199,-38.863 z m 39.535,17.809 17.922,-17.922 -18.258,-18.312 -17.977,17.977 z"
       id="path238"
       style="fill:#ffffff;fill-opacity:1" />
    <path
       d="m 496.05,175.5 -1.3984,-0.83984 c -2.2383,-1.2305 -36.23,-35.055 -39.535,-39.199 l -1.1211,-1.457 41.887,-41.945 41.887,41.832 z m -36.398,-41.105 c 6.2148,6.832 29.961,30.352 35.953,35.84 l 36.23,-36.23 -35.953,-35.895 z m 36.68,20.664 -21.281,-21.223 20.945,-20.945 21.223,21.281 z m -15.344,-21.223 15.344,15.289 14.953,-14.953 -15.289,-15.344 z"
       id="path240"
       style="fill:#ffffff;fill-opacity:1" />
    <path
       d="m 224.56,407.73 -38.863,38.863 -38.863,-38.863 38.809,-38.809 z m -39.199,-18.09 -17.922,17.922 18.258,18.312 17.922,-17.922 z"
       id="path242"
       style="fill:#ffffff;fill-opacity:1" />
    <path
       d="m 185.7,449.57 -41.832,-41.832 41.777,-41.777 41.887,41.777 z m -35.895,-41.832 35.895,35.895 35.895,-35.895 -35.953,-35.84 z m 35.895,21.113 -21.223,-21.336 20.887,-20.832 21.223,21.281 z m -15.289,-21.281 15.289,15.344 14.953,-14.953 -15.289,-15.34 z"
       id="path244"
       style="fill:#ffffff;fill-opacity:1" />
  </g>
</svg>
