<?xml version="1.0" encoding="UTF-8" standalone="no"?>
<svg
   width="941"
   height="941"
   version="1.1"
   viewBox="0 0 705.75 705.75"
   id="svg446"
   sodipodi:docname="Holy growth.svg"
   inkscape:export-filename="Holy growth.png"
   inkscape:export-xdpi="5.0999999"
   inkscape:export-ydpi="5.0999999"
   inkscape:version="1.2.2 (b0a8486541, 2022-12-01)"
   xmlns:inkscape="http://www.inkscape.org/namespaces/inkscape"
   xmlns:sodipodi="http://sodipodi.sourceforge.net/DTD/sodipodi-0.dtd"
   xmlns="http://www.w3.org/2000/svg"
   xmlns:svg="http://www.w3.org/2000/svg">
  <sodipodi:namedview
     id="namedview448"
     pagecolor="#ffffff"
     bordercolor="#666666"
     borderopacity="1.0"
     inkscape:showpageshadow="2"
     inkscape:pageopacity="0.0"
     inkscape:pagecheckerboard="true"
     inkscape:deskcolor="#d1d1d1"
     inkscape:document-units="pt"
     showgrid="false"
     inkscape:zoom="0.31062191"
     inkscape:cx="-928.78188"
     inkscape:cy="840.24981"
     inkscape:window-width="1920"
     inkscape:window-height="1003"
     inkscape:window-x="0"
     inkscape:window-y="27"
     inkscape:window-maximized="1"
     inkscape:current-layer="svg446" />
  <defs
     id="defs380">
    <symbol
       id="t"
       overflow="visible">
      <path
         d="m 16.75,-1 c -0.86719,0.44922 -1.7656,0.78906 -2.7031,1.0156 -0.9375,0.22654 -1.9141,0.34375 -2.9219,0.34375 -3.043,0 -5.4492,-0.84766 -7.2188,-2.5469 -1.7734,-1.6953 -2.6562,-4 -2.6562,-6.9062 0,-2.9141 0.88281,-5.2227 2.6562,-6.9219 1.7695,-1.6953 4.1758,-2.5469 7.2188,-2.5469 1.0078,0 1.9844,0.11719 2.9219,0.34375 0.9375,0.23047 1.8359,0.57031 2.7031,1.0156 v 3.7812 c -0.875,-0.59375 -1.7344,-1.0312 -2.5781,-1.3125 -0.8437,-0.2813 -1.7344,-0.42188 -2.6719,-0.42188 -1.6797,0 -2.9961,0.54297 -3.9531,1.625 -0.96094,1.0742 -1.4375,2.5547 -1.4375,4.4375 0,1.875 0.47656,3.3555 1.4375,4.4375 0.95703,1.0742 2.2734,1.6094 3.9531,1.6094 0.9375,0 1.8281,-0.13281 2.6719,-0.40625 0.84375,-0.28125 1.7031,-0.71875 2.5781,-1.3125 z"
         id="path320" />
    </symbol>
    <symbol
       id="c"
       overflow="visible">
      <path
         d="m 12.25,-9.9531 c -0.375,-0.17578 -0.75781,-0.30469 -1.1406,-0.39062 -0.375,-0.08203 -0.75781,-0.125 -1.1406,-0.125 -1.125,0 -1.9922,0.35938 -2.5938,1.0781 -0.60547,0.71875 -0.90625,1.75 -0.90625,3.0938 V 8e-5 h -4.375 v -13.672 h 4.375 v 2.25 c 0.5625,-0.89453 1.207,-1.5469 1.9375,-1.9531 0.72656,-0.41406 1.5977,-0.625 2.6094,-0.625 0.15625,0 0.31641,0.0078 0.48438,0.01563 0.16406,0.01172 0.41406,0.03906 0.75,0.07813 z"
         id="path323" />
    </symbol>
    <symbol
       id="a"
       overflow="visible">
      <path
         d="m 15.75,-6.875 v 1.25 H 5.531 c 0.10156,1.0234 0.47266,1.793 1.1094,2.3125 0.63281,0.51172 1.5195,0.76562 2.6562,0.76562 0.92578,0 1.8672,-0.13281 2.8281,-0.40625 0.96875,-0.28125 1.957,-0.69531 2.9688,-1.25 v 3.375 c -1.0312,0.38672 -2.0625,0.67969 -3.0938,0.875 -1.0312,0.20703 -2.0625,0.3125 -3.0938,0.3125 -2.4805,0 -4.4062,-0.62891 -5.7812,-1.8906 -1.3672,-1.2578 -2.0469,-3.0234 -2.0469,-5.2969 0,-2.2266 0.67188,-3.9766 2.0156,-5.25 1.3438,-1.2812 3.1953,-1.9219 5.5625,-1.9219 2.1445,0 3.8633,0.64844 5.1562,1.9375 1.2891,1.293 1.9375,3.0234 1.9375,5.1875 z m -4.5,-1.4531 c 0,-0.83203 -0.24609,-1.5 -0.73438,-2 -0.48047,-0.50781 -1.1094,-0.76562 -1.8906,-0.76562 -0.84375,0 -1.5312,0.24219 -2.0625,0.71875 -0.52344,0.46875 -0.85156,1.1523 -0.98438,2.0469 z"
         id="path326" />
    </symbol>
    <symbol
       id="e"
       overflow="visible">
      <path
         d="m 8.2344,-6.1562 c -0.91797,0 -1.6055,0.15625 -2.0625,0.46875 -0.46094,0.3125 -0.6875,0.76562 -0.6875,1.3594 0,0.5625 0.17969,1 0.54688,1.3125 0.375,0.3125 0.89062,0.46875 1.5469,0.46875 0.82031,0 1.5156,-0.29688 2.0781,-0.89062 0.5625,-0.59374 0.84375,-1.332 0.84375,-2.2188 v -0.5 z m 6.6719,-1.6406 V 1e-4 H 10.5001 V -2.0311 C 9.91416,-1.19516 9.254,-0.5858 8.5157,-0.203 7.78523,0.172 6.8946,0.3595 5.8438,0.3595 c -1.418,0 -2.5703,-0.41016 -3.4531,-1.2344 -0.875,-0.83203 -1.3125,-1.9102 -1.3125,-3.2344 0,-1.5938 0.54688,-2.7656 1.6406,-3.5156 1.1016,-0.75 2.8359,-1.125 5.2031,-1.125 H 10.5 v -0.34375 c 0,-0.6875 -0.27734,-1.1914 -0.82812,-1.5156 -0.54297,-0.32031 -1.3906,-0.48438 -2.5469,-0.48438 -0.9375,0 -1.8086,0.09375 -2.6094,0.28125 -0.80469,0.1875 -1.5547,0.46875 -2.25,0.84375 v -3.3438 c 0.9375,-0.21875 1.875,-0.38281 2.8125,-0.5 0.94531,-0.125 1.8945,-0.1875 2.8438,-0.1875 2.4688,0 4.25,0.49219 5.3438,1.4688 1.0938,0.96875 1.6406,2.5469 1.6406,4.7344 z"
         id="path329" />
    </symbol>
    <symbol
       id="b"
       overflow="visible">
      <path
         d="m 6.875,-17.547 v 3.875 h 4.5 v 3.125 h -4.5 v 5.7969 c 0,0.63672 0.125,1.0703 0.375,1.2969 0.25,0.21875 0.75,0.32812 1.5,0.32812 H 11 V -8e-5 H 7.25 C 5.5195,-8e-5 4.2969,-0.35946 3.5781,-1.07818 2.8593,-1.7969 2.5,-3.01958 2.5,-4.75008 v -5.7969 H 0.3281 v -3.125 H 2.5 v -3.875 z"
         id="path332" />
    </symbol>
    <symbol
       id="i"
       overflow="visible">
      <path
         d="m 11.406,-11.672 v -7.3281 h 4.3906 v 19 H 11.406 v -1.9844 c -0.60547,0.8125 -1.2734,1.4062 -2,1.7812 -0.71875,0.375 -1.5586,0.5625 -2.5156,0.5625 -1.6797,0 -3.0586,-0.66406 -4.1406,-2 -1.0859,-1.3438 -1.625,-3.0703 -1.625,-5.1875 0,-2.1016 0.53906,-3.8203 1.625,-5.1562 1.082,-1.3438 2.4609,-2.0156 4.1406,-2.0156 0.94531,0 1.7852,0.19531 2.5156,0.57812 0.72656,0.375 1.3945,0.96094 2,1.75 z m -2.8906,8.8594 c 0.9375,0 1.6484,-0.34375 2.1406,-1.0312 0.5,-0.6875 0.75,-1.6797 0.75,-2.9844 0,-1.3008 -0.25,-2.2891 -0.75,-2.9688 -0.49219,-0.6875 -1.2031,-1.0312 -2.1406,-1.0312 -0.92969,0 -1.6367,0.34375 -2.125,1.0312 -0.49219,0.67969 -0.73438,1.668 -0.73438,2.9688 0,1.3047 0.24219,2.2969 0.73438,2.9844 0.48828,0.6875 1.1953,1.0312 2.125,1.0312 z"
         id="path335" />
    </symbol>
    <symbol
       id="h"
       overflow="visible">
      <path
         d="m 9.375,-2.8125 c 0.9375,0 1.6484,-0.34375 2.1406,-1.0312 0.48828,-0.6875 0.73438,-1.6797 0.73438,-2.9844 0,-1.3008 -0.24609,-2.2891 -0.73438,-2.9688 -0.49219,-0.6875 -1.2031,-1.0312 -2.1406,-1.0312 -0.9375,0 -1.6562,0.34375 -2.1562,1.0312 -0.5,0.68745 -0.75,1.6797 -0.75,2.9688 0,1.293 0.25,2.2891 0.75,2.9844 0.5,0.6875 1.2188,1.0312 2.1562,1.0312 z m -2.9062,-8.8594 c 0.60156,-0.78906 1.2695,-1.375 2,-1.75 0.73828,-0.38281 1.582,-0.57812 2.5312,-0.57812 1.6875,0 3.0664,0.67188 4.1406,2.0156 1.082,1.3359 1.625,3.0547 1.625,5.1562 0,2.1172 -0.54297,3.8438 -1.625,5.1875 -1.0742,1.3359 -2.4531,2 -4.1406,2 -0.94922,0 -1.793,-0.1875 -2.5312,-0.5625 -0.73047,-0.38281 -1.3984,-0.97656 -2,-1.7812 V -2e-5 h -4.375 v -19 h 4.375 z"
         id="path338" />
    </symbol>
    <symbol
       id="g"
       overflow="visible">
      <path
         d="m 0.3125,-13.672 h 4.3594 l 3.6719,9.2812 3.125,-9.2812 h 4.375 l -5.75,14.969 C 9.51958,2.8165 8.8477,3.879 8.0782,4.4845 7.30476,5.08606 6.2891,5.39075 5.0313,5.39075 H 2.5001 v -2.8594 h 1.375 c 0.73828,0 1.2734,-0.12109 1.6094,-0.35938 0.34375,-0.24219 0.60938,-0.66406 0.79688,-1.2656 l 0.10938,-0.375 z"
         id="path341" />
    </symbol>
    <symbol
       id="f"
       overflow="visible">
      <path
         d="M 2.2969,-18.219 H 7 V 0 H 2.2969 Z"
         id="path344" />
    </symbol>
    <symbol
       id="s"
       overflow="visible">
      <path
         d="m 11.406,-2.3125 c -0.60547,0.79297 -1.2734,1.375 -2,1.75 C 8.68725,-0.1875 7.8474,0 6.8904,0 5.2224,0 3.8435,-0.65625 2.7498,-1.9688 1.6639,-3.2813 1.1248,-4.9571 1.1248,-7 c 0,-2.0391 0.53906,-3.7109 1.625,-5.0156 1.0938,-1.3125 2.4727,-1.9688 4.1406,-1.9688 0.95703,0 1.7969,0.1875 2.5156,0.5625 0.72656,0.375 1.3945,0.96875 2,1.7812 v -2.0312 h 4.3906 v 12.297 c 0,2.1953 -0.69531,3.875 -2.0781,5.0312 C 12.3318,4.8125 10.3162,5.3907 7.6716,5.3907 6.81613,5.3907 5.988,5.320387 5.1872,5.18758 4.39423,5.06258 3.5974,4.86727 2.7966,4.60946 v -3.4062 c 0.75781,0.4375 1.5039,0.75781 2.2344,0.96875 0.73828,0.21875 1.4766,0.32812 2.2188,0.32812 1.4375,0 2.4883,-0.3125 3.1562,-0.9375 0.66406,-0.625 1,-1.6016 1,-2.9375 z m -2.8906,-8.5156 c -0.89844,0 -1.6016,0.33594 -2.1094,1 -0.5,0.66797 -0.75,1.6094 -0.75,2.8281 0,1.2617 0.23828,2.2148 0.71875,2.8594 0.48828,0.64844 1.2031,0.96875 2.1406,0.96875 0.91406,0 1.625,-0.33203 2.125,-1 0.50781,-0.66406 0.76562,-1.6094 0.76562,-2.8281 0,-1.2187 -0.25781,-2.1602 -0.76562,-2.8281 -0.5,-0.66406 -1.2109,-1 -2.125,-1 z"
         id="path347" />
    </symbol>
    <symbol
       id="r"
       overflow="visible">
      <path
         d="m 11.094,-19 v 2.875 H 8.6721 c -0.61719,0 -1.0469,0.11719 -1.2969,0.34375 -0.24219,0.21875 -0.35938,0.60547 -0.35938,1.1562 v 0.95312 h 3.7344 v 3.125 H 7.01582 V 7e-5 h -4.3594 v -10.547 h -2.1875 v -3.125 h 2.1875 v -0.95312 c 0,-1.4883 0.41016,-2.5859 1.2344,-3.2969 0.83203,-0.71875 2.1172,-1.0781 3.8594,-1.0781 z"
         id="path350" />
    </symbol>
    <symbol
       id="d"
       overflow="visible">
      <path
         d="m 8.6094,-10.875 c -0.96875,0 -1.7109,0.35156 -2.2188,1.0469 -0.51172,0.6875 -0.76562,1.6875 -0.76562,3 0,1.3125 0.25391,2.3203 0.76562,3.0156 0.50781,0.69922 1.25,1.0469 2.2188,1.0469 0.94531,0 1.6719,-0.34766 2.1719,-1.0469 0.50781,-0.69531 0.76562,-1.7031 0.76562,-3.0156 0,-1.3125 -0.25781,-2.3125 -0.76562,-3 -0.5,-0.69531 -1.2266,-1.0469 -2.1719,-1.0469 z m 0,-3.125 c 2.3516,0 4.1875,0.63672 5.5,1.9062 1.3203,1.2734 1.9844,3.0273 1.9844,5.2656 0,2.25 -0.66406,4.0117 -1.9844,5.2812 -1.3125,1.2734 -3.1484,1.9062 -5.5,1.9062 -2.3672,0 -4.2148,-0.63281 -5.5469,-1.9062 -1.3242,-1.2695 -1.9844,-3.0312 -1.9844,-5.2812 0,-2.2383 0.66016,-3.9922 1.9844,-5.2656 C 4.3945,-13.3633 6.2422,-14 8.6094,-14 Z"
         id="path353" />
    </symbol>
    <symbol
       id="q"
       overflow="visible">
      <path
         d="m 14.766,-11.406 c 0.55078,-0.84375 1.207,-1.4844 1.9688,-1.9219 0.76953,-0.44531 1.6094,-0.67188 2.5156,-0.67188 1.5703,0 2.7695,0.48438 3.5938,1.4531 0.82031,0.96875 1.2344,2.375 1.2344,4.2188 v 8.3281 h -4.4062 v -7.125 c 0.0078,-0.10156 0.01563,-0.21094 0.01563,-0.32812 0.0078,-0.11328 0.01563,-0.28125 0.01563,-0.5 0,-0.96875 -0.14844,-1.6641 -0.4375,-2.0938 -0.28125,-0.4375 -0.74219,-0.65625 -1.375,-0.65625 -0.82422,0 -1.4648,0.34375 -1.9219,1.0312 -0.44922,0.67969 -0.68359,1.6641 -0.70312,2.9531 v 6.7188 h -4.3906 v -7.125 c 0,-1.5195 -0.13281,-2.4922 -0.39062,-2.9219 -0.26172,-0.4375 -0.72656,-0.65625 -1.3906,-0.65625 -0.83594,0 -1.4805,0.34375 -1.9375,1.0312 -0.46094,0.6875 -0.6875,1.6719 -0.6875,2.9531 V 1e-4 h -4.3906 v -13.672 h 4.3906 v 2 c 0.53906,-0.76953 1.1562,-1.3477 1.8438,-1.7344 0.69531,-0.39453 1.4688,-0.59375 2.3125,-0.59375 0.9375,0 1.7656,0.23047 2.4844,0.6875 0.72656,0.44922 1.2812,1.0859 1.6562,1.9062 z"
         id="path356" />
    </symbol>
    <symbol
       id="p"
       overflow="visible">
      <path
         d="M 15.844,-8.3281 V 0 h -4.3906 v -6.3438 c 0,-1.1953 -0.02734,-2.0195 -0.07813,-2.4688 -0.05469,-0.44531 -0.14844,-0.77344 -0.28125,-0.98438 -0.16797,-0.28906 -0.39844,-0.51562 -0.6875,-0.67188 -0.29297,-0.15625 -0.625,-0.23438 -1,-0.23438 -0.91797,0 -1.6367,0.35547 -2.1562,1.0625 -0.52344,0.69922 -0.78125,1.6719 -0.78125,2.9219 V -4e-5 h -4.375 v -19 h 4.375 v 7.3281 c 0.65625,-0.78906 1.3516,-1.375 2.0938,-1.75 0.75,-0.38281 1.5664,-0.57812 2.4531,-0.57812 1.582,0 2.7812,0.48438 3.5938,1.4531 0.82031,0.96875 1.2344,2.375 1.2344,4.2188 z"
         id="path359" />
    </symbol>
    <symbol
       id="o"
       overflow="visible">
      <path
         d="m 2.2969,-18.219 h 5.25 l 6.625,12.5 v -12.5 H 18.625 V 0 h -5.25 L 6.75,-12.5 V 0 H 2.2969 Z"
         id="path362" />
    </symbol>
    <symbol
       id="n"
       overflow="visible">
      <path
         d="m 1.9531,-5.3281 v -8.3438 h 4.3906 v 1.3594 c 0,0.75 -0.00781,1.6836 -0.015625,2.7969 v 2.2344 c 0,1.1055 0.023437,1.9023 0.078125,2.3906 0.0625,0.48047 0.16016,0.82812 0.29688,1.0469 0.17578,0.28125 0.41016,0.5 0.70312,0.65625 0.28906,0.15625 0.625,0.23438 1,0.23438 0.90625,0 1.6172,-0.34766 2.1406,-1.0469 0.51953,-0.69531 0.78125,-1.6719 0.78125,-2.9219 v -6.75 h 4.375 v 13.672 h -4.375 v -1.9844 c -0.65625,0.80469 -1.3555,1.3984 -2.0938,1.7812 -0.74219,0.375 -1.5547,0.5625 -2.4375,0.5625 -1.5742,0 -2.7773,-0.48438 -3.6094,-1.4531 -0.82422,-0.96875 -1.2344,-2.3789 -1.2344,-4.2344 z"
         id="path365" />
    </symbol>
    <symbol
       id="m"
       overflow="visible">
      <path
         d="M 15.844,-8.3281 V 0 h -4.3906 v -6.375 c 0,-1.1758 -0.02734,-1.9883 -0.07813,-2.4375 -0.05469,-0.44531 -0.14844,-0.77344 -0.28125,-0.98438 -0.16797,-0.28906 -0.39844,-0.51562 -0.6875,-0.67188 -0.29297,-0.15625 -0.625,-0.23438 -1,-0.23438 -0.91797,0 -1.6367,0.35547 -2.1562,1.0625 -0.52344,0.69922 -0.78125,1.6719 -0.78125,2.9219 V 6e-5 h -4.375 v -13.672 h 4.375 v 2 c 0.65625,-0.78906 1.3516,-1.375 2.0938,-1.75 0.75,-0.38281 1.5664,-0.57812 2.4531,-0.57812 1.582,0 2.7812,0.48438 3.5938,1.4531 0.82031,0.96875 1.2344,2.375 1.2344,4.2188 z"
         id="path368" />
    </symbol>
    <symbol
       id="l"
       overflow="visible">
      <path
         d="m 2.2969,-18.219 h 7.7969 c 2.3203,0 4.1016,0.51562 5.3438,1.5469 1.2383,1.0234 1.8594,2.4844 1.8594,4.3906 0,1.918 -0.62109,3.3906 -1.8594,4.4219 -1.2422,1.0234 -3.0234,1.5312 -5.3438,1.5312 H 7 V -3e-4 H 2.2969 Z M 7,-14.8128 v 5.0781 h 2.5938 c 0.91406,0 1.6172,-0.21875 2.1094,-0.65625 0.5,-0.44531 0.75,-1.0781 0.75,-1.8906 0,-0.8125 -0.25,-1.4375 -0.75,-1.875 -0.49219,-0.4375 -1.1953,-0.65625 -2.1094,-0.65625 z"
         id="path371" />
    </symbol>
    <symbol
       id="k"
       overflow="visible">
      <path
         d="m 2.0938,-13.672 h 4.375 V -0.25 c 0,1.832 -0.44531,3.2266 -1.3281,4.1875 C 4.2657,4.90625 2.9923,5.3906 1.3282,5.3906 H -0.828 V 2.5312 h 0.75 c 0.83203,0 1.3984,-0.1875 1.7031,-0.5625 0.3125,-0.375 0.46875,-1.1172 0.46875,-2.2188 z m 0,-5.3281 h 4.375 v 3.5625 h -4.375 z"
         id="path374" />
    </symbol>
    <symbol
       id="j"
       overflow="visible">
      <path
         d="m 13.141,-13.25 v 3.5625 c -0.59375,-0.40625 -1.1875,-0.70312 -1.7812,-0.89062 -0.59375,-0.19531 -1.2148,-0.29688 -1.8594,-0.29688 -1.2188,0 -2.1719,0.35938 -2.8594,1.0781 -0.67969,0.71094 -1.0156,1.6992 -1.0156,2.9688 0,1.2812 0.33594,2.2812 1.0156,3 0.6875,0.71094 1.6406,1.0625 2.8594,1.0625 0.67578,0 1.3203,-0.097656 1.9375,-0.29688 0.61328,-0.20703 1.1797,-0.51562 1.7031,-0.92188 v 3.5781 c -0.67969,0.25 -1.3711,0.4375 -2.0781,0.5625 -0.69922,0.13281 -1.4023,0.20312 -2.1094,0.20312 -2.4688,0 -4.4023,-0.62891 -5.7969,-1.8906 -1.3867,-1.2695 -2.0781,-3.0352 -2.0781,-5.2969 0,-2.25 0.69141,-4.0039 2.0781,-5.2656 1.3945,-1.2695 3.3281,-1.9062 5.7969,-1.9062 0.70703,0 1.4102,0.0625 2.1094,0.1875 0.69531,0.125 1.3906,0.3125 2.0781,0.5625 z"
         id="path377" />
    </symbol>
  </defs>
  <path
     d="m 0.375,632.875 v -230 h 50 v -105 h 100 v 50 h 15 v -175 h 60 v 145 h 15 v -245 h 140 v 215 h 40 v -80 h 45 v -70 h 75 v 215 h 30 v -65 h 85 v 105 h 50 v 230 h -700 z m 510,-440 v -40 h -15 v 40 z m -25,0 v -40 h -15 v 40 z m 130,150 v -40 h -15 v 40 z m -25,0 v -40 h -15 v 40 z m -105,-100 v -40 h -15 v 40 z m 105,150 v -40 h -15 v 40 z m -260,-260 v -40 h -15 v 40 z m -30,0 v -40 h -15 v 40 z m -30,0 v -40 h -15 v 40 z m 30,55 v -40 h -15 v 40 z m 250,275 v -40 h -15 v 40 z m -285,-275 v -40 h -15 v 40 z m 260,275 v -40 h -15 v 40 z m -260,-220 v -40 h -15 v 40 z m 260,270 v -40 h -15 v 40 z m -315,-295 v -40 h -15 v 40 z m -30,0 v -40 h -15 v 40 z m 135,150 v -40 h -15 v 40 z m -30,0 v -40 h -15 v 40 z m -100,-95 v -40 h -15 v 40 z m 200,245 v -40 h -15 v 40 z m -95,-95 v -40 h -15 v 40 z m 75,95 v -40 h -15 v 40 z m 0,50 v -40 h -15 v 40 z m -255,-220 v -40 h -15 v 40 z m 55,70 v -40 h -15 v 40 z m -85,-70 v -40 h -15 v 40 z m 60,70 v -40 h -15 v 40 z m 0,50 v -40 h -15 v 40 z"
     fill-rule="evenodd"
     id="path382"
     style="fill:#ffffff;fill-opacity:1" />
</svg>
