<?xml version="1.0" encoding="UTF-8" standalone="no"?>
<svg
   xmlns:dc="http://purl.org/dc/elements/1.1/"
   xmlns:cc="http://creativecommons.org/ns#"
   xmlns:rdf="http://www.w3.org/1999/02/22-rdf-syntax-ns#"
   xmlns:svg="http://www.w3.org/2000/svg"
   xmlns="http://www.w3.org/2000/svg"
   xmlns:sodipodi="http://sodipodi.sourceforge.net/DTD/sodipodi-0.dtd"
   xmlns:inkscape="http://www.inkscape.org/namespaces/inkscape"
   width="747"
   height="747"
   version="1.1"
   viewBox="0 0 560.25001 560.25001"
   id="svg60"
   sodipodi:docname="Last division.svg"
   inkscape:export-filename="/home/marek/Downloads/Last division.png"
   inkscape:export-xdpi="25.702812"
   inkscape:export-ydpi="25.702812"
   inkscape:version="1.0.2 (e86c870879, 2021-01-15)">
  <metadata
     id="metadata66">
    <rdf:RDF>
      <cc:Work
         rdf:about="">
        <dc:format>image/svg+xml</dc:format>
        <dc:type
           rdf:resource="http://purl.org/dc/dcmitype/StillImage" />
        <dc:title></dc:title>
      </cc:Work>
    </rdf:RDF>
  </metadata>
  <defs
     id="defs64" />
  <sodipodi:namedview
     pagecolor="#ffffff"
     bordercolor="#666666"
     borderopacity="1"
     objecttolerance="10"
     gridtolerance="10"
     guidetolerance="10"
     inkscape:pageopacity="0"
     inkscape:pageshadow="2"
     inkscape:window-width="1920"
     inkscape:window-height="990"
     id="namedview62"
     showgrid="false"
     inkscape:pagecheckerboard="true"
     units="px"
     inkscape:zoom="0.44410714"
     inkscape:cx="496.07803"
     inkscape:cy="600.94016"
     inkscape:window-x="0"
     inkscape:window-y="30"
     inkscape:window-maximized="1"
     inkscape:current-layer="svg60" />
  <g
     fill-rule="evenodd"
     id="g58"
     transform="translate(-69.872495,0.12872654)"
     style="fill:#ffffff;fill-opacity:1">
    <path
       d="m 389.32,249.38 c -3.4102,-0.0469 -6.5391,1.8906 -8.0117,4.9688 -1.4766,3.0742 -1.0312,6.7266 1.1406,9.3594 l 52.363,65.469 v -0.004 c 1.4492,1.8125 3.5625,2.9766 5.8711,3.2344 2.3086,0.25391 4.6211,-0.41406 6.4336,-1.8672 1.8125,-1.4492 2.9766,-3.5625 3.2344,-5.8711 0.25391,-2.3086 -0.41797,-4.6211 -1.8672,-6.4375 l -52.363,-65.469 v 0.004 c -1.6328,-2.1055 -4.1367,-3.3516 -6.8008,-3.3867 z"
       id="path2"
       style="fill:#ffffff;fill-opacity:1" />
    <path
       d="m 349.95,249.38 c -3.4102,-0.0469 -6.5391,1.8906 -8.0117,4.9688 -1.4766,3.0742 -1.0312,6.7266 1.1406,9.3594 l 39.238,49.23 v -0.004 c 1.4102,1.918 3.543,3.1797 5.9023,3.4922 2.3593,0.3125 4.7422,-0.35156 6.6055,-1.8359 1.8594,-1.4844 3.0352,-3.6641 3.2539,-6.0312 0.22266,-2.3711 -0.53516,-4.7305 -2.0898,-6.5312 l -39.203,-49.23 c -1.6367,-2.125 -4.1562,-3.3867 -6.8359,-3.418 z"
       id="path4"
       style="fill:#ffffff;fill-opacity:1" />
    <path
       d="m 310.57,249.38 c -3.4102,-0.0469 -6.5391,1.8906 -8.0117,4.9688 -1.4766,3.0742 -1.0312,6.7266 1.1406,9.3594 l 39.238,49.23 v -0.004 c 1.4102,1.918 3.543,3.1797 5.9023,3.4922 2.3593,0.3125 4.7422,-0.35156 6.6055,-1.8359 1.8594,-1.4844 3.0352,-3.6641 3.2539,-6.0312 0.22266,-2.3711 -0.53516,-4.7305 -2.0898,-6.5312 l -39.203,-49.23 c -1.6367,-2.125 -4.1562,-3.3867 -6.8359,-3.418 z"
       id="path6"
       style="fill:#ffffff;fill-opacity:1" />
    <path
       d="m 258.07,231.88 c -3.4102,-0.0469 -6.5352,1.8906 -8.0117,4.9688 -1.4766,3.0742 -1.0312,6.7266 1.1406,9.3555 l 52.363,65.469 c 1.4492,1.8164 3.5625,2.9766 5.8711,3.2344 2.3086,0.2578 4.6211,-0.41406 6.4336,-1.8672 1.8125,-1.4492 2.9766,-3.5625 3.2344,-5.8711 0.25391,-2.3086 -0.41797,-4.6211 -1.8672,-6.4375 l -52.363,-65.469 v 0.004 c -1.6328,-2.1055 -4.1367,-3.3516 -6.8008,-3.3867 z"
       id="path8"
       style="fill:#ffffff;fill-opacity:1" />
    <path
       d="m 630,273.08 v 17.504 H 446.25 L 433.125,273.08 Z"
       id="path10"
       style="fill:#ffffff;fill-opacity:1" />
    <path
       d="m 253.75,273.08 13.125,17.504 H 69.995 V 273.08 Z"
       id="path12"
       style="fill:#ffffff;fill-opacity:1" />
    <path
       d="m 183.32,406.95 c -2.5742,0.0977 -4.9766,1.3203 -6.5625,3.3516 l -52.328,65.469 -0.004,-0.004 c -1.4492,1.8125 -2.1211,4.1289 -1.8633,6.4375 0.25391,2.3086 1.418,4.4219 3.2305,5.8711 1.8125,1.4531 4.1289,2.1211 6.4375,1.8672 2.3047,-0.25781 4.418,-1.4219 5.8672,-3.2344 l 52.328,-65.469 h 0.004 c 2.1797,-2.6641 2.5938,-6.3594 1.0586,-9.4414 -1.5312,-3.082 -4.7305,-4.9805 -8.168,-4.8477 z"
       id="path14"
       style="fill:#ffffff;fill-opacity:1" />
    <path
       d="m 222.66,406.95 c -2.5664,0.11328 -4.9531,1.3516 -6.5273,3.3828 l -39.238,49.23 c -1.4492,1.8164 -2.1133,4.1367 -1.8516,6.4453 0.26562,2.3047 1.4336,4.4141 3.25,5.8633 3.7852,3.0117 9.293,2.3828 12.305,-1.4023 l 39.203,-49.23 h 0.004 c 2.1836,-2.668 2.5977,-6.3711 1.0547,-9.457 -1.543,-3.0859 -4.7539,-4.9766 -8.1992,-4.832 z"
       id="path16"
       style="fill:#ffffff;fill-opacity:1" />
    <path
       d="m 262.04,406.95 c -2.5664,0.11328 -4.9531,1.3516 -6.5273,3.3828 l -39.238,49.23 c -1.4492,1.8164 -2.1133,4.1367 -1.8516,6.4453 0.26562,2.3047 1.4336,4.4141 3.25,5.8633 3.7852,3.0117 9.293,2.3828 12.305,-1.4023 l 39.203,-49.23 h 0.004 c 2.1836,-2.668 2.5977,-6.3711 1.0547,-9.457 -1.543,-3.0859 -4.7539,-4.9766 -8.1992,-4.832 z"
       id="path18"
       style="fill:#ffffff;fill-opacity:1" />
    <path
       d="m 314.57,389.45 c -2.5742,0.0977 -4.9766,1.3203 -6.5625,3.3516 l -52.328,65.469 -0.004,-0.004 c -1.4688,1.8125 -2.1523,4.1367 -1.9023,6.457 0.24609,2.3164 1.4141,4.4414 3.2344,5.8984 1.8203,1.457 4.1484,2.1289 6.4648,1.8633 2.3164,-0.2656 4.4336,-1.4453 5.875,-3.2773 l 52.328,-65.469 h 0.004 c 2.1797,-2.6641 2.5938,-6.3594 1.0625,-9.4414 -1.5352,-3.0859 -4.7344,-4.9805 -8.1719,-4.8477 z"
       id="path20"
       style="fill:#ffffff;fill-opacity:1" />
    <path
       d="m 432.76,406.95 c -2.5742,0.0977 -4.9727,1.3203 -6.5625,3.3516 l -52.328,65.469 v -0.004 c -1.4531,1.8125 -2.1211,4.1289 -1.8672,6.4375 0.25781,2.3086 1.418,4.4219 3.2344,5.8711 1.8125,1.4531 4.125,2.1211 6.4336,1.8672 2.3086,-0.25781 4.418,-1.4219 5.8711,-3.2344 l 52.328,-65.469 c 2.1797,-2.6641 2.5938,-6.3594 1.0625,-9.4414 -1.5352,-3.082 -4.7305,-4.9805 -8.1719,-4.8477 z"
       id="path22"
       style="fill:#ffffff;fill-opacity:1" />
    <path
       d="m 472.14,406.95 c -2.5781,0.10547 -4.9805,1.3438 -6.5625,3.3828 l -39.203,49.23 c -1.5547,1.8008 -2.3125,4.1602 -2.0898,6.5273 0.21875,2.3711 1.3945,4.5508 3.2539,6.0352 1.8633,1.4844 4.2461,2.1445 6.6055,1.8359 2.3594,-0.3125 4.4922,-1.5742 5.9023,-3.4922 l 39.238,-49.23 c 2.1836,-2.668 2.5977,-6.3711 1.0547,-9.457 -1.543,-3.0859 -4.7539,-4.9766 -8.1992,-4.832 z"
       id="path24"
       style="fill:#ffffff;fill-opacity:1" />
    <path
       d="m 511.51,406.95 c -2.5781,0.10547 -4.9805,1.3438 -6.5625,3.3828 l -39.203,49.23 c -1.5547,1.8008 -2.3125,4.1602 -2.0898,6.5273 0.21875,2.3711 1.3945,4.5508 3.2539,6.0352 1.8633,1.4844 4.2461,2.1445 6.6055,1.8359 2.3594,-0.3125 4.4922,-1.5742 5.9023,-3.4922 l 39.238,-49.23 c 2.1836,-2.668 2.5977,-6.3711 1.0547,-9.457 -1.543,-3.0859 -4.7539,-4.9766 -8.1992,-4.832 z"
       id="path26"
       style="fill:#ffffff;fill-opacity:1" />
    <path
       d="m 564.01,389.45 c -2.5742,0.0977 -4.9727,1.3203 -6.5625,3.3516 l -52.328,65.469 v -0.004 c -1.4688,1.8125 -2.1562,4.1367 -1.9062,6.457 0.25,2.3164 1.4141,4.4414 3.2344,5.8984 1.8203,1.457 4.1484,2.1289 6.4648,1.8633 2.3203,-0.26562 4.4336,-1.4453 5.8789,-3.2773 l 52.328,-65.469 c 2.1797,-2.6641 2.5977,-6.3594 1.0625,-9.4414 -1.5312,-3.0859 -4.7305,-4.9805 -8.1719,-4.8477 z"
       id="path28"
       style="fill:#ffffff;fill-opacity:1" />
    <path
       d="m 385,432.8 -13.125,17.504 -66.637,0.29688 13.98,-17.504 z"
       id="path30"
       style="fill:#ffffff;fill-opacity:1" />
    <path
       d="m 630,432.8 v 17.504 l -74.531,0.29688 13.125,-17.504 z"
       id="path32"
       style="fill:#ffffff;fill-opacity:1" />
    <path
       d="m 135.45,433 -13.125,17.504 H 69.997 V 433 Z"
       id="path34"
       style="fill:#ffffff;fill-opacity:1" />
    <path
       d="m 183.32,87.508 c -2.5742,0.09375 -4.9766,1.3203 -6.5625,3.3516 l -52.328,65.469 -0.004,-0.004 c -1.4688,1.8125 -2.1523,4.1367 -1.9023,6.457 0.24609,2.3164 1.4141,4.4414 3.2344,5.8984 1.8203,1.457 4.1484,2.1289 6.4648,1.8633 2.3164,-0.2656 4.4336,-1.4453 5.875,-3.2773 l 52.328,-65.469 h 0.004 c 2.1797,-2.664096 2.5938,-6.359396 1.0625,-9.441396 -1.5352,-3.0859 -4.7344,-4.9805 -8.1719,-4.8477 z"
       id="path36"
       style="fill:#ffffff;fill-opacity:1" />
    <path
       d="m 222.66,87.508 c -2.5664,0.11328 -4.957,1.3516 -6.5273,3.3828 l -39.238,49.23 c -1.4648,1.8164 -2.1445,4.1406 -1.8906,6.4609 0.25781,2.3203 1.4258,4.4414 3.2539,5.8945 1.8242,1.4492 4.1562,2.1133 6.4727,1.8438 2.3164,-0.27344 4.4297,-1.457 5.8672,-3.293 l 39.203,-49.23 h 0.004 c 2.1836,-2.668 2.5977,-6.375 1.0547,-9.4609 -1.543,-3.0859 -4.7539,-4.9766 -8.1992,-4.8281 z"
       id="path38"
       style="fill:#ffffff;fill-opacity:1" />
    <path
       d="m 262.04,87.508 c -2.5664,0.11328 -4.957,1.3516 -6.5273,3.3828 l -39.238,49.23 c -1.4648,1.8164 -2.1445,4.1406 -1.8906,6.4609 0.25781,2.3203 1.4258,4.4414 3.2539,5.8945 1.8242,1.4492 4.1562,2.1133 6.4727,1.8438 2.3164,-0.27344 4.4297,-1.457 5.8672,-3.293 l 39.203,-49.23 h 0.004 c 2.1836,-2.668 2.5977,-6.375 1.0547,-9.4609 -1.543,-3.0859 -4.7539,-4.9766 -8.1992,-4.8281 z"
       id="path40"
       style="fill:#ffffff;fill-opacity:1" />
    <path
       d="m 314.57,70.004 c -2.5742,0.09766 -4.9766,1.3203 -6.5625,3.3516 l -52.328,65.469 -0.004,-0.004 c -1.4688,1.8125 -2.1523,4.1367 -1.9023,6.457 0.24609,2.3164 1.4141,4.4414 3.2344,5.8984 1.8203,1.457 4.1484,2.1289 6.4648,1.8633 2.3164,-0.26562 4.4336,-1.4453 5.875,-3.2773 l 52.328,-65.468997 h 0.004 c 2.1797,-2.6641 2.5938,-6.3594 1.0625,-9.4414 -1.5352,-3.0859 -4.7344,-4.9805 -8.1719,-4.8477 z"
       id="path42"
       style="fill:#ffffff;fill-opacity:1" />
    <path
       d="m 432.76,87.508 c -2.5742,0.09375 -4.9727,1.3203 -6.5625,3.3516 l -52.328,65.469 v -0.004 c -1.4688,1.8125 -2.1562,4.1367 -1.9062,6.457 0.25,2.3164 1.4141,4.4414 3.2344,5.8984 1.8203,1.457 4.1484,2.1289 6.4648,1.8633 2.3203,-0.26562 4.4336,-1.4453 5.8789,-3.2773 l 52.328,-65.469 c 2.1797,-2.664096 2.5977,-6.359396 1.0625,-9.441396 -1.5312,-3.0859 -4.7305,-4.9805 -8.1719,-4.8477 z"
       id="path44"
       style="fill:#ffffff;fill-opacity:1" />
    <path
       d="m 472.14,87.508 c -2.5781,0.10547 -4.9805,1.3438 -6.5625,3.3828 l -39.203,49.23 c -1.5586,1.8008 -2.3203,4.1602 -2.1016,6.5312 0.21875,2.375 1.3984,4.5547 3.2578,6.043 1.8633,1.4844 4.25,2.1445 6.6133,1.832 2.3633,-0.31641 4.4922,-1.5781 5.9023,-3.5 l 39.238,-49.23 c 2.1836,-2.668 2.5977,-6.375 1.0547,-9.4609 -1.543,-3.0859 -4.7539,-4.9766 -8.1992,-4.8281 z"
       id="path46"
       style="fill:#ffffff;fill-opacity:1" />
    <path
       d="m 511.51,87.508 c -2.5781,0.10547 -4.9805,1.3438 -6.5625,3.3828 l -39.203,49.23 c -1.5586,1.8008 -2.3203,4.1602 -2.1016,6.5312 0.21875,2.375 1.3984,4.5547 3.2578,6.043 1.8633,1.4844 4.25,2.1445 6.6133,1.832 2.3633,-0.31641 4.4922,-1.5781 5.9023,-3.5 l 39.238,-49.23 c 2.1836,-2.668 2.5977,-6.375 1.0547,-9.4609 -1.543,-3.0859 -4.7539,-4.9766 -8.1992,-4.8281 z"
       id="path48"
       style="fill:#ffffff;fill-opacity:1" />
    <path
       d="m 564.01,70.004 c -2.5742,0.09766 -4.9727,1.3203 -6.5625,3.3516 l -52.328,65.469 v -0.004 c -1.4688,1.8125 -2.1562,4.1367 -1.9062,6.457 0.25,2.3164 1.4141,4.4414 3.2344,5.8984 1.8203,1.457 4.1484,2.1289 6.4648,1.8633 2.3203,-0.26562 4.4336,-1.4453 5.8789,-3.2773 l 52.328,-65.468997 c 2.1797,-2.6641 2.5977,-6.3594 1.0625,-9.4414 -1.5312,-3.0859 -4.7305,-4.9805 -8.1719,-4.8477 z"
       id="path50"
       style="fill:#ffffff;fill-opacity:1" />
    <path
       d="m 385,113.35 -13.125,17.504 -66.637,0.29688 13.98,-17.504 z"
       id="path52"
       style="fill:#ffffff;fill-opacity:1" />
    <path
       d="m 630,113.35 v 17.504 l -74.531,0.29688 13.125,-17.504 z"
       id="path54"
       style="fill:#ffffff;fill-opacity:1" />
    <path
       d="m 135.45,113.55 -13.125,17.504 H 69.997 V 113.55 Z"
       id="path56"
       style="fill:#ffffff;fill-opacity:1" />
  </g>
</svg>
