<?xml version="1.0" encoding="UTF-8" standalone="no"?>
<svg
   xmlns:dc="http://purl.org/dc/elements/1.1/"
   xmlns:cc="http://creativecommons.org/ns#"
   xmlns:rdf="http://www.w3.org/1999/02/22-rdf-syntax-ns#"
   xmlns:svg="http://www.w3.org/2000/svg"
   xmlns="http://www.w3.org/2000/svg"
   xmlns:sodipodi="http://sodipodi.sourceforge.net/DTD/sodipodi-0.dtd"
   xmlns:inkscape="http://www.inkscape.org/namespaces/inkscape"
   width="747"
   height="747"
   version="1.1"
   viewBox="0 0 560.25001 560.25001"
   id="svg572"
   sodipodi:docname="Local knowledge.svg"
   inkscape:export-filename="/home/marek/Downloads/Local knowledge.png"
   inkscape:export-xdpi="6.425703"
   inkscape:export-ydpi="6.425703"
   inkscape:version="1.0.2 (e86c870879, 2021-01-15)">
  <metadata
     id="metadata578">
    <rdf:RDF>
      <cc:Work
         rdf:about="">
        <dc:format>image/svg+xml</dc:format>
        <dc:type
           rdf:resource="http://purl.org/dc/dcmitype/StillImage" />
        <dc:title></dc:title>
      </cc:Work>
    </rdf:RDF>
  </metadata>
  <defs
     id="defs576" />
  <sodipodi:namedview
     pagecolor="#ffffff"
     bordercolor="#666666"
     borderopacity="1"
     objecttolerance="10"
     gridtolerance="10"
     guidetolerance="10"
     inkscape:pageopacity="0"
     inkscape:pageshadow="2"
     inkscape:window-width="1920"
     inkscape:window-height="990"
     id="namedview574"
     showgrid="false"
     inkscape:pagecheckerboard="true"
     units="px"
     inkscape:zoom="0.31403117"
     inkscape:cx="246.40836"
     inkscape:cy="582.17617"
     inkscape:window-x="0"
     inkscape:window-y="30"
     inkscape:window-maximized="1"
     inkscape:current-layer="svg572" />
  <path
     d="m 280.1261,0.126155 c -109.36,0 -198.329995,88.969 -198.329995,198.329995 0,191.75001 182.909995,352.10001 190.699995,358.82001 2.1914,1.89059 4.8984,2.8477 7.6289,2.8477 2.7305,0 5.4375,-0.95703 7.6289,-2.8477 7.7695,-6.74221 190.70001,-167.09001 190.70001,-358.82001 C 478.45391,89.096155 389.4849,0.126155 280.1239,0.126155 Z m 0,70 c 19.29701,0 35,15.703 35,34.999995 0,19.297 -15.70299,35 -35,35 -19.297,0 -35,-15.703 -35,-35 0,-19.296995 15.703,-34.999995 35,-34.999995 z m -93.332,186.669995 c -6.4414,0 -11.668,-5.2266 -11.668,-11.668 v -93.332 c 0,-6.4414 5.2266,-11.668 11.668,-11.668 22.96101,0 58.402,12.273 81.668,28.141 v 124.13 c -4.1797,-10.059 -51.148,-35.605 -81.668,-35.605 z m 198.33001,-11.668 c 0,6.4414 -5.2266,11.668 -11.668,11.668 -30.52,0 -77.488,25.551 -81.668,35.629 v -124.13 c 23.262,-15.891 58.707,-28.141 81.668,-28.141 6.4414,0 11.668,5.2266 11.668,11.668 z"
     id="path570"
     style="fill:#ffffff;fill-opacity:1" />
</svg>
