<?xml version="1.0" encoding="UTF-8" standalone="no"?>
<svg
   width="701"
   height="701"
   version="1.1"
   viewBox="0 0 525.75 525.75"
   id="svg139"
   sodipodi:docname="noun-medical-school-5614302.svg"
   inkscape:export-filename="noun-medical-school-5614302.png"
   inkscape:export-xdpi="27.389999"
   inkscape:export-ydpi="27.389999"
   inkscape:version="1.2.2 (b0a8486541, 2022-12-01)"
   xmlns:inkscape="http://www.inkscape.org/namespaces/inkscape"
   xmlns:sodipodi="http://sodipodi.sourceforge.net/DTD/sodipodi-0.dtd"
   xmlns="http://www.w3.org/2000/svg"
   xmlns:svg="http://www.w3.org/2000/svg">
  <sodipodi:namedview
     id="namedview141"
     pagecolor="#ffffff"
     bordercolor="#666666"
     borderopacity="1.0"
     inkscape:showpageshadow="2"
     inkscape:pageopacity="0.0"
     inkscape:pagecheckerboard="true"
     inkscape:deskcolor="#d1d1d1"
     inkscape:document-units="pt"
     showgrid="false"
     inkscape:zoom="0.43928571"
     inkscape:cx="522.43902"
     inkscape:cy="332.35772"
     inkscape:window-width="1920"
     inkscape:window-height="1003"
     inkscape:window-x="0"
     inkscape:window-y="27"
     inkscape:window-maximized="1"
     inkscape:current-layer="svg139" />
  <defs
     id="defs65">
    <symbol
       id="u"
       overflow="visible">
      <path
         d="M 19.547,-1.1719 C 18.5353,-0.64846 17.4845,-0.25784 16.3908,0 15.297,0.26953 14.1564,0.40625 12.9689,0.40625 c -3.543,0 -6.3516,-0.98828 -8.4219,-2.9688 -2.0625,-1.9766 -3.0938,-4.6602 -3.0938,-8.0469 0,-3.4062 1.0312,-6.0977 3.0938,-8.0781 2.0703,-1.9766 4.8789,-2.9688 8.4219,-2.9688 1.1875,0 2.3281,0.13672 3.4219,0.40625 1.0938,0.26172 2.1445,0.65625 3.1562,1.1875 v 4.3906 c -1.0234,-0.6875 -2.0273,-1.1914 -3.0156,-1.5156 -0.98047,-0.32031 -2.0156,-0.48438 -3.1094,-0.48438 -1.9609,0 -3.5,0.625 -4.625,1.875 -1.1172,1.25 -1.6719,2.9805 -1.6719,5.1875 0,2.1875 0.55469,3.9141 1.6719,5.1719 1.125,1.25 2.6641,1.875 4.625,1.875 1.0938,0 2.1289,-0.16016 3.1094,-0.48438 0.98828,-0.32031 1.9922,-0.82812 3.0156,-1.5156 z"
         id="path2" />
    </symbol>
    <symbol
       id="d"
       overflow="visible">
      <path
         d="m 14.297,-11.609 c -0.44922,-0.20703 -0.89062,-0.35938 -1.3281,-0.45312 -0.4375,-0.10156 -0.88281,-0.15625 -1.3281,-0.15625 -1.3125,0 -2.3242,0.42188 -3.0312,1.2656 -0.71094,0.83594 -1.0625,2.0391 -1.0625,3.6094 V 4.3e-4 H 2.4533 v -15.953 h 5.0938 v 2.625 c 0.65625,-1.0508 1.4062,-1.8164 2.25,-2.2969 0.85156,-0.47656 1.875,-0.71875 3.0625,-0.71875 0.17578,0 0.36328,0.01172 0.5625,0.03125 0.19531,0.01172 0.48438,0.04297 0.85938,0.09375 z"
         id="path5" />
    </symbol>
    <symbol
       id="b"
       overflow="visible">
      <path
         d="m 18.375,-8.0156 v 1.4531 H 6.453 c 0.125,1.1992 0.55469,2.0938 1.2969,2.6875 0.73828,0.59375 1.7734,0.89062 3.1094,0.89062 1.0703,0 2.1719,-0.15625 3.2969,-0.46875 1.125,-0.32031 2.2812,-0.80469 3.4688,-1.4531 v 3.9375 c -1.2109,0.46094 -2.418,0.80469 -3.625,1.0312 -1.2109,0.22656 -2.4141,0.34375 -3.6094,0.34375 -2.8984,0 -5.1484,-0.72656 -6.75,-2.1875 -1.5938,-1.4688 -2.3906,-3.5312 -2.3906,-6.1875 0,-2.5938 0.78516,-4.6328 2.3594,-6.125 1.5703,-1.5 3.7344,-2.25 6.4844,-2.25 2.5078,0 4.5156,0.75781 6.0156,2.2656 1.5078,1.5117 2.2656,3.5312 2.2656,6.0625 z m -5.2344,-1.7031 c 0,-0.96875 -0.28906,-1.75 -0.85938,-2.3438 -0.5625,-0.59375 -1.2969,-0.89062 -2.2031,-0.89062 -0.99219,0 -1.7969,0.28125 -2.4219,0.84375 -0.61719,0.55469 -0.99609,1.3516 -1.1406,2.3906 z"
         id="path8" />
    </symbol>
    <symbol
       id="j"
       overflow="visible">
      <path
         d="m 9.5938,-7.1719 c -1.0625,0 -1.8672,0.18359 -2.4062,0.54688 -0.53125,0.35547 -0.79688,0.88281 -0.79688,1.5781 0,0.64844 0.21094,1.1523 0.64062,1.5156 0.4375,0.36719 1.0391,0.54688 1.8125,0.54688 0.95703,0 1.7656,-0.34375 2.4219,-1.0312 0.6563,-0.68745 0.98438,-1.5469 0.98438,-2.5781 v -0.57812 z m 7.7969,-1.9375 V 0 H 12.2501 V -2.3594 C 11.5626,-1.39065 10.7892,-0.6875 9.9376,-0.25 9.08213,0.1875 8.047,0.40625 6.8282,0.40625 c -1.6562,0 -3,-0.47656 -4.0312,-1.4375 C 1.7658,-2 1.2501,-3.25005 1.2501,-4.78125 c 0,-1.875 0.64062,-3.25 1.9219,-4.125 1.2891,-0.875 3.3164,-1.3125 6.0781,-1.3125 h 3 v -0.39062 c 0,-0.8125 -0.32031,-1.4062 -0.95312,-1.7812 -0.63672,-0.375 -1.6328,-0.5625 -2.9844,-0.5625 -1.0859,0 -2.1016,0.10938 -3.0469,0.32812 -0.9375,0.21875 -1.8086,0.54688 -2.6094,0.98438 v -3.8906 c 1.082,-0.25781 2.1758,-0.45703 3.2812,-0.59375 1.1016,-0.14453 2.207,-0.21875 3.3125,-0.21875 2.875,0 4.9453,0.57031 6.2188,1.7031 1.2812,1.1367 1.9219,2.9805 1.9219,5.5312 z"
         id="path11" />
    </symbol>
    <symbol
       id="a"
       overflow="visible">
      <path
         d="m 8.0156,-20.484 v 4.5312 h 5.2656 v 3.6406 H 8.0156 v 6.7656 c 0,0.74219 0.14453,1.2461 0.4375,1.5156 0.30078,0.26172 0.89062,0.39062 1.7656,0.39062 h 2.6094 V 2.2e-4 H 8.4687 c -2.0234,0 -3.4531,-0.41406 -4.2969,-1.25 -0.83594,-0.84375 -1.25,-2.2734 -1.25,-4.2969 v -6.7656 H 0.3906 v -3.6406 h 2.5312 v -4.5312 z"
         id="path14" />
    </symbol>
    <symbol
       id="i"
       overflow="visible">
      <path
         d="m 13.297,-13.625 v -8.5312 h 5.1406 V -2e-4 H 13.297 v -2.3125 c -0.69922,0.94922 -1.4688,1.6406 -2.3125,2.0781 -0.84375,0.42578 -1.8242,0.64062 -2.9375,0.64062 -1.9688,0 -3.5859,-0.77344 -4.8438,-2.3281 -1.2617,-1.5625 -1.8906,-3.5781 -1.8906,-6.0469 0,-2.457 0.62891,-4.4688 1.8906,-6.0312 1.2578,-1.5625 2.875,-2.3438 4.8438,-2.3438 1.1016,0 2.0781,0.22656 2.9219,0.67188 0.85156,0.4375 1.6289,1.1211 2.3281,2.0469 z M 9.9376,-3.297 c 1.0938,0 1.9258,-0.39453 2.5,-1.1875 0.57031,-0.80078 0.85938,-1.9609 0.85938,-3.4844 0,-1.5078 -0.28906,-2.6641 -0.85938,-3.4688 -0.57422,-0.80078 -1.4062,-1.2031 -2.5,-1.2031 -1.0859,0 -1.9141,0.40234 -2.4844,1.2031 -0.57422,0.80469 -0.85938,1.9609 -0.85938,3.4688 0,1.5234 0.28516,2.6836 0.85938,3.4844 0.57031,0.79297 1.3984,1.1875 2.4844,1.1875 z"
         id="path17" />
    </symbol>
    <symbol
       id="h"
       overflow="visible">
      <path
         d="m 10.938,-3.2969 c 1.0938,0 1.9258,-0.39453 2.5,-1.1875 0.57031,-0.80078 0.85938,-1.9609 0.85938,-3.4844 0,-1.5078 -0.28906,-2.6641 -0.85938,-3.4688 -0.57422,-0.80078 -1.4062,-1.2031 -2.5,-1.2031 -1.0938,0 -1.9336,0.40234 -2.5156,1.2031 -0.58594,0.80469 -0.875,1.9609 -0.875,3.4688 0,1.5117 0.28906,2.668 0.875,3.4688 0.58203,0.80469 1.4219,1.2031 2.5156,1.2031 z m -3.3906,-10.328 c 0.70703,-0.92578 1.4883,-1.6094 2.3438,-2.0469 0.85156,-0.44531 1.832,-0.67188 2.9375,-0.67188 1.9688,0 3.582,0.78125 4.8438,2.3438 1.2695,1.5625 1.9062,3.5742 1.9062,6.0312 0,2.4688 -0.63672,4.4844 -1.9062,6.0469 -1.2617,1.5547 -2.875,2.3281 -4.8438,2.3281 -1.1055,0 -2.0859,-0.21875 -2.9375,-0.65625 -0.85547,-0.4375 -1.6367,-1.125 -2.3438,-2.0625 V 7e-5 H 2.4536 v -22.156 h 5.0938 z"
         id="path20" />
    </symbol>
    <symbol
       id="g"
       overflow="visible">
      <path
         d="m 0.35938,-15.953 h 5.0938 l 4.2969,10.828 3.6406,-10.828 h 5.0938 L 11.78138,1.516 C 11.10169,3.2855 10.31658,4.5238 9.42198,5.2348 8.52354,5.94183 7.34388,6.2973 5.87508,6.2973 H 2.92198 V 2.9535 h 1.5938 c 0.86328,0 1.4922,-0.14062 1.8906,-0.42188 C 6.80091,2.25818 7.1095,1.766 7.32826,1.04722 l 0.14062,-0.4375 z"
         id="path23" />
    </symbol>
    <symbol
       id="e"
       overflow="visible">
      <path
         d="m 2.6719,-21.266 h 9.1094 c 2.707,0 4.7852,0.60547 6.2344,1.8125 1.4453,1.1992 2.1719,2.9062 2.1719,5.125 0,2.2305 -0.72656,3.9492 -2.1719,5.1562 -1.4492,1.1992 -3.5273,1.7969 -6.2344,1.7969 H 8.1563 V -4e-4 H 2.6719 Z m 5.4844,3.9688 v 5.9375 h 3.0469 c 1.0625,0 1.8789,-0.25391 2.4531,-0.76562 0.58203,-0.51953 0.875,-1.2539 0.875,-2.2031 0,-0.94531 -0.29297,-1.6758 -0.875,-2.1875 -0.57422,-0.51953 -1.3906,-0.78125 -2.4531,-0.78125 z"
         id="path26" />
    </symbol>
    <symbol
       id="f"
       overflow="visible">
      <path
         d="m 2.2812,-6.2031 v -9.75 h 5.125 v 1.5938 c 0,0.86719 -0.00781,1.9531 -0.015625,3.2656 -0.011719,1.3047 -0.015625,2.1719 -0.015625,2.6094 0,1.2812 0.03125,2.2031 0.09375,2.7656 0.070312,0.5625 0.1875,0.97656 0.34375,1.2344 0.21875,0.33594 0.49219,0.58984 0.82812,0.76562 0.33203,0.17969 0.71875,0.26562 1.1562,0.26562 1.0625,0 1.8945,-0.40625 2.5,-1.2188 0.61328,-0.8125 0.92188,-1.9453 0.92188,-3.4062 v -7.875 h 5.0938 V -6e-5 h -5.0938 v -2.3125 c -0.77344,0.9375 -1.5898,1.625 -2.4531,2.0625 -0.85547,0.4375 -1.7969,0.65625 -2.8281,0.65625 -1.8438,0 -3.25,-0.5625 -4.2188,-1.6875 -0.96094,-1.1328 -1.4375,-2.7734 -1.4375,-4.9219 z"
         id="path29" />
    </symbol>
    <symbol
       id="t"
       overflow="visible">
      <path
         d="m 14.906,-15.453 v 3.875 c -1.0859,-0.45703 -2.1367,-0.80078 -3.1562,-1.0312 -1.0117,-0.22656 -1.9688,-0.34375 -2.875,-0.34375 -0.96875,0 -1.6875,0.125 -2.1562,0.375 -0.46875,0.24219 -0.70312,0.60938 -0.70312,1.1094 0,0.40625 0.17578,0.71875 0.53125,0.9375 0.35156,0.21875 0.99219,0.38281 1.9219,0.48438 l 0.89062,0.14062 c 2.6133,0.32422 4.3672,0.86719 5.2656,1.625 0.90625,0.76172 1.3594,1.9531 1.3594,3.5781 0,1.6992 -0.63281,2.9766 -1.8906,3.8281 -1.25,0.85547 -3.1211,1.2812 -5.6094,1.2812 -1.0547,0 -2.1406,-0.085938 -3.2656,-0.25 -1.125,-0.15625 -2.2812,-0.39844 -3.4688,-0.73438 v -3.875 c 1.0195,0.49219 2.0625,0.85938 3.125,1.1094 1.0703,0.24219 2.1602,0.35938 3.2656,0.35938 0.98828,0 1.7344,-0.13281 2.2344,-0.40625 0.50781,-0.26953 0.76562,-0.67578 0.76562,-1.2188 0,-0.45703 -0.17969,-0.79688 -0.53125,-1.0156 -0.34375,-0.22656 -1.0312,-0.40625 -2.0625,-0.53125 L 7.6561,-6.26553 c -2.2734,-0.28125 -3.8672,-0.80469 -4.7812,-1.5781 -0.90625,-0.76953 -1.3594,-1.9414 -1.3594,-3.5156 0,-1.6875 0.57812,-2.9375 1.7344,-3.75 1.1562,-0.82031 2.9297,-1.2344 5.3281,-1.2344 0.9375,0 1.9219,0.07422 2.9531,0.21875 1.0391,0.14844 2.1641,0.37109 3.375,0.67188 z"
         id="path32" />
    </symbol>
    <symbol
       id="s"
       overflow="visible">
      <path
         d="m 7.5469,-2.3125 v 8.375 H 2.4531 v -22.016 h 5.0938 v 2.3281 c 0.70703,-0.92578 1.4883,-1.6094 2.3438,-2.0469 0.85156,-0.44531 1.832,-0.67188 2.9375,-0.67188 1.9688,0 3.582,0.78125 4.8438,2.3438 1.2695,1.5625 1.9062,3.5742 1.9062,6.0312 0,2.4688 -0.63672,4.4844 -1.9062,6.0469 -1.2617,1.5547 -2.875,2.3281 -4.8438,2.3281 -1.1055,0 -2.0859,-0.21875 -2.9375,-0.65625 -0.85547,-0.4375 -1.6367,-1.125 -2.3438,-2.0625 z m 3.3906,-10.328 c -1.0938,0 -1.9336,0.40234 -2.5156,1.2031 -0.58594,0.80469 -0.875,1.9609 -0.875,3.4688 0,1.5117 0.28906,2.668 0.875,3.4688 0.58203,0.80469 1.4219,1.2031 2.5156,1.2031 1.0937,0 1.9258,-0.39453 2.5,-1.1875 0.57031,-0.80078 0.85938,-1.9609 0.85938,-3.4844 0,-1.5078 -0.28906,-2.6641 -0.85938,-3.4688 -0.57422,-0.80078 -1.4062,-1.2031 -2.5,-1.2031 z"
         id="path35" />
    </symbol>
    <symbol
       id="r"
       overflow="visible">
      <path
         d="M 2.4531,-15.953 H 7.5469 V 0 H 2.4531 Z m 0,-6.2031 h 5.0938 v 4.1562 H 2.4531 Z"
         id="path38" />
    </symbol>
    <symbol
       id="c"
       overflow="visible">
      <path
         d="m 10.047,-12.688 c -1.1367,0 -2,0.40625 -2.5938,1.2188 -0.5938,0.81255 -0.89062,1.9805 -0.89062,3.5 0,1.5312 0.29688,2.7031 0.89062,3.5156 0.59374,0.8125 1.457,1.2188 2.5938,1.2188 1.1016,0 1.9453,-0.40625 2.5312,-1.2188 0.59375,-0.8125 0.89062,-1.9844 0.89062,-3.5156 0,-1.5195 -0.29688,-2.6875 -0.89062,-3.5 -0.58594,-0.8125 -1.4297,-1.2188 -2.5312,-1.2188 z m 0,-3.6562 c 2.7383,0 4.8789,0.74609 6.4219,2.2344 1.5391,1.4805 2.3125,3.5273 2.3125,6.1406 0,2.625 -0.77344,4.6797 -2.3125,6.1562 -1.543,1.4805 -3.6836,2.2188 -6.4219,2.2188 -2.7617,0 -4.918,-0.73828 -6.4688,-2.2188 -1.5547,-1.4766 -2.3281,-3.5312 -2.3281,-6.1562 0,-2.6133 0.77344,-4.6602 2.3281,-6.1406 1.5508,-1.4883 3.707,-2.2344 6.4688,-2.2344 z"
         id="path41" />
    </symbol>
    <symbol
       id="q"
       overflow="visible">
      <path
         d="m 12.953,-22.156 v 3.3438 h -2.8281 c -0.71875,0 -1.2266,0.13281 -1.5156,0.39062 -0.28125,0.26172 -0.42188,0.71484 -0.42188,1.3594 v 1.1094 h 4.3594 v 3.6406 h -4.3594 v 12.312 h -5.0938 v -12.312 h -2.5312 v -3.6406 h 2.5312 v -1.1094 c 0,-1.7383 0.48438,-3.0195 1.4531,-3.8438 0.96875,-0.83203 2.4688,-1.25 4.5,-1.25 z"
         id="path44" />
    </symbol>
    <symbol
       id="p"
       overflow="visible">
      <path
         d="m 17.234,-13.297 c 0.64453,-0.98828 1.4102,-1.7422 2.2969,-2.2656 0.89453,-0.51953 1.875,-0.78125 2.9375,-0.78125 1.832,0 3.2266,0.57031 4.1875,1.7031 0.95703,1.125 1.4375,2.7656 1.4375,4.9219 V -5e-5 h -5.125 v -8.3125 -0.39062 c 0.0078,-0.13281 0.01563,-0.32031 0.01563,-0.5625 0,-1.1328 -0.16797,-1.9531 -0.5,-2.4531 -0.32422,-0.50781 -0.85938,-0.76562 -1.6094,-0.76562 -0.96875,0 -1.7188,0.40234 -2.25,1.2031 -0.52344,0.79297 -0.79297,1.9453 -0.8125,3.4531 V -9e-5 h -5.125 v -8.3125 c 0,-1.7695 -0.15234,-2.9062 -0.45312,-3.4062 -0.30469,-0.50781 -0.84375,-0.76562 -1.625,-0.76562 -0.98047,0 -1.7344,0.40234 -2.2656,1.2031 -0.53125,0.80469 -0.79688,1.9492 -0.79688,3.4375 V -1e-5 h -5.125 v -15.953 h 5.125 v 2.3281 c 0.625,-0.89453 1.3438,-1.5703 2.1562,-2.0312 0.8125,-0.45703 1.707,-0.6875 2.6875,-0.6875 1.1016,0 2.0781,0.26562 2.9219,0.79688 0.8438,0.53126 1.4844,1.2812 1.9219,2.25 z"
         id="path47" />
    </symbol>
    <symbol
       id="o"
       overflow="visible">
      <path
         d="M 18.484,-9.7188 V 0 h -5.125 v -7.4062 c 0,-1.3945 -0.03125,-2.3516 -0.09375,-2.875 -0.0625,-0.51953 -0.16797,-0.90625 -0.3125,-1.1562 -0.19922,-0.33203 -0.46875,-0.58594 -0.8125,-0.76562 -0.34375,-0.1875 -0.73438,-0.28125 -1.1719,-0.28125 -1.0625,0 -1.9023,0.41406 -2.5156,1.2344 -0.60547,0.8125 -0.90625,1.9492 -0.90625,3.4062 V 1.3e-4 H 2.4527 v -22.156 h 5.0938 v 8.5312 c 0.76953,-0.92578 1.5859,-1.6094 2.4531,-2.0469 0.86328,-0.44531 1.8164,-0.67188 2.8594,-0.67188 1.8438,0 3.2383,0.57031 4.1875,1.7031 0.95703,1.125 1.4375,2.7656 1.4375,4.9219 z"
         id="path50" />
    </symbol>
    <symbol
       id="n"
       overflow="visible">
      <path
         d="m 2.6719,-21.266 h 6.125 l 7.7344,14.578 v -14.578 h 5.2031 V 0 h -6.125 L 7.875,-14.594 V 0 H 2.6719 Z"
         id="path53" />
    </symbol>
    <symbol
       id="m"
       overflow="visible">
      <path
         d="M 18.484,-9.7188 V 0 h -5.125 v -7.4375 c 0,-1.375 -0.03125,-2.3203 -0.09375,-2.8438 -0.0625,-0.51953 -0.16797,-0.90625 -0.3125,-1.1562 -0.19922,-0.33203 -0.46875,-0.58594 -0.8125,-0.76562 -0.34375,-0.1875 -0.73438,-0.28125 -1.1719,-0.28125 -1.0625,0 -1.9023,0.41406 -2.5156,1.2344 -0.60547,0.8125 -0.90625,1.9492 -0.90625,3.4062 V 3e-5 H 2.4527 v -15.953 h 5.0938 v 2.3281 c 0.76953,-0.92578 1.5859,-1.6094 2.4531,-2.0469 0.86328,-0.44531 1.8164,-0.67188 2.8594,-0.67188 1.8438,0 3.2383,0.57031 4.1875,1.7031 0.95703,1.125 1.4375,2.7656 1.4375,4.9219 z"
         id="path56" />
    </symbol>
    <symbol
       id="l"
       overflow="visible">
      <path
         d="M 2.4531,-15.953 H 7.5469 V -0.281 C 7.5469,1.8518 7.03128,3.4846 6,4.6096 4.9766,5.7346 3.4922,6.2971 1.5469,6.2971 H -0.9687 V 2.9533 h 0.89062 c 0.96875,0 1.6289,-0.21875 1.9844,-0.65625 0.36328,-0.4375 0.54688,-1.2969 0.54688,-2.5781 z m 0,-6.2031 h 5.0938 v 4.1562 H 2.4531 Z"
         id="path59" />
    </symbol>
    <symbol
       id="k"
       overflow="visible">
      <path
         d="m 15.344,-15.453 v 4.1562 c -0.69922,-0.46875 -1.3984,-0.81641 -2.0938,-1.0469 -0.69922,-0.22656 -1.4219,-0.34375 -2.1719,-0.34375 -1.4297,0 -2.5391,0.41797 -3.3281,1.25 -0.79297,0.82422 -1.1875,1.9805 -1.1875,3.4688 0,1.5 0.39453,2.668 1.1875,3.5 0.78906,0.82422 1.8984,1.2344 3.3281,1.2344 0.80078,0 1.5547,-0.11719 2.2656,-0.35938 0.71875,-0.23828 1.3828,-0.58594 2,-1.0469 v 4.1719 c -0.80469,0.29297 -1.6172,0.50781 -2.4375,0.65625 -0.8125,0.14453 -1.6367,0.21875 -2.4688,0.21875 -2.875,0 -5.125,-0.73438 -6.75,-2.2031 -1.625,-1.4766 -2.4375,-3.5352 -2.4375,-6.1719 0,-2.625 0.8125,-4.6758 2.4375,-6.1562 1.625,-1.4766 3.875,-2.2188 6.75,-2.2188 0.83203,0 1.6562,0.07813 2.4688,0.23438 0.8125,0.14844 1.625,0.36719 2.4375,0.65625 z"
         id="path62" />
    </symbol>
  </defs>
  <path
     d="m 50.2275,325.88427 c 0.22656,23.469 19.32,42.426 42.84,42.426 23.527,0 42.613,-18.95299 42.84,-42.426 -13.953,3.5 -28.465,5.12111 -42.84,5.12111 -14.375,0 -28.879,-1.62111 -42.84,-5.12111 z m 341.79,-184.50999 h 109.62 c 1.8203,0 3.3086,-1.4883 3.3086,-3.3086 v -7 c 0,-1.8203 -1.4883,-3.3086 -3.3086,-3.3086 l -109.62,0.004 z m 102.7,306.62 v -291.2 h -102.7 v 291.2 l 102.7,-0.004 z m -65.684,-111.86001 h 28.664 c 3.0352,0 5.5078,2.4727 5.5078,5.5078 v 28.664 c 0,3.0352 -2.4727,5.5078 -5.5078,5.5078 h -28.664 c -3.0352,0 -5.5078,-2.4727 -5.5078,-5.5078 v -28.664 c 0,-3.0352 2.4766,-5.5078 5.5078,-5.5078 z m 0,-75.582 h 28.664 c 3.0352,0 5.5078,2.4727 5.5078,5.5078 v 28.664 c 0,3.0352 -2.4727,5.5078 -5.5078,5.5078 h -28.664 c -3.0352,0 -5.5078,-2.4727 -5.5078,-5.5078 v -28.664 c 0,-3.0273 2.4766,-5.5078 5.5078,-5.5078 z m 0,-75.57399 h 28.664 c 3.0352,0 5.5078,2.4727 5.5078,5.5078 v 28.664 c 0,3.0352 -2.4727,5.5078 -5.5078,5.5078 h -28.664 c -3.0352,0 -5.5078,-2.4727 -5.5078,-5.5078 v -28.664 c 0,-3.0352 2.4766,-5.5078 5.5078,-5.5078 z m -52.441,263.00999 V 7.178275 c 0,-3.0352 -2.4727,-5.5078 -5.5078,-5.5078 l -166.74,0.0039 c -3.0352,0 -5.5078,2.4727 -5.5078,5.5078 V 447.99218 h 18.258 v -111.86 c 0,-4.25779 3.4531,-7.7109 7.7109,-7.7109 h 125.81 c 4.2578,0 7.7109,3.45311 7.7109,7.7109 v 111.86 z M 278.7095,46.828275 h 18.008 c 3.0352,0 5.5078,2.4727 5.5078,5.5078 v 17.477 h 17.477 c 3.0352,0 5.5078,2.4727 5.5078,5.5078 v 18.008 c 0,3.0352 -2.4727,5.5078 -5.5078,5.5078 h -17.477 v 17.477005 c 0,3.0352 -2.4727,5.5078 -5.5078,5.5078 h -18.008 c -3.0352,0 -5.5078,-2.4727 -5.5078,-5.5078 V 98.836675 h -17.477 c -3.0352,0 -5.5078,-2.4727 -5.5078,-5.5078 v -18.008 c 0,-3.0352 2.4727,-5.5078 5.5078,-5.5078 h 17.477 v -17.477 c 0,-3.0312 2.4727,-5.5078 5.5078,-5.5078 z m -48.395,213.179995 h 114.8 c 3.0352,0 5.5078,2.4727 5.5078,5.5078 v 29.215 c 0,3.0352 -2.4727,5.5078 -5.5078,5.5078 h -114.8 c -3.0352,0 -5.5078,-2.4727 -5.5078,-5.5078 v -29.215 c 0.004,-3.0352 2.4766,-5.5078 5.5078,-5.5078 z m 0,-75.57799 h 114.8 c 3.0352,0 5.5078,2.4727 5.5078,5.5078 v 29.215 c 0,3.0352 -2.4727,5.5078 -5.5078,5.5078 h -114.8 c -3.0352,0 -5.5078,-2.4727 -5.5078,-5.5078 v -29.215 c 0.004,-3.0352 2.4766,-5.5078 5.5078,-5.5078 z m 57.402,-165.590005 c 36.172,0 65.492,29.324 65.492,65.492 0,36.168005 -29.324,65.492005 -65.492,65.492005 -36.168,-0.004 -65.5,-29.32 -65.5,-65.492005 0,-36.176 29.324,-65.492 65.5,-65.492 z m 237.67,454.879995 v -7 c 0,-1.8203 -1.4883,-3.3086 -3.3086,-3.3086 h -323.2 c 0.9375,4.4609 1.5938,9.0078 1.9648,13.609 h 321.24 c 1.8125,0 3.3008,-1.4805 3.3008,-3.3008 z m -292.87,-25.73 v -104.14 h 47.484 v 104.14 z m 62.906,0 v -104.14 h 47.484 v 104.14 z m -253.48,-150.45 c 3,3.7031 2.9102,9.0938 -0.19922,12.699 l 3.1016,7.707 c 1.043,2.5977 -0.84766,5.4023 -3.6445,5.4023 h -13.945 c -2.8008,0 -4.6914,-2.8047 -3.6445,-5.4023 l 3.1016,-7.707 c -3.1094,-3.6094 -3.1914,-9 -0.19922,-12.699 v -29.48 c 0,-1.4414 0.87891,-2.6641 2.2383,-3.1328 l 63.238,-21.465 c 0.71875,-0.24608 1.4062,-0.24608 2.125,0 l 63.238,21.465 c 2.9688,1.0078 2.9688,5.25 0,6.2578 l -63.238,21.465 c -0.71875,0.24609 -1.4062,0.24609 -2.125,0 l -50.055,-16.992 v 21.883 z m 10.621,13.016 c 12.297,3.2148 26.016,5.0156 40.496,5.0156 14.477,0 28.199,-1.8008 40.496,-5.0156 v -14.992 l -34.477,11.703 c -3.9336,1.3359 -8.1094,1.3359 -12.039,0 l -34.477,-11.703 z m 133.2,175.13 c 0,51.191 -185.4,51.191 -185.4,0 0,-36.008 20.535,-67.223 50.527,-82.57 -7.6953,7.8789 -13.219,17.898 -15.57,29.051 -3.125,1.3516 -6.0898,3.5391 -8.7617,6.5742 -3.8281,4.3477 -7.1094,10.574 -9.3672,18.656 -3.1797,11.379 -1.4219,18.211 2.0547,22.312 0.89062,4.5625 4.9102,8.0039 9.7305,8.0039 5.4766,0 9.918,-4.4375 9.918,-9.918 0,-4.8242 -3.4492,-8.8438 -8.0078,-9.7305 -0.0508,-1.2734 0.22656,-3.3203 1.1328,-6.5664 1.5859,-5.6641 3.7148,-9.8477 6.1133,-12.566 3.5703,-4.0586 6.5898,-3.97269 10.102,0.0937 2.3438,2.71089 4.4375,6.8594 6.0156,12.47699 0.91016,3.25 1.1914,5.2969 1.1328,6.5664 -4.5664,0.88672 -8.0078,4.9062 -8.0078,9.7305 0,5.4766 4.4375,9.918 9.918,9.918 4.8242,0 8.8359,-3.4414 9.7305,-8.0039 3.4766,-4.1016 5.2344,-10.93799 2.0547,-22.312 -2.2148,-7.9336 -5.4414,-14.094 -9.2031,-18.438 -2.6484,-3.0586 -5.5898,-5.28519 -8.7031,-6.67189 5.3672,-18.578 22.5,-31.582 41.902,-31.582 23.957,0 43.582,19.629 43.582,43.582 v 6.75 c -2.5859,2.19139 -4.2305,5.46089 -4.2305,9.1172 0,6.5977 5.3477,11.941 11.941,11.941 6.5977,0 11.941,-5.3477 11.941,-11.941 0,-3.6562 -1.6445,-6.9258 -4.2305,-9.1172 v -6.75 c 0,-15.97301 -6.4219,-30.508 -16.812,-41.152 29.984,15.344 50.5,46.551 50.5,82.54699 z"
     fill-rule="evenodd"
     id="path67"
     style="fill:#ffffff;fill-opacity:1" />
</svg>
