<?xml version="1.0" encoding="UTF-8" standalone="no"?>
<svg
   width="645"
   height="645"
   version="1.1"
   viewBox="0 0 483.75 483.75"
   id="svg973"
   sodipodi:docname="New world.svg"
   inkscape:export-filename="New world.png"
   inkscape:export-xdpi="7.4400001"
   inkscape:export-ydpi="7.4400001"
   inkscape:version="1.2.2 (b0a8486541, 2022-12-01)"
   xmlns:inkscape="http://www.inkscape.org/namespaces/inkscape"
   xmlns:sodipodi="http://sodipodi.sourceforge.net/DTD/sodipodi-0.dtd"
   xmlns="http://www.w3.org/2000/svg"
   xmlns:svg="http://www.w3.org/2000/svg">
  <sodipodi:namedview
     id="namedview975"
     pagecolor="#ffffff"
     bordercolor="#666666"
     borderopacity="1.0"
     inkscape:showpageshadow="2"
     inkscape:pageopacity="0.0"
     inkscape:pagecheckerboard="true"
     inkscape:deskcolor="#d1d1d1"
     inkscape:document-units="pt"
     showgrid="false"
     inkscape:zoom="0.62124382"
     inkscape:cx="292.15583"
     inkscape:cy="408.85719"
     inkscape:window-width="1920"
     inkscape:window-height="1003"
     inkscape:window-x="0"
     inkscape:window-y="27"
     inkscape:window-maximized="1"
     inkscape:current-layer="svg973" />
  <defs
     id="defs873">
    <symbol
       id="v"
       overflow="visible">
      <path
         d="m 19.734,-1.1875 c -1.0117,0.53125 -2.0703,0.93359 -3.1719,1.2031 -1.1055,0.26953 -2.2578,0.40625 -3.4531,0.40625 -3.5859,0 -6.4219,-1 -8.5156,-3 -2.0859,-2 -3.125,-4.7109 -3.125,-8.1406 0,-3.4375 1.0391,-6.1562 3.125,-8.1562 2.0938,-2 4.9297,-3 8.5156,-3 1.1953,0 2.3477,0.13672 3.4531,0.40625 1.1016,0.27344 2.1602,0.66797 3.1719,1.1875 v 4.4531 c -1.0234,-0.69531 -2.0312,-1.207 -3.0312,-1.5312 -1,-0.33203 -2.0547,-0.5 -3.1562,-0.5 -1.9688,0 -3.5234,0.63672 -4.6562,1.9062 -1.1367,1.2617 -1.7031,3.0078 -1.7031,5.2344 0,2.2188 0.56641,3.9648 1.7031,5.2344 1.1328,1.2617 2.6875,1.8906 4.6562,1.8906 1.1016,0 2.1562,-0.16016 3.1562,-0.48438 1,-0.33203 2.0078,-0.84766 3.0312,-1.5469 z"
         id="path807" />
    </symbol>
    <symbol
       id="b"
       overflow="visible">
      <path
         d="m 14.453,-11.734 c -0.46094,-0.20703 -0.91406,-0.35938 -1.3594,-0.45312 -0.4375,-0.10156 -0.88672,-0.15625 -1.3438,-0.15625 -1.3242,0 -2.3438,0.42969 -3.0625,1.2812 -0.71094,0.84375 -1.0625,2.0586 -1.0625,3.6406 V 3.3e-4 H 2.4686 v -16.109 h 5.1562 v 2.6406 c 0.66406,-1.0508 1.4258,-1.8164 2.2812,-2.2969 0.85156,-0.48828 1.8828,-0.73438 3.0938,-0.73438 0.16406,0 0.34766,0.0078 0.54688,0.01563 0.20703,0.01172 0.50391,0.04297 0.89062,0.09375 z"
         id="path810" />
    </symbol>
    <symbol
       id="a"
       overflow="visible">
      <path
         d="m 18.562,-8.0938 v 1.4531 H 6.515 c 0.125,1.2109 0.5625,2.1211 1.3125,2.7344 0.75,0.60547 1.7969,0.90625 3.1406,0.90625 1.082,0 2.1914,-0.16016 3.3281,-0.48438 1.1328,-0.32031 2.3008,-0.8125 3.5,-1.4688 v 3.9688 c -1.2188,0.46875 -2.4375,0.82031 -3.6562,1.0469 -1.2188,0.23828 -2.4375,0.35938 -3.6562,0.35938 -2.918,0 -5.1836,-0.73828 -6.7969,-2.2188 -1.6172,-1.4883 -2.4219,-3.5703 -2.4219,-6.25 0,-2.625 0.78906,-4.6875 2.375,-6.1875 1.5938,-1.5078 3.7812,-2.2656 6.5625,-2.2656 2.5312,0 4.5547,0.76562 6.0781,2.2969 1.5195,1.5234 2.2812,3.5586 2.2812,6.1094 z m -5.2969,-1.7188 c 0,-0.97656 -0.28906,-1.7656 -0.85938,-2.3594 -0.57422,-0.60156 -1.3203,-0.90625 -2.2344,-0.90625 -1,0 -1.8125,0.28125 -2.4375,0.84375 -0.61719,0.5625 -1,1.3711 -1.1562,2.4219 z"
         id="path813" />
    </symbol>
    <symbol
       id="g"
       overflow="visible">
      <path
         d="m 9.7031,-7.25 c -1.0742,0 -1.8867,0.18359 -2.4375,0.54688 -0.54297,0.36719 -0.8125,0.90234 -0.8125,1.6094 0,0.65625 0.21875,1.1719 0.65625,1.5469 0.4375,0.36719 1.0469,0.54688 1.8281,0.54688 0.96875,0 1.7812,-0.34766 2.4375,-1.0469 0.66406,-0.69531 1,-1.5664 1,-2.6094 v -0.59375 z m 7.8594,-1.9375 V 0 H 12.375 v -2.3906 c -0.6875,0.98047 -1.4648,1.6953 -2.3281,2.1406 -0.86719,0.44531 -1.918,0.67188 -3.1562,0.67188 -1.668,0 -3.0234,-0.48438 -4.0625,-1.4531 -1.043,-0.97656 -1.5625,-2.2422 -1.5625,-3.7969 0,-1.8945 0.64844,-3.2812 1.9531,-4.1562 1.3008,-0.88281 3.3438,-1.3281 6.125,-1.3281 h 3.0312 v -0.40625 c 0,-0.8125 -0.32422,-1.4062 -0.96875,-1.7812 -0.63672,-0.38281 -1.6367,-0.57812 -3,-0.57812 -1.1055,0 -2.1328,0.10938 -3.0781,0.32812 -0.94922,0.21875 -1.8359,0.55469 -2.6562,1 v -3.9375 c 1.1016,-0.26953 2.2109,-0.47266 3.3281,-0.60938 1.1133,-0.13281 2.2266,-0.20312 3.3438,-0.20312 2.9062,0 5,0.57422 6.2812,1.7188 1.2891,1.1484 1.9375,3.0117 1.9375,5.5938 z"
         id="path816" />
    </symbol>
    <symbol
       id="c"
       overflow="visible">
      <path
         d="m 8.0938,-20.688 v 4.5781 h 5.3125 v 3.6719 H 8.0938 v 6.8438 c 0,0.75 0.14844,1.2578 0.45312,1.5156 0.30078,0.26172 0.89062,0.39062 1.7656,0.39062 h 2.6562 v 3.6875 h -4.4219 c -2.0312,0 -3.4766,-0.42188 -4.3281,-1.2656 -0.84375,-0.85156 -1.2656,-2.2969 -1.2656,-4.3281 v -6.8438 h -2.5625 v -3.6719 h 2.5625 v -4.5781 z"
         id="path819" />
    </symbol>
    <symbol
       id="f"
       overflow="visible">
      <path
         d="m 13.438,-13.75 v -8.6406 h 5.1875 V 4e-4 H 13.438 v -2.3281 c -0.71094,0.94922 -1.4922,1.6484 -2.3438,2.0938 -0.85547,0.4375 -1.8438,0.65625 -2.9688,0.65625 -1.9805,0 -3.6094,-0.78516 -4.8906,-2.3594 -1.2734,-1.582 -1.9062,-3.6172 -1.9062,-6.1094 0,-2.4766 0.63281,-4.5039 1.9062,-6.0781 1.2812,-1.582 2.9102,-2.375 4.8906,-2.375 1.1133,0 2.0977,0.22656 2.9531,0.67188 0.86328,0.4375 1.6484,1.1328 2.3594,2.0781 z m -3.3906,10.422 c 1.1016,0 1.9414,-0.39844 2.5156,-1.2031 0.58203,-0.80078 0.875,-1.9727 0.875,-3.5156 0,-1.5312 -0.29297,-2.6953 -0.875,-3.5 -0.57422,-0.8125 -1.4141,-1.2188 -2.5156,-1.2188 -1.0938,0 -1.9336,0.40625 -2.5156,1.2188 -0.58594,0.80469 -0.875,1.9688 -0.875,3.5 0,1.543 0.28906,2.7148 0.875,3.5156 0.58203,0.80469 1.4219,1.2031 2.5156,1.2031 z"
         id="path822" />
    </symbol>
    <symbol
       id="l"
       overflow="visible">
      <path
         d="m 11.047,-3.3281 c 1.1016,0 1.9453,-0.39844 2.5312,-1.2031 0.58203,-0.80078 0.875,-1.9727 0.875,-3.5156 0,-1.5312 -0.29297,-2.6953 -0.875,-3.5 -0.58594,-0.8125 -1.4297,-1.2188 -2.5312,-1.2188 -1.1055,0 -1.9531,0.40625 -2.5469,1.2188 -0.58594,0.8125 -0.875,1.9805 -0.875,3.5 0,1.5312 0.28906,2.7031 0.875,3.5156 0.59375,0.80469 1.4414,1.2031 2.5469,1.2031 z m -3.4219,-10.422 c 0.70703,-0.94531 1.4922,-1.6406 2.3594,-2.0781 0.86328,-0.44531 1.8594,-0.67188 2.9844,-0.67188 1.9766,0 3.6016,0.79297 4.875,2.375 1.2812,1.5742 1.9219,3.6016 1.9219,6.0781 0,2.4922 -0.64062,4.5273 -1.9219,6.1094 -1.2734,1.5742 -2.8984,2.3594 -4.875,2.3594 -1.125,0 -2.1211,-0.22656 -2.9844,-0.67188 -0.86719,-0.44531 -1.6523,-1.1406 -2.3594,-2.0781 V -6e-5 H 2.4689 v -22.391 h 5.1562 z"
         id="path825" />
    </symbol>
    <symbol
       id="k"
       overflow="visible">
      <path
         d="m 0.35938,-16.109 h 5.1562 l 4.3281,10.922 3.6875,-10.922 h 5.1406 l -6.7656,17.641 c -0.6875,1.7891 -1.4844,3.0391 -2.3906,3.75 -0.90625,0.71875 -2.1055,1.0781 -3.5938,1.0781 h -2.9688 v -3.375 h 1.6094 c 0.875,0 1.5078,-0.14062 1.9062,-0.42188 0.39453,-0.28125 0.70312,-0.78125 0.92188,-1.5 l 0.15625,-0.4375 z"
         id="path828" />
    </symbol>
    <symbol
       id="j"
       overflow="visible">
      <path
         d="m 22.016,-1.5938 c -1.3867,0.66797 -2.8242,1.1719 -4.3125,1.5156 -1.4805,0.33203 -3.0117,0.5 -4.5938,0.5 -3.5859,0 -6.4219,-1 -8.5156,-3 -2.0859,-2 -3.125,-4.7109 -3.125,-8.1406 0,-3.4688 1.0625,-6.1914 3.1875,-8.1719 2.1328,-1.9883 5.0508,-2.9844 8.75,-2.9844 1.4258,0 2.7969,0.13672 4.1094,0.40625 1.3125,0.27344 2.5469,0.66797 3.7031,1.1875 v 4.4531 c -1.1992,-0.67578 -2.3906,-1.1797 -3.5781,-1.5156 -1.1797,-0.34375 -2.3594,-0.51562 -3.5469,-0.51562 -2.2109,0 -3.9141,0.62109 -5.1094,1.8594 -1.1992,1.2305 -1.7969,2.9922 -1.7969,5.2812 0,2.2734 0.57031,4.0273 1.7188,5.2656 1.1562,1.2422 2.7969,1.8594 4.9219,1.8594 0.57031,0 1.1016,-0.035156 1.5938,-0.10938 0.5,-0.070313 0.94531,-0.1875 1.3438,-0.34375 v -4.1719 h -3.3906 v -3.7031 h 8.6406 z"
         id="path831" />
    </symbol>
    <symbol
       id="e"
       overflow="visible">
      <path
         d="m 2.2969,-6.2812 v -9.8281 h 5.1875 v 1.6094 c 0,0.875 -0.00781,1.9766 -0.015625,3.2969 -0.011719,1.3125 -0.015625,2.1875 -0.015625,2.625 0,1.293 0.03125,2.2266 0.09375,2.7969 0.070313,0.57422 0.19141,0.99219 0.35938,1.25 0.20703,0.33594 0.47656,0.59375 0.8125,0.78125 0.34375,0.17969 0.73828,0.26562 1.1875,0.26562 1.0703,0 1.9141,-0.41016 2.5312,-1.2344 0.61328,-0.82031 0.92188,-1.9688 0.92188,-3.4375 v -7.9531 h 5.1406 v 16.109 h -5.1406 v -2.3281 c -0.78125,0.9375 -1.6094,1.6328 -2.4844,2.0781 -0.86719,0.44531 -1.8203,0.67188 -2.8594,0.67188 -1.8672,0 -3.2891,-0.56641 -4.2656,-1.7031 -0.96875,-1.1445 -1.4531,-2.8125 -1.4531,-5 z"
         id="path834" />
    </symbol>
    <symbol
       id="u"
       overflow="visible">
      <path
         d="M 2.4688,-16.109 H 7.625 V 0 H 2.4688 Z m 0,-6.2812 H 7.625 v 4.2031 H 2.4688 Z"
         id="path837" />
    </symbol>
    <symbol
       id="t"
       overflow="visible">
      <path
         d="M 2.4688,-22.391 H 7.625 V 0 H 2.4688 Z"
         id="path840" />
    </symbol>
    <symbol
       id="i"
       overflow="visible">
      <path
         d="M 18.672,-9.8125 V 0 h -5.1719 v -7.4844 c 0,-1.4062 -0.03125,-2.375 -0.09375,-2.9062 -0.0625,-0.5312 -0.17188,-0.91406 -0.32812,-1.1562 -0.19922,-0.34375 -0.47656,-0.60938 -0.82812,-0.79688 -0.34375,-0.1875 -0.73438,-0.28125 -1.1719,-0.28125 -1.0742,0 -1.918,0.41797 -2.5312,1.25 -0.61719,0.83594 -0.92188,1.9844 -0.92188,3.4531 V 7e-5 h -5.1562 v -22.391 h 5.1562 v 8.6406 c 0.78125,-0.94531 1.6016,-1.6406 2.4688,-2.0781 0.875,-0.44531 1.8438,-0.67188 2.9062,-0.67188 1.8516,0 3.2578,0.57422 4.2188,1.7188 0.96875,1.1367 1.4531,2.793 1.4531,4.9688 z"
         id="path843" />
    </symbol>
    <symbol
       id="h"
       overflow="visible">
      <path
         d="m 17.406,-13.438 c 0.65625,-1 1.4297,-1.7578 2.3281,-2.2812 0.89453,-0.51953 1.8789,-0.78125 2.9531,-0.78125 1.8516,0 3.2656,0.57422 4.2344,1.7188 0.96875,1.1367 1.4531,2.793 1.4531,4.9688 v 9.8125 h -5.1875 v -8.4062 c 0.0078,-0.125 0.01563,-0.25391 0.01563,-0.39062 0.0078,-0.13281 0.01563,-0.32812 0.01563,-0.57812 0,-1.1328 -0.16797,-1.957 -0.5,-2.4688 -0.33594,-0.51953 -0.875,-0.78125 -1.625,-0.78125 -0.98047,0 -1.7344,0.40625 -2.2656,1.2188 -0.53125,0.80469 -0.80859,1.9688 -0.82812,3.5 v 7.9062 h -5.1719 v -8.4062 c 0,-1.7812 -0.15625,-2.9258 -0.46875,-3.4375 -0.30469,-0.51953 -0.85156,-0.78125 -1.6406,-0.78125 -0.99219,0 -1.7578,0.40625 -2.2969,1.2188 -0.53125,0.8125 -0.79688,1.9766 -0.79688,3.4844 v 7.9219 H 2.4528 v -16.109 h 5.1719 v 2.3594 c 0.63281,-0.91406 1.3594,-1.6016 2.1719,-2.0625 0.82031,-0.45703 1.7266,-0.6875 2.7188,-0.6875 1.1133,0 2.0977,0.27344 2.9531,0.8125 0.85156,0.53125 1.5,1.2812 1.9375,2.25 z"
         id="path846" />
    </symbol>
    <symbol
       id="s"
       overflow="visible">
      <path
         d="m 2.7031,-21.484 h 14.953 v 4.1875 H 8.2499 v 4 h 8.8438 V -9.109 H 8.2499 V 4e-4 H 2.703 Z"
         id="path849" />
    </symbol>
    <symbol
       id="d"
       overflow="visible">
      <path
         d="m 10.141,-12.828 c -1.1367,0 -2.0078,0.41406 -2.6094,1.2344 -0.59375,0.82422 -0.89062,2.0078 -0.89062,3.5469 0,1.543 0.29688,2.7266 0.89062,3.5469 0.60156,0.82422 1.4727,1.2344 2.6094,1.2344 1.125,0 1.9844,-0.41016 2.5781,-1.2344 0.59375,-0.82031 0.89062,-2.0039 0.89062,-3.5469 0,-1.5391 -0.29688,-2.7227 -0.89062,-3.5469 -0.59375,-0.82031 -1.4531,-1.2344 -2.5781,-1.2344 z m 0,-3.6719 c 2.7695,0 4.9375,0.75 6.5,2.25 1.5625,1.4922 2.3438,3.5586 2.3438,6.2031 0,2.6484 -0.78125,4.7188 -2.3438,6.2188 -1.56255,1.5 -3.7305,2.25 -6.5,2.25 -2.7812,0 -4.9609,-0.75 -6.5312,-2.25 -1.5625,-1.5 -2.3438,-3.5703 -2.3438,-6.2188 0,-2.6445 0.78125,-4.7109 2.3438,-6.2031 1.5703,-1.5 3.75,-2.25 6.5312,-2.25 z"
         id="path852" />
    </symbol>
    <symbol
       id="r"
       overflow="visible">
      <path
         d="m 13.078,-22.391 v 3.375 h -2.8438 c -0.73047,0 -1.2422,0.13672 -1.5312,0.40625 -0.28125,0.26172 -0.42188,0.71875 -0.42188,1.375 v 1.125 h 4.3906 v 3.6719 h -4.3906 v 12.438 h -5.1562 v -12.438 h -2.5625 v -3.6719 h 2.5625 v -1.125 c 0,-1.7578 0.48828,-3.0547 1.4688,-3.8906 0.97656,-0.84375 2.4922,-1.2656 4.5469,-1.2656 z"
         id="path855" />
    </symbol>
    <symbol
       id="q"
       overflow="visible">
      <path
         d="m 2.7031,-21.484 h 6.1875 l 7.8125,14.734 v -14.734 h 5.25 V 0 H 15.7656 L 7.9531,-14.734 V 0 h -5.25 z"
         id="path858" />
    </symbol>
    <symbol
       id="p"
       overflow="visible">
      <path
         d="M 18.672,-9.8125 V 0 h -5.1719 v -7.5156 c 0,-1.3828 -0.03125,-2.3438 -0.09375,-2.875 -0.0625,-0.5312 -0.17188,-0.91406 -0.32812,-1.1562 -0.19922,-0.34375 -0.47656,-0.60938 -0.82812,-0.79688 -0.34375,-0.1875 -0.73438,-0.28125 -1.1719,-0.28125 -1.0742,0 -1.918,0.41797 -2.5312,1.25 -0.61719,0.83594 -0.92188,1.9844 -0.92188,3.4531 V 7e-5 h -5.1562 v -16.109 h 5.1562 v 2.3594 c 0.78125,-0.94531 1.6016,-1.6406 2.4688,-2.0781 0.875,-0.44531 1.8438,-0.67188 2.9062,-0.67188 1.8516,0 3.2578,0.57422 4.2188,1.7188 0.96875,1.1367 1.4531,2.793 1.4531,4.9688 z"
         id="path861" />
    </symbol>
    <symbol
       id="o"
       overflow="visible">
      <path
         d="m 2.7031,-21.484 h 9.2031 c 2.7266,0 4.8203,0.60938 6.2812,1.8281 1.4688,1.2109 2.2031,2.9375 2.2031,5.1875 0,2.25 -0.73438,3.9844 -2.2031,5.2031 -1.4609,1.2109 -3.5547,1.8125 -6.2812,1.8125 H 8.25 V 3e-4 H 2.7031 Z m 5.5469,4.0156 v 6 h 3.0625 c 1.0703,0 1.8984,-0.25781 2.4844,-0.78125 0.58203,-0.51953 0.875,-1.2578 0.875,-2.2188 0,-0.96875 -0.29297,-1.707 -0.875,-2.2188 -0.58594,-0.51953 -1.4141,-0.78125 -2.4844,-0.78125 z"
         id="path864" />
    </symbol>
    <symbol
       id="n"
       overflow="visible">
      <path
         d="M 2.4688,-16.109 H 7.625 v 15.828 c 0,2.1562 -0.52344,3.8008 -1.5625,4.9375 -1.0312,1.1328 -2.5312,1.7031 -4.5,1.7031 h -2.5469 v -3.375 h 0.89062 c 0.97656,0 1.6484,-0.22656 2.0156,-0.67188 0.36328,-0.4375 0.54688,-1.3047 0.54688,-2.5938 z m 0,-6.2812 H 7.625 v 4.2031 H 2.4688 Z"
         id="path867" />
    </symbol>
    <symbol
       id="m"
       overflow="visible">
      <path
         d="m 15.5,-15.609 v 4.2031 c -0.69922,-0.47656 -1.4023,-0.83203 -2.1094,-1.0625 -0.71094,-0.23828 -1.4453,-0.35938 -2.2031,-0.35938 -1.4375,0 -2.5586,0.42188 -3.3594,1.2656 -0.79297,0.84375 -1.1875,2.0156 -1.1875,3.5156 0,1.5117 0.39453,2.6875 1.1875,3.5312 0.80078,0.83594 1.9219,1.25 3.3594,1.25 0.8125,0 1.5781,-0.11719 2.2969,-0.35938 0.72656,-0.23828 1.3984,-0.59375 2.0156,-1.0625 v 4.2188 c -0.8125,0.29297 -1.6367,0.50781 -2.4688,0.65625 -0.82422,0.15625 -1.6523,0.23438 -2.4844,0.23438 -2.9062,0 -5.1836,-0.74219 -6.8281,-2.2344 -1.6367,-1.5 -2.4531,-3.5781 -2.4531,-6.2344 0,-2.6563 0.81641,-4.7266 2.4531,-6.2188 1.6445,-1.4883 3.9219,-2.2344 6.8281,-2.2344 0.84375,0 1.6758,0.07422 2.5,0.21875 0.82031,0.14844 1.6406,0.37109 2.4531,0.67188 z"
         id="path870" />
    </symbol>
  </defs>
  <g
     id="g5773"
     transform="translate(-108.125,-38.125)"
     style="fill:#ffffff;fill-opacity:1">
    <path
       d="m 241.62,280 h -3.3359 l -2.582,-3.7656 v -2.5117 h -1.6094 l -1.668,-3.3438 -3.7656,-2.0938 h -5.8594 v 3.3516 l 4.6055,4.1797 1.2539,2.3047 v 3.9727 l 7.043,5.0234 h 5.9141 c 0,0 -0.83203,-0.83594 2.0938,0 l 2.9375,0.83594 h 6.2695 l 1.668,-3.9727 -7.5195,-3.9805 z"
       id="path875"
       style="fill:#ffffff;fill-opacity:1" />
    <path
       d="m 396.02,130.63 h 10.465 v -4.3906 h 1.6797 v -2.3047 l -2.0938,-2.0938 h -1.6797 l -5.0234,-2.0859 c 0,0 -0.41406,1.6758 -1.668,0 -1.2539,-1.6758 -2.3047,-1.6758 -2.3047,-1.6758 h -7.7344 c -2.5234,1.6758 -6.7031,0 -5.0234,3.7617 v 3.7656 h 1.668 l 3.7656,2.5117 c 0,0 5.4453,1.6758 6.6914,2.0859 l 1.2578,0.42578 z"
       id="path877"
       style="fill:#ffffff;fill-opacity:1" />
    <path
       d="m 408.16,167.32 v 8.9258 h 27.203 c 0,0 -2.2344,-2.2266 0,-3.9102 l 2.2227,-1.6758 v -18.965 h -8.3594 l -1.1133,5.0234 -2.7891,3.9023 -2.4531,3.3477 h -4.8047 c 0,0 -2.2695,-0.25391 -3.9844,-0.46094 l -2.9961,3.8008 h -2.9258 z"
       id="path879"
       style="fill:#ffffff;fill-opacity:1" />
    <path
       d="m 414.08,163.52 0.0703,-0.10156 c -3.2109,-0.29297 -1.9805,-0.125 -0.0703,0.10156 z"
       id="path881"
       style="fill:#ffffff;fill-opacity:1" />
    <path
       d="m 350,38.465 c -133.19,0 -241.54,108.36 -241.54,241.54 0,133.18 108.35,241.53 241.54,241.53 133.19,0 241.54,-108.34 241.54,-241.53 0,-133.18 -108.35,-241.54 -241.54,-241.54 z m 227.48,224.42 c 0.33594,4.4922 0.55469,9.0117 0.61719,13.57 l -1.0508,-1.4727 -2.7891,-3.3477 -3.3477,-3.3594 h -5.5781 l 2.2344,-5.5664 3.8906,-1.1211 z m -63.461,-40.898 v 3.9023 l 5.0234,6.1406 1.1133,3.3438 v 6.6992 l -5.582,2.793 h -5.5703 l -2.8008,-2.793 -3.9023,-1.6758 -2.7891,-0.55859 -2.7891,-0.55469 c -2.8008,-0.55859 -7.25,-0.55859 -7.25,-0.55859 l -2.2344,0.55859 -3.3477,1.6758 -4.457,1.6758 v 2.2266 h -6.7031 l -3.9023,-2.2266 -5.582,-4.4609 v -2.2266 h -3.3477 l -4.457,-4.4609 h -2.7891 l -2.2344,-2.793 -7.8047,-2.7891 h -7.8242 l 2.7891,-7.8086 3.9141,-2.7891 3.3359,-3.9023 3.9141,-5.0234 2.7891,-1.6758 2.7891,-2.2266 3.9023,-1.1133 3.3477,2.7891 3.9023,3.3477 2.7891,2.2266 2.2344,2.2266 3.3477,2.793 0.55469,3.3438 -1.1094,3.5 -1.1133,3.75 1.668,2.7891 3.3359,-0.55859 2.8008,-1.1133 2.7891,-4.8672 h 1.668 l 0.56641,-3.5 -1.668,-2.2266 -1.668,-2.7891 -1.6797,-3.3477 -1.1133,-1.668 c -1.1133,-1.6797 -3.9023,-5.582 -3.9023,-5.582 l 1.8086,0.14844 4.8945,0.40625 2.2227,1.1133 h 3.625 v 2.7891 l 4.5547,3.9023 c 0,0 2.9727,5.0234 4.6523,6.1406 1.668,1.1133 1.1133,4.6172 1.1133,4.6172 h 2.2227 l 4.4688,3.1953 -0.55469,-3.1953 1.668,-2.9492 1.1133,-2.7891 c 1.1133,-2.7891 0,-3.9102 0,-3.9102 v -3.9023 l 1.1133,-2.2344 7.25,-7.25 c 0,0 3.3359,-0.55859 5.0234,0 1.668,0.55469 1.668,2.2266 1.668,2.2266 h 2.2344 l 0.55469,2.7891 h 9.4922 l 3.3477,3.3477 h 2.7891 v 5.5742 h -6.7031 v 2.7891 h -6.125 l -7.8125,-0.008 -3.3477,1.6758 c -3.3398,1.6797 -2.2266,5.0312 -2.2266,5.0312 z m -311.29,-115.62 0.11719,-0.56641 c 3.9961,-3.3828 8.0938,-6.6328 12.32,-9.7383 l -0.72656,3.6094 -1.668,5.4414 -2.5117,5.0234 -7.5273,0.83594 -2.0938,-0.41797 z m -80.93,173.64 c 0,-26.422 4.5703,-51.773 12.863,-75.395 v 9.5547 l 2.5117,8.9258 v 13.391 l 2.5234,5.0234 v 11.16 h 2.2227 v 2.7891 l 2.7891,3.3477 5.0352,-13.387 v 18.969 l 8.3594,5.0234 h 3.9023 l 4.4688,12.832 4.4688,4.4609 12.828,2.2266 h 4.4688 v 1.6758 h 3.3477 l 7.2461,8.9258 5.582,5.0234 8.3711,3.3477 h 2.2344 l 2.2344,2.7891 5.0234,3.9102 3.3359,2.7891 v 2.2266 l -3.3359,20.637 -0.56641,3.3438 -2.2227,7.25 -3.3594,9.4844 6.1484,5.0234 h 3.3359 v 2.7891 l 4.4688,4.4609 c 0,0 5.582,11.711 6.1367,13.945 0.56641,2.2344 6.7031,11.719 6.7031,11.719 0,0 -2.2344,2.2266 0,4.4609 2.2227,2.2266 2.7891,4.4609 2.7891,4.4609 l 2.7891,8.9258 v 7.8086 c 0.55469,3.3477 0,10.598 0,12.273 0,1.6758 -0.0586,9.4844 0.25391,12.277 0.30078,2.7891 0,10.043 0,10.043 h 1.9805 v 9.4844 c 0,0 2.7891,1.1133 2.7891,4.4609 v 3.3438 6.1367 l 2.4531,5.8828 c -79.062,-35.906 -134.18,-115.52 -134.18,-207.82 z m 228.2,228.19 c -29.367,0 -57.438,-5.6367 -83.238,-15.785 0.16016,-0.41797 0.37109,-0.91406 0.67969,-1.5391 2.2227,-4.4609 2.2227,-4.4609 2.2227,-4.4609 0,0 2.2344,-2.2344 2.7891,-6.6953 0.56641,-4.4609 -2.2227,-4.4609 0,-8.3711 2.2344,-3.9023 3.3594,-6.6953 3.3594,-6.6953 0,0 -3.9141,0 0,-1.668 3.8906,-1.6758 13.383,-7.8164 13.383,-7.8164 0,0 4.4688,-7.25 5.0234,-9.4805 0.56641,-2.2344 0,-7.8086 0,-7.8086 l 6.7031,-9.4844 10.039,-1.6758 c 0,0 2.2344,-2.2344 3.9023,-3.3477 1.6797,-1.1133 6.1484,-5.5781 6.1484,-5.5781 0,0 4.457,-2.7891 6.125,-6.1406 1.668,-3.3477 4.4688,-10.598 5.0234,-13.387 0.56641,-2.7891 0,-6.1367 0,-6.1367 0,0 -0.0586,0.55859 0.25391,-2.793 0.3125,-3.3438 -1.4258,-8.3633 0,-10.039 1.4141,-1.6758 3.6484,-5.0234 4.7812,-6.6953 l 1.1094,-1.6758 v -8.9258 c 0,0 3.9141,-3.9023 0,-5.5703 l -3.9023,-1.6758 -2.2344,-1.1133 c 0,0 -1.668,-0.55859 -3.3477,-1.6758 -1.668,-1.1133 1.6797,0.55859 -1.668,-1.1133 -3.3359,-1.6758 -6.125,-2.7891 -6.125,-2.7891 l -9.4844,-5.8672 h -7.25 v -5.8516 l -1.125,-3.9023 -1.668,-3.3477 -20.078,-14.5 c 0,0 -3.3477,0.55859 -5.0234,-0.55469 -1.6797,-1.1133 -18.977,-7.25 -18.977,-7.25 l -3.9023,-0.55859 -5.6172,-0.004 -2.7891,-1.6758 -3.3477,1.1133 -4.4219,2.2266 v 1.6758 l -2.8203,0.004 -6.1367,-2.2266 -3.9141,-4.4609 -5.0117,-4.4609 -2.8008,-3.9023 -2.2344,-1.1133 -1.668,-2.2344 -9.4727,-5.0234 3.3359,-6.1367 -1.668,-6.1406 c 0,0 -3.3477,-0.55859 -5.0352,-1.1133 -1.668,-0.55859 -1.668,-0.55859 -1.668,-0.55859 h -5.0234 l -2.2344,-0.55859 h -6.6914 l -1.1133,-7.25 1.1133,-3.3477 1.668,-4.4609 2.7891,-1.6758 9.4844,-2.7891 c 0,0 1.1133,-0.55859 5.0352,-0.55859 h 7.8047 l 3.3359,3.9102 c 0,0 2.8008,1.1133 5.0352,2.793 2.2227,1.6758 2.2227,1.6758 4.457,2.7891 2.2343,1.1133 5.0234,2.2344 5.0234,2.2344 l -1.1133,-5.5781 2.2344,-7.8086 -0.55469,-8.9258 7.8398,-2.2266 v -2.7891 l 3.8672,-2.2266 3.9023,-3.9102 5.582,-3.9102 0.55469,-3.3477 v -4.4609 l 0.56641,-11.16 3.3359,-1.6758 7.25,-1.1133 h 2.7891 l 2.8008,-0.55859 2.2344,-0.55859 2.7891,-0.55859 7.25,-1.1133 2.2344,-1.6758 2.9492,-2.293 1.3672,-1.0625 -3.3477,-0.83594 -3.7656,-0.41797 h -5.0234 l -2.9219,-3.3477 4.1797,-7.9453 h 2.5234 l 6.2695,-5.0156 2.0859,7.1094 4.6055,1.6797 c 2.5234,0 7.1133,1.2539 7.1133,1.2539 h 2.0938 l 5.8594,-2.9375 v -2.0859 l -1.6797,-7.9531 -0.41406,-3.7656 -9.625,-10.457 -3.3477,-5.4414 -2.9375,-5.0234 -1.2422,-2.5117 -1.2539,-3.3438 -5.4453,-3.7656 h -7.5352 l -5.0234,-2.0859 c 0,0 1.668,4.6055 -1.668,0 -3.3477,-4.6055 -5.8594,-7.5352 -5.8594,-7.5352 h -1.2539 l -1.668,-2.0859 h -4.1914 v 2.5039 c 0,0 -0.84375,4.1836 -0.84375,5.4414 0,1.2539 -0.41406,3.3477 -0.41406,3.3477 0,0 0,8.3633 -1.2539,10.043 -1.2539,1.6758 -1.668,3.7656 -1.668,3.7656 l -3.3477,6.2734 -4.6055,1.2539 -2.0859,-0.83594 -1.7852,-0.83594 -7.0039,-3.3477 -4.6055,-6.6953 -2.5117,-3.3594 -0.83203,-2.0859 -1.6797,-2.0938 -1.668,-2.9297 v -3.7656 l 2.9219,-4.6055 2.0938,2.9297 2.0938,-5.0234 2.5117,-2.0859 0.41406,-2.9297 h 12.973 l 1.668,-2.0938 v -2.0938 l 2.0938,-4.1797 1.2539,-3.7656 c 0,0 0.41406,0 3.7656,-2.5117 l 3.3359,-2.5039 1.6797,-2.0938 h 4.1797 l 0.42578,2.0938 v 2.0859 l 2.9219,8.7891 v 4.1836 l -0.41406,2.0938 6.2734,1.668 h 2.9219 c 0,0 3.7656,-0.41797 5.8594,-0.41797 h 4.1914 2.5117 l 3.7539,-5.8594 -0.40234,-3.7656 -3.3477,-5.0234 v -3.3438 l -4.1914,-2.5117 c 0,0 0.84375,-1.6758 -0.84375,-4.5977 -1.668,-2.9297 -7.5273,-9.625 -7.5273,-9.625 h -1.668 l -4.1797,-3.7656 c 0,0 -2.0938,3.3477 -6.2852,0 l -4.1797,-3.3477 c 0,0 -1.2539,2.5117 -2.9219,0 -1.6797,-2.5039 -5.0352,-3.7617 -5.0352,-3.7617 h -1.668 l -0.83203,2.0938 -3.7773,4.1797 v 2.0938 l -2.0938,6.2734 -2.1875,3.3477 v 4.6055 l -2.4062,0.83594 -2.9219,0.83594 -0.42578,-2.5117 -2.0859,-2.9297 -0.42578,-2.9297 -10.754,-2.5117 c 24.754,-17.559 53.137,-30.336 83.793,-36.906 l -2.7344,1.7578 -5.4219,2.5117 -2.9375,4.1836 -2.0938,3.7656 v 3.7656 l 3.3477,2.5117 h 11.703 c 0,0 1.2539,-0.83594 2.5234,0 1.2422,0.83594 3.3359,2.5039 3.3359,2.5039 l 0.84375,2.5117 2.5117,6.6953 v 5.0234 l -2.0938,3.3477 -0.83203,3.3477 0.83203,3.3477 v 8.3633 l 2.0938,2.0938 v 10.047 c 0,0 2.0938,2.5117 2.9219,4.5977 0.84375,2.0938 0,4.6055 0,4.6055 l 4.1914,2.5117 v 4.1836 h 2.5117 v 2.9297 h 4.6055 c 0,0 2.5117,-3.7656 3.3359,-5.0234 0.84375,-1.2539 6.2852,-7.9531 6.2852,-7.9531 l 2.9844,-1.2539 c 0,0 3.2852,-2.0859 4.9531,-2.5039 l 1.6797,-0.41797 c 0,0 6.7031,-3.3477 7.957,-4.1836 1.2422,-0.83594 5.4336,-3.7656 5.4336,-3.7656 l 2.0938,-3.3438 2.9219,-1.6797 2.5117,-0.83594 c 0,0 2.9375,-0.41797 4.1914,-0.83594 1.2539,-0.41797 3.7539,-1.2539 3.7539,-1.2539 l 2.9375,-2.9297 v -4.5977 l 6.2734,-0.83594 v -2.5117 l 2.5117,-2.3047 v -12.344 l 2.5234,-2.5039 v -1.2656 l 4.1797,-2.5117 2.0859,-2.9297 v -5.4453 l 3.3477,-5.4414 2.5117,-2.5117 2.5117,-1.2539 0.61719,-0.53125 c 31.902,7.9297 61.145,22.594 86.188,42.379 h -1.1719 l -2.2227,1.6758 c -2.2344,1.6758 -3.3594,0 -3.3594,0 h -2.2227 l -3.9023,3.3477 -4.4688,6.1367 -2.7891,5.9883 h -3.9141 l -3.3359,6.2734 c 0,0 -1.668,0.56641 -3.3477,2.2383 -1.668,1.668 -3.3359,8.9258 -3.3359,8.9258 h -2.8008 l -1.957,3.3438 v 2.6406 l -1.9453,2.9414 v 3.9023 h 3.9023 l 3.3477,3.3477 4.4688,2.793 h 2.7891 l 3.3359,-2.793 h 8.9258 l 2.8008,-2.2266 1.1133,-3.9102 3.3359,-6.6953 v -4.4609 l 1.6797,-3.7773 h 2.7891 l 3.1641,-6.2734 3.5352,6.2734 v 6.5664 l 1.1133,4.3164 1.1133,4.6094 -1.1133,3.3477 v 2.2266 h -4.6523 l -2.5977,3.9102 -4.4688,3.9102 -7.8164,1.6758 h -6.6914 l -7.8047,-0.55859 h -3.3477 l -3.3477,3.3477 c 0,0 -1.668,1.6758 -3.9023,3.3438 -2.2227,1.6758 -3.9023,2.7891 -3.9023,2.7891 l -2.2344,2.793 -2.2344,3.3477 h -2.2227 l -3.9141,5.0234 -6.125,1.6758 -5.0352,2.2266 -3.5586,1.1133 3.0078,2.793 5.582,1.6758 2.2227,4.4609 3.9023,2.7891 -1.1133,4.4609 -4.457,1.1133 c -4.4688,1.1133 -6.1367,0.55859 -6.1367,0.55859 l -3.0078,-0.55859 c -2.9961,-0.55469 -4.25,-1.6758 -4.25,-1.6758 l -2.2344,0.55859 -2.8008,5.582 -2.5,1.1133 v 2.2266 l 0.83203,7.25 -0.83203,2.2266 c -0.84375,2.2266 4.1797,3.9102 4.1797,3.9102 l 7.5977,5.5703 v 2.2344 l -3.1289,3.9023 -0.56641,2.7891 -6.6797,9.5078 -4.3164,3.9023 -5.7227,5.0234 -6.7031,3.9023 c 0,0 -2.7891,5.0234 -6.1367,6.6914 -3.3359,1.6758 0,4.4688 0,4.4688 v 7.25 9.5508 l 4.4688,7.7383 v 2.793 l 2.7891,2.7891 v 2.7891 l 5.582,10.043 v 2.7891 l 5.7227,3.9102 2.6484,1.6758 h 5.5703 l 3.3477,0.55859 3.1289,0.55859 c 3.1406,0.55859 4.1211,0.55859 5.7891,1.1133 1.668,0.55469 8.9258,0.55469 8.9258,0.55469 h 8.918 l 3.9141,1.6758 4.4688,6.6953 0.55469,2.2266 2.7891,6.6953 4.4688,10.043 v 8.9258 c 0,4.4609 -1.1133,5.0234 -1.1133,5.0234 v 3.9102 l 1.1133,12.273 2.2344,7.8086 1.1133,9.4844 0.55469,6.6953 1.668,6.6953 2.2344,7.25 0.56641,3.3477 v 7.8086 l 3.3359,8.9297 9.4844,2.7891 6.1367,-3.3438 7.8164,-3.9102 3.3359,-2.7891 c 0,0 5.0234,-3.3477 7.25,-6.1406 2.2344,-2.7891 5.0234,-3.9023 5.0234,-3.9023 l 0.56641,-2.793 3.3359,-8.9258 0.56641,-3.3477 1.668,-4.4609 3.625,-3.3477 2.5117,-5.582 2.2344,-3.3438 2.2344,-3.9023 c 0,0 0,-3.9102 1.1133,-6.6953 1.1133,-2.7891 0.55469,-7.8047 0.55469,-7.8047 v -2.793 l 2.2344,-5.5781 1.1133,-5.582 2.7891,-6.1367 1.1133,-6.1406 3.3477,-2.7891 2.2344,-3.3438 3.9023,-7.25 3.9023,-4.4609 2.2344,-2.2344 c 0,0 4.457,-5.5781 6.1367,-8.9297 1.668,-3.3438 2.7891,0 2.7891,0 v -2.7891 l -2.2227,-2.7891 -1.6797,-3.9102 h -10.605 l -7.8047,-5.5781 -7.8164,-8.9258 -3.8906,-6.0703 -1.1133,-1.5977 -0.56641,-2.3711 1.6797,-7.4609 v -6.4844 c 0,-2.2266 -0.56641,-3.3477 -0.56641,-3.3477 v -6.1367 l 3.3477,-2.2266 3.3359,5.0234 c 0,0 1.6797,6.1367 2.2344,7.8086 0.56641,1.6758 2.7891,5.3711 2.7891,5.3711 h 1.6797 l 0.55469,11.43 7.25,9.9844 7.25,-3.3477 h 11.719 l 2.7891,-2.7891 5.582,-5.4453 0.49609,-4.6094 c -0.48438,32.816 -7.9102,63.965 -20.898,92.051 h -2.1992 l -3.0664,2.793 -1.1133,2.2266 c -1.1133,2.2266 -3.3477,6.1367 -3.3477,6.1367 l -3.9023,3.3477 -2.8516,5.0234 c -2.8516,5.0234 -1.6094,1.6758 -0.49609,7.25 0.25391,1.2656 0.37891,2.2148 0.44922,2.9727 -40.836,62 -111.03,103.04 -190.67,103.04 z m 228.17,-227.16 v -1.0273 l 0.0234,-0.043 v 0.043 c 0,0.34766 -0.0234,0.68359 -0.0234,1.0273 z"
       id="path883"
       style="fill:#ffffff;fill-opacity:1" />
  </g>
</svg>
