<?xml version="1.0" encoding="UTF-8" standalone="no"?>
<svg
   xmlns:dc="http://purl.org/dc/elements/1.1/"
   xmlns:cc="http://creativecommons.org/ns#"
   xmlns:rdf="http://www.w3.org/1999/02/22-rdf-syntax-ns#"
   xmlns:svg="http://www.w3.org/2000/svg"
   xmlns="http://www.w3.org/2000/svg"
   xmlns:sodipodi="http://sodipodi.sourceforge.net/DTD/sodipodi-0.dtd"
   xmlns:inkscape="http://www.inkscape.org/namespaces/inkscape"
   width="747"
   height="747"
   version="1.1"
   viewBox="0 0 560.25001 560.25001"
   id="svg341"
   sodipodi:docname="Paramedic.svg"
   inkscape:export-filename="/home/marek/Downloads/Paramedic.png"
   inkscape:export-xdpi="25.702812"
   inkscape:export-ydpi="25.702812"
   inkscape:version="1.0.2 (e86c870879, 2021-01-15)">
  <metadata
     id="metadata345">
    <rdf:RDF>
      <cc:Work
         rdf:about="">
        <dc:format>image/svg+xml</dc:format>
        <dc:type
           rdf:resource="http://purl.org/dc/dcmitype/StillImage" />
        <dc:title></dc:title>
      </cc:Work>
    </rdf:RDF>
  </metadata>
  <sodipodi:namedview
     pagecolor="#ffffff"
     bordercolor="#666666"
     borderopacity="1"
     objecttolerance="10"
     gridtolerance="10"
     guidetolerance="10"
     inkscape:pageopacity="0"
     inkscape:pageshadow="2"
     inkscape:window-width="1920"
     inkscape:window-height="990"
     id="namedview343"
     showgrid="false"
     inkscape:pagecheckerboard="true"
     units="px"
     inkscape:zoom="0.62806234"
     inkscape:cx="33.550301"
     inkscape:cy="476.69307"
     inkscape:window-x="0"
     inkscape:window-y="30"
     inkscape:window-maximized="1"
     inkscape:current-layer="svg341" />
  <defs
     id="defs259">
    <symbol
       id="u"
       overflow="visible">
      <path
         d="M 3.7812,-0.21875 C 3.58198,-0.125 3.37886,-0.05078 3.17182,0 2.96088,0.050781 2.74213,0.078125 2.51557,0.078125 c -0.6875,0 -1.2344,-0.1875 -1.6406,-0.5625 -0.39844,-0.38281 -0.59375,-0.90625 -0.59375,-1.5625 0,-0.65625 0.19531,-1.1758 0.59375,-1.5625 0.40625,-0.38281 0.95312,-0.57812 1.6406,-0.57812 0.22656,0 0.44531,0.027344 0.65625,0.078125 0.20703,0.054687 0.41016,0.13281 0.60938,0.23438 v 0.84375 C 3.58198,-3.16405 3.38276,-3.26562 3.18745,-3.32812 2.99995,-3.39062 2.80073,-3.42187 2.5937,-3.42187 c -0.375,0 -0.67188,0.125 -0.89062,0.375 -0.21875,0.24219 -0.32812,0.57422 -0.32812,1 0,0.41797 0.10938,0.75 0.32812,1 0.21875,0.24219 0.51562,0.35938 0.89062,0.35938 0.20703,0 0.40625,-0.03125 0.59375,-0.09375 0.19531,-0.0625 0.39453,-0.16016 0.59375,-0.29688 z"
         id="path196" />
    </symbol>
    <symbol
       id="c"
       overflow="visible">
      <path
         d="M 2.7656,-2.25 C 2.679663,-2.289062 2.59372,-2.316406 2.49998,-2.328125 c -0.085938,-0.019531 -0.16797,-0.03125 -0.25,-0.03125 -0.25,0 -0.44922,0.085937 -0.59375,0.25 -0.13672,0.15625 -0.20312,0.38672 -0.20312,0.6875 V 2.5e-5 H 0.46873 v -3.0781 h 0.98438 v 0.5 c 0.13281,-0.19531 0.28125,-0.34375 0.4375,-0.4375 0.16406,-0.09375 0.36328,-0.14062 0.59375,-0.14062 h 0.10938 c 0.039062,0 0.097656,0.00781 0.17188,0.015625 z"
         id="path199" />
    </symbol>
    <symbol
       id="a"
       overflow="visible">
      <path
         d="m 3.5469,-1.5469 v 0.28125 H 1.25 c 0.019531,0.23047 0.10156,0.40234 0.25,0.51562 0.14453,0.11719 0.34375,0.17188 0.59375,0.17188 0.20703,0 0.42188,-0.03125 0.64062,-0.09375 0.21874,-0.0625 0.44141,-0.15625 0.67188,-0.28125 v 0.76562 C 3.17578,-0.101592 2.94141,-0.03909 2.70313,-3e-5 2.47266,0.050751 2.24219,0.078095 2.01563,0.078095 c -0.5625,0 -1,-0.14062 -1.3125,-0.42188 -0.30469,-0.28125 -0.45312,-0.67969 -0.45312,-1.2031 0,-0.5 0.14844,-0.89062 0.45312,-1.1719 0.30078,-0.28906 0.71875,-0.4375 1.25,-0.4375 0.48828,0 0.875,0.14844 1.1562,0.4375 0.28906,0.29297 0.4375,0.68359 0.4375,1.1719 z m -1,-0.32812 c 0,-0.1875 -0.058594,-0.33594 -0.17188,-0.45312 -0.10547,-0.11328 -0.24609,-0.17188 -0.42188,-0.17188 -0.19922,0 -0.35938,0.054688 -0.48438,0.15625 -0.11719,0.10547 -0.18359,0.26172 -0.20312,0.46875 z"
         id="path202" />
    </symbol>
    <symbol
       id="f"
       overflow="visible">
      <path
         d="m 1.8594,-1.3906 c -0.21094,0 -0.36719,0.039063 -0.46875,0.10938 -0.10547,0.074219 -0.15625,0.17969 -0.15625,0.3125 0,0.125 0.039063,0.22656 0.125,0.29688 0.082031,0.0625 0.19531,0.09375 0.34375,0.09375 0.1875,0 0.34375,-0.0625 0.46875,-0.1875 0.13281,-0.13281 0.20312,-0.30469 0.20312,-0.51562 v -0.10938 z m 1.5,-0.375 V 0 H 2.37502 v -0.45312 c -0.13672,0.1875 -0.28906,0.32422 -0.45312,0.40625 -0.16797,0.082031 -0.37109,0.125 -0.60938,0.125 -0.3125,0 -0.57031,-0.09375 -0.76562,-0.28125 -0.19922,-0.1875 -0.29688,-0.42578 -0.29688,-0.71875 0,-0.36328 0.11719,-0.62891 0.35938,-0.79688 0.25,-0.16406 0.64062,-0.25 1.1719,-0.25 h 0.59375 v -0.078125 c 0,-0.15625 -0.0625,-0.26953 -0.1875,-0.34375 -0.125,-0.070313 -0.32031,-0.10938 -0.57812,-0.10938 -0.21094,0 -0.40625,0.023438 -0.59375,0.0625 -0.17969,0.042969 -0.34375,0.10547 -0.5,0.1875 v -0.75 c 0.20703,-0.050781 0.41406,-0.085938 0.625,-0.10938 0.21875,-0.03125 0.42969,-0.046875 0.64062,-0.046875 0.5625,0 0.96094,0.10938 1.2031,0.32812 0.25,0.21875 0.375,0.57422 0.375,1.0625 z"
         id="path205" />
    </symbol>
    <symbol
       id="b"
       overflow="visible">
      <path
         d="m 1.5469,-3.9531 v 0.875 h 1.0156 v 0.70312 H 1.5469 v 1.2969 c 0,0.14844 0.023437,0.24609 0.078125,0.29688 0.0625,0.054688 0.17578,0.078125 0.34375,0.078125 h 0.51562 V 4.5e-5 h -0.84375 c -0.39844,0 -0.67969,-0.078125 -0.84375,-0.23438 -0.15625,-0.16406 -0.23438,-0.44531 -0.23438,-0.84375 v -1.2969 h -0.48438 v -0.70312 h 0.48438 v -0.875 z"
         id="path208" />
    </symbol>
    <symbol
       id="k"
       overflow="visible">
      <path
         d="M 2.5781,-2.6406 V -4.2812 H 3.56248 V 0 H 2.5781 v -0.45312 c -0.13672,0.1875 -0.28906,0.32422 -0.45312,0.40625 -0.16797,0.082031 -0.35547,0.125 -0.5625,0.125 -0.38672,0 -0.70312,-0.14844 -0.95312,-0.45312 -0.24219,-0.30078 -0.35938,-0.69141 -0.35938,-1.1719 0,-0.46875 0.11719,-0.85156 0.35938,-1.1562 0.25,-0.30078 0.56641,-0.45312 0.95312,-0.45312 0.20703,0 0.39453,0.042969 0.5625,0.125 0.16406,0.085938 0.31641,0.21484 0.45312,0.39062 z m -0.65625,2 c 0.20703,0 0.36719,-0.070313 0.48438,-0.21875 0.11328,-0.15625 0.17188,-0.38281 0.17188,-0.6875 0,-0.28906 -0.058594,-0.50781 -0.17188,-0.65625 -0.11719,-0.15625 -0.27734,-0.23438 -0.48438,-0.23438 -0.21094,0 -0.37109,0.078125 -0.48438,0.23438 -0.10547,0.14844 -0.15625,0.36719 -0.15625,0.65625 0,0.30469 0.050781,0.53125 0.15625,0.6875 0.11328,0.14844 0.27344,0.21875 0.48438,0.21875 z"
         id="path211" />
    </symbol>
    <symbol
       id="j"
       overflow="visible">
      <path
         d="m 2.1094,-0.64062 c 0.21875,0 0.37891,-0.070313 0.48438,-0.21875 0.11328,-0.15625 0.17188,-0.38281 0.17188,-0.6875 0,-0.28906 -0.058594,-0.50781 -0.17188,-0.65625 C 2.48831,-2.35937 2.32816,-2.4375 2.1094,-2.4375 c -0.21094,0 -0.37109,0.078125 -0.48438,0.23438 -0.11719,0.14844 -0.17188,0.36719 -0.17188,0.65625 0,0.29297 0.054687,0.51562 0.17188,0.67188 0.11328,0.15625 0.27344,0.23438 0.48438,0.23438 z m -0.65625,-2 c 0.13281,-0.17578 0.28516,-0.30469 0.45312,-0.39062 0.16406,-0.082031 0.35938,-0.125 0.57812,-0.125 0.375,0 0.67969,0.15234 0.92188,0.45312 0.25,0.30469 0.375,0.6875 0.375,1.1562 0,0.48047 -0.125,0.87109 -0.375,1.1719 C 3.16408,-0.07033 2.85939,0.0781 2.48439,0.0781 2.26564,0.0781 2.07033,0.035131 1.90627,-0.0469 1.7383,-0.128931 1.58596,-0.26565 1.45315,-0.45315 V -3e-5 H 0.46877 v -4.2812 h 0.98438 z"
         id="path214" />
    </symbol>
    <symbol
       id="e"
       overflow="visible">
      <path
         d="m 0.0625,-3.0781 h 1 l 0.82812,2.0938 0.70312,-2.0938 h 0.98438 l -1.2969,3.375 C 2.1445,0.64065 1.98825,0.87893 1.81247,1.01565 1.6445,1.14846 1.42185,1.21877 1.14059,1.21877 H 0.56247 V 0.56252 h 0.3125 c 0.16406,0 0.28516,-0.027344 0.35938,-0.078125 0.082031,-0.054687 0.14453,-0.14844 0.1875,-0.28125 L 1.437475,0.12502 Z"
         id="path217" />
    </symbol>
    <symbol
       id="i"
       overflow="visible">
      <path
         d="m 0.51562,-4.1094 h 2.8594 v 0.79688 h -1.7969 v 0.76562 h 1.6875 v 0.79688 h -1.6875 v 0.95312 h 1.8594 V -2e-5 h -2.9219 z"
         id="path220" />
    </symbol>
    <symbol
       id="h"
       overflow="visible">
      <path
         d="m 0.4375,-1.2031 v -1.875 h 1 v 0.29688 c 0,0.16797 -0.00781,0.38281 -0.015625,0.64062 v 0.5 c 0,0.25 0.00391,0.43359 0.015625,0.54688 0.019531,0.10547 0.046875,0.17969 0.078125,0.21875 0.039063,0.074219 0.09375,0.125 0.15625,0.15625 0.0625,0.03125 0.13281,0.046875 0.21875,0.046875 0.20703,0 0.36719,-0.078125 0.48438,-0.23438 0.125,-0.15625 0.1875,-0.375 0.1875,-0.65625 v -1.5156 h 0.98438 v 3.0781 h -0.98438 v -0.45312 c -0.15625,0.1875 -0.32031,0.32422 -0.48438,0.40625 -0.16797,0.082031 -0.35156,0.125 -0.54688,0.125 -0.35547,0 -0.625,-0.10938 -0.8125,-0.32812 -0.1875,-0.21874 -0.28125,-0.53516 -0.28125,-0.95312 z"
         id="path223" />
    </symbol>
    <symbol
       id="g"
       overflow="visible">
      <path
         d="m 2.9688,-2.9844 v 0.79688 C 2.83208,-2.28127 2.69536,-2.34768 2.56255,-2.39064 2.42583,-2.429703 2.28521,-2.45314 2.14067,-2.45314 c -0.27344,0 -0.48438,0.085937 -0.64062,0.25 -0.15625,0.15625 -0.23438,0.375 -0.23438,0.65625 0,0.29297 0.078125,0.52344 0.23438,0.6875 0.15625,0.15625 0.36719,0.23438 0.64062,0.23438 0.15625,0 0.30078,-0.019531 0.4375,-0.0625 0.14453,-0.050781 0.27344,-0.11719 0.39062,-0.20312 v 0.79688 c -0.15625,0.0625 -0.3125,0.10156 -0.46875,0.125 -0.15625,0.03125 -0.32031,0.046875 -0.48438,0.046875 -0.55469,0 -0.98438,-0.14062 -1.2969,-0.42188 -0.3125,-0.28906 -0.46875,-0.69141 -0.46875,-1.2031 0,-0.5 0.15625,-0.89062 0.46875,-1.1719 0.3125,-0.28906 0.74219,-0.4375 1.2969,-0.4375 0.16406,0 0.32812,0.015625 0.48438,0.046875 0.15625,0.023437 0.3125,0.0625 0.46875,0.125 z"
         id="path226" />
    </symbol>
    <symbol
       id="t"
       overflow="visible">
      <path
         d="M 0.46875,-4.2812 H 1.45313 V 0 H 0.46875 Z"
         id="path229" />
    </symbol>
    <symbol
       id="s"
       overflow="visible">
      <path
         d="m 1.4531,-0.45312 v 1.625 H 0.46872 v -4.25 H 1.4531 v 0.4375 c 0.13281,-0.17578 0.28516,-0.30469 0.45312,-0.39062 0.16406,-0.082031 0.35938,-0.125 0.57812,-0.125 0.375,0 0.67969,0.15234 0.92188,0.45312 0.25,0.30469 0.375,0.6875 0.375,1.1562 0,0.48047 -0.125,0.87109 -0.375,1.1719 C 3.16403,-0.07033 2.85934,0.0781 2.48434,0.0781 2.26559,0.0781 2.07028,0.035131 1.90622,-0.0469 1.73825,-0.128931 1.58591,-0.26565 1.4531,-0.45315 Z m 0.65625,-1.9844 c -0.21094,0 -0.37109,0.078125 -0.48438,0.23438 -0.11719,0.14844 -0.17188,0.36719 -0.17188,0.65625 0,0.29297 0.054687,0.51562 0.17188,0.67188 0.11328,0.15625 0.27344,0.23438 0.48438,0.23438 0.21875,0 0.37891,-0.070313 0.48438,-0.21875 0.11328,-0.15625 0.17188,-0.38281 0.17188,-0.6875 0,-0.28906 -0.058594,-0.50781 -0.17188,-0.65625 C 2.48826,-2.35938 2.32811,-2.43751 2.10935,-2.43751 Z"
         id="path232" />
    </symbol>
    <symbol
       id="r"
       overflow="visible">
      <path
         d="m 2.5,-4.2812 v 0.64062 H 1.95312 c -0.13672,0 -0.23438,0.027344 -0.29688,0.078125 -0.054688,0.054688 -0.078125,0.14062 -0.078125,0.26562 v 0.21875 h 0.84375 v 0.70312 h -0.84375 v 2.375 h -0.98438 v -2.375 h -0.48438 v -0.70312 h 0.48438 v -0.21875 c 0,-0.33203 0.09375,-0.57812 0.28125,-0.73438 0.1875,-0.16406 0.47656,-0.25 0.875,-0.25 z"
         id="path235" />
    </symbol>
    <symbol
       id="d"
       overflow="visible">
      <path
         d="m 1.9375,-2.4531 c -0.21875,0 -0.38672,0.078125 -0.5,0.23438 -0.11719,0.15625 -0.17188,0.38281 -0.17188,0.67188 0,0.30469 0.054687,0.53125 0.17188,0.6875 0.11328,0.15625 0.28125,0.23438 0.5,0.23438 0.21875,0 0.38281,-0.078125 0.5,-0.23438 0.11328,-0.15625 0.17188,-0.38281 0.17188,-0.6875 0,-0.28906 -0.058594,-0.51562 -0.17188,-0.67188 -0.11719,-0.15625 -0.28125,-0.23438 -0.5,-0.23438 z m 0,-0.70312 c 0.53125,0 0.94141,0.14844 1.2344,0.4375 0.30078,0.28125 0.45312,0.67188 0.45312,1.1719 0,0.51172 -0.15234,0.91406 -0.45312,1.2031 -0.29297,0.28125 -0.70312,0.42188 -1.2344,0.42188 -0.53128,0 -0.94922,-0.14062 -1.25,-0.42188 C 0.39453,-0.63278 0.25,-1.03513 0.25,-1.54682 c 0,-0.5 0.14453,-0.89062 0.4375,-1.1719 0.30078,-0.28906 0.71875,-0.4375 1.25,-0.4375 z"
         id="path238" />
    </symbol>
    <symbol
       id="q"
       overflow="visible">
      <path
         d="m 3.3281,-2.5781 c 0.125,-0.1875 0.26953,-0.32812 0.4375,-0.42188 0.17578,-0.10156 0.36719,-0.15625 0.57812,-0.15625 0.35156,0 0.625,0.10938 0.8125,0.32812 0.1875,0.21874 0.28125,0.53906 0.28125,0.95312 V 1e-5 h -1 v -1.6094 -0.0625 -0.125 c 0,-0.21875 -0.03125,-0.375 -0.09375,-0.46875 -0.0625,-0.10156 -0.16797,-0.15625 -0.3125,-0.15625 -0.1875,0 -0.33594,0.078125 -0.4375,0.23438 C 3.49997,-2.03126 3.4531,-1.8047 3.4531,-1.51563 V -3e-5 h -1 v -1.6094 c 0,-0.34375 -0.03125,-0.5625 -0.09375,-0.65625 -0.054687,-0.10156 -0.15625,-0.15625 -0.3125,-0.15625 -0.1875,0 -0.33594,0.078125 -0.4375,0.23438 C 1.50388,-2.0313 1.4531,-1.80474 1.4531,-1.51567 V -7e-5 H 0.46872 v -3.0781 H 1.4531 v 0.4375 c 0.125,-0.16406 0.26562,-0.28906 0.42188,-0.375 0.15625,-0.09375 0.32812,-0.14062 0.51562,-0.14062 0.21875,0 0.40625,0.054688 0.5625,0.15625 0.16406,0.10547 0.28906,0.24609 0.375,0.42188 z"
         id="path241" />
    </symbol>
    <symbol
       id="p"
       overflow="visible">
      <path
         d="M 3.5781,-1.875 V 0 h -1 v -1.4375 c 0,-0.26953 -0.00781,-0.45312 -0.015625,-0.54688 -0.011719,-0.10156 -0.03125,-0.17969 -0.0625,-0.23438 -0.03125,-0.0625 -0.085938,-0.10938 -0.15625,-0.14062 -0.0625,-0.039063 -0.13672,-0.0625 -0.21875,-0.0625 -0.21094,0 -0.375,0.085937 -0.5,0.25 -0.11719,0.15625 -0.17188,0.375 -0.17188,0.65625 V -3e-5 h -0.98438 v -4.2812 h 0.98438 v 1.6406 c 0.15625,-0.17578 0.31641,-0.30469 0.48438,-0.39062 0.16406,-0.082031 0.34766,-0.125 0.54688,-0.125 0.35156,0 0.625,0.10938 0.8125,0.32812 0.1875,0.21874 0.28125,0.53906 0.28125,0.95312 z"
         id="path244" />
    </symbol>
    <symbol
       id="o"
       overflow="visible">
      <path
         d="m 0.51562,-4.1094 h 1.1875 l 1.5,2.8125 v -2.8125 h 1 V 0 h -1.1875 l -1.5,-2.8281 V 0 h -1 z"
         id="path247" />
    </symbol>
    <symbol
       id="n"
       overflow="visible">
      <path
         d="M 3.5781,-1.875 V 0 h -1 v -1.4375 c 0,-0.26953 -0.00781,-0.45312 -0.015625,-0.54688 -0.011719,-0.10156 -0.03125,-0.17969 -0.0625,-0.23438 -0.03125,-0.0625 -0.085938,-0.10938 -0.15625,-0.14062 -0.0625,-0.039063 -0.13672,-0.0625 -0.21875,-0.0625 -0.21094,0 -0.375,0.085937 -0.5,0.25 -0.11719,0.15625 -0.17188,0.375 -0.17188,0.65625 V -3e-5 h -0.98438 v -3.0781 h 0.98438 v 0.4375 c 0.15625,-0.17578 0.31641,-0.30469 0.48438,-0.39062 0.16406,-0.082031 0.34766,-0.125 0.54688,-0.125 0.35156,0 0.625,0.10938 0.8125,0.32812 0.1875,0.21874 0.28125,0.53906 0.28125,0.95312 z"
         id="path250" />
    </symbol>
    <symbol
       id="m"
       overflow="visible">
      <path
         d="m 0.51562,-4.1094 h 1.7656 c 0.51953,0 0.92188,0.11719 1.2031,0.34375 0.28125,0.23047 0.42188,0.5625 0.42188,1 0,0.42969 -0.14062,0.76172 -0.42188,1 -0.28125,0.23047 -0.68359,0.34375 -1.2031,0.34375 H 1.5781 V 0 H 0.5156 Z m 1.0625,0.76562 v 1.1562 h 0.59375 c 0.19531,0 0.35156,-0.050781 0.46875,-0.15625 0.11328,-0.10156 0.17188,-0.24219 0.17188,-0.42188 0,-0.1875 -0.058594,-0.32812 -0.17188,-0.42188 C 2.52343,-3.28915 2.36718,-3.34384 2.17187,-3.34384 Z"
         id="path253" />
    </symbol>
    <symbol
       id="l"
       overflow="visible">
      <path
         d="m 0.46875,-3.0781 h 0.98438 v 3.0156 c 0,0.41406 -0.10156,0.73438 -0.29688,0.95312 C 0.95703,1.10937 0.67187,1.21874 0.29687,1.21874 H -0.18751 V 0.56249 h 0.17188 c 0.1875,0 0.3125,-0.042969 0.375,-0.125 0.070313,-0.085938 0.10938,-0.25 0.10938,-0.5 z m 0,-1.2031 h 0.98438 v 0.79688 H 0.46875 Z"
         id="path256" />
    </symbol>
  </defs>
  <g
     id="g2207"
     transform="translate(-69.873054,0.123375)"
     style="fill:#ffffff;fill-opacity:1">
    <path
       d="m 172.01,295.41 81.289,81.289 c 3.5273,3.5273 9.2461,3.5273 12.773,0 l 20.707,-20.711 v 32.387 c 0,4.9883 4.043,9.0312 9.0312,9.0312 h 108.38 c 4.9883,0 9.0312,-4.043 9.0312,-9.0312 v -32.387 l 20.711,20.711 c 3.5273,3.5273 9.2461,3.5273 12.773,0 l 81.289,-81.289 c 3.3945,-3.3984 3.5391,-8.8594 0.32812,-12.43 l -75.855,-84.277 75.852,-84.277 c 3.2148,-3.5703 3.0703,-9.0312 -0.32812,-12.43 l -81.289,-81.289 c -3.5273,-3.5273 -9.2461,-3.5273 -12.773,0 l -20.707,20.711 V 9.031 c 0,-4.9883 -4.043,-9.0312 -9.0312,-9.0312 h -108.38 c -4.9883,0 -9.0312,4.043 -9.0312,9.0312 V 41.418 L 266.069,20.707 c -3.5273,-3.5273 -9.2461,-3.5273 -12.773,0 l -81.289,81.289 c -3.3945,3.3984 -3.5391,8.8594 -0.32812,12.43 l 75.852,84.277 -75.848,84.277 c -3.2148,3.5703 -3.0703,9.0312 0.32812,12.43 z m 94.383,-90.664 c 3.0898,-3.4336 3.0898,-8.6484 0,-12.082 l -75.555,-83.953 68.844,-68.84 29.742,29.742 c 2.582,2.582 6.4688,3.3555 9.8438,1.957 3.375,-1.3984 5.5742,-4.6914 5.5742,-8.3477 v -45.16 h 90.32 v 45.16 c 0,3.6523 2.1992,6.9453 5.5742,8.3438 3.3789,1.3984 7.2617,0.625 9.8438,-1.957 l 29.742,-29.738 68.844,68.84 -75.559,83.949 c -3.0898,3.4336 -3.0898,8.6484 0,12.082 l 75.559,83.949 -68.844,68.848 -29.742,-29.742 c -2.5859,-2.582 -6.4688,-3.3555 -9.8438,-1.957 -3.375,1.3984 -5.5742,4.6914 -5.5742,8.3438 v 45.16 h -90.32 v -45.16 c 0,-3.6523 -2.1992,-6.9453 -5.5742,-8.3438 -3.375,-1.3984 -7.2617,-0.625 -9.8438,1.957 l -29.742,29.742 -68.844,-68.844 z"
       id="path261"
       style="fill:#ffffff;fill-opacity:1" />
    <path
       d="m 312.14,222.95 c -14.699,2.4492 -25.363,15.039 -25.363,29.941 0,14.902 10.668,27.492 25.363,29.941 l 10.762,1.793 v 22.457 c 0,9.9609 8.1055,18.062 18.062,18.062 h 18.062 c 9.9609,0 18.062,-8.1055 18.062,-18.062 v -13.426 l 7.793,1.2969 c 5.9492,0.99219 10.273,6.0938 10.273,12.125 h 18.062 c 0,-14.898 -10.668,-27.492 -25.363,-29.941 l -10.758,-1.793 v -44.91 l 10.762,-1.793 c 14.699,-2.4492 25.363,-15.043 25.363,-29.941 0,-14.902 -10.668,-27.492 -25.363,-29.941 l -10.762,-1.793 v -76.648 c 0,-9.9609 -8.1055,-18.062 -18.062,-18.062 h -18.062 c -9.9609,0 -18.062,8.1055 -18.062,18.062 v 12.48 l -17.504,8.7539 c -11.496,5.7422 -18.629,17.289 -18.629,30.133 0,16.539 11.84,30.512 28.152,33.23 l 7.9727,1.3281 v 44.91 z m 2.9727,42.066 c -5.9531,-0.99219 -10.273,-6.0898 -10.273,-12.125 0,-6.0352 4.3203,-11.133 10.273,-12.125 l 7.793,-1.2969 v 26.848 z m 43.93,42.066 h -0.0117 -18.062 v -19.445 l 18.074,3.0117 z m -0.004,-34.746 -18.07,-3.0117 v -32.867 l 18.07,-3.0117 z m 25.848,-85.762 c 5.9531,0.99219 10.273,6.0898 10.273,12.125 0,6.0352 -4.3203,11.133 -10.273,12.125 l -7.7891,1.2969 v -26.848 z m -25.855,-96.258 0.004,73.637 -18.066,-3.0117 v -70.625 z m -41.133,66.777 c -7.5664,-1.2617 -13.059,-7.7422 -13.059,-15.414 0,-5.957 3.3086,-11.312 8.6367,-13.977 l 9.4258,-4.7109 v 34.938 z m 23.07,22.16 18.07,3.0117 v 32.867 l -18.07,3.0117 z"
       id="path263"
       style="fill:#ffffff;fill-opacity:1" />
    <path
       d="m 628.78,348.77 c -1.1992,-2.0742 -3.1719,-3.5898 -5.4844,-4.207 -6.3008,-1.6875 -12.637,-2.3555 -18.84,-2.1094 3.0352,-10.293 3.3828,-21.242 0.88281,-32.039 l -4.0781,-17.598 c -1.125,-4.8594 -5.9766,-7.8867 -10.84,-6.7617 -22.922,5.3125 -40.258,22.598 -46.469,43.996 -7.2031,-6.3359 -15.816,-10.984 -25.352,-13.543 -4.8164,-1.2891 -9.7695,1.5703 -11.062,6.3867 l -4.6758,17.449 c -2.0078,7.4961 -2.5977,15.297 -1.8008,22.961 -0.0469,0.0781 -0.10547,0.15234 -0.14844,0.23047 l -9.0312,15.645 c -3.8789,6.7188 -6.4688,14.102 -7.6836,21.711 -0.0664,0.0625 -0.14062,0.12109 -0.20312,0.18359 l -12.773,12.773 c -5.4844,5.4844 -9.8984,11.949 -13.039,18.984 -0.082,0.043 -0.16406,0.0781 -0.24609,0.125 l -15.645,9.0312 c -14.625,8.4453 -25.086,22.078 -29.457,38.391 -3.6641,13.68 -2.6641,27.859 2.7305,40.711 -11.309,7.6328 -24.777,11.797 -38.469,11.797 v 18.062 c 16.953,0 33.637,-5.0469 47.746,-14.324 8.3359,10.301 19.656,17.699 32.703,21.195 5.4492,1.4609 10.977,2.1836 16.465,2.1836 10.957,0 21.766,-2.875 31.508,-8.4961 l 15.645,-9.0312 c 2.0742,-1.1992 3.5898,-3.1719 4.207,-5.4844 0.62109,-2.3125 0.29688,-4.7773 -0.90234,-6.8516 -1.7305,-3 -3.6914,-5.8125 -5.8359,-8.4453 15.277,-0.64844 30.367,-6.7852 42.008,-18.426 l 12.773,-12.773 c 3.5273,-3.5273 3.5273,-9.2461 0,-12.773 -2.457,-2.457 -5.0703,-4.6562 -7.8008,-6.6211 15.156,-4.75 27.793,-14.852 35.781,-28.691 l 9.0312,-15.645 c 2.4961,-4.3203 1.0156,-9.8438 -3.3047,-12.336 -2.9961,-1.7305 -6.0977,-3.1836 -9.2695,-4.3906 12.906,-8.1992 22.898,-21.062 27.16,-36.961 l 4.6758,-17.449 c 0.61328,-2.3164 0.28906,-4.7812 -0.90625,-6.8594 z m -42.871,-42.195 1.832,7.918 c 2.6133,11.27 0.87891,22.781 -4.8555,32.711 -7.3477,3.0352 -14.098,7.4219 -19.848,12.957 -0.88281,-3.0664 -2.0117,-6.0742 -3.3672,-9.0078 -1.5195,-19.121 9.2383,-36.824 26.238,-44.578 z m -74.312,74.594 c 6.5938,5.8164 11.34,13.441 13.668,22.129 3.0625,11.43 1.5781,23.359 -4.1719,33.672 l -5.8672,7.2266 c -0.33203,-13.34 -4.8477,-26.586 -13.551,-37.59 0.60156,-6.4414 2.5938,-12.742 5.8555,-18.395 z m -21.848,39.707 c 4.8633,7.3242 7.4766,15.918 7.4766,24.91 0,12.062 -4.6953,23.402 -13.227,31.93 l -7.7695,7.7695 c 0.12109,-0.41406 0.25391,-0.82422 0.36719,-1.2422 3.7266,-13.914 2.6289,-28.348 -3.0117,-41.371 2.2461,-6.0664 5.8047,-11.637 10.414,-16.25 z m 30.566,-75.852 2.1055,-7.8555 c 7.875,3.9102 14.434,10.047 18.93,17.836 6.0312,10.445 7.6328,22.617 4.5117,34.27 l -2.8438,10.613 c -0.10547,-0.42188 -0.19141,-0.83984 -0.30469,-1.2617 -3.7266,-13.914 -11.898,-25.867 -23.293,-34.324 -1.0859,-6.3789 -0.79297,-12.977 0.89453,-19.277 z m -90.027,140.04 c 3.1211,-11.652 10.594,-21.391 21.043,-27.422 l 7.043,-4.0664 c 2.8008,8.3359 3.1016,17.309 0.77344,25.996 -3.1211,11.652 -10.594,21.391 -21.043,27.422 l -7.043,4.0664 c -2.8047,-8.3359 -3.1016,-17.312 -0.77344,-25.996 z m 66.199,50.797 c -10.449,6.0312 -22.617,7.6367 -34.27,4.5117 -8.6875,-2.3281 -16.312,-7.0742 -22.129,-13.668 l 7.043,-4.0664 c 10.449,-6.0312 22.621,-7.6328 34.27,-4.5117 8.6875,2.3281 16.312,7.0742 22.129,13.668 z m 51.375,-45.367 c -15.422,15.418 -39.309,17.336 -56.836,5.7461 l 5.7461,-5.7461 c 15.422,-15.422 39.312,-17.336 56.836,-5.7461 z m 37.887,-57.117 c -6.0312,10.445 -15.77,17.918 -27.418,21.043 -8.6875,2.3281 -17.66,2.0312 -25.996,-0.77344 l 4.0664,-7.043 c 6.0312,-10.445 15.77,-17.918 27.422,-21.043 8.6875,-2.3281 17.66,-2.0312 25.996,0.77344 z M 607.558,368.4 c -3.1211,11.652 -10.594,21.391 -21.043,27.422 -7.7891,4.4961 -16.539,6.5391 -25.312,5.9805 l 2.1055,-7.8555 c 5.6445,-21.066 25.359,-34.672 46.352,-33.395 z"
       id="path265"
       style="fill:#ffffff;fill-opacity:1" />
    <path
       d="m 287.16,480.38 c -4.3711,-16.312 -14.832,-29.945 -29.457,-38.391 l -15.645,-9.0312 c -0.082,-0.0469 -0.16406,-0.082 -0.24609,-0.125 -3.1406,-7.0352 -7.5547,-13.5 -13.039,-18.984 l -12.773,-12.773 c -0.0664,-0.0664 -0.13672,-0.12109 -0.20312,-0.18359 -1.2109,-7.6094 -3.8008,-14.996 -7.6836,-21.711 l -9.0312,-15.645 c -0.0469,-0.082 -0.10156,-0.15234 -0.14844,-0.23047 0.79688,-7.6641 0.20703,-15.469 -1.8008,-22.961 l -4.6758,-17.449 c -1.293,-4.8203 -6.2461,-7.6758 -11.062,-6.3867 -9.5391,2.5547 -18.148,7.207 -25.352,13.543 -6.2109,-21.398 -23.543,-38.688 -46.469,-43.996 -4.8594,-1.125 -9.7109,1.9023 -10.84,6.7617 l -4.0781,17.598 c -2.5,10.793 -2.1523,21.746 0.88281,32.035 -6.1992,-0.24609 -12.535,0.42188 -18.836,2.1133 -2.3125,0.62109 -4.2852,2.1367 -5.4844,4.207 -1.1992,2.0742 -1.5234,4.5391 -0.90234,6.8516 l 4.6758,17.449 c 4.2578,15.898 14.254,28.762 27.156,36.961 -3.1719,1.207 -6.2734,2.6602 -9.2695,4.3906 -4.3203,2.4922 -5.8008,8.0195 -3.3047,12.336 l 9.0312,15.645 c 7.9883,13.84 20.629,23.941 35.781,28.691 -2.7305,1.9648 -5.3477,4.1641 -7.8008,6.6211 -3.5273,3.5273 -3.5273,9.2461 0,12.773 l 12.773,12.773 c 11.645,11.641 26.727,17.777 42.008,18.422 -2.1445,2.6328 -4.1055,5.4453 -5.8359,8.4453 -1.1992,2.0742 -1.5234,4.5391 -0.90234,6.8516 0.62106,2.3125 2.1328,4.2852 4.207,5.4844 l 15.645,9.0312 c 9.7422,5.625 20.551,8.4961 31.508,8.4961 5.4922,0 11.02,-0.72266 16.465,-2.1836 13.043,-3.4961 24.367,-10.895 32.703,-21.195 14.109,9.2852 30.797,14.332 47.746,14.332 v -18.062 c -13.691,0 -27.164,-4.1602 -38.473,-11.793 5.3945,-12.848 6.3945,-27.031 2.7305,-40.711 z m -17.449,4.6797 c 2.3281,8.6875 2.0312,17.664 -0.77344,25.996 l -7.043,-4.0664 c -10.445,-6.0312 -17.918,-15.77 -21.043,-27.422 -2.3281,-8.6875 -2.0312,-17.664 0.77344,-25.996 l 7.043,4.0664 c 10.449,6.0273 17.922,15.77 21.043,27.422 z m -81.309,-103.89 4.0664,7.043 c 3.2617,5.6484 5.2539,11.953 5.8555,18.395 -8.7031,11.004 -13.219,24.25 -13.551,37.59 l -5.8672,-7.2266 c -5.7539,-10.312 -7.2383,-22.242 -4.1719,-33.672 2.3281,-8.6875 7.0742,-16.312 13.668,-22.129 z m 35.004,103.08 c 0.11328,0.41797 0.24609,0.82812 0.36719,1.2422 l -7.7695,-7.7695 c -8.5312,-8.5312 -13.227,-19.871 -13.227,-31.93 0,-8.9961 2.6133,-17.586 7.4766,-24.91 l 5.7539,5.7539 c 4.6133,4.6133 8.168,10.184 10.414,16.25 -5.6445,13.012 -6.7461,27.449 -3.0156,41.363 z m -45.828,-147.08 2.1055,7.8594 c 1.6875,6.3008 1.9844,12.898 0.89844,19.277 -11.395,8.457 -19.566,20.41 -23.293,34.324 -0.11328,0.41797 -0.19922,0.83984 -0.30469,1.2617 l -2.8438,-10.613 c -3.1211,-11.652 -1.5195,-23.824 4.5117,-34.27 4.4922,-7.793 11.051,-13.93 18.926,-17.84 z m -65.32,-22.672 1.832,-7.918 c 16.996,7.7578 27.758,25.457 26.238,44.57 -1.3555,2.9336 -2.4844,5.9414 -3.3672,9.0078 -5.75,-5.5312 -12.5,-9.9219 -19.852,-12.957 -5.7305,-9.9258 -7.4648,-21.434 -4.8516,-32.703 z m -21.918,46.055 c 20.996,-1.2734 40.707,12.328 46.352,33.395 l 2.1055,7.8594 c -8.7734,0.55078 -17.523,-1.4883 -25.312,-5.9844 -10.445,-6.0312 -17.918,-15.77 -21.043,-27.422 z m 23.91,72.828 -4.0664,-7.043 c 8.332,-2.8047 17.309,-3.1016 25.996,-0.77344 11.648,3.1211 21.391,10.594 27.422,21.043 l 4.0664,7.043 c -8.3359,2.8047 -17.312,3.1016 -25.996,0.77344 -11.652,-3.125 -21.391,-10.598 -27.422,-21.043 z m 32.141,51.371 c 17.523,-11.59 41.414,-9.6758 56.836,5.7461 l 5.7461,5.7461 c -17.527,11.59 -41.418,9.6758 -56.836,-5.7461 z m 91.387,55.621 c -11.648,3.125 -23.82,1.5195 -34.27,-4.5117 l -7.043,-4.0664 c 5.8164,-6.5938 13.441,-11.34 22.129,-13.668 11.652,-3.125 23.824,-1.5195 34.27,4.5117 l 7.043,4.0664 c -5.8164,6.5938 -13.441,11.344 -22.129,13.668 z"
       id="path267"
       style="fill:#ffffff;fill-opacity:1" />
    <path
       d="m 359.03,541.92 c 0,4.9883 -4.043,9.0312 -9.0312,9.0312 -4.9882,0 -9.0312,-4.043 -9.0312,-9.0312 0,-4.9882 4.043,-9.0312 9.0312,-9.0312 4.9882,0 9.0312,4.043 9.0312,9.0312"
       id="path269"
       style="fill:#ffffff;fill-opacity:1" />
  </g>
</svg>
