<?xml version="1.0" encoding="UTF-8" standalone="no"?>
<svg
   xmlns:dc="http://purl.org/dc/elements/1.1/"
   xmlns:cc="http://creativecommons.org/ns#"
   xmlns:rdf="http://www.w3.org/1999/02/22-rdf-syntax-ns#"
   xmlns:svg="http://www.w3.org/2000/svg"
   xmlns="http://www.w3.org/2000/svg"
   xmlns:sodipodi="http://sodipodi.sourceforge.net/DTD/sodipodi-0.dtd"
   xmlns:inkscape="http://www.inkscape.org/namespaces/inkscape"
   width="710"
   height="710"
   version="1.1"
   viewBox="0 0 532.5 532.5"
   id="svg480"
   sodipodi:docname="Pharmacist.svg"
   inkscape:version="1.0.2 (e86c870879, 2021-01-15)"
   inkscape:export-filename="/home/marek/Downloads/Pharmacist.png"
   inkscape:export-xdpi="27.042253"
   inkscape:export-ydpi="27.042253">
  <metadata
     id="metadata484">
    <rdf:RDF>
      <cc:Work
         rdf:about="">
        <dc:format>image/svg+xml</dc:format>
        <dc:type
           rdf:resource="http://purl.org/dc/dcmitype/StillImage" />
        <dc:title></dc:title>
      </cc:Work>
    </rdf:RDF>
  </metadata>
  <sodipodi:namedview
     pagecolor="#ffffff"
     bordercolor="#666666"
     borderopacity="1"
     objecttolerance="10"
     gridtolerance="10"
     guidetolerance="10"
     inkscape:pageopacity="0"
     inkscape:pageshadow="2"
     inkscape:window-width="1920"
     inkscape:window-height="990"
     id="namedview482"
     showgrid="false"
     inkscape:pagecheckerboard="true"
     units="px"
     inkscape:zoom="0.62806234"
     inkscape:cx="95.107733"
     inkscape:cy="447.77973"
     inkscape:window-x="0"
     inkscape:window-y="30"
     inkscape:window-maximized="1"
     inkscape:current-layer="svg480" />
  <defs
     id="defs404">
    <symbol
       id="s"
       overflow="visible">
      <path
         d="m 18.766,-1.125 c -0.96875,0.5 -1.9805,0.875 -3.0312,1.125 -1.043,0.25781 -2.1367,0.39062 -3.2812,0.39062 -3.3984,0 -6.0898,-0.94531 -8.0781,-2.8438 -1.9922,-1.9062 -2.9844,-4.4844 -2.9844,-7.7344 0,-3.2578 0.99219,-5.8359 2.9844,-7.7344 1.9883,-1.9062 4.6797,-2.8594 8.0781,-2.8594 1.1445,0 2.2383,0.13281 3.2812,0.39062 1.0508,0.25 2.0625,0.625 3.0312,1.125 v 4.2188 c -0.98047,-0.65625 -1.9453,-1.1406 -2.8906,-1.4531 -0.94922,-0.3125 -1.9492,-0.46875 -3,-0.46875 -1.875,0 -3.3516,0.60547 -4.4219,1.8125 -1.0742,1.1992 -1.6094,2.8555 -1.6094,4.9688 0,2.1055 0.53516,3.7617 1.6094,4.9688 1.0703,1.1992 2.5469,1.7969 4.4219,1.7969 1.0508,0 2.0508,-0.14844 3,-0.45312 0.94531,-0.3125 1.9102,-0.80078 2.8906,-1.4688 z"
         id="path347" />
    </symbol>
    <symbol
       id="d"
       overflow="visible">
      <path
         d="m 13.734,-11.141 c -0.4375,-0.19531 -0.87109,-0.34375 -1.2969,-0.4375 -0.41797,-0.10156 -0.83984,-0.15625 -1.2656,-0.15625 -1.2617,0 -2.2305,0.40625 -2.9062,1.2188 -0.67969,0.80469 -1.0156,1.9531 -1.0156,3.4531 v 7.0625 H 2.3591 v -15.312 h 4.8906 v 2.5156 c 0.625,-1 1.3438,-1.7266 2.1562,-2.1875 0.82031,-0.46875 1.8008,-0.70312 2.9375,-0.70312 0.16406,0 0.34375,0.01172 0.53125,0.03125 0.19531,0.01172 0.47656,0.03906 0.84375,0.07813 z"
         id="path350" />
    </symbol>
    <symbol
       id="a"
       overflow="visible">
      <path
         d="m 17.641,-7.7031 v 1.4062 H 6.188 c 0.125,1.1484 0.53906,2.0078 1.25,2.5781 0.70703,0.57422 1.7031,0.85938 2.9844,0.85938 1.0312,0 2.082,-0.14844 3.1562,-0.45312 1.082,-0.3125 2.1914,-0.77344 3.3281,-1.3906 v 3.7656 c -1.1562,0.4375 -2.3125,0.76562 -3.4688,0.98438 -1.1562,0.22656 -2.3125,0.34375 -3.4688,0.34375 -2.7734,0 -4.9297,-0.70312 -6.4688,-2.1094 -1.5312,-1.4062 -2.2969,-3.3789 -2.2969,-5.9219 0,-2.5 0.75391,-4.4609 2.2656,-5.8906 1.5078,-1.4375 3.582,-2.1562 6.2188,-2.1562 2.4062,0 4.332,0.73047 5.7812,2.1875 1.4453,1.4492 2.1719,3.3828 2.1719,5.7969 z m -5.0312,-1.625 c 0,-0.92578 -0.27344,-1.6719 -0.8125,-2.2344 -0.54297,-0.57031 -1.25,-0.85938 -2.125,-0.85938 -0.94922,0 -1.7188,0.26562 -2.3125,0.79688 -0.5937,0.53126 -0.96484,1.2969 -1.1094,2.2969 z"
         id="path353" />
    </symbol>
    <symbol
       id="g"
       overflow="visible">
      <path
         d="m 9.2188,-6.8906 c -1.0234,0 -1.793,0.17188 -2.3125,0.51562 -0.51172,0.34375 -0.76562,0.85547 -0.76562,1.5312 0,0.625 0.20703,1.1172 0.625,1.4688 0.41406,0.34375 0.98828,0.51562 1.7188,0.51562 0.92578,0 1.7031,-0.32812 2.3281,-0.98438 0.63281,-0.66406 0.95312,-1.4922 0.95312,-2.4844 v -0.5625 z m 7.4688,-1.8438 V 0 h -4.9219 v -2.2656 c -0.65625,0.92969 -1.3984,1.6055 -2.2188,2.0312 -0.82422,0.41406 -1.8242,0.625 -3,0.625 -1.5859,0 -2.8711,-0.45703 -3.8594,-1.375 -0.99219,-0.92578 -1.4844,-2.1289 -1.4844,-3.6094 0,-1.7891 0.61328,-3.1016 1.8438,-3.9375 1.2383,-0.84375 3.1797,-1.2656 5.8281,-1.2656 h 2.8906 v -0.39062 c 0,-0.76953 -0.30859,-1.332 -0.92188,-1.6875 -0.61719,-0.36328 -1.5703,-0.54688 -2.8594,-0.54688 -1.0547,0 -2.0312,0.10547 -2.9375,0.3125 -0.89844,0.21094 -1.7305,0.52344 -2.5,0.9375 v -3.7344 c 1.0391,-0.25 2.0859,-0.44141 3.1406,-0.57812 1.0625,-0.13281 2.125,-0.20312 3.1875,-0.20312 2.7578,0 4.75,0.54688 5.9688,1.6406 1.2266,1.0859 1.8438,2.8555 1.8438,5.3125 z"
         id="path356" />
    </symbol>
    <symbol
       id="c"
       overflow="visible">
      <path
         d="m 7.7031,-19.656 v 4.3438 H 12.75 v 3.5 H 7.7031 v 6.5 c 0,0.71094 0.14062,1.1875 0.42188,1.4375 0.28126,0.25 0.83594,0.375 1.6719,0.375 h 2.5156 v 3.5 h -4.1875 c -1.9375,0 -3.3125,-0.39844 -4.125,-1.2031 -0.80469,-0.8125 -1.2031,-2.1797 -1.2031,-4.1094 v -6.5 h -2.4219 v -3.5 h 2.4219 v -4.3438 z"
         id="path359" />
    </symbol>
    <symbol
       id="f"
       overflow="visible">
      <path
         d="m 12.766,-13.078 v -8.2031 h 4.9219 V -1e-4 H 12.766 v -2.2188 c -0.66797,0.90625 -1.4062,1.5703 -2.2188,1.9844 -0.8126,0.4141 -1.7578,0.625 -2.8281,0.625 -1.8867,0 -3.4336,-0.75 -4.6406,-2.25 -1.2109,-1.5 -1.8125,-3.4258 -1.8125,-5.7812 0,-2.3633 0.60156,-4.2969 1.8125,-5.7969 1.207,-1.5 2.7539,-2.25 4.6406,-2.25 1.0625,0 2,0.21484 2.8125,0.64062 0.82031,0.42969 1.5664,1.0859 2.2344,1.9688 z m -3.2188,9.9219 c 1.0391,0 1.8359,-0.37891 2.3906,-1.1406 0.55078,-0.76953 0.82812,-1.8828 0.82812,-3.3438 0,-1.457 -0.27734,-2.5664 -0.82812,-3.3281 -0.55469,-0.76953 -1.3516,-1.1562 -2.3906,-1.1562 -1.043,0 -1.8398,0.38672 -2.3906,1.1562 -0.55469,0.76172 -0.82812,1.8711 -0.82812,3.3281 0,1.4609 0.27344,2.5742 0.82812,3.3438 0.55078,0.76172 1.3477,1.1406 2.3906,1.1406 z"
         id="path362" />
    </symbol>
    <symbol
       id="k"
       overflow="visible">
      <path
         d="m 10.5,-3.1562 c 1.0508,0 1.8516,-0.37891 2.4062,-1.1406 0.55078,-0.76953 0.82812,-1.8828 0.82812,-3.3438 0,-1.457 -0.27734,-2.5664 -0.82812,-3.3281 -0.55469,-0.76953 -1.3555,-1.1562 -2.4062,-1.1562 -1.0547,0 -1.8594,0.38672 -2.4219,1.1562 -0.55469,0.77344 -0.82812,1.8828 -0.82812,3.3281 0,1.4492 0.27344,2.5586 0.82812,3.3281 0.5625,0.77344 1.3672,1.1562 2.4219,1.1562 z m -3.25,-9.9219 c 0.67578,-0.88281 1.4219,-1.5391 2.2344,-1.9688 0.82031,-0.42578 1.7656,-0.64062 2.8281,-0.64062 1.8945,0 3.4453,0.75 4.6562,2.25 1.207,1.5 1.8125,3.4336 1.8125,5.7969 0,2.3555 -0.60547,4.2812 -1.8125,5.7812 -1.2109,1.5 -2.7617,2.25 -4.6562,2.25 -1.0625,0 -2.0078,-0.21094 -2.8281,-0.625 C 8.6719,-0.6602 7.9258,-1.32032 7.25,-2.21882 V -2e-5 H 2.3594 v -21.281 H 7.25 Z"
         id="path365" />
    </symbol>
    <symbol
       id="e"
       overflow="visible">
      <path
         d="m 0.34375,-15.312 h 4.8906 l 4.125,10.391 3.5,-10.391 h 4.8906 l -6.4375,16.766 c -0.64844,1.6953 -1.4023,2.8828 -2.2656,3.5625 -0.86719,0.6875 -2,1.0312 -3.4062,1.0312 H 2.79685 V 2.8289 h 1.5312 c 0.83203,0 1.4375,-0.13672 1.8125,-0.40625 C 6.52336,2.16093 6.82024,1.69218 7.03117,1.01645 L 7.17179,0.59457 Z"
         id="path368" />
    </symbol>
    <symbol
       id="j"
       overflow="visible">
      <path
         d="m 10.047,-11.359 c 1.1016,0 1.8945,-0.20312 2.375,-0.60938 0.47656,-0.41406 0.71875,-1.0938 0.71875,-2.0312 0,-0.92578 -0.24219,-1.5859 -0.71875,-1.9844 -0.48047,-0.40625 -1.2734,-0.60938 -2.375,-0.60938 H 7.8282 v 5.2344 z M 7.8282,-7.7184 V 4e-4 h -5.25 v -20.406 h 8.0312 c 2.6875,0 4.6562,0.45312 5.9062,1.3594 1.2578,0.89844 1.8906,2.3203 1.8906,4.2656 0,1.3555 -0.32812,2.4648 -0.98438,3.3281 -0.64844,0.86719 -1.625,1.5 -2.9375,1.9062 0.71875,0.16797 1.3594,0.54297 1.9219,1.125 0.57031,0.57422 1.1484,1.4492 1.7344,2.625 l 2.8594,5.7969 h -5.6094 l -2.4844,-5.0781 c -0.5,-1.0195 -1.0117,-1.7109 -1.5312,-2.0781 -0.51172,-0.375 -1.1953,-0.5625 -2.0469,-0.5625 z"
         id="path371" />
    </symbol>
    <symbol
       id="i"
       overflow="visible">
      <path
         d="m 16.547,-12.766 c 0.61328,-0.94531 1.3477,-1.6719 2.2031,-2.1719 0.85156,-0.5 1.7891,-0.75 2.8125,-0.75 1.7578,0 3.0977,0.54688 4.0156,1.6406 0.92578,1.0859 1.3906,2.6562 1.3906,4.7188 V -4e-4 h -4.9219 v -7.9844 -0.35938 c 0.0078,-0.13281 0.01563,-0.32031 0.01563,-0.5625 0,-1.082 -0.16406,-1.8633 -0.48438,-2.3438 -0.3125,-0.48828 -0.82422,-0.73438 -1.5312,-0.73438 -0.92969,0 -1.6484,0.38672 -2.1562,1.1562 -0.51172,0.76172 -0.77344,1.8672 -0.78125,3.3125 v 7.5156 h -4.9219 v -7.9844 c 0,-1.6953 -0.14844,-2.7852 -0.4375,-3.2656 -0.29297,-0.48828 -0.8125,-0.73438 -1.5625,-0.73438 -0.9375,0 -1.6641,0.38672 -2.1719,1.1562 -0.51172,0.76172 -0.76562,1.8594 -0.76562,3.2969 v 7.5312 h -4.9219 v -15.312 h 4.9219 v 2.2344 c 0.60156,-0.86328 1.2891,-1.5156 2.0625,-1.9531 0.78125,-0.4375 1.6406,-0.65625 2.5781,-0.65625 1.0625,0 2,0.25781 2.8125,0.76562 0.8125,0.51172 1.4258,1.2305 1.8438,2.1562 z"
         id="path374" />
    </symbol>
    <symbol
       id="b"
       overflow="visible">
      <path
         d="m 9.6406,-12.188 c -1.0859,0 -1.9141,0.39062 -2.4844,1.1719 -0.57422,0.78125 -0.85938,1.9062 -0.85938,3.375 0,1.4688 0.28516,2.5938 0.85938,3.375 0.57031,0.77344 1.3984,1.1562 2.4844,1.1562 1.0625,0 1.875,-0.38281 2.4375,-1.1562 0.57031,-0.78125 0.85938,-1.9062 0.85938,-3.375 0,-1.4688 -0.28906,-2.5938 -0.85938,-3.375 -0.5625,-0.78125 -1.375,-1.1719 -2.4375,-1.1719 z m 0,-3.5 c 2.6328,0 4.6914,0.71484 6.1719,2.1406 1.4766,1.418 2.2188,3.3867 2.2188,5.9062 0,2.5117 -0.74219,4.4805 -2.2188,5.9062 C 14.332,-0.317 12.2734,0.39 9.6406,0.39 6.9922,0.39 4.9258,-0.31703 3.4375,-1.735 1.9453,-3.1608 1.2031,-5.1295 1.2031,-7.6412 c 0,-2.5195 0.74219,-4.4883 2.2344,-5.9062 1.4883,-1.4258 3.5547,-2.1406 6.2031,-2.1406 z"
         id="path377" />
    </symbol>
    <symbol
       id="h"
       overflow="visible">
      <path
         d="M 17.75,-9.3281 V 0 h -4.9219 v -7.1406 c 0,-1.3203 -0.03125,-2.2344 -0.09375,-2.7344 -0.0625,-0.5 -0.16797,-0.86719 -0.3125,-1.1094 -0.1875,-0.3125 -0.44922,-0.55469 -0.78125,-0.73438 -0.32422,-0.17578 -0.69531,-0.26562 -1.1094,-0.26562 -1.0234,0 -1.8242,0.39844 -2.4062,1.1875 -0.58594,0.78125 -0.875,1.8711 -0.875,3.2656 V -1e-4 H 2.3594 v -15.312 H 7.25 v 2.2344 c 0.73828,-0.88281 1.5195,-1.5391 2.3438,-1.9688 0.83203,-0.42578 1.75,-0.64062 2.75,-0.64062 1.7695,0 3.1133,0.54688 4.0312,1.6406 0.91406,1.0859 1.375,2.6562 1.375,4.7188 z"
         id="path380" />
    </symbol>
    <symbol
       id="r"
       overflow="visible">
      <path
         d="m 12.422,-21.281 v 3.2188 H 9.7189 c -0.6875,0 -1.1719,0.125 -1.4531,0.375 -0.27344,0.25 -0.40625,0.6875 -0.40625,1.3125 v 1.0625 h 4.1875 v 3.5 H 7.85955 V -2e-4 h -4.8906 v -11.812 h -2.4375 v -3.5 h 2.4375 v -1.0625 c 0,-1.6641 0.46094,-2.8984 1.3906,-3.7031 0.92578,-0.80078 2.3672,-1.2031 4.3281,-1.2031 z"
         id="path383" />
    </symbol>
    <symbol
       id="q"
       overflow="visible">
      <path
         d="M 17.75,-9.3281 V 0 h -4.9219 v -7.1094 c 0,-1.3438 -0.03125,-2.2656 -0.09375,-2.7656 -0.0625,-0.5 -0.16797,-0.86719 -0.3125,-1.1094 -0.1875,-0.3125 -0.44922,-0.55469 -0.78125,-0.73438 -0.32422,-0.17578 -0.69531,-0.26562 -1.1094,-0.26562 -1.0234,0 -1.8242,0.39844 -2.4062,1.1875 -0.58594,0.78125 -0.875,1.8711 -0.875,3.2656 V -1e-4 H 2.3594 v -21.281 H 7.25 v 8.2031 c 0.73828,-0.88281 1.5195,-1.5391 2.3438,-1.9688 0.83203,-0.42578 1.75,-0.64062 2.75,-0.64062 1.7695,0 3.1133,0.54688 4.0312,1.6406 0.91406,1.0859 1.375,2.6562 1.375,4.7188 z"
         id="path386" />
    </symbol>
    <symbol
       id="p"
       overflow="visible">
      <path
         d="m 2.5781,-20.406 h 5.875 l 7.4219,14 v -14 h 4.9844 V 0 h -5.875 L 7.5625,-14 V 0 H 2.5781 Z"
         id="path389" />
    </symbol>
    <symbol
       id="o"
       overflow="visible">
      <path
         d="m 2.1875,-5.9688 v -9.3438 h 4.9219 v 1.5312 c 0,0.83594 -0.00781,1.875 -0.015625,3.125 -0.011719,1.25 -0.015625,2.0859 -0.015625,2.5 0,1.2422 0.03125,2.1328 0.09375,2.6719 0.070313,0.54297 0.17969,0.93359 0.32812,1.1719 0.20703,0.32422 0.47266,0.57422 0.79688,0.75 0.32031,0.16797 0.69141,0.25 1.1094,0.25 1.0195,0 1.8203,-0.39062 2.4062,-1.1719 0.58203,-0.78125 0.875,-1.8672 0.875,-3.2656 v -7.5625 h 4.8906 V -6e-4 H 12.6875 V -2.2194 C 11.94531,-1.32096 11.1641,-0.6608 10.3437,-0.235 9.51948,0.17906 8.6093,0.39 7.6093,0.39 5.8476,0.39 4.5038,-0.14906 3.5781,-1.235 2.64841,-2.317 2.1875,-3.8952 2.1875,-5.9694 Z"
         id="path392" />
    </symbol>
    <symbol
       id="n"
       overflow="visible">
      <path
         d="m 2.5781,-20.406 h 8.7344 c 2.5938,0 4.582,0.57812 5.9688,1.7344 1.3945,1.1484 2.0938,2.7891 2.0938,4.9219 0,2.1367 -0.69922,3.7812 -2.0938,4.9375 -1.3867,1.1562 -3.375,1.7344 -5.9688,1.7344 H 7.8281 V 3e-4 h -5.25 z m 5.25,3.8125 v 5.7031 H 10.75 c 1.0195,0 1.8047,-0.25 2.3594,-0.75 0.5625,-0.5 0.84375,-1.2031 0.84375,-2.1094 0,-0.91406 -0.28125,-1.6172 -0.84375,-2.1094 -0.55469,-0.48828 -1.3398,-0.73438 -2.3594,-0.73438 z"
         id="path395" />
    </symbol>
    <symbol
       id="m"
       overflow="visible">
      <path
         d="M 2.3594,-15.312 H 7.25 v 15.031 c 0,2.0508 -0.49609,3.6172 -1.4844,4.7031 -0.98047,1.082 -2.4062,1.625 -4.2812,1.625 H -0.9375 V 2.8283 h 0.85938 c 0.92578,0 1.5625,-0.21094 1.9062,-0.625 0.35156,-0.41797 0.53125,-1.2461 0.53125,-2.4844 z m 0,-5.9688 H 7.25 v 4 H 2.3594 Z"
         id="path398" />
    </symbol>
    <symbol
       id="l"
       overflow="visible">
      <path
         d="m 14.719,-14.828 v 3.9844 c -0.65625,-0.45703 -1.3242,-0.79688 -2,-1.0156 -0.66797,-0.21875 -1.3594,-0.32812 -2.0781,-0.32812 -1.3672,0 -2.4336,0.40234 -3.2031,1.2031 -0.76172,0.79297 -1.1406,1.9062 -1.1406,3.3438 0,1.4297 0.37891,2.543 1.1406,3.3438 0.76953,0.79297 1.8359,1.1875 3.2031,1.1875 0.75781,0 1.4844,-0.10938 2.1719,-0.32812 0.6875,-0.22656 1.3203,-0.56641 1.9062,-1.0156 v 4 c -0.76172,0.28125 -1.5391,0.48828 -2.3281,0.625 -0.78125,0.14453 -1.5742,0.21875 -2.375,0.21875 -2.7617,0 -4.9219,-0.70703 -6.4844,-2.125 -1.5547,-1.4141 -2.3281,-3.3828 -2.3281,-5.9062 0,-2.5312 0.77344,-4.5039 2.3281,-5.9219 1.5625,-1.4141 3.7227,-2.125 6.4844,-2.125 0.80078,0 1.5938,0.07422 2.375,0.21875 0.78125,0.13672 1.5547,0.35156 2.3281,0.64062 z"
         id="path401" />
    </symbol>
  </defs>
  <path
     d="m 243.00958,373.83567 c 2.8008,-2.2383 5.6016,-3.3594 7.8398,-3.9219 -2.23829,-2.2383 -3.92189,-5.0391 -3.92189,-8.9609 0,-3.9218 0.55858,-6.1602 1.1211,-8.3984 H 247.49 c -1.1211,0 -6.7188,0 -12.32,-2.2383 -0.55859,2.8008 -1.1211,6.1602 -1.1211,10.641 0,7.8398 2.2383,12.879 5.6016,16.801 0.55859,-1.6797 2.2383,-2.8008 3.3594,-3.9219 z m 55.44101,-62.719 c 0.55859,2.2383 1.12109,5.0391 1.12109,9.5195 0,6.7188 -3.92189,10.078 -7.83979,11.762 0.55859,0.55859 1.12109,0.55859 1.6797,1.1211 2.8008,2.2383 5.6016,5.6016 6.7188,9.5195 6.16019,-3.3594 12.31999,-10.078 12.31999,-22.398 0,-5.6016 -0.55859,-10.641 -2.2383,-14 -3.36329,2.2383 -7.28519,3.918 -11.76199,4.4766 z m -78.96101,-11.758 c 1.1211,-2.2383 2.8008,-3.9219 5.0391,-5.6016 1.6797,-1.1211 3.3594,-2.2383 4.4805,-2.8008 -3.3594,-2.2383 -6.7188,-6.1602 -6.7188,-12.32 0,-5.0391 1.6797,-8.3984 4.4805,-10.641 -3.3594,0 -8.9609,-1.1211 -14.559,-2.8008 -1.6797,3.3594 -2.8008,7.8398 -2.8008,12.879 0.55859,10.082 4.4766,16.805 10.078,21.285 z m 68.879,89.039 c -1.6797,1.1211 -3.3594,1.6797 -5.0391,2.2383 1.1211,2.2383 2.2383,5.0391 2.2383,10.641 0,5.0391 -2.2383,8.3984 -5.0391,10.641 0.55859,0.55859 1.6797,0.55859 2.8008,1.1211 1.6797,1.1211 3.9219,2.8008 5.6016,5.6016 3.3594,-3.9219 6.1602,-8.9609 6.1602,-17.359 0,-6.1602 -1.1211,-11.199 -2.2383,-15.121 -1.6836,0.55859 -3.3633,1.6758 -4.4844,2.2383 z m -3.918,-225.12 v 10.078 c 0,1.1211 -1.1211,2.2383 -2.2383,2.2383 l -32.484,0.004 c -1.1211,0 -2.23829,-1.1211 -2.23829,-2.2383 v -10.078 c 0,-0.004 36.961,-0.004 36.961,-0.004 z m -59.363,-26.879 c 0,0 -0.55859,-1.1211 -1.6797,-0.55859 -11.762,6.1602 -42,6.7188 -33.602,-43.121002 0.55859,-1.6797 -0.55859,-2.8008 -2.2383,-3.3594 -22.398,-2.8008 -115.919995,-15.121 -137.199995,-17.922 -2.8008,-0.55859 -3.3594,0.55859 -2.8008,2.2383 3.9219,7.2812 15.121,24.641 25.199,25.199 11.762,0.55859 80.640995,3.359402 89.601995,3.359402 2.2383,0 1.1211,2.8008 0.55859,2.8008 -0.55859,0 -72.800995,-0.55859 -89.601995,-0.55859 -2.2383,0 -2.8008,1.1211 -1.6797,2.8008 4.4805,5.6016 15.121,17.359 22.961,16.238 10.077995,-1.6797 63.839995,-6.7188 71.679995,-7.2812 1.6797,0 1.6797,2.8008 0.55859,2.8008 -1.1211,0 -59.359,8.9609 -72.800995,10.641 -1.6797,0 -1.6797,1.1211 -0.55859,2.2383 5.0391,3.9219 16.237995,12.32 25.198995,10.078 11.199,-2.8008 45.922,-13.441 52.641,-15.121 1.6797,-0.55859 1.6797,2.2383 0.55859,2.2383 -1.1211,0.55859 -41.441,16.801 -51.52,20.719 -1.6797,0.55859 -1.6797,1.1211 -0.55859,2.2383 5.0391,2.8008 18.48,10.641 24.078,7.2812 6.1602,-3.9219 28.559,-17.922 33.602,-21.281 1.1211,-0.55859 2.8008,1.1211 1.6797,2.2383 -1.1211,1.1211 -24.078,17.922 -30.801,22.961 -1.1211,0.55859 -0.55859,1.6797 0.55859,2.2383 5.0391,1.1211 16.238,3.3594 23.52,-3.3594 7.83981,-6.7188 16.238,-14.559 19.039,-16.801 1.1211,-1.1211 3.3594,0.55859 2.2383,1.1211 -0.55859,0.55859 -17.359,17.359 -22.961,22.398 -1.1211,1.1211 -0.55859,1.6797 1.1211,2.2383 5.0391,0.55859 16.801,1.6797 22.961,-6.1602 6.16001,-7.8399 9.5195,-12.879 11.199,-14.559 1.12111,-1.1211 3.3594,-0.55859 2.8008,0.55859 -0.55859,1.1211 -8.9609,14 -12.32,19.039 -0.55859,1.1211 -0.55859,1.6797 1.1211,1.6797 5.03911,-0.55859 17.92201,-2.2383 21.281,-6.7188 4.48051,-6.1602 9.5195,-3.9219 11.19901,-1.6797 1.6797,2.2383 2.23829,-1.1211 2.23829,-1.1211 l 1.67971,-9.5195 z m -76.719,33.039 c -3.3594,-1.1211 -5.0391,1.1211 -5.0391,1.1211 0,0 -10.641,7.8398 -12.32,8.9609 -1.6797,1.1211 -1.1211,2.2383 1.1211,2.8008 5.6016,1.1211 16.238,2.8008 23.52,-3.9219 1.12111,-0.55859 1.6797,-1.6797 2.80081,-2.8008 0.55859,-0.55859 2.2383,-2.2383 -0.5586,-3.3594 -3.3633,-1.1211 -6.7227,-1.6797 -9.5234,-2.8008 m 50.398,6.1602 c -1.6797,0 -2.2383,0.55859 -2.8008,1.1211 -0.55858,0.55859 -2.23829,3.3594 -2.23829,3.9219 0,0.55859 -0.55859,1.6797 1.1211,1.6797 4.4805,-0.55859 13.441,-1.6797 16.238,-5.0391 0.55859,-0.55859 0,-1.1211 -1.1211,-1.1211 -3.3594,-0.004 -7.27731,-0.5625 -11.199,-0.5625 M 44.767295,77.597768 c -3.3594,-5.6016 -8.9609,-5.6016 -8.9609,-5.6016 l -25.199,-3.9219 c -2.8008,-0.55859 -5.6016,-1.1211 -7.2812,-1.1211 -2.8008,-0.55859 -3.9219,0.55859 -2.8008,2.8008 4.4805,7.8398 15.68,27.441 26.879,28.559 3.9219,0.55859 13.441,1.1211 25.762,2.238302 3.3594,0 4.4805,-2.800802 3.3594,-3.921902 -1.1211,-1.1211 -1.6797,-2.2383 -2.2383,-3.9219 z M 171.8873,174.47677 c -1.6797,-0.55859 -2.8008,1.1211 -2.8008,1.1211 l -6.7188,6.7188 c -1.1211,1.1211 -0.55859,1.6797 1.1211,2.2383 4.4805,0.55859 14,0.55859 19.039,-5.6016 0.55859,-0.55859 0.55859,-1.6797 -1.1211,-2.2383 -3.3594,-1.1172 -7.8398,-2.2383 -9.5195,-2.2383 m -52.641,-16.801 c -5.0391,-2.8008 -8.3984,-1.6797 -8.3984,-1.6797 0,0 -19.602005,6.7188 -21.840005,7.8398 -1.6797,0.55859 -1.6797,1.6797 0,2.8008 6.1602,3.9219 20.160005,12.879 26.320005,8.9609 2.8008,-1.6797 8.3984,-5.0391 15.121,-8.3984 0.55859,-0.55859 1.6797,-1.6797 0,-2.8008 -4.4805,-2.2422 -7.8438,-4.4805 -11.203,-6.7227 m -50.398005,-46.477 c -2.2383,-3.3594 -3.9219,-3.3594 -7.2812,-3.3594 -2.8008,0 -30.238,-1.1211 -31.922,-1.1211 -1.1211,0 -2.8008,1.1211 -1.1211,2.2383 4.4805,6.1602 16.238,20.16 25.199,19.039 4.4805,-0.55859 12.879,-1.1211 23.52,-1.6797 1.1211,0 3.3594,-1.1211 1.6797,-2.8008 -3.3555,-3.918 -6.7148,-8.3984 -10.074,-12.316 m 22.961,25.199 c -1.1211,-1.1211 -3.3594,-2.8008 -6.7188,-1.6797 -3.9219,0.55859 -25.199,5.0391 -27.441,5.6016 -2.8008,0.55859 -2.8008,1.6797 -0.55859,3.3594 5.6016,4.4805 17.922,12.32 27.441,9.5195 3.3594,-1.1211 9.5195,-3.3594 16.238005,-5.6016 1.1211,-0.55859 2.8008,-1.6797 0.55859,-3.3594 -3.359405,-2.8008 -6.722705,-5.0391 -9.519505,-7.8398 m 206.080005,17.359 1.6797,9.5195 c 0,0 0.55859,3.9219 2.2383,1.1211 1.6797,-2.2383 6.7188,-4.4805 11.19899,1.6797 3.35941,4.4805 16.23801,6.1602 21.28101,6.7188 1.1211,0 1.6797,-0.55859 1.1211,-1.6797 -3.3594,-5.0391 -11.762,-18.48 -12.32,-19.039 -0.55859,-1.1211 1.6797,-1.6797 2.8008,-0.55859 1.1211,1.6797 4.4805,6.7188 11.199,14.559 6.1602,7.2812 17.922,6.7188 22.961,6.1602 1.6797,0 2.2383,-1.1211 1.1211,-2.2383 -5.6016,-5.0391 -21.84,-21.84 -22.961,-22.398 -0.55859,-0.55859 1.1211,-2.2383 2.2383,-1.1211 2.2383,2.2383 11.199,10.078 19.039,16.801 7.2812,6.7188 18.48,4.4805 23.52,3.3594 1.6797,-0.55859 1.6797,-1.1211 0.55859,-2.2383 -6.7188,-5.0391 -29.68001,-22.398 -30.80101,-22.961 -1.12109,-0.55859 0.55859,-2.8008 1.6797,-2.2383 5.03911,2.8008 27.44101,17.359 33.602,21.281 5.03911,3.3594 19.039,-3.9219 24.078,-7.2812 1.12111,-0.55859 1.12111,-1.6797 -0.55859,-2.2383 -10.078,-3.9219 -50.961,-20.719 -51.52,-20.719 -1.12109,-0.55859 -0.55858,-2.8008 0.55859,-2.2383 6.1602,1.6797 41.441,12.32 52.64101,15.121 8.96089,2.8008 20.719,-6.1602 25.19899,-10.078 1.67971,-1.1211 1.1211,-2.2383 -0.55858,-2.2383 -13.44101,-2.2383 -71.68001,-10.641 -72.80101,-10.641 -1.12109,0 -1.12109,-2.8008 0.55859,-2.8008 7.83981,0.55859 61.602,6.1602 71.68001,7.2812 7.83979,1.1211 19.039,-10.641 22.961,-16.238 1.12109,-1.6797 0.55859,-2.8008 -1.6797,-2.8008 -16.80101,0 -89.039,0.55859 -89.602,0.55859 -0.55859,0 -1.6797,-2.8008 0.55859,-2.8008 8.39839,-0.55859 77.28099,-2.8008 89.60199,-3.3594 10.078,-0.558592 21.281,-17.922002 25.199,-25.199002 1.1211,-1.6797 0,-2.8008 -2.8008,-2.2383 -21.28099,2.8008 -114.8,15.121 -137.2,17.922 -1.6797,0 -2.2383,1.6797 -2.2383,3.3594 8.3984,49.840002 -21.83999,48.719002 -33.602,43.121002 -1.12109,-0.55859 -1.6797,0.55859 -1.6797,0.55859 z m 86.80099,15.68 c -3.35939,1.1211 -6.7188,1.6797 -9.5195,2.8008 -3.35939,1.1211 -1.12109,2.8008 -0.55859,3.3594 1.12111,1.1211 1.67971,1.6797 2.8008,2.8008 7.2812,6.7188 17.922,5.0391 23.52,3.9219 2.2383,-0.55859 2.8008,-1.6797 1.12111,-2.8008 -1.68361,-1.1211 -12.32401,-8.9609 -12.32401,-8.9609 0,0 -1.6797,-2.2422 -5.0391,-1.1211 m -50.398,6.1602 c -3.9219,0.55859 -7.2812,0.55859 -11.199,0.55859 -1.1211,0 -1.6797,0.55859 -1.1211,1.1211 2.8008,3.3594 11.762,4.4805 16.238,5.0391 1.6797,0 1.1211,-1.1211 1.1211,-1.6797 0,-0.55859 -2.2383,-3.3594 -2.2383,-3.9219 -1.1211,-0.55859 -1.6836,-1.1172 -2.8008,-1.1172 m 143.92,-83.441002 c -0.55859,1.1211 -1.6797,2.2383 -2.2383,3.9219 -1.12109,1.6797 0,3.921902 3.35941,3.921902 12.32,-0.558592 21.28099,-1.679702 25.76199,-2.238302 11.199,-1.1211 22.398,-20.719 26.879,-28.559 1.1211,-2.2383 0,-3.3594 -2.80079,-2.8008 -1.67971,0.55859 -4.48051,0.55859 -7.28121,1.1211 l -25.19899,3.9141 c 0,0 -5.6016,0.55859 -8.96091,5.6016 z m -117.04,82.320002 c -1.6797,0.55859 -6.1602,1.6797 -9.5195,1.6797 -1.1211,0.5625 -1.1211,1.6797 -0.5625,2.2422 5.0391,6.1602 14.559,6.1602 19.039,5.6016 1.6797,0 1.6797,-1.1211 1.1211,-2.2383 l -6.7188,-6.7188 c 0,-0.004 -1.6797,-1.125 -3.3594,-0.56641 m 52.641,-16.801 c -3.3594,2.2383 -6.7188,4.4805 -10.07799,6.7188 -1.67971,1.1211 -1.12111,2.2383 0,2.8008 6.16019,3.3594 12.31999,6.7188 15.12099,8.3984 6.1602,3.3594 20.16,-5.0391 26.32001,-8.9609 1.6797,-1.1211 1.12109,-2.2383 -0.55859,-2.8008 -1.6797,-0.55859 -21.84,-7.8398 -21.84,-7.8398 -0.008,0.004 -4.4844,-1.1133 -8.9648,1.6836 m 50.398,-46.477 c -3.3594,3.9219 -6.7188,8.3984 -10.078,12.32 -1.1211,1.6797 0.55859,2.8008 1.6797,2.8008 10.641,0.55859 19.039,1.6797 23.52,1.6797 8.9609,1.1211 20.719,-12.879 25.199,-19.039 1.1211,-1.6797 0,-2.8008 -1.1211,-2.2383 -1.1211,0 -28.559,0.55859 -31.922,1.1211 -3.3555,-0.008 -5.0352,-0.008 -7.2773,3.3555 m -22.961,25.199 c -2.8008,2.8008 -6.1602,5.0391 -9.5195,7.2812 -2.2383,1.6797 -0.55859,3.3594 0.55859,3.3594 6.7188,2.2383 12.879,4.4805 16.238,5.6016 9.5195,2.8008 21.84,-5.0391 27.441,-9.5195 2.2383,-1.6797 1.6797,-3.3594 -0.55859,-3.3594 -2.8008,-0.55859 -23.52,-4.4805 -27.441,-5.6016 -3.3594,-0.5625 -5.5977,1.6758 -6.7188,2.2383 m -143.36,-7.8398 c 0,-17.359 -14,-31.359002 -31.359,-31.359002 -17.359,0 -31.359,14.000002 -31.359,31.359002 0,7.8398 2.8008,15.68 7.8398,21.281 v 8.3984 c 0,1.1211 1.1211,2.2383 2.2383,2.2383 h 42.559 c 1.1211,0 2.2383,-1.1211 2.2383,-2.2383 l 0.004,-8.4023 c 5.0391,-5.5977 7.8398,-13.438 7.8398,-21.277 z m -21.28101,202.72 0.55859,-20.719 h -21.836 l 0.55859,20.719 h 20.719 z m -2.79689,80.082 0.55859,-20.719 H 258.1327 l 0.55859,21.281 c 1.6797,-0.5625 15.121,-0.5625 15.121,-0.5625 z m -16.24201,-40.32 h 17.35901 l 0.55858,-20.719 h -19.03899 z m -2.80079,-80.082 h 22.961 l 1.1211,-25.199 h -25.199 z m 25.20299,-45.918 2.2383,-66.641 h -31.359 l 2.2383,66.641 z m 42.55901,-52.641 c -2.8008,-3.9219 -8.3984,-7.2812 -15.121,-8.3984 -10.64101,-2.2383 -20.719,1.1211 -22.398,7.2812 -1.12111,6.7188 6.16019,11.199 17.35899,13.441 5.03911,1.1211 10.078,3.3594 14,2.2383 6.7188,2.8008 13.441,8.3984 13.441,19.039 0,12.32 -9.51949,17.922 -19.03899,20.16 6.16019,2.8008 10.07799,6.7188 12.879,11.762 10.64099,-4.4805 21.83999,-13.441 21.83999,-31.922 0,-20.723 -13.44099,-29.684 -22.961,-33.602 z m -24.64101,-1.1211 c -2.8008,0 -5.60159,-1.1211 -5.60159,-2.8008 0,-1.6797 2.23829,-2.8008 5.60159,-2.8008 3.35941,0 5.60161,1.1211 5.60161,2.8008 0,1.6797 -2.8008,2.8008 -5.60161,2.8008 z m 0,57.121 h -52.641 -0.55858 -2.8008 c 0,0 -39.199,2.8008 -39.199,-21.84 0,-11.199 6.71879,-16.801 13.44099,-19.602 3.9219,1.1211 8.9609,-1.1211 14.55901,-2.2383 10.641,-2.2383 18.48,-6.7188 17.35899,-13.441 -1.1211,-6.7188 -11.199,-9.5195 -22.398,-7.2812 -6.7188,1.6797 -12.32,4.4805 -15.121,8.3984 -10.07799,3.9219 -23.51999,12.879 -23.51999,33.602 0,21.84 15.68,30.801 28,34.16 h 0.55858 c 0.55859,0 1.67971,0.55859 2.2383,0.55859 h 0.55859 c 6.7188,1.6797 11.199,1.6797 11.199,1.6797 h 11.199 l 36.96501,0.004 h 12.31999 c 2.2383,0 18.48,0.55859 18.48,15.68 0,16.238 -19.039,15.68 -19.039,15.68 h -20.71899 -33.043 -0.55859 -1.1211 -0.55859 -1.1211 -0.55859 c -0.55859,0 -0.55859,0 -1.1211,0.55859 h -0.55859 c -1.1211,0.55859 -2.2383,1.1211 -3.9219,2.2383 0,0 -0.55859,0 -0.55859,0.55859 -0.55859,0.55859 -1.1211,1.1211 -1.6797,1.1211 l -2.7969,2.7969 c -2.2383,3.9219 -4.4805,9.5195 -4.4805,18.48 0,15.68 8.9609,21.84 16.801,24.641 0.55859,0 1.1211,0.55859 2.2383,0.55859 h 0.55859 c 0.55858,0 1.1211,0 1.6797,0.55859 l 0.55859,0.008 h 1.1211 0.55859 1.6797 1.1211 1.1211 33.039 c 0,0 5.0391,-0.55859 5.0391,13.441 0,12.879 -14.559,13.441 -16.238,13.441 h -1.6797 l 2.23829,-0.004 h -10.64099 -0.55859 -1.1211 -1.12111 -0.55858 c -0.55859,0 -0.55859,0 -1.1211,0.55859 h -0.55859 c -0.55859,0 -1.1211,0.55859 -1.67971,0.55859 h -0.55858 c -1.1211,0.55859 -2.8008,1.6797 -3.9219,2.8008 l -0.55859,0.55859 c -0.55859,0.55859 -1.1211,1.1211 -1.6797,1.6797 -2.8008,3.9219 -5.03911,10.078 -5.03911,19.602 0,26.879 22.961,24.641 28,24.641 h 1.12111 3.92189 2.8008 c 0,0 6.1602,1.6797 6.1602,10.078 -0.56641,8.4062 -7.2852,10.086 -7.2852,10.086 l 0.55859,-15.121 h -12.879 l 0.55859,14.559 c 0,0 -7.2812,-1.6797 -7.8398,-10.078 0,-2.2383 0.55859,-4.4805 1.1211,-5.6016 -2.8008,-0.55859 -5.6016,-1.6797 -8.3984,-3.3594 -0.55859,2.2383 -1.1211,5.0391 -1.1211,8.9609 0,12.32 11.762,17.922 16.238,17.922 l 0.55859,13.438 c 0,1.1211 1.1211,2.8008 5.0391,2.8008 4.4805,0 5.0391,-1.6797 5.0391,-2.8008 l 0.55859,-13.441 c 5.0391,-0.55859 16.801,-5.6016 16.801,-17.922 0,-19.602 -16.801,-20.16 -18.48,-20.16 h -7.8398 c 0,0 -15.68,0.55859 -15.68,-13.441 0,-13.99959 6.1602,-13.441 6.1602,-13.441 l 8.4023,0.008 h 8.4023 0.55859 0.55859 c 0.55859,0 2.2383,0 3.3594,-0.55859 h 0.55859 c 0.55859,0 1.1211,0 1.6797,-0.55859 h 0.55859 c 0.55859,0 1.1211,-0.55859 1.6797,-0.55859 0.5586,0 0.55859,0 1.1211,-0.55859 0.55859,0 1.1211,-0.55859 1.6797,-0.55859 0.55859,0 0.55859,0 1.1211,-0.55859 0.55859,0 1.1211,-0.55859 1.6797,-1.1211 0.55859,0 0.55859,-0.55859 1.1211,-0.55859 0.55859,-0.55859 1.1211,-1.1211 2.2383,-1.1211 0,0 0.55859,0 0.55859,-0.55859 5.0391,-3.9219 8.9609,-10.078 8.9609,-20.719 0,-8.9609 -1.6797,-14.559 -4.4805,-18.48 0,0 0,-0.55859 -0.55859,-0.55859 -0.55859,-0.55859 -1.1211,-1.6797 -1.6797,-2.2383 v -0.55859 c -0.55859,-0.55859 -1.6797,-1.1211 -2.2383,-1.6797 -0.5586,-0.5586 -1.1211,-0.55859 -1.6797,-1.1211 h -0.55859 c -1.1211,-0.55859 -2.8008,-1.1211 -3.3594,-1.1211 h -0.55859 -1.1211 -0.55859 -22.961 l -7.2812,-0.0156 h -1.6797 c 0,0 -16.801,0.55859 -16.801,-13.441 0,-13.99959 5.0391,-13.441 5.0391,-13.441 h 6.7188 42.559 1.6797 1.6797 2.2383 c 4.4805,-0.55859 10.078,-1.6797 15.68,-4.4805 7.83981,-3.9219 14.55901,-11.199 14.55901,-24.641 1.6875,-27.996 -23.51201,-27.434 -23.51201,-27.434 z m -62.71899,-62.723 c 2.80079,0 5.6016,1.1211 5.6016,2.8008 0,1.6797 -2.2383,2.8008 -5.6016,2.8008 -2.8008,0 -5.60161,-1.1211 -5.60161,-2.8008 0,-1.6797 2.8008,-2.8008 5.60161,-2.8008 z"
     fill="#221f20"
     id="path406"
     style="fill:#ffffff;fill-opacity:1" />
</svg>
