<?xml version="1.0" encoding="UTF-8" standalone="no"?>
<svg
   xmlns:dc="http://purl.org/dc/elements/1.1/"
   xmlns:cc="http://creativecommons.org/ns#"
   xmlns:rdf="http://www.w3.org/1999/02/22-rdf-syntax-ns#"
   xmlns:svg="http://www.w3.org/2000/svg"
   xmlns="http://www.w3.org/2000/svg"
   xmlns:sodipodi="http://sodipodi.sourceforge.net/DTD/sodipodi-0.dtd"
   xmlns:inkscape="http://www.inkscape.org/namespaces/inkscape"
   width="531"
   height="531"
   version="1.1"
   viewBox="0 0 398.25001 398.25001"
   id="svg707"
   sodipodi:docname="Puppet theater.svg"
   inkscape:export-filename="/home/marek/Downloads/Puppet theater.png"
   inkscape:export-xdpi="36.158192"
   inkscape:export-ydpi="36.158192"
   inkscape:version="1.0.2 (e86c870879, 2021-01-15)">
  <metadata
     id="metadata711">
    <rdf:RDF>
      <cc:Work
         rdf:about="">
        <dc:format>image/svg+xml</dc:format>
        <dc:type
           rdf:resource="http://purl.org/dc/dcmitype/StillImage" />
        <dc:title></dc:title>
      </cc:Work>
    </rdf:RDF>
  </metadata>
  <sodipodi:namedview
     pagecolor="#ffffff"
     bordercolor="#666666"
     borderopacity="1"
     objecttolerance="10"
     gridtolerance="10"
     guidetolerance="10"
     inkscape:pageopacity="0"
     inkscape:pageshadow="2"
     inkscape:window-width="1920"
     inkscape:window-height="990"
     id="namedview709"
     showgrid="false"
     units="px"
     inkscape:pagecheckerboard="true"
     inkscape:zoom="0.88821429"
     inkscape:cx="466.66667"
     inkscape:cy="466.66667"
     inkscape:window-x="0"
     inkscape:window-y="30"
     inkscape:window-maximized="1"
     inkscape:current-layer="svg707" />
  <defs
     id="defs575">
    <symbol
       id="w"
       overflow="visible">
      <path
         d="M 3.3125,-0.20312 C 3.13281,-0.10937 2.95312,-0.03906 2.76562,0 2.58593,0.039062 2.39843,0.0625 2.20312,0.0625 c -0.60547,0 -1.0859,-0.16406 -1.4375,-0.5 C 0.42187,-0.76953 0.25,-1.22266 0.25,-1.7969 c 0,-0.57031 0.17188,-1.0234 0.51562,-1.3594 0.35156,-0.34375 0.83203,-0.51562 1.4375,-0.51562 0.19531,0 0.38281,0.027344 0.5625,0.078125 0.1875,0.042969 0.36719,0.10938 0.54688,0.20312 v 0.73438 c -0.17969,-0.11328 -0.35156,-0.19531 -0.51562,-0.25 C 2.62891,-2.957076 2.45313,-2.98442 2.26563,-2.98442 c -0.32422,0 -0.58594,0.10547 -0.78125,0.3125 -0.1875,0.21094 -0.28125,0.5 -0.28125,0.875 0,0.375 0.09375,0.66797 0.28125,0.875 0.19531,0.21094 0.45703,0.3125 0.78125,0.3125 0.1875,0 0.36328,-0.023437 0.53125,-0.078125 0.16406,-0.050781 0.33594,-0.13281 0.51562,-0.25 z"
         id="path506" />
    </symbol>
    <symbol
       id="d"
       overflow="visible">
      <path
         d="M 2.4219,-1.9688 C 2.347681,-2.00005 2.26956,-2.019581 2.18752,-2.0313 2.113301,-2.050831 2.03908,-2.06255 1.96877,-2.06255 c -0.21875,0 -0.39062,0.074219 -0.51562,0.21875 -0.11719,0.13672 -0.17188,0.33594 -0.17188,0.59375 v 1.25 H 0.42189 v -2.7031 h 0.85938 v 0.45312 c 0.10156,-0.17578 0.22656,-0.30469 0.375,-0.39062 0.14453,-0.082031 0.31641,-0.125 0.51562,-0.125 h 0.09375 c 0.039063,0 0.09375,0.00781 0.15625,0.015625 z"
         id="path509" />
    </symbol>
    <symbol
       id="a"
       overflow="visible">
      <path
         d="m 3.1094,-1.3594 v 0.25 H 1.0938 c 0.019531,0.19922 0.09375,0.35156 0.21875,0.45312 0.125,0.10547 0.30078,0.15625 0.53125,0.15625 0.17578,0 0.35938,-0.023438 0.54688,-0.078125 0.19531,-0.0625 0.39453,-0.14453 0.59375,-0.25 v 0.67188 c -0.21094,0.074219 -0.41797,0.125 -0.625,0.15625 -0.19922,0.039062 -0.40234,0.0625 -0.60938,0.0625 -0.48047,0 -0.85547,-0.11719 -1.125,-0.35938 -0.27344,-0.25 -0.40625,-0.59766 -0.40625,-1.0469 0,-0.44531 0.12891,-0.79688 0.39062,-1.0469 0.26953,-0.25 0.63281,-0.375 1.0938,-0.375 0.42578,0 0.76562,0.13281 1.0156,0.39062 0.25781,0.25 0.39062,0.58984 0.39062,1.0156 z M 2.21878,-1.64065 c 0,-0.16406 -0.046875,-0.29688 -0.14062,-0.39062 -0.09375,-0.10156 -0.21875,-0.15625 -0.375,-0.15625 -0.16797,0 -0.30469,0.046875 -0.40625,0.14062 -0.10547,0.09375 -0.16797,0.23047 -0.1875,0.40625 z"
         id="path512" />
    </symbol>
    <symbol
       id="f"
       overflow="visible">
      <path
         d="m 1.625,-1.2188 c -0.17969,0 -0.3125,0.03125 -0.40625,0.09375 -0.09375,0.0625 -0.14062,0.15234 -0.14062,0.26562 0,0.11719 0.035156,0.20312 0.10938,0.26562 0.070312,0.0625 0.17578,0.09375 0.3125,0.09375 0.15625,0 0.28906,-0.054688 0.40625,-0.17188 0.11328,-0.125 0.17188,-0.26953 0.17188,-0.4375 V -1.21882 Z M 2.9375,-1.54692 V -2e-5 H 2.07812 V -0.40627 C 1.96093,-0.2383 1.83203,-0.11721 1.6875,-0.04689 1.53906,0.023422 1.36328,0.06249 1.15625,0.06249 c -0.28125,0 -0.51172,-0.078125 -0.6875,-0.23438 -0.16797,-0.16406 -0.25,-0.37891 -0.25,-0.64062 0,-0.3125 0.10156,-0.53906 0.3125,-0.6875 0.21875,-0.15625 0.5625,-0.23438 1.0312,-0.23438 h 0.51562 v -0.0625 c 0,-0.13281 -0.058594,-0.23438 -0.17188,-0.29688 -0.10547,-0.0625 -0.27344,-0.09375 -0.5,-0.09375 -0.1875,0 -0.35938,0.023438 -0.51562,0.0625 -0.15625,0.03125 -0.30469,0.085938 -0.4375,0.15625 v -0.65625 c 0.17578,-0.050781 0.35938,-0.085938 0.54688,-0.10938 0.1875,-0.019531 0.375,-0.03125 0.5625,-0.03125 0.48828,0 0.83594,0.10156 1.0469,0.29688 0.21875,0.1875 0.32812,0.49609 0.32812,0.92188 z"
         id="path515" />
    </symbol>
    <symbol
       id="b"
       overflow="visible">
      <path
         d="m 1.3594,-3.4688 v 0.76562 h 0.89062 v 0.625 H 1.3594 v 1.1406 c 0,0.125 0.019531,0.21094 0.0625,0.25 0.050781,0.042969 0.15625,0.0625 0.3125,0.0625 H 2.1719 V -8e-5 H 1.43752 C 1.09377,-8e-5 0.84768,-0.066486 0.70314,-0.2032 0.56642,-0.34773 0.50002,-0.59382 0.50002,-0.93758 v -1.1406 h -0.4375 v -0.625 h 0.4375 V -3.4688 Z"
         id="path518" />
    </symbol>
    <symbol
       id="l"
       overflow="visible">
      <path
         d="M 2.25,-2.3125 V -3.75 H 3.125 V 0 H 2.25 v -0.39062 c -0.11719,0.15625 -0.24609,0.27344 -0.39062,0.34375 -0.14844,0.070312 -0.3125,0.10938 -0.5,0.10938 -0.33594,0 -0.60938,-0.12891 -0.82812,-0.39062 -0.21094,-0.25781 -0.3125,-0.59766 -0.3125,-1.0156 0,-0.41406 0.10156,-0.75391 0.3125,-1.0156 0.21875,-0.26953 0.49219,-0.40625 0.82812,-0.40625 0.1875,0 0.35156,0.039063 0.5,0.10938 0.14453,0.074219 0.27344,0.1875 0.39062,0.34375 z m -0.5625,1.75 C 1.86328,-0.5625 2,-0.628906 2.09375,-0.76562 2.19531,-0.89843 2.25,-1.09374 2.25,-1.34374 2.25,-1.60155 2.195312,-1.80077 2.09375,-1.93749 2,-2.0703 1.86328,-2.14061 1.6875,-2.14061 c -0.1875,0 -0.33594,0.070313 -0.4375,0.20312 -0.09375,0.13672 -0.14062,0.33594 -0.14062,0.59375 0,0.25 0.046875,0.44531 0.14062,0.57812 0.10156,0.13672 0.25,0.20312 0.4375,0.20312 z"
         id="path521" />
    </symbol>
    <symbol
       id="k"
       overflow="visible">
      <path
         d="m 1.8594,-0.5625 c 0.17578,0 0.3125,-0.066406 0.40625,-0.20312 0.10156,-0.13281 0.15625,-0.32812 0.15625,-0.57812 0,-0.25781 -0.054687,-0.45703 -0.15625,-0.59375 C 2.1719,-2.0703 2.03518,-2.14061 1.8594,-2.14061 c -0.1875,0 -0.33594,0.070313 -0.4375,0.20312 -0.09375,0.13672 -0.14062,0.33594 -0.14062,0.59375 0,0.25 0.046875,0.44531 0.14062,0.57812 0.10156,0.13672 0.25,0.20312 0.4375,0.20312 z m -0.57812,-1.75 c 0.11328,-0.15625 0.24219,-0.26953 0.39062,-0.34375 0.14453,-0.070312 0.3125,-0.10938 0.5,-0.10938 0.33203,0 0.60156,0.13672 0.8125,0.40625 0.21875,0.26172 0.32812,0.60156 0.32812,1.0156 0,0.41797 -0.10938,0.75781 -0.32812,1.0156 -0.21094,0.26172 -0.48047,0.39062 -0.8125,0.39062 -0.1875,0 -0.35547,-0.039062 -0.5,-0.10938 C 1.52346,-0.117253 1.39456,-0.23444 1.28128,-0.39069 V -7e-5 H 0.4219 v -3.75 h 0.85938 z"
         id="path524" />
    </symbol>
    <symbol
       id="j"
       overflow="visible">
      <path
         d="M 0.0625,-2.7031 H 0.92188 L 1.65626,-0.875 2.26564,-2.7031 H 3.12502 L 2.00002,0.25 C 1.88283,0.55078 1.75002,0.75781 1.59377,0.875 1.43752,1 1.2383,1.0625 1.00002,1.0625 h -0.5 V 0.5 h 0.26562 c 0.14453,0 0.25,-0.027344 0.3125,-0.078125 0.070313,-0.042969 0.125,-0.125 0.15625,-0.25 l 0.03125,-0.0625 z"
         id="path527" />
    </symbol>
    <symbol
       id="c"
       overflow="visible">
      <path
         d="m 0.45312,-3.5938 h 1.5469 c 0.45703,0 0.80469,0.10547 1.0469,0.3125 0.25,0.19922 0.375,0.48438 0.375,0.85938 0,0.375 -0.125,0.66797 -0.375,0.875 -0.24219,0.19922 -0.58984,0.29688 -1.0469,0.29688 h -0.625 v 1.25 H 0.45314 Z M 1.375,-2.92192 v 1 h 0.51562 c 0.1875,0 0.32812,-0.039063 0.42188,-0.125 0.09375,-0.09375 0.14062,-0.21875 0.14062,-0.375 0,-0.16406 -0.046875,-0.28906 -0.14062,-0.375 -0.09375,-0.082031 -0.23438,-0.125 -0.42188,-0.125 z"
         id="path530" />
    </symbol>
    <symbol
       id="i"
       overflow="visible">
      <path
         d="M 3.125,-1.6406 V 0 H 2.26562 v -1.25 c 0,-0.23828 -0.00781,-0.39844 -0.015625,-0.48438 -0.011719,-0.09375 -0.03125,-0.16016 -0.0625,-0.20312 -0.03125,-0.050781 -0.078125,-0.09375 -0.14062,-0.125 -0.054687,-0.03125 -0.11719,-0.046875 -0.1875,-0.046875 -0.17969,0 -0.32031,0.070313 -0.42188,0.20312 -0.10547,0.13672 -0.15625,0.32812 -0.15625,0.57812 v 1.3281 h -0.85938 v -3.75 h 0.85938 v 1.4375 c 0.125,-0.15625 0.25781,-0.26953 0.40625,-0.34375 0.14453,-0.070312 0.30469,-0.10938 0.48438,-0.10938 0.3125,0 0.54688,0.10156 0.70312,0.29688 0.16406,0.1875 0.25,0.46484 0.25,0.82812 z"
         id="path533" />
    </symbol>
    <symbol
       id="h"
       overflow="visible">
      <path
         d="M 0.42188,-2.7031 H 1.28126 V 0 H 0.42188 Z m 0,-1.0469 h 0.85938 v 0.70312 H 0.42188 Z"
         id="path536" />
    </symbol>
    <symbol
       id="v"
       overflow="visible">
      <path
         d="M 0.42188,-3.75 H 1.28126 V 0 H 0.42188 Z"
         id="path539" />
    </symbol>
    <symbol
       id="g"
       overflow="visible">
      <path
         d="m 1.2812,-0.39062 v 1.4219 H 0.42182 v -3.7344 H 1.2812 v 0.39062 c 0.11328,-0.15625 0.24219,-0.26953 0.39062,-0.34375 0.14453,-0.070312 0.3125,-0.10938 0.5,-0.10938 0.33203,0 0.60156,0.13672 0.8125,0.40625 0.21875,0.26172 0.32812,0.60156 0.32812,1.0156 0,0.41797 -0.10938,0.75781 -0.32812,1.0156 -0.21094,0.26172 -0.48047,0.39062 -0.8125,0.39062 -0.1875,0 -0.35547,-0.039062 -0.5,-0.10938 C 1.52338,-0.117253 1.39448,-0.23444 1.2812,-0.39069 Z m 0.57812,-1.75 c -0.1875,0 -0.33594,0.070313 -0.4375,0.20312 -0.09375,0.13672 -0.14062,0.33594 -0.14062,0.59375 0,0.25 0.046875,0.44531 0.14062,0.57812 0.10156,0.13672 0.25,0.20312 0.4375,0.20312 0.17578,0 0.3125,-0.066406 0.40625,-0.20312 0.10156,-0.13281 0.15625,-0.32812 0.15625,-0.57812 0,-0.25781 -0.054687,-0.45703 -0.15625,-0.59375 C 2.17182,-2.07031 2.0351,-2.14062 1.85932,-2.14062 Z"
         id="path542" />
    </symbol>
    <symbol
       id="u"
       overflow="visible">
      <path
         d="m 0.28125,-2.7031 h 2.3594 v 0.60938 l -1.4219,1.4688 h 1.4219 V 8e-5 H 0.21875 V -0.6093 l 1.4219,-1.4688 h -1.3594 z"
         id="path545" />
    </symbol>
    <symbol
       id="t"
       overflow="visible">
      <path
         d="m 0.42188,-3.75 h 0.85938 v 2.0469 l 0.98438,-1 h 1.0156 l -1.3281,1.2344 1.4219,1.4688 h -1.0469 l -1.0469,-1.125 V 1e-4 H 0.42186 Z"
         id="path548" />
    </symbol>
    <symbol
       id="s"
       overflow="visible">
      <path
         d="m 2.1875,-3.75 v 0.5625 H 1.71875 c -0.125,0 -0.21484,0.027344 -0.26562,0.078125 -0.042969,0.042969 -0.0625,0.11719 -0.0625,0.21875 v 0.1875 h 0.73438 v 0.625 H 1.39063 v 2.0781 h -0.875 v -2.0781 H 0.09375 v -0.625 h 0.42188 v -0.1875 c 0,-0.28906 0.082031,-0.50391 0.25,-0.64062 0.16406,-0.14453 0.42188,-0.21875 0.76562,-0.21875 z"
         id="path551" />
    </symbol>
    <symbol
       id="e"
       overflow="visible">
      <path
         d="m 1.7031,-2.1406 c -0.19922,0 -0.35156,0.070313 -0.45312,0.20312 -0.09375,0.13672 -0.14062,0.33594 -0.14062,0.59375 0,0.26172 0.046875,0.46094 0.14062,0.59375 0.10156,0.13672 0.25391,0.20312 0.45312,0.20312 0.1875,0 0.32812,-0.066406 0.42188,-0.20312 0.10156,-0.13281 0.15625,-0.33203 0.15625,-0.59375 0,-0.25781 -0.054688,-0.45703 -0.15625,-0.59375 C 2.03123,-2.07029 1.8906,-2.1406 1.7031,-2.1406 Z m 0,-0.625 c 0.45703,0 0.81641,0.125 1.0781,0.375 0.26953,0.25 0.40625,0.60156 0.40625,1.0469 0,0.4375 -0.13672,0.78125 -0.40625,1.0312 -0.26172,0.25 -0.62109,0.375 -1.0781,0.375 -0.46875,0 -0.83594,-0.125 -1.0938,-0.375 -0.26172,-0.25 -0.39062,-0.59375 -0.39062,-1.0312 0,-0.44531 0.12891,-0.79688 0.39062,-1.0469 0.25781,-0.25 0.625,-0.375 1.0938,-0.375 z"
         id="path554" />
    </symbol>
    <symbol
       id="r"
       overflow="visible">
      <path
         d="m 2.9219,-2.25 c 0.10156,-0.16406 0.22656,-0.28906 0.375,-0.375 0.15625,-0.09375 0.32031,-0.14062 0.5,-0.14062 0.3125,0 0.54688,0.10156 0.70312,0.29688 0.16406,0.1875 0.25,0.46484 0.25,0.82812 V -2e-5 H 3.89064 v -1.4062 -0.0625 -0.09375 c 0,-0.19531 -0.03125,-0.33594 -0.09375,-0.42188 -0.054687,-0.082031 -0.14062,-0.125 -0.26562,-0.125 -0.16797,0 -0.29688,0.070313 -0.39062,0.20312 -0.085937,0.13672 -0.125,0.32812 -0.125,0.57812 V -1e-5 h -0.875 v -1.4062 c 0,-0.30078 -0.027344,-0.49219 -0.078125,-0.57812 -0.042969,-0.082031 -0.13281,-0.125 -0.26562,-0.125 -0.16797,0 -0.29688,0.070313 -0.39062,0.20312 -0.085938,0.13672 -0.125,0.32812 -0.125,0.57812 V 1e-5 h -0.875 v -2.7031 h 0.875 v 0.39062 c 0.10156,-0.14453 0.22266,-0.25391 0.35938,-0.32812 0.13281,-0.082031 0.28516,-0.125 0.45312,-0.125 0.1875,0 0.35156,0.046875 0.5,0.14062 0.14453,0.085938 0.25391,0.21094 0.32812,0.375 z"
         id="path557" />
    </symbol>
    <symbol
       id="q"
       overflow="visible">
      <path
         d="m 0.45312,-3.5938 h 1.0312 l 1.3125,2.4688 v -2.4688 h 0.875 V 0 H 2.64062 L 1.32812,-2.4688 V 0 h -0.875 z"
         id="path560" />
    </symbol>
    <symbol
       id="p"
       overflow="visible">
      <path
         d="M 0.39062,-1.0469 V -2.7031 H 1.25 v 0.26562 0.5625 0.4375 c 0,0.21875 0.00391,0.375 0.015625,0.46875 0.00781,0.09375 0.03125,0.16406 0.0625,0.20312 0.03125,0.0625 0.070313,0.10938 0.125,0.14062 0.0625,0.03125 0.12891,0.046875 0.20312,0.046875 0.17578,0 0.31641,-0.066406 0.42188,-0.20312 0.10156,-0.14453 0.15625,-0.33594 0.15625,-0.57812 v -1.3438 h 0.85938 v 2.7031 h -0.85938 v -0.39062 c -0.125,0.15625 -0.26172,0.27344 -0.40625,0.34375 -0.14844,0.070312 -0.30859,0.10938 -0.48438,0.10938 -0.3125,0 -0.55469,-0.09375 -0.71875,-0.28125 -0.15625,-0.1875 -0.23438,-0.46094 -0.23438,-0.82812 z"
         id="path563" />
    </symbol>
    <symbol
       id="o"
       overflow="visible">
      <path
         d="M 3.125,-1.6406 V 0 H 2.26562 v -1.2656 c 0,-0.22656 -0.00781,-0.38281 -0.015625,-0.46875 -0.011719,-0.09375 -0.03125,-0.16016 -0.0625,-0.20312 -0.03125,-0.050781 -0.078125,-0.09375 -0.14062,-0.125 -0.054687,-0.03125 -0.11719,-0.046875 -0.1875,-0.046875 -0.17969,0 -0.32031,0.070313 -0.42188,0.20312 -0.10547,0.13672 -0.15625,0.32812 -0.15625,0.57812 V -5e-6 h -0.85938 v -2.7031 h 0.85938 v 0.39062 c 0.125,-0.15625 0.25781,-0.26953 0.40625,-0.34375 0.14453,-0.070312 0.30469,-0.10938 0.48438,-0.10938 0.3125,0 0.54688,0.10156 0.70312,0.29688 0.16406,0.1875 0.25,0.46484 0.25,0.82812 z"
         id="path566" />
    </symbol>
    <symbol
       id="n"
       overflow="visible">
      <path
         d="m 0.42188,-2.7031 h 0.85938 v 2.6562 c 0,0.36328 -0.089844,0.64062 -0.26562,0.82812 -0.17969,0.1875 -0.42969,0.28125 -0.75,0.28125 h -0.42188 v -0.5625 h 0.14062 c 0.16406,0 0.28125,-0.039062 0.34375,-0.10938 0.0625,-0.074219 0.09375,-0.21875 0.09375,-0.4375 z m 0,-1.0469 h 0.85938 v 0.70312 H 0.42188 Z"
         id="path569" />
    </symbol>
    <symbol
       id="m"
       overflow="visible">
      <path
         d="m 2.5938,-2.6094 v 0.70312 C 2.47661,-1.988311 2.35942,-2.0469 2.23442,-2.07816 2.11723,-2.117223 2.00004,-2.14066 1.87504,-2.14066 c -0.24219,0 -0.42969,0.074219 -0.5625,0.21875 -0.13672,0.13672 -0.20312,0.32812 -0.20312,0.57812 0,0.25 0.066406,0.44922 0.20312,0.59375 0.13281,0.13672 0.32031,0.20312 0.5625,0.20312 0.13281,0 0.25781,-0.019531 0.375,-0.0625 0.125,-0.039063 0.23828,-0.097656 0.34375,-0.17188 v 0.70312 C 2.45707,-0.023492 2.32035,0.007758 2.18754,0.0312 2.05082,0.050731 1.9102,0.06245 1.76566,0.06245 c -0.49219,0 -0.87109,-0.125 -1.1406,-0.375 -0.27344,-0.25 -0.40625,-0.59375 -0.40625,-1.0312 0,-0.44531 0.13281,-0.79688 0.40625,-1.0469 0.26953,-0.25 0.64844,-0.375 1.1406,-0.375 0.14453,0 0.28516,0.015625 0.42188,0.046875 0.13281,0.023438 0.26953,0.058594 0.40625,0.10938 z"
         id="path572" />
    </symbol>
  </defs>
  <g
     id="g3868"
     transform="translate(-150.87394,-80.877495)"
     style="fill:#ffffff;fill-opacity:1">
    <path
       d="M 508.99,369.73 H 191 c -3.6836,0 -6.668,-2.9883 -6.668,-6.668 v -248.92 c 0,-3.6797 2.9844,-6.668 6.668,-6.668 h 317.99 c 1.7695,0 3.4648,0.70312 4.7148,1.9531 1.25,1.24998 1.9531,2.9492 1.9531,4.7148 v 248.92 c 0,1.7656 -0.70312,3.4609 -1.9531,4.7148 -1.25,1.25 -2.9453,1.9531 -4.7148,1.9531 z M 197.67,356.394 H 502.33 V 120.804 H 197.67 Z"
       id="path577"
       style="fill:#ffffff;fill-opacity:1" />
    <path
       d="m 528.29,412.2 h -49.625 c -3.6836,0 -6.668,-2.9844 -6.668,-6.668 0,-3.6836 2.9844,-6.668 6.668,-6.668 h 42.957 v -29.137 h -343.25 v 29.141 h 42.957 l 0.004,-0.004 c 3.6836,0 6.668,2.9844 6.668,6.668 0,3.6836 -2.9844,6.668 -6.668,6.668 h -49.625 c -3.6836,0 -6.668,-2.9844 -6.668,-6.668 v -42.473 c 0,-3.6836 2.9844,-6.668 6.668,-6.668 h 356.59 c 1.7695,0 3.4648,0.70312 4.7148,1.9531 1.25,1.24998 1.9531,2.9453 1.9531,4.7148 v 42.473 c 0,1.7695 -0.70313,3.4648 -1.9531,4.7148 -1.24997,1.25 -2.9453,1.9531 -4.7148,1.9531 z"
       id="path579"
       style="fill:#ffffff;fill-opacity:1" />
    <path
       d="M 427.36,412.2 H 272.63 c -3.6836,0 -6.668,-2.9844 -6.668,-6.668 0,-3.6836 2.9844,-6.668 6.668,-6.668 h 154.73 c 3.6836,0 6.668,2.9844 6.668,6.668 0,3.6836 -2.9844,6.668 -6.668,6.668 z"
       id="path581"
       style="fill:#ffffff;fill-opacity:1" />
    <path
       d="m 417.41,454.67 h -134.83 0.004 c -3.6836,0 -6.668,-2.9844 -6.668,-6.6641 0,-3.6836 2.9844,-6.668 6.668,-6.668 h 134.83 -0.004 c 3.6836,0 6.668,2.9844 6.668,6.668 0,3.6797 -2.9844,6.6641 -6.668,6.6641 z"
       id="path583"
       style="fill:#ffffff;fill-opacity:1" />
    <path
       d="M 427.36,412.2 H 272.63 c -3.6836,0 -6.668,-2.9844 -6.668,-6.668 0,-3.6836 2.9844,-6.668 6.668,-6.668 h 154.73 c 3.6836,0 6.668,2.9844 6.668,6.668 0,3.6836 -2.9844,6.668 -6.668,6.668 z"
       id="path585"
       style="fill:#ffffff;fill-opacity:1" />
    <path
       d="m 528.29,454.67 h -39.68 c -3.6797,0 -6.668,-2.9844 -6.668,-6.6641 0,-3.6836 2.9883,-6.668 6.668,-6.668 h 33.012 v -29.141 h -42.957 c -3.6836,0 -6.668,-2.9844 -6.668,-6.668 0,-3.6836 2.9844,-6.668 6.668,-6.668 h 49.625 c 1.7695,0 3.4648,0.70312 4.7148,1.9531 1.25,1.24998 1.9531,2.9453 1.9531,4.7148 v 42.477 c 0,1.7656 -0.70313,3.4609 -1.9531,4.7109 -1.25,1.2539 -2.9453,1.9531 -4.7148,1.9531 z"
       id="path587"
       style="fill:#ffffff;fill-opacity:1" />
    <path
       d="m 211.39,454.67 h -39.68 c -3.6836,0 -6.668,-2.9844 -6.668,-6.6641 v -42.477 c 0,-3.6836 2.9844,-6.668 6.668,-6.668 h 49.625 c 3.6836,0 6.668,2.9844 6.668,6.668 0,3.6836 -2.9844,6.668 -6.668,6.668 h -42.957 v 29.141 h 33.012 c 3.6797,0 6.668,2.9844 6.668,6.668 0,3.6797 -2.9883,6.6641 -6.668,6.6641 z"
       id="path589"
       style="fill:#ffffff;fill-opacity:1" />
    <path
       d="m 246.98,478.88 c -11.922,0 -23.352,-4.7344 -31.781,-13.164 -8.4297,-8.4297 -13.164,-19.859 -13.164,-31.781 0,-11.918 4.7344,-23.352 13.164,-31.781 8.4297,-8.4258 19.859,-13.164 31.781,-13.164 11.918,0 23.352,4.7383 31.781,13.164 8.4258,8.4297 13.16,19.863 13.16,31.781 -0.0117,11.918 -4.75,23.34 -13.176,31.766 -8.4258,8.4258 -19.852,13.164 -31.766,13.18 z m 0,-76.551 v -0.004 c -8.3828,0 -16.422,3.332 -22.352,9.2578 -5.9258,5.9297 -9.2578,13.969 -9.2578,22.352 0,8.3828 3.332,16.422 9.2578,22.352 5.9297,5.9258 13.969,9.2578 22.352,9.2578 8.3828,0 16.422,-3.332 22.352,-9.2578 5.9258,-5.9297 9.2578,-13.969 9.2578,-22.352 -0.0117,-8.3789 -3.3438,-16.414 -9.2695,-22.34 -5.9258,-5.9258 -13.961,-9.2578 -22.34,-9.2695 z"
       id="path591"
       style="fill:#ffffff;fill-opacity:1" />
    <path
       d="m 453.01,478.88 c -11.922,0 -23.352,-4.7344 -31.781,-13.164 -8.4297,-8.4297 -13.164,-19.859 -13.164,-31.781 0,-11.918 4.7344,-23.352 13.164,-31.781 8.4297,-8.4258 19.859,-13.164 31.781,-13.164 11.918,0 23.352,4.7383 31.781,13.164 8.4258,8.4297 13.16,19.863 13.16,31.781 -0.0117,11.918 -4.75,23.34 -13.176,31.766 -8.4258,8.4258 -19.852,13.164 -31.766,13.18 z m 0,-76.551 v -0.004 c -8.3828,0 -16.422,3.332 -22.352,9.2578 -5.9258,5.9297 -9.2578,13.969 -9.2578,22.352 0,8.3828 3.332,16.422 9.2578,22.352 5.9297,5.9258 13.969,9.2578 22.352,9.2578 8.3828,0 16.422,-3.332 22.352,-9.2578 5.9258,-5.9297 9.2578,-13.969 9.2578,-22.352 -0.0117,-8.3789 -3.3438,-16.414 -9.2695,-22.34 -5.9258,-5.9258 -13.961,-9.2578 -22.34,-9.2695 z"
       id="path593"
       style="fill:#ffffff;fill-opacity:1" />
    <path
       d="m 246.98,451.21 c -4.5859,0 -8.9805,-1.8203 -12.223,-5.0625 -3.2422,-3.2422 -5.0625,-7.6367 -5.0625,-12.223 0,-4.5859 1.8203,-8.9805 5.0625,-12.223 3.2422,-3.2422 7.6367,-5.0625 12.223,-5.0625 4.582,0 8.9805,1.8203 12.223,5.0625 3.2422,3.2422 5.0625,7.6367 5.0625,12.223 -0.004,4.582 -1.8281,8.9766 -5.0703,12.219 -3.2383,3.2383 -7.6328,5.0625 -12.215,5.0664 z m 0,-21.238 v 0.004 c -1.5977,0 -3.0391,0.96094 -3.6523,2.4375 -0.60938,1.4766 -0.27344,3.1758 0.85938,4.3047 1.1289,1.1328 2.8281,1.4688 4.3047,0.85938 1.4766,-0.61328 2.4375,-2.0547 2.4375,-3.6523 0,-1.0469 -0.41406,-2.0508 -1.1562,-2.793 -0.74219,-0.74219 -1.7461,-1.1562 -2.793,-1.1562 z"
       id="path595"
       style="fill:#ffffff;fill-opacity:1" />
    <path
       d="m 453.01,451.21 c -4.5859,0 -8.9805,-1.8203 -12.223,-5.0625 -3.2422,-3.2422 -5.0625,-7.6367 -5.0625,-12.223 0,-4.5859 1.8203,-8.9805 5.0625,-12.223 3.2422,-3.2422 7.6367,-5.0625 12.223,-5.0625 4.5859,0 8.9805,1.8203 12.223,5.0625 3.2422,3.2422 5.0625,7.6367 5.0625,12.223 -0.004,4.582 -1.8281,8.9766 -5.0664,12.219 -3.2422,3.2383 -7.6367,5.0625 -12.219,5.0664 z m 0,-21.238 v 0.004 c -1.5977,0 -3.0391,0.96094 -3.6523,2.4375 -0.60938,1.4766 -0.27344,3.1758 0.85938,4.3047 1.1289,1.1328 2.8281,1.4688 4.3047,0.85938 1.4766,-0.61328 2.4375,-2.0547 2.4375,-3.6523 0,-1.0469 -0.41406,-2.0508 -1.1562,-2.793 -0.74219,-0.74219 -1.7461,-1.1562 -2.793,-1.1562 z"
       id="path597"
       style="fill:#ffffff;fill-opacity:1" />
    <path
       d="m 211.04,210.69 h -0.41016 c -6.9688,-0.008 -13.652,-2.7812 -18.582,-7.707 -4.9297,-4.9297 -7.7031,-11.613 -7.7109,-18.586 v -70.262 c 0,-3.6797 2.9844,-6.668 6.668,-6.668 h 39.664 c 1.7656,0 3.4648,0.70312 4.7148,1.9531 1.25,1.24998 1.9531,2.9492 1.9531,4.7148 v 70.262 c -0.008,6.9727 -2.7812,13.656 -7.7109,18.586 -4.9297,4.9258 -11.613,7.6992 -18.586,7.707 z m -13.367,-89.887 v 63.594 c 0.008,7.1523 5.8047,12.949 12.957,12.961 h 0.41016 c 7.1562,-0.0117 12.953,-5.8086 12.961,-12.961 v -63.594 z"
       id="path599"
       style="fill:#ffffff;fill-opacity:1" />
    <path
       d="m 250.7,210.69 h -0.41016 c -6.9688,-0.008 -13.652,-2.7812 -18.582,-7.707 -4.9297,-4.9297 -7.7031,-11.613 -7.7109,-18.586 v -70.262 c 0,-3.6797 2.9844,-6.668 6.668,-6.668 h 39.664 -0.004 c 1.7695,0 3.4648,0.70312 4.7148,1.9531 1.25,1.24998 1.9531,2.9492 1.9531,4.7148 v 70.262 c -0.008,6.9727 -2.7812,13.656 -7.707,18.586 -4.9297,4.9258 -11.613,7.6992 -18.586,7.707 z m -13.367,-89.887 v 63.594 c 0.008,7.1523 5.8047,12.949 12.957,12.961 h 0.41016 c 7.1523,-0.0117 12.949,-5.8086 12.961,-12.961 v -63.594 z"
       id="path601"
       style="fill:#ffffff;fill-opacity:1" />
    <path
       d="m 290.16,210.69 h -0.40625 c -6.9727,-0.008 -13.656,-2.7812 -18.586,-7.707 -4.9297,-4.9297 -7.7031,-11.613 -7.7109,-18.586 v -70.262 c 0,-3.6797 2.9844,-6.668 6.668,-6.668 h 39.664 c 1.7695,0 3.4648,0.70312 4.7148,1.9531 1.25,1.24998 1.9531,2.9492 1.9531,4.7148 v 70.262 c -0.008,6.9727 -2.7812,13.656 -7.7109,18.586 -4.9297,4.9258 -11.613,7.6992 -18.586,7.707 z m -13.367,-89.887 v 63.594 c 0.008,7.1523 5.8047,12.953 12.961,12.961 h 0.40625 c 7.1562,-0.0117 12.953,-5.8086 12.961,-12.961 v -63.594 z"
       id="path603"
       style="fill:#ffffff;fill-opacity:1" />
    <path
       d="m 329.82,210.69 h -0.40625 c -6.9727,-0.008 -13.656,-2.7812 -18.586,-7.707 -4.9297,-4.9297 -7.7031,-11.613 -7.7109,-18.586 v -70.262 c 0,-3.6797 2.9844,-6.668 6.668,-6.668 h 39.664 c 1.7656,0 3.4609,0.70312 4.7148,1.9531 1.25,1.25 1.9531,2.9492 1.9531,4.7148 v 70.262 c -0.008,6.9727 -2.7812,13.656 -7.7109,18.586 -4.9297,4.9258 -11.613,7.6992 -18.586,7.707 z m -13.367,-89.887 v 63.594 c 0.008,7.1523 5.8047,12.953 12.961,12.961 h 0.40625 c 7.1562,-0.0117 12.953,-5.8086 12.961,-12.961 v -63.594 z"
       id="path605"
       style="fill:#ffffff;fill-opacity:1" />
    <path
       d="m 369.49,210.69 h -0.41016 c -6.9688,-0.008 -13.652,-2.7812 -18.582,-7.707 -4.9297,-4.9297 -7.7031,-11.613 -7.7109,-18.586 v -70.262 c 0,-3.6797 2.9844,-6.668 6.668,-6.668 h 39.664 -0.004 c 1.7695,0 3.4648,0.70312 4.7148,1.9531 1.25,1.24998 1.9531,2.9492 1.9531,4.7148 v 70.262 c -0.008,6.9727 -2.7812,13.656 -7.707,18.586 -4.9297,4.9258 -11.613,7.6992 -18.586,7.707 z m -13.367,-89.887 v 63.594 c 0.008,7.1523 5.8047,12.953 12.957,12.961 h 0.41016 c 7.1523,-0.0117 12.949,-5.8086 12.961,-12.961 v -63.594 z"
       id="path607"
       style="fill:#ffffff;fill-opacity:1" />
    <path
       d="m 409.15,210.69 h -0.41016 c -6.9688,-0.008 -13.652,-2.7812 -18.582,-7.707 -4.9297,-4.9297 -7.7031,-11.613 -7.7109,-18.586 v -70.262 c 0,-3.6797 2.9844,-6.668 6.668,-6.668 h 39.664 -0.004 c 1.7695,0 3.4648,0.70312 4.7148,1.9531 1.25,1.24998 1.9531,2.9492 1.9531,4.7148 v 70.262 c -0.008,6.9727 -2.7812,13.656 -7.707,18.586 -4.9297,4.9258 -11.613,7.6992 -18.586,7.707 z m -13.367,-89.887 v 63.594 c 0.008,7.1523 5.8047,12.953 12.957,12.961 h 0.41016 c 7.1523,-0.0117 12.949,-5.8086 12.961,-12.961 v -63.594 z"
       id="path609"
       style="fill:#ffffff;fill-opacity:1" />
    <path
       d="m 449.7,210.69 h -0.41016 c -6.9727,-0.008 -13.656,-2.7812 -18.586,-7.707 -4.9297,-4.9297 -7.7031,-11.613 -7.7109,-18.586 v -70.262 c 0,-3.6797 2.9883,-6.668 6.668,-6.668 h 39.664 c 1.7695,0 3.4648,0.70312 4.7148,1.9531 1.25,1.24998 1.9531,2.9492 1.9531,4.7148 v 70.262 c -0.008,6.9727 -2.7812,13.656 -7.7109,18.586 -4.9297,4.9258 -11.613,7.6992 -18.582,7.707 z m -13.367,-89.887 v 63.594 h -0.004 c 0.008,7.1523 5.8086,12.953 12.961,12.961 h 0.41016 c 7.1523,-0.0117 12.949,-5.8086 12.957,-12.961 v -63.594 z"
       id="path611"
       style="fill:#ffffff;fill-opacity:1" />
    <path
       d="m 489.36,210.69 h -0.40625 c -6.9727,-0.008 -13.656,-2.7812 -18.586,-7.707 -4.9297,-4.9297 -7.7031,-11.613 -7.7109,-18.586 v -70.262 c 0,-3.6797 2.9844,-6.668 6.668,-6.668 h 39.664 c 1.7695,0 3.4648,0.70312 4.7148,1.9531 1.25,1.24998 1.9531,2.9492 1.9531,4.7148 v 70.262 c -0.008,6.9727 -2.7812,13.656 -7.7109,18.586 -4.9297,4.9258 -11.613,7.6992 -18.586,7.707 z m -13.367,-89.887 v 63.594 c 0.008,7.1523 5.8047,12.953 12.961,12.961 h 0.40625 c 7.1562,-0.0117 12.953,-5.8086 12.961,-12.961 v -63.594 z"
       id="path613"
       style="fill:#ffffff;fill-opacity:1" />
    <path
       d="m 262.55,369.73 c -2.7852,-0.004 -5.2734,-1.7305 -6.25,-4.3398 l -26.191,-70.133 c -0.51953,-1.3984 -0.55859,-2.9297 -0.10547,-4.3516 l 31.492,-98.988 c 0.53516,-1.6875 1.7188,-3.0898 3.2891,-3.9023 1.5703,-0.8125 3.3984,-0.96875 5.0859,-0.42969 3.5078,1.1133 5.4453,4.8633 4.332,8.3711 l -30.793,96.797 25.387,67.973 c 0.76172,2.0469 0.47266,4.3359 -0.76953,6.1328 -1.2461,1.793 -3.293,2.8672 -5.4766,2.8672 z"
       id="path615"
       style="fill:#ffffff;fill-opacity:1" />
    <path
       d="m 236.36,299.59 h -45.355 c -3.6836,0 -6.668,-2.9883 -6.668,-6.668 0,-3.6836 2.9844,-6.668 6.668,-6.668 h 45.355 c 3.6836,0 6.668,2.9844 6.668,6.668 0,3.6797 -2.9844,6.668 -6.668,6.668 z"
       id="path617"
       style="fill:#ffffff;fill-opacity:1" />
    <path
       d="m 436.2,369.73 c -2.1875,-0.004 -4.2305,-1.0781 -5.4766,-2.8711 -1.2461,-1.793 -1.5312,-4.0859 -0.76953,-6.1328 l 25.387,-67.973 -30.797,-96.797 c -1.1172,-3.5078 0.82422,-7.2578 4.332,-8.3711 3.5117,-1.1172 7.2617,0.82031 8.375,4.332 l 31.492,98.984 c 0.45312,1.4219 0.41797,2.957 -0.10547,4.3555 l -26.191,70.133 c -0.97266,2.6055 -3.4648,4.3359 -6.2461,4.3398 z"
       id="path619"
       style="fill:#ffffff;fill-opacity:1" />
    <path
       d="m 507.75,299.59 h -45.359 c -3.6836,0 -6.668,-2.9883 -6.668,-6.668 0,-3.6836 2.9844,-6.668 6.668,-6.668 h 45.363 -0.004 c 3.6836,0 6.668,2.9844 6.668,6.668 0,3.6797 -2.9844,6.668 -6.668,6.668 z"
       id="path621"
       style="fill:#ffffff;fill-opacity:1" />
    <path
       d="M 528.29,120.8 H 171.7 c -3.6836,0 -6.668,-2.9844 -6.668,-6.668 v -26.34 c 0,-3.6836 2.9844,-6.668 6.668,-6.668 h 356.59 c 1.7695,0 3.4648,0.70312 4.7148,1.9531 1.25,1.24998 1.9531,2.9453 1.9531,4.7148 v 26.34 c 0,1.7656 -0.70313,3.4648 -1.9531,4.7148 -1.24997,1.25 -2.9453,1.9531 -4.7148,1.9531 z M 178.37,107.464 H 521.62 L 521.616,94.46 h -343.25 z"
       id="path623"
       style="fill:#ffffff;fill-opacity:1" />
  </g>
</svg>
