<?xml version="1.0" encoding="UTF-8" standalone="no"?>
<svg
   xmlns:dc="http://purl.org/dc/elements/1.1/"
   xmlns:cc="http://creativecommons.org/ns#"
   xmlns:rdf="http://www.w3.org/1999/02/22-rdf-syntax-ns#"
   xmlns:svg="http://www.w3.org/2000/svg"
   xmlns="http://www.w3.org/2000/svg"
   xmlns:sodipodi="http://sodipodi.sourceforge.net/DTD/sodipodi-0.dtd"
   xmlns:inkscape="http://www.inkscape.org/namespaces/inkscape"
   width="677"
   height="677"
   version="1.1"
   viewBox="0 0 507.74999 507.75001"
   id="svg201"
   sodipodi:docname="Ranger.svg"
   inkscape:export-filename="/home/marek/Downloads/Ranger.png"
   inkscape:export-xdpi="28.360415"
   inkscape:export-ydpi="28.360415"
   inkscape:version="1.0.2 (e86c870879, 2021-01-15)">
  <metadata
     id="metadata205">
    <rdf:RDF>
      <cc:Work
         rdf:about="">
        <dc:format>image/svg+xml</dc:format>
        <dc:type
           rdf:resource="http://purl.org/dc/dcmitype/StillImage" />
        <dc:title></dc:title>
      </cc:Work>
    </rdf:RDF>
  </metadata>
  <sodipodi:namedview
     pagecolor="#ffffff"
     bordercolor="#666666"
     borderopacity="1"
     objecttolerance="10"
     gridtolerance="10"
     guidetolerance="10"
     inkscape:pageopacity="0"
     inkscape:pageshadow="2"
     inkscape:window-width="1920"
     inkscape:window-height="990"
     id="namedview203"
     showgrid="false"
     inkscape:pagecheckerboard="true"
     units="px"
     inkscape:zoom="0.62806234"
     inkscape:cx="423.52983"
     inkscape:cy="415.13563"
     inkscape:window-x="0"
     inkscape:window-y="30"
     inkscape:window-maximized="1"
     inkscape:current-layer="svg201" />
  <defs
     id="defs65">
    <symbol
       id="u"
       overflow="visible">
      <path
         d="m 14.656,-0.875 c -0.76172,0.39844 -1.5547,0.69531 -2.375,0.89062 -0.8125,0.19531 -1.6641,0.29688 -2.5469,0.29688 -2.6562,0 -4.7617,-0.73828 -6.3125,-2.2188 -1.5547,-1.4883 -2.3281,-3.5039 -2.3281,-6.0469 0,-2.5508 0.77344,-4.5664 2.3281,-6.0469 1.5508,-1.4883 3.6562,-2.2344 6.3125,-2.2344 0.88281,0 1.7344,0.10156 2.5469,0.29688 0.82031,0.19922 1.6133,0.49609 2.375,0.89062 v 3.2969 c -0.76172,-0.51953 -1.5117,-0.89844 -2.25,-1.1406 -0.74219,-0.23828 -1.5234,-0.35938 -2.3438,-0.35938 -1.4688,0 -2.625,0.46875 -3.4688,1.4062 -0.83594,0.9375 -1.25,2.2344 -1.25,3.8906 0,1.6484 0.41406,2.9375 1.25,3.875 0.84375,0.9375 2,1.4062 3.4688,1.4062 0.82031,0 1.6016,-0.11719 2.3438,-0.35938 0.73828,-0.23828 1.4883,-0.61719 2.25,-1.1406 z"
         id="path2" />
    </symbol>
    <symbol
       id="d"
       overflow="visible">
      <path
         d="m 10.719,-8.7031 c -0.33594,-0.15625 -0.66797,-0.26953 -1,-0.34375 -0.32422,-0.082031 -0.65625,-0.125 -1,-0.125 -0.98047,0 -1.7344,0.32031 -2.2656,0.95312 -0.53125,0.625 -0.79688,1.5273 -0.79688,2.7031 V -3e-5 h -3.8125 v -11.969 h 3.8125 v 1.9688 c 0.48828,-0.78125 1.0508,-1.3477 1.6875,-1.7031 0.64453,-0.36328 1.4102,-0.54688 2.2969,-0.54688 0.13281,0 0.27344,0.0078 0.42188,0.01563 0.14453,0.01172 0.36328,0.03125 0.65625,0.0625 z"
         id="path5" />
    </symbol>
    <symbol
       id="a"
       overflow="visible">
      <path
         d="m 13.781,-6.0156 v 1.0938 H 4.8435 c 0.09375,0.89844 0.41406,1.5703 0.96875,2.0156 0.55078,0.44922 1.3281,0.67188 2.3281,0.67188 0.80078,0 1.625,-0.11719 2.4688,-0.35938 0.84375,-0.23828 1.7109,-0.59766 2.6094,-1.0781 v 2.9531 c -0.90625,0.33594 -1.8125,0.58984 -2.7188,0.76562 -0.9063,0.17578 -1.8125,0.26562 -2.7188,0.26562 -2.1562,0 -3.8398,-0.54688 -5.0469,-1.6406 -1.1992,-1.1016 -1.7969,-2.6484 -1.7969,-4.6406 0,-1.9453 0.58594,-3.4766 1.7656,-4.5938 1.1758,-1.125 2.8008,-1.6875 4.875,-1.6875 1.875,0 3.375,0.57031 4.5,1.7031 1.1328,1.125 1.7031,2.6367 1.7031,4.5312 z M 9.8435,-7.2812 c 0,-0.72656 -0.21484,-1.3125 -0.64062,-1.75 -0.41797,-0.44531 -0.96875,-0.67188 -1.6562,-0.67188 -0.74219,0 -1.3438,0.21094 -1.8125,0.625 -0.46094,0.41797 -0.74609,1.0156 -0.85938,1.7969 z"
         id="path8" />
    </symbol>
    <symbol
       id="g"
       overflow="visible">
      <path
         d="m 7.2031,-5.3906 c -0.80469,0 -1.4062,0.13672 -1.8125,0.40625 -0.39844,0.27344 -0.59375,0.67188 -0.59375,1.2031 0,0.48047 0.16016,0.85938 0.48438,1.1406 0.32031,0.27344 0.77344,0.40625 1.3594,0.40625 0.71875,0 1.3203,-0.25391 1.8125,-0.76562 0.48828,-0.51953 0.73438,-1.1719 0.73438,-1.9531 v -0.4375 z m 5.8438,-1.4375 V 0 H 9.1875 v -1.7656 c -0.51172,0.71875 -1.0898,1.2461 -1.7344,1.5781 -0.63672,0.33203 -1.418,0.5 -2.3438,0.5 -1.2422,0 -2.2461,-0.35938 -3.0156,-1.0781 -0.77344,-0.72656 -1.1562,-1.6719 -1.1562,-2.8281 0,-1.3945 0.47656,-2.4219 1.4375,-3.0781 0.96875,-0.65625 2.4883,-0.98438 4.5625,-0.98438 h 2.25 v -0.29688 c 0,-0.60156 -0.24219,-1.0469 -0.71875,-1.3281 -0.48047,-0.28125 -1.2266,-0.42188 -2.2344,-0.42188 -0.8125,0 -1.5742,0.085937 -2.2812,0.25 -0.71094,0.15625 -1.3672,0.40234 -1.9688,0.73438 v -2.9219 c 0.82031,-0.19531 1.6445,-0.34766 2.4688,-0.45312 0.82031,-0.10156 1.6484,-0.15625 2.4844,-0.15625 2.1562,0 3.7109,0.42969 4.6719,1.2812 0.95703,0.84375 1.4375,2.2266 1.4375,4.1406 z"
         id="path11" />
    </symbol>
    <symbol
       id="b"
       overflow="visible">
      <path
         d="m 6.0156,-15.359 v 3.3906 H 9.9531 V -9.234 H 6.0156 v 5.0781 c 0,0.55469 0.10938,0.92969 0.32812,1.125 0.21875,0.19922 0.65625,0.29688 1.3125,0.29688 h 1.9688 v 2.7344 h -3.2812 c -1.5117,0 -2.5859,-0.3125 -3.2188,-0.9375 -0.625,-0.63281 -0.9375,-1.707 -0.9375,-3.2188 v -5.0781 h -1.9062 v -2.7344 h 1.9062 v -3.3906 z"
         id="path14" />
    </symbol>
    <symbol
       id="i"
       overflow="visible">
      <path
         d="m 9.9688,-10.219 v -6.4062 h 3.8594 V -2e-4 H 9.9688 V -1.7346 C 9.44536,-1.02366 8.8672,-0.5041 8.2344,-0.1721 7.59768,0.14821 6.8633,0.31228 6.0313,0.31228 c -1.4688,0 -2.6797,-0.58203 -3.625,-1.75 -0.94922,-1.1758 -1.4219,-2.6875 -1.4219,-4.5312 0,-1.8437 0.47266,-3.3477 1.4219,-4.5156 0.94531,-1.1758 2.1562,-1.7656 3.625,-1.7656 0.83203,0 1.5664,0.16797 2.2031,0.5 0.63281,0.32422 1.2109,0.83594 1.7344,1.5312 z m -2.5156,7.75 c 0.82031,0 1.4453,-0.29688 1.875,-0.89062 0.42578,-0.60156 0.64062,-1.4727 0.64062,-2.6094 0,-1.1445 -0.21484,-2.0156 -0.64062,-2.6094 -0.42969,-0.59375 -1.0547,-0.89062 -1.875,-0.89062 -0.8125,0 -1.4336,0.29688 -1.8594,0.89062 -0.42969,0.59375 -0.64062,1.4648 -0.64062,2.6094 0,1.1367 0.21094,2.0078 0.64062,2.6094 0.42578,0.59375 1.0469,0.89062 1.8594,0.89062 z"
         id="path17" />
    </symbol>
    <symbol
       id="c"
       overflow="visible">
      <path
         d="m 8.2031,-2.4688 c 0.82031,0 1.4453,-0.29688 1.875,-0.89062 0.42578,-0.60156 0.64062,-1.4727 0.64062,-2.6094 0,-1.1445 -0.21484,-2.0156 -0.64062,-2.6094 -0.42969,-0.59375 -1.0547,-0.89062 -1.875,-0.89062 -0.82422,0 -1.4531,0.30469 -1.8906,0.90625 -0.4375,0.59375 -0.65625,1.4609 -0.65625,2.5938 0,1.1367 0.21875,2.0078 0.65625,2.6094 0.4375,0.59375 1.0664,0.89062 1.8906,0.89062 z m -2.5469,-7.75 c 0.53125,-0.69531 1.1133,-1.207 1.75,-1.5312 0.64453,-0.33203 1.3828,-0.5 2.2188,-0.5 1.4688,0 2.6758,0.58984 3.625,1.7656 0.94531,1.168 1.4219,2.6719 1.4219,4.5156 0,1.8437 -0.47656,3.3555 -1.4219,4.5312 -0.94922,1.168 -2.1562,1.75 -3.625,1.75 -0.83594,0 -1.5742,-0.16797 -2.2188,-0.5 -0.63672,-0.33203 -1.2188,-0.84766 -1.75,-1.5469 V -1e-4 H 1.8437 v -16.625 h 3.8125 z"
         id="path20" />
    </symbol>
    <symbol
       id="f"
       overflow="visible">
      <path
         d="m 0.26562,-11.969 h 3.8281 l 3.2188,8.125 2.7344,-8.125 h 3.8125 L 8.82822,1.125 c -0.5,1.332 -1.0898,2.2656 -1.7656,2.7969 -0.66797,0.53125 -1.5547,0.79688 -2.6562,0.79688 h -2.2188 v -2.5 h 1.2031 c 0.64453,0 1.1133,-0.10547 1.4062,-0.3125 C 5.0977,1.69534 5.32817,1.32816 5.48442,0.79688 L 5.5938,0.45313 Z"
         id="path23" />
    </symbol>
    <symbol
       id="h"
       overflow="visible">
      <path
         d="M 2.0156,-15.953 H 6.125 v 6.0781 h 6.0625 v -6.0781 h 4.1094 V 0 H 12.1875 V -6.7656 H 6.125 V 0 H 2.0156 Z"
         id="path26" />
    </symbol>
    <symbol
       id="t"
       overflow="visible">
      <path
         d="m 7.8438,-8.875 c 0.86328,0 1.4844,-0.16016 1.8594,-0.48438 0.375,-0.32031 0.5625,-0.84766 0.5625,-1.5781 0,-0.72656 -0.1875,-1.25 -0.5625,-1.5625 -0.375,-0.3125 -0.99609,-0.46875 -1.8594,-0.46875 H 6.125 v 4.0938 z M 6.125,-6.0312 V 0 H 2.0156 v -15.953 h 6.2656 c 2.1016,0 3.6445,0.35547 4.625,1.0625 0.97656,0.71094 1.4688,1.8242 1.4688,3.3438 0,1.0547 -0.25781,1.918 -0.76562,2.5938 -0.51172,0.67969 -1.2773,1.1797 -2.2969,1.5 0.5625,0.125 1.0625,0.41797 1.5,0.875 0.44531,0.44922 0.89844,1.1328 1.3594,2.0469 l 2.2344,4.5312 h -4.375 l -1.9531,-3.9688 C 9.69146,-4.75766 9.29693,-5.3006 8.89068,-5.5936 8.48443,-5.88266 7.94537,-6.0311 7.28128,-6.0311 Z"
         id="path29" />
    </symbol>
    <symbol
       id="s"
       overflow="visible">
      <path
         d="M 1.8438,-11.969 H 5.6563 V 0 H 1.8438 Z m 0,-4.6562 h 3.8125 v 3.125 H 1.8438 Z"
         id="path32" />
    </symbol>
    <symbol
       id="r"
       overflow="visible">
      <path
         d="m 9.7031,-16.625 v 2.5156 H 7.5937 c -0.54297,0 -0.92188,0.10156 -1.1406,0.29688 -0.21094,0.19922 -0.3125,0.53906 -0.3125,1.0156 v 0.82812 h 3.2656 v 2.7344 H 6.1406 V 0 H 2.3125 V -9.2344 H 0.4219 v -2.7344 h 1.8906 v -0.82812 c 0,-1.3008 0.36328,-2.2656 1.0938,-2.8906 0.72656,-0.625 1.8516,-0.9375 3.375,-0.9375 z"
         id="path35" />
    </symbol>
    <symbol
       id="e"
       overflow="visible">
      <path
         d="m 7.5312,-9.5156 c -0.84375,0 -1.4922,0.30859 -1.9375,0.92188 -0.44922,0.60547 -0.67188,1.4805 -0.67188,2.625 0,1.1484 0.22266,2.0273 0.67188,2.6406 0.44531,0.60547 1.0938,0.90625 1.9375,0.90625 0.83203,0 1.4688,-0.30078 1.9062,-0.90625 0.44531,-0.61328 0.67188,-1.4922 0.67188,-2.6406 0,-1.1445 -0.22656,-2.0195 -0.67188,-2.625 C 8.9999,-9.207 8.3632,-9.5156 7.5312,-9.5156 Z m 0,-2.7344 c 2.0508,0 3.6562,0.55859 4.8125,1.6719 1.1641,1.1055 1.75,2.6406 1.75,4.6094 0,1.9688 -0.58594,3.5117 -1.75,4.625 -1.1562,1.1055 -2.7617,1.6562 -4.8125,1.6562 -2.0625,0 -3.6797,-0.55078 -4.8438,-1.6562 -1.168,-1.1133 -1.75,-2.6562 -1.75,-4.625 0,-1.9688 0.58203,-3.5039 1.75,-4.6094 1.1641,-1.1133 2.7812,-1.6719 4.8438,-1.6719 z"
         id="path38" />
    </symbol>
    <symbol
       id="q"
       overflow="visible">
      <path
         d="m 12.922,-9.9688 c 0.48828,-0.75 1.0625,-1.3164 1.7188,-1.7031 0.66406,-0.38281 1.3984,-0.57812 2.2031,-0.57812 1.375,0 2.4219,0.42969 3.1406,1.2812 0.71875,0.84375 1.0781,2.0742 1.0781,3.6875 v 7.2812 h -3.8438 v -6.2344 c 0.0078,-0.09375 0.01563,-0.1875 0.01563,-0.28125 v -0.4375 c 0,-0.84375 -0.125,-1.457 -0.375,-1.8438 -0.25,-0.38281 -0.65234,-0.57812 -1.2031,-0.57812 -0.73047,0 -1.293,0.30469 -1.6875,0.90625 -0.38672,0.59375 -0.58984,1.4609 -0.60938,2.5938 v 5.875 h -3.8438 v -6.2344 c 0,-1.3203 -0.11719,-2.1758 -0.34375,-2.5625 -0.23047,-0.38281 -0.63672,-0.57812 -1.2188,-0.57812 -0.73047,0 -1.2969,0.30469 -1.7031,0.90625 -0.39844,0.60547 -0.59375,1.4648 -0.59375,2.5781 v 5.8906 h -3.8438 v -11.969 h 3.8438 v 1.75 c 0.46875,-0.66406 1.0039,-1.1719 1.6094,-1.5156 0.61328,-0.34375 1.2891,-0.51562 2.0312,-0.51562 0.82031,0 1.5508,0.19922 2.1875,0.59375 0.63281,0.39844 1.1133,0.96094 1.4375,1.6875 z"
         id="path41" />
    </symbol>
    <symbol
       id="p"
       overflow="visible">
      <path
         d="M 13.859,-7.2812 V 0 h -3.8438 v -5.5469 c 0,-1.0508 -0.027344,-1.7695 -0.078125,-2.1562 -0.042969,-0.39453 -0.12109,-0.6875 -0.23438,-0.875 -0.14844,-0.25 -0.35156,-0.44141 -0.60938,-0.57812 -0.25,-0.14453 -0.54297,-0.21875 -0.875,-0.21875 -0.79297,0 -1.418,0.3125 -1.875,0.9375 -0.46094,0.61719 -0.6875,1.4648 -0.6875,2.5469 V 3e-5 h -3.8125 v -16.625 h 3.8125 v 6.4062 c 0.58203,-0.69531 1.1953,-1.207 1.8438,-1.5312 0.64453,-0.33203 1.3594,-0.5 2.1406,-0.5 1.3828,0 2.4297,0.42969 3.1406,1.2812 0.71875,0.84375 1.0781,2.0742 1.0781,3.6875 z"
         id="path44" />
    </symbol>
    <symbol
       id="o"
       overflow="visible">
      <path
         d="m 2.0156,-15.953 h 4.5781 l 5.8125,10.938 v -10.938 h 3.8906 V 0 H 11.703 L 5.9061,-10.938 V 0 H 2.0155 Z"
         id="path47" />
    </symbol>
    <symbol
       id="n"
       overflow="visible">
      <path
         d="m 1.7031,-4.6562 v -7.3125 h 3.8438 v 1.2031 c 0,0.64844 -0.00781,1.4609 -0.015625,2.4375 v 1.9688 c 0,0.96094 0.023438,1.6523 0.078125,2.0781 0.050781,0.41797 0.13281,0.72656 0.25,0.92188 0.15625,0.25 0.35938,0.44531 0.60938,0.57812 0.25781,0.13672 0.55078,0.20312 0.875,0.20312 0.80078,0 1.4258,-0.30469 1.875,-0.92188 0.45703,-0.61328 0.6875,-1.4688 0.6875,-2.5625 v -5.9062 h 3.8281 v 11.969 h -3.8281 v -1.7344 c -0.57422,0.69922 -1.1836,1.2148 -1.8281,1.5469 -0.64844,0.33203 -1.3555,0.5 -2.125,0.5 -1.3867,0 -2.4453,-0.42188 -3.1719,-1.2656 -0.71875,-0.85156 -1.0781,-2.0859 -1.0781,-3.7031 z"
         id="path50" />
    </symbol>
    <symbol
       id="m"
       overflow="visible">
      <path
         d="M 13.859,-7.2812 V 0 h -3.8438 v -5.5781 c 0,-1.0312 -0.027344,-1.7383 -0.078125,-2.125 -0.042969,-0.39453 -0.12109,-0.6875 -0.23438,-0.875 -0.14844,-0.25 -0.35156,-0.44141 -0.60938,-0.57812 -0.25,-0.14453 -0.54297,-0.21875 -0.875,-0.21875 -0.79297,0 -1.418,0.3125 -1.875,0.9375 -0.46094,0.61719 -0.6875,1.4648 -0.6875,2.5469 V 3e-5 h -3.8125 v -11.969 h 3.8125 v 1.75 c 0.58203,-0.69531 1.1953,-1.207 1.8438,-1.5312 0.64453,-0.33203 1.3594,-0.5 2.1406,-0.5 1.3828,0 2.4297,0.42969 3.1406,1.2812 0.71875,0.84375 1.0781,2.0742 1.0781,3.6875 z"
         id="path53" />
    </symbol>
    <symbol
       id="l"
       overflow="visible">
      <path
         d="m 2.0156,-15.953 h 6.8125 c 2.0312,0 3.5859,0.45312 4.6719,1.3594 1.0938,0.89844 1.6406,2.1797 1.6406,3.8438 0,1.6797 -0.54688,2.9688 -1.6406,3.875 -1.0859,0.89844 -2.6406,1.3438 -4.6719,1.3438 H 6.125 V 2e-4 H 2.0156 Z m 4.1094,2.9844 v 4.4531 h 2.2656 c 0.80078,0 1.4141,-0.19141 1.8438,-0.57812 0.4375,-0.38281 0.65625,-0.9375 0.65625,-1.6562 0,-0.70703 -0.21875,-1.2539 -0.65625,-1.6406 -0.42969,-0.38281 -1.043,-0.57812 -1.8438,-0.57812 z"
         id="path56" />
    </symbol>
    <symbol
       id="k"
       overflow="visible">
      <path
         d="m 1.8438,-11.969 h 3.8125 v 11.75 c 0,1.6016 -0.38672,2.8281 -1.1562,3.6719 C 3.73838,4.29665 2.629,4.7185 1.172,4.7185 h -1.8906 v -2.5 h 0.65625 c 0.72656,0 1.2266,-0.16797 1.5,-0.5 C 1.70718,1.39428 1.8439,0.74975 1.8439,-0.219 Z m 0,-4.6562 h 3.8125 v 3.125 H 1.8438 Z"
         id="path59" />
    </symbol>
    <symbol
       id="j"
       overflow="visible">
      <path
         d="m 11.5,-11.594 v 3.125 C 10.97656,-8.82056 10.457,-9.08228 9.9375,-9.25025 9.41406,-9.42603 8.875,-9.51587 8.3125,-9.51587 c -1.0742,0 -1.9062,0.3125 -2.5,0.9375 -0.5938,0.625 -0.89062,1.4961 -0.89062,2.6094 0,1.1172 0.29688,1.9844 0.89062,2.6094 0.59374,0.625 1.4258,0.9375 2.5,0.9375 0.59375,0 1.1562,-0.085937 1.6875,-0.26562 0.53906,-0.17578 1.0391,-0.44141 1.5,-0.79688 v 3.125 c -0.59375,0.23047 -1.1992,0.39453 -1.8125,0.5 -0.61719,0.11328 -1.2344,0.17188 -1.8594,0.17188 -2.1562,0 -3.8438,-0.55078 -5.0625,-1.6562 -1.2188,-1.1133 -1.8281,-2.6562 -1.8281,-4.625 0,-1.9688 0.60938,-3.5039 1.8281,-4.6094 1.2188,-1.1133 2.9062,-1.6719 5.0625,-1.6719 0.625,0 1.2383,0.05859 1.8438,0.17188 0.61328,0.10547 1.2227,0.26562 1.8281,0.48438 z"
         id="path62" />
    </symbol>
  </defs>
  <g
     id="g1126"
     transform="translate(-96.285462,-26.719854)"
     style="fill:#ffffff;fill-opacity:1">
    <path
       d="m 350.48,148.27 c -3.1016,-1.1055 -6.5664,-0.16797 -8.6875,2.3516 -0.85547,0.95312 -1.2344,2.2383 -1.0391,3.5 0.54688,1.9297 1.9062,3.5273 3.7266,4.375 0.17188,0.10156 0.32422,0.23828 0.4375,0.40234 l 0.39062,0.55078 0.66406,0.12109 -0.004,0.004 c 0.35156,0.0586 0.70703,0.0898 1.0625,0.0859 2.2773,-0.0703 4.4336,-1.0391 6,-2.6992 1.2109,-1.2852 1.6719,-3.1055 1.2266,-4.8125 -0.52734,-1.8438 -1.9453,-3.3047 -3.7773,-3.8789 z"
       id="path67"
       style="fill:#ffffff;fill-opacity:1" />
    <path
       d="m 336.98,151.05 c -7.832,-1.0508 -19.113,0.0312 -25.078,6.5938 l -0.0234,0.0234 c -0.64453,0.58203 -0.87891,1.4961 -0.58984,2.3164 0.42969,0.82031 1.3086,1.3008 2.2266,1.2227 0.20703,0.008 0.41406,0.0273 0.61719,0.0547 1.4141,0.35547 2.8633,0.55078 4.3203,0.58594 0.96875,0.0391 1.8672,0.0586 2.7188,0.0586 h -0.004 c 1.5039,0.008 3.0039,-0.0664 4.5,-0.22266 4.2891,-0.49609 8.5195,-1.4258 12.621,-2.7734 l 1.875,-0.61328 -0.94531,-1.75 c -0.63672,-1.1445 -0.92188,-2.4531 -0.81641,-3.7578 l 0.11719,-1.543 z"
       id="path69"
       style="fill:#ffffff;fill-opacity:1" />
    <path
       d="m 324.26,145.31 c 7.0312,0.11328 13.664,0.22266 18.262,0.75 l 0.46875,0.1875 0.96094,-0.11328 v -0.004 c 2.6641,-1.1523 5.7031,-1.0547 8.2852,0.26953 0.20703,0.12109 0.40234,0.25781 0.58203,0.41406 l 1.4609,1.0938 0.73828,-0.73828 h 0.004 c 6.9961,-2.1719 14.414,-2.625 21.625,-1.3125 l 0.20703,0.043 1.8008,-0.0508 c 15.566,-0.4375 31.668,-0.875 37.832,-14.324 l 0.13672,-0.4375 c 0.0625,-0.4375 0.10547,-0.875 0.14453,-1.3125 l 0.39062,-3.75 -2.7656,1.5469 c -22.398,12.527 -46.523,11.887 -72.09,11.234 -3.8711,-0.10547 -7.7656,-0.20312 -11.676,-0.25781 -20.188,-0.28516 -43.492,-1.4062 -64.594,-11.133 l -6.0234,-2.7734 4.0312,5.25 c 11.184,14.621 38.375,15.062 60.219,15.418 z"
       id="path71"
       style="fill:#ffffff;fill-opacity:1" />
    <path
       d="m 415.86,137.18 c -6.5625,8.4258 -17.965,9.5078 -29.09,9.8906 l -4.8398,0.16797 3.9375,2.8086 h 0.004 c 1.6055,1.1211 3.0742,2.4297 4.375,3.8906 l 0.64844,0.75391 3.5,-0.78906 c 6.5664,-1.2031 12.977,-3.1562 19.102,-5.8164 2.8281,-1.3828 8.0938,-3.9375 6.7344,-10.43 l -0.40625,-1.918 -1.8164,0.73438 h -0.004 c -0.24219,0.0742 -0.49609,0.10156 -0.74609,0.0742 l -0.875,-0.0469 z"
       id="path73"
       style="fill:#ffffff;fill-opacity:1" />
    <path
       d="m 361.46,98.875 c -2.543,-6.5625 -8.4219,-5.4688 -13.922,-5.5352 -4.1641,-0.0625 -10.328,-0.875 -12.75,3.5312 h 0.004 c -1.457,2.9883 -2.5977,6.1211 -3.3984,9.3438 -3.3672,11.156 0.125,21.266 12.43,23.84 0.55469,0.13281 1.0586,0.44141 1.4297,0.875 11.633,-0.57031 17.5,-7.3711 17.641,-19.07 0.32422,-4.3789 -0.16016,-8.7812 -1.4336,-12.984 z"
       id="path75"
       style="fill:#ffffff;fill-opacity:1" />
    <path
       d="m 290.84,282.07 c 1.043,5.3672 1.4805,10.832 1.3125,16.297 l 0.25781,2.9805 0.082,0.38672 0.004,-0.004 c 5.3164,15.414 14.125,29.391 25.742,40.832 l 0.875,0.82422 1.0469,-0.5625 v -0.004 c 16.473,-9.0781 32.047,-19.703 46.508,-31.73 1.5312,-1.2344 3.1055,-2.4727 4.6914,-3.7109 5.332,-3.9688 10.363,-8.3242 15.051,-13.039 l -2.2578,-2.3672 c -4.2578,3.668 -9.1016,6.5898 -14.328,8.6406 -7.2422,2.6641 -14.895,4.0469 -22.609,4.0938 -1.9375,0.0625 -3.9141,0 -5.875,-0.10156 -1.3125,-0.0352 -2.4375,-0.14062 -3.5703,-0.24219 l -7.5391,-0.82812 c -1.2305,-0.14844 -2.4727,-0.38672 -3.7148,-0.61719 l -1.75,-0.32031 v 0.004 c -7.2109,-1.2188 -14.016,-4.1719 -19.832,-8.6016 l -2.1055,-1.6719 c -0.41797,-0.37891 -0.8125,-0.78906 -1.1758,-1.2188 l -2.7422,-2.9883 c -0.44531,-0.48047 -0.84375,-0.99609 -1.1992,-1.543 l -1.6133,-2.4336 -2.0039,-3.1758 v 0.004 c -0.0703,-0.19922 -0.15234,-0.39062 -0.24609,-0.57422 l -4.4805,-11.848 1.3125,12.602 c 0.0273,0.30859 0.082,0.61719 0.16016,0.91797 z"
       id="path77"
       style="fill:#ffffff;fill-opacity:1" />
    <path
       d="m 377.1,148.47 c -1.9297,-0.41406 -3.8906,-0.68359 -5.8633,-0.80078 -4.2422,0.28516 -8.4375,1.0938 -12.484,2.4141 l -2.5312,0.875 1.9414,1.8516 v -0.004 c 6.6289,5.3867 14.848,8.4336 23.383,8.668 1.3789,0.0234 2.75,-0.125 4.0898,-0.4375 3.0039,-0.76953 3.4375,-2.4688 3.4258,-3.4023 -0.0625,-4.2695 -9.9336,-8.6992 -11.961,-9.1641 z"
       id="path79"
       style="fill:#ffffff;fill-opacity:1" />
    <path
       d="m 410.56,242.78 c 7.4062,-6.625 11.812,-26.059 10.684,-38.348 0.18359,-4.2734 -1.625,-8.3945 -4.8906,-11.16 l -2.0859,-1.2656 -0.60547,3.7891 c -2.4102,14.934 -4.875,30.395 -5.832,45.664 l -0.25391,3.9883 z"
       id="path81"
       style="fill:#ffffff;fill-opacity:1" />
    <path
       d="m 272.27,236.95 2.3398,0.80859 -0.16797,-2.4688 c -0.26172,-4.0742 -0.4375,-8.1562 -0.58203,-12.25 l 0.004,0.004 c -0.14844,-10.266 -1.0898,-20.508 -2.8164,-30.625 l -0.26562,-1.3555 -1.3789,0.0312 c -6.8164,0.14453 -11.461,4.8633 -12.746,12.965 -1.9336,12.297 4.3242,28.957 15.613,32.891 z"
       id="path83"
       style="fill:#ffffff;fill-opacity:1" />
    <path
       d="m 295.25,268.1 c 1.2734,2.2266 2.625,4.5469 4.0039,6.9297 l 1.0195,1.8125 0.50781,0.875 v 0.0352 l 0.15625,0.1875 0.35156,0.4375 c 0.875,1.207 1.8164,2.4141 2.7344,3.6211 0.38281,0.57031 0.84375,1.082 1.3672,1.5273 l 1.3945,1.3125 h 0.004 c 0.44141,0.47656 0.91016,0.93359 1.3984,1.3633 l 1.6836,1.2109 c 4.9531,3.4062 10.621,5.625 16.566,6.4844 1.6484,0.22266 3.2422,0.53906 4.957,0.73047 1.7148,0.19141 3.3984,0.35156 5.1172,0.53906 1.7812,0.0977 3.75,0.35156 5.4023,0.35156 1.6836,0.0664 3.3672,0.125 5.1484,0.0664 v -0.004 c 6.6797,-0.004 13.305,-1.1211 19.613,-3.3047 5.6641,-2.0703 10.82,-5.3203 15.129,-9.5391 0.95312,-1.082 1.9727,-2.0938 2.8594,-3.1758 0.875,-1.1758 1.7812,-2.2266 2.543,-3.4023 l 1.1172,-1.75 0.57422,-0.875 0.125,-0.1875 v -0.0312 h 0.0312 v -0.0352 l 0.0312,-0.0312 0.19141,-0.41016 c 0.69531,-1.3398 1.3633,-2.625 2,-3.9102 v -0.004 c 0.625,-1.1797 1.168,-2.4023 1.625,-3.6562 0.47656,-1.1758 0.92188,-2.3203 1.3633,-3.4648 0.73438,-2.4453 1.5586,-4.7344 2.1289,-7.0234 1.8477,-7.0273 2.9883,-13.258 4.0703,-18.219 1.5586,-19.688 5.25,-39.258 8.1055,-59.125 l 0.004,0.004 c -21.812,2.3828 -43.734,3.625 -65.676,3.7188 -24.16,-0.89062 -48.234,-3.4102 -72.059,-7.5352 0.14062,2.1836 0.58203,4.332 1.3125,6.3945 -0.008,0.0547 0.004,0.10938 0.0312,0.15625 2.3438,2.1133 4.4414,4.4844 6.25,7.0742 0.77734,1.168 0.91016,2.6523 0.35156,3.9375 2.0391,14.367 3.207,28.848 3.5,43.355 1.6875,4.375 4.2617,14.371 9.8281,26.832 1.0117,2.1484 1.8867,4.4688 3.1367,6.7266 z m 56.5,-60.145 c 0.28906,-4.0703 0.69922,-6.4844 1.4297,-6.6094 0.73047,-0.125 1.6836,2.4492 2.3555,6.3906 0.34766,2.1719 0.81641,4.3281 1.3984,6.4492 0.13672,0.56641 0.32812,1.1211 0.57031,1.6523 l 0.4375,0.95312 0.32031,0.54297 c 0.60547,0.66406 0.0625,0.4375 2.1602,0.95312 2.1367,0.58594 3.9375,2.0234 4.9883,3.9727 1.0742,1.8398 1.3203,4.0469 0.66797,6.0742 -0.58594,1.5781 -1.6133,2.957 -2.957,3.9727 -0.94922,0.75 -1.9766,1.4023 -3.0625,1.9375 -3.9102,1.8125 -6.2656,2.2266 -6.6758,1.6836 -0.47656,-0.66406 1.6172,-2.4805 4.6055,-4.8633 1.5156,-1.0312 2.6875,-2.4922 3.3711,-4.1953 0.10938,-0.68359 -0.0625,-1.3828 -0.47266,-1.9375 -0.66797,-0.98438 -1.1445,-1.3125 -1.7812,-1.4297 l -1.1172,-0.28516 c -0.55469,-0.12891 -1.0859,-0.33203 -1.5859,-0.60547 -0.58594,-0.28125 -1.1172,-0.67188 -1.5586,-1.1445 -0.42188,-0.39062 -0.76562,-0.85547 -1.0195,-1.3672 -0.25391,-0.4375 -0.47266,-0.875 -0.69531,-1.3125 l -0.35156,-1.0195 c -0.27734,-0.73047 -0.48047,-1.4844 -0.60156,-2.2578 -0.45312,-2.4922 -0.59766,-5.0273 -0.42578,-7.5547 z m -26.605,18.598 c 0.16797,-0.56641 0.40234,-1.1133 0.69922,-1.6211 l 0.15625,-0.35156 0.0977,-0.15625 0.125,-0.25391 0.0312,-0.0312 0.0312,-0.0664 0.0976,-0.0976 0.73047,-0.875 c 1.0469,-1.0859 2.3789,-1.8594 3.8477,-2.2266 0.54297,-0.1875 1.1445,-0.28516 1.4297,-0.41016 l 0.25781,-0.0977 c -0.0352,0.0664 -0.0664,0.19141 0.1875,-0.0977 l 0.32031,-0.28516 0.0625,-0.0664 0.0664,-0.0312 -0.16016,-0.0312 c -0.0312,-0.0352 -0.0937,0.0625 -0.1875,0.125 0.0312,-0.0664 0.0976,-0.125 0.125,-0.19141 l -0.004,0.008 c 0.15234,-0.35156 0.26953,-0.71094 0.35156,-1.082 0.73047,-3.75 0.47656,-8.3906 1.082,-12.363 0.37891,-3.6562 0.60547,-7.4062 1.2383,-10.395 0.375,-2.5273 1.3359,-4.9336 2.7969,-7.0273 1.3125,-1.6172 2.3203,-1.6836 2.5117,-1.4609 0.31641,0.25391 -0.37891,1.1758 -0.69922,2.4805 -0.54688,2.1055 -0.82422,4.2773 -0.82812,6.4531 -0.125,2.8594 0.0625,6.2305 -0.0977,10.395 h 0.004 c 0.0352,4.3555 -0.20703,8.707 -0.73047,13.031 -0.14062,0.72656 -0.35547,1.4414 -0.63672,2.1289 -0.22266,0.4375 -0.4375,0.875 -0.69922,1.2422 l -0.19141,0.28516 v 0.0664 l -0.28516,0.23828 v 0.0312 l -0.0664,0.0977 -0.32031,0.25391 c -0.69922,0.60547 -1.5234,1.0547 -2.4141,1.3125 -0.55469,0.17188 -1.1133,0.32031 -1.6836,0.4375 -1.6523,0.51172 -1.75,0.66797 -2.625,2.418 -0.25391,0.69922 -0.31641,1.3125 0.76562,2.3828 0.52734,0.51953 1.0898,0.99609 1.6836,1.4336 0.1875,0.125 1.3984,0.95312 1.6172,0.875 1.7812,0.69922 4.8633,0.50781 6.5625,1.3633 h 0.004 c 0.37891,0.18359 0.75391,0.38281 1.1133,0.60547 0.23828,0.21484 0.46094,0.44922 0.66406,0.69922 0.28906,0.41406 0.37891,0.66797 0.25391,0.82812 -0.125,0.15625 -0.41016,0.16016 -0.875,0.0977 -0.1875,-0.0312 -0.4375,-0.0977 -0.69922,-0.15625 -0.26172,-0.0625 -0.63281,-0.0352 -0.98438,-0.0664 v -0.004 c -0.91406,0.0273 -1.8281,0.10937 -2.7344,0.25391 -1.5234,0.28125 -3.0898,0.26172 -4.6055,-0.0625 -0.92188,-0.1875 -1.8086,-0.51953 -2.625,-0.98828 -0.82812,-0.46094 -1.6172,-0.99219 -2.3555,-1.5859 -0.4375,-0.36719 -0.85156,-0.76172 -1.2383,-1.1797 -0.42969,-0.53516 -0.79297,-1.125 -1.0781,-1.75 -0.57812,-1.4492 -0.60547,-3.0625 -0.0703,-4.5312 z"
       id="path85"
       style="fill:#ffffff;fill-opacity:1" />
    <path
       d="m 329.97,369.33 c 2.1406,5.7227 4.8516,11.219 8.0859,16.402 1.4688,2.543 2.9492,5.0898 4.3086,7.7266 l 1.4688,2.8477 1.4492,-2.8555 h 0.004 c 10.234,-19.703 23,-37.984 37.965,-54.387 1.6172,-1.8203 3.4336,-3.6953 5.3125,-5.6445 8.9375,-9.2539 19.07,-19.734 18.078,-32.949 -0.76953,-6.5781 -2.4336,-13.027 -4.9492,-19.156 l -2.8359,-3.125 -0.875,2.4141 c -4.2891,11.727 -14.215,19.758 -24.797,28.316 -15.84,13.355 -32.863,25.238 -50.859,35.5 l -1.4141,0.76562 0.73828,1.4258 c 2.5352,5.25 4.6172,10.703 6.2266,16.305 0.6875,2.1289 1.3555,4.2695 2.0938,6.4141 z"
       id="path87"
       style="fill:#ffffff;fill-opacity:1" />
    <path
       d="m 301.32,363.56 c 1.5273,2.6602 2.6445,5.5352 3.3164,8.5273 l 0.20313,1.1641 1.1641,0.17969 c 0.75781,0.11719 1.5391,0.25391 2.3398,0.39844 h -0.004 c 2.5195,0.50391 5.0742,0.79688 7.6406,0.875 3.9375,0.33594 7.7344,-1.543 9.8555,-4.8789 0.0859,-0.17578 0.21094,-0.32422 0.36719,-0.4375 l 1.0625,-0.67969 -0.94922,-3.0195 c -1.8359,-6.6172 -4.3398,-13.031 -7.4766,-19.145 l -0.25,-0.53125 -1.2461,-0.64844 -0.75781,0.26172 v 0.004 c -6.7539,2.7812 -12.469,7.6016 -16.348,13.789 l -0.55859,0.78906 0.4375,0.875 c 0.37891,0.85937 0.78906,1.6719 1.2031,2.4766 z"
       id="path89"
       style="fill:#ffffff;fill-opacity:1" />
    <path
       d="m 462.26,338.98 c -2.75,-1.793 -5.5039,-3.6758 -8.2656,-5.5703 -12.801,-8.75 -26.035,-17.816 -41.875,-19.609 l -1.2656,0.0586 -0.41016,0.875 h 0.004 c -3.6758,3.7734 -5.4531,9.0039 -4.8438,14.234 1.6758,9.582 13.188,16.258 23.34,22.141 3,1.75 5.8398,3.3906 8.1328,4.9609 l 3.2852,2.2539 c 12.129,8.3125 24.672,16.922 37.547,24.543 l 1.3125,1.1719 1.1562,-1.3359 c 0.14453,-0.17188 0.28516,-0.33594 0.4375,-0.5 v 0.004 c 7.2656,-7.2344 16.043,-12.773 25.703,-16.215 l 3.293,-1.207 -3.0352,-1.75 c -6.1992,-3.5938 -12.715,-6.8633 -19.02,-10.027 l 0.004,-0.004 c -8.7539,-4.2031 -17.266,-8.8828 -25.5,-14.023 z"
       id="path91"
       style="fill:#ffffff;fill-opacity:1" />
    <path
       d="m 436.19,311.75 c -2.1367,-1.625 -4.1836,-3.3633 -6.125,-5.2148 -5.3945,-4.9258 -10.965,-10.023 -18.812,-10.324 -0.44922,-0.0195 -0.89453,-0.11328 -1.3125,-0.28516 l -2.625,-1.082 0.38672,2.8164 c 0.60156,3.9844 0.48828,8.043 -0.33594,11.984 l -0.91016,4.125 3.457,-2.4375 c 0.16016,-0.12891 0.36719,-0.18359 0.57031,-0.14844 16.797,1.4297 30.094,10.367 44.188,19.828 l 0.73438,0.5 c 10.141,6.543 20.641,12.512 31.449,17.879 8.0078,4.1602 16.273,8.4609 24.125,13.223 h -0.004 c 0.17578,0.10547 0.32031,0.25781 0.41797,0.4375 l 0.61328,1.1523 1.2656,-0.33984 -0.004,-0.004 c 4.7227,-1.2617 9.5078,-2.2578 14.344,-2.9805 l 5.25,-0.80859 -4.8125,-2.2969 c -8.9766,-4.293 -18.219,-8.4453 -27.156,-12.465 -10.867,-4.8867 -22.105,-9.9453 -32.965,-15.277 h -0.004 c -11.094,-5.1484 -21.711,-11.27 -31.734,-18.281 z"
       id="path93"
       style="fill:#ffffff;fill-opacity:1" />
    <path
       d="m 282.71,378.48 -1.3125,6.4883 4.1992,-5.1133 c 1.9453,-2.5781 3.5898,-5.3672 4.9062,-8.3125 0.37109,-0.75 0.72266,-1.4609 1.0703,-2.1211 1.625,-3.0977 3.4609,-6.0781 5.4922,-8.9258 l 0.21875,-0.46094 c 0.0898,-0.35156 0.30078,-0.66016 0.59375,-0.875 l 0.90625,-1.1875 v 0.004 c 3.6953,-5.7305 8.7695,-10.441 14.758,-13.699 l 2.0938,-0.97656 -1.6094,-1.6523 c -7.2148,-7.5312 -13.266,-16.098 -17.957,-25.414 l -3.0625,-6.0312 -0.043,6.7656 c -0.0586,8.4102 -0.51563,17.605 -1.457,28.934 l -0.004,-0.004 c -0.8125,6.4961 -2.4219,12.867 -4.793,18.973 -1.6172,4.4492 -2.9531,8.9922 -4,13.609 z"
       id="path95"
       style="fill:#ffffff;fill-opacity:1" />
    <path
       d="m 338.96,134.66 c -13.859,-4.707 -16.656,-18.473 -12.492,-32.043 4.2266,-13.699 11.477,-15.543 25.301,-15.066 14.91,0.54297 17.867,13.512 16.723,26.477 -0.47656,5.3711 -1.0508,12.398 -5.625,16.117 v 0.004 c -2.6055,2.1406 -5.5703,3.8047 -8.75,4.9258 21.359,0.37891 42.086,-0.98437 61.156,-12.746 -1.5898,-25.844004 0.15625,-60.969004 -21.84,-78.750004 -17.355,-14 -41.195,-17.938 -63,-16.371 -23.965,1.75 -45.648,9.0273 -56.203,32.484 -8.6641,19.277 -10.539,40.500004 -11.727,61.363004 23.078,12.527 48.191,12.75 74,13.512 z M 352.12,44 v 0.0039 c 0.39453,-2.3828 1.5039,-4.5898 3.1797,-6.3281 0.90625,-0.83984 1.9922,-1.4609 3.1758,-1.8086 0.64062,-0.15625 1.2422,-0.25391 1.8477,-0.35156 0.45703,-0.01953 0.91016,-0.0078 1.3672,0.03516 3.332,0.39453 6.5508,1.4531 9.4688,3.1133 2.1055,1.125 4.1484,2.3555 6.125,3.6836 3.207,2.1602 4.8906,3.5312 4.7031,3.8516 -0.1875,0.32031 -2.2266,-0.41406 -5.7227,-2.0352 -1.75,-0.79688 -3.875,-1.7812 -6.3555,-2.7695 -2.6133,-1.1602 -5.4102,-1.8594 -8.2656,-2.0625 -0.39844,-0.01953 -0.79688,-0.0039 -1.1914,0.04687 -0.25781,0.11719 -0.52344,0.20312 -0.79688,0.25391 -0.5625,0.21875 -1.0625,0.56641 -1.4609,1.0156 -0.95703,1.168 -1.543,2.5977 -1.6875,4.1016 -0.36328,4.0195 -0.0508,8.0703 0.92578,11.984 1.0508,4.5039 2.4414,8.9258 4.1602,13.223 1.7031,4.5586 4.0117,8.8672 6.8672,12.809 1.3789,1.8594 3.043,3.4922 4.9258,4.8359 0.4375,0.31641 0.92188,0.57031 1.3633,0.82812 l 0.19141,0.125 0.0625,0.03125 0.41406,0.15625 0.875,0.37891 c 1.0195,0.35156 2.1016,0.73047 3.2109,1.0508 h 0.004 c 4.2344,1.207 8.6719,1.5195 13.035,0.92578 1.7773,-0.26172 3.4531,-0.98438 4.8594,-2.1016 l 0.41406,-0.41016 0.19141,-0.19141 0.0937,-0.125 0.0664,-0.03125 0.79688,-1.207 v -0.0039 c 0.45312,-0.71875 0.82422,-1.4883 1.1094,-2.2891 0.89453,-3.1875 0.73047,-6.5781 -0.47656,-9.6641 -2.0078,-4.9141 -4.4805,-9.6328 -7.375,-14.082 -1.9688,-3.3398 -2.8281,-5.3359 -2.5117,-5.5312 0.31641,-0.19141 1.7148,1.3984 4.2266,4.3242 3.7031,4.1914 6.8047,8.8789 9.2227,13.926 1.7773,3.8789 2.1797,8.25 1.1406,12.395 -0.35156,1.1641 -0.84375,2.2852 -1.4609,3.3359 l -0.79688,1.3125 -0.0312,0.06641 -0.125,0.1875 -0.0312,0.03516 -0.0664,0.09375 -0.1875,0.19141 -0.32031,0.37891 -0.69922,0.76562 c -2.0117,1.7578 -4.4609,2.9414 -7.0859,3.4297 -5.0898,0.93359 -10.328,0.69141 -15.312,-0.69922 -2.7656,-0.59375 -5.4062,-1.6797 -7.7891,-3.207 -2.3672,-1.6406 -4.4531,-3.6602 -6.168,-5.9766 -3.1758,-4.3398 -5.7109,-9.1172 -7.5352,-14.18 -1.7695,-4.5859 -3.1406,-9.3203 -4.0977,-14.145 -0.97656,-4.4961 -1.1367,-9.1367 -0.47266,-13.691 z m -41.77,55.41 c -2.4258,0.84375 -4.9648,1.3242 -7.5312,1.4297 -1.2539,0.004 -2.5039,-0.0586 -3.75,-0.1875 l -1.625,-0.22266 -0.37891,-0.0664 c -0.20312,-0.0273 -0.40625,-0.0703 -0.60547,-0.12891 l -0.82812,-0.22266 h 0.004 c -4.1133,-0.972656 -7.9766,-2.792996 -11.352,-5.335896 -2.8438,-2.1367 -5.0781,-4.9883 -6.4688,-8.2656 -1.0039,-2.4258 -1.5039,-5.0312 -1.4727,-7.6562 0.0977,-4.293 1.0156,-6.3281 1.3125,-6.3281 0.4375,0 0.22266,2.3828 0.79297,6.1641 l -0.004,0.0039 c 0.66797,5.3203 3.6367,10.082 8.1211,13.027 3.0781,2.0117 6.5273,3.3945 10.141,4.0703 l 0.73047,0.15625 c 0.0312,0 0.125,0.03516 0.19141,0.03516 l 0.41016,0.0625 1.625,0.16016 c 0.98438,0.07422 1.9688,0.08203 2.9531,0.03125 2.0664,-0.17969 4.1016,-0.64062 6.043,-1.3711 4.2109,-1.7422 7.875,-4.5859 10.613,-8.2305 2.9844,-4.0234 5.1406,-8.6016 6.3398,-13.469 1.3242,-5.0078 2.125,-10.141 2.3789,-15.312 0.40625,-4.5938 -0.21094,-9.2148 -1.8086,-13.539 -0.73828,-1.75 -1.9219,-3.2734 -3.4297,-4.4219 -1.0703,-0.67969 -2.2969,-1.0625 -3.5625,-1.1094 -1.3086,-0.42969 -2.6641,-0.6875 -4.0391,-0.76563 -0.98438,0.125 -1.9062,0.69922 -2.9219,0.92188 -0.85937,0.16406 -1.6836,0.45703 -2.4492,0.875 -0.77344,0.26953 -1.5156,0.60937 -2.2227,1.0195 -4.75,2.8711 -9.1094,6.3438 -12.973,10.332 -2.8594,2.8008 -4.4492,4.375 -4.7695,4.1328 -0.25391,-0.19141 0.76562,-2.2266 3.2109,-5.5352 3.457,-4.7656 7.7188,-8.8984 12.586,-12.207 3.6562,-2.3984 7.9336,-3.6797 12.305,-3.6836 2.6133,0.0039 5.1758,0.73047 7.4062,2.0977 2.3164,1.5625 4.1602,3.7227 5.3438,6.2539 2.0547,5.0156 2.9531,10.426 2.625,15.836 -0.21094,5.5625 -1.043,11.082 -2.4805,16.461 -1.3828,5.5781 -3.9062,10.805 -7.4102,15.355 -3.3711,4.3594 -7.8906,7.6914 -13.051,9.6328 z"
       id="path97"
       style="fill:#ffffff;fill-opacity:1" />
    <path
       d="m 204.35,355.53 -1.3125,1.0195 1.3125,1.625 c 0.32422,0.40625 0.65234,0.81641 0.99609,1.1914 l 0.98047,1.0664 1.1758,-0.84375 v -0.004 c 6.1367,-3.8438 12.953,-6.4648 20.082,-7.7188 5.8125,-1.1992 11.469,-3.0547 16.863,-5.5352 1.8672,-0.93359 4.2969,-2.0156 7.043,-3.2383 11.305,-5.0391 26.797,-11.938 33.301,-21.289 l 3.3164,-4.7656 -5.3359,2.3398 c -7.2852,3.1836 -14.875,6.0312 -22.219,8.7891 -9.1875,3.4492 -18.695,7 -28.102,11.453 -9.9141,4.2773 -19.332,9.6133 -28.102,15.91 z"
       id="path99"
       style="fill:#ffffff;fill-opacity:1" />
    <path
       d="m 439.42,527.15 c -13.414,-2.5195 -26.543,-4.1914 -39.812,2.832 l -0.22266,0.11719 c -0.55078,0.30469 -1.1094,0.60938 -1.7148,0.91016 l -6.3789,3.1875 7.125,-0.082 c 14.773,-0.17188 28.938,-0.96094 40.836,-1.7188 l 1.5391,-0.10156 -0.0312,-4.8984 z"
       id="path101"
       style="fill:#ffffff;fill-opacity:1" />
    <path
       d="m 415.05,522.38 h 0.13281 c 7.8945,0.0937 15.766,0.83984 23.539,2.2305 l 1.9609,0.33984 -0.0352,-1.9805 c -0.24219,-14.32 0.32812,-26.363 9.793,-40.18 h -0.004 c 1.4258,-1.9961 2.5234,-4.2148 3.2422,-6.5625 l 0.59375,-2.0625 -2.1406,-0.0352 0.004,0.004 c -20.312,-0.79688 -40.555,-2.7734 -60.637,-5.9258 -18.809,-2.8984 -37.758,-4.8477 -56.766,-5.8398 l -1.3945,-0.0469 -0.26953,1.3711 v -0.004 c -1.7188,9.7383 -2.8281,19.578 -3.3203,29.453 -0.4375,6.1992 -0.875,12.605 -1.6562,18.855 l -0.22266,1.8555 2.8086,-0.0234 -0.004,0.004 c 9.4883,-0.66406 19.016,0.41016 28.117,3.1719 4.1016,1.7109 7.9766,3.9141 11.547,6.5625 2.8398,2.0312 5.8125,3.8633 8.9023,5.4883 2.2891,1.1641 4.8203,1.7617 7.3867,1.75 5.2461,-0.41016 10.352,-1.9023 14.996,-4.375 4.1562,-2.2422 8.7227,-3.6211 13.426,-4.0508 z"
       id="path103"
       style="fill:#ffffff;fill-opacity:1" />
    <path
       d="m 570.84,476.85 c -0.0547,0.25781 -0.12891,0.51172 -0.22266,0.76172 -0.57422,1.5898 -1.1758,3.2422 -1.7812,4.8945 h 0.004 c -4.2617,11.309 -10.578,21.73 -18.625,30.742 -1.7188,1.6836 -3.2773,3.1445 -4.6406,4.375 h -0.004 c -1.168,1.0312 -2.4375,1.9453 -3.7812,2.7344 -2.1602,1.3359 -3.5,1.9062 -3.7812,1.5898 -0.28125,-0.32031 0.50781,-1.5898 2.1602,-3.5 0.76172,-1.0156 2.0352,-2.0352 2.9883,-3.5 1.0469,-1.3984 2.2227,-2.957 3.5586,-4.6094 v -0.004 c 6.5977,-9.3516 12.012,-19.484 16.117,-30.168 0.57422,-1.5898 1.1758,-3.1133 1.75,-4.6367 0.50781,-1.5273 0.95312,-3.0625 1.4297,-4.582 0.22266,-0.73047 0.4375,-1.4922 0.69922,-2.2227 0.125,-0.4375 0.31641,-1.4609 0.47656,-2.1289 0.34375,-1.5273 0.69531,-3.0195 1.0156,-4.4805 0.42969,-1.6055 0.72266,-3.2422 0.875,-4.8945 -1.0156,-9.8867 -1.9688,-17.578 -2.1875,-20.027 -2.4492,-24.727 -7.6602,-53.18 -27.688,-69.898 -21.105,2.2266 -43.863,6.0742 -56.703,25.238 -8.8086,13.094 -12.75,28.512 -17.996,43.266 -0.0312,0.0312 -0.0625,0.0625 -0.0625,0.0937 v -0.004 c -0.004,0.71875 -0.14453,1.4297 -0.41406,2.0977 -4.5781,10.68 -3.2109,17.324 -1.0156,27.176 0.82812,-0.95312 1.6523,-1.9062 2.4141,-2.7344 v 0.004 c 3.3867,-3.6055 6.3828,-7.5586 8.9336,-11.793 1.6484,-3.0234 2.543,-4.8633 3.0195,-4.7383 0.37891,0.0977 0.31641,2.1602 -0.73047,5.7539 -1.8047,4.9297 -4.3906,9.5352 -7.6602,13.637 -1.6836,2.2578 -3.4648,4.5781 -5.2148,7.0586 -0.22656,2.4453 -0.90625,4.8281 -2.0039,7.0273 -2.4336,3.8906 -5.0625,7.6562 -7.875,11.281 -0.69531,1.6836 -1.4258,3.3672 -2.2539,5.1484 -0.16016,0.28516 -0.28906,0.57422 -0.41406,0.875 6.6523,-7.457 14.273,-13.988 22.664,-19.418 10.523,-6.6094 17.797,-7.8516 18.051,-7.25 0.4375,0.92188 -6.5625,3.8164 -15.543,10.871 -10.758,8.3867 -20.203,18.332 -28.035,29.5 -0.22266,6.5625 0.125,13.16 0.35156,19.77 10.395,-0.63281 20.82,-1.2734 31.281,-1.7148 4.1953,-7.0273 8.1367,-13.637 11.73,-19.648 4.0703,-7.0586 8.3555,-13.25 11.73,-18.34 7.3125,-9.6953 12.297,-15 12.871,-14.59 0.69922,0.47656 -3.2422,6.6445 -9.5977,16.945 -2.832,5.3438 -6.5156,11.348 -10.297,18.691 -2.7031,5.1797 -5.8203,10.777 -9.1211,16.625 6.9297,-0.22266 14,-0.35156 21.043,-0.41016 l -0.008,-0.004 c 1.875,-1.1016 3.6367,-2.3906 5.25,-3.8477 l 1.3984,-1.3359 0.19141,-0.15625 0.0625,-0.0664 0.0312,-0.0312 0.22266,-0.28516 0.66797,-0.875 c 0.82812,-1.1172 1.6836,-2.2266 2.543,-3.3086 1.7812,-2.1602 3.0625,-4.375 4.4844,-6.4844 2.7969,-4.1953 5.3086,-8.6797 7.875,-12.586 1.3398,-2.0039 2.4805,-3.8789 3.8164,-5.7891 1.3125,-1.75 2.5469,-3.4297 3.7539,-5.0234 4.9883,-6.3555 9.1211,-11.254 11.812,-14.75 2.543,-3.5625 4.1641,-5.5 4.582,-5.2773 0.41406,0.22266 -0.47656,2.5117 -2.4805,6.6094 v 0.008 c -3.0898,5.5078 -6.4766,10.848 -10.141,15.992 -1.082,1.6836 -2.2266,3.4297 -3.3984,5.25 -1.082,1.8438 -2.1875,3.7812 -3.3398,5.7539 -2.3828,4.0352 -4.582,8.3906 -7.5352,13.062 -1.3711,2.4023 -2.8789,4.7266 -4.5117,6.9609 -0.82812,1.1094 -1.6523,2.2266 -2.4805,3.3672 l -0.63281,0.82812 -0.32031,0.4375 -0.1875,0.25391 -0.0664,0.0312 -0.0977,0.0977 -0.21875,0.22266 -0.875,0.875 c 15.102,-0.0664 30.039,0.0977 44.09,0.125 0.84766,-0.37891 1.7852,-0.5 2.6992,-0.35156 7.5781,1.1172 7.1758,-25.742 5.2969,-50.566 z m -22.535,-12.781 c -11.766,3.6211 -33.727,-3.4023 -43.199,-10.332 -12.973,-9.4727 -21.438,-31.148 -27.562,-45.324 -0.52734,-1.1992 -0.21484,-2.6016 0.76562,-3.4648 0.16016,-0.40234 0.41016,-0.76172 0.73438,-1.0508 16.758,-14.645 37.758,-23.555 59.938,-25.43 0.49219,-0.36719 1.1133,-0.51953 1.7188,-0.41797 0.60547,0.10547 1.1445,0.44922 1.4922,0.96094 11.219,14.336 22.059,32.551 22.059,51.465 -0.0195,12.391 -2.3711,29.434 -15.945,33.598 z"
       id="path105"
       style="fill:#ffffff;fill-opacity:1" />
    <path
       d="m 544.39,404.31 1.793,-3.0625 -3.5,0.59375 c -21.043,3.5938 -40.574,11.422 -52.254,20.949 l -1.0508,0.875 0.64453,1.1953 c 2.7773,5.168 5.7266,10.199 8.75,14.949 l -0.004,-0.004 c 3.043,4.9414 7.2148,9.0859 12.176,12.094 l 1.6406,0.98047 0.71875,-1.7734 c 0.0391,-0.0781 0.0664,-0.16797 0.0742,-0.25781 4.9492,-8.4297 10.344,-16.59 16.156,-24.445 5.0938,-7.0938 10.344,-14.434 14.855,-22.094 z"
       id="path107"
       style="fill:#ffffff;fill-opacity:1" />
    <path
       d="m 326.38,517.92 c -0.95703,-0.0117 -1.8438,-0.50781 -2.3594,-1.3164 -0.51172,-0.80859 -0.58203,-1.8203 -0.18359,-2.6914 0,-0.0625 -0.0352,-0.125 -0.0352,-0.22266 1.0508,-7.3125 1.5586,-14.652 2.0703,-21.992 v -0.004 c -0.80859,-11.781 -0.42578,-23.613 1.1406,-35.316 1.4297,-10.398 4.207,-20.57 8.2617,-30.25 3.375,-7.25 6.2305,-11.223 7,-10.938 0.875,0.37891 -0.54297,5.1484 -2.7656,12.621 -2.6133,9.6953 -4.6602,19.535 -6.125,29.465 -0.0664,0.32031 -0.0976,0.60547 -0.125,0.875 36.047,1.082 102.45,9.2539 119.39,11.414 h -0.004 c -0.28125,-2.1875 -0.70703,-4.3516 -1.2656,-6.4844 -2.1016,-4.0703 -4.418,-7.9141 -6.5625,-11.602 v -0.004 c -3.0195,-4.8711 -5.4727,-10.074 -7.3125,-15.504 -1.2266,-3.6875 -1.7969,-7.5625 -1.6836,-11.445 0.22266,-2.625 0.66406,-4.0352 1.0156,-4.0352 0.41406,0 0.73047,1.4258 1.1758,3.9727 0.74609,3.457 1.8438,6.8281 3.2734,10.062 2.3398,4.9102 5.0938,9.6094 8.2344,14.051 0.11719,0.22266 0.25781,0.4375 0.41406,0.63672 -0.44141,-6.8789 -0.50781,-13.777 -0.19141,-20.664 0.25391,-7.8516 0.0312,-15.195 0.22266,-21.23 0.22266,-12.176 0.82812,-19.688 1.7148,-19.688 0.88668,0 1.9062,7.4727 2.832,19.582 0.41016,6.125 1.082,13.191 1.1406,21.391 0.0351,1.1172 0.0351,2.293 0.0351,3.4336 5.3359,-15.254 9.5039,-32.93 19.613,-46.023 -22.562,-12.797 -44.277,-27.027 -65.008,-42.609 -7.5352,-5.9102 -10.582,-11.281 -10.137,-16.941 -20.504,23.422 -40.688,46.09 -54.105,74.543 -1.3125,2.8594 -5.082,1.1406 -5.2109,-1.4961 -0.0664,-0.125 -0.19141,-0.1875 -0.25391,-0.35156 -3.4023,-7.5625 -8.5195,-14.242 -11.922,-21.773 1.4297,25.559 -6.5625,52.961 -10.902,77.848 -4.4844,25.621 -2.9219,51.969 -8.0117,77.465 22.793,0 45.582,-0.0977 68.371,-0.125 -4.0039,-2.3555 -7.5312,-5.3711 -11.949,-7.8164 -12.398,-6.9023 -26.035,-6.8359 -39.793,-6.8359 z m 37.094,-120.57 c 6.6094,-4.6719 15.195,-3.8438 22.887,-3.75 5.3711,-6.125 12.207,-10.812 17.453,-17.062 0.26172,-0.32812 0.60156,-0.58984 0.98438,-0.76172 0.57422,-0.50781 1.3594,-0.69922 2.1016,-0.51563 0.74219,0.18359 1.3477,0.72266 1.6172,1.4375 2.8594,6.4805 5.3008,13.137 7.3086,19.93 8.1719,1.2734 15.863,4.293 23.969,5.9766 h 0.004 c 0.82422,0.16797 1.5156,0.73047 1.8477,1.5039 0.33594,0.76953 0.27344,1.6562 -0.16406,2.375 0.082,1.0039 -0.48047,1.9453 -1.3984,2.3516 -7.8477,3.4219 -15.441,7.3945 -22.73,11.891 2.9258,7.6914 1.625,16.238 4.5781,24.027 0.48438,1.0898 0.0586,2.3711 -0.98438,2.957 -0.66406,0.80469 -1.7188,1.1719 -2.7344,0.95312 -9.9492,-2.0352 -17.062,-10.105 -25.457,-15.195 -7.1055,4.4297 -14.816,7.8047 -22.891,10.016 -1.1172,0.28125 -2.293,-0.125 -2.9961,-1.0352 -0.70312,-0.91016 -0.80078,-2.1523 -0.24609,-3.1602 0.25391,-0.47656 0.47656,-0.98438 0.73047,-1.4961 -0.23828,-0.4375 -0.34766,-0.93359 -0.31641,-1.4297 0.43359,-5.6602 1.918,-11.191 4.375,-16.309 0.0976,-0.66797 0.15625,-1.3125 0.19141,-1.9688 0.10938,-1.2578 1,-2.3125 2.2227,-2.625 -4.6133,-3.7344 -8.4102,-8.375 -11.156,-13.637 -0.23047,-0.42969 -0.35156,-0.91016 -0.34766,-1.3984 -0.29297,-1.1641 0.16406,-2.3867 1.1484,-3.0742 z"
       id="path109"
       style="fill:#ffffff;fill-opacity:1" />
    <path
       d="m 559.12,421.9 c -1.6172,-7.0898 -4.082,-13.957 -7.3438,-20.453 l -1.3789,-2.7773 -1.418,-2.457 v -0.004 c -2.6172,-4.5195 -5.5234,-8.8711 -8.6992,-13.02 l -0.55859,-0.73828 -0.92187,0.10547 c -20.871,1.8203 -40.633,10.18 -56.477,23.883 l -0.875,0.79688 0.48047,1.0898 c 1.5273,3.418 3.2422,7.0234 5.4102,11.348 l 0.875,1.7852 1.5742,-1.2188 c 13.504,-10.457 35.172,-18.52 57.75,-21.559 h 2.8086 l -1.4844,2.7227 0.004,-0.004 c -5.1641,9.0195 -10.859,17.727 -17.062,26.066 -5.8438,7.8828 -11.266,16.07 -16.25,24.523 l -1.5938,1.5938 2.3047,0.92188 h 0.004 c 4.4531,1.6719 9.0352,2.9883 13.695,3.9375 l 1.4531,0.32812 c 3.5742,0.94922 7.2422,1.4961 10.938,1.6406 6.3945,0 12.473,-2.5625 15.383,-12.617 2.6914,-8.3672 3.168,-17.289 1.3828,-25.895 z"
       id="path111"
       style="fill:#ffffff;fill-opacity:1" />
    <path
       d="m 378,413.63 c 0.44531,0.25 0.66406,0.77344 0.52344,1.2656 l -0.0586,0.26562 0.0351,0.26562 0.004,0.004 c 0.0273,0.21094 -0.0234,0.42969 -0.14453,0.60547 -1.0703,1.5898 -2.0352,3.2461 -2.8828,4.9609 l -0.15625,0.55469 -0.004,0.004 c -0.40625,4.7773 -1.3281,9.5 -2.75,14.082 l -1.0781,3.1992 3.1836,-1.1328 h 0.004 c 5.9961,-2.1562 11.742,-4.9648 17.129,-8.375 0.23828,-0.22656 0.60156,-0.25781 0.875,-0.0742 l 0.40234,0.20703 0.4375,-0.0274 c 0.22266,-0.0156 0.44141,0.0274 0.64062,0.12891 2.8281,1.7305 5.543,3.6406 8.1289,5.7148 3.7422,3.125 7.8555,5.7695 12.25,7.875 l 2.8164,1.207 -0.55469,-3.0156 c -0.40625,-2.1875 -0.61328,-4.5 -0.80469,-6.7461 -0.10156,-4.918 -1.1992,-9.7617 -3.2305,-14.242 -0.15625,-0.30469 -0.17969,-0.66016 -0.0664,-0.98438 0.11328,-0.32031 0.35156,-0.58594 0.66406,-0.72656 l 0.39453,-0.30078 c 0.0977,-0.0976 0.17578,-0.19531 0.13672,-0.19531 l -0.004,-0.004 c 5.875,-3.9531 12.098,-7.3594 18.59,-10.176 l 3.9375,-1.8594 -7.668,-2.2148 c -4.7461,-1.5586 -9.6133,-2.7109 -14.555,-3.4375 -0.52734,-0.043 -0.97266,-0.40234 -1.125,-0.91016 l -0.20312,-0.54688 -0.46484,-0.30469 h 0.004 c -0.20703,-0.125 -0.35156,-0.32422 -0.40234,-0.55859 -1.4648,-5.207 -3.25,-10.324 -5.3477,-15.312 l -0.94141,-2.293 -1.75,1.75 c -1.957,1.9805 -4.0391,3.8516 -6.125,5.7148 -3.3164,2.8438 -6.4336,5.9141 -9.3281,9.1875 -0.15625,0.25 -0.44531,0.37891 -0.73438,0.33203 l -1.0234,0.13672 c -1.125,0 -2.2695,-0.043 -3.4414,-0.082 -5.1641,-0.56641 -10.391,0.0664 -15.27,1.8516 l -1.6562,0.76172 0.93359,1.5664 -0.004,-0.004 c 2.5859,4.7422 6.2461,8.8086 10.684,11.883 z"
       id="path113"
       style="fill:#ffffff;fill-opacity:1" />
    <path
       d="m 257.2,461.56 0.4375,-1.543 -1.543,-0.4375 h -0.004 c -17.648,-4.6992 -36.078,-5.7148 -54.137,-2.9805 l -1.457,0.1875 0.0274,1.4648 c 0.15625,9.75 1.2812,19.574 2.3672,29.078 l 0.62891,5.5664 c 0.4375,4.0977 0.75,8.2852 1.043,12.496 l 0.37891,5.25 1.1562,0.28516 v -0.004 c 1.2031,0.31641 2.4375,0.48828 3.6797,0.50781 3.3242,-0.21484 6.457,-1.6211 8.8203,-3.9688 1.7305,-1.418 3.6758,-2.5508 5.7617,-3.3594 5.2461,-1.8008 10.914,-1.9805 16.266,-0.51562 0.60547,0.15625 1.1992,0.34766 1.7812,0.57031 2.1484,0.76562 4.582,1.6484 6.3945,0.54297 0.91797,-0.57812 1.5117,-1.5469 1.6172,-2.625 l 0.39453,-2.625 c 0.69922,-4.6758 1.4062,-9.3711 1.9961,-14.051 h -0.004 c 0.94531,-8.0352 2.4102,-15.996 4.3945,-23.84 z"
       id="path115"
       style="fill:#ffffff;fill-opacity:1" />
    <path
       d="m 242.45,506.51 c -2.5547,-0.80469 -5.1992,-1.3047 -7.875,-1.4883 -7.2109,-0.0469 -14.117,2.9102 -19.059,8.1641 -2.1484,2.0312 -5.375,2.4141 -7.9414,0.94922 l -2.4219,-0.83594 0.25781,2.5508 h -0.004 c 0.48828,5.293 1.4336,10.535 2.8164,15.668 l 0.32422,1.1445 1.1953,0.0469 c 10.867,0.40234 22.352,0.72266 36.137,1.0156 l 1.668,0.0351 v -1.6719 c 0,-3.8867 0.0664,-7.7773 0.10938,-11.668 0.0469,-3.7695 0.0977,-7.5391 0.11328,-11.309 v -1.3516 l -1.3125,-0.26562 c -1.3516,-0.25781 -2.6758,-0.62109 -4.0078,-0.98438 z"
       id="path117"
       style="fill:#ffffff;fill-opacity:1" />
    <path
       d="m 301.2,375.29 c -0.28516,-0.42578 -0.44922,-0.92187 -0.47656,-1.4336 -0.27344,-2.8047 -1.1875,-5.5117 -2.6719,-7.9141 -0.79297,1.3633 -1.5586,2.7305 -2.2227,4.0703 -3.3398,6.4531 -6.6133,14 -13.414,17.289 -0.8125,0.77344 -2.0078,0.98828 -3.0391,0.54688 -1.0312,-0.44531 -1.6992,-1.457 -1.6992,-2.582 0.26562,-5.3594 1.5391,-10.621 3.75,-15.508 3.875,-9.2461 6,-19.129 6.2656,-29.152 0.35156,-5.625 0.66406,-11.254 0.875,-16.879 -4.9258,7.3125 -14.465,11.508 -22.348,15.797 -9.0898,4.9258 -18.785,11.535 -28.797,14.367 -9.4766,2.7031 -20.25,2.9883 -28.227,9.4102 v 0.004 c -0.14062,0.0859 -0.28516,0.16016 -0.4375,0.21875 -0.0859,0.20703 -0.20312,0.40234 -0.35156,0.57422 -1.1406,1.082 -2.9297,1.082 -4.0664,0 -1.25,-1.0625 -2.3789,-2.2539 -3.3711,-3.5586 -4.2422,3.8008 -7.4922,8.5781 -9.4727,13.922 -0.10547,0.35547 -0.25,0.69531 -0.4375,1.0156 -0.0312,0.59375 -0.17188,1.1758 -0.41016,1.7188 -2.2461,4.7031 -5.0781,9.1016 -8.4258,13.094 -4.7969,6.3242 -8.5703,13.359 -11.188,20.852 -4.1406,9.1836 -9.4336,17.805 -15.75,25.656 -0.1875,0.28125 -0.41406,0.53516 -0.66797,0.76172 -1.5586,33.25 -17.387,63.035 -26.285,94.633 8.7734,-0.63281 17.543,-0.95312 26.32,-1.0508 1.3633,-0.28516 2.7344,-0.60547 4.1289,-0.98438 v -0.004 c -1.5781,-2.0625 -3.0312,-4.2148 -4.3516,-6.4531 -2.0859,-3.9766 -3.3516,-8.332 -3.7188,-12.809 -0.71875,-4.2734 -0.68359,-8.6406 0.0937,-12.906 0.22656,-1.0977 0.54297,-2.1719 0.95312,-3.2109 l 0.66406,-1.5586 0.0977,-0.1875 0.1875,-0.37891 c 0.0664,-0.0664 0.25781,-0.35156 0.25781,-0.35156 l 0.37891,-0.57422 h 0.004 c 0.58984,-0.88672 1.25,-1.7227 1.9688,-2.5117 0.60547,-0.66797 1.2422,-1.3125 1.875,-2.0039 2.1016,-1.7422 3.4297,-4.2422 3.6914,-6.957 0.125,-1.5898 0.22266,-3.0625 0.35156,-4.5469 0.125,-1.4844 -0.0352,-2.7344 -0.0352,-4.0078 -0.0625,-2.6016 -0.0937,-4.9883 -0.15625,-7.0859 h -0.004 c -0.0586,-1.8359 -0.0156,-3.6719 0.125,-5.5 0.22266,-3.0625 0.54297,-4.7031 0.98438,-4.7031 0.44141,0 0.95312,1.6172 1.4961,4.5469 0.25391,1.4609 0.60547,3.2422 0.98438,5.3438 0.37891,2.1016 0.79688,4.4492 1.1094,7.2773 l 0.004,-0.008 c 0.50781,1.8086 0.82812,3.6641 0.95312,5.5352 -0.0742,5.1289 -1.8672,10.086 -5.082,14.078 -0.57422,0.66797 -1.1445,1.3125 -1.7148,2.0039 -0.50781,0.57812 -0.96484,1.1953 -1.3711,1.8438 l -0.37891,0.60547 -0.125,0.22266 c -0.0312,0.0664 -0.41406,1.1172 -0.41406,1.1172 l -0.004,-0.004 c -0.28516,0.73047 -0.49609,1.4883 -0.63672,2.2578 -0.53516,3.5742 -0.50391,7.2109 0.0977,10.777 0.26953,3.7188 1.2539,7.3555 2.8906,10.707 1.6523,3.0625 4.0977,6.168 6.043,9.4727 l 0.50781,0.875 c 12.395,0.0625 24.762,0.31641 37.156,0.37891 v 0.004 c 0.0899,-0.0664 0.1875,-0.12109 0.28906,-0.16016 -2.082,-11.062 -3.3984,-22.258 -3.9375,-33.504 -1.2422,-11 -2.7656,-22.062 -3.3672,-33.125 v 0.004 c -0.55859,0.58984 -1.1641,1.1328 -1.8164,1.6172 l -0.15625,0.125 -0.28516,0.19141 -0.28906,0.15625 -0.53906,0.35156 c -0.50781,0.25391 -1.082,0.60547 -1.4961,0.76562 -1.4297,0.69531 -4.2578,1.0156 -5.1797,2.2891 -1.3125,1.7148 0.53906,2.8906 1.5586,4.0977 v 0.004 c 1.6406,1.9102 2.0352,4.5977 1.0195,6.8984 -0.32422,0.66406 -0.69922,1.3008 -1.1172,1.9102 -1.3047,1.6758 -2.75,3.2422 -4.3242,4.6719 -1.2266,1.082 -2.3711,2.2539 -3.4336,3.5 l -0.15625,0.1875 -0.0625,0.125 -0.35156,0.60938 -0.66797,1.1406 c -0.35938,0.65234 -0.66797,1.3359 -0.92188,2.0352 -1.6523,5.207 -1.0156,10.867 1.75,15.574 2.1875,4.6094 4.2617,8.4883 5.25,11.348 1.082,2.832 1.207,4.5781 0.875,4.7031 -0.47656,0.19141 -1.3633,-1.1719 -3.0625,-3.5586 -1.6172,-2.4141 -4.1641,-5.7227 -7.0273,-10.363 v 0.004 c -1.6484,-2.6367 -2.9102,-5.4922 -3.75,-8.4883 -0.97266,-3.7305 -0.82031,-7.668 0.4375,-11.312 0.33203,-0.96875 0.72656,-1.9141 1.1797,-2.832 l 0.63281,-1.1758 0.32031,-0.60547 0.0625,-0.15625 0.125,-0.22266 0.0664,-0.0664 0.25391,-0.37891 c 1.2266,-1.6758 2.6211,-3.2188 4.1641,-4.6094 1.2539,-1.1992 2.4258,-2.4844 3.5,-3.8477 0.25391,-0.31641 0.22266,-0.41016 0.37891,-0.60547 1.3711,-1.4297 -0.60547,-2.7656 -1.4609,-3.875 -0.46094,-0.66016 -0.81641,-1.3906 -1.0469,-2.1602 l -0.0312,-0.0977 v -0.1875 c -0.26953,-1.3789 -0.23438,-2.8008 0.0937,-4.168 0.48438,-1.668 1.6172,-3.0781 3.1484,-3.9102 1.7188,-0.79688 3.4766,-1.4961 5.2734,-2.0938 1.1719,-0.48438 2.2422,-1.1836 3.1484,-2.0703 0.0664,-0.0625 0.0664,-0.0976 0.13281,-0.15625 h -0.004 c -0.66016,-1.4844 -1.2109,-3.0156 -1.6484,-4.582 -0.81641,-0.83984 -1.6914,-1.6133 -2.625,-2.3203 -2.0938,-1.625 -4.2578,-2.9883 -6.2305,-4.2617 -4.0039,-2.4766 -7.375,-4.4492 -9.5664,-6.0664 -2.1914,-1.6172 -3.2109,-2.8906 -2.9219,-3.2109 0.289,-0.3203 1.5898,0.22266 4.0703,1.1094 2.4805,0.88672 6.0664,2.2891 10.5,4.375 1.7188,0.79297 3.5625,1.7773 5.4688,2.8906 l -0.004,0.004 c -0.004,-0.16016 -0.0273,-0.32031 -0.0664,-0.47656 -0.4375,-4.582 -0.41016,-8.8359 -0.57031,-12.781 -0.28906,-3.9727 -0.54297,-7.7578 -0.79688,-11.254 -0.35156,-3.5312 -0.66797,-6.7734 -0.98437,-9.7266 -1.3125,-12.078 -0.875,-19.688 -0.125,-19.688 0.95312,0 2.0664,7.25 4.4805,19.008 0.57422,3.0195 1.1758,6.3281 1.8125,9.8867 0.51172,3.5938 0.98828,7.2148 1.3984,11.41 0.37891,4.5469 0.54297,9.3125 1.207,14 0.125,-2.1602 0.22266,-4.418 0.50781,-6.7383 0.54297,-4.4531 0.82812,-8.9336 1.1758,-13.195 l 0.004,0.008 c 0.39453,-7.6992 1.418,-15.355 3.0625,-22.887 1.1641,-5.2227 3.2734,-10.191 6.2148,-14.66 0.78906,-1.207 1.7422,-2.3008 2.832,-3.2422 0.73047,-0.64062 1.207,-0.875 1.3633,-0.76562 0.1563,0.10938 0.0664,0.66797 -0.32031,1.5586 h 0.004 c -0.64844,1.2109 -1.2305,2.4531 -1.75,3.7227 -1.8789,4.5664 -3.1836,9.3516 -3.8828,14.238 -0.75781,5.418 -1.2344,10.871 -1.4258,16.336 0.66406,-1.5859 1.3633,-3.207 2.0938,-4.8633 1.6523,-3.7188 3.4648,-7.5625 5.3086,-11.535 0.92188,-1.9688 1.8477,-3.9727 2.8008,-6.0391 l 0.66406,-1.5273 0.35156,-0.76562 0.28906,-0.60547 0.21875,-0.37891 c 0.54297,-1.0156 1.0859,-2.0352 1.625,-3.0625 0.53906,-1.0273 1.1094,-2.0352 1.6523,-3.0625 h -0.004 c 0.52734,-1.0469 1.1406,-2.0469 1.8438,-2.9883 1.4297,-1.9727 2.832,-3.9102 4.2305,-5.7852 1.3984,-1.8711 3.0625,-3.375 4.5469,-4.9922 0.76172,-0.79688 1.4609,-1.5898 2.2539,-2.3203 l 2.3555,-2.0703 -0.004,0.004 c 2.8984,-2.6055 5.9336,-5.0586 9.0898,-7.3398 2.8906,-2.2266 5.625,-4.0977 8.1367,-5.8477 9.9805,-6.9609 15.926,-11.535 16.625,-10.805 0.54297,0.57031 -4.4492,6.418 -13.828,14.398 -4.6055,4.0039 -10.391,8.457 -15.984,13.922 -0.69922,0.69922 -1.4297,1.3711 -2.1602,2.0703 -0.73047,0.69922 -1.3125,1.4922 -2.0352,2.2227 -1.3125,1.5586 -2.8008,3.0195 -4.0703,4.6719 -1.1758,1.6523 -2.3828,3.3672 -3.6211,5.0898 v -0.008 c -0.65625,0.89062 -1.2344,1.8359 -1.7188,2.8281 l -1.6172,3.0625 c -0.57422,1.0508 -1.1172,2.0664 -1.6523,3.0625 l -0.22266,0.37891 h -0.004 c -0.0156,0.0469 -0.0391,0.0898 -0.0664,0.12891 l -0.35156,0.79687 -0.70312,1.5859 c -0.98438,2.0664 -1.9688,4.0977 -2.9219,6.1016 -1.9414,3.9102 -3.8164,7.6836 -5.625,11.312 -3.4023,6.8398 -6.1992,13.031 -8.2656,18.473 -0.0664,1.1406 -0.125,2.2891 -0.25391,3.4648 -0.35156,3.0625 -0.28906,6.4844 -0.66797,10.203 18.957,-2.8203 38.297,-1.5742 56.738,3.6602 0.23047,0.0742 0.44922,0.19141 0.63672,0.34766 0.78125,0.0976 1.4727,0.54297 1.8906,1.207 0.41797,0.66406 0.51953,1.4805 0.27344,2.2227 -3.3398,13.496 -5.7305,27.211 -7.1562,41.039 -0.35156,2.2891 -0.73047,6.125 -2.832,7.7578 -0.0312,7.8164 -0.1875,15.641 -0.22266,23.488 0.51172,0 0.98828,0 1.4961,0.0352 8.1992,-30.738 15.895,-61 22.156,-92.215 4.6523,-23.27 11.008,-45.961 25.887,-64.746 z"
       id="path119"
       style="fill:#ffffff;fill-opacity:1" />
    <path
       d="m 201.27,154.3 c 12.027,6.125 26.215,7.0938 39.938,8.0234 6.4648,0.4375 12.574,0.84375 18.461,1.75 l 5.7227,0.90625 c 26.07,4.8281 52.484,7.5938 78.988,8.2695 1.4961,0 2.9922,-0.0117 4.4922,-0.0391 16.141,-0.28906 32.375,-1.7109 48.086,-3.0625 8.6641,-0.75781 17.324,-1.5195 26.027,-2.1016 13.492,-0.52734 26.906,-2.2852 40.078,-5.25 l 2.0508,-0.49609 c 6.0742,-1.4453 13.633,-3.2422 17.824,-7.9883 v 0.004 c 1.7422,-1.7031 2.4336,-4.2109 1.8125,-6.5625 -1.9805,-7.1016 -16.062,-11.777 -18.863,-12.645 -14.328,-4.2031 -29.062,-6.8438 -43.957,-7.875 l -2.4336,-0.21094 1.3125,4.1211 c 2.0625,6.3945 3.8438,11.918 -1.4297,16.336 -5.7969,4.8828 -14.875,6.8047 -22.895,8.4922 l -4.1641,0.875 0.0312,1.3516 c -0.0352,1.2383 -0.68359,2.375 -1.7305,3.0312 -7.0625,5.5742 -22.75,1.918 -32.074,-5.0781 l -1.5977,-1.1992 -0.875,1.793 h 0.004 c -0.34375,0.75391 -0.81641,1.4375 -1.3945,2.0273 -3.1484,3.3672 -8.1953,4.1367 -12.203,1.8633 l -0.67969,-0.41406 -0.75,0.28125 0.004,-0.004 c -7.5977,3.0703 -15.809,4.3242 -23.977,3.6641 -5.6289,-0.73047 -7.6484,-2.1367 -8.3516,-3.1836 v -0.004 c -0.41016,-0.61328 -0.51562,-1.3789 -0.28516,-2.082 l 0.57422,-2.4414 -1.75,-0.20703 c -12.527,-1.4727 -46.812,-9.0078 -49.781,-17.254 h -0.004 c -0.45703,-1.3125 -0.0586,-2.7734 1,-3.6719 l 0.99609,-0.875 0.0273,-0.62891 v -0.004 c 0.10547,-1.875 0.0977,-3.7539 -0.0273,-5.6289 l -0.64453,-1.6719 -1.75,0.27734 h 0.004 c -10.527,0.97656 -20.98,2.5859 -31.312,4.8125 -6.8594,1.5586 -29.312,7.2461 -30.32,15.238 -0.36719,2.8125 1.5977,5.3047 5.8164,7.4609 z"
       id="path121"
       style="fill:#ffffff;fill-opacity:1" />
    <path
       d="m 313.84,454 c 1.0352,-5.6562 2.2383,-11.48 3.4688,-17.398 4.082,-19.688 8.3125,-40.004 7.2656,-59.211 l -0.11719,-2.2617 -2.1094,0.82422 v -0.004 c -4.3711,1.1641 -8.9648,1.2422 -13.375,0.23047 l -2.9922,-0.37891 -0.57422,0.69141 c -19.133,23.035 -24.477,53.938 -28.773,78.773 -3.6602,21.066 -9.4805,41.906 -15.102,62.055 -1.3477,4.8516 -2.7031,9.6992 -4.0312,14.562 l -0.55469,2.0391 2.1133,0.0312 c 13.445,0.20312 27.695,0.3125 44.84,0.35156 h 1.3398 l 0.26953,-1.3125 -0.004,-0.004 c 2.5391,-13.762 4.0742,-27.691 4.5859,-41.676 0.51562,-12.5 1.7695,-24.961 3.75,-37.312 z"
       id="path123"
       style="fill:#ffffff;fill-opacity:1" />
    <path
       d="m 284.58,149.28 c 7.4844,2.0391 15.09,3.5938 22.773,4.6562 l 0.55859,0.23438 0.57813,-0.18359 0.004,0.004 c 2.7578,-0.94531 5.4453,-2.0898 8.0391,-3.4297 l 5.9844,-2.918 -6.6445,-0.20703 c -20.188,-0.59375 -40.371,-2.625 -51.281,-13.297 l -2.1875,-2.1562 -0.55859,3.0312 c -0.043,0.32031 -0.22656,0.59766 -0.50391,0.76172 l -0.4375,0.27734 -0.21094,0.48047 c -0.0703,0.15234 -0.15234,0.29688 -0.17969,0.33984 l -0.73047,0.96875 0.26562,0.91406 c 0.96875,3.5234 23.988,10.371 24.531,10.523 z"
       id="path125"
       style="fill:#ffffff;fill-opacity:1" />
  </g>
</svg>
