<?xml version="1.0" encoding="UTF-8" standalone="no"?>
<svg
   width="593"
   height="593"
   version="1.1"
   viewBox="0 0 444.75 444.75"
   id="svg2513"
   sodipodi:docname="Religious world.svg"
   inkscape:export-filename="Religious world.png"
   inkscape:export-xdpi="8.0900002"
   inkscape:export-ydpi="8.0900002"
   inkscape:version="1.2.2 (b0a8486541, 2022-12-01)"
   xmlns:inkscape="http://www.inkscape.org/namespaces/inkscape"
   xmlns:sodipodi="http://sodipodi.sourceforge.net/DTD/sodipodi-0.dtd"
   xmlns="http://www.w3.org/2000/svg"
   xmlns:svg="http://www.w3.org/2000/svg">
  <sodipodi:namedview
     id="namedview2515"
     pagecolor="#ffffff"
     bordercolor="#666666"
     borderopacity="1.0"
     inkscape:showpageshadow="2"
     inkscape:pageopacity="0.0"
     inkscape:pagecheckerboard="true"
     inkscape:deskcolor="#d1d1d1"
     inkscape:document-units="pt"
     showgrid="false"
     inkscape:zoom="0.62124382"
     inkscape:cx="295.37517"
     inkscape:cy="482.90219"
     inkscape:window-width="1920"
     inkscape:window-height="1003"
     inkscape:window-x="0"
     inkscape:window-y="27"
     inkscape:window-maximized="1"
     inkscape:current-layer="svg2513" />
  <defs
     id="defs2415">
    <symbol
       id="x"
       overflow="visible">
      <path
         d="M 3.75,-0.21875 C 3.55078,-0.125 3.34766,-0.05078 3.14062,0 2.92968,0.050781 2.71093,0.078125 2.48437,0.078125 c -0.67969,0 -1.2148,-0.1875 -1.6094,-0.5625 -0.39844,-0.38281 -0.59375,-0.89844 -0.59375,-1.5469 0,-0.65625 0.19531,-1.1719 0.59375,-1.5469 0.39453,-0.38281 0.92969,-0.57812 1.6094,-0.57812 0.22656,0 0.44531,0.027344 0.65625,0.078125 0.20703,0.054687 0.41016,0.13281 0.60938,0.23438 v 0.84375 C 3.55078,-3.13285 3.35938,-3.23442 3.17188,-3.29692 2.98438,-3.35942 2.78516,-3.39067 2.57813,-3.39067 c -0.375,0 -0.67188,0.12109 -0.89062,0.35938 -0.21875,0.24219 -0.32812,0.57422 -0.32812,1 0,0.41797 0.10938,0.74609 0.32812,0.98438 0.21875,0.24219 0.51562,0.35938 0.89062,0.35938 0.20703,0 0.40625,-0.03125 0.59375,-0.09375 0.1875,-0.0625 0.37891,-0.15625 0.57812,-0.28125 z"
         id="path2343" />
    </symbol>
    <symbol
       id="c"
       overflow="visible">
      <path
         d="M 2.75,-2.2188 C 2.65625,-2.257862 2.56641,-2.289112 2.48438,-2.31255 2.398443,-2.332081 2.31641,-2.3438 2.23438,-2.3438 c -0.25,0 -0.44531,0.085938 -0.57812,0.25 -0.13672,0.15625 -0.20312,0.38672 -0.20312,0.6875 V -1e-4 H 0.46876 v -3.0625 h 0.98438 v 0.5 c 0.125,-0.19531 0.26562,-0.34375 0.42188,-0.4375 0.16406,-0.09375 0.36328,-0.14062 0.59375,-0.14062 0.03125,0 0.0625,0.00781 0.09375,0.015625 0.039062,0 0.097656,0.00781 0.17188,0.015625 z"
         id="path2346" />
    </symbol>
    <symbol
       id="a"
       overflow="visible">
      <path
         d="m 3.5156,-1.5312 v 0.26562 H 1.2344 c 0.019531,0.23047 0.10156,0.40234 0.25,0.51562 0.14453,0.11719 0.34375,0.17188 0.59375,0.17188 0.20703,0 0.41406,-0.023437 0.625,-0.078125 0.21875,-0.0625 0.44141,-0.15625 0.67188,-0.28125 v 0.75 c -0.23047,0.09375 -0.46094,0.16406 -0.6875,0.20312 -0.23047,0.039062 -0.46484,0.0625 -0.70312,0.0625 -0.55469,0 -0.98438,-0.14062 -1.2969,-0.42188 -0.30469,-0.28125 -0.45312,-0.67578 -0.45312,-1.1875 0,-0.5 0.14844,-0.89062 0.45312,-1.1719 0.30078,-0.28906 0.71875,-0.4375 1.25,-0.4375 0.47656,0 0.85938,0.14844 1.1406,0.4375 0.28906,0.29297 0.4375,0.68359 0.4375,1.1719 z m -1,-0.32812 c 0,-0.1875 -0.058594,-0.33594 -0.17188,-0.45312 -0.10547,-0.11328 -0.24219,-0.17188 -0.40625,-0.17188 -0.19922,0 -0.35547,0.058594 -0.46875,0.17188 -0.11719,0.10547 -0.1875,0.25781 -0.21875,0.45312 z"
         id="path2349" />
    </symbol>
    <symbol
       id="h"
       overflow="visible">
      <path
         d="m 1.8438,-1.375 c -0.21094,0 -0.36719,0.039062 -0.46875,0.10938 -0.10547,0.0625 -0.15625,0.16406 -0.15625,0.29688 0,0.125 0.039062,0.22656 0.125,0.29688 0.082031,0.0625 0.20312,0.09375 0.35938,0.09375 0.17578,0 0.32812,-0.0625 0.45312,-0.1875 0.125,-0.13281 0.1875,-0.30078 0.1875,-0.5 V -1.37499 Z M 3.3282,-1.75 V 0 H 2.34382 v -0.45312 c -0.125,0.1875 -0.27344,0.32422 -0.4375,0.40625 -0.16797,0.082031 -0.36719,0.125 -0.59375,0.125 -0.32422,0 -0.58594,-0.085938 -0.78125,-0.26562 -0.19922,-0.1875 -0.29688,-0.42969 -0.29688,-0.73438 0,-0.35156 0.125,-0.61328 0.375,-0.78125 0.25,-0.16406 0.63281,-0.25 1.1562,-0.25 h 0.57812 v -0.078125 c 0,-0.15625 -0.0625,-0.26953 -0.1875,-0.34375 -0.11719,-0.070312 -0.30469,-0.10938 -0.5625,-0.10938 -0.21094,0 -0.40625,0.023437 -0.59375,0.0625 -0.17969,0.042969 -0.33984,0.10547 -0.48438,0.1875 v -0.75 c 0.20703,-0.039063 0.41406,-0.078125 0.625,-0.10938 0.20703,-0.03125 0.41406,-0.046875 0.625,-0.046875 0.55078,0 0.94531,0.10938 1.1875,0.32812 0.25,0.21875 0.375,0.57422 0.375,1.0625 z"
         id="path2352" />
    </symbol>
    <symbol
       id="b"
       overflow="visible">
      <path
         d="m 1.5312,-3.9219 v 0.85938 H 2.5468 V -2.3594 H 1.5312 v 1.2969 c 0,0.14844 0.023438,0.24609 0.078125,0.29688 0.0625,0.042969 0.17578,0.0625 0.34375,0.0625 h 0.5 V 0 H 1.624955 C 1.238235,0 0.960895,-0.078125 0.796835,-0.23438 0.640585,-0.39844 0.562455,-0.67579 0.562455,-1.0625 v -1.2969 h -0.48438 v -0.70312 h 0.48438 V -3.9219 Z"
         id="path2355" />
    </symbol>
    <symbol
       id="g"
       overflow="visible">
      <path
         d="M 2.5469,-2.6094 V -4.25 H 3.53128 V 0 H 2.5469 v -0.4375 c -0.13672,0.17969 -0.28906,0.30859 -0.45312,0.39062 -0.15625,0.082031 -0.33984,0.125 -0.54688,0.125 -0.375,0 -0.6875,-0.14453 -0.9375,-0.4375 -0.24219,-0.30078 -0.35938,-0.69141 -0.35938,-1.1719 0,-0.46875 0.11719,-0.85156 0.35938,-1.1562 0.25,-0.30078 0.5625,-0.45312 0.9375,-0.45312 0.20703,0 0.39062,0.046875 0.54688,0.14062 0.16406,0.085938 0.31641,0.21484 0.45312,0.39062 z M 1.90628,-0.625 c 0.20703,0 0.36328,-0.078125 0.46875,-0.23438 0.11328,-0.15625 0.17188,-0.37891 0.17188,-0.67188 0,-0.28906 -0.058594,-0.50781 -0.17188,-0.65625 -0.10547,-0.15625 -0.26172,-0.23438 -0.46875,-0.23438 -0.21094,0 -0.37109,0.078125 -0.48438,0.23438 -0.10547,0.14844 -0.15625,0.36719 -0.15625,0.65625 0,0.29297 0.050781,0.51562 0.15625,0.67188 0.11328,0.15625 0.27344,0.23438 0.48438,0.23438 z"
         id="path2358" />
    </symbol>
    <symbol
       id="n"
       overflow="visible">
      <path
         d="m 2.0938,-0.625 c 0.20703,0 0.36719,-0.078125 0.48438,-0.23438 0.11328,-0.15625 0.17188,-0.37891 0.17188,-0.67188 0,-0.28906 -0.058594,-0.50781 -0.17188,-0.65625 -0.11719,-0.15625 -0.27734,-0.23438 -0.48438,-0.23438 -0.21094,0 -0.37109,0.078125 -0.48438,0.23438 -0.10547,0.14844 -0.15625,0.36719 -0.15625,0.65625 0,0.29297 0.050781,0.51562 0.15625,0.67188 C 1.7227,-0.70313 1.88286,-0.625 2.0938,-0.625 Z M 1.45318,-2.6094 c 0.13281,-0.17578 0.28125,-0.30469 0.4375,-0.39062 0.16406,-0.09375 0.35156,-0.14062 0.5625,-0.14062 0.38281,0 0.69531,0.15234 0.9375,0.45312 0.23828,0.30469 0.35938,0.6875 0.35938,1.1562 0,0.48047 -0.12109,0.87109 -0.35938,1.1719 -0.24219,0.29297 -0.55469,0.4375 -0.9375,0.4375 -0.21094,0 -0.39844,-0.042969 -0.5625,-0.125 C 1.73443,-0.128951 1.58599,-0.25786 1.45318,-0.43754 V -4e-5 H 0.4688 v -4.25 h 0.98438 z"
         id="path2361" />
    </symbol>
    <symbol
       id="m"
       overflow="visible">
      <path
         d="M 0.0625,-3.0625 H 1.04688 L 1.875,-0.9844 2.5625,-3.0625 H 3.54688 L 2.26568,0.2969 C 2.12896,0.62893 1.97271,0.86331 1.79693,1.00002 1.62896,1.13283 1.40631,1.20314 1.12505,1.20314 H 0.56255 V 0.56252 h 0.29688 c 0.16406,0 0.28516,-0.027344 0.35938,-0.078125 0.082031,-0.054687 0.14453,-0.14844 0.1875,-0.28125 L 1.43756,0.12502 Z"
         id="path2364" />
    </symbol>
    <symbol
       id="f"
       overflow="visible">
      <path
         d="m 0.51562,-4.0781 h 1.0469 v 3.6875 c 0,0.5 -0.14062,0.875 -0.42188,1.125 C 0.8672,0.99221 0.45705,1.12502 -0.09376,1.12502 H -0.31251 V 0.32814 h 0.15625 c 0.21875,0 0.38281,-0.0625 0.5,-0.1875 0.11328,-0.125 0.17188,-0.30078 0.17188,-0.53125 z"
         id="path2367" />
    </symbol>
    <symbol
       id="l"
       overflow="visible">
      <path
         d="m 2.8594,-2.9688 v 0.75 C 2.64846,-2.31255 2.44534,-2.37896 2.25002,-2.42192 c -0.1875,-0.039063 -0.37109,-0.0625 -0.54688,-0.0625 -0.1875,0 -0.32812,0.027344 -0.42188,0.078125 -0.085938,0.042969 -0.125,0.10938 -0.125,0.20312 0,0.085937 0.03125,0.14844 0.09375,0.1875 0.070312,0.042969 0.19531,0.074219 0.375,0.09375 L 1.79689,-1.9063 c 0.5,0.0625 0.83203,0.16797 1,0.3125 0.17578,0.14844 0.26562,0.375 0.26562,0.6875 0,0.33594 -0.12109,0.58594 -0.35938,0.75 C 2.46094,-5e-5 2.10157,0.07808 1.62503,0.07808 1.42581,0.07808 1.21878,0.062455 1.00003,0.031205 0.78128,-4.5e-5 0.56253,-0.04692 0.34378,-0.109415 v -0.75 c 0.1875,0.09375 0.38281,0.16797 0.59375,0.21875 0.20703,0.042969 0.41406,0.0625 0.625,0.0625 0.1875,0 0.32812,-0.023437 0.42188,-0.078125 0.10156,-0.050781 0.15625,-0.12891 0.15625,-0.23438 0,-0.082031 -0.039063,-0.14453 -0.10938,-0.1875 C 1.96878,-1.117233 1.83597,-1.156295 1.64066,-1.18755 L 1.46878,-1.203175 c -0.4375,-0.050781 -0.74609,-0.14844 -0.92188,-0.29688 -0.16797,-0.14453 -0.25,-0.36719 -0.25,-0.67188 0,-0.32031 0.10938,-0.5625 0.32812,-0.71875 0.21875,-0.16406 0.55469,-0.25 1.0156,-0.25 0.1875,0 0.37891,0.015625 0.57812,0.046875 0.19531,0.03125 0.41016,0.074219 0.64062,0.125 z"
         id="path2370" />
    </symbol>
    <symbol
       id="k"
       overflow="visible">
      <path
         d="m 0.4375,-1.1875 v -1.875 h 0.98438 v 0.3125 0.625 0.5 c 0,0.24219 0.00391,0.41797 0.015625,0.53125 0.00781,0.10547 0.03125,0.18359 0.0625,0.23438 0.039062,0.0625 0.09375,0.11719 0.15625,0.15625 0.0625,0.03125 0.13281,0.046875 0.21875,0.046875 0.20703,0 0.36719,-0.078125 0.48438,-0.23438 0.11328,-0.15625 0.17188,-0.375 0.17188,-0.65625 v -1.5156 h 0.98438 v 3.0625 h -0.98438 v -0.4375 c -0.14844,0.17969 -0.30469,0.30859 -0.46875,0.39062 -0.16797,0.082031 -0.35156,0.125 -0.54688,0.125 -0.35547,0 -0.625,-0.10938 -0.8125,-0.32812 -0.17969,-0.21875 -0.26562,-0.53125 -0.26562,-0.9375 z"
         id="path2373" />
    </symbol>
    <symbol
       id="j"
       overflow="visible">
      <path
         d="M 0.3125,-3.0625 H 2.9844 V -2.375 L 1.375,-0.7031 H 2.9844 V 2e-5 H 0.25 v -0.6875 l 1.6094,-1.6719 H 0.3125 Z"
         id="path2376" />
    </symbol>
    <symbol
       id="i"
       overflow="visible">
      <path
         d="M 0.46875,-3.0625 H 1.45313 V 0 H 0.46875 Z m 0,-1.1875 h 0.98438 v 0.79688 H 0.46875 Z"
         id="path2379" />
    </symbol>
    <symbol
       id="e"
       overflow="visible">
      <path
         d="M 3.5469,-1.8594 V 0 H 2.56252 v -1.4219 c 0,-0.26953 -0.00781,-0.45312 -0.015625,-0.54688 -0.011719,-0.10156 -0.03125,-0.17578 -0.0625,-0.21875 -0.042969,-0.0625 -0.09375,-0.10938 -0.15625,-0.14062 -0.0625,-0.039063 -0.13672,-0.0625 -0.21875,-0.0625 -0.21094,0 -0.37109,0.078125 -0.48438,0.23438 -0.11719,0.15625 -0.17188,0.375 -0.17188,0.65625 v 1.5 h -0.98438 v -3.0625 h 0.98438 v 0.45312 c 0.14453,-0.17578 0.30078,-0.30469 0.46875,-0.39062 0.16406,-0.09375 0.34766,-0.14062 0.54688,-0.14062 0.35156,0 0.61719,0.10938 0.79688,0.32812 0.1875,0.21875 0.28125,0.53906 0.28125,0.95312 z"
         id="path2382" />
    </symbol>
    <symbol
       id="w"
       overflow="visible">
      <path
         d="m 1.5625,-3.2812 v 2.4844 h 0.375 c 0.4375,0 0.76562,-0.10156 0.98438,-0.3125 0.22656,-0.21875 0.34375,-0.53125 0.34375,-0.9375 0,-0.40625 -0.11719,-0.71094 -0.34375,-0.92188 C 2.70313,-3.17571 2.375,-3.28118 1.9375,-3.28118 Z M 0.5156,-4.07808 H 1.625 c 0.61328,0 1.0703,0.046875 1.375,0.14062 0.30078,0.085938 0.5625,0.23047 0.78125,0.4375 0.19531,0.1875 0.33594,0.40234 0.42188,0.64062 0.09375,0.24219 0.14062,0.51172 0.14062,0.8125 0,0.3125 -0.046875,0.58984 -0.14062,0.82812 C 4.117193,-0.97653 3.97657,-0.7656 3.78125,-0.5781 3.5625,-0.36716 3.30078,-0.21872 3,-0.12498 2.69531,-0.039042 2.23828,2e-5 1.625,2e-5 H 0.5156 Z"
         id="path2385" />
    </symbol>
    <symbol
       id="v"
       overflow="visible">
      <path
         d="M 2.9844,-0.75 H 1.3438 L 1.07818,0 h -1.0469 l 1.5,-4.0781 h 1.2656 L 4.29688,0 H 3.24998 Z M 1.6094,-1.5 H 2.7188 L 2.17192,-3.125 Z"
         id="path2388" />
    </symbol>
    <symbol
       id="u"
       overflow="visible">
      <path
         d="m 2.4844,-4.25 v 0.64062 H 1.93752 c -0.13672,0 -0.23047,0.027344 -0.28125,0.078125 -0.054688,0.054688 -0.078125,0.14062 -0.078125,0.26562 v 0.20312 h 0.82812 v 0.70312 H 1.578145 V 5e-6 h -0.98438 v -2.3594 h -0.48438 v -0.70312 h 0.48438 v -0.20312 c 0,-0.33203 0.09375,-0.57812 0.28125,-0.73438 0.1875,-0.16406 0.47266,-0.25 0.85938,-0.25 z"
         id="path2391" />
    </symbol>
    <symbol
       id="d"
       overflow="visible">
      <path
         d="m 1.9219,-2.4375 c -0.21875,0 -0.38672,0.078125 -0.5,0.23438 -0.10547,0.15625 -0.15625,0.38281 -0.15625,0.67188 0,0.29297 0.050781,0.51562 0.15625,0.67188 0.11328,0.15625 0.28125,0.23438 0.5,0.23438 0.21875,0 0.37891,-0.078125 0.48438,-0.23438 0.11328,-0.15625 0.17188,-0.37891 0.17188,-0.67188 0,-0.28906 -0.058594,-0.51562 -0.17188,-0.67188 C 2.30081,-2.35937 2.14066,-2.4375 1.9219,-2.4375 Z m 0,-0.70312 c 0.53125,0 0.94141,0.14844 1.2344,0.4375 0.30078,0.28125 0.45312,0.67188 0.45312,1.1719 0,0.51172 -0.15234,0.90625 -0.45312,1.1875 -0.29297,0.28125 -0.70312,0.42188 -1.2344,0.42188 -0.52344,0 -0.93359,-0.14062 -1.2344,-0.42188 -0.30469,-0.28125 -0.45312,-0.67578 -0.45312,-1.1875 0,-0.5 0.14844,-0.89062 0.45312,-1.1719 0.30078,-0.28906 0.71094,-0.4375 1.2344,-0.4375 z"
         id="path2394" />
    </symbol>
    <symbol
       id="t"
       overflow="visible">
      <path
         d="m 3.3125,-2.5469 c 0.11328,-0.1875 0.25391,-0.33203 0.42188,-0.4375 0.17578,-0.10156 0.36719,-0.15625 0.57812,-0.15625 0.34375,0 0.60938,0.10938 0.79688,0.32812 0.1875,0.21874 0.28125,0.53906 0.28125,0.95312 V -1e-5 H 4.40625 v -1.5938 -0.0625 -0.125 c 0,-0.21875 -0.03125,-0.375 -0.09375,-0.46875 C 4.25,-2.34381 4.14453,-2.39068 4,-2.39068 c -0.1875,0 -0.33594,0.078125 -0.4375,0.23438 -0.09375,0.14844 -0.14062,0.36719 -0.14062,0.65625 v 1.5 H 2.4375 v -1.5938 c 0,-0.34375 -0.03125,-0.5625 -0.09375,-0.65625 -0.054688,-0.09375 -0.15625,-0.14062 -0.3125,-0.14062 -0.1875,0 -0.33594,0.078125 -0.4375,0.23438 C 1.5,-2.0079 1.45313,-1.78915 1.45313,-1.50009 v 1.5 H 0.46875 v -3.0625 h 0.98438 v 0.45312 c 0.11328,-0.17578 0.25,-0.30469 0.40625,-0.39062 0.15625,-0.09375 0.32812,-0.14062 0.51562,-0.14062 0.20703,0 0.39062,0.054687 0.54688,0.15625 0.16406,0.10547 0.29688,0.25 0.39062,0.4375 z"
         id="path2397" />
    </symbol>
    <symbol
       id="s"
       overflow="visible">
      <path
         d="M 3.5469,-1.8594 V 0 H 2.56252 v -1.4219 c 0,-0.26953 -0.00781,-0.45312 -0.015625,-0.54688 -0.011719,-0.10156 -0.03125,-0.17578 -0.0625,-0.21875 -0.042969,-0.0625 -0.09375,-0.10938 -0.15625,-0.14062 -0.0625,-0.039063 -0.13672,-0.0625 -0.21875,-0.0625 -0.21094,0 -0.37109,0.078125 -0.48438,0.23438 -0.11719,0.15625 -0.17188,0.375 -0.17188,0.65625 v 1.5 h -0.98438 v -4.25 h 0.98438 v 1.6406 c 0.14453,-0.17578 0.30078,-0.30469 0.46875,-0.39062 0.16406,-0.09375 0.34766,-0.14062 0.54688,-0.14062 0.35156,0 0.61719,0.10938 0.79688,0.32812 0.1875,0.21875 0.28125,0.53906 0.28125,0.95312 z"
         id="path2400" />
    </symbol>
    <symbol
       id="r"
       overflow="visible">
      <path
         d="m 0.51562,-4.0781 h 1.1719 l 1.4844,2.7969 v -2.7969 h 1 V 0 H 3.00002 L 1.51562,-2.7969 V 0 h -1 z"
         id="path2403" />
    </symbol>
    <symbol
       id="q"
       overflow="visible">
      <path
         d="m 0.51562,-4.0781 h 1.75 c 0.50781,0 0.90625,0.11719 1.1875,0.34375 0.28125,0.23047 0.42188,0.55859 0.42188,0.98438 0,0.42969 -0.14062,0.75781 -0.42188,0.98438 -0.28125,0.23047 -0.67969,0.34375 -1.1875,0.34375 H 1.5625 V 6e-5 H 0.5156 Z m 1.0469,0.76562 v 1.1406 h 0.57812 c 0.20703,0 0.36328,-0.046875 0.46875,-0.14062 0.11328,-0.10156 0.17188,-0.25 0.17188,-0.4375 0,-0.17578 -0.058594,-0.3125 -0.17188,-0.40625 C 2.50392,-3.25781 2.34767,-3.3125 2.14064,-3.3125 Z"
         id="path2406" />
    </symbol>
    <symbol
       id="p"
       overflow="visible">
      <path
         d="m 0.46875,-3.0625 h 0.98438 v 3.0156 c 0,0.40625 -0.10156,0.71094 -0.29688,0.92188 C 0.95703,1.09373 0.67187,1.2031 0.29687,1.2031 H -0.18751 V 0.56248 h 0.17188 c 0.1875,0 0.3125,-0.042969 0.375,-0.125 C 0.429683,0.351542 0.46875,0.19139 0.46875,-0.0469 Z m 0,-1.1875 h 0.98438 v 0.79688 H 0.46875 Z"
         id="path2409" />
    </symbol>
    <symbol
       id="o"
       overflow="visible">
      <path
         d="m 2.9375,-2.9688 v 0.79688 C 2.8125,-2.253951 2.67969,-2.31645 2.54688,-2.35942 2.41016,-2.410201 2.26954,-2.437545 2.125,-2.437545 c -0.27344,0 -0.48438,0.085938 -0.64062,0.25 -0.14844,0.15625 -0.21875,0.375 -0.21875,0.65625 0,0.29297 0.070313,0.51562 0.21875,0.67188 0.15625,0.15625 0.36719,0.23438 0.64062,0.23438 0.15625,0 0.30078,-0.019531 0.4375,-0.0625 0.13281,-0.039062 0.25781,-0.10938 0.375,-0.20312 v 0.79688 c -0.14844,0.0625 -0.30469,0.10156 -0.46875,0.125 C 2.3125,0.062475 2.15625,0.0781 2,0.0781 c -0.55469,0 -0.98438,-0.14062 -1.2969,-0.42188 -0.31252,-0.28126 -0.46875,-0.67578 -0.46875,-1.1875 0,-0.5 0.15625,-0.89062 0.46875,-1.1719 0.3125,-0.28906 0.74219,-0.4375 1.2969,-0.4375 0.16406,0 0.32031,0.015625 0.46875,0.046875 0.15625,0.03125 0.3125,0.074219 0.46875,0.125 z"
         id="path2412" />
    </symbol>
  </defs>
  <g
     id="g2841"
     transform="translate(-127.625,-57.625)"
     style="fill:#ffffff;fill-opacity:1">
    <path
       d="m 350,455.59 c 96.824,0 175.59,-78.77 175.59,-175.59 0,-96.82 -78.77,-175.59 -175.59,-175.59 -96.82,0 -175.59,78.77 -175.59,175.59 0,96.82 78.77,175.59 175.59,175.59 z m 0,-325.41 c 78.266,0 142.7,60.324 149.25,136.92 H 200.75 C 207.3008,190.502 271.734,130.18 350,130.18 Z m 67.535,162.7 c -4.0312,21.117 -17.711,39.133 -36.969,48.691 -19.258,9.5547 -41.875,9.5547 -61.133,0 -19.258,-9.5586 -32.938,-27.574 -36.969,-48.691 z m -161.18,0 c 4.1914,30.422 22.898,56.906 50.164,71.031 27.266,14.125 59.695,14.125 86.961,0 27.266,-14.125 45.973,-40.609 50.164,-71.031 h 55.609 c -6.5547,76.598 -70.988,136.92 -149.25,136.92 -78.262,0 -142.7,-60.324 -149.25,-136.92 z"
       id="path2417"
       style="fill:#ffffff;fill-opacity:1" />
    <path
       d="M 350,502.33 C 472.59,502.33 572.33,402.596 572.33,280 572.33,157.41 472.592,57.67 350,57.67 227.408,57.67 127.67,157.408 127.67,280 c 0,122.592 99.738,222.33 222.33,222.33 z m 0,-418.88 c 108.38,0 196.55,88.168 196.55,196.55 0,108.38 -88.164,196.55 -196.55,196.55 C 241.614,476.55 153.45,388.386 153.45,280 153.45,171.614 241.614,83.45 350,83.45 Z"
       id="path2419"
       style="fill:#ffffff;fill-opacity:1" />
  </g>
</svg>
