<?xml version="1.0" encoding="UTF-8" standalone="no"?>
<svg
   width="654"
   height="654"
   version="1.1"
   viewBox="0 0 490.5 490.5"
   id="svg16"
   sodipodi:docname="Religious strengthening.svg"
   inkscape:export-filename="Religious strengthening.png"
   inkscape:export-xdpi="7.3400002"
   inkscape:export-ydpi="7.3400002"
   inkscape:version="1.2.2 (b0a8486541, 2022-12-01)"
   xmlns:inkscape="http://www.inkscape.org/namespaces/inkscape"
   xmlns:sodipodi="http://sodipodi.sourceforge.net/DTD/sodipodi-0.dtd"
   xmlns="http://www.w3.org/2000/svg"
   xmlns:svg="http://www.w3.org/2000/svg">
  <defs
     id="defs20" />
  <sodipodi:namedview
     id="namedview18"
     pagecolor="#ffffff"
     bordercolor="#666666"
     borderopacity="1.0"
     inkscape:showpageshadow="2"
     inkscape:pageopacity="0.0"
     inkscape:pagecheckerboard="true"
     inkscape:deskcolor="#d1d1d1"
     inkscape:document-units="pt"
     showgrid="false"
     inkscape:zoom="0.43928571"
     inkscape:cx="292.52033"
     inkscape:cy="623.73984"
     inkscape:window-width="1920"
     inkscape:window-height="1003"
     inkscape:window-x="0"
     inkscape:window-y="27"
     inkscape:window-maximized="1"
     inkscape:current-layer="svg16" />
  <g
     id="g14"
     transform="translate(-104.75,-34.7509)"
     style="fill:#ffffff;fill-opacity:1">
    <path
       d="m 313.8,103.08 -2.6992,16.613 c -1.0781,6.6094 1.707,13.258 7.1914,17.113 5.4688,3.8633 12.672,4.2383 18.543,1.0078 l 13.16,-7.2734 13.16,7.2734 c 2.6484,1.4609 5.5625,2.1875 8.4688,2.1875 0.10938,-0.008 0.21484,-0.0156 0.35156,0 9.6641,0 17.5,-7.8359 17.5,-17.5 0,-2.1797 -0.40234,-4.2734 -1.1289,-6.1953 l -2.1523,-13.227 11.332,-11.621 c 4.582,-4.6914 6.1523,-11.555 4.0664,-17.773 -2.0859,-6.2188 -7.4688,-10.758 -13.953,-11.75 l -14.953,-2.2812 -6.8438,-14.586 c -2.8867,-6.1445 -9.0625,-10.066 -15.848,-10.066 -6.7855,0 -12.961,3.9219 -15.844,10.066 l -6.8438,14.586 -14.953,2.2812 c -6.4844,0.99219 -11.867,5.5273 -13.953,11.75 -2.0859,6.2188 -0.51172,13.082 4.0664,17.773 z"
       id="path2"
       style="fill:#ffffff;fill-opacity:1" />
    <path
       d="m 453.8,103.08 -2.6992,16.613 c -1.0781,6.6133 1.7109,13.262 7.1953,17.117 5.4688,3.8633 12.672,4.2383 18.543,1.0078 l 13.16,-7.2734 13.156,7.2695 c 2.6523,1.4609 5.5664,2.1875 8.4688,2.1875 0.10938,-0.008 0.21484,-0.0156 0.35156,0 9.6641,0 17.5,-7.8359 17.5,-17.5 0,-2.1797 -0.40234,-4.2734 -1.1289,-6.1953 l -2.1523,-13.227 11.332,-11.621 c 4.582,-4.6914 6.1523,-11.555 4.0664,-17.773 -2.0859,-6.218 -7.4688,-10.758 -13.953,-11.75 l -14.953,-2.2812 -6.8438,-14.586 c -2.8828,-6.1445 -9.0586,-10.066 -15.844,-10.066 -6.7854,0 -12.961,3.9219 -15.844,10.066 l -6.8438,14.586 -14.953,2.2812 c -6.4844,0.99219 -11.867,5.5273 -13.953,11.75 -2.0859,6.2188 -0.51172,13.082 4.0664,17.773 z"
       id="path4"
       style="fill:#ffffff;fill-opacity:1" />
    <path
       d="m 173.8,103.08 -2.6992,16.609 c -1.0742,6.6133 1.7109,13.262 7.1953,17.117 5.4688,3.8633 12.672,4.2383 18.543,1.0078 l 13.16,-7.2734 13.156,7.2734 c 2.6523,1.4609 5.5664,2.1875 8.4688,2.1875 0.10938,-0.008 0.21484,-0.0156 0.35156,0 9.6641,0 17.5,-7.8359 17.5,-17.5 0,-2.1797 -0.40234,-4.2734 -1.1289,-6.1953 l -2.1523,-13.227 11.332,-11.621 c 4.582,-4.6914 6.1523,-11.555 4.0664,-17.773 -2.0859,-6.218 -7.4688,-10.758 -13.953,-11.75 l -14.953,-2.2812 -6.8477,-14.586 c -2.8789,-6.1445 -9.0547,-10.066 -15.84,-10.066 -6.7853,0 -12.965,3.9219 -15.844,10.066 l -6.8438,14.586 -14.953,2.2812 c -6.4844,0.99219 -11.867,5.5273 -13.953,11.75 -2.0859,6.2188 -0.51172,13.082 4.0664,17.773 z"
       id="path6"
       style="fill:#ffffff;fill-opacity:1" />
    <path
       d="m 245,157.5 h -17.5 c -9.6719,0 -17.5,7.8359 -17.5,17.5 v 157.5 c 0,9.6641 7.8281,17.5 17.5,17.5 H 245 c 34.418,0 60.242,8.6914 95.293,32.062 2.9414,1.9531 6.3242,2.9375 9.707,2.9375 3.3828,0 6.7695,-0.98438 9.707,-2.9414 35.051,-23.367 60.875,-32.059 95.293,-32.059 h 17.5 c 9.6719,0 17.5,-7.8359 17.5,-17.5 v -157.5 c 0,-9.6641 -7.8281,-17.5 -17.5,-17.5 H 455 c -34.625,0 -63.738,7.957 -96.25,26.582 v 156.62 c 0,4.8359 -3.9141,8.75 -8.75,8.75 -4.8359,0 -8.75,-3.9141 -8.75,-8.75 v -156.62 c -32.512,-18.625 -61.625,-26.582 -96.25,-26.582 z m 68.379,171.32 c -1.6914,2.4023 -4.3906,3.6836 -7.125,3.6836 -1.7617,0 -3.5195,-0.51953 -5.0586,-1.6133 -11.145,-7.9062 -30.098,-15.887 -47.355,-15.887 h -17.5 c -4.8359,0 -8.75,-3.9141 -8.75,-8.75 0,-4.8359 3.9141,-8.75 8.75,-8.75 h 17.5 c 22.559,0 45.066,10.297 57.473,19.113 3.9453,2.8047 4.8711,8.2656 2.0664,12.203 z m 0,-52.5 c -1.6914,2.4023 -4.3906,3.6836 -7.125,3.6836 -1.7617,0 -3.5195,-0.51953 -5.0586,-1.6133 -11.145,-7.9062 -30.098,-15.887 -47.355,-15.887 h -17.5 c -4.8359,0 -8.75,-3.9141 -8.75,-8.75 0,-4.8359 3.9141,-8.75 8.75,-8.75 h 17.5 c 22.559,0 45.066,10.297 57.473,19.113 3.9453,2.8047 4.8711,8.2656 2.0664,12.203 z m 0,-52.5 c -1.6914,2.4023 -4.3906,3.6836 -7.125,3.6836 -1.7617,0 -3.5195,-0.51953 -5.0586,-1.6133 -11.145,-7.9062 -30.098,-15.887 -47.355,-15.887 h -17.5 c -4.8359,0 -8.75,-3.9141 -8.75,-8.75 0,-4.8359 3.9141,-8.75 8.75,-8.75 h 17.5 c 22.559,0 45.066,10.297 57.473,19.113 3.9453,2.8047 4.8711,8.2656 2.0664,12.203 z m 75.398,-12.203 c 12.406,-8.8164 34.914,-19.113 57.473,-19.113 h 17.5 c 4.8359,0 8.75,3.9141 8.75,8.75 0,4.8359 -3.9141,8.75 -8.75,8.75 h -17.5 c -17.262,0 -36.215,7.9805 -47.355,15.887 -1.5391,1.0938 -3.2969,1.6133 -5.0586,1.6133 -2.7344,0 -5.4336,-1.2812 -7.125,-3.6836 -2.8047,-3.9375 -1.8828,-9.3984 2.0664,-12.203 z m 0,52.5 c 12.406,-8.8164 34.914,-19.113 57.473,-19.113 h 17.5 c 4.8359,0 8.75,3.9141 8.75,8.75 0,4.8359 -3.9141,8.75 -8.75,8.75 h -17.5 c -17.262,0 -36.215,7.9805 -47.355,15.887 -1.5391,1.0938 -3.2969,1.6133 -5.0586,1.6133 -2.7344,0 -5.4336,-1.2812 -7.125,-3.6836 -2.8047,-3.9375 -1.8828,-9.3984 2.0664,-12.203 z m 0,52.5 c 12.406,-8.8164 34.914,-19.113 57.473,-19.113 h 17.5 c 4.8359,0 8.75,3.9141 8.75,8.75 0,4.8359 -3.9141,8.75 -8.75,8.75 h -17.5 c -17.262,0 -36.215,7.9805 -47.355,15.887 -1.5391,1.0938 -3.2969,1.6133 -5.0586,1.6133 -2.7344,0 -5.4336,-1.2812 -7.125,-3.6836 -2.8047,-3.9375 -1.8828,-9.3984 2.0664,-12.203 z"
       id="path8"
       style="fill:#ffffff;fill-opacity:1" />
    <path
       d="m 577.5,455 h -455 c -9.6641,0 -17.5,7.8359 -17.5,17.5 0,28.996 23.504,52.5 52.5,52.5 h 385 c 28.996,0 52.5,-23.504 52.5,-52.5 0,-9.6641 -7.8359,-17.5 -17.5,-17.5 z"
       id="path10"
       style="fill:#ffffff;fill-opacity:1" />
    <path
       d="m 560,245 c 0,-19.332 -15.672,-35 -35,-35 h -17.5 v 122.5 c 0,19.293 -15.707,35 -35,35 H 455 c -30.949,0 -53.355,7.6211 -85.586,29.121 -5.8086,3.8633 -12.508,5.8789 -19.414,5.8789 -6.906,0 -13.605,-2.0156 -19.379,-5.8438 -32.266,-21.535 -54.672,-29.156 -85.621,-29.156 h -17.5 c -19.293,0 -35,-15.707 -35,-35 v -122.5 H 175 c -19.328,0 -35,15.668 -35,35 v 192.5 h 420 z"
       id="path12"
       style="fill:#ffffff;fill-opacity:1" />
  </g>
</svg>
