<?xml version="1.0" encoding="UTF-8" standalone="no"?>
<svg
   width="747"
   height="747"
   version="1.1"
   viewBox="0 0 560.25 560.25"
   id="svg162"
   sodipodi:docname="Religious hope.svg"
   inkscape:export-filename="Religious hope.png"
   inkscape:export-xdpi="6.4299998"
   inkscape:export-ydpi="6.4299998"
   inkscape:version="1.2.2 (b0a8486541, 2022-12-01)"
   xmlns:inkscape="http://www.inkscape.org/namespaces/inkscape"
   xmlns:sodipodi="http://sodipodi.sourceforge.net/DTD/sodipodi-0.dtd"
   xmlns="http://www.w3.org/2000/svg"
   xmlns:svg="http://www.w3.org/2000/svg">
  <sodipodi:namedview
     id="namedview164"
     pagecolor="#ffffff"
     bordercolor="#666666"
     borderopacity="1.0"
     inkscape:showpageshadow="2"
     inkscape:pageopacity="0.0"
     inkscape:pagecheckerboard="true"
     inkscape:deskcolor="#d1d1d1"
     inkscape:document-units="pt"
     showgrid="false"
     inkscape:zoom="0.62124382"
     inkscape:cx="464.39094"
     inkscape:cy="461.97643"
     inkscape:window-width="1920"
     inkscape:window-height="1003"
     inkscape:window-x="0"
     inkscape:window-y="27"
     inkscape:window-maximized="1"
     inkscape:current-layer="svg162" />
  <defs
     id="defs68">
    <symbol
       id="v"
       overflow="visible">
      <path
         d="m 19.953,-1.1875 c -1.0312,0.53125 -2.1055,0.93359 -3.2188,1.2031 -1.1172,0.26953 -2.2773,0.40625 -3.4844,0.40625 -3.6172,0 -6.4805,-1.0078 -8.5938,-3.0312 -2.1172,-2.0195 -3.1719,-4.7578 -3.1719,-8.2188 0,-3.4766 1.0547,-6.2266 3.1719,-8.25 2.1133,-2.0195 4.9766,-3.0312 8.5938,-3.0312 1.207,0 2.3672,0.14062 3.4844,0.42188 1.1133,0.27344 2.1875,0.67188 3.2188,1.2031 v 4.4844 c -1.043,-0.70703 -2.0703,-1.2227 -3.0781,-1.5469 -1,-0.33203 -2.0586,-0.5 -3.1719,-0.5 -2,0 -3.5742,0.64062 -4.7188,1.9219 -1.1484,1.2812 -1.7188,3.0469 -1.7188,5.2969 0,2.2422 0.57031,4 1.7188,5.2812 1.1445,1.2734 2.7188,1.9062 4.7188,1.9062 1.1133,0 2.1719,-0.16016 3.1719,-0.48438 1.0078,-0.33203 2.0352,-0.85156 3.0781,-1.5625 z"
         id="path2" />
    </symbol>
    <symbol
       id="b"
       overflow="visible">
      <path
         d="m 14.594,-11.844 c -0.44922,-0.21875 -0.90234,-0.37891 -1.3594,-0.48438 -0.44922,-0.10156 -0.90234,-0.15625 -1.3594,-0.15625 -1.3359,0 -2.3672,0.43359 -3.0938,1.2969 -0.71875,0.85547 -1.0781,2.0859 -1.0781,3.6875 v 7.5 H 2.5002 v -16.281 h 5.2031 v 2.6719 c 0.66406,-1.0625 1.4297,-1.8359 2.2969,-2.3281 0.875,-0.48828 1.9141,-0.73438 3.125,-0.73438 0.17578,0 0.36328,0.0078 0.5625,0.01563 0.20703,0.01172 0.50391,0.04297 0.89062,0.09375 z"
         id="path5" />
    </symbol>
    <symbol
       id="a"
       overflow="visible">
      <path
         d="m 18.766,-8.1875 v 1.4844 H 6.594 c 0.125,1.2188 0.5625,2.1367 1.3125,2.75 0.75781,0.60547 1.8164,0.90625 3.1719,0.90625 1.0938,0 2.2109,-0.16016 3.3594,-0.48438 1.1562,-0.32031 2.3359,-0.8125 3.5469,-1.4688 v 4.0156 c -1.2305,0.46094 -2.4609,0.80859 -3.6875,1.0469 -1.2305,0.23828 -2.4648,0.35938 -3.7031,0.35938 -2.9375,0 -5.2266,-0.75 -6.8594,-2.25 -1.6367,-1.5 -2.4531,-3.5977 -2.4531,-6.2969 0,-2.6562 0.80078,-4.7422 2.4062,-6.2656 1.6016,-1.5195 3.8125,-2.2812 6.625,-2.2812 2.5625,0 4.6094,0.77344 6.1406,2.3125 1.5391,1.5312 2.3125,3.5898 2.3125,6.1719 z m -5.3594,-1.7344 c 0,-0.98828 -0.29297,-1.7852 -0.875,-2.3906 -0.57422,-0.60156 -1.3242,-0.90625 -2.25,-0.90625 -1.0117,0 -1.8359,0.28906 -2.4688,0.85938 -0.625,0.5625 -1.0156,1.375 -1.1719,2.4375 z"
         id="path8" />
    </symbol>
    <symbol
       id="h"
       overflow="visible">
      <path
         d="m 9.7969,-7.3281 c -1.0859,0 -1.9023,0.1875 -2.4531,0.5625 -0.54297,0.36719 -0.8125,0.90625 -0.8125,1.625 0,0.65625 0.21875,1.1719 0.65625,1.5469 0.44531,0.36719 1.0625,0.54688 1.8438,0.54688 0.97656,0 1.8008,-0.34766 2.4688,-1.0469 0.66406,-0.69531 1,-1.5781 1,-2.6406 V -7.32807 Z M 17.75,-9.2969 V 0 H 12.5 V -2.4062 C 11.80078,-1.42573 11.0156,-0.707 10.1406,-0.25 9.27341,0.19531 8.2187,0.42188 6.9687,0.42188 c -1.6875,0 -3.0586,-0.48828 -4.1094,-1.4688 -1.0547,-0.98828 -1.5781,-2.2695 -1.5781,-3.8438 0,-1.9062 0.65625,-3.3008 1.9688,-4.1875 1.3125,-0.89453 3.375,-1.3438 6.1875,-1.3438 H 12.5 v -0.40625 c 0,-0.82031 -0.32422,-1.4258 -0.96875,-1.8125 -0.64844,-0.38281 -1.6562,-0.57812 -3.0312,-0.57812 -1.125,0 -2.168,0.11719 -3.125,0.34375 -0.96094,0.21875 -1.8516,0.55469 -2.6719,1 v -3.9688 c 1.1133,-0.26953 2.2344,-0.47266 3.3594,-0.60938 1.125,-0.14453 2.25,-0.21875 3.375,-0.21875 2.9375,0 5.0547,0.57812 6.3594,1.7344 1.3008,1.1562 1.9531,3.0391 1.9531,5.6406 z"
         id="path11" />
    </symbol>
    <symbol
       id="d"
       overflow="visible">
      <path
         d="m 8.1875,-20.906 v 4.625 h 5.3594 v 3.7188 H 8.1875 v 6.9062 c 0,0.76172 0.14844,1.2773 0.45312,1.5469 0.30078,0.26172 0.89453,0.39062 1.7812,0.39062 h 2.6875 v 3.7188 h -4.4688 c -2.0547,0 -3.5117,-0.42578 -4.375,-1.2812 -0.85547,-0.86328 -1.2812,-2.3203 -1.2812,-4.375 v -6.9062 h -2.5938 v -3.7188 h 2.5938 v -4.625 z"
         id="path14" />
    </symbol>
    <symbol
       id="g"
       overflow="visible">
      <path
         d="m 13.578,-13.906 v -8.7188 h 5.2344 V 2e-4 H 13.578 v -2.3594 c -0.71875,0.96094 -1.5117,1.6641 -2.375,2.1094 -0.85547,0.44531 -1.8516,0.67188 -2.9844,0.67188 -2.0117,0 -3.6641,-0.79688 -4.9531,-2.3906 -1.2812,-1.5938 -1.9219,-3.6445 -1.9219,-6.1562 0,-2.5078 0.64062,-4.5625 1.9219,-6.1562 1.2891,-1.5938 2.9414,-2.3906 4.9531,-2.3906 1.125,0 2.1172,0.22656 2.9844,0.67188 0.86328,0.44922 1.6562,1.1484 2.375,2.0938 z m -3.4219,10.547 c 1.1133,0 1.9609,-0.40625 2.5469,-1.2188 0.58203,-0.8125 0.875,-1.9922 0.875,-3.5469 0,-1.5508 -0.29297,-2.7344 -0.875,-3.5469 -0.58594,-0.8125 -1.4336,-1.2188 -2.5469,-1.2188 -1.1055,0 -1.9531,0.40625 -2.5469,1.2188 -0.58594,0.8125 -0.875,1.9961 -0.875,3.5469 0,1.5547 0.28906,2.7344 0.875,3.5469 0.59375,0.8125 1.4414,1.2188 2.5469,1.2188 z"
         id="path17" />
    </symbol>
    <symbol
       id="f"
       overflow="visible">
      <path
         d="m 11.172,-3.3594 c 1.1133,0 1.9609,-0.40625 2.5469,-1.2188 0.58203,-0.8125 0.875,-1.9922 0.875,-3.5469 0,-1.5508 -0.29297,-2.7344 -0.875,-3.5469 -0.58594,-0.8125 -1.4336,-1.2188 -2.5469,-1.2188 -1.1172,0 -1.9766,0.41406 -2.5781,1.2344 -0.59375,0.8125 -0.89062,1.9922 -0.89062,3.5312 0,1.543 0.29688,2.7266 0.89062,3.5469 0.60156,0.8125 1.4609,1.2188 2.5781,1.2188 z m -3.4688,-10.547 c 0.71875,-0.94531 1.5156,-1.6445 2.3906,-2.0938 0.875,-0.44531 1.8789,-0.67188 3.0156,-0.67188 2,0 3.6445,0.79688 4.9375,2.3906 1.2891,1.5938 1.9375,3.6484 1.9375,6.1562 0,2.5117 -0.64844,4.5625 -1.9375,6.1562 -1.293,1.5938 -2.9375,2.3906 -4.9375,2.3906 -1.1367,0 -2.1406,-0.22656 -3.0156,-0.67188 -0.875,-0.45703 -1.6719,-1.1602 -2.3906,-2.1094 v 2.3594 H 2.5001 v -22.625 h 5.2031 z"
         id="path20" />
    </symbol>
    <symbol
       id="k"
       overflow="visible">
      <path
         d="m 0.35938,-16.281 h 5.2031 l 4.3906,11.047 3.7188,-11.047 h 5.2031 L 12.03118,1.547 C 11.34368,3.3595 10.53898,4.6251 9.62498,5.3439 8.70701,6.06265 7.49218,6.422 5.98438,6.422 h -3 V 3.0158 h 1.625 c 0.88281,0 1.5234,-0.14062 1.9219,-0.42188 0.40625,-0.28125 0.71875,-0.78906 0.9375,-1.5156 L 7.62503,0.6252 Z"
         id="path23" />
    </symbol>
    <symbol
       id="j"
       overflow="visible">
      <path
         d="m 11.438,-13.312 c 0.875,0 1.5391,-0.19141 2,-0.57812 0.45703,-0.38281 0.6875,-0.95703 0.6875,-1.7188 0,-0.73828 -0.23047,-1.3047 -0.6875,-1.7031 -0.46094,-0.39453 -1.125,-0.59375 -2,-0.59375 H 8.3286 v 4.5938 z m 0.1875,9.5 c 1.125,0 1.9688,-0.23438 2.5312,-0.70312 0.5625,-0.47656 0.84375,-1.1953 0.84375,-2.1562 0,-0.9375 -0.28125,-1.6406 -0.84375,-2.1094 -0.5625,-0.47656 -1.4062,-0.71875 -2.5312,-0.71875 H 8.3286 v 5.6875 z m 5.2031,-7.8125 c 1.1953,0.35547 2.125,1 2.7812,1.9375 0.66406,0.9375 1,2.0938 1,3.4688 0,2.0938 -0.71094,3.6562 -2.125,4.6875 C 17.0668,-0.5073 14.9145,5e-4 12.0317,5e-4 H 2.7348 v -21.703 h 8.4062 c 3.0078,0 5.1914,0.45312 6.5469,1.3594 1.3516,0.90625 2.0312,2.3672 2.0312,4.375 0,1.0625 -0.25,1.9648 -0.75,2.7031 -0.49219,0.74219 -1.2031,1.2891 -2.1406,1.6406 z"
         id="path26" />
    </symbol>
    <symbol
       id="c"
       overflow="visible">
      <path
         d="M 18.875,-9.9219 V 0 h -5.2344 v -7.5938 c 0,-1.4062 -0.03125,-2.375 -0.09375,-2.9062 -0.0625,-0.5312 -0.17188,-0.92188 -0.32812,-1.1719 -0.21094,-0.34375 -0.49219,-0.60938 -0.84375,-0.79688 -0.34375,-0.1875 -0.73438,-0.28125 -1.1719,-0.28125 -1.0938,0 -1.9531,0.42188 -2.5781,1.2656 -0.61719,0.83594 -0.92188,1.9922 -0.92188,3.4688 V -3e-5 H 2.5 v -16.281 h 5.2031 v 2.375 c 0.78906,-0.94531 1.625,-1.6445 2.5,-2.0938 0.88281,-0.44531 1.8594,-0.67188 2.9219,-0.67188 1.8828,0 3.3125,0.57812 4.2812,1.7344 0.97656,1.1484 1.4688,2.8203 1.4688,5.0156 z"
         id="path29" />
    </symbol>
    <symbol
       id="u"
       overflow="visible">
      <path
         d="m 2.7344,-21.703 h 5.5938 v 17.469 h 9.8281 V 4e-4 H 2.7343 Z"
         id="path32" />
    </symbol>
    <symbol
       id="i"
       overflow="visible">
      <path
         d="m 2.5,-22.625 h 5.2031 v 12.312 l 6,-5.9688 H 19.75 L 11.7969,-8.813 20.375,-5e-4 H 14.0625 L 7.7031,-6.7974 V -5e-4 H 2.5 Z"
         id="path35" />
    </symbol>
    <symbol
       id="t"
       overflow="visible">
      <path
         d="M 2.5,-16.281 H 7.7031 V 0 H 2.5 Z m 0,-6.3438 h 5.2031 v 4.25 H 2.5 Z"
         id="path38" />
    </symbol>
    <symbol
       id="s"
       overflow="visible">
      <path
         d="m 13.219,-22.625 v 3.4219 h -2.875 c -0.74219,0 -1.2578,0.13672 -1.5469,0.40625 -0.29297,0.26172 -0.4375,0.71875 -0.4375,1.375 v 1.1406 h 4.4531 v 3.7188 H 8.3596 v 12.562 H 3.1565 v -12.562 H 0.5627 v -3.7188 h 2.5938 v -1.1406 c 0,-1.7695 0.49219,-3.0781 1.4844,-3.9219 0.98828,-0.85156 2.5195,-1.2812 4.5938,-1.2812 z"
         id="path41" />
    </symbol>
    <symbol
       id="e"
       overflow="visible">
      <path
         d="m 10.25,-12.953 c -1.1562,0 -2.0391,0.41797 -2.6406,1.25 -0.60547,0.82422 -0.90625,2.0156 -0.90625,3.5781 0,1.5625 0.30078,2.7617 0.90625,3.5938 0.60156,0.82422 1.4844,1.2344 2.6406,1.2344 1.1328,0 2,-0.41016 2.5938,-1.2344 0.60156,-0.83203 0.90625,-2.0312 0.90625,-3.5938 0,-1.5626 -0.30469,-2.7539 -0.90625,-3.5781 -0.59375,-0.83203 -1.4609,-1.25 -2.5938,-1.25 z m 0,-3.7188 c 2.8008,0 4.9883,0.75781 6.5625,2.2656 1.582,1.5117 2.375,3.6055 2.375,6.2812 0,2.6797 -0.79297,4.7734 -2.375,6.2812 -1.5742,1.5117 -3.7617,2.2656 -6.5625,2.2656 -2.8125,0 -5.0117,-0.75391 -6.5938,-2.2656 -1.5859,-1.5078 -2.375,-3.6016 -2.375,-6.2812 0,-2.6758 0.78906,-4.7695 2.375,-6.2812 1.582,-1.5078 3.7812,-2.2656 6.5938,-2.2656 z"
         id="path44" />
    </symbol>
    <symbol
       id="r"
       overflow="visible">
      <path
         d="m 17.594,-13.578 c 0.65625,-1.0078 1.4375,-1.7734 2.3438,-2.2969 0.90625,-0.53125 1.9062,-0.79688 3,-0.79688 1.8633,0 3.2852,0.57812 4.2656,1.7344 0.97656,1.1484 1.4688,2.8203 1.4688,5.0156 v 9.9219 h -5.2344 v -8.5 c 0.0078,-0.125 0.01563,-0.25391 0.01563,-0.39062 0.0078,-0.13281 0.01563,-0.32812 0.01563,-0.57812 0,-1.1562 -0.17188,-1.9883 -0.51562,-2.5 -0.33594,-0.51953 -0.88281,-0.78125 -1.6406,-0.78125 -0.99219,0 -1.7578,0.40625 -2.2969,1.2188 -0.53125,0.8125 -0.80859,1.9922 -0.82812,3.5312 v 8 h -5.2344 v -8.5 c 0,-1.8008 -0.15625,-2.957 -0.46875,-3.4688 -0.30469,-0.51953 -0.85547,-0.78125 -1.6562,-0.78125 -1,0 -1.7734,0.41406 -2.3125,1.2344 -0.54297,0.8125 -0.8125,1.9805 -0.8125,3.5 V 8e-5 h -5.2344 v -16.281 h 5.2344 v 2.375 c 0.64453,-0.91406 1.3789,-1.6016 2.2031,-2.0625 0.83203,-0.46875 1.75,-0.70312 2.75,-0.70312 1.125,0 2.1133,0.27344 2.9688,0.8125 0.86328,0.54297 1.5195,1.3047 1.9688,2.2812 z"
         id="path47" />
    </symbol>
    <symbol
       id="q"
       overflow="visible">
      <path
         d="M 18.875,-9.9219 V 0 h -5.2344 v -7.5625 c 0,-1.4258 -0.03125,-2.4062 -0.09375,-2.9375 -0.0625,-0.5313 -0.17188,-0.92188 -0.32812,-1.1719 -0.21094,-0.34375 -0.49219,-0.60938 -0.84375,-0.79688 -0.34375,-0.1875 -0.73438,-0.28125 -1.1719,-0.28125 -1.0938,0 -1.9531,0.42188 -2.5781,1.2656 -0.61719,0.83594 -0.92188,1.9922 -0.92188,3.4688 V -3e-5 H 2.5 v -22.625 h 5.2031 v 8.7188 c 0.78906,-0.94531 1.625,-1.6445 2.5,-2.0938 0.88281,-0.44531 1.8594,-0.67188 2.9219,-0.67188 1.8828,0 3.3125,0.57812 4.2812,1.7344 0.97656,1.1484 1.4688,2.8203 1.4688,5.0156 z"
         id="path50" />
    </symbol>
    <symbol
       id="p"
       overflow="visible">
      <path
         d="m 2.7344,-21.703 h 6.25 l 7.9062,14.891 v -14.891 h 5.2969 V 0 h -6.25 L 8.0469,-14.891 V 0 H 2.7344 Z"
         id="path53" />
    </symbol>
    <symbol
       id="o"
       overflow="visible">
      <path
         d="m 2.3281,-6.3438 v -9.9375 h 5.2344 v 1.625 c 0,0.88672 -0.00781,1.9961 -0.015625,3.3281 -0.011719,1.3359 -0.015625,2.2188 -0.015625,2.6562 0,1.3125 0.03125,2.2617 0.09375,2.8438 0.070312,0.57422 0.19141,0.99219 0.35938,1.25 0.20703,0.33594 0.48438,0.59375 0.82812,0.78125 0.34374,0.1875 0.73828,0.28125 1.1875,0.28125 1.0938,0 1.9453,-0.41406 2.5625,-1.25 0.625,-0.83203 0.9375,-1.9922 0.9375,-3.4844 v -8.0312 h 5.2031 V -3e-4 H 13.5 v -2.3594 c -0.79297,0.94922 -1.625,1.6523 -2.5,2.1094 -0.875,0.44531 -1.8438,0.67188 -2.9062,0.67188 -1.875,0 -3.3086,-0.57812 -4.2969,-1.7344 -0.98047,-1.1562 -1.4688,-2.832 -1.4688,-5.0312 z"
         id="path56" />
    </symbol>
    <symbol
       id="n"
       overflow="visible">
      <path
         d="m 2.7344,-21.703 h 9.2969 c 2.7578,0 4.8789,0.61719 6.3594,1.8438 1.4766,1.2188 2.2188,2.9648 2.2188,5.2344 0,2.2734 -0.74219,4.0234 -2.2188,5.25 -1.4805,1.2305 -3.6016,1.8438 -6.3594,1.8438 H 8.3282 V 2e-4 H 2.7344 Z m 5.5938,4.0469 v 6.0625 h 3.1094 c 1.082,0 1.9141,-0.25781 2.5,-0.78125 0.59375,-0.53125 0.89062,-1.2812 0.89062,-2.25 0,-0.9688 -0.29688,-1.7109 -0.89062,-2.2344 -0.58594,-0.53125 -1.418,-0.79688 -2.5,-0.79688 z"
         id="path59" />
    </symbol>
    <symbol
       id="m"
       overflow="visible">
      <path
         d="m 2.5,-16.281 h 5.2031 v 15.984 c 0,2.1875 -0.52734,3.8516 -1.5781,5 C 5.082,5.8475 3.5664,6.4218 1.5781,6.4218 H -0.9844 V 3.0156 h 0.89062 c 0.98828,0 1.6641,-0.22656 2.0312,-0.67188 0.375,-0.44922 0.5625,-1.3281 0.5625,-2.6406 z m 0,-6.3438 h 5.2031 v 4.25 H 2.5 Z"
         id="path62" />
    </symbol>
    <symbol
       id="l"
       overflow="visible">
      <path
         d="m 15.656,-15.781 v 4.25 c -0.71094,-0.48828 -1.418,-0.84766 -2.125,-1.0781 -0.71094,-0.22656 -1.4492,-0.34375 -2.2188,-0.34375 -1.4609,0 -2.5938,0.42969 -3.4062,1.2812 -0.80469,0.84375 -1.2031,2.0273 -1.2031,3.5469 0,1.5234 0.39844,2.7109 1.2031,3.5625 0.8125,0.84375 1.9453,1.2656 3.4062,1.2656 0.8125,0 1.582,-0.11719 2.3125,-0.35938 0.73828,-0.25 1.4141,-0.60938 2.0312,-1.0781 v 4.25 c -0.8125,0.30469 -1.6406,0.52344 -2.4844,0.67188 -0.83594,0.15625 -1.6719,0.23438 -2.5156,0.23438 -2.9375,0 -5.2344,-0.75 -6.8906,-2.25 -1.6562,-1.5078 -2.4844,-3.6094 -2.4844,-6.2969 0,-2.6875 0.82812,-4.7812 2.4844,-6.2812 1.6562,-1.5078 3.9531,-2.2656 6.8906,-2.2656 0.85156,0 1.6914,0.07422 2.5156,0.21875 0.83203,0.14844 1.6602,0.37109 2.4844,0.67188 z"
         id="path65" />
    </symbol>
  </defs>
  <g
     id="g441"
     transform="translate(-69.87526,0.191533)"
     style="fill:#ffffff;fill-opacity:1">
    <path
       d="m 327.51,176.1 h -0.77734 c -1.9414,-0.51562 -3.9453,-0.77734 -5.957,-0.77344 -6.1484,0 -12.051,2.4375 -16.406,6.7852 -4.3555,4.3438 -6.8125,10.238 -6.8281,16.391 v 126.3 c 0,3.2891 -2.6641,5.957 -5.957,5.957 -3.2891,0 -5.957,-2.668 -5.957,-5.957 v -126.54 c 0.0937,-9.3594 3.8516,-18.305 10.469,-24.922 6.6172,-6.6172 15.562,-10.375 24.918,-10.469 h 2.918 l 17.934,-147.56 c 0.99219,-7.4102 -4.1602,-14.234 -11.555,-15.312 h -2.207 c -5.6289,0.019531 -10.676,3.4648 -12.746,8.6992 l -56.062,143.27 c -18.102,46.18 -27.941,95.18 -29.07,144.77 l -1.5508,78.102 c -0.19531,10.234 -3.6836,20.137 -9.9492,28.238 l -58.324,75.719 c -2.0664,2.7227 -3.1875,6.0508 -3.1875,9.4727 0,3.418 1.1211,6.7461 3.1875,9.4727 19.227,26.816 45.379,47.902 75.66,61.004 2.832,1.207 5.957,1.5586 8.9844,1.0078 3.0312,-0.55078 5.8281,-1.9805 8.0547,-4.1055 l 56.477,-54.094 c 21.914,-21.145 34.316,-50.273 34.375,-80.723 v -222.57 c -0.0117,-4.9688 -1.6172,-9.8008 -4.5742,-13.789 -2.9609,-3.9883 -7.1172,-6.9219 -11.867,-8.375 z"
       id="path70"
       style="fill:#ffffff;fill-opacity:1" />
    <path
       d="m 349.97,178.72 c 3.625,-5.3945 8.6523,-9.6992 14.539,-12.449 L 349.97,47.661 335.435,166.091 c 5.9258,2.7734 10.961,7.1484 14.535,12.629 z"
       id="path72"
       style="fill:#ffffff;fill-opacity:1" />
    <path
       d="m 481.45,403.08 c -6.2422,-8.1094 -9.7305,-18.008 -9.9453,-28.238 l -1.7891,-78.102 c -1.1094,-49.586 -10.93,-98.586 -29.012,-144.77 l -56.059,-142.98 -0.004,0.00391 c -2.2188,-6.1641 -8.4648,-9.9219 -14.953,-8.9961 -7.2422,1.1641 -12.27,7.8477 -11.375,15.133 l 17.871,147.68 h 2.8594 c 9.3555,0.0937 18.305,3.8516 24.918,10.469 6.6172,6.6172 10.375,15.562 10.469,24.918 v 126.3 c 0,3.2891 -2.668,5.957 -5.957,5.957 -3.2891,0 -5.957,-2.668 -5.957,-5.957 v -126.24 c -0.0156,-6.1523 -2.4727,-12.047 -6.8281,-16.391 -4.3555,-4.3477 -10.254,-6.7852 -16.406,-6.7852 -2.0117,-0.0117 -4.0156,0.24609 -5.957,0.77344 h -0.83594 c -4.7305,1.4648 -8.8711,4.4062 -11.809,8.3945 -2.9375,3.9883 -4.5195,8.8125 -4.5156,13.77 v 222.81 c 0.0586,30.449 12.465,59.578 34.375,80.723 l 56.418,54.094 c 2.2383,2.125 5.0508,3.5508 8.0859,4.1016 3.0391,0.55078 6.1719,0.19922 9.0117,-1.0039 30.246,-13.113 56.355,-34.199 75.543,-61.004 2.0664,-2.7266 3.1875,-6.0547 3.1875,-9.4727 0,-3.4219 -1.1211,-6.75 -3.1875,-9.4727 z"
       id="path74"
       style="fill:#ffffff;fill-opacity:1" />
  </g>
</svg>
