<?xml version="1.0" encoding="UTF-8" standalone="no"?>
<svg
   width="585"
   height="585"
   version="1.1"
   viewBox="0 0 438.75 438.75"
   id="svg1527"
   sodipodi:docname="Religious extermination.svg"
   inkscape:export-filename="Religious extermination.png"
   inkscape:export-xdpi="8.21"
   inkscape:export-ydpi="8.21"
   inkscape:version="1.2.2 (b0a8486541, 2022-12-01)"
   xmlns:inkscape="http://www.inkscape.org/namespaces/inkscape"
   xmlns:sodipodi="http://sodipodi.sourceforge.net/DTD/sodipodi-0.dtd"
   xmlns="http://www.w3.org/2000/svg"
   xmlns:svg="http://www.w3.org/2000/svg">
  <sodipodi:namedview
     id="namedview1529"
     pagecolor="#ffffff"
     bordercolor="#666666"
     borderopacity="1.0"
     inkscape:showpageshadow="2"
     inkscape:pageopacity="0.0"
     inkscape:pagecheckerboard="true"
     inkscape:deskcolor="#d1d1d1"
     inkscape:document-units="pt"
     showgrid="false"
     inkscape:zoom="0.62124382"
     inkscape:cx="292.15583"
     inkscape:cy="471.63447"
     inkscape:window-width="1920"
     inkscape:window-height="1003"
     inkscape:window-x="0"
     inkscape:window-y="27"
     inkscape:window-maximized="1"
     inkscape:current-layer="svg1527" />
  <defs
     id="defs1455">
    <symbol
       id="n"
       overflow="visible">
      <path
         d="m 29.312,-1.75 c -1.5117,0.78125 -3.0898,1.3711 -4.7344,1.7656 -1.6367,0.40625 -3.3398,0.60938 -5.1094,0.60938 -5.3125,0 -9.5273,-1.4844 -12.641,-4.4531 -3.1055,-2.9688 -4.6562,-7 -4.6562,-12.094 0,-5.094 1.5508,-9.125 4.6562,-12.094 3.1133,-2.9688 7.3281,-4.4531 12.641,-4.4531 1.7695,0 3.4727,0.19922 5.1094,0.59375 1.6445,0.39844 3.2227,0.99219 4.7344,1.7812 v 6.5938 c -1.5312,-1.0391 -3.0391,-1.8008 -4.5156,-2.2812 -1.4805,-0.48828 -3.0391,-0.73438 -4.6719,-0.73438 -2.9375,0 -5.2461,0.94531 -6.9219,2.8281 -1.6797,1.875 -2.5156,4.4648 -2.5156,7.7656 0,3.293 0.83594,5.8828 2.5156,7.7656 1.6758,1.875 3.9844,2.8125 6.9219,2.8125 1.6328,0 3.1914,-0.23828 4.6719,-0.71875 1.4766,-0.48828 2.9844,-1.2539 4.5156,-2.2969 z"
         id="path1413" />
    </symbol>
    <symbol
       id="l"
       overflow="visible">
      <path
         d="m 21.453,-17.406 c -0.67969,-0.3125 -1.3516,-0.53906 -2.0156,-0.6875 -0.65625,-0.15625 -1.3203,-0.23438 -1.9844,-0.23438 -1.9688,0 -3.4844,0.63281 -4.5469,1.8906 -1.0547,1.2617 -1.5781,3.0703 -1.5781,5.4219 V 6.2e-4 H 3.6718 v -23.922 h 7.6562 v 3.9219 c 0.97656,-1.5625 2.1016,-2.7031 3.375,-3.4219 1.2812,-0.71875 2.8125,-1.0781 4.5938,-1.0781 0.25,0 0.52344,0.01172 0.82812,0.03125 0.30078,0.02344 0.73438,0.07031 1.2969,0.14062 z"
         id="path1416" />
    </symbol>
    <symbol
       id="a"
       overflow="visible">
      <path
         d="m 27.562,-12.031 v 2.1875 H 9.671 c 0.1875,1.793 0.83203,3.1367 1.9375,4.0312 1.1133,0.89844 2.6719,1.3438 4.6719,1.3438 1.6016,0 3.25,-0.23438 4.9375,-0.70312 1.6875,-0.47656 3.4219,-1.2031 5.2031,-2.1719 v 5.8906 c -1.8047,0.6875 -3.6094,1.2031 -5.4219,1.5469 -1.8125,0.35156 -3.6211,0.53125 -5.4219,0.53125 -4.3359,0 -7.7031,-1.0977 -10.109,-3.2969 -2.3984,-2.207 -3.5938,-5.2969 -3.5938,-9.2656 0,-3.9062 1.1758,-6.9727 3.5312,-9.2031 2.3633,-2.2383 5.6094,-3.3594 9.7344,-3.3594 3.7578,0 6.7695,1.1367 9.0312,3.4062 2.2578,2.2617 3.3906,5.2812 3.3906,9.0625 z m -7.8594,-2.5312 c 0,-1.457 -0.42969,-2.6289 -1.2812,-3.5156 -0.84375,-0.89453 -1.9492,-1.3438 -3.3125,-1.3438 -1.4922,0 -2.6992,0.41797 -3.625,1.25 -0.91797,0.83594 -1.4922,2.0391 -1.7188,3.6094 z"
         id="path1419" />
    </symbol>
    <symbol
       id="k"
       overflow="visible">
      <path
         d="m 14.391,-10.766 c -1.5938,0 -2.793,0.27344 -3.5938,0.8125 -0.80469,0.54297 -1.2031,1.3398 -1.2031,2.3906 0,0.96875 0.32031,1.7305 0.96875,2.2812 0.64453,0.54297 1.5469,0.8125 2.7031,0.8125 1.4375,0 2.6445,-0.51562 3.625,-1.5469 0.98828,-1.0312 1.4844,-2.3203 1.4844,-3.875 v -0.875 z m 11.688,-2.8906 V -6e-4 h -7.7031 v -3.5469 c -1.0312,1.4492 -2.1875,2.5078 -3.4688,3.1719 -1.2813,0.6641 -2.8398,1 -4.6719,1 -2.4805,0 -4.4961,-0.72266 -6.0469,-2.1719 -1.543,-1.4453 -2.3125,-3.3203 -2.3125,-5.625 0,-2.8125 0.96094,-4.8672 2.8906,-6.1719 1.9375,-1.3125 4.9688,-1.9688 9.0938,-1.9688 h 4.5156 v -0.60938 c 0,-1.207 -0.48047,-2.0938 -1.4375,-2.6562 -0.94922,-0.5625 -2.4375,-0.84375 -4.4688,-0.84375 -1.6367,0 -3.1562,0.16797 -4.5625,0.5 -1.4062,0.32422 -2.7188,0.8125 -3.9375,1.4688 v -5.8281 c 1.6445,-0.40625 3.2891,-0.70703 4.9375,-0.90625 1.6562,-0.20703 3.3047,-0.3125 4.9531,-0.3125 4.3203,0 7.4375,0.85547 9.3438,2.5625 1.9141,1.6992 2.875,4.4609 2.875,8.2812 z"
         id="path1422" />
    </symbol>
    <symbol
       id="j"
       overflow="visible">
      <path
         d="m 12.031,-30.719 v 6.7969 h 7.875 v 5.4688 h -7.875 v 10.141 c 0,1.1172 0.21875,1.8711 0.65625,2.2656 0.4375,0.38672 1.3125,0.57812 2.625,0.57812 h 3.9375 v 5.4688 h -6.5625 c -3.0234,0 -5.1641,-0.62891 -6.4219,-1.8906 -1.2617,-1.2578 -1.8906,-3.3984 -1.8906,-6.4219 v -10.141 h -3.7969 v -5.4688 h 3.7969 v -6.7969 z"
         id="path1425" />
    </symbol>
    <symbol
       id="i"
       overflow="visible">
      <path
         d="m 19.953,-20.422 v -12.812 h 7.6875 V 0 H 19.953 v -3.4531 c -1.0547,1.4062 -2.2148,2.4375 -3.4844,3.0938 -1.2734,0.65625 -2.7422,0.98438 -4.4062,0.98438 -2.9492,0 -5.3711,-1.1719 -7.2656,-3.5156 -1.8867,-2.3438 -2.8281,-5.3594 -2.8281,-9.0469 0,-3.6875 0.94141,-6.7031 2.8281,-9.0469 1.8945,-2.3438 4.3164,-3.5156 7.2656,-3.5156 1.6562,0 3.1172,0.33594 4.3906,1 1.2812,0.65625 2.4453,1.6836 3.5,3.0781 z m -5.0469,15.484 c 1.6445,0 2.8945,-0.59766 3.75,-1.7969 0.86328,-1.1953 1.2969,-2.9297 1.2969,-5.2031 0,-2.2812 -0.43359,-4.0195 -1.2969,-5.2188 -0.85547,-1.1953 -2.1055,-1.7969 -3.75,-1.7969 -1.625,0 -2.8711,0.60156 -3.7344,1.7969 -0.85547,1.1992 -1.2812,2.9375 -1.2812,5.2188 0,2.2734 0.42578,4.0078 1.2812,5.2031 0.86328,1.1992 2.1094,1.7969 3.7344,1.7969 z"
         id="path1428" />
    </symbol>
    <symbol
       id="h"
       overflow="visible">
      <path
         d="m 16.406,-4.9375 c 1.6328,0 2.8828,-0.59766 3.75,-1.7969 0.86328,-1.1953 1.2969,-2.9297 1.2969,-5.2031 0,-2.2812 -0.43359,-4.0195 -1.2969,-5.2188 -0.86719,-1.1953 -2.1172,-1.7969 -3.75,-1.7969 -1.6367,0 -2.8906,0.60547 -3.7656,1.8125 -0.875,1.1992 -1.3125,2.9336 -1.3125,5.2031 0,2.2617 0.4375,3.9961 1.3125,5.2031 0.875,1.1992 2.1289,1.7969 3.7656,1.7969 z m -5.0781,-15.484 c 1.0508,-1.3945 2.2188,-2.4219 3.5,-3.0781 1.2812,-0.66406 2.7539,-1 4.4219,-1 2.9453,0 5.3672,1.1719 7.2656,3.5156 1.8945,2.3438 2.8438,5.3594 2.8438,9.0469 0,3.6875 -0.94922,6.7031 -2.8438,9.0469 -1.8984,2.3438 -4.3203,3.5156 -7.2656,3.5156 -1.668,0 -3.1406,-0.33594 -4.4219,-1 -1.2813,-0.66406 -2.4492,-1.6914 -3.5,-3.0781 V 4e-4 H 3.6717 v -33.234 h 7.6562 z"
         id="path1431" />
    </symbol>
    <symbol
       id="g"
       overflow="visible">
      <path
         d="m 0.53125,-23.922 h 7.6562 l 6.4219,16.234 5.4688,-16.234 h 7.6562 l -10.062,26.188 c -1.0117,2.6641 -2.1953,4.5234 -3.5469,5.5781 -1.3438,1.0625 -3.1211,1.5938 -5.3281,1.5938 H 4.37545 V 4.4223 h 2.3906 c 1.3008,0 2.2422,-0.21094 2.8281,-0.625 0.59375,-0.40625 1.0547,-1.1484 1.3906,-2.2188 l 0.20312,-0.65625 z"
         id="path1434" />
    </symbol>
    <symbol
       id="f"
       overflow="visible">
      <path
         d="m 4.0156,-31.891 h 22.203 v 6.2188 h -13.984 v 5.9375 h 13.141 v 6.2188 H 12.2346 V 1e-4 H 4.0158 Z"
         id="path1437" />
    </symbol>
    <symbol
       id="e"
       overflow="visible">
      <path
         d="M 23.375,-5.8125 H 10.516 L 8.4848,0 H 0.2192 l 11.812,-31.891 h 9.7969 L 33.6401,0 h -8.2656 z m -10.812,-5.9219 h 8.7344 l -4.3594,-12.688 z"
         id="path1440" />
    </symbol>
    <symbol
       id="d"
       overflow="visible">
      <path
         d="m 15.703,-17.75 c 1.7188,0 2.9531,-0.31641 3.7031,-0.95312 0.75,-0.64453 1.125,-1.7031 1.125,-3.1719 0,-1.4453 -0.375,-2.4844 -1.125,-3.1094 -0.75,-0.63281 -1.9844,-0.95312 -3.7031,-0.95312 h -3.4688 v 8.1875 z m -3.4688,5.6875 V -5e-4 H 4.0154 v -31.891 h 12.562 c 4.1953,0 7.2734,0.70312 9.2344,2.1094 1.957,1.4062 2.9375,3.6367 2.9375,6.6875 0,2.1055 -0.51172,3.8359 -1.5312,5.1875 -1.0117,1.3555 -2.543,2.3555 -4.5938,3 1.125,0.25 2.1289,0.82812 3.0156,1.7344 0.89453,0.90625 1.7969,2.2773 2.7031,4.1094 l 4.4688,9.0625 h -8.7656 l -3.875,-7.9219 c -0.79297,-1.5938 -1.5898,-2.6797 -2.3906,-3.2656 -0.80469,-0.58203 -1.875,-0.875 -3.2188,-0.875 z"
         id="path1443" />
    </symbol>
    <symbol
       id="c"
       overflow="visible">
      <path
         d="m 4.0156,-31.891 h 8.2188 v 12.156 h 12.141 v -12.156 h 8.2188 V 0 H 24.3754 V -13.516 H 12.2344 V 0 H 4.0156 Z"
         id="path1446" />
    </symbol>
    <symbol
       id="b"
       overflow="visible">
      <path
         d="m 4.0156,-31.891 h 9.1875 l 11.594,21.875 V -31.891 H 32.594 V 0 H 23.4065 L 11.8125,-21.875 V 0 H 4.0156 Z"
         id="path1449" />
    </symbol>
    <symbol
       id="m"
       overflow="visible">
      <path
         d="m 4.0156,-31.891 h 8.2188 v 19.109 c 0,2.6367 0.42969,4.5234 1.2969,5.6562 0.86328,1.1367 2.2695,1.7031 4.2188,1.7031 1.9688,0 3.3789,-0.56641 4.2344,-1.7031 0.86328,-1.1328 1.2969,-3.0195 1.2969,-5.6562 v -19.109 h 8.2344 v 19.109 c 0,4.5234 -1.1367,7.8867 -3.4062,10.094 -2.2617,2.2109 -5.7148,3.3125 -10.359,3.3125 -4.625,0 -8.0742,-1.1016 -10.344,-3.3125 C 5.1449,-4.895 4.016,-8.2583 4.016,-12.782 Z"
         id="path1452" />
    </symbol>
  </defs>
  <g
     id="g4785"
     transform="translate(-130.6225,-60.626)"
     style="fill:#ffffff;fill-opacity:1">
    <path
       d="m 538.12,468.12 h -27.648 c -2.4492,0 -4.375,1.9258 -4.375,4.375 0,2.3633 1.9258,4.375 4.375,4.375 h 32.023 c 2.3633,0 4.375,-2.0117 4.375,-4.375 v -32.023 c 0,-2.4492 -2.0117,-4.375 -4.375,-4.375 -2.4492,0 -4.375,1.9258 -4.375,4.375 z"
       id="path1457"
       style="fill:#ffffff;fill-opacity:1" />
    <path
       d="m 569.36,494.99 v -89.863 c 0,-2.4492 -1.9258,-4.375 -4.375,-4.375 -2.4492,0 -4.375,1.9258 -4.375,4.375 v 85.488 h -85.488 c -2.4492,0 -4.375,1.9258 -4.375,4.375 0,2.4492 1.9258,4.375 4.375,4.375 h 89.863 c 2.4492,0 4.375,-1.9258 4.375,-4.375 z"
       id="path1459"
       style="fill:#ffffff;fill-opacity:1" />
    <path
       d="m 228.81,284.38 h 14.523 c 2.2734,55.387 46.898,100.01 102.29,102.29 v 14.523 c 0,2.3633 1.9258,4.375 4.375,4.375 2.4492,0 4.375,-2.0117 4.375,-4.375 V 386.67 c 55.387,-2.2734 100.01,-46.898 102.29,-102.29 h 14.523 c 2.3633,0 4.375,-1.9258 4.375,-4.375 0,-2.4492 -2.0117,-4.375 -4.375,-4.375 H 456.663 C 454.3896,220.243 409.765,175.62 354.373,173.34 v -14.523 c 0,-2.3633 -1.9258,-4.375 -4.375,-4.375 -2.4492,0 -4.375,2.0117 -4.375,4.375 v 14.523 c -55.387,2.2734 -100.01,46.898 -102.29,102.29 H 228.81 c -2.3633,0 -4.375,1.9258 -4.375,4.375 0,2.4492 2.0117,4.375 4.375,4.375 z m 125.56,-78.926 v -23.363 c 50.574,2.2734 91.262,42.961 93.539,93.539 h -23.363 c 0,0 -0.0859,0 -0.17578,0.0859 -2.1875,-37.711 -32.375,-67.898 -70.086,-70.086 0.0859,-0.0859 0.0859,-0.17578 0.0859,-0.17578 z m -4.375,14.699 c 15.488,0 28.086,12.602 28.086,28.086 0,15.574 -12.602,28.176 -28.086,28.176 -15.488,0 -28.086,-12.602 -28.086,-28.176 0,-15.484 12.598,-28.086 28.086,-28.086 z m -4.375,-38.062 v 23.363 c 0,0 0,0.0859 0.0859,0.17578 -37.711,2.1875 -67.898,32.375 -70.086,70.086 -0.0859,-0.0859 -0.17578,-0.0859 -0.17578,-0.0859 h -23.363 c 2.2773,-50.574 42.965,-91.262 93.539,-93.539 z m -70.176,102.29 c 0.0859,0 0.17578,-0.0859 0.26172,-0.0859 0.78906,13.301 4.8984,25.637 11.727,36.227 13.387,-21.875 36.664,-35.262 62.562,-35.262 25.898,0 49.176,13.387 62.562,35.262 6.8242,-10.586 10.938,-22.926 11.727,-36.227 0.0859,0 0.17578,0.0859 0.26172,0.0859 h 23.363 c -2.2734,50.574 -42.961,91.262 -93.539,93.539 v -23.363 c 0,-0.0859 0,-0.0859 -0.0859,-0.17578 1.2266,-0.0859 2.4492,-0.0859 3.6758,-0.26172 0.78906,-0.0859 1.6641,-0.26172 2.5391,-0.35156 1.6641,-0.26172 3.4141,-0.52344 5.1641,-0.875 0.96094,-0.17578 2.0117,-0.52344 2.9766,-0.78906 1.4883,-0.35156 2.9766,-0.69922 4.4609,-1.2266 1.0508,-0.35156 2.0117,-0.69922 3.0625,-1.1367 1.3984,-0.52344 2.8008,-1.0508 4.1133,-1.6641 0.96094,-0.4375 1.9258,-0.875 2.8008,-1.3125 1.4883,-0.69922 2.8867,-1.4883 4.1992,-2.2734 0.78906,-0.4375 1.5742,-0.96094 2.3633,-1.3984 1.5742,-0.96094 3.0625,-2.0117 4.5508,-3.1484 0.52344,-0.35156 1.0508,-0.69922 1.5742,-1.1367 1.8359,-1.4883 3.5859,-2.9766 5.3359,-4.6367 0.0859,-0.0859 0.17578,-0.17578 0.35156,-0.26172 1.9258,-1.8359 3.7617,-3.8516 5.5117,-5.9492 -11.375,-21 -32.988,-33.949 -56.961,-33.949 -23.977,0 -45.586,12.949 -56.961,33.949 1.75,2.1016 3.5859,4.1133 5.5117,5.9492 0.17578,0.0859 0.26172,0.17578 0.35156,0.26172 1.75,1.6641 3.5,3.1484 5.3359,4.6367 0.52344,0.4375 1.0508,0.78906 1.5742,1.1367 1.4883,1.1367 2.9766,2.1875 4.5508,3.1484 0.78906,0.4375 1.5742,0.96094 2.3633,1.3984 1.3125,0.78906 2.7109,1.5742 4.1992,2.2734 0.875,0.4375 1.8359,0.875 2.8008,1.3125 1.3125,0.61328 2.7109,1.1367 4.1992,1.6641 0.96094,0.4375 1.9258,0.78906 2.9766,1.1367 1.4883,0.52344 2.9766,0.875 4.4609,1.2266 0.96094,0.26172 2.0117,0.61328 2.9766,0.78906 1.75,0.35156 3.5,0.61328 5.1641,0.875 0.875,0.0859 1.75,0.26172 2.5391,0.35156 1.2266,0.17578 2.4492,0.17578 3.6758,0.26172 -0.0859,0.0859 -0.0859,0.0859 -0.0859,0.17578 v 23.363 c -50.574,-2.2734 -91.262,-42.961 -93.539,-93.539 z"
       id="path1461"
       style="fill:#ffffff;fill-opacity:1" />
    <path
       d="m 210.61,180.25 c -6.2109,0 -11.898,-1.8359 -16.887,-4.8125 -20.125,29.926 -31.852,65.887 -31.852,104.56 0,42 14,80.676 37.273,112 5.25,-3.5 11.461,-5.5117 18.199,-5.5117 18.113,0 32.898,14.789 32.898,32.898 0,6.2109 -1.8359,11.898 -4.8125,16.887 29.926,20.125 65.887,31.852 104.56,31.852 42,0 80.676,-14 112,-37.273 -3.5,-5.25 -5.5117,-11.461 -5.5117,-18.199 0,-18.113 14.789,-32.898 32.898,-32.898 6.2109,0 11.898,1.8359 16.887,4.8125 20.125,-29.926 31.852,-65.887 31.852,-104.56 0,-42 -14,-80.676 -37.273,-112 -5.25,3.5 -11.461,5.5117 -18.199,5.5117 -18.113,0 -32.898,-14.789 -32.898,-32.898 0,-6.2109 1.8359,-11.898 4.8125,-16.887 -29.926,-20.125 -65.887,-31.852 -104.56,-31.852 -42,0 -80.676,14 -112,37.273 3.5,5.25 5.5117,11.461 5.5117,18.199 0,18.109 -14.785,32.898 -32.898,32.898 z M 350,136.238 c 79.273,0 143.76,64.488 143.76,143.76 0,79.272 -64.488,143.76 -143.76,143.76 -79.272,0 -143.76,-64.488 -143.76,-143.76 0,-79.272 64.488,-143.76 143.76,-143.76 z"
       id="path1463"
       style="fill:#ffffff;fill-opacity:1" />
    <path
       d="m 135.01,159.25 c 2.4492,0 4.375,-1.9258 4.375,-4.375 V 69.387 h 85.488 c 2.4492,0 4.375,-2.0117 4.375,-4.375 0,-2.4492 -1.9258,-4.375 -4.375,-4.375 H 135.01 c -2.4492,0 -4.375,1.9258 -4.375,4.375 v 89.863 c 0,2.4492 1.9258,4.375 4.375,4.375 z"
       id="path1465"
       style="fill:#ffffff;fill-opacity:1" />
    <path
       d="m 234.76,147.35 c 0,13.336 -10.812,24.148 -24.148,24.148 -13.34,0 -24.152,-10.812 -24.152,-24.148 0,-13.34 10.812,-24.152 24.152,-24.152 13.336,0 24.148,10.812 24.148,24.152"
       id="path1467"
       style="fill:#ffffff;fill-opacity:1" />
    <path
       d="m 135.01,499.36 h 89.863 c 2.4492,0 4.375,-1.9258 4.375,-4.375 0,-2.4492 -1.9258,-4.375 -4.375,-4.375 h -85.488 v -85.488 c 0,-2.4492 -1.9258,-4.375 -4.375,-4.375 -2.4492,0 -4.375,1.9258 -4.375,4.375 v 89.863 c 0,2.4492 1.9258,4.375 4.375,4.375 z"
       id="path1469"
       style="fill:#ffffff;fill-opacity:1" />
    <path
       d="m 153.12,472.5 c 0,2.3633 2.0117,4.375 4.375,4.375 h 32.023 c 2.4492,0 4.375,-2.0117 4.375,-4.375 0,-2.4492 -1.9258,-4.375 -4.375,-4.375 H 161.87 v -27.648 c 0,-2.4492 -1.9258,-4.375 -4.375,-4.375 -2.3633,0 -4.375,1.9258 -4.375,4.375 z"
       id="path1471"
       style="fill:#ffffff;fill-opacity:1" />
    <path
       d="m 542.5,123.9 c 2.3633,0 4.375,-1.9258 4.375,-4.375 V 87.502 c 0,-2.3633 -2.0117,-4.375 -4.375,-4.375 h -32.023 c -2.4492,0 -4.375,2.0117 -4.375,4.375 0,2.4492 1.9258,4.375 4.375,4.375 h 27.648 v 27.648 c 0,2.4531 1.9258,4.375 4.375,4.375 z"
       id="path1473"
       style="fill:#ffffff;fill-opacity:1" />
    <path
       d="m 475.12,69.387 h 85.488 v 85.488 c 0,2.4492 1.9258,4.375 4.375,4.375 2.4492,0 4.375,-1.9258 4.375,-4.375 V 65.012 c 0,-2.4492 -1.9258,-4.375 -4.375,-4.375 H 475.12 c -2.4492,0 -4.375,1.9258 -4.375,4.375 0,2.4492 1.9258,4.375 4.375,4.375 z"
       id="path1475"
       style="fill:#ffffff;fill-opacity:1" />
    <path
       d="m 157.5,123.9 c 2.4492,0 4.375,-1.9258 4.375,-4.375 V 91.877 h 27.648 c 2.4492,0 4.375,-1.9258 4.375,-4.375 0,-2.3633 -1.9258,-4.375 -4.375,-4.375 H 157.5 c -2.3633,0 -4.375,2.0117 -4.375,4.375 v 32.023 c 0,2.4531 2.0117,4.375 4.375,4.375 z"
       id="path1477"
       style="fill:#ffffff;fill-opacity:1" />
    <path
       d="m 482.65,164.76 c 13.301,0 24.148,-10.852 24.148,-24.148 0,-13.301 -10.852,-24.148 -24.148,-24.148 -13.301,0 -24.148,10.852 -24.148,24.148 0,13.301 10.852,24.148 24.148,24.148 z"
       id="path1479"
       style="fill:#ffffff;fill-opacity:1" />
    <path
       d="m 217.35,443.54 c 13.301,0 24.148,-10.852 24.148,-24.148 0,-13.301 -10.852,-24.148 -24.148,-24.148 -13.301,0 -24.148,10.852 -24.148,24.148 -0.004,13.297 10.848,24.148 24.148,24.148 z"
       id="path1481"
       style="fill:#ffffff;fill-opacity:1" />
    <path
       d="m 513.54,412.65 c 0,13.34 -10.812,24.152 -24.152,24.152 -13.336,0 -24.148,-10.812 -24.148,-24.152 0,-13.336 10.812,-24.148 24.148,-24.148 13.34,0 24.152,10.812 24.152,24.148"
       id="path1483"
       style="fill:#ffffff;fill-opacity:1" />
    <path
       d="m 350,267.66 c 10.676,0 19.336,-8.75 19.336,-19.426 0,-10.676 -8.6641,-19.336 -19.336,-19.336 -10.676,0 -19.336,8.6641 -19.336,19.336 0,10.676 8.6602,19.426 19.336,19.426 z"
       id="path1485"
       style="fill:#ffffff;fill-opacity:1" />
  </g>
</svg>
