<?xml version="1.0" encoding="UTF-8" standalone="no"?>
<svg
   width="654"
   height="654"
   version="1.1"
   viewBox="0 0 490.5 490.5"
   id="svg1662"
   sodipodi:docname="Religious followers.svg"
   inkscape:export-filename="Religious followers.png"
   inkscape:export-xdpi="7.3400002"
   inkscape:export-ydpi="7.3400002"
   inkscape:version="1.2.2 (b0a8486541, 2022-12-01)"
   xmlns:inkscape="http://www.inkscape.org/namespaces/inkscape"
   xmlns:sodipodi="http://sodipodi.sourceforge.net/DTD/sodipodi-0.dtd"
   xmlns="http://www.w3.org/2000/svg"
   xmlns:svg="http://www.w3.org/2000/svg">
  <defs
     id="defs1666" />
  <sodipodi:namedview
     id="namedview1664"
     pagecolor="#ffffff"
     bordercolor="#666666"
     borderopacity="1.0"
     inkscape:showpageshadow="2"
     inkscape:pageopacity="0.0"
     inkscape:pagecheckerboard="true"
     inkscape:deskcolor="#d1d1d1"
     inkscape:document-units="pt"
     showgrid="false"
     inkscape:zoom="0.43928571"
     inkscape:cx="78.536585"
     inkscape:cy="475.77236"
     inkscape:window-width="1920"
     inkscape:window-height="1003"
     inkscape:window-x="0"
     inkscape:window-y="27"
     inkscape:window-maximized="1"
     inkscape:current-layer="svg1662" />
  <g
     id="g1660"
     transform="translate(-105.18968,-34.633214)"
     style="fill:#ffffff;fill-opacity:1">
    <path
       d="m 431.73,231 c 0.043,-21.684 -8.5273,-42.5 -23.836,-57.859 -15.305,-15.363 -36.09,-24.008 -57.773,-24.039 -21.684,-0.0312 -42.492,8.5547 -57.844,23.875 -15.348,15.316 -23.984,36.105 -24,57.789 -0.0156,21.688 8.5898,42.488 23.918,57.828 15.328,15.336 36.125,23.957 57.809,23.957 21.645,0 42.406,-8.5859 57.727,-23.875 15.32,-15.289 23.953,-36.031 24,-57.676 z M 301,231 c 0,-12.996 5.1641,-25.457 14.352,-34.648 C 324.5434,187.1645 337.004,182 350,182 c 12.996,0 25.457,5.1641 34.648,14.352 9.1875,9.1914 14.352,21.652 14.352,34.648 0,12.996 -5.1641,25.457 -14.352,34.648 C 375.4566,274.8355 362.996,280 350,280 337.004,280 324.543,274.8359 315.352,265.648 306.1645,256.4566 301,243.996 301,231 Z"
       id="path1648"
       style="fill:#ffffff;fill-opacity:1" />
    <path
       d="m 224.35,408.45 c 3.7344,2.1562 8.1758,2.7422 12.344,1.625 4.168,-1.1133 7.7188,-3.8398 9.8789,-7.5742 14.508,-24.988 41.109,-40.484 70,-40.773 h 65.277 c 28.883,0.32422 55.465,15.812 70,40.773 2.1797,3.7578 5.7656,6.5 9.9648,7.6133 4.2031,1.1172 8.6758,0.51953 12.434,-1.6641 3.7578,-2.1797 6.5,-5.7656 7.6133,-9.9688 1.1172,-4.1992 0.51953,-8.6719 -1.6641,-12.43 -20.527,-35.27 -58.238,-56.992 -99.051,-57.051 h -63.875 c -40.844,0.0937 -78.562,21.887 -99.047,57.227 -2.1445,3.7578 -2.7031,8.2109 -1.5508,12.383 1.1484,4.168 3.9102,7.7109 7.6758,9.8398 z"
       id="path1650"
       style="fill:#ffffff;fill-opacity:1" />
    <path
       d="m 578.73,263.73 c 0,-17.312 -6.8789,-33.918 -19.121,-46.156 -12.242,-12.242 -28.844,-19.121 -46.156,-19.121 -17.312,0 -33.914,6.8789 -46.156,19.121 -12.242,12.238 -19.117,28.844 -19.117,46.156 0,17.309 6.875,33.914 19.117,46.156 12.242,12.238 28.844,19.117 46.156,19.117 17.297,-0.0469 33.875,-6.9375 46.105,-19.168 12.23,-12.234 19.125,-28.809 19.172,-46.105 z m -98,0 c 0,-8.6797 3.4453,-17.004 9.582,-23.141 6.1367,-6.1367 14.461,-9.5859 23.141,-9.5859 8.6797,0 17.004,3.4492 23.141,9.5859 6.1367,6.1367 9.5859,14.461 9.5859,23.141 0,8.6758 -3.4492,17 -9.5859,23.137 -6.1367,6.1406 -14.461,9.5859 -23.141,9.5859 -8.6797,0 -17.004,-3.4453 -23.141,-9.5859 -6.1367,-6.1367 -9.582,-14.461 -9.582,-23.137 z"
       id="path1652"
       style="fill:#ffffff;fill-opacity:1" />
    <path
       d="m 507.5,378 h 29.051 c 11.777,-0.0391 23.211,3.9766 32.375,11.375 4.5625,3.6562 10.73,4.6016 16.18,2.4766 5.4531,-2.1211 9.3555,-6.9922 10.238,-12.773 0.88672,-5.7812 -1.3789,-11.594 -5.9453,-15.254 -14.906,-11.922 -33.406,-18.461 -52.5,-18.551 h -29.398 c -5.8477,0 -11.246,3.1211 -14.172,8.1836 -2.9219,5.0625 -2.9219,11.301 0,16.363 2.9258,5.0625 8.3242,8.1797 14.172,8.1797 z"
       id="path1654"
       style="fill:#ffffff;fill-opacity:1" />
    <path
       d="m 252,263.73 c 0,-17.312 -6.8789,-33.918 -19.117,-46.156 -12.242,-12.242 -28.848,-19.121 -46.156,-19.121 -17.312,0 -33.918,6.8789 -46.156,19.121 -12.242,12.238 -19.121,28.844 -19.121,46.156 0,17.309 6.8789,33.914 19.121,46.156 12.238,12.238 28.844,19.117 46.156,19.117 17.297,-0.0469 33.871,-6.9375 46.105,-19.168 12.23,-12.234 19.121,-28.809 19.168,-46.105 z m -65.273,32.547 c -8.6797,0 -17.004,-3.4453 -23.141,-9.582 -6.1367,-6.1367 -9.5859,-14.461 -9.5859,-23.141 0,-8.6797 3.4492,-17.004 9.5859,-23.141 6.1367,-6.1367 14.461,-9.5859 23.141,-9.5859 8.6758,0 17,3.4492 23.137,9.5859 6.1406,6.1367 9.5859,14.461 9.5859,23.141 0,8.6797 -3.4453,17.004 -9.5859,23.141 -6.1367,6.1367 -14.461,9.582 -23.137,9.582 z"
       id="path1656"
       style="fill:#ffffff;fill-opacity:1" />
    <path
       d="m 163.98,345.27 c -19.094,0.0898 -37.594,6.6289 -52.5,18.551 -3.3906,2.7148 -5.5586,6.6641 -6.0352,10.98 -0.47656,4.3164 0.78125,8.6445 3.4961,12.031 2.7148,3.3906 6.6641,5.5586 10.98,6.0352 4.3164,0.47656 8.6445,-0.78125 12.031,-3.4961 9.1641,-7.3984 20.598,-11.414 32.375,-11.375 h 28.176 c 5.8477,0 11.246,-3.1172 14.172,-8.1797 2.9219,-5.0625 2.9219,-11.301 0,-16.363 -2.9258,-5.0625 -8.3242,-8.1836 -14.172,-8.1836 z"
       id="path1658"
       style="fill:#ffffff;fill-opacity:1" />
  </g>
</svg>
