<?xml version="1.0" encoding="UTF-8" standalone="no"?>
<svg
   width="747"
   height="747"
   version="1.1"
   viewBox="0 0 560.25 560.25"
   id="svg1292"
   sodipodi:docname="Religious diplomacy.svg"
   inkscape:export-filename="Religious diplomacy.png"
   inkscape:export-xdpi="6.4299998"
   inkscape:export-ydpi="6.4299998"
   inkscape:version="1.2.2 (b0a8486541, 2022-12-01)"
   xmlns:inkscape="http://www.inkscape.org/namespaces/inkscape"
   xmlns:sodipodi="http://sodipodi.sourceforge.net/DTD/sodipodi-0.dtd"
   xmlns="http://www.w3.org/2000/svg"
   xmlns:svg="http://www.w3.org/2000/svg">
  <sodipodi:namedview
     id="namedview1294"
     pagecolor="#ffffff"
     bordercolor="#666666"
     borderopacity="1.0"
     inkscape:showpageshadow="2"
     inkscape:pageopacity="0.0"
     inkscape:pagecheckerboard="true"
     inkscape:deskcolor="#d1d1d1"
     inkscape:document-units="pt"
     showgrid="false"
     inkscape:zoom="0.87857143"
     inkscape:cx="467.23577"
     inkscape:cy="466.66667"
     inkscape:window-width="1920"
     inkscape:window-height="1003"
     inkscape:window-x="0"
     inkscape:window-y="27"
     inkscape:window-maximized="1"
     inkscape:current-layer="svg1292" />
  <defs
     id="defs1160">
    <symbol
       id="v"
       overflow="visible">
      <path
         d="M 3.7812,-0.21875 C 3.58198,-0.125 3.37886,-0.05078 3.17182,0 2.96088,0.050781 2.74213,0.078125 2.51557,0.078125 c -0.6875,0 -1.2344,-0.1875 -1.6406,-0.5625 -0.39844,-0.38281 -0.59375,-0.90625 -0.59375,-1.5625 0,-0.65625 0.19531,-1.1758 0.59375,-1.5625 0.40625,-0.38281 0.95312,-0.57812 1.6406,-0.57812 0.22656,0 0.44531,0.027344 0.65625,0.078125 0.20703,0.054687 0.41016,0.13281 0.60938,0.23438 v 0.84375 C 3.58198,-3.16405 3.38276,-3.26562 3.18745,-3.32812 2.99995,-3.39062 2.80073,-3.42187 2.5937,-3.42187 c -0.375,0 -0.67188,0.125 -0.89062,0.375 -0.21875,0.24219 -0.32812,0.57422 -0.32812,1 0,0.41797 0.10938,0.75 0.32812,1 0.21875,0.24219 0.51562,0.35938 0.89062,0.35938 0.20703,0 0.40625,-0.03125 0.59375,-0.09375 0.19531,-0.0625 0.39453,-0.16016 0.59375,-0.29688 z"
         id="path1094" />
    </symbol>
    <symbol
       id="d"
       overflow="visible">
      <path
         d="M 2.7656,-2.25 C 2.679663,-2.289062 2.59372,-2.316406 2.49998,-2.328125 c -0.085938,-0.019531 -0.16797,-0.03125 -0.25,-0.03125 -0.25,0 -0.44922,0.085937 -0.59375,0.25 -0.13672,0.15625 -0.20312,0.38672 -0.20312,0.6875 V 2.5e-5 H 0.46873 v -3.0781 h 0.98438 v 0.5 c 0.13281,-0.19531 0.28125,-0.34375 0.4375,-0.4375 0.16406,-0.09375 0.36328,-0.14062 0.59375,-0.14062 h 0.10938 c 0.039062,0 0.097656,0.00781 0.17188,0.015625 z"
         id="path1097" />
    </symbol>
    <symbol
       id="b"
       overflow="visible">
      <path
         d="m 3.5469,-1.5469 v 0.28125 H 1.25 c 0.019531,0.23047 0.10156,0.40234 0.25,0.51562 0.14453,0.11719 0.34375,0.17188 0.59375,0.17188 0.20703,0 0.42188,-0.03125 0.64062,-0.09375 0.21874,-0.0625 0.44141,-0.15625 0.67188,-0.28125 v 0.76562 C 3.17578,-0.101592 2.94141,-0.03909 2.70313,-3e-5 2.47266,0.050751 2.24219,0.078095 2.01563,0.078095 c -0.5625,0 -1,-0.14062 -1.3125,-0.42188 -0.30469,-0.28125 -0.45312,-0.67969 -0.45312,-1.2031 0,-0.5 0.14844,-0.89062 0.45312,-1.1719 0.30078,-0.28906 0.71875,-0.4375 1.25,-0.4375 0.48828,0 0.875,0.14844 1.1562,0.4375 0.28906,0.29297 0.4375,0.68359 0.4375,1.1719 z m -1,-0.32812 c 0,-0.1875 -0.058594,-0.33594 -0.17188,-0.45312 -0.10547,-0.11328 -0.24609,-0.17188 -0.42188,-0.17188 -0.19922,0 -0.35938,0.054688 -0.48438,0.15625 -0.11719,0.10547 -0.18359,0.26172 -0.20312,0.46875 z"
         id="path1100" />
    </symbol>
    <symbol
       id="l"
       overflow="visible">
      <path
         d="m 1.8594,-1.3906 c -0.21094,0 -0.36719,0.039063 -0.46875,0.10938 -0.10547,0.074219 -0.15625,0.17969 -0.15625,0.3125 0,0.125 0.039063,0.22656 0.125,0.29688 0.082031,0.0625 0.19531,0.09375 0.34375,0.09375 0.1875,0 0.34375,-0.0625 0.46875,-0.1875 0.13281,-0.13281 0.20312,-0.30469 0.20312,-0.51562 v -0.10938 z m 1.5,-0.375 V 0 H 2.37502 v -0.45312 c -0.13672,0.1875 -0.28906,0.32422 -0.45312,0.40625 -0.16797,0.082031 -0.37109,0.125 -0.60938,0.125 -0.3125,0 -0.57031,-0.09375 -0.76562,-0.28125 -0.19922,-0.1875 -0.29688,-0.42578 -0.29688,-0.71875 0,-0.36328 0.11719,-0.62891 0.35938,-0.79688 0.25,-0.16406 0.64062,-0.25 1.1719,-0.25 h 0.59375 v -0.078125 c 0,-0.15625 -0.0625,-0.26953 -0.1875,-0.34375 -0.125,-0.070313 -0.32031,-0.10938 -0.57812,-0.10938 -0.21094,0 -0.40625,0.023438 -0.59375,0.0625 -0.17969,0.042969 -0.34375,0.10547 -0.5,0.1875 v -0.75 c 0.20703,-0.050781 0.41406,-0.085938 0.625,-0.10938 0.21875,-0.03125 0.42969,-0.046875 0.64062,-0.046875 0.5625,0 0.96094,0.10938 1.2031,0.32812 0.25,0.21875 0.375,0.57422 0.375,1.0625 z"
         id="path1103" />
    </symbol>
    <symbol
       id="a"
       overflow="visible">
      <path
         d="m 1.5469,-3.9531 v 0.875 h 1.0156 v 0.70312 H 1.5469 v 1.2969 c 0,0.14844 0.023437,0.24609 0.078125,0.29688 0.0625,0.054688 0.17578,0.078125 0.34375,0.078125 h 0.51562 V 4.5e-5 h -0.84375 c -0.39844,0 -0.67969,-0.078125 -0.84375,-0.23438 -0.15625,-0.16406 -0.23438,-0.44531 -0.23438,-0.84375 v -1.2969 h -0.48438 v -0.70312 h 0.48438 v -0.875 z"
         id="path1106" />
    </symbol>
    <symbol
       id="f"
       overflow="visible">
      <path
         d="M 2.5781,-2.6406 V -4.2812 H 3.56248 V 0 H 2.5781 v -0.45312 c -0.13672,0.1875 -0.28906,0.32422 -0.45312,0.40625 -0.16797,0.082031 -0.35547,0.125 -0.5625,0.125 -0.38672,0 -0.70312,-0.14844 -0.95312,-0.45312 -0.24219,-0.30078 -0.35938,-0.69141 -0.35938,-1.1719 0,-0.46875 0.11719,-0.85156 0.35938,-1.1562 0.25,-0.30078 0.56641,-0.45312 0.95312,-0.45312 0.20703,0 0.39453,0.042969 0.5625,0.125 0.16406,0.085938 0.31641,0.21484 0.45312,0.39062 z m -0.65625,2 c 0.20703,0 0.36719,-0.070313 0.48438,-0.21875 0.11328,-0.15625 0.17188,-0.38281 0.17188,-0.6875 0,-0.28906 -0.058594,-0.50781 -0.17188,-0.65625 -0.11719,-0.15625 -0.27734,-0.23438 -0.48438,-0.23438 -0.21094,0 -0.37109,0.078125 -0.48438,0.23438 -0.10547,0.14844 -0.15625,0.36719 -0.15625,0.65625 0,0.30469 0.050781,0.53125 0.15625,0.6875 0.11328,0.14844 0.27344,0.21875 0.48438,0.21875 z"
         id="path1109" />
    </symbol>
    <symbol
       id="k"
       overflow="visible">
      <path
         d="m 2.1094,-0.64062 c 0.21875,0 0.37891,-0.070313 0.48438,-0.21875 0.11328,-0.15625 0.17188,-0.38281 0.17188,-0.6875 0,-0.28906 -0.058594,-0.50781 -0.17188,-0.65625 C 2.48831,-2.35937 2.32816,-2.4375 2.1094,-2.4375 c -0.21094,0 -0.37109,0.078125 -0.48438,0.23438 -0.11719,0.14844 -0.17188,0.36719 -0.17188,0.65625 0,0.29297 0.054687,0.51562 0.17188,0.67188 0.11328,0.15625 0.27344,0.23438 0.48438,0.23438 z m -0.65625,-2 c 0.13281,-0.17578 0.28516,-0.30469 0.45312,-0.39062 0.16406,-0.082031 0.35938,-0.125 0.57812,-0.125 0.375,0 0.67969,0.15234 0.92188,0.45312 0.25,0.30469 0.375,0.6875 0.375,1.1562 0,0.48047 -0.125,0.87109 -0.375,1.1719 C 3.16408,-0.07033 2.85939,0.0781 2.48439,0.0781 2.26564,0.0781 2.07033,0.035131 1.90627,-0.0469 1.7383,-0.128931 1.58596,-0.26565 1.45315,-0.45315 V -3e-5 H 0.46877 v -4.2812 h 0.98438 z"
         id="path1112" />
    </symbol>
    <symbol
       id="e"
       overflow="visible">
      <path
         d="m 0.0625,-3.0781 h 1 l 0.82812,2.0938 0.70312,-2.0938 h 0.98438 l -1.2969,3.375 C 2.1445,0.64065 1.98825,0.87893 1.81247,1.01565 1.6445,1.14846 1.42185,1.21877 1.14059,1.21877 H 0.56247 V 0.56252 h 0.3125 c 0.16406,0 0.28516,-0.027344 0.35938,-0.078125 0.082031,-0.054687 0.14453,-0.14844 0.1875,-0.28125 L 1.437475,0.12502 Z"
         id="path1115" />
    </symbol>
    <symbol
       id="j"
       overflow="visible">
      <path
         d="M 3.0156,-0.75 H 1.3594 L 1.09378,0 h -1.0625 l 1.5156,-4.1094 h 1.2656 L 4.34368,0 H 3.26558 Z M 1.625,-1.51562 H 2.75 l -0.5625,-1.625 z"
         id="path1118" />
    </symbol>
    <symbol
       id="i"
       overflow="visible">
      <path
         d="m 3.3281,-2.5781 c 0.125,-0.1875 0.26953,-0.32812 0.4375,-0.42188 0.17578,-0.10156 0.36719,-0.15625 0.57812,-0.15625 0.35156,0 0.625,0.10938 0.8125,0.32812 0.1875,0.21874 0.28125,0.53906 0.28125,0.95312 V 1e-5 h -1 v -1.6094 -0.0625 -0.125 c 0,-0.21875 -0.03125,-0.375 -0.09375,-0.46875 -0.0625,-0.10156 -0.16797,-0.15625 -0.3125,-0.15625 -0.1875,0 -0.33594,0.078125 -0.4375,0.23438 C 3.49997,-2.03126 3.4531,-1.8047 3.4531,-1.51563 V -3e-5 h -1 v -1.6094 c 0,-0.34375 -0.03125,-0.5625 -0.09375,-0.65625 -0.054687,-0.10156 -0.15625,-0.15625 -0.3125,-0.15625 -0.1875,0 -0.33594,0.078125 -0.4375,0.23438 C 1.50388,-2.0313 1.4531,-1.80474 1.4531,-1.51567 V -7e-5 H 0.46872 v -3.0781 H 1.4531 v 0.4375 c 0.125,-0.16406 0.26562,-0.28906 0.42188,-0.375 0.15625,-0.09375 0.32812,-0.14062 0.51562,-0.14062 0.21875,0 0.40625,0.054688 0.5625,0.15625 0.16406,0.10547 0.28906,0.24609 0.375,0.42188 z"
         id="path1121" />
    </symbol>
    <symbol
       id="h"
       overflow="visible">
      <path
         d="M 3.5781,-1.875 V 0 h -1 v -1.4375 c 0,-0.26953 -0.00781,-0.45312 -0.015625,-0.54688 -0.011719,-0.10156 -0.03125,-0.17969 -0.0625,-0.23438 -0.03125,-0.0625 -0.085938,-0.10938 -0.15625,-0.14062 -0.0625,-0.039063 -0.13672,-0.0625 -0.21875,-0.0625 -0.21094,0 -0.375,0.085937 -0.5,0.25 -0.11719,0.15625 -0.17188,0.375 -0.17188,0.65625 V -3e-5 h -0.98438 v -4.2812 h 0.98438 v 1.6406 c 0.15625,-0.17578 0.31641,-0.30469 0.48438,-0.39062 0.16406,-0.082031 0.34766,-0.125 0.54688,-0.125 0.35156,0 0.625,0.10938 0.8125,0.32812 0.1875,0.21874 0.28125,0.53906 0.28125,0.95312 z"
         id="path1124" />
    </symbol>
    <symbol
       id="u"
       overflow="visible">
      <path
         d="m 2.8906,-2.9844 v 0.75 C 2.67185,-2.32815 2.46091,-2.39456 2.2656,-2.43752 2.0781,-2.476582 1.89451,-2.50002 1.71872,-2.50002 c -0.1875,0 -0.32812,0.027344 -0.42188,0.078125 -0.09375,0.042969 -0.14062,0.10938 -0.14062,0.20312 0,0.085938 0.035156,0.14844 0.10938,0.1875 0.070313,0.042969 0.19531,0.074219 0.375,0.09375 L 1.81248,-1.9219 c 0.5,0.0625 0.83594,0.17188 1.0156,0.32812 0.17578,0.14844 0.26562,0.375 0.26562,0.6875 0,0.32422 -0.125,0.57031 -0.375,0.73438 -0.24219,0.16797 -0.60156,0.25 -1.0781,0.25 C 1.42966,0.0781 1.21872,0.062475 0.99998,0.031225 0.78904,-2.5e-5 0.57029,-0.0469 0.34373,-0.109395 v -0.75 c 0.19531,0.09375 0.39453,0.16797 0.59375,0.21875 0.20703,0.042969 0.42188,0.0625 0.64062,0.0625 0.1875,0 0.32812,-0.023437 0.42188,-0.078125 0.10156,-0.050781 0.15625,-0.12891 0.15625,-0.23438 0,-0.09375 -0.039062,-0.16016 -0.10938,-0.20312 C 1.98435,-1.132832 1.85154,-1.164082 1.65623,-1.18752 L 1.48435,-1.21877 C 1.04685,-1.269551 0.73826,-1.36721 0.56247,-1.51565 0.38278,-1.66018 0.29685,-1.88284 0.29685,-2.18753 c 0,-0.33203 0.10938,-0.57812 0.32812,-0.73438 0.22656,-0.15625 0.57031,-0.23438 1.0312,-0.23438 0.1875,0 0.37891,0.015625 0.57812,0.046875 0.19531,0.023437 0.41406,0.0625 0.65625,0.125 z"
         id="path1127" />
    </symbol>
    <symbol
       id="t"
       overflow="visible">
      <path
         d="m 3.375,-3.9844 v 0.875 C 3.15625,-3.21096 2.9375,-3.28909 2.71875,-3.34378 2.5,-3.394561 2.29687,-3.421905 2.10937,-3.421905 c -0.25,0 -0.4375,0.039063 -0.5625,0.10938 -0.125,0.074219 -0.1875,0.18359 -0.1875,0.32812 0,0.10547 0.039063,0.1875 0.125,0.25 0.082031,0.0625 0.23438,0.11719 0.45312,0.15625 l 0.45312,0.09375 c 0.45703,0.09375 0.78125,0.23438 0.96875,0.42188 0.19531,0.1875 0.29688,0.45312 0.29688,0.79688 0,0.46094 -0.13672,0.79688 -0.40625,1.0156 -0.27344,0.21875 -0.68359,0.32812 -1.2344,0.32812 C 1.75387,0.078075 1.48825,0.050731 1.21871,-5e-5 0.95699,-0.039112 0.69527,-0.11333 0.43746,-0.2188 v -0.89062 c 0.25781,0.13672 0.50781,0.24219 0.75,0.3125 0.25,0.074219 0.48828,0.10938 0.71875,0.10938 0.23828,0 0.41406,-0.035156 0.53125,-0.10938 0.125,-0.082031 0.1875,-0.19531 0.1875,-0.34375 0,-0.125 -0.042969,-0.21875 -0.125,-0.28125 -0.085938,-0.070313 -0.25,-0.14062 -0.5,-0.20312 L 1.59371,-1.703165 c -0.41797,-0.09375 -0.71875,-0.23438 -0.90625,-0.42188 -0.1875,-0.19531 -0.28125,-0.45703 -0.28125,-0.78125 0,-0.41406 0.12891,-0.73438 0.39062,-0.95312 0.26953,-0.21875 0.64844,-0.32812 1.1406,-0.32812 0.22656,0 0.46094,0.023438 0.70312,0.0625 0.23828,0.03125 0.48438,0.078125 0.73438,0.14062 z"
         id="path1130" />
    </symbol>
    <symbol
       id="g"
       overflow="visible">
      <path
         d="m 0.4375,-1.2031 v -1.875 h 1 v 0.29688 c 0,0.16797 -0.00781,0.38281 -0.015625,0.64062 v 0.5 c 0,0.25 0.00391,0.43359 0.015625,0.54688 0.019531,0.10547 0.046875,0.17969 0.078125,0.21875 0.039063,0.074219 0.09375,0.125 0.15625,0.15625 0.0625,0.03125 0.13281,0.046875 0.21875,0.046875 0.20703,0 0.36719,-0.078125 0.48438,-0.23438 0.125,-0.15625 0.1875,-0.375 0.1875,-0.65625 v -1.5156 h 0.98438 v 3.0781 h -0.98438 v -0.45312 c -0.15625,0.1875 -0.32031,0.32422 -0.48438,0.40625 -0.16797,0.082031 -0.35156,0.125 -0.54688,0.125 -0.35547,0 -0.625,-0.10938 -0.8125,-0.32812 -0.1875,-0.21874 -0.28125,-0.53516 -0.28125,-0.95312 z"
         id="path1133" />
    </symbol>
    <symbol
       id="s"
       overflow="visible">
      <path
         d="M 0.46875,-3.0781 H 1.45313 V 0 H 0.46875 Z m 0,-1.2031 h 0.98438 v 0.79688 H 0.46875 Z"
         id="path1136" />
    </symbol>
    <symbol
       id="c"
       overflow="visible">
      <path
         d="m 1.9375,-2.4531 c -0.21875,0 -0.38672,0.078125 -0.5,0.23438 -0.11719,0.15625 -0.17188,0.38281 -0.17188,0.67188 0,0.30469 0.054687,0.53125 0.17188,0.6875 0.11328,0.15625 0.28125,0.23438 0.5,0.23438 0.21875,0 0.38281,-0.078125 0.5,-0.23438 0.11328,-0.15625 0.17188,-0.38281 0.17188,-0.6875 0,-0.28906 -0.058594,-0.51562 -0.17188,-0.67188 -0.11719,-0.15625 -0.28125,-0.23438 -0.5,-0.23438 z m 0,-0.70312 c 0.53125,0 0.94141,0.14844 1.2344,0.4375 0.30078,0.28125 0.45312,0.67188 0.45312,1.1719 0,0.51172 -0.15234,0.91406 -0.45312,1.2031 -0.29297,0.28125 -0.70312,0.42188 -1.2344,0.42188 -0.53128,0 -0.94922,-0.14062 -1.25,-0.42188 C 0.39453,-0.63278 0.25,-1.03513 0.25,-1.54682 c 0,-0.5 0.14453,-0.89062 0.4375,-1.1719 0.30078,-0.28906 0.71875,-0.4375 1.25,-0.4375 z"
         id="path1139" />
    </symbol>
    <symbol
       id="r"
       overflow="visible">
      <path
         d="m 2.5,-4.2812 v 0.64062 H 1.95312 c -0.13672,0 -0.23438,0.027344 -0.29688,0.078125 -0.054688,0.054688 -0.078125,0.14062 -0.078125,0.26562 v 0.21875 h 0.84375 v 0.70312 h -0.84375 v 2.375 h -0.98438 v -2.375 h -0.48438 v -0.70312 h 0.48438 v -0.21875 c 0,-0.33203 0.09375,-0.57812 0.28125,-0.73438 0.1875,-0.16406 0.47656,-0.25 0.875,-0.25 z"
         id="path1142" />
    </symbol>
    <symbol
       id="q"
       overflow="visible">
      <path
         d="m 0.51562,-4.1094 h 1.1875 l 1.5,2.8125 v -2.8125 h 1 V 0 h -1.1875 l -1.5,-2.8281 V 0 h -1 z"
         id="path1145" />
    </symbol>
    <symbol
       id="p"
       overflow="visible">
      <path
         d="M 3.5781,-1.875 V 0 h -1 v -1.4375 c 0,-0.26953 -0.00781,-0.45312 -0.015625,-0.54688 -0.011719,-0.10156 -0.03125,-0.17969 -0.0625,-0.23438 -0.03125,-0.0625 -0.085938,-0.10938 -0.15625,-0.14062 -0.0625,-0.039063 -0.13672,-0.0625 -0.21875,-0.0625 -0.21094,0 -0.375,0.085937 -0.5,0.25 -0.11719,0.15625 -0.17188,0.375 -0.17188,0.65625 V -3e-5 h -0.98438 v -3.0781 h 0.98438 v 0.4375 c 0.15625,-0.17578 0.31641,-0.30469 0.48438,-0.39062 0.16406,-0.082031 0.34766,-0.125 0.54688,-0.125 0.35156,0 0.625,0.10938 0.8125,0.32812 0.1875,0.21874 0.28125,0.53906 0.28125,0.95312 z"
         id="path1148" />
    </symbol>
    <symbol
       id="o"
       overflow="visible">
      <path
         d="m 0.51562,-4.1094 h 1.7656 c 0.51953,0 0.92188,0.11719 1.2031,0.34375 0.28125,0.23047 0.42188,0.5625 0.42188,1 0,0.42969 -0.14062,0.76172 -0.42188,1 -0.28125,0.23047 -0.68359,0.34375 -1.2031,0.34375 H 1.5781 V 0 H 0.5156 Z m 1.0625,0.76562 v 1.1562 h 0.59375 c 0.19531,0 0.35156,-0.050781 0.46875,-0.15625 0.11328,-0.10156 0.17188,-0.24219 0.17188,-0.42188 0,-0.1875 -0.058594,-0.32812 -0.17188,-0.42188 C 2.52343,-3.28915 2.36718,-3.34384 2.17187,-3.34384 Z"
         id="path1151" />
    </symbol>
    <symbol
       id="n"
       overflow="visible">
      <path
         d="m 0.46875,-3.0781 h 0.98438 v 3.0156 c 0,0.41406 -0.10156,0.73438 -0.29688,0.95312 C 0.95703,1.10937 0.67187,1.21874 0.29687,1.21874 H -0.18751 V 0.56249 h 0.17188 c 0.1875,0 0.3125,-0.042969 0.375,-0.125 0.070313,-0.085938 0.10938,-0.25 0.10938,-0.5 z m 0,-1.2031 h 0.98438 v 0.79688 H 0.46875 Z"
         id="path1154" />
    </symbol>
    <symbol
       id="m"
       overflow="visible">
      <path
         d="m 2.9688,-2.9844 v 0.79688 C 2.83208,-2.28127 2.69536,-2.34768 2.56255,-2.39064 2.42583,-2.429703 2.28521,-2.45314 2.14067,-2.45314 c -0.27344,0 -0.48438,0.085937 -0.64062,0.25 -0.15625,0.15625 -0.23438,0.375 -0.23438,0.65625 0,0.29297 0.078125,0.52344 0.23438,0.6875 0.15625,0.15625 0.36719,0.23438 0.64062,0.23438 0.15625,0 0.30078,-0.019531 0.4375,-0.0625 0.14453,-0.050781 0.27344,-0.11719 0.39062,-0.20312 v 0.79688 c -0.15625,0.0625 -0.3125,0.10156 -0.46875,0.125 -0.15625,0.03125 -0.32031,0.046875 -0.48438,0.046875 -0.55469,0 -0.98438,-0.14062 -1.2969,-0.42188 -0.3125,-0.28906 -0.46875,-0.69141 -0.46875,-1.2031 0,-0.5 0.15625,-0.89062 0.46875,-1.1719 0.3125,-0.28906 0.74219,-0.4375 1.2969,-0.4375 0.16406,0 0.32812,0.015625 0.48438,0.046875 0.15625,0.023437 0.3125,0.0625 0.46875,0.125 z"
         id="path1157" />
    </symbol>
  </defs>
  <g
     id="g5284"
     transform="translate(-69.874695,0.1256)"
     style="fill:#ffffff;fill-opacity:1">
    <path
       d="m 160.23,420.16 h -27.066 v -27.273 c 0,-2.4961 -2.0234,-4.5156 -4.5156,-4.5156 -2.4961,0 -4.5156,2.0234 -4.5156,4.5156 v 27.273 h -27.07 c -2.4961,0 -4.5156,2.0234 -4.5156,4.5156 0,2.4961 2.0234,4.5156 4.5156,4.5156 h 27.07 v 27.273 c 0,2.4961 2.0234,4.5156 4.5156,4.5156 2.4961,0 4.5156,-2.0234 4.5156,-4.5156 v -27.273 h 27.066 c 2.4961,0 4.5156,-2.0234 4.5156,-4.5156 0.004,-2.4922 -2.0195,-4.5156 -4.5156,-4.5156 z"
       id="path1162"
       style="fill:#ffffff;fill-opacity:1" />
    <path
       d="m 611.83,406.61 h -27.07 l 0.004,-27.273 c 0,-2.4961 -2.0234,-4.5156 -4.5156,-4.5156 -2.4961,0 -4.5156,2.0234 -4.5156,4.5156 v 27.273 h -27.066 c -2.4961,0 -4.5156,2.0234 -4.5156,4.5156 0,2.4961 2.0234,4.5156 4.5156,4.5156 h 27.066 v 27.273 c 0,2.4961 2.0234,4.5156 4.5156,4.5156 2.4961,0 4.5156,-2.0234 4.5156,-4.5156 v -27.273 h 27.07 c 2.4961,0 4.5156,-2.0234 4.5156,-4.5156 0,-2.4922 -2.0234,-4.5156 -4.5195,-4.5156 z"
       id="path1164"
       style="fill:#ffffff;fill-opacity:1" />
    <path
       d="m 498.98,487.73 h -22.582 v -22.582 c 0,-2.4961 -2.0234,-4.5156 -4.5156,-4.5156 -2.4961,0 -4.5156,2.0234 -4.5156,4.5156 v 22.582 h -22.582 c -2.4961,0 -4.5156,2.0234 -4.5156,4.5156 0,2.4961 2.0234,4.5156 4.5156,4.5156 h 22.582 v 22.582 c 0,2.4961 2.0234,4.5156 4.5156,4.5156 2.4961,0 4.5156,-2.0234 4.5156,-4.5156 v -22.582 h 22.582 c 2.4961,0 4.5156,-2.0234 4.5156,-4.5156 0,-2.4961 -2.0234,-4.5156 -4.5156,-4.5156 z"
       id="path1166"
       style="fill:#ffffff;fill-opacity:1" />
    <path
       d="m 273.14,523.87 h -22.582 v -22.582 c 0,-2.4961 -2.0234,-4.5156 -4.5156,-4.5156 -2.4961,0 -4.5156,2.0234 -4.5156,4.5156 v 22.582 h -22.582 c -2.4961,0 -4.5156,2.0234 -4.5156,4.5156 0,2.4961 2.0234,4.5156 4.5156,4.5156 h 22.582 v 22.582 c 0,2.4961 2.0234,4.5156 4.5156,4.5156 2.4961,0 4.5156,-2.0234 4.5156,-4.5156 v -22.582 h 22.582 c 2.4961,0 4.5156,-2.0234 4.5156,-4.5156 0,-2.4922 -2.0195,-4.5156 -4.5156,-4.5156 z"
       id="path1168"
       style="fill:#ffffff;fill-opacity:1" />
    <path
       d="m 199.84,146.41 c 18.449,-11.023 39.578,-19.77 62.512,-26.02 4.3945,-40.91 14.066,-78.473 28.352,-109.46 -54.039,20.734 -95.547,68.898 -105.55,128.14 l 11.918,5.5625 c 1.0117,0.46875 1.9336,1.0742 2.7656,1.7734 z"
       id="path1170"
       style="fill:#ffffff;fill-opacity:1" />
    <path
       d="m 204.13,154.38 c 0.20313,1.625 0.10156,3.2383 -0.3125,4.7695 l 34.348,15.855 c 2.5898,1.1953 4.4258,3.4766 5.0391,6.2617 0.0117,0.0586 0.0156,0.12109 0.0312,0.17969 3.9883,-0.10547 9.8242,-0.23828 16.52,-0.32812 -0.0664,-3.2617 -0.10156,-6.4648 -0.10156,-9.5664 0,-14.094 0.59766,-27.973 1.7617,-41.52 -20.996,5.9961 -40.34,14.176 -57.285,24.348 z"
       id="path1172"
       style="fill:#ffffff;fill-opacity:1" />
    <path
       d="m 268.68,171.55 c 0,3.0664 0.0352,6.2461 0.10156,9.4805 6.957,-0.0391 14.301,-0.008 21.16,0.16016 7.332,0.17969 14.582,1.4766 21.551,3.8516 l 6.7852,2.3086 c 8.9961,3.0586 18.23,6.2031 27.129,9.4297 v -78.633 c -26.07,0.34375 -51.262,3.5547 -74.629,9.3828 -1.3789,14.406 -2.0977,29.148 -2.0977,44.02 z"
       id="path1174"
       style="fill:#ffffff;fill-opacity:1" />
    <path
       d="m 500.15,146.29 c 0.79297,-0.64844 1.6719,-1.207 2.6328,-1.6562 l 11.918,-5.5625 c -10.004,-59.266 -51.535,-107.44 -105.6,-128.16 14.277,30.969 23.949,68.5 28.348,109.38 22.996,6.2344 44.191,14.977 62.699,26.004 z"
       id="path1176"
       style="fill:#ffffff;fill-opacity:1" />
    <path
       d="m 504.71,155.25 c -0.20703,1.0664 0.0977,2.1406 0.83594,2.9375 18.516,19.902 61.957,75.375 65.473,160.46 0.0469,1.0977 0.58984,2.0781 1.5,2.6875 0.89844,0.60547 2,0.74609 3.0195,0.37891 l 50.074,-17.883 -0.18359,-206.46 -118.82,55.453 c -0.99609,0.45703 -1.6875,1.3438 -1.8945,2.4219 z"
       id="path1178"
       style="fill:#ffffff;fill-opacity:1" />
    <path
       d="m 127.34,321.33 c 0.90625,-0.60938 1.4531,-1.5898 1.5,-2.6875 3.5156,-85.086 46.961,-140.56 65.473,-160.46 0.74219,-0.79688 1.0469,-1.8672 0.83594,-2.9375 -0.21094,-1.0781 -0.90234,-1.9609 -1.8984,-2.4258 l -118.68,-55.383 -0.18359,206.44 49.934,17.832 c 1.0156,0.36328 2.1172,0.22656 3.0156,-0.37891 z"
       id="path1180"
       style="fill:#ffffff;fill-opacity:1" />
    <path
       d="M 397.09,6.8281 C 383.445,2.7578 369.141,0.4023 354.442,0 v 109.11 c 25.586,0.30469 50.395,3.3047 73.566,8.7852 -4.9453,-42.09 -15.617,-80.875 -30.918,-111.06 z"
       id="path1182"
       style="fill:#ffffff;fill-opacity:1" />
    <path
       d="M 345.41,109.11 V 0 c -14.715,0.40234 -29.039,2.7656 -42.695,6.8398 -15.305,30.207 -25.98,69.023 -30.918,111.14 23.176,-5.5117 48,-8.5391 73.613,-8.8711 z"
       id="path1184"
       style="fill:#ffffff;fill-opacity:1" />
    <path
       d="m 388.36,185.04 c 6.9648,-2.375 14.215,-3.6719 21.547,-3.8516 6.8477,-0.16406 14.176,-0.19922 21.121,-0.16016 0.0664,-3.2461 0.10156,-6.3828 0.10156,-9.4766 0,-14.902 -0.72266,-29.676 -2.1055,-44.117 -23.363,-5.793 -48.543,-8.9727 -74.582,-9.2891 v 78.625 c 8.7656,-3.1758 17.824,-6.2539 26.988,-9.3711 z"
       id="path1186"
       style="fill:#ffffff;fill-opacity:1" />
    <path
       d="m 456.62,181.44 c 0.0117,-0.0586 0.0156,-0.12109 0.0312,-0.17969 0.61328,-2.7852 2.4492,-5.0625 5.0391,-6.2617 l 34.348,-15.855 c -0.43359,-1.5898 -0.52734,-3.2695 -0.28906,-4.9609 -16.977,-10.145 -36.344,-18.293 -57.355,-24.266 1.1719,13.582 1.7734,27.492 1.7734,41.629 0,3.1289 -0.0352,6.293 -0.10156,9.5625 6.7109,0.0898 12.559,0.22656 16.555,0.33203 z"
       id="path1188"
       style="fill:#ffffff;fill-opacity:1" />
    <path
       d="m 446.24,375.7 c 3.4414,-7.207 2.2969,-15.633 1.1289,-20.512 -2.1484,0.48828 -4.3984,0.76172 -6.7344,0.76172 -4.3086,0 -8.8984,-0.89062 -13.621,-2.9023 -14.273,-5.7656 -27.125,-12.352 -38.125,-19.535 -2.0898,-1.3633 -2.6758,-4.1641 -1.3125,-6.25 1.3633,-2.0859 4.1641,-2.6758 6.25,-1.3125 10.512,6.8633 22.84,13.176 36.648,18.754 6.7891,2.8945 13.121,2.6562 18.207,0.58984 0.0117,-0.004 0.0234,-0.0156 0.0391,-0.0195 0.0156,-0.008 0.0352,-0.008 0.0508,-0.0156 4.1992,-1.7305 7.543,-4.7109 9.543,-8.2461 3.7539,-6.625 3.3906,-16.879 -8.8594,-25.824 -32.332,-21.254 -72.281,-56.867 -75.512,-59.762 -2.5547,-0.83594 -4.8828,-1.6016 -6.8711,-2.2578 -3.0234,-1 -6.2734,-0.8125 -9.1406,0.53516 -10.746,5.0469 -26.922,14.594 -35.605,19.836 -6.0391,3.6445 -12.906,5.5664 -19.719,5.5664 -1.4766,0 -2.9453,-0.0898 -4.4062,-0.26953 -12.012,-1.4922 -18.031,-7.1562 -20.965,-11.645 -3.4844,-5.3242 -3.6836,-12.145 -0.50391,-17.367 11.504,-18.922 33.738,-31.625 60.355,-42.438 -7.1836,-2.543 -14.527,-5.043 -21.715,-7.4883 l -6.7969,-2.3125 c -6.0938,-2.0781 -12.438,-3.2148 -18.852,-3.3672 -19.402,-0.47266 -42.816,0.14453 -49.73,0.35156 -11.508,14.004 -43.102,58.582 -53.172,135.1 l 34.559,26.492 c 0.79688,-1.5273 1.7305,-3.0859 2.8398,-4.6719 0.0234,-0.0312 0.0469,-0.0664 0.0703,-0.10156 8.6523,-11.672 18.344,-19.004 19.406,-19.789 15.219,-12.078 28.074,-8.8125 35.035,-1.7109 4.6133,4.7031 6.7461,11.094 6.3047,17.289 10.406,-3.3711 18.996,-0.38672 24.25,4.5078 6.418,5.9766 9.0156,15.098 7.5,24.18 7.5547,-1.8359 15.488,-0.0937 21.602,5.2656 5.1836,4.543 8.6641,11.855 7.8281,20.297 7.2852,-2.3125 14.352,-0.59375 19.379,3.2188 2.1211,1.6094 3.9766,3.6758 5.4375,6.082 2.5977,1 5.0703,1.8945 7.3477,2.6602 5.9531,2.0039 11.891,2.875 17.637,2.582 15.367,-0.77344 20.414,-8.375 22.07,-13.492 -6.6211,-0.14453 -13.277,-1.5977 -19.59,-4.3711 l -40.73,-17.875 c -2.2852,-1.0039 -3.3242,-3.668 -2.3203,-5.9531 1.0039,-2.2852 3.6719,-3.3203 5.9531,-2.3203 l 40.738,17.883 c 9.375,4.1172 19.645,4.7617 28.91,1.8164 7.4141,-2.3516 12.527,-6.3789 15.191,-11.957 z"
       id="path1190"
       style="fill:#ffffff;fill-opacity:1" />
    <path
       d="m 374.44,417.59 c 0.35156,5.1406 -0.85547,10.809 -4.2305,16.48 -0.26172,0.46094 -1.8984,3.2578 -4.6758,6.7812 5.375,5.8672 12.555,7.7695 19.672,5.043 7.9766,-3.0508 15.41,-11.926 15.742,-25.324 -8.5195,0.88672 -17.344,-0.0469 -26.508,-2.9805 z"
       id="path1192"
       style="fill:#ffffff;fill-opacity:1" />
    <path
       d="m 198.73,166.74 c -18.574,20.676 -56.473,71.914 -60.676,148.92 l 39.23,13.414 c 9.7734,-82.523 43.191,-129.51 57.102,-145.88 z"
       id="path1194"
       style="fill:#ffffff;fill-opacity:1" />
    <path
       d="m 501.13,166.74 -35.652,16.457 c 13.906,16.363 47.324,63.352 57.102,145.88 l 39.223,-13.418 c -4.2031,-77 -42.102,-128.24 -60.672,-148.91 z"
       id="path1196"
       style="fill:#ffffff;fill-opacity:1" />
    <path
       d="m 410.13,190.21 c -6.4141,0.15625 -12.758,1.2891 -18.852,3.3711 l -6.9375,2.3594 c -43.242,14.695 -84.086,28.574 -99.887,54.566 -1.3594,2.2344 -1.2188,5.3398 0.34375,7.7305 2.75,4.2031 7.6328,6.7656 14.516,7.6211 6.2109,0.77344 12.723,-0.67188 18.344,-4.0625 8.8359,-5.3359 25.32,-15.062 36.438,-20.285 4.9688,-2.332 10.586,-2.6641 15.816,-0.93359 13.367,4.4219 58.012,18.996 71.301,20.828 2.4688,0.33984 4.1992,2.6211 3.8555,5.0938 -0.33984,2.4688 -2.6172,4.1992 -5.0938,3.8555 -8.293,-1.1445 -26.973,-6.5898 -44.258,-11.98 15.145,12.879 38.535,32.008 58.793,45.309 0.0586,0.0391 0.11719,0.0781 0.17578,0.12109 17.16,12.469 16.914,28.074 11.492,37.648 -2.3438,4.1367 -5.9102,7.7773 -10.328,10.375 1.0117,3.8008 2.1523,9.8789 1.543,16.473 l 55.637,-42.648 c -10.07,-76.516 -41.66,-121.09 -53.168,-135.1 -6.9102,-0.19922 -30.324,-0.81641 -49.73,-0.34375 z"
       id="path1198"
       style="fill:#ffffff;fill-opacity:1" />
    <path
       d="m 247.31,376.04 c 9.2148,-11.012 23.758,-24.477 26.082,-26.613 4.4375,-5.5469 2.9531,-13.078 -1.1016,-17.215 -5.457,-5.5664 -14.066,-4.6289 -23.031,2.5039 -0.0469,0.0391 -0.0977,0.0781 -0.14844,0.11328 -0.0898,0.0664 -9.4141,6.9609 -17.52,17.883 -5.75,8.25 -6.1953,16.27 -1.1953,21.465 3.5625,3.707 10.316,5.7891 16.914,1.8633 z"
       id="path1200"
       style="fill:#ffffff;fill-opacity:1" />
    <path
       d="m 303.14,354.3 c -5.75,-5.3516 -14.34,-4.707 -23.598,1.75 -2.0391,1.8789 -16.793,15.543 -25.57,26.105 -5.4805,8.6562 -2.6211,19.227 3.3633,24.496 6.5391,5.7617 15.23,4.9062 23.848,-2.3359 6.8242,-6.4609 21.531,-23.363 23.766,-25.945 5.582,-9.4922 3.3477,-19.27 -1.8086,-24.07 z"
       id="path1202"
       style="fill:#ffffff;fill-opacity:1" />
    <path
       d="m 360.14,407.84 c -4.418,-3.3477 -11.73,-4.1797 -19.09,3.4141 -1.5742,2.25 -10.293,14.566 -18.43,23.133 2.3828,7.6445 8.0781,10.387 12.652,11.309 7.0977,1.4258 14.797,-1.1953 20.09,-6.8477 4.3984,-4.6992 6.9844,-9.2305 7.0117,-9.2773 5.6719,-9.5039 2.8047,-17.906 -2.2344,-21.73 z"
       id="path1204"
       style="fill:#ffffff;fill-opacity:1" />
    <path
       d="m 332.44,383.92 c -4.8711,-4.2695 -13.117,-5.7852 -20.652,0.34766 -2.2656,2.6172 -16.348,18.812 -23.773,26.008 -3.0586,7.9297 0.84766,15.746 5.9375,19.762 6.1523,4.8477 13.879,4.6758 20.719,-0.43359 8.2461,-8.2422 18.23,-22.457 19.121,-23.734 6.2188,-9.8516 3.3867,-17.797 -1.3516,-21.949 z"
       id="path1206"
       style="fill:#ffffff;fill-opacity:1" />
  </g>
</svg>
