<?xml version="1.0" encoding="UTF-8" standalone="no"?>
<svg
   xmlns:dc="http://purl.org/dc/elements/1.1/"
   xmlns:cc="http://creativecommons.org/ns#"
   xmlns:rdf="http://www.w3.org/1999/02/22-rdf-syntax-ns#"
   xmlns:svg="http://www.w3.org/2000/svg"
   xmlns="http://www.w3.org/2000/svg"
   xmlns:sodipodi="http://sodipodi.sourceforge.net/DTD/sodipodi-0.dtd"
   xmlns:inkscape="http://www.inkscape.org/namespaces/inkscape"
   width="701"
   height="701"
   version="1.1"
   viewBox="0 0 525.75001 525.75001"
   id="svg728"
   sodipodi:docname="Rescue.svg"
   inkscape:export-filename="/home/marek/Downloads/Rescue.png"
   inkscape:export-xdpi="6.8473611"
   inkscape:export-ydpi="6.8473611"
   inkscape:version="1.0.2 (e86c870879, 2021-01-15)">
  <metadata
     id="metadata734">
    <rdf:RDF>
      <cc:Work
         rdf:about="">
        <dc:format>image/svg+xml</dc:format>
        <dc:type
           rdf:resource="http://purl.org/dc/dcmitype/StillImage" />
        <dc:title></dc:title>
      </cc:Work>
    </rdf:RDF>
  </metadata>
  <defs
     id="defs732" />
  <sodipodi:namedview
     pagecolor="#ffffff"
     bordercolor="#666666"
     borderopacity="1"
     objecttolerance="10"
     gridtolerance="10"
     guidetolerance="10"
     inkscape:pageopacity="0"
     inkscape:pageshadow="2"
     inkscape:window-width="1920"
     inkscape:window-height="990"
     id="namedview730"
     showgrid="false"
     inkscape:pagecheckerboard="true"
     units="px"
     inkscape:zoom="0.31403117"
     inkscape:cx="71.995634"
     inkscape:cy="533.67637"
     inkscape:window-x="0"
     inkscape:window-y="30"
     inkscape:window-maximized="1"
     inkscape:current-layer="svg728" />
  <path
     d="m 262.875,0.372005 c -69.621,0 -136.38999,27.656 -185.619995,76.883 -49.227,49.230005 -76.883,115.999995 -76.883,185.619995 0,69.62 27.656,136.39 76.883,185.62 C 126.485,497.72201 193.255,525.37801 262.875,525.37801 c 69.62,0 136.39,-27.656 185.62,-76.88301 49.227,-49.23 76.88301,-116 76.88301,-185.62 0,-46.07799 -12.12901,-91.34399 -35.168,-131.24999 C 467.17101,91.719005 434.034,58.582005 394.128,35.543005 c -39.906,-23.039 -85.172,-35.168 -131.25,-35.168 z m 218.93,201.250005 h -93.277 c -14.008,-28.57 -37.258,-51.57 -65.973,-65.273 V 43.599005 c 37.938,10.332 72.547,30.32 100.46,58.016005 27.91,27.695 48.168,62.15199 58.793,100.01 z M 262.875,367.872 c -27.848,0 -54.555,-11.062 -74.246,-30.754 -19.691,-19.692 -30.754,-46.39799 -30.754,-74.246 0,-27.84799 11.062,-54.55499 30.754,-74.24599 19.69201,-19.691 46.398,-30.754 74.246,-30.754 27.848,0 54.555,11.062 74.246,30.754 19.691,19.692 30.754,46.398 30.754,74.24599 0,27.84801 -11.062,54.555 -30.754,74.246 -19.692,19.69101 -46.398,30.754 -74.246,30.754 z M 203.199,43.602005 v 92.750005 c -28.71499,13.703 -51.965,36.703 -65.973,65.273 H 43.949005 c 10.625,-37.855 30.883,-72.31201 58.793005,-100.01 C 130.652,73.920005 165.26201,53.931005 203.202,43.599005 Z M 43.079005,320.98201 H 135.653 c 13.809,30.016 37.71501,54.23 67.551,68.422 v 92.75 c -38.473,-10.473 -73.51999,-30.879 -101.62,-59.16801 -28.104995,-28.285 -48.276995,-63.465 -58.503995,-102 z M 323.079,482.16201 V 389.408 c 29.836,-14.19099 53.74201,-38.406 67.551,-68.42199 h 92.574 c -10.27,38.60199 -30.523,73.824 -58.723,102.12 -28.203,28.293 -63.355,48.65999 -101.93,59.055 z"
     id="path726"
     style="fill:#ffffff;fill-opacity:1" />
</svg>
