<?xml version="1.0" encoding="UTF-8" standalone="no"?>
<svg
   xmlns:dc="http://purl.org/dc/elements/1.1/"
   xmlns:cc="http://creativecommons.org/ns#"
   xmlns:rdf="http://www.w3.org/1999/02/22-rdf-syntax-ns#"
   xmlns:svg="http://www.w3.org/2000/svg"
   xmlns="http://www.w3.org/2000/svg"
   xmlns:sodipodi="http://sodipodi.sourceforge.net/DTD/sodipodi-0.dtd"
   xmlns:inkscape="http://www.inkscape.org/namespaces/inkscape"
   width="786"
   height="786"
   version="1.1"
   viewBox="0 0 589.50001 589.50001"
   id="svg195"
   sodipodi:docname="Role models.svg"
   inkscape:export-filename="/home/marek/Downloads/Role models.png"
   inkscape:export-xdpi="6.1068702"
   inkscape:export-ydpi="6.1068702"
   inkscape:version="1.0.2 (e86c870879, 2021-01-15)">
  <metadata
     id="metadata199">
    <rdf:RDF>
      <cc:Work
         rdf:about="">
        <dc:format>image/svg+xml</dc:format>
        <dc:type
           rdf:resource="http://purl.org/dc/dcmitype/StillImage" />
        <dc:title></dc:title>
      </cc:Work>
    </rdf:RDF>
  </metadata>
  <sodipodi:namedview
     pagecolor="#ffffff"
     bordercolor="#666666"
     borderopacity="1"
     objecttolerance="10"
     gridtolerance="10"
     guidetolerance="10"
     inkscape:pageopacity="0"
     inkscape:pageshadow="2"
     inkscape:window-width="1920"
     inkscape:window-height="990"
     id="namedview197"
     showgrid="false"
     inkscape:pagecheckerboard="true"
     units="px"
     inkscape:zoom="0.88821429"
     inkscape:cx="466.66667"
     inkscape:cy="466.66667"
     inkscape:window-x="0"
     inkscape:window-y="30"
     inkscape:window-maximized="1"
     inkscape:current-layer="svg195" />
  <defs
     id="defs65">
    <symbol
       id="u"
       overflow="visible">
      <path
         d="M 4.0469,-0.23438 C 3.83596,-0.12891 3.61721,-0.05079 3.39065,0 3.16018,0.050781 2.92581,0.078125 2.68753,0.078125 c -0.74219,0 -1.3242,-0.20312 -1.75,-0.60938 -0.42969,-0.40625 -0.64062,-0.95703 -0.64062,-1.6562 0,-0.70703 0.21094,-1.2656 0.64062,-1.6719 0.42578,-0.40625 1.0078,-0.60938 1.75,-0.60938 0.23828,0 0.47266,0.027344 0.70312,0.078125 0.22656,0.054687 0.44531,0.13281 0.65625,0.23438 v 0.92188 c -0.21875,-0.14453 -0.43359,-0.25 -0.64062,-0.3125 -0.19922,-0.070313 -0.40625,-0.10938 -0.625,-0.10938 -0.40625,0 -0.73047,0.13281 -0.96875,0.39062 -0.23047,0.26172 -0.34375,0.62109 -0.34375,1.0781 0,0.44922 0.11328,0.80469 0.34375,1.0625 0.23828,0.26172 0.5625,0.39062 0.96875,0.39062 0.21875,0 0.42578,-0.03125 0.625,-0.09375 0.20703,-0.070313 0.42188,-0.17969 0.64062,-0.32812 z"
         id="path2" />
    </symbol>
    <symbol
       id="c"
       overflow="visible">
      <path
         d="M 2.9531,-2.4062 C 2.85935,-2.445262 2.7656,-2.476512 2.67185,-2.49995 2.585913,-2.519481 2.49997,-2.5312 2.40623,-2.5312 c -0.27344,0 -0.48047,0.089844 -0.625,0.26562 -0.14844,0.17969 -0.21875,0.42969 -0.21875,0.75 V 2e-5 h -1.0625 v -3.2969 h 1.0625 V -2.75 C 1.69529,-2.96875 1.85154,-3.125 2.03123,-3.21875 2.20701,-3.32031 2.41404,-3.375 2.65623,-3.375 h 0.125 c 0.039062,0 0.097656,0.00781 0.17188,0.015625 z"
         id="path5" />
    </symbol>
    <symbol
       id="a"
       overflow="visible">
      <path
         d="m 3.7969,-1.6562 v 0.29688 H 1.3281 c 0.03125,0.25 0.11719,0.4375 0.26562,0.5625 0.15625,0.125 0.375,0.1875 0.65625,0.1875 0.21875,0 0.44141,-0.03125 0.67188,-0.09375 0.23828,-0.070313 0.47656,-0.17578 0.71875,-0.3125 v 0.8125 c -0.25,0.09375 -0.5,0.16406 -0.75,0.20312 -0.25,0.050781 -0.5,0.078125 -0.75,0.078125 -0.59375,0 -1.0586,-0.14844 -1.3906,-0.45312 -0.32422,-0.30078 -0.48438,-0.72266 -0.48438,-1.2656 0,-0.53906 0.16016,-0.96094 0.48438,-1.2656 0.32031,-0.3125 0.76953,-0.46875 1.3438,-0.46875 0.50781,0 0.92188,0.15625 1.2344,0.46875 0.31252,0.3125 0.46875,0.73047 0.46875,1.25 z M 2.7188,-2.01558 c 0,-0.19531 -0.0625,-0.35156 -0.1875,-0.46875 -0.11719,-0.125 -0.26562,-0.1875 -0.45312,-0.1875 -0.19922,0 -0.36719,0.058594 -0.5,0.17188 -0.125,0.11719 -0.20312,0.27734 -0.23438,0.48438 z"
         id="path8" />
    </symbol>
    <symbol
       id="f"
       overflow="visible">
      <path
         d="m 1.9844,-1.4844 c -0.21875,0 -0.38672,0.039063 -0.5,0.10938 -0.10547,0.074219 -0.15625,0.18359 -0.15625,0.32812 0,0.13672 0.039063,0.24609 0.125,0.32812 0.09375,0.074219 0.21875,0.10938 0.375,0.10938 0.19531,0 0.36328,-0.070313 0.5,-0.21875 0.13281,-0.14453 0.20312,-0.32031 0.20312,-0.53125 v -0.125 z M 3.5938,-1.87502 V -2e-5 H 2.5313 V -0.4844 C 2.39458,-0.28518 2.23833,-0.14065 2.06255,-0.0469 1.88286,0.035131 1.66411,0.0781 1.4063,0.0781 1.06255,0.0781 0.78521,-0.019556 0.57818,-0.21878 0.36724,-0.41409 0.26568,-0.6719 0.26568,-0.9844 c 0,-0.38281 0.12891,-0.66406 0.39062,-0.84375 0.26953,-0.1875 0.6875,-0.28125 1.25,-0.28125 h 0.625 v -0.078125 c 0,-0.16406 -0.070312,-0.28516 -0.20312,-0.35938 -0.125,-0.082031 -0.32812,-0.125 -0.60938,-0.125 -0.23047,0 -0.44531,0.023437 -0.64062,0.0625 -0.1875,0.042969 -0.36719,0.10938 -0.53125,0.20312 v -0.79688 c 0.22656,-0.0625 0.45312,-0.10156 0.67188,-0.125 0.22656,-0.03125 0.45703,-0.046875 0.6875,-0.046875 0.59375,0 1.0195,0.12109 1.2812,0.35938 0.26953,0.23047 0.40625,0.60938 0.40625,1.1406 z"
         id="path11" />
    </symbol>
    <symbol
       id="b"
       overflow="visible">
      <path
         d="m 1.6562,-4.2344 v 0.9375 H 2.75 v 0.75 H 1.6562 v 1.4062 c 0,0.14844 0.03125,0.25 0.09375,0.3125 0.0625,0.054687 0.17969,0.078125 0.35938,0.078125 h 0.54688 v 0.75 H 1.74996 c -0.41797,0 -0.71484,-0.082031 -0.89062,-0.25 -0.16797,-0.17578 -0.25,-0.47266 -0.25,-0.89062 v -1.4062 H 0.07809 v -0.75 h 0.53125 v -0.9375 z"
         id="path14" />
    </symbol>
    <symbol
       id="k"
       overflow="visible">
      <path
         d="M 2.75,-2.8125 V -4.5781 H 3.8125 V 0 H 2.75 v -0.48438 c -0.14844,0.19922 -0.30859,0.34375 -0.48438,0.4375 -0.16797,0.082031 -0.37109,0.125 -0.60938,0.125 -0.40625,0 -0.74219,-0.16016 -1,-0.48438 -0.26172,-0.32031 -0.39062,-0.73438 -0.39062,-1.2344 0,-0.50781 0.12891,-0.92578 0.39062,-1.25 0.25781,-0.32031 0.59375,-0.48438 1,-0.48438 0.22656,0 0.42969,0.046875 0.60938,0.14062 0.17578,0.085937 0.33594,0.22656 0.48438,0.42188 z m -0.6875,2.125 c 0.21875,0 0.38281,-0.078125 0.5,-0.23438 0.125,-0.16406 0.1875,-0.40625 0.1875,-0.71875 0,-0.32031 -0.0625,-0.5625 -0.1875,-0.71875 -0.11719,-0.16406 -0.28125,-0.25 -0.5,-0.25 -0.23047,0 -0.40625,0.085937 -0.53125,0.25 -0.11719,0.15625 -0.17188,0.39844 -0.17188,0.71875 0,0.3125 0.054687,0.55469 0.17188,0.71875 0.125,0.15625 0.30078,0.23438 0.53125,0.23438 z"
         id="path17" />
    </symbol>
    <symbol
       id="j"
       overflow="visible">
      <path
         d="m 2.2656,-0.6875 c 0.21875,0 0.38281,-0.078125 0.5,-0.23438 0.125,-0.16406 0.1875,-0.40625 0.1875,-0.71875 0,-0.32031 -0.0625,-0.5625 -0.1875,-0.71875 -0.11719,-0.16406 -0.28125,-0.25 -0.5,-0.25 -0.23047,0 -0.40625,0.085937 -0.53125,0.25 -0.11719,0.16797 -0.17188,0.40625 -0.17188,0.71875 0,0.3125 0.054688,0.55469 0.17188,0.71875 0.125,0.15625 0.30078,0.23438 0.53125,0.23438 z M 1.56248,-2.8125 C 1.70701,-3.00781 1.86717,-3.14844 2.04686,-3.23438 2.22264,-3.32813 2.42577,-3.375 2.65624,-3.375 c 0.40625,0 0.73828,0.16406 1,0.48438 0.25781,0.32422 0.39062,0.74219 0.39062,1.25 0,0.5 -0.13281,0.91406 -0.39062,1.2344 -0.26172,0.32422 -0.59375,0.48438 -1,0.48438 -0.23047,0 -0.43359,-0.042969 -0.60938,-0.125 C 1.86717,-0.14059 1.70702,-0.28512 1.56248,-0.48434 V 4e-5 h -1.0625 v -4.5781 h 1.0625 z"
         id="path20" />
    </symbol>
    <symbol
       id="e"
       overflow="visible">
      <path
         d="m 0.078125,-3.2969 h 1.0469 l 0.89062,2.2344 0.75,-2.2344 h 1.0625 l -1.3906,3.6094 c -0.14844,0.36328 -0.3125,0.61719 -0.5,0.76562 -0.17969,0.14453 -0.41797,0.21875 -0.71875,0.21875 h -0.60938 v -0.6875 h 0.32812 c 0.17578,0 0.30469,-0.03125 0.39062,-0.09375 0.082031,-0.054687 0.14453,-0.15234 0.1875,-0.29688 l 0.03125,-0.09375 z"
         id="path23" />
    </symbol>
    <symbol
       id="i"
       overflow="visible">
      <path
         d="m 0.54688,-4.3906 h 3.0625 v 0.84375 h -1.9219 v 0.82812 h 1.8125 v 0.85938 h -1.8125 v 1 h 1.9844 V 3e-5 h -3.125 z"
         id="path26" />
    </symbol>
    <symbol
       id="h"
       overflow="visible">
      <path
         d="m 0.46875,-1.2812 v -2.0156 h 1.0625 v 0.32812 0.67188 0.54688 c 0,0.26172 0.00391,0.45312 0.015625,0.57812 0.00781,0.11719 0.03125,0.19922 0.0625,0.25 0.050781,0.0625 0.10938,0.11719 0.17188,0.15625 0.070312,0.03125 0.15625,0.046875 0.25,0.046875 0.21875,0 0.39062,-0.082031 0.51562,-0.25 0.125,-0.16406 0.1875,-0.39844 0.1875,-0.70312 v -1.625 h 1.0469 v 3.2969 h -1.0469 v -0.48438 c -0.15625,0.19922 -0.32422,0.34375 -0.5,0.4375 -0.17969,0.082031 -0.375,0.125 -0.59375,0.125 -0.38672,0 -0.67969,-0.11328 -0.875,-0.34375 -0.19922,-0.22656 -0.29688,-0.56641 -0.29688,-1.0156 z"
         id="path29" />
    </symbol>
    <symbol
       id="g"
       overflow="visible">
      <path
         d="m 3.1719,-3.1875 v 0.85938 C 3.02346,-2.42968 2.87893,-2.5039 2.7344,-2.54687 2.59768,-2.597651 2.45315,-2.624995 2.2969,-2.624995 c -0.30469,0 -0.53906,0.089844 -0.70312,0.26562 -0.15625,0.16797 -0.23438,0.40625 -0.23438,0.71875 0,0.30469 0.078125,0.54297 0.23438,0.71875 0.16406,0.16797 0.39844,0.25 0.70312,0.25 0.15625,0 0.30469,-0.019531 0.45312,-0.0625 0.15625,-0.050781 0.29688,-0.125 0.42188,-0.21875 v 0.85938 c -0.16797,0.0625 -0.33594,0.10156 -0.5,0.125 -0.16797,0.03125 -0.33984,0.046875 -0.51562,0.046875 -0.59375,0 -1.0586,-0.14844 -1.3906,-0.45312 -0.33594,-0.30078 -0.5,-0.72266 -0.5,-1.2656 0,-0.55078 0.16406,-0.97656 0.5,-1.2812 0.33203,-0.30078 0.79688,-0.45312 1.3906,-0.45312 0.17578,0 0.34766,0.015625 0.51562,0.046875 0.16406,0.03125 0.33203,0.078125 0.5,0.14062 z"
         id="path32" />
    </symbol>
    <symbol
       id="t"
       overflow="visible">
      <path
         d="M 0.5,-4.5781 H 1.5625 V 0 H 0.5 Z"
         id="path35" />
    </symbol>
    <symbol
       id="s"
       overflow="visible">
      <path
         d="m 1.5625,-0.48438 v 1.7344 H 0.5 v -4.5469 H 1.5625 V -2.8125 C 1.70703,-3.00781 1.86719,-3.14844 2.04688,-3.23438 2.22266,-3.32813 2.42579,-3.375 2.65626,-3.375 c 0.40625,0 0.73828,0.16406 1,0.48438 0.25781,0.32422 0.39062,0.74219 0.39062,1.25 0,0.5 -0.13281,0.91406 -0.39062,1.2344 -0.26172,0.32422 -0.59375,0.48438 -1,0.48438 -0.23047,0 -0.43359,-0.042969 -0.60938,-0.125 C 1.86719,-0.14059 1.70704,-0.28512 1.5625,-0.48434 Z m 0.70312,-2.125 c -0.23047,0 -0.40625,0.085937 -0.53125,0.25 -0.11719,0.16797 -0.17188,0.40625 -0.17188,0.71875 0,0.3125 0.054688,0.55469 0.17188,0.71875 0.125,0.15625 0.30078,0.23438 0.53125,0.23438 0.21875,0 0.38281,-0.078125 0.5,-0.23438 0.125,-0.16406 0.1875,-0.40625 0.1875,-0.71875 0,-0.32031 -0.0625,-0.5625 -0.1875,-0.71875 -0.11719,-0.16406 -0.28125,-0.25 -0.5,-0.25 z"
         id="path38" />
    </symbol>
    <symbol
       id="r"
       overflow="visible">
      <path
         d="m 2.6719,-4.5781 v 0.6875 H 2.09378 c -0.14844,0 -0.25,0.027344 -0.3125,0.078125 -0.0625,0.054688 -0.09375,0.14844 -0.09375,0.28125 v 0.23438 h 0.90625 v 0.75 H 1.68753 v 2.5469 h -1.0469 v -2.5469 H 0.10938 v -0.75 h 0.53125 v -0.23438 c 0,-0.35156 0.097656,-0.61328 0.29688,-0.78125 0.19531,-0.17578 0.50781,-0.26562 0.9375,-0.26562 z"
         id="path41" />
    </symbol>
    <symbol
       id="d"
       overflow="visible">
      <path
         d="m 2.0781,-2.625 c -0.24219,0 -0.42188,0.085938 -0.54688,0.25 -0.11719,0.16797 -0.17188,0.41406 -0.17188,0.73438 0,0.3125 0.054687,0.55469 0.17188,0.71875 0.125,0.16797 0.30469,0.25 0.54688,0.25 0.22656,0 0.39844,-0.082031 0.51562,-0.25 0.125,-0.16406 0.1875,-0.40625 0.1875,-0.71875 0,-0.32031 -0.0625,-0.56641 -0.1875,-0.73438 -0.11719,-0.16406 -0.28906,-0.25 -0.51562,-0.25 z m 0,-0.75 c 0.5625,0 1.0039,0.15625 1.3281,0.46875 0.32031,0.30469 0.48438,0.72656 0.48438,1.2656 0,0.54297 -0.16406,0.96484 -0.48438,1.2656 -0.32422,0.30469 -0.76562,0.45312 -1.3281,0.45312 -0.57422,0 -1.0234,-0.14844 -1.3438,-0.45312 -0.3125,-0.30078 -0.46875,-0.72266 -0.46875,-1.2656 0,-0.53906 0.15625,-0.96094 0.46875,-1.2656 C 1.05461,-3.21875 1.50383,-3.375 2.0781,-3.375 Z"
         id="path44" />
    </symbol>
    <symbol
       id="q"
       overflow="visible">
      <path
         d="M 3.5625,-2.75 C 3.69531,-2.95703 3.85156,-3.11328 4.03125,-3.21875 4.21875,-3.32031 4.42187,-3.375 4.64063,-3.375 c 0.38281,0 0.67578,0.12109 0.875,0.35938 0.19531,0.23047 0.29688,0.5625 0.29688,1 V -2e-5 h -1.0625 v -1.7188 -0.078125 -0.125 c 0,-0.22656 -0.039062,-0.39453 -0.10938,-0.5 -0.0625,-0.10156 -0.17188,-0.15625 -0.32812,-0.15625 -0.19922,0 -0.35547,0.085937 -0.46875,0.25 -0.10547,0.15625 -0.15625,0.39062 -0.15625,0.70312 v 1.625 h -1.0625 v -1.7188 c 0,-0.36328 -0.03125,-0.59766 -0.09375,-0.70312 -0.0625,-0.10156 -0.17969,-0.15625 -0.34375,-0.15625 -0.19922,0 -0.35547,0.085937 -0.46875,0.25 -0.10547,0.16797 -0.15625,0.40234 -0.15625,0.70312 v 1.625 h -1.0625 v -3.2969 h 1.0625 v 0.48438 c 0.125,-0.1875 0.26953,-0.32812 0.4375,-0.42188 0.17578,-0.09375 0.36328,-0.14062 0.5625,-0.14062 0.22656,0 0.42578,0.058594 0.59375,0.17188 0.17578,0.10547 0.3125,0.25781 0.40625,0.45312 z"
         id="path47" />
    </symbol>
    <symbol
       id="p"
       overflow="visible">
      <path
         d="M 3.8281,-2.0156 V 0 H 2.7656 v -1.5312 c 0,-0.28906 -0.011719,-0.48828 -0.03125,-0.59375 -0.011719,-0.10156 -0.03125,-0.17969 -0.0625,-0.23438 -0.042969,-0.070313 -0.10156,-0.125 -0.17188,-0.15625 -0.0625,-0.039063 -0.14062,-0.0625 -0.23438,-0.0625 -0.21875,0 -0.39062,0.085937 -0.51562,0.25 -0.125,0.16797 -0.1875,0.40234 -0.1875,0.70312 V 4e-5 h -1.0625 v -4.5781 h 1.0625 v 1.7656 c 0.15625,-0.19531 0.32031,-0.33594 0.5,-0.42188 0.17578,-0.09375 0.375,-0.14062 0.59375,-0.14062 0.38281,0 0.67578,0.12109 0.875,0.35938 0.19531,0.23047 0.29688,0.5625 0.29688,1 z"
         id="path50" />
    </symbol>
    <symbol
       id="o"
       overflow="visible">
      <path
         d="m 0.54688,-4.3906 h 1.2656 l 1.6094,3.0156 v -3.0156 h 1.0781 V 0 H 3.23438 L 1.62498,-3.0156 V 0 h -1.0781 z"
         id="path53" />
    </symbol>
    <symbol
       id="n"
       overflow="visible">
      <path
         d="M 3.8281,-2.0156 V 0 H 2.7656 v -1.5312 c 0,-0.28906 -0.011719,-0.48828 -0.03125,-0.59375 -0.011719,-0.10156 -0.03125,-0.17969 -0.0625,-0.23438 -0.042969,-0.070313 -0.10156,-0.125 -0.17188,-0.15625 -0.0625,-0.039063 -0.14062,-0.0625 -0.23438,-0.0625 -0.21875,0 -0.39062,0.085937 -0.51562,0.25 -0.125,0.16797 -0.1875,0.40234 -0.1875,0.70312 V 4e-5 h -1.0625 v -3.2969 h 1.0625 v 0.48438 c 0.15625,-0.19531 0.32031,-0.33594 0.5,-0.42188 0.17578,-0.09375 0.375,-0.14062 0.59375,-0.14062 0.38281,0 0.67578,0.12109 0.875,0.35938 0.19531,0.23047 0.29688,0.5625 0.29688,1 z"
         id="path56" />
    </symbol>
    <symbol
       id="m"
       overflow="visible">
      <path
         d="m 0.54688,-4.3906 h 1.8906 c 0.5625,0 0.98828,0.125 1.2812,0.375 0.30078,0.24219 0.45312,0.58984 0.45312,1.0469 0,0.46875 -0.15234,0.82812 -0.45312,1.0781 -0.29297,0.24219 -0.71875,0.35938 -1.2812,0.35938 h -0.75 V -2e-5 h -1.1406 z m 1.1406,0.8125 v 1.2344 h 0.625 c 0.21875,0 0.38281,-0.050781 0.5,-0.15625 0.125,-0.11328 0.1875,-0.26953 0.1875,-0.46875 0,-0.1875 -0.0625,-0.33203 -0.1875,-0.4375 -0.11719,-0.11328 -0.28125,-0.17188 -0.5,-0.17188 z"
         id="path59" />
    </symbol>
    <symbol
       id="l"
       overflow="visible">
      <path
         d="m 0.5,-3.2969 h 1.0625 v 3.2344 c 0,0.44531 -0.10938,0.78516 -0.32812,1.0156 C 1.02344,1.17966 0.72266,1.29685 0.32813,1.29685 h -0.53125 v -0.6875 h 0.1875 c 0.19531,0 0.33203,-0.046875 0.40625,-0.14062 0.070313,-0.085938 0.10938,-0.26172 0.10938,-0.53125 z m 0,-1.2812 h 1.0625 v 0.85938 H 0.5 Z"
         id="path62" />
    </symbol>
  </defs>
  <g
     id="g4017"
     transform="translate(-55.248995,14.743735)"
     style="fill:#ffffff;fill-opacity:1">
    <path
       d="m 219.66,179.45 v -24.965 h -9.6562 c -15.973,0 -28.965,12.996 -28.965,28.965 0,15.973 12.992,28.965 28.965,28.965 h 9.6562 v -5.6562 l -26.137,-26.137 13.652,-13.652 z"
       id="path67"
       style="fill:#ffffff;fill-opacity:1" />
    <path
       d="m 374.14,349.42 v -18.855 l -6.543,-1.4023 -26.578,26.578 30.738,20.492 c 1.5742,-8.7695 2.3828,-17.734 2.3828,-26.812 z"
       id="path69"
       style="fill:#ffffff;fill-opacity:1" />
    <path
       d="m 320.04,137.1 -11.34,28.355 -20.445,-30.668 c -3.7891,-5.6836 -6.6016,-11.879 -8.3867,-18.363 -23.137,3.5586 -40.906,23.598 -40.906,47.711 v 54.797 c 0,32.363 20.629,60.98 51.328,71.215 l 6.6016,2.1992 v 22.27 l 28.965,28.965 28.965,-28.965 v -22.27 l 6.6016,-2.1992 c 30.699,-10.234 51.328,-38.855 51.328,-71.215 v -73.07 c -5.2148,-24.367 -23.867,-43.355 -48.043,-49.039 -20.227,5.7578 -36.828,20.68 -44.668,40.277 z m -42.457,27.035 c 0,-5.332 4.3242,-9.6562 9.6562,-9.6562 5.332,0 9.6562,4.3242 9.6562,9.6562 0,5.332 -4.3242,9.6562 -9.6562,9.6562 -5.332,0 -9.6562,-4.3242 -9.6562,-9.6562 z m 84.855,83.602 c -6.9688,13.945 -20.988,22.605 -36.578,22.605 -15.594,0 -29.609,-8.6641 -36.582,-22.609 l -1.0195,-2.0391 17.27,-8.6367 1.0195,2.0391 c 3.6797,7.3633 11.082,11.938 19.309,11.938 8.2305,0 15.629,-4.5742 19.309,-11.934 l 1.0195,-2.0391 17.27,8.6367 z m 2.043,-93.254 c 5.332,0 9.6562,4.3242 9.6562,9.6562 0,5.332 -4.3242,9.6562 -9.6562,9.6562 -5.332,0 -9.6562,-4.3242 -9.6562,-9.6562 0,-5.3359 4.3242,-9.6562 9.6562,-9.6562 z m -12.484,41.445 6.8281,6.8281 -26.137,26.137 -13.652,-13.652 12.914,-12.914 c -10.215,-13.172 -15.746,-29.254 -15.746,-46.188 v -1.6562 h 19.309 v 1.6562 c 0,15.031 5.8555,29.164 16.484,39.789 z"
       id="path71"
       style="fill:#ffffff;fill-opacity:1" />
    <path
       d="m 181.04,144.86 c 8.0742,-6.0742 18.105,-9.6836 28.965,-9.6836 h 9.6562 v -20.969 c 0,-20.191 7.8633,-39.172 22.137,-53.445 l 13.652,13.652 c -10.625,10.633 -16.48,24.766 -16.48,39.793 v 2.6953 c 10.16,-10.383 23.625,-17.508 38.676,-19.656 0.57031,-16.102 7.0977,-31.156 18.547,-42.609 l 3.5352,-3.5352 13.652,13.652 -3.5352,3.5352 c -8.3438,8.3555 -12.941,19.457 -12.941,31.27 0,8.7578 2.5664,17.238 7.4258,24.523 l 0.22266,0.33594 c 10.125,-20.961 28.32,-37.074 50.281,-44.672 v -56.434 l -1.1758,-1.1758 c -14.273,-14.273 -33.25,-22.133 -53.434,-22.133 -13.129,0 -26.094,3.4414 -37.492,9.957 l -14.406,8.2305 c -20.445,11.684 -43.344,18.551 -66.773,20.098 1.6406,12.125 7.168,23.328 15.969,32.129 l 12.059,12.059 -16.543,4.1367 c -18.434,4.6094 -31.309,21.098 -31.309,40.098 v 2.5 l 19.309,-9.6562 z"
       id="path73"
       style="fill:#ffffff;fill-opacity:1" />
    <path
       d="m 219.66,405.52 h 19.309 v 77.242 h 77.242 v -5.2148 c -36.875,-32.422 -57.93,-78.855 -57.93,-128.12 v -14.719 l -35.496,7.6055 c -35.379,7.582 -61.059,39.344 -61.059,75.527 v 93.891 c 0,26.621 21.656,48.277 48.277,48.277 h 86.898 v -57.93 h -77.242 z"
       id="path75"
       style="fill:#ffffff;fill-opacity:1" />
    <path
       d="M 411.62,102.91 C 409.4481,92.187 404.1825,82.324 396.268,74.41 L 409.92,60.758 c 14.281,14.277 22.145,33.258 22.145,53.445 v 20.969 h 9.6562 c 10.859,0 20.891,3.6055 28.965,9.6836 v -57.09 c 0,-37.746 -30.711,-68.457 -68.457,-68.457 -9.6445,0 -19.297,2.0781 -28.094,6.0312 v 54.039 c 14.629,4.4023 27.5,12.617 37.484,23.531 z"
       id="path77"
       style="fill:#ffffff;fill-opacity:1" />
    <path
       d="m 284.13,329.16 -6.543,1.4023 v 18.855 c 0,9.0781 0.8125,18.043 2.3828,26.816 l 30.738,-20.492 z"
       id="path79"
       style="fill:#ffffff;fill-opacity:1" />
    <path
       d="m 355.63,422 c 4.5117,-8.2539 8.25,-16.91 11.152,-25.875 l -13.73,-9.1562 -6.7539,10.133 z"
       id="path81"
       style="fill:#ffffff;fill-opacity:1" />
    <path
       d="m 296.09,422 9.3359,-24.898 -6.7539,-10.133 -13.73,9.1562 c 2.8984,8.9648 6.6367,17.621 11.148,25.875 z"
       id="path83"
       style="fill:#ffffff;fill-opacity:1" />
    <path
       d="m 336.98,376.26 -11.117,-7.4141 -11.121,7.4141 6.6328,9.9492 h 8.9766 z"
       id="path85"
       style="fill:#ffffff;fill-opacity:1" />
    <path
       d="m 325.86,460.25 c 6.082,-5.6523 11.641,-11.754 16.652,-18.223 l -13.688,-36.508 h -5.9297 l -13.691,36.508 c 5.0156,6.4688 10.57,12.57 16.656,18.223 z"
       id="path87"
       style="fill:#ffffff;fill-opacity:1" />
    <path
       d="m 509.31,463.45 v -28.965 c 0,-7.2656 2.6953,-13.906 7.1289,-18.996 l 12.121,-96.977 c 0.043,-0.32422 0.0625,-0.65234 0.0625,-0.98047 V 316.887 c 0,-4.3633 -3.5508,-7.918 -7.918,-7.918 -0.51953,0 -1.043,0.0508 -1.5508,0.15234 l -29.152,5.8281 v 90.566 h -19.309 v -86.707 l -28.957,5.793 c -5.5977,1.1211 -9.6641,6.0781 -9.6641,11.789 0,0.56641 0.043,1.1367 0.12109,1.6992 l 17.906,125.36 z m -38.617,-38.621 h 19.309 v 19.309 h -19.309 z"
       id="path89"
       style="fill:#ffffff;fill-opacity:1" />
    <path
       d="m 470.61,181.34 c -1.0859,-14.992 -13.617,-26.855 -28.883,-26.855 h -9.6562 v 24.969 l 12.484,-12.484 13.652,13.652 -26.133,26.137 v 9.7812 l 22.582,-3.293 z"
       id="path91"
       style="fill:#ffffff;fill-opacity:1" />
    <path
       d="m 538.28,424.83 c -5.3242,0 -9.6562,4.332 -9.6562,9.6562 v 38.621 c 0,5.3242 4.332,9.6562 9.6562,9.6562 5.3242,0 9.6562,-4.332 9.6562,-9.6562 v -38.621 c -0.004,-5.3242 -4.3359,-9.6562 -9.6562,-9.6562 z"
       id="path93"
       style="fill:#ffffff;fill-opacity:1" />
    <path
       d="m 316.21,502.07 h 19.309 V 560 H 316.21 Z"
       id="path95"
       style="fill:#ffffff;fill-opacity:1" />
    <path
       d="m 518.95,494.65 c -3.5703,-3.207 -6.3398,-7.2812 -7.9727,-11.895 h -63.281 l -4.4375,8.8789 c 5.0234,5.2109 8.125,12.293 8.125,20.086 v 9.6562 h 71.273 c 3.2891,0 5.9688,-2.6758 5.9688,-5.9688 0,-0.92188 -0.21875,-1.8438 -0.62891,-2.668 z"
       id="path97"
       style="fill:#ffffff;fill-opacity:1" />
    <path
       d="m 393.11,482.76 h 29.309 c 1.2109,0 2.4023,0.082 3.5742,0.22656 l 5.7539,-11.504 -18.664,-130.66 c -0.0937,-0.64844 -0.15625,-1.3047 -0.20703,-1.957 l -19.422,-4.1602 v 14.719 c 0,49.27 -21.059,95.703 -57.93,128.12 l -0.004,5.2109 h 5.6562 l 12.484,-12.484 c 4.4023,-4.4023 10.258,-6.8281 16.484,-6.8281 11.488,0.004 21.062,8.3594 22.965,19.312 z"
       id="path99"
       style="fill:#ffffff;fill-opacity:1" />
    <path
       d="m 462.43,231.62 -16.727,2.4414 11.734,9.4531 c 2.6484,2.1367 3.9805,5.5078 3.5039,8.875 l -3.5312,24.945 17.078,-13.047 c 1.7305,-1.3203 3.7969,-1.9844 5.8594,-1.9844 2.0664,0 4.1328,0.66016 5.8594,1.9844 l 17.078,13.047 -3.5312,-24.945 c -0.47656,-3.3672 0.85547,-6.7383 3.5039,-8.875 l 11.734,-9.4531 -16.727,-2.4414 c -3.125,-0.45312 -5.832,-2.4102 -7.2422,-5.2344 l -10.68,-21.348 -10.676,21.348 c -1.4102,2.8242 -4.1133,4.7812 -7.2383,5.2344 z"
       id="path101"
       style="fill:#ffffff;fill-opacity:1" />
    <path
       d="m 422.41,502.07 h -48.277 v -15.312 c 0,-2.2031 -1.793,-4 -4,-4 -1.0664,0 -2.0703,0.41797 -2.8281,1.1719 l -12.48,12.484 v 63.586 h 67.586 c 5.3242,0 9.6562,-4.332 9.6562,-9.6562 v -38.621 c 0,-5.3203 -4.332,-9.6523 -9.6562,-9.6523 z"
       id="path103"
       style="fill:#ffffff;fill-opacity:1" />
    <path
       d="m 94.137,511.72 c 0,10.668 -8.6445,19.312 -19.309,19.312 -10.6645,0 -19.312,-8.6445 -19.312,-19.312 0,-10.664 8.6484,-19.309 19.312,-19.309 10.6636,0 19.309,8.6445 19.309,19.309"
       id="path105"
       style="fill:#ffffff;fill-opacity:1" />
    <path
       d="m 625.17,482.76 v -19.309 h -19.309 v 19.309 h -19.312 v 19.312 h 19.312 v 19.309 h 19.309 v -19.309 h 19.312 V 482.76 Z"
       id="path107"
       style="fill:#ffffff;fill-opacity:1" />
    <path
       d="m 65.172,289.66 h 38.621 v 19.309 H 65.172 Z"
       id="path109"
       style="fill:#ffffff;fill-opacity:1" />
    <path
       d="m 123.1,289.66 h 38.621 v 19.309 H 123.1 Z"
       id="path111"
       style="fill:#ffffff;fill-opacity:1" />
    <path
       d="m 103.79,251.04 h 19.309 v 38.621 H 103.79 Z"
       id="path113"
       style="fill:#ffffff;fill-opacity:1" />
    <path
       d="m 103.79,308.96 h 19.309 v 38.621 H 103.79 Z"
       id="path115"
       style="fill:#ffffff;fill-opacity:1" />
    <path
       d="m 528.62,154.48 h 38.621 v 19.309 H 528.62 Z"
       id="path117"
       style="fill:#ffffff;fill-opacity:1" />
    <path
       d="m 586.55,154.48 h 38.621 v 19.309 H 586.55 Z"
       id="path119"
       style="fill:#ffffff;fill-opacity:1" />
    <path
       d="m 567.24,115.86 h 19.309 v 38.621 H 567.24 Z"
       id="path121"
       style="fill:#ffffff;fill-opacity:1" />
    <path
       d="m 567.24,173.79 h 19.309 v 38.621 H 567.24 Z"
       id="path123"
       style="fill:#ffffff;fill-opacity:1" />
  </g>
</svg>
