<?xml version="1.0" encoding="UTF-8" standalone="no"?>
<svg
   xmlns:dc="http://purl.org/dc/elements/1.1/"
   xmlns:cc="http://creativecommons.org/ns#"
   xmlns:rdf="http://www.w3.org/1999/02/22-rdf-syntax-ns#"
   xmlns:svg="http://www.w3.org/2000/svg"
   xmlns="http://www.w3.org/2000/svg"
   xmlns:sodipodi="http://sodipodi.sourceforge.net/DTD/sodipodi-0.dtd"
   xmlns:inkscape="http://www.inkscape.org/namespaces/inkscape"
   width="730"
   height="730"
   version="1.1"
   viewBox="0 0 547.50001 547.50001"
   id="svg174"
   sodipodi:docname="Shooting range.svg"
   inkscape:version="1.0.2 (e86c870879, 2021-01-15)"
   inkscape:export-filename="/home/marek/Downloads/Shooting range.png"
   inkscape:export-xdpi="26.301371"
   inkscape:export-ydpi="26.301371">
  <metadata
     id="metadata178">
    <rdf:RDF>
      <cc:Work
         rdf:about="">
        <dc:format>image/svg+xml</dc:format>
        <dc:type
           rdf:resource="http://purl.org/dc/dcmitype/StillImage" />
        <dc:title></dc:title>
      </cc:Work>
    </rdf:RDF>
  </metadata>
  <sodipodi:namedview
     pagecolor="#ffffff"
     bordercolor="#666666"
     borderopacity="1"
     objecttolerance="10"
     gridtolerance="10"
     guidetolerance="10"
     inkscape:pageopacity="0"
     inkscape:pageshadow="2"
     inkscape:window-width="1920"
     inkscape:window-height="990"
     id="namedview176"
     showgrid="false"
     inkscape:pagecheckerboard="true"
     units="px"
     inkscape:zoom="0.62041355"
     inkscape:cx="18.319017"
     inkscape:cy="450.844"
     inkscape:window-x="0"
     inkscape:window-y="30"
     inkscape:window-maximized="1"
     inkscape:current-layer="svg174" />
  <defs
     id="defs68">
    <symbol
       id="v"
       overflow="visible">
      <path
         d="M 5.5156,-0.32812 C 5.23435,-0.17968 4.93748,-0.07031 4.62498,0 4.32029,0.070312 3.99998,0.10938 3.65623,0.10938 c -1,0 -1.793,-0.27344 -2.375,-0.82812 -0.58594,-0.5625 -0.875,-1.3203 -0.875,-2.2812 0,-0.95703 0.28906,-1.7109 0.875,-2.2656 0.58203,-0.5625 1.375,-0.84375 2.375,-0.84375 0.34375,0 0.66406,0.039063 0.96875,0.10938 0.3125,0.074219 0.60938,0.18359 0.89062,0.32812 v 1.25 C 5.23435,-4.6171 4.9531,-4.75773 4.67185,-4.84367 4.3906,-4.93742 4.09373,-4.98429 3.78123,-4.98429 c -0.55469,0 -0.98438,0.17969 -1.2969,0.53125 -0.3125,0.35547 -0.46875,0.83984 -0.46875,1.4531 0,0.625 0.15625,1.1172 0.46875,1.4688 0.3125,0.35547 0.74219,0.53125 1.2969,0.53125 0.3125,0 0.60938,-0.046875 0.89062,-0.14062 0.28124,-0.093745 0.5625,-0.23828 0.84375,-0.4375 z"
         id="path2" />
    </symbol>
    <symbol
       id="d"
       overflow="visible">
      <path
         d="m 4.0312,-3.2812 c -0.125,-0.050781 -0.25,-0.09375 -0.375,-0.125 -0.125,-0.03125 -0.25,-0.046875 -0.375,-0.046875 -0.36719,0 -0.65234,0.12109 -0.85938,0.35938 -0.19922,0.24219 -0.29688,0.57812 -0.29688,1.0156 V 5e-6 h -1.4375 v -4.5 h 1.4375 v 0.73438 c 0.1875,-0.28906 0.39844,-0.50391 0.64062,-0.64062 0.23828,-0.13281 0.52344,-0.20312 0.85938,-0.20312 0.050781,0 0.10156,0.00781 0.15625,0.015625 0.0625,0 0.14453,0.00781 0.25,0.015625 z"
         id="path5" />
    </symbol>
    <symbol
       id="a"
       overflow="visible">
      <path
         d="m 5.1875,-2.2656 v 0.40625 H 1.8281 c 0.03125,0.34375 0.14844,0.60156 0.35938,0.76562 0.20703,0.16797 0.5,0.25 0.875,0.25 0.30078,0 0.60938,-0.039062 0.92188,-0.125 0.32031,-0.09375 0.64844,-0.23438 0.98438,-0.42188 v 1.125 c -0.33594,0.125 -0.67188,0.21875 -1.0156,0.28125 -0.34372,0.0625 -0.68359,0.09375 -1.0156,0.09375 -0.82422,0 -1.4609,-0.20312 -1.9062,-0.60938 -0.44922,-0.41406 -0.67188,-1 -0.67188,-1.75 0,-0.72656 0.21875,-1.3008 0.65625,-1.7188 0.44531,-0.42578 1.0547,-0.64062 1.8281,-0.64062 0.70703,0 1.2734,0.21484 1.7031,0.64062 0.42578,0.42969 0.64062,0.99609 0.64062,1.7031 z M 3.7031,-2.73435 c 0,-0.28125 -0.078125,-0.50391 -0.23438,-0.67188 -0.15625,-0.16406 -0.36719,-0.25 -0.625,-0.25 -0.28125,0 -0.51172,0.078125 -0.6875,0.23438 -0.16797,0.15625 -0.27344,0.38672 -0.3125,0.6875 z"
         id="path8" />
    </symbol>
    <symbol
       id="e"
       overflow="visible">
      <path
         d="m 2.7031,-2.0312 c -0.29297,0 -0.51562,0.054688 -0.67188,0.15625 -0.14844,0.10547 -0.21875,0.25781 -0.21875,0.45312 0,0.17969 0.054688,0.32031 0.17188,0.42188 0.125,0.10547 0.29688,0.15625 0.51562,0.15625 0.26953,0 0.49219,-0.09375 0.67188,-0.28125 0.1875,-0.19531 0.28125,-0.44141 0.28125,-0.73438 V -2.03121 Z M 4.9062,-2.56245 V 5e-5 H 3.4531 V -0.67183 C 3.2656,-0.39058 3.04685,-0.18745 2.79685,-0.06245 2.55466,0.05083 2.2656,0.10943 1.92185,0.10943 1.4531,0.10943 1.07029,-0.02338 0.78125,-0.29682 0.5,-0.56635 0.35937,-0.91401 0.35937,-1.34372 c 0,-0.53125 0.17578,-0.92188 0.53125,-1.1719 0.36328,-0.25 0.9375,-0.375 1.7188,-0.375 H 3.45317 V -3 c 0,-0.22656 -0.089844,-0.39453 -0.26562,-0.5 C 3.00786,-3.60156 2.72661,-3.65625 2.3438,-3.65625 2.03911,-3.65625 1.75396,-3.625 1.48442,-3.5625 1.2227,-3.5 0.97661,-3.40625 0.75004,-3.28125 v -1.0938 c 0.30078,-0.082031 0.60938,-0.14062 0.92188,-0.17188 0.3125,-0.039063 0.625,-0.0625 0.9375,-0.0625 0.8125,0 1.3945,0.16406 1.75,0.48438 0.36328,0.3125 0.54688,0.83594 0.54688,1.5625 z"
         id="path11" />
    </symbol>
    <symbol
       id="c"
       overflow="visible">
      <path
         d="M 2.2656,-5.7812 V -4.5 H 3.75 v 1.0312 H 2.2656 v 1.9062 c 0,0.21094 0.039063,0.35156 0.125,0.42188 0.082031,0.074219 0.25,0.10938 0.5,0.10938 h 0.73438 v 1.0312 h -1.2344 c -0.57422,0 -0.98047,-0.11719 -1.2188,-0.35938 C 0.94131,-0.5978 0.82803,-1.00014 0.82803,-1.56262 v -1.9062 H 0.10928 v -1.0312 h 0.71875 v -1.2812 z"
         id="path14" />
    </symbol>
    <symbol
       id="k"
       overflow="visible">
      <path
         d="M 3.75,-3.8438 V -6.25 H 5.2031 V 0 H 3.75 V -0.65625 C 3.55078,-0.38281 3.33203,-0.1875 3.09375,-0.0625 2.85156,0.05078 2.57813,0.10938 2.26563,0.10938 c -0.55469,0 -1.0078,-0.21875 -1.3594,-0.65625 -0.35547,-0.4375 -0.53125,-1.0039 -0.53125,-1.7031 0,-0.6875 0.17578,-1.25 0.53125,-1.6875 0.35156,-0.44531 0.80469,-0.67188 1.3594,-0.67188 0.3125,0 0.58594,0.0625 0.82812,0.1875 0.23828,0.125 0.45703,0.32031 0.65625,0.57812 z m -0.9375,2.9219 c 0.30078,0 0.53125,-0.11328 0.6875,-0.34375 0.16406,-0.22656 0.25,-0.55469 0.25,-0.98438 0,-0.42578 -0.085938,-0.75 -0.25,-0.96875 -0.15625,-0.22656 -0.38672,-0.34375 -0.6875,-0.34375 -0.3125,0 -0.55469,0.11719 -0.71875,0.34375 -0.15625,0.21875 -0.23438,0.54297 -0.23438,0.96875 0,0.42969 0.078125,0.75781 0.23438,0.98438 C 2.25781,-1.03518 2.5,-0.9219 2.8125,-0.9219 Z"
         id="path17" />
    </symbol>
    <symbol
       id="j"
       overflow="visible">
      <path
         d="m 3.0938,-0.92188 c 0.30078,0 0.53125,-0.11328 0.6875,-0.34375 0.16406,-0.22656 0.25,-0.55469 0.25,-0.98438 0,-0.42578 -0.085938,-0.75 -0.25,-0.96875 -0.15625,-0.22656 -0.38672,-0.34375 -0.6875,-0.34375 -0.3125,0 -0.55469,0.11719 -0.71875,0.34375 -0.16797,0.21875 -0.25,0.54297 -0.25,0.96875 0,0.42969 0.082031,0.75781 0.25,0.98438 0.16406,0.23047 0.40625,0.34375 0.71875,0.34375 z M 2.12505,-3.84378 C 2.32036,-4.10159 2.53911,-4.2969 2.7813,-4.4219 c 0.25,-0.125 0.53125,-0.1875 0.84375,-0.1875 0.55078,0 1.0039,0.22656 1.3594,0.67188 0.36328,0.4375 0.54688,1 0.54688,1.6875 0,0.69922 -0.18359,1.2656 -0.54688,1.7031 -0.35547,0.4375 -0.80859,0.65625 -1.3594,0.65625 -0.3125,0 -0.59375,-0.058594 -0.84375,-0.17188 C 2.53911,-0.18755 2.32036,-0.38286 2.12505,-0.6563 V -5e-5 h -1.4375 v -6.25 h 1.4375 z"
         id="path20" />
    </symbol>
    <symbol
       id="i"
       overflow="visible">
      <path
         d="m 0.09375,-4.5 h 1.4531 l 1.2031,3.0469 1.0312,-3.0469 h 1.4375 l -1.8906,4.9219 c -0.1875,0.5 -0.41406,0.84766 -0.67188,1.0469 -0.25,0.20703 -0.58594,0.3125 -1,0.3125 H 0.82805 V 0.82818 h 0.45312 c 0.23828,0 0.41016,-0.042969 0.51562,-0.125 C 1.91007,0.628961 1.99991,0.49224 2.06241,0.29693 l 0.046875,-0.125 z"
         id="path23" />
    </symbol>
    <symbol
       id="h"
       overflow="visible">
      <path
         d="M 0.75,-6 H 2.7188 L 4.0938,-2.7969 5.4688,-6 H 7.4376 V 0 H 5.9688 v -4.3906 l -1.375,3.2344 H 3.60942 L 2.21882,-4.3906 V 0 h -1.4688 z"
         id="path26" />
    </symbol>
    <symbol
       id="u"
       overflow="visible">
      <path
         d="M 1.8281,-2.2969 0.2031,-4.5 H 1.7343 L 2.65618,-3.1719 3.57806,-4.5 h 1.5312 L 3.48426,-2.3125 5.18736,0 h -1.5312 l -1,-1.4219 -1,1.4219 h -1.5312 z"
         id="path29" />
    </symbol>
    <symbol
       id="t"
       overflow="visible">
      <path
         d="M 0.6875,-4.5 H 2.125 V 0 H 0.6875 Z m 0,-1.75 H 2.125 v 1.1719 H 0.6875 Z"
         id="path32" />
    </symbol>
    <symbol
       id="g"
       overflow="visible">
      <path
         d="m 4.3281,-4.3594 v 1.1719 C 4.12888,-3.32031 3.92966,-3.42188 3.73435,-3.48438 3.54685,-3.54688 3.34373,-3.57813 3.12497,-3.57813 c -0.39844,0 -0.71094,0.12109 -0.9375,0.35938 -0.21875,0.23047 -0.32812,0.55469 -0.32812,0.96875 0,0.42969 0.10938,0.76172 0.32812,1 0.22656,0.23047 0.53906,0.34375 0.9375,0.34375 0.22656,0 0.44141,-0.03125 0.64062,-0.09375 0.20703,-0.070312 0.39453,-0.17578 0.5625,-0.3125 v 1.1875 c -0.21875,0.074219 -0.44922,0.12891 -0.6875,0.17188 -0.23047,0.039062 -0.46094,0.0625 -0.6875,0.0625 -0.8125,0 -1.4492,-0.20703 -1.9062,-0.625 -0.46094,-0.41406 -0.6875,-0.99219 -0.6875,-1.7344 0,-0.73828 0.22656,-1.3164 0.6875,-1.7344 0.45703,-0.41406 1.0938,-0.625 1.9062,-0.625 0.22656,0 0.45703,0.023437 0.6875,0.0625 0.22656,0.042969 0.45703,0.10547 0.6875,0.1875 z"
         id="path35" />
    </symbol>
    <symbol
       id="b"
       overflow="visible">
      <path
         d="m 2.8281,-3.5781 c -0.3125,0 -0.55469,0.11719 -0.71875,0.34375 -0.16797,0.23047 -0.25,0.55859 -0.25,0.98438 0,0.4375 0.082031,0.77344 0.25,1 0.16406,0.23047 0.40625,0.34375 0.71875,0.34375 0.32031,0 0.5625,-0.11328 0.71875,-0.34375 0.16406,-0.22656 0.25,-0.5625 0.25,-1 0,-0.42578 -0.085937,-0.75391 -0.25,-0.98438 C 3.3906,-3.46091 3.14841,-3.5781 2.8281,-3.5781 Z m 0,-1.0312 c 0.78125,0 1.3828,0.21094 1.8125,0.625 0.4375,0.41797 0.65625,0.99609 0.65625,1.7344 0,0.74219 -0.21875,1.3203 -0.65625,1.7344 -0.42969,0.41797 -1.0312,0.625 -1.8125,0.625 -0.77344,0 -1.375,-0.20703 -1.8125,-0.625 -0.4375,-0.41406 -0.65625,-0.99219 -0.65625,-1.7344 0,-0.73828 0.21875,-1.3164 0.65625,-1.7344 0.4375,-0.41406 1.0391,-0.625 1.8125,-0.625 z"
         id="path38" />
    </symbol>
    <symbol
       id="f"
       overflow="visible">
      <path
         d="M 5.2188,-2.7344 V 0 H 3.7657 v -2.0938 c 0,-0.39453 -0.011719,-0.66406 -0.03125,-0.8125 -0.011719,-0.14453 -0.039063,-0.25391 -0.078125,-0.32812 -0.054688,-0.09375 -0.13281,-0.16406 -0.23438,-0.21875 -0.09375,-0.050781 -0.20312,-0.078125 -0.32812,-0.078125 -0.30469,0 -0.54297,0.12109 -0.71875,0.35938 -0.16797,0.23047 -0.25,0.54688 -0.25,0.95312 V 5e-6 h -1.4375 v -4.5 h 1.4375 v 0.65625 c 0.21875,-0.25781 0.44531,-0.45312 0.6875,-0.57812 0.25,-0.125 0.51953,-0.1875 0.8125,-0.1875 0.51953,0 0.91406,0.16406 1.1875,0.48438 0.26953,0.3125 0.40625,0.77734 0.40625,1.3906 z"
         id="path41" />
    </symbol>
    <symbol
       id="s"
       overflow="visible">
      <path
         d="m 4.2031,-4.3594 v 1.0938 C 3.89841,-3.39841 3.60154,-3.49998 3.31248,-3.56248 3.03123,-3.62498 2.75779,-3.65623 2.49998,-3.65623 c -0.27344,0 -0.47656,0.039062 -0.60938,0.10938 -0.125,0.0625 -0.1875,0.16797 -0.1875,0.3125 0,0.11719 0.046875,0.20312 0.14062,0.26562 0.10156,0.0625 0.28516,0.10938 0.54688,0.14062 l 0.25,0.03125 c 0.73828,0.09375 1.2344,0.25 1.4844,0.46875 0.25781,0.21094 0.39062,0.54297 0.39062,1 0,0.48047 -0.17969,0.83984 -0.53125,1.0781 -0.35547,0.24219 -0.88672,0.35938 -1.5938,0.35938 -0.29297,0 -0.60156,-0.027344 -0.92188,-0.078125 -0.3125,-0.039062 -0.63672,-0.10938 -0.96875,-0.20312 v -1.0938 c 0.28125,0.14844 0.57031,0.25781 0.875,0.32812 0.30078,0.0625 0.60938,0.09375 0.92188,0.09375 0.28125,0 0.48828,-0.035156 0.625,-0.10938 0.14453,-0.082031 0.21875,-0.19531 0.21875,-0.34375 0,-0.13281 -0.054687,-0.23438 -0.15625,-0.29688 -0.09375,-0.0625 -0.28906,-0.10938 -0.57812,-0.14062 l -0.25,-0.03125 c -0.63672,-0.082031 -1.0859,-0.23438 -1.3438,-0.45312 -0.26172,-0.21875 -0.39062,-0.54688 -0.39062,-0.98438 0,-0.47656 0.16016,-0.83203 0.48438,-1.0625 0.33203,-0.22656 0.83594,-0.34375 1.5156,-0.34375 0.25781,0 0.53516,0.023437 0.82812,0.0625 0.28906,0.042969 0.60938,0.10547 0.95312,0.1875 z"
         id="path44" />
    </symbol>
    <symbol
       id="r"
       overflow="visible">
      <path
         d="m 3.6562,-6.25 v 0.9375 H 2.85932 c -0.21094,0 -0.35547,0.039062 -0.4375,0.10938 C 2.347601,-5.128901 2.31244,-5 2.31244,-4.8125 V -4.5 h 1.2344 v 1.0312 H 2.31244 V 0 H 0.87494 V -3.4688 H 0.15619 V -4.5 h 0.71875 v -0.3125 c 0,-0.48828 0.13281,-0.84766 0.40625,-1.0781 0.26953,-0.23828 0.69141,-0.35938 1.2656,-0.35938 z"
         id="path47" />
    </symbol>
    <symbol
       id="q"
       overflow="visible">
      <path
         d="m 4.8594,-3.75 c 0.1875,-0.28125 0.40625,-0.49219 0.65625,-0.64062 0.25,-0.14453 0.52344,-0.21875 0.82812,-0.21875 0.50781,0 0.89844,0.16406 1.1719,0.48438 0.26953,0.3125 0.40625,0.77734 0.40625,1.3906 V 1e-5 h -1.4375 v -2.3438 -0.10938 -0.17188 c 0,-0.3125 -0.046875,-0.53906 -0.14062,-0.6875 C 6.25005,-3.45708 6.09771,-3.5313 5.89068,-3.5313 c -0.27344,0 -0.48438,0.11719 -0.64062,0.34375 -0.14844,0.23047 -0.21875,0.55469 -0.21875,0.96875 V 0 h -1.4531 v -2.3438 c 0,-0.5 -0.042969,-0.82031 -0.125,-0.96875 C 3.367273,-3.45708 3.21883,-3.5313 3.00009,-3.5313 c -0.28125,0 -0.5,0.11719 -0.65625,0.34375 C 2.1954,-2.95708 2.12509,-2.63286 2.12509,-2.2188 V 0 h -1.4375 v -4.5 h 1.4375 v 0.65625 c 0.17578,-0.25 0.37891,-0.4375 0.60938,-0.5625 0.22656,-0.13281 0.48438,-0.20312 0.76562,-0.20312 0.3125,0 0.58594,0.078125 0.82812,0.23438 0.23828,0.14844 0.41406,0.35547 0.53125,0.625 z"
         id="path50" />
    </symbol>
    <symbol
       id="p"
       overflow="visible">
      <path
         d="M 5.2188,-2.7344 V 0 H 3.7657 v -2.0938 c 0,-0.39453 -0.011719,-0.66406 -0.03125,-0.8125 -0.011719,-0.14453 -0.039063,-0.25391 -0.078125,-0.32812 -0.054688,-0.09375 -0.13281,-0.16406 -0.23438,-0.21875 -0.09375,-0.050781 -0.20312,-0.078125 -0.32812,-0.078125 -0.30469,0 -0.54297,0.12109 -0.71875,0.35938 -0.16797,0.23047 -0.25,0.54688 -0.25,0.95312 V 5e-6 h -1.4375 v -6.25 h 1.4375 v 2.4062 c 0.21875,-0.25781 0.44531,-0.45312 0.6875,-0.57812 0.25,-0.125 0.51953,-0.1875 0.8125,-0.1875 0.51953,0 0.91406,0.16406 1.1875,0.48438 0.26953,0.3125 0.40625,0.77734 0.40625,1.3906 z"
         id="path53" />
    </symbol>
    <symbol
       id="o"
       overflow="visible">
      <path
         d="m 0.75,-6 h 1.7344 l 2.1875,4.1094 V -6 H 6.1407 V 0 H 4.4063 L 2.2188,-4.125 V 0 H 0.75 Z"
         id="path56" />
    </symbol>
    <symbol
       id="n"
       overflow="visible">
      <path
         d="M 0.64062,-1.75 V -4.5 h 1.4531 v 0.45312 c 0,0.24219 -0.00781,0.54688 -0.015625,0.92188 v 0.73438 c 0,0.35547 0.00781,0.61719 0.03125,0.78125 0.019531,0.15625 0.050781,0.27344 0.09375,0.34375 0.0625,0.09375 0.14062,0.16797 0.23438,0.21875 0.09375,0.054687 0.20312,0.078125 0.32812,0.078125 0.30078,0 0.53516,-0.11328 0.70312,-0.34375 0.17578,-0.23828 0.26562,-0.5625 0.26562,-0.96875 v -2.2188 h 1.4375 v 4.5 h -1.4375 v -0.65625 c -0.21875,0.27344 -0.45312,0.46875 -0.70312,0.59375 -0.24219,0.11328 -0.50781,0.17188 -0.79688,0.17188 -0.52344,0 -0.91797,-0.15625 -1.1875,-0.46875 -0.27344,-0.32031 -0.40625,-0.78516 -0.40625,-1.3906 z"
         id="path59" />
    </symbol>
    <symbol
       id="m"
       overflow="visible">
      <path
         d="m 0.75,-6 h 2.5781 c 0.75781,0 1.3438,0.17188 1.75,0.51562 0.41406,0.33594 0.625,0.8125 0.625,1.4375 0,0.63672 -0.21094,1.125 -0.625,1.4688 -0.40625,0.33594 -0.99219,0.5 -1.75,0.5 H 2.2969 V 2e-5 H 0.75 Z m 1.5469,1.125 v 1.6719 h 0.85938 c 0.30078,0 0.53125,-0.070313 0.6875,-0.21875 0.16406,-0.14453 0.25,-0.35156 0.25,-0.625 0,-0.26953 -0.085938,-0.47266 -0.25,-0.60938 -0.15625,-0.14453 -0.38672,-0.21875 -0.6875,-0.21875 z"
         id="path62" />
    </symbol>
    <symbol
       id="l"
       overflow="visible">
      <path
         d="M 0.6875,-4.5 H 2.125 v 4.4219 c 0,0.60156 -0.14844,1.0625 -0.4375,1.375 -0.28125,0.32031 -0.69922,0.48438 -1.25,0.48438 H -0.26562 V 0.82816 h 0.23438 c 0.28125,0 0.46875,-0.0625 0.5625,-0.1875 0.10156,-0.11719 0.15625,-0.35547 0.15625,-0.71875 z m 0,-1.75 H 2.125 v 1.1719 H 0.6875 Z"
         id="path65" />
    </symbol>
  </defs>
  <g
     id="g1070"
     transform="translate(-76.248331,-6.253093)"
     style="fill:#ffffff;fill-opacity:1">
    <path
       d="m 498.52,226.16 v 17.953 h 27.781 v -50.969 c -7.7734,1.3633 -14.816,5.418 -19.898,11.453 -5.0781,6.0391 -7.8711,13.672 -7.8828,21.562 z"
       id="path70"
       style="fill:#ffffff;fill-opacity:1" />
    <path
       d="m 498.52,271.74 c 0.0117,7.8906 2.8047,15.523 7.8828,21.562 5.082,6.0391 12.125,10.094 19.898,11.453 v -49.109 h -27.781 z"
       id="path72"
       style="fill:#ffffff;fill-opacity:1" />
    <path
       d="m 565.61,271.74 v -16.094 h -27.781 v 49.109 c 7.7734,-1.3594 14.816,-5.4141 19.898,-11.453 5.0781,-6.0352 7.8711,-13.672 7.8828,-21.562 z"
       id="path74"
       style="fill:#ffffff;fill-opacity:1" />
    <path
       d="m 488,83.906 v 14.797 c 0.0195,13.184 5.9258,25.672 16.105,34.051 v 13.121 c 0,3.1484 -2.0781,5.9219 -5.1055,6.8008 -12.602,3.7227 -23.992,10.715 -33.02,20.266 -7.9883,8.6094 -12.406,19.93 -12.367,31.676 v 124.4 c 0.008,6.5898 2.6289,12.906 7.293,17.566 4.6602,4.6602 10.977,7.2812 17.566,7.2891 h 38.301 l 0.004,71.559 h -18.984 c -5.8516,0 -11.465,2.3281 -15.605,6.4648 -4.1367,4.1406 -6.4648,9.7539 -6.4648,15.609 v 1.3906 c 0,5.1602 4.1797,9.3477 9.3398,9.3516 h 96.188 c 2.4805,0 4.8594,-0.98438 6.6133,-2.7383 1.75,-1.75 2.7383,-4.1289 2.7383,-6.6094 v -1.3945 c 0,-5.8555 -2.3281,-11.469 -6.4648,-15.609 -4.1406,-4.1367 -9.7539,-6.4648 -15.609,-6.4648 h -18.77 v -71.559 h 35.906 c 6.5938,-0.008 12.91,-2.6289 17.57,-7.2891 4.6602,-4.6602 7.2852,-10.98 7.293,-17.57 v -124.4 c 0.0352,-11.742 -4.3867,-23.062 -12.375,-31.672 -9.0234,-9.5469 -20.414,-16.539 -33.016,-20.258 -3.0273,-0.87891 -5.1094,-3.6523 -5.1055,-6.8047 v -13.125 c 10.184,-8.3789 16.094,-20.863 16.113,-34.051 v -14.797 c -0.0937,-15.68 -8.5156,-30.129 -22.109,-37.941 -13.598,-7.8125 -30.32,-7.8125 -43.914,0 -13.598,7.8125 -22.016,22.262 -22.113,37.941 z m 89.141,142.25 v 45.586 l 0.004,-0.004 c 0,16.105 -8.5938,30.984 -22.539,39.039 -13.945,8.0508 -31.129,8.0508 -45.074,0 -13.945,-8.0547 -22.539,-22.934 -22.539,-39.039 v -45.582 c 0,-16.105 8.5938,-30.984 22.539,-39.035 13.945,-8.0547 31.129,-8.0547 45.074,0 13.945,8.0508 22.539,22.93 22.539,39.035 z"
       id="path76"
       style="fill:#ffffff;fill-opacity:1" />
    <path
       d="m 565.61,226.16 c -0.0117,-7.8906 -2.8047,-15.523 -7.8828,-21.562 -5.082,-6.0352 -12.125,-10.09 -19.898,-11.453 v 50.977 h 27.781 z"
       id="path78"
       style="fill:#ffffff;fill-opacity:1" />
    <path
       d="m 238.43,297.08 v -36.879 c -20.34,1.4492 -39.375,10.547 -53.281,25.461 -13.91,14.914 -21.656,34.539 -21.684,54.93 v 34.188 h 27.148 v -24.543 c 0.0195,-13.195 4.9102,-25.918 13.734,-35.73 8.8242,-9.8086 20.965,-16.016 34.082,-17.426 z"
       id="path80"
       style="fill:#ffffff;fill-opacity:1" />
    <path
       d="m 269.21,431.44 c 0.004,-4.5273 1.7266,-8.8828 4.8281,-12.18 3.0977,-3.2969 7.3398,-5.293 11.855,-5.5742 0.0625,-0.94531 0.12109,-27.375 0.12109,-27.375 l -36.055,-0.004 v 66.062 c 8.4141,-1.1836 16.27,-4.9062 22.512,-10.676 -2.125,-2.9961 -3.2656,-6.582 -3.2617,-10.254 z"
       id="path82"
       style="fill:#ffffff;fill-opacity:1" />
    <path
       d="m 238.43,386.3 h -36.285 v 24.543 c 0.0156,10.137 3.6992,19.93 10.367,27.562 6.668,7.6367 15.875,12.602 25.918,13.984 z"
       id="path84"
       style="fill:#ffffff;fill-opacity:1" />
    <path
       d="m 202.15,350.24 v 24.543 h 36.285 v -66.086 c -10.043,1.3789 -19.25,6.3438 -25.918,13.98 -6.668,7.6367 -10.352,17.426 -10.367,27.562 z"
       id="path86"
       style="fill:#ffffff;fill-opacity:1" />
    <path
       d="m 324.7,420.49 v -34.188 h -27.148 v 30.051 c 0,0 7.2891,4.0156 7.2891,15.082 -0.004,5.6602 -2.6953,10.98 -7.25,14.336 -4.5547,3.3594 -10.434,4.3516 -15.84,2.6797 -7.082,8.168 -20.285,14.258 -31.789,15.52 v 36.895 c 20.297,-1.5039 39.277,-10.621 53.133,-25.527 13.859,-14.902 21.578,-34.492 21.605,-54.848 z"
       id="path88"
       style="fill:#ffffff;fill-opacity:1" />
    <path
       d="m 286.02,350.24 c -0.0156,-10.098 -3.668,-19.852 -10.289,-27.477 -6.6211,-7.625 -15.77,-12.609 -25.766,-14.039 v 66.047 h 36.055 z"
       id="path90"
       style="fill:#ffffff;fill-opacity:1" />
    <path
       d="m 238.32,59.992 c -7.8906,1.25 -15.168,5.0078 -20.758,10.711 -5.5938,5.7031 -9.2031,13.055 -10.297,20.969 h 31.055 z"
       id="path92"
       style="fill:#ffffff;fill-opacity:1" />
    <path
       d="m 280.67,103.2 h -30.824 v 30.23 c 7.6406,-1.2109 14.715,-4.7773 20.238,-10.195 5.5234,-5.4141 9.2266,-12.418 10.586,-20.035 z"
       id="path94"
       style="fill:#ffffff;fill-opacity:1" />
    <path
       d="m 249.85,59.992 v 31.68 h 31.055 C 279.8112,83.7579 276.198,76.406 270.608,70.703 265.0182,64.9999 257.741,61.2421 249.85,59.992 Z"
       id="path96"
       style="fill:#ffffff;fill-opacity:1" />
    <path
       d="m 114.34,553.58 h 258.75 -0.004 c 6.8633,0 13.418,-2.8359 18.117,-7.8398 4.6992,-5 7.1211,-11.719 6.6953,-18.57 0,0 -14.867,-238.3 -14.883,-238.4 -2.0195,-17.457 -7.1602,-38.887 -29.18,-49.77 -6.4023,-3.1016 -13.965,-2.582 -19.883,1.3672 -2.4492,1.5742 -5.375,2.2422 -8.2656,1.8789 -4.5859,-0.66016 -8.457,-3.7461 -10.125,-8.0703 -0.91016,-2.2539 -1.1016,-4.7344 -0.53906,-7.1016 0.625,-2.793 -0.89844,-5.6211 -3.5742,-6.6445 -4.5312,-1.7266 -9.1914,-3.3945 -13.863,-4.9414 l 0.004,0.004 c -4.2383,-1.4102 -7.9258,-4.1211 -10.539,-7.7422 -2.6094,-3.625 -4.0117,-7.9805 -4.0078,-12.449 v -24.004 c 9.9414,-7.8477 17.977,-17.852 23.5,-29.254 12.539,-5.2344 19.855,-17.84 20.691,-35.82 0.14844,-3.3594 -0.75781,-6.687504 -2.6016,-9.503904 -1.8398,-2.8203 -4.5195,-4.9883 -7.6602,-6.1992 -2.2266,-46.762 -34.203,-84.094 -72.895,-84.094 -38.691,0 -70.66,37.332 -72.895,84.094 h -0.004 c -3.1406,1.2148 -5.8203,3.3828 -7.6602,6.1992 -1.8438,2.8203 -2.75,6.144504 -2.6016,9.507804 0.82422,17.98 8.1484,30.586 20.691,35.82 5.5195,11.398 13.555,21.402 23.496,29.25 v 23.992 c 0.004,4.4648 -1.3945,8.8164 -4.0039,12.441 -2.6094,3.6246 -6.293,6.332 -10.531,7.7422 -17.203,5.6211 -33.848,12.824 -49.723,21.52 -19.152,10.809 -32.301,29.793 -35.68,51.527 -3.1289,19.434 -6.042996,40.945 -8.425796,62.207 -0.23438,1.6328 0.26172,3.2852 1.3594,4.5195 1.0938,1.2344 2.679696,1.9258 4.328096,1.8867 2.2656,0 13.199,0.95703 13.199,12.488 v -0.004 c -0.25,5.1992 -3.5859,9.7422 -8.4688,11.543 -4.1758,1.6406 -7.769496,4.4844 -10.335996,8.168 -2.5625,3.6797 -3.9805,8.0391 -4.0703,12.527 l -3.2734,126.22 c -0.17188,6.7031 2.3711,13.191 7.0508,17.992 4.679696,4.8008 11.097996,7.5078 17.804996,7.5117 z M 195.383,96.71 c 0,-12.918 5.1289,-25.305 14.262,-34.438 9.1328,-9.1328 21.52,-14.262 34.438,-14.262 12.914,0 25.301,5.1289 34.434,14.262 9.1328,9.1328 14.262,21.52 14.262,34.438 0,12.914 -5.1289,25.301 -14.262,34.434 -9.1328,9.1328 -21.52,14.266 -34.434,14.266 -12.914,-0.0156 -25.293,-5.1523 -34.422,-14.281 -9.1289,-9.1289 -14.266,-21.508 -14.277,-34.418 z m -34.355,329.74 c 4.8828,-0.004 9.5508,1.9961 12.918,5.5352 3.3633,3.543 5.125,8.3086 4.8711,13.188 -0.25,4.875 -2.4961,9.4336 -6.207,12.609 13,24.797 37.898,41.105 65.824,43.121 v -36.895 c -13.121,-1.4102 -25.258,-7.6172 -34.086,-17.43 -8.8242,-9.8125 -13.715,-22.539 -13.73,-35.738 v -24.543 l -27.152,0.004 v 16.305 c 0,3.1836 -2.5781,5.7656 -5.7617,5.7656 -3.1836,0 -5.7656,-2.582 -5.7656,-5.7656 v -62.02 c -0.008,-25.117 10.242,-49.148 28.375,-66.527 18.133,-17.379 42.574,-26.602 67.668,-25.531 25.098,1.0703 48.664,12.344 65.25,31.207 5.4336,-1.6602 11.332,-0.63672 15.891,2.7578 4.5547,3.3984 7.2227,8.7578 7.1836,14.441 -0.0391,5.6797 -2.7812,11.004 -7.3789,14.34 -4.6016,3.332 -10.516,4.2773 -15.926,2.543 -5.4102,-1.7305 -9.6758,-5.9375 -11.484,-11.324 -1.8047,-5.3867 -0.94141,-11.312 2.3281,-15.957 -13.902,-15.391 -33.207,-24.82 -53.891,-26.32 v 36.895 -0.004 c 13.074,1.4648 25.152,7.6914 33.93,17.492 8.7773,9.8008 13.641,22.488 13.656,35.645 v 24.543 h 27.148 c 0,0 -0.0352,-36.914 -0.10547,-38.262 -0.15625,-3.1797 2.2891,-5.8867 5.4727,-6.0469 3.1797,-0.16016 5.8867,2.2891 6.0469,5.4688 0.0742,1.5469 0.11719,84.559 0.11719,84.559 -0.0117,27.832 -12.605,54.172 -34.258,71.656 -21.656,17.488 -50.055,24.25 -77.266,18.398 -27.211,-5.8477 -50.324,-23.684 -62.879,-48.527 -0.26562,0.0117 -0.52344,0.0391 -0.79297,0.0391 h 0.004 c -6.3242,-0.0586 -12.141,-3.4688 -15.285,-8.9531 -3.1445,-5.4883 -3.1445,-12.227 0,-17.715 3.1445,-5.4844 8.9609,-8.8945 15.285,-8.9531 z"
       id="path98"
       style="fill:#ffffff;fill-opacity:1" />
    <path
       d="M 238.32,133.43 V 103.2 h -30.824 c 1.3594,7.6172 5.0625,14.621 10.586,20.039 5.5234,5.4141 12.598,8.9805 20.238,10.191 z"
       id="path100"
       style="fill:#ffffff;fill-opacity:1" />
  </g>
</svg>
