<?xml version="1.0" encoding="UTF-8" standalone="no"?>
<svg
   xmlns:dc="http://purl.org/dc/elements/1.1/"
   xmlns:cc="http://creativecommons.org/ns#"
   xmlns:rdf="http://www.w3.org/1999/02/22-rdf-syntax-ns#"
   xmlns:svg="http://www.w3.org/2000/svg"
   xmlns="http://www.w3.org/2000/svg"
   xmlns:sodipodi="http://sodipodi.sourceforge.net/DTD/sodipodi-0.dtd"
   xmlns:inkscape="http://www.inkscape.org/namespaces/inkscape"
   width="798"
   height="798"
   version="1.1"
   viewBox="0 0 598.50001 598.50001"
   id="svg913"
   sodipodi:docname="Words of comfort.svg"
   inkscape:export-filename="/home/marek/Downloads/Words of comfort.png"
   inkscape:export-xdpi="6.0150375"
   inkscape:export-ydpi="6.0150375"
   inkscape:version="1.0.2 (e86c870879, 2021-01-15)">
  <metadata
     id="metadata917">
    <rdf:RDF>
      <cc:Work
         rdf:about="">
        <dc:format>image/svg+xml</dc:format>
        <dc:type
           rdf:resource="http://purl.org/dc/dcmitype/StillImage" />
        <dc:title></dc:title>
      </cc:Work>
    </rdf:RDF>
  </metadata>
  <sodipodi:namedview
     pagecolor="#ffffff"
     bordercolor="#666666"
     borderopacity="1"
     objecttolerance="10"
     gridtolerance="10"
     guidetolerance="10"
     inkscape:pageopacity="0"
     inkscape:pageshadow="2"
     inkscape:window-width="1920"
     inkscape:window-height="990"
     id="namedview915"
     showgrid="false"
     units="px"
     inkscape:pagecheckerboard="true"
     inkscape:zoom="0.44410714"
     inkscape:cx="352.30479"
     inkscape:cy="665.66258"
     inkscape:window-x="0"
     inkscape:window-y="30"
     inkscape:window-maximized="1"
     inkscape:current-layer="svg913" />
  <defs
     id="defs805">
    <symbol
       id="k"
       overflow="visible">
      <path
         d="m 20.031,-1.2031 c -1.0312,0.54297 -2.1094,0.94922 -3.2344,1.2188 -1.1172,0.26953 -2.2812,0.40625 -3.5,0.40625 -3.625,0 -6.5,-1.0156 -8.625,-3.0469 -2.125,-2.0313 -3.1875,-4.7812 -3.1875,-8.25 0,-3.4883 1.0625,-6.25 3.1875,-8.2812 2.125,-2.0312 5,-3.0469 8.625,-3.0469 1.2188,0 2.3828,0.14062 3.5,0.42188 1.125,0.27344 2.2031,0.67188 3.2344,1.2031 v 4.5156 c -1.043,-0.70703 -2.0703,-1.2266 -3.0781,-1.5625 -1.0117,-0.33203 -2.0781,-0.5 -3.2031,-0.5 -2,0 -3.5781,0.64844 -4.7344,1.9375 -1.1484,1.2812 -1.7188,3.0547 -1.7188,5.3125 0,2.25 0.57031,4.0156 1.7188,5.2969 1.1562,1.2812 2.7344,1.9219 4.7344,1.9219 1.125,0 2.1914,-0.16016 3.2031,-0.48438 1.0078,-0.33203 2.0352,-0.85156 3.0781,-1.5625 z"
         id="path736" />
    </symbol>
    <symbol
       id="c"
       overflow="visible">
      <path
         d="m 14.656,-11.906 c -0.46094,-0.20703 -0.91797,-0.36328 -1.375,-0.46875 -0.44922,-0.10156 -0.89844,-0.15625 -1.3438,-0.15625 -1.3438,0 -2.3828,0.43359 -3.1094,1.2969 C 8.09733,-10.36691 7.734,-9.1325 7.734,-7.531 V 2e-4 H 2.5152 v -16.359 H 7.734 v 2.6875 c 0.67578,-1.0703 1.4453,-1.8516 2.3125,-2.3438 0.875,-0.48828 1.9219,-0.73438 3.1406,-0.73438 0.17578,0 0.36328,0.01172 0.5625,0.03125 0.20703,0.01172 0.50391,0.04297 0.89062,0.09375 z"
         id="path739" />
    </symbol>
    <symbol
       id="a"
       overflow="visible">
      <path
         d="m 18.844,-8.2188 v 1.4844 H 6.61 c 0.13281,1.2305 0.57812,2.1523 1.3281,2.7656 0.75781,0.61719 1.8203,0.92188 3.1875,0.92188 1.1016,0 2.2266,-0.16016 3.375,-0.48438 1.1562,-0.33203 2.3438,-0.82812 3.5625,-1.4844 v 4.0156 c -1.2422,0.46875 -2.4805,0.82422 -3.7188,1.0625 -1.2305,0.23828 -2.4648,0.35938 -3.7031,0.35938 -2.9609,0 -5.2617,-0.75 -6.9062,-2.25 -1.6367,-1.5078 -2.4531,-3.6172 -2.4531,-6.3281 0,-2.6641 0.80469,-4.7656 2.4219,-6.2969 1.6133,-1.5312 3.832,-2.2969 6.6562,-2.2969 2.5625,0 4.6133,0.77734 6.1562,2.3281 1.5508,1.543 2.3281,3.6094 2.3281,6.2031 z m -5.375,-1.7344 c 0,-1 -0.29297,-1.8008 -0.875,-2.4062 -0.58594,-0.61328 -1.3398,-0.92188 -2.2656,-0.92188 -1.0117,0 -1.8359,0.28906 -2.4688,0.85938 -0.63672,0.57422 -1.0312,1.3984 -1.1875,2.4688 z"
         id="path742" />
    </symbol>
    <symbol
       id="e"
       overflow="visible">
      <path
         d="m 9.8438,-7.3594 c -1.0938,0 -1.918,0.1875 -2.4688,0.5625 -0.54297,0.36719 -0.8125,0.90625 -0.8125,1.625 0,0.66797 0.21875,1.1875 0.65625,1.5625 0.44531,0.375 1.0625,0.5625 1.8438,0.5625 0.98828,0 1.8164,-0.35156 2.4844,-1.0625 0.67578,-0.70703 1.0156,-1.5938 1.0156,-2.6562 v -0.59375 z m 7.9844,-1.9688 V -1e-4 H 12.5626 V -2.422 c -0.71094,0.99219 -1.5,1.7148 -2.375,2.1719 -0.875,0.44531 -1.9375,0.67188 -3.1875,0.67188 -1.6992,0 -3.0781,-0.49219 -4.1406,-1.4844 -1.0547,-0.98828 -1.5781,-2.2695 -1.5781,-3.8438 0,-1.9141 0.66016,-3.3203 1.9844,-4.2188 1.3203,-0.89453 3.3945,-1.3438 6.2188,-1.3438 h 3.0781 v -0.40625 c 0,-0.83203 -0.32812,-1.4414 -0.98438,-1.8281 -0.65625,-0.38281 -1.6719,-0.57812 -3.0469,-0.57812 -1.125,0 -2.1719,0.11719 -3.1406,0.34375 -0.96094,0.21875 -1.8516,0.55469 -2.6719,1 v -3.9844 c 1.1133,-0.26953 2.2344,-0.47266 3.3594,-0.60938 1.1328,-0.14453 2.2695,-0.21875 3.4062,-0.21875 2.9453,0 5.0703,0.58594 6.375,1.75 1.3125,1.1562 1.9688,3.0469 1.9688,5.6719 z"
         id="path745" />
    </symbol>
    <symbol
       id="b"
       overflow="visible">
      <path
         d="m 8.2188,-21 v 4.6406 h 5.3906 v 3.75 H 8.2188 v 6.9219 c 0,0.76172 0.14844,1.2773 0.45312,1.5469 0.30078,0.27344 0.89844,0.40625 1.7969,0.40625 h 2.6875 V 5e-5 h -4.4844 c -2.0625,0 -3.5273,-0.42578 -4.3906,-1.2812 -0.85547,-0.86328 -1.2812,-2.332 -1.2812,-4.4062 v -6.9219 h -2.6094 v -3.75 h 2.6094 v -4.6406 z"
         id="path748" />
    </symbol>
    <symbol
       id="n"
       overflow="visible">
      <path
         d="m 13.641,-13.953 v -8.7656 h 5.25 V 4e-4 h -5.25 V -2.359 c -0.71875,0.96094 -1.5156,1.6641 -2.3906,2.1094 -0.86719,0.44531 -1.8672,0.67188 -3,0.67188 -2.0117,0 -3.668,-0.79688 -4.9688,-2.3906 -1.293,-1.6016 -1.9375,-3.6641 -1.9375,-6.1875 0,-2.5195 0.64453,-4.582 1.9375,-6.1875 1.3008,-1.6016 2.957,-2.4062 4.9688,-2.4062 1.125,0 2.125,0.23047 3,0.6875 0.875,0.44922 1.6719,1.1523 2.3906,2.1094 z m -3.4531,10.578 c 1.125,0 1.9766,-0.40625 2.5625,-1.2188 0.59375,-0.82031 0.89062,-2.0078 0.89062,-3.5625 0,-1.5625 -0.29688,-2.75 -0.89062,-3.5625 -0.58594,-0.82031 -1.4375,-1.2344 -2.5625,-1.2344 -1.1055,0 -1.9531,0.41406 -2.5469,1.2344 -0.58594,0.8125 -0.875,2 -0.875,3.5625 0,1.5547 0.28906,2.7422 0.875,3.5625 0.59375,0.8125 1.4414,1.2188 2.5469,1.2188 z"
         id="path751" />
    </symbol>
    <symbol
       id="m"
       overflow="visible">
      <path
         d="m 11.219,-3.375 c 1.1133,0 1.9609,-0.40625 2.5469,-1.2188 0.59375,-0.82031 0.89062,-2.0078 0.89062,-3.5625 0,-1.5625 -0.29688,-2.75 -0.89062,-3.5625 -0.58594,-0.82031 -1.4336,-1.2344 -2.5469,-1.2344 -1.125,0 -1.9922,0.41406 -2.5938,1.2344 -0.59375,0.82422 -0.89062,2.0117 -0.89062,3.5625 0,1.543 0.29688,2.7266 0.89062,3.5469 0.60156,0.82422 1.4688,1.2344 2.5938,1.2344 z M 7.7346,-13.953 c 0.71875,-0.95703 1.5156,-1.6602 2.3906,-2.1094 0.88281,-0.45703 1.8945,-0.6875 3.0312,-0.6875 2.0195,0 3.6758,0.80469 4.9688,2.4062 1.2891,1.6055 1.9375,3.668 1.9375,6.1875 0,2.5234 -0.64844,4.5859 -1.9375,6.1875 -1.293,1.5938 -2.9492,2.3906 -4.9688,2.3906 -1.1367,0 -2.1484,-0.22656 -3.0312,-0.67188 -0.875,-0.45703 -1.6719,-1.1602 -2.3906,-2.1094 V 2e-5 H 2.5158 v -22.719 h 5.2188 z"
         id="path754" />
    </symbol>
    <symbol
       id="g"
       overflow="visible">
      <path
         d="m 0.35938,-16.359 h 5.2344 l 4.3906,11.109 3.7344,-11.109 h 5.2344 l -6.875,17.906 c -0.6875,1.8203 -1.4961,3.0938 -2.4219,3.8125 -0.91797,0.72656 -2.1328,1.0938 -3.6406,1.0938 H 3.00008 V 3.0158 h 1.625 c 0.88281,0 1.5312,-0.14062 1.9375,-0.42188 0.4063,-0.28126 0.71875,-0.78906 0.9375,-1.5156 L 7.65633,0.6252 Z"
         id="path757" />
    </symbol>
    <symbol
       id="l"
       overflow="visible">
      <path
         d="m 2.75,-21.797 h 15.172 v 4.25 H 8.3751 v 4.0469 h 8.9688 v 4.25 H 8.3751 v 9.25 h -5.625 z"
         id="path760" />
    </symbol>
    <symbol
       id="d"
       overflow="visible">
      <path
         d="M 18.953,-9.9531 V 0 h -5.25 v -7.625 c 0,-1.4062 -0.03906,-2.375 -0.10938,-2.9062 -0.0625,-0.53906 -0.16797,-0.9375 -0.3125,-1.1875 -0.21094,-0.34375 -0.49219,-0.60938 -0.84375,-0.79688 -0.34375,-0.19531 -0.74219,-0.29688 -1.1875,-0.29688 -1.0938,0 -1.9531,0.42188 -2.5781,1.2656 -0.625,0.84372 -0.9375,2.0117 -0.9375,3.5 V 4e-5 h -5.2188 v -16.359 h 5.2188 v 2.4062 c 0.78906,-0.95703 1.6289,-1.6602 2.5156,-2.1094 0.88281,-0.45703 1.8633,-0.6875 2.9375,-0.6875 1.8828,0 3.3164,0.57812 4.2969,1.7344 0.97656,1.1562 1.4688,2.8438 1.4688,5.0625 z"
         id="path763" />
    </symbol>
    <symbol
       id="j"
       overflow="visible">
      <path
         d="m 15.734,-15.844 v 4.2656 c -0.71875,-0.48828 -1.4375,-0.84766 -2.1562,-1.0781 -0.71094,-0.23828 -1.4492,-0.35938 -2.2188,-0.35938 -1.4609,0 -2.5938,0.42969 -3.4062,1.2812 -0.8125,0.85547 -1.2188,2.0469 -1.2188,3.5781 0,1.5234 0.40625,2.7109 1.2188,3.5625 0.8125,0.85547 1.9453,1.2812 3.4062,1.2812 0.82031,0 1.5977,-0.11719 2.3281,-0.35938 0.73828,-0.25 1.4219,-0.61328 2.0469,-1.0938 v 4.2812 c -0.82422,0.30469 -1.6562,0.52344 -2.5,0.67188 -0.84375,0.15625 -1.6875,0.23438 -2.5312,0.23438 -2.9492,0 -5.2578,-0.75391 -6.9219,-2.2656 -1.668,-1.5195 -2.5,-3.625 -2.5,-6.3125 0,-2.6953 0.83203,-4.8008 2.5,-6.3125 1.6641,-1.5195 3.9727,-2.2812 6.9219,-2.2812 0.85156,0 1.6953,0.07813 2.5312,0.23438 0.83203,0.14844 1.6641,0.37109 2.5,0.67188 z"
         id="path766" />
    </symbol>
    <symbol
       id="i"
       overflow="visible">
      <path
         d="M 2.5156,-16.359 H 7.7344 V 0 H 2.5156 Z m 0,-6.3594 h 5.2188 v 4.2656 H 2.5156 Z"
         id="path769" />
    </symbol>
    <symbol
       id="h"
       overflow="visible">
      <path
         d="M 2.5156,-22.719 H 7.7344 V 0 H 2.5156 Z"
         id="path772" />
    </symbol>
    <symbol
       id="f"
       overflow="visible">
      <path
         d="m 10.297,-13.016 c -1.1562,0 -2.043,0.41797 -2.6562,1.25 -0.60547,0.83594 -0.90625,2.0391 -0.90625,3.6094 0,1.5625 0.30078,2.7617 0.90625,3.5938 0.61328,0.83594 1.5,1.25 2.6562,1.25 1.1328,0 2.0039,-0.41406 2.6094,-1.25 0.60156,-0.83203 0.90625,-2.0312 0.90625,-3.5938 0,-1.5703 -0.30469,-2.7734 -0.90625,-3.6094 -0.60547,-0.83203 -1.4766,-1.25 -2.6094,-1.25 z m 0,-3.7344 c 2.8125,0 5.0078,0.76172 6.5938,2.2812 1.582,1.5234 2.375,3.625 2.375,6.3125 0,2.6875 -0.79297,4.793 -2.375,6.3125 -1.5859,1.5117 -3.7812,2.2656 -6.5938,2.2656 -2.8242,0 -5.0312,-0.75391 -6.625,-2.2656 -1.5938,-1.5195 -2.3906,-3.625 -2.3906,-6.3125 0,-2.6875 0.79688,-4.7891 2.3906,-6.3125 1.5938,-1.5195 3.8008,-2.2812 6.625,-2.2812 z"
         id="path775" />
    </symbol>
    <symbol
       id="w"
       overflow="visible">
      <path
         d="m 15.281,-15.844 v 3.9688 c -1.1172,-0.46875 -2.1953,-0.81641 -3.2344,-1.0469 -1.043,-0.23828 -2.0273,-0.35938 -2.9531,-0.35938 -0.99219,0 -1.7305,0.125 -2.2188,0.375 -0.48047,0.25 -0.71875,0.63672 -0.71875,1.1562 0,0.41797 0.17969,0.74219 0.54688,0.96875 0.36328,0.21875 1.0195,0.38281 1.9688,0.48438 l 0.92188,0.14062 c 2.6758,0.33594 4.4766,0.89062 5.4062,1.6719 0.92578,0.78125 1.3906,2.0078 1.3906,3.6719 0,1.7422 -0.64844,3.0469 -1.9375,3.9219 -1.2812,0.875 -3.1992,1.3125 -5.75,1.3125 -1.0859,0 -2.2031,-0.089844 -3.3594,-0.26562 -1.1484,-0.16406 -2.3281,-0.41406 -3.5469,-0.75 v -3.9844 c 1.0391,0.51172 2.1094,0.89844 3.2031,1.1562 1.0938,0.25 2.207,0.375 3.3438,0.375 1.0195,0 1.7852,-0.14062 2.2969,-0.42188 0.51953,-0.28906 0.78125,-0.71094 0.78125,-1.2656 0,-0.46875 -0.17969,-0.81641 -0.53125,-1.0469 -0.35547,-0.22656 -1.0625,-0.40625 -2.125,-0.53125 L 7.84343,-6.42216 c -2.3242,-0.28906 -3.9531,-0.83203 -4.8906,-1.625 -0.9375,-0.78906 -1.4062,-1.9883 -1.4062,-3.5938 0,-1.7266 0.59375,-3.0078 1.7812,-3.8438 1.1875,-0.84375 3.0078,-1.2656 5.4688,-1.2656 0.95703,0 1.9688,0.07422 3.0312,0.21875 1.0625,0.14844 2.2109,0.375 3.4531,0.6875 z"
         id="path778" />
    </symbol>
    <symbol
       id="v"
       overflow="visible">
      <path
         d="m 17.922,-21.109 v 4.6094 c -1.1992,-0.53125 -2.3711,-0.92969 -3.5156,-1.2031 -1.1367,-0.28125 -2.2109,-0.42188 -3.2188,-0.42188 -1.3438,0 -2.3398,0.1875 -2.9844,0.5625 -0.63672,0.36719 -0.95312,0.9375 -0.95312,1.7188 0,0.58594 0.21094,1.043 0.64062,1.375 0.4375,0.32422 1.2227,0.60156 2.3594,0.82812 l 2.3906,0.48438 c 2.4258,0.49219 4.1484,1.2305 5.1719,2.2188 1.0195,0.99219 1.5312,2.4023 1.5312,4.2344 0,2.4062 -0.71484,4.1992 -2.1406,5.375 -1.4297,1.168 -3.6055,1.75 -6.5312,1.75 C 9.2853,0.42242 7.8947,0.28961 6.5001,0.0318 5.1134,-0.22601 3.7267,-0.61664 2.3439,-1.1401 v -4.75 c 1.3828,0.74219 2.7266,1.2969 4.0312,1.6719 1.3008,0.375 2.5547,0.5625 3.7656,0.5625 1.2188,0 2.1562,-0.20312 2.8125,-0.60938 0.6563,-0.40626 0.98438,-0.98828 0.98438,-1.75 0,-0.67578 -0.22656,-1.1953 -0.67188,-1.5625 -0.4375,-0.375 -1.3242,-0.71094 -2.6562,-1.0156 L 8.4376,-9.06193 c -2.1797,-0.46875 -3.7734,-1.2109 -4.7812,-2.2344 -1.0117,-1.0195 -1.5156,-2.3984 -1.5156,-4.1406 0,-2.1641 0.70312,-3.832 2.1094,-5 1.4062,-1.1758 3.4219,-1.7656 6.0469,-1.7656 1.1953,0 2.4258,0.09375 3.6875,0.28125 1.2695,0.17969 2.582,0.44922 3.9375,0.8125 z"
         id="path781" />
    </symbol>
    <symbol
       id="u"
       overflow="visible">
      <path
         d="m 13.281,-22.719 v 3.4219 h -2.9062 c -0.74219,0 -1.2578,0.13672 -1.5469,0.40625 -0.29297,0.27344 -0.4375,0.73438 -0.4375,1.3906 v 1.1406 h 4.4688 v 3.75 H 8.3904 v 12.609 H 3.1716 v -12.609 H 0.5622 v -3.75 h 2.6094 v -1.1406 c 0,-1.7812 0.49219,-3.0938 1.4844,-3.9375 0.98828,-0.85156 2.5234,-1.2812 4.6094,-1.2812 z"
         id="path784" />
    </symbol>
    <symbol
       id="t"
       overflow="visible">
      <path
         d="m 17.672,-13.641 c 0.65625,-1.0078 1.4375,-1.7812 2.3438,-2.3125 0.91406,-0.53125 1.9219,-0.79688 3.0156,-0.79688 1.875,0 3.3008,0.57812 4.2812,1.7344 0.98828,1.1562 1.4844,2.8438 1.4844,5.0625 v 9.9531 h -5.25 v -8.5312 -0.39062 c 0.0078,-0.13281 0.01563,-0.32812 0.01563,-0.57812 0,-1.1641 -0.17188,-2.0078 -0.51562,-2.5312 -0.33594,-0.51953 -0.88281,-0.78125 -1.6406,-0.78125 -0.99219,0 -1.7578,0.41406 -2.2969,1.2344 -0.54297,0.8125 -0.82422,1.9961 -0.84375,3.5469 v 8.0312 h -5.25 v -8.5312 c 0,-1.8125 -0.15625,-2.9766 -0.46875,-3.5 -0.3125,-0.51953 -0.87109,-0.78125 -1.6719,-0.78125 -1,0 -1.7773,0.41406 -2.3281,1.2344 -0.54297,0.82422 -0.8125,2 -0.8125,3.5312 v 8.0469 h -5.25 v -16.359 h 5.25 v 2.4062 c 0.64453,-0.92578 1.3828,-1.625 2.2188,-2.0938 0.83203,-0.46875 1.75,-0.70312 2.75,-0.70312 1.125,0 2.1172,0.27734 2.9844,0.82812 0.875,0.54297 1.5352,1.3047 1.9844,2.2812 z"
         id="path787" />
    </symbol>
    <symbol
       id="s"
       overflow="visible">
      <path
         d="M 18.953,-9.9531 V 0 h -5.25 v -7.5938 c 0,-1.4258 -0.03906,-2.4062 -0.10938,-2.9375 -0.0625,-0.53906 -0.16797,-0.9375 -0.3125,-1.1875 -0.21094,-0.34375 -0.49219,-0.60938 -0.84375,-0.79688 -0.34375,-0.19531 -0.74219,-0.29688 -1.1875,-0.29688 -1.0938,0 -1.9531,0.42188 -2.5781,1.2656 -0.625,0.84372 -0.9375,2.0117 -0.9375,3.5 V -6e-5 h -5.2188 v -22.719 h 5.2188 v 8.7656 c 0.78906,-0.95703 1.6289,-1.6602 2.5156,-2.1094 0.88281,-0.45703 1.8633,-0.6875 2.9375,-0.6875 1.8828,0 3.3164,0.57812 4.2969,1.7344 0.97656,1.1562 1.4688,2.8438 1.4688,5.0625 z"
         id="path790" />
    </symbol>
    <symbol
       id="r"
       overflow="visible">
      <path
         d="m 2.75,-21.797 h 6.2812 l 7.9219,14.953 v -14.953 h 5.3281 V 0 H 16 L 8.0781,-14.953 V 0 H 2.75 Z"
         id="path793" />
    </symbol>
    <symbol
       id="q"
       overflow="visible">
      <path
         d="m 2.3438,-6.3594 v -10 h 5.25 v 1.6406 c 0,0.88672 -0.00781,2 -0.015625,3.3438 -0.011719,1.3359 -0.015625,2.2266 -0.015625,2.6719 0,1.3125 0.03125,2.2617 0.09375,2.8438 0.070312,0.57422 0.19141,0.99609 0.35938,1.2656 0.21875,0.33594 0.5,0.59375 0.84375,0.78125 0.34375,0.1875 0.73828,0.28125 1.1875,0.28125 1.0938,0 1.9453,-0.41406 2.5625,-1.25 0.625,-0.84375 0.9375,-2.0078 0.9375,-3.5 v -8.0781 h 5.2344 V -3e-4 h -5.2344 v -2.3594 c -0.78125,0.94922 -1.6172,1.6523 -2.5,2.1094 -0.88672,0.44531 -1.8555,0.67188 -2.9062,0.67188 -1.8984,0 -3.3398,-0.57812 -4.3281,-1.7344 -0.98047,-1.1562 -1.4688,-2.8359 -1.4688,-5.0469 z"
         id="path796" />
    </symbol>
    <symbol
       id="p"
       overflow="visible">
      <path
         d="m 2.75,-21.797 h 9.3281 c 2.7695,0 4.8945,0.61719 6.375,1.8438 1.4883,1.2305 2.2344,2.9844 2.2344,5.2656 0,2.2812 -0.74609,4.043 -2.2344,5.2812 -1.4805,1.2305 -3.6055,1.8438 -6.375,1.8438 H 8.375 V -1e-4 H 2.75 Z m 5.625,4.0625 v 6.0938 h 3.1094 c 1.082,0 1.9219,-0.26562 2.5156,-0.79688 0.5937,-0.53126 0.89062,-1.2812 0.89062,-2.25 0,-0.97656 -0.29688,-1.7266 -0.89062,-2.25 -0.59375,-0.53125 -1.4336,-0.79688 -2.5156,-0.79688 z"
         id="path799" />
    </symbol>
    <symbol
       id="o"
       overflow="visible">
      <path
         d="m 2.5156,-16.359 h 5.2188 v 16.062 c 0,2.1953 -0.52734,3.8672 -1.5781,5.0156 C 5.1016,5.8748 3.5821,6.453 1.5938,6.453 H -1 V 3.0155 h 0.90625 c 1,0 1.6797,-0.22656 2.0469,-0.67188 0.375,-0.44922 0.5625,-1.3281 0.5625,-2.6406 z m 0,-6.3594 h 5.2188 v 4.2656 H 2.5156 Z"
         id="path802" />
    </symbol>
  </defs>
  <path
     d="m 597.55078,158.94301 c -7.9766,-78.469005 -74.238,-139.700005 -154.8,-139.700005 -64.578,0 -119.94,39.332 -143.5,95.336005 -23.559,-56.004005 -78.918,-95.336005 -143.49,-95.336005 -80.569995,0 -146.839995,61.227 -154.809995,139.700005 -0.53125,5.2305 -0.80078,10.543 -0.80078,15.914 0,189.06999 232.029995,278.3 299.099995,404.39999 67.07,-126.09 299.1,-215.33 299.1,-404.4 0,-5.3711 -0.26953,-10.684 -0.80078,-15.914 z"
     id="path807"
     style="fill:#ffffff;fill-opacity:1" />
</svg>
